<svg width="38" height="39" viewBox="0 0 38 39" fill="none" xmlns="http://www.w3.org/2000/svg">
<ellipse cx="18.8179" cy="19.3203" rx="18.6588" ry="18.75" fill="#D0021B"/>
<path d="M18.8025 11.4367C19.4637 11.4367 20.0979 11.7006 20.5654 12.1705C21.033 12.6403 21.2957 13.2776 21.2957 13.942C21.2957 14.6065 21.033 15.2438 20.5654 15.7136C20.0979 16.1835 19.4637 16.4474 18.8025 16.4474C18.1411 16.4474 17.5068 16.1834 17.0391 15.7134C16.5715 15.2435 16.3087 14.6061 16.3087 13.9415C16.3087 13.2769 16.5715 12.6395 17.0391 12.1695C17.5068 11.6996 18.1411 11.4367 18.8025 11.4367ZM18.8025 12.5617C18.4382 12.5617 18.0888 12.7071 17.8312 12.966C17.5736 13.2248 17.4288 13.5759 17.4288 13.942C17.4288 14.3081 17.5736 14.6592 17.8312 14.9181C18.0888 15.177 18.4382 15.3224 18.8025 15.3224C19.167 15.3224 19.5165 15.1769 19.7742 14.918C20.0319 14.659 20.1767 14.3077 20.1767 13.9415C20.1767 13.5752 20.0319 13.224 19.7742 12.965C19.5165 12.706 19.167 12.5617 18.8025 12.5617ZM10.9983 21.0104C10.9983 21.1596 10.9393 21.3027 10.8343 21.4082C10.7294 21.5137 10.587 21.5729 10.4385 21.5729C10.2901 21.5729 10.1477 21.5137 10.0427 21.4082C9.93773 21.3027 9.87875 21.1596 9.87875 21.0104V18.2137C9.87879 17.9381 9.97946 17.6722 10.1617 17.4663C10.3439 17.2603 10.595 17.1288 10.8673 17.0965L10.9983 17.0887H14.0848C13.9219 17.3711 13.8226 17.686 13.7937 18.0112L13.7848 18.2137H10.9972L10.9983 21.0104ZM27.2023 21.5729C27.3507 21.5729 27.4931 21.5137 27.5981 21.4082C27.7031 21.3027 27.7621 21.1596 27.7621 21.0104V18.2137L27.7542 18.0832C27.7224 17.8093 27.5916 17.5567 27.3867 17.3734C27.1817 17.1901 26.9169 17.0887 26.6425 17.0887H23.5258C23.6892 17.3733 23.7945 17.6995 23.8191 18.046L23.8247 18.2148H26.6425V21.0104C26.6425 21.1596 26.7015 21.3027 26.8065 21.4082C26.9115 21.5137 27.0538 21.5729 27.2023 21.5729ZM21.5868 17.0887C21.8611 17.0887 22.1259 17.1901 22.3309 17.3734C22.5358 17.5567 22.6666 17.8093 22.6984 18.0832L22.7052 18.2137V21.0104C22.7052 21.1596 22.6462 21.3027 22.5412 21.4082C22.4362 21.5137 22.2939 21.5729 22.1454 21.5729C21.9969 21.5729 21.8546 21.5137 21.7496 21.4082C21.6446 21.3027 21.5856 21.1596 21.5856 21.0104V18.2137H16.0238V21.0104C16.0238 21.1596 15.9649 21.3027 15.8599 21.4082C15.7549 21.5137 15.6125 21.5729 15.4641 21.5729C15.3156 21.5729 15.1732 21.5137 15.0683 21.4082C14.9633 21.3027 14.9043 21.1596 14.9043 21.0104V18.2137C14.9043 17.9381 15.005 17.6722 15.1872 17.4663C15.3694 17.2603 15.6205 17.1288 15.8928 17.0965L16.0238 17.0887H21.5856H21.5868ZM26.5283 14.2953C26.5283 13.7244 26.3026 13.1768 25.9009 12.7731C25.4992 12.3694 24.9543 12.1426 24.3861 12.1426C23.818 12.1426 23.2731 12.3694 22.8714 12.7731C22.4696 13.1768 22.2439 13.7244 22.2439 14.2953C22.2439 14.8662 22.4696 15.4138 22.8714 15.8175C23.2731 16.2212 23.818 16.448 24.3861 16.448C24.9543 16.448 25.4992 16.2212 25.9009 15.8175C26.3026 15.4138 26.5283 14.8662 26.5283 14.2953ZM23.3634 14.2953C23.3634 14.0227 23.4712 13.7613 23.663 13.5686C23.8548 13.3759 24.1149 13.2676 24.3861 13.2676C24.6574 13.2676 24.9175 13.3759 25.1093 13.5686C25.3011 13.7613 25.4088 14.0227 25.4088 14.2953C25.4088 14.5679 25.3011 14.8293 25.1093 15.022C24.9175 15.2147 24.6574 15.323 24.3861 15.323C24.1149 15.323 23.8548 15.2147 23.663 15.022C23.4712 14.8293 23.3634 14.5679 23.3634 14.2953ZM13.2373 12.142C13.8055 12.142 14.3504 12.3688 14.7521 12.7726C15.1538 13.1763 15.3795 13.7238 15.3795 14.2947C15.3795 14.8657 15.1538 15.4132 14.7521 15.8169C14.3504 16.2206 13.8055 16.4474 13.2373 16.4474C12.6692 16.4474 12.1243 16.2206 11.7226 15.8169C11.3208 15.4132 11.0951 14.8657 11.0951 14.2947C11.0951 13.7238 11.3208 13.1763 11.7226 12.7726C12.1243 12.3688 12.6692 12.142 13.2373 12.142ZM13.2373 13.267C12.9661 13.267 12.706 13.3753 12.5142 13.568C12.3224 13.7608 12.2146 14.0222 12.2146 14.2947C12.2146 14.5673 12.3224 14.8287 12.5142 15.0214C12.706 15.2141 12.9661 15.3224 13.2373 15.3224C13.5086 15.3224 13.7687 15.2141 13.9605 15.0214C14.1523 14.8287 14.26 14.5673 14.26 14.2947C14.26 14.0222 14.1523 13.7608 13.9605 13.568C13.7687 13.3753 13.5086 13.267 13.2373 13.267ZM10.4206 22.6979C10.2721 22.6979 10.1298 22.7572 10.0248 22.8627C9.91981 22.9682 9.86084 23.1112 9.86084 23.2604V24.3854C9.86084 25.1313 10.1557 25.8467 10.6806 26.3742C11.2055 26.9016 11.9174 27.1979 12.6597 27.1979H24.9744C25.7167 27.1979 26.4286 26.9016 26.9535 26.3742C27.4784 25.8467 27.7733 25.1313 27.7733 24.3854V23.2604C27.7733 23.1112 27.7143 22.9682 27.6093 22.8627C27.5043 22.7572 27.3619 22.6979 27.2135 22.6979H10.4206ZM10.9804 24.3854V23.8229H26.6537V24.3854C26.6537 24.833 26.4768 25.2622 26.1619 25.5787C25.8469 25.8951 25.4198 26.0729 24.9744 26.0729H12.6597C12.2143 26.0729 11.7871 25.8951 11.4722 25.5787C11.1573 25.2622 10.9804 24.833 10.9804 24.3854Z" fill="white"/>
</svg>
