<svg width="38" height="39" viewBox="0 0 38 39" fill="none" xmlns="http://www.w3.org/2000/svg">
<ellipse cx="19.1568" cy="19.3203" rx="18.6588" ry="18.75" fill="#D0021B"/>
<g clipPath="url(#clip0_2041_48887)">
<path d="M23.9323 17.3338C23.4078 16.8067 22.6963 16.5105 21.9545 16.5105C21.2127 16.5105 20.5012 16.8067 19.9767 17.3338C19.4521 17.8609 19.1574 18.5758 19.1574 19.3213C19.1574 20.0667 19.4521 20.7817 19.9767 21.3088C20.2364 21.5698 20.5448 21.7768 20.8841 21.9181C21.2235 22.0593 21.5872 22.132 21.9545 22.132C22.3218 22.132 22.6856 22.0593 23.0249 21.9181C23.3643 21.7768 23.6726 21.5698 23.9323 21.3088C24.1921 21.0478 24.3981 20.7379 24.5387 20.3969C24.6792 20.0559 24.7516 19.6904 24.7516 19.3213C24.7516 18.9522 24.6792 18.5867 24.5387 18.2457C24.3981 17.9046 24.1921 17.5948 23.9323 17.3338ZM14.491 13.6963V24.9463H29.418V13.6963H14.491ZM27.5521 21.1963C27.0577 21.1963 26.5819 21.3932 26.2367 21.7494C25.8822 22.0963 25.6863 22.5744 25.6863 23.0713H18.2228C18.2228 22.5744 18.0268 22.0963 17.6723 21.7494C17.3271 21.3932 16.8513 21.1963 16.3569 21.1963V17.4463C16.8513 17.4463 17.3271 17.2494 17.6723 16.8932C18.0268 16.5463 18.2228 16.0682 18.2228 15.5713H25.6863C25.6863 16.0682 25.8822 16.5463 26.2367 16.8932C26.5819 17.2494 27.0577 17.4463 27.5521 17.4463V21.1963ZM12.6251 15.5713H10.7593C10.2461 15.5713 9.82633 15.1494 9.82633 14.6338C9.82633 14.1182 10.2461 13.6963 10.7593 13.6963H12.6251V15.5713ZM12.6251 20.2588H9.82633C9.31321 20.2588 8.89339 19.8369 8.89339 19.3213C8.89339 18.8057 9.31321 18.3838 9.82633 18.3838H12.6251V20.2588ZM12.6251 24.9463H8.89339C8.37841 24.9463 7.96045 24.5244 7.96045 24.0088C7.96045 23.4932 8.37841 23.0713 8.89339 23.0713H12.6251V24.9463Z" fill="white"/>
</g>
<defs>
<clipPath id="clip0_2041_48887">
<rect width="22.3905" height="22.5" fill="white" transform="translate(7.96045 8.07129)"/>
</clipPath>
</defs>
</svg>
