<svg width="23" height="24" viewBox="0 0 23 24" fill="none" xmlns="http://www.w3.org/2000/svg">
<g id="humbleicons:support">
<path id="Vector" d="M16.9057 17.6914L14.1069 14.8789M8.50925 9.25391L5.71043 6.44141M14.1069 9.25391L16.9057 6.44141M5.71043 17.6914L8.50925 14.8789M19.7045 12.0664C19.7045 13.1744 19.4873 14.2716 19.0654 15.2953C18.6434 16.319 18.0249 17.2491 17.2452 18.0326C16.4656 18.8161 15.5399 19.4376 14.5212 19.8616C13.5025 20.2857 12.4107 20.5039 11.3081 20.5039C10.2054 20.5039 9.11359 20.2857 8.09488 19.8616C7.07618 19.4376 6.15056 18.8161 5.37088 18.0326C4.5912 17.2491 3.97272 16.319 3.55076 15.2953C3.1288 14.2716 2.91162 13.1744 2.91162 12.0664C2.91162 9.82864 3.79624 7.68253 5.37088 6.10019C6.94552 4.51785 9.08119 3.62891 11.3081 3.62891C13.5349 3.62891 15.6706 4.51785 17.2452 6.10019C18.8199 7.68253 19.7045 9.82864 19.7045 12.0664ZM15.0398 12.0664C15.0398 13.061 14.6466 14.0148 13.9468 14.7181C13.247 15.4213 12.2978 15.8164 11.3081 15.8164C10.3183 15.8164 9.36915 15.4213 8.66932 14.7181C7.96948 14.0148 7.57631 13.061 7.57631 12.0664C7.57631 11.0718 7.96948 10.118 8.66932 9.41476C9.36915 8.71149 10.3183 8.31641 11.3081 8.31641C12.2978 8.31641 13.247 8.71149 13.9468 9.41476C14.6466 10.118 15.0398 11.0718 15.0398 12.0664Z" stroke="white" strokeWidth="1.5"/>
</g>
</svg>
