<svg width="38" height="38" viewBox="0 0 38 38" fill="none" xmlns="http://www.w3.org/2000/svg">
<ellipse cx="19.3072" cy="19.0674" rx="18.6588" ry="18.75" fill="#D0021B"/>
<path d="M24.9057 24.6914L22.1069 21.8789M16.5092 16.2539L13.7104 13.4414M22.1069 16.2539L24.9057 13.4414M13.7104 24.6914L16.5092 21.8789M27.7045 19.0664C27.7045 20.1744 27.4873 21.2716 27.0654 22.2953C26.6434 23.319 26.0249 24.2491 25.2452 25.0326C24.4656 25.8161 23.5399 26.4376 22.5212 26.8616C21.5025 27.2857 20.4107 27.5039 19.3081 27.5039C18.2054 27.5039 17.1136 27.2857 16.0949 26.8616C15.0762 26.4376 14.1506 25.8161 13.3709 25.0326C12.5912 24.2491 11.9727 23.319 11.5508 22.2953C11.1288 21.2716 10.9116 20.1744 10.9116 19.0664C10.9116 16.8286 11.7962 14.6825 13.3709 13.1002C14.9455 11.5179 17.0812 10.6289 19.3081 10.6289C21.5349 10.6289 23.6706 11.5179 25.2452 13.1002C26.8199 14.6825 27.7045 16.8286 27.7045 19.0664ZM23.0398 19.0664C23.0398 20.061 22.6466 21.0148 21.9468 21.7181C21.247 22.4213 20.2978 22.8164 19.3081 22.8164C18.3183 22.8164 17.3692 22.4213 16.6693 21.7181C15.9695 21.0148 15.5763 20.061 15.5763 19.0664C15.5763 18.0718 15.9695 17.118 16.6693 16.4148C17.3692 15.7115 18.3183 15.3164 19.3081 15.3164C20.2978 15.3164 21.247 15.7115 21.9468 16.4148C22.6466 17.118 23.0398 18.0718 23.0398 19.0664Z" stroke="white" stroke-width="1.5"/>
</svg>
