<svg width="39" height="39" viewBox="0 0 39 39" fill="none" xmlns="http://www.w3.org/2000/svg">
<ellipse cx="19.4771" cy="19.3203" rx="18.6588" ry="18.75" fill="#D0021B"/>
<path d="M28.2548 18.7701L20.017 10.492C19.6718 10.1451 19.196 9.94824 18.7015 9.94824H12.0124C10.9861 9.94824 10.1465 10.792 10.1465 11.8232V18.5451C10.1465 19.042 10.3424 19.5201 10.6969 19.867L18.9348 28.1451C19.6625 28.8764 20.8473 28.8764 21.575 28.1451L28.2641 21.4232C28.9918 20.692 28.9918 19.5107 28.2548 18.7701ZM14.3447 15.5732C13.5704 15.5732 12.9453 14.9451 12.9453 14.167C12.9453 13.3889 13.5704 12.7607 14.3447 12.7607C15.119 12.7607 15.7441 13.3889 15.7441 14.167C15.7441 14.9451 15.119 15.5732 14.3447 15.5732Z" fill="white"/>
</svg>
