<svg width="38" height="38" viewBox="0 0 38 38" fill="none" xmlns="http://www.w3.org/2000/svg">
<ellipse cx="18.9678" cy="19.0674" rx="18.6588" ry="18.75" fill="#D0021B"/>
<path d="M25.9667 23.2852C25.4685 23.2877 24.9802 23.4251 24.5533 23.6831L19.9591 19.0664L24.554 14.449C24.9806 14.7073 25.4687 14.845 25.9667 14.8477C26.5203 14.8477 27.0614 14.6827 27.5217 14.3737C27.9819 14.0646 28.3406 13.6254 28.5525 13.1115C28.7643 12.5975 28.8197 12.032 28.7117 11.4865C28.6038 10.9409 28.3372 10.4398 27.9458 10.0464C27.5544 9.65308 27.0557 9.38522 26.5127 9.2767C25.9698 9.16818 25.4071 9.22387 24.8957 9.43675C24.3842 9.64962 23.9471 10.0101 23.6396 10.4726C23.332 10.9351 23.1679 11.4789 23.1679 12.0352C23.1705 12.5356 23.3075 13.0261 23.5646 13.4548L18.9697 18.0722L14.3754 13.4555C14.6322 13.0264 14.769 12.5358 14.7715 12.0352C14.7715 11.4789 14.6073 10.9351 14.2998 10.4726C13.9922 10.0101 13.5551 9.64962 13.0437 9.43675C12.5323 9.22387 11.9695 9.16818 11.4266 9.2767C10.8837 9.38522 10.385 9.65308 9.99358 10.0464C9.60216 10.4398 9.3356 10.9409 9.22761 11.4865C9.11961 12.032 9.17504 12.5975 9.38688 13.1115C9.59871 13.6254 9.95744 14.0646 10.4177 14.3737C10.878 14.6827 11.4191 14.8477 11.9726 14.8477C12.4708 14.8452 12.9591 14.7077 13.386 14.4497L17.9803 19.0664L13.3853 23.6838C12.9588 23.4255 12.4707 23.2878 11.9726 23.2852C11.4191 23.2852 10.878 23.4501 10.4177 23.7591C9.95744 24.0682 9.59871 24.5074 9.38688 25.0214C9.17504 25.5353 9.11961 26.1008 9.22761 26.6463C9.3356 27.1919 9.60216 27.6931 9.99358 28.0864C10.385 28.4797 10.8837 28.7476 11.4266 28.8561C11.9695 28.9646 12.5323 28.9089 13.0437 28.6961C13.5551 28.4832 13.9922 28.1227 14.2998 27.6602C14.6073 27.1977 14.7715 26.6539 14.7715 26.0977C14.7689 25.5972 14.6318 25.1067 14.3747 24.678L18.9697 20.0606L23.5639 24.6773C23.3072 25.1064 23.1704 25.597 23.1679 26.0977C23.1679 26.6539 23.332 27.1977 23.6396 27.6602C23.9471 28.1227 24.3842 28.4832 24.8957 28.6961C25.4071 28.9089 25.9698 28.9646 26.5127 28.8561C27.0557 28.7476 27.5544 28.4797 27.9458 28.0864C28.3372 27.6931 28.6038 27.1919 28.7117 26.6463C28.8197 26.1008 28.7643 25.5353 28.5525 25.0214C28.3406 24.5074 27.9819 24.0682 27.5217 23.7591C27.0614 23.4501 26.5203 23.2852 25.9667 23.2852ZM25.9667 10.6289C26.2435 10.6289 26.514 10.7114 26.7442 10.8659C26.9743 11.0204 27.1537 11.2401 27.2596 11.497C27.3655 11.754 27.3932 12.0367 27.3392 12.3095C27.2852 12.5823 27.152 12.8329 26.9562 13.0295C26.7605 13.2262 26.5112 13.3601 26.2397 13.4144C25.9683 13.4686 25.6869 13.4408 25.4312 13.3344C25.1755 13.2279 24.9569 13.0477 24.8031 12.8164C24.6494 12.5852 24.5673 12.3133 24.5673 12.0352C24.5677 11.6623 24.7152 11.3048 24.9776 11.0412C25.24 10.7776 25.5957 10.6293 25.9667 10.6289ZM11.9726 27.5039C11.6959 27.5039 11.4253 27.4214 11.1952 27.2669C10.965 27.1124 10.7857 26.8928 10.6798 26.6358C10.5738 26.3788 10.5461 26.0961 10.6001 25.8233C10.6541 25.5505 10.7874 25.3 10.9831 25.1033C11.1788 24.9066 11.4282 24.7727 11.6996 24.7184C11.9711 24.6642 12.2525 24.692 12.5082 24.7985C12.7639 24.9049 12.9824 25.0851 13.1362 25.3164C13.29 25.5476 13.3721 25.8195 13.3721 26.0977C13.3717 26.4705 13.2241 26.828 12.9618 27.0916C12.6994 27.3553 12.3437 27.5035 11.9726 27.5039Z" fill="white"/>
</svg>
