<svg width="94" height="32" viewBox="0 0 94 32" fill="none" xmlns="http://www.w3.org/2000/svg">
<g id="CRAI_logo.svg_adobe_express 1" clipPath="url(#clip0_2456_3317)">
<path id="Vector" d="M17.9737 0.264648C17.9412 0.315894 17.8773 0.402948 17.803 0.413089C16.3573 0.610356 14.9811 1.04917 13.6373 1.60076C11.9022 2.31293 10.2997 3.27058 8.87287 4.47034C7.79348 5.37798 6.80806 6.40949 5.86102 7.45829C5.19173 8.19948 4.60299 9.02831 4.07261 9.87696C2.91846 11.7237 2.03939 13.7002 1.58034 15.8402C1.41019 16.6334 1.31566 17.4428 1.18212 18.244C1.17294 18.2991 1.1259 18.3479 1.06447 18.3996C1.03247 12.3605 1.03247 6.32128 1.03247 0.264649C6.66749 0.264649 12.3025 0.264649 17.9737 0.264648Z" fill="white"/>
<path id="Vector_2" d="M45.9268 14.8693C45.4727 14.33 44.8779 14.2038 44.2013 14.2215C43.1346 14.2494 42.0665 14.2388 40.9994 14.222C40.7306 14.2178 40.6196 14.3035 40.5472 14.5586C39.7809 17.2616 39.0046 19.9617 38.2279 22.6617C37.6461 24.6837 37.0494 26.7014 36.4786 28.7264C36.0481 30.2536 34.8691 30.9202 33.4672 30.9662C31.9257 31.0168 30.3807 30.9991 28.8382 30.9674C28.0822 30.9518 27.373 30.7611 27.0684 29.9038C26.6133 30.0723 26.1743 30.2475 25.7272 30.3983C23.9953 30.9823 22.2242 31.3838 20.3982 31.528C18.5333 31.6753 16.6837 31.6588 14.863 31.1385C13.6899 30.8033 12.6742 30.1964 11.7397 29.4366C10.4466 28.3852 9.40186 27.1301 8.67206 25.6248C8.60096 25.4782 8.56864 25.3127 8.552 25.1388C9.57142 26.8783 11.0123 28.1602 12.7617 29.1185C12.8105 29.1453 12.8826 29.1296 12.965 29.1548C13.4723 29.4106 13.9378 29.7176 14.4493 29.864C15.3823 30.1309 16.333 30.4014 17.2934 30.4945C19.6774 30.7258 22.0045 30.3215 24.283 29.6271C25.6462 29.2117 26.9678 28.6946 28.2136 27.8388C28.135 28.1461 28.0727 28.3785 28.0162 28.6123C27.8648 29.2391 28.0968 29.645 28.7148 29.8048C28.9244 29.859 29.145 29.8949 29.3609 29.8961C30.7107 29.9037 32.0608 29.9117 33.4105 29.8943C34.4763 29.8805 35.1068 29.3898 35.4142 28.3678C35.8467 26.93 36.2781 25.4917 36.6935 24.0488C37.6522 20.7194 38.6016 17.3872 39.5533 14.0558C39.7178 13.4799 40.0684 13.1506 40.5992 13.1475C41.8331 13.1402 43.0671 13.1535 44.3146 13.1784C45.1707 13.4591 45.7418 13.9795 45.9268 14.8693Z" fill="white"/>
<path id="Vector_3" d="M25.525 22.8779C26.6209 22.3004 27.7231 21.7343 28.8064 21.1341C28.9819 21.0368 29.1363 20.8062 29.1944 20.6064C30.3136 16.7572 31.4327 12.9078 32.5158 9.04832C32.9375 7.54556 33.8297 6.62075 35.4577 6.38053C37.6114 6.36765 39.7017 6.36396 41.792 6.35915C43.4332 6.35538 45.0744 6.35024 46.7156 6.3457C47.7497 6.35156 48.7837 6.35741 49.8848 6.36376C50.0494 6.38756 50.1459 6.42012 50.2449 6.43277C51.7819 6.6292 53.0645 7.30979 54.093 8.46459C54.2053 8.5907 54.2664 8.76241 54.3254 8.90781C53.4923 8.1835 52.5475 7.73179 51.4883 7.56151C50.7681 7.44572 50.0334 7.36792 49.3048 7.36499C44.9194 7.34733 40.534 7.35583 36.1485 7.35646C34.7086 7.35667 34.0789 7.81145 33.678 9.18086C32.4885 13.2445 31.3105 17.3115 30.1165 21.3738C30.0608 21.5635 29.9338 21.7825 29.774 21.8839C26.7042 23.8311 23.3739 24.8166 19.7344 24.5336C20.2483 24.4531 20.749 24.4278 21.2375 24.3367C22.6713 24.0694 24.0539 23.6385 25.35 22.9557C25.35 22.9557 25.3432 22.9537 25.3686 22.9559C25.4376 22.9313 25.4813 22.9046 25.525 22.8779Z" fill="white"/>
<path id="Vector_4" d="M12.9423 29.1344C12.881 29.1303 12.8089 29.146 12.7601 29.1193C11.0107 28.161 9.56982 26.8791 8.56052 25.1096C8.53694 25.0969 8.53214 25.1027 8.53589 25.0802C8.50976 25.0218 8.47988 24.986 8.45 24.9503C8.45 24.9503 8.44892 24.9572 8.45358 24.9315C8.43032 24.8669 8.40241 24.8279 8.37449 24.7889C8.37449 24.7889 8.36564 24.7971 8.36886 24.7781C8.34753 24.7408 8.32297 24.7226 8.29841 24.7044C8.29905 24.6539 8.31582 24.5968 8.29805 24.5539C6.8884 21.1565 7.41785 17.8468 8.92055 14.6668C10.9656 10.3392 14.3096 7.46237 18.9892 6.25742C21.5965 5.58608 24.2006 5.75068 26.7778 6.47371C26.9967 6.53512 27.1976 6.66066 27.4442 6.7768C27.5154 6.80837 27.5492 6.81954 27.583 6.83072C27.583 6.83071 27.5811 6.82518 27.5894 6.85004C28.1467 7.26781 28.5297 7.77396 28.6429 8.4398C28.3485 8.28485 28.0941 8.09948 27.8101 7.99317C24.6898 6.82501 21.5383 6.65131 18.337 7.67648C12.9142 9.41306 8.84151 14.6487 8.66202 20.2154C8.54677 23.7896 9.83559 26.7365 12.7355 28.9149C12.8147 28.9744 12.8738 29.0607 12.9423 29.1344Z" fill="white"/>
<path id="Vector_5" d="M52.818 25.3355C53.3348 24.1225 53.8252 22.8974 54.3735 21.6988C56.0649 18.0018 58.0114 14.453 60.5711 11.2716C61.4671 10.1579 62.452 9.13124 63.5689 8.23159C64.9608 7.11029 66.5287 6.44903 68.3217 6.36883C70.1947 6.28506 72.0684 6.211 73.9424 6.15447C74.3357 6.1426 74.7319 6.22556 75.185 6.27491C75.3952 6.35175 75.5582 6.40098 75.697 6.48849C76.1431 6.76959 76.5321 7.10113 76.5726 7.66492C76.0859 7.15875 75.4674 7.05474 74.8494 7.07186C72.8971 7.12595 70.9454 7.21039 68.9946 7.30638C67.1894 7.39521 65.6089 8.06764 64.203 9.19438C62.4385 10.6086 61.021 12.3299 59.748 14.179C57.2445 17.8153 55.3383 21.7603 53.7391 25.8629C53.3423 26.881 52.7754 27.0506 51.8656 26.4346C51.7727 26.3717 51.6898 26.2939 51.6355 26.2377C52.313 26.2891 52.585 26.0721 52.818 25.3355Z" fill="white"/>
<path id="Vector_6" d="M69.8945 15.3303C69.5215 14.9784 69.2246 14.9864 68.8393 15.375C67.4737 16.7523 66.3761 18.3301 65.4092 20.0022C63.8465 22.7048 62.6963 25.5832 61.7826 28.5618C61.307 30.1121 60.1491 30.9766 58.5212 30.9808C55.3342 30.9889 52.1471 30.9832 48.9601 30.9844C47.6621 30.9849 46.6561 30.3856 45.8362 29.4348C46.7015 29.7984 47.5824 29.9482 48.5358 29.8997C50.1771 29.9069 51.7833 29.9067 53.3896 29.9059C55.0986 29.9052 56.8077 29.9152 58.5166 29.8991C59.6813 29.8881 60.4113 29.3104 60.7556 28.2096C61.0082 27.4019 61.2639 26.5941 61.5532 25.799C62.8467 22.2451 64.462 18.8586 66.888 15.9205C67.4631 15.224 68.1619 14.6296 68.8371 13.9895C69.3933 13.9309 69.6516 14.0812 69.7886 14.5749C69.856 14.8178 69.8611 15.078 69.8945 15.3303Z" fill="white"/>
<path id="Vector_7" d="M28.6674 8.4465C28.5278 7.77436 28.1448 7.26821 27.5848 6.85156C28.5022 6.97415 29.2785 7.36992 29.7737 8.20296C30.0411 8.65288 30.0458 9.14607 29.8685 9.61748C29.2801 11.182 28.5653 12.685 27.6671 14.1009C27.0141 15.1303 26.0514 15.2567 24.9723 15.1229C24.0331 15.0064 23.0939 14.8091 22.1533 14.801C20.4652 14.7865 19.1613 15.5926 18.1969 16.9577C17.5151 17.9228 16.965 18.9302 16.9916 20.1744C17.0302 21.9693 18.2038 23.3158 19.9875 23.5719C21.6368 23.8087 23.2293 23.5385 24.8041 23.0735C24.9626 23.0266 25.1256 22.9951 25.3181 22.956C24.0535 23.6382 22.6709 24.0691 21.237 24.3364C20.7486 24.4275 20.2479 24.4528 19.7074 24.5336C19.1075 24.4114 18.4785 24.3832 18.0129 24.0928C16.7659 23.3153 16.105 22.1153 15.9254 20.6565C15.6216 18.1895 17.6183 14.9943 20.2386 14.0712C22.018 13.4443 23.7948 13.5206 25.5832 14.0059C26.1089 14.1485 26.4754 14.0161 26.7171 13.5457C27.4039 12.2092 28.07 10.862 28.7428 9.51838C28.9086 9.18717 28.9321 8.85509 28.729 8.50123C28.7052 8.462 28.6823 8.44891 28.6589 8.44032C28.6585 8.44483 28.6674 8.4465 28.6674 8.4465Z" fill="white"/>
<path id="Vector_8" d="M76.5896 7.67429C76.5242 7.10105 76.1352 6.76951 75.6891 6.48842C75.5503 6.4009 75.3872 6.35167 75.2065 6.27514C76.3899 6.12151 77.8165 6.89273 77.8892 8.34161C77.8976 8.50826 77.8931 8.6756 77.8931 8.84262C77.8933 15.3825 77.8738 21.9225 77.9068 28.4622C77.9152 30.1252 76.9398 31.0017 75.3665 31.0351C74.2511 31.0588 73.1333 31.0213 72.0179 30.9766C70.9528 30.9339 69.9219 29.8417 69.9935 28.8497C70.265 29.4063 70.7442 29.656 71.2892 29.8062C71.4277 29.8443 71.5839 29.818 71.7601 29.8369C71.8214 29.87 71.8544 29.9026 71.8875 29.9027C73.1591 29.9051 74.4315 29.9335 75.7017 29.8926C76.3643 29.8713 76.8024 29.3425 76.8031 28.6823C76.8096 21.9364 76.8134 15.1905 76.8081 8.44464C76.8079 8.21215 76.7034 7.97975 76.6502 7.72165C76.6292 7.68494 76.6055 7.67388 76.581 7.66752C76.5804 7.67221 76.5896 7.67429 76.5896 7.67429Z" fill="white"/>
<path id="Vector_9" d="M86.9104 6.45508C87.6355 6.45336 88.1261 6.874 88.4468 7.4449C88.6647 7.83262 88.8291 8.31158 88.8307 8.75042C88.8545 15.3447 88.8501 21.939 88.8449 28.5333C88.8438 29.9145 87.8098 30.9557 86.4368 30.968C85.0872 30.9801 83.7373 30.9805 82.3877 30.9679C80.9633 30.9546 79.8631 29.7904 80.0263 28.4734C80.2324 29.5311 80.6947 29.8768 81.8716 29.8274C82.0929 29.8546 82.2839 29.8869 82.4749 29.8874C83.7072 29.8905 84.9396 29.8862 86.1719 29.8851C87.3098 29.8841 87.7476 29.4413 87.7437 28.2917C87.7433 28.1764 87.7347 28.0611 87.7429 27.9138C87.7615 27.7922 87.7719 27.7026 87.7719 27.6129C87.7726 21.2667 87.7729 14.9204 87.7694 8.57422C87.7694 8.4533 87.7242 8.33241 87.6991 8.21166C87.6983 8.21181 87.7009 8.21098 87.7117 8.19129C87.7152 8.15856 87.7078 8.14552 87.7012 8.09922C87.679 7.41064 87.515 6.82458 86.9104 6.45508Z" fill="white"/>
<path id="Vector_10" d="M81.8444 29.819C80.6978 29.8779 80.2355 29.5322 80.0399 28.4448C80.0143 27.8234 79.9845 27.2339 79.9841 26.6444C79.9807 20.7343 79.9818 14.8241 79.9822 8.91395C79.9823 7.3086 80.937 6.35493 82.5439 6.35373C83.7259 6.35285 84.908 6.35052 86.09 6.35647C86.293 6.3575 86.4959 6.39681 86.7566 6.42928C86.851 6.44585 86.8879 6.45158 86.9247 6.45731C86.9247 6.45731 86.9197 6.45091 86.9165 6.45354C87.518 6.82567 87.682 7.41172 87.6884 8.09542C87.6717 8.12379 87.6398 8.13272 87.6341 8.10579C87.39 7.56717 86.9792 7.34457 86.4248 7.34595C85.139 7.34917 83.8531 7.34568 82.5673 7.34677C81.506 7.34767 81.0656 7.78614 81.0656 8.83993C81.0654 15.3463 81.0705 21.8528 81.0579 28.3591C81.0566 29.0155 81.2558 29.5079 81.8444 29.819Z" fill="white"/>
<path id="Vector_11" d="M48.4986 29.8927C47.5802 29.9489 46.6993 29.7991 45.8323 29.4079C45.8031 29.4027 45.7931 29.4174 45.7921 29.3952C45.7533 29.3656 45.7156 29.3582 45.6778 29.3507C43.8673 27.8627 42.0507 26.3818 40.2483 24.8839C39.1243 23.9498 38.8239 22.8448 39.3276 21.5499C39.616 20.8085 40.1791 20.3818 40.9616 20.245C41.3659 20.1743 41.768 20.0812 42.1754 20.04C44.3909 19.816 46.2974 16.7724 45.9371 14.897C45.7409 13.9808 45.1698 13.4604 44.3452 13.1805C44.4784 13.1588 44.5956 13.1412 44.7087 13.1556C46.1971 13.3451 46.9771 14.0112 46.9867 15.5237C47.0035 18.1682 44.9449 20.6104 42.6645 21.0238C42.2102 21.1061 41.7575 21.1968 41.3033 21.2793C40.4245 21.439 39.9943 22.123 40.2164 23.0024C40.3435 23.5054 40.6886 23.845 41.0669 24.1601C42.9216 25.7055 44.784 27.2419 46.6294 28.7983C47.1939 29.2744 47.7719 29.7044 48.4986 29.8927Z" fill="white"/>
<path id="Vector_12" d="M52.7877 25.3396C52.5833 26.0722 52.3113 26.2892 51.6179 26.226C51.5251 26.1732 51.4775 26.1516 51.4382 26.1198C50.1504 25.0749 48.8631 24.0294 47.5778 22.9813C47.537 22.948 47.5192 22.8865 47.4998 22.8536C48.1039 22.6484 48.6962 22.4741 49.268 22.2479C51.0423 21.546 52.6029 20.5291 53.8035 19.0226C55.4824 16.9157 55.9457 14.4885 55.6329 11.8696C55.5004 10.7597 55.0854 9.76669 54.3548 8.91273C54.2699 8.76218 54.2088 8.59046 54.0965 8.46436C53.068 7.30956 51.7855 6.62896 50.2485 6.43253C50.1495 6.41988 50.053 6.38732 49.9245 6.35742C50.6759 6.42414 51.4871 6.38967 52.2352 6.59034C54.8038 7.27935 56.2132 9.07795 56.6643 11.6268C57.1705 14.4872 56.3121 17.0283 54.6278 19.3222C53.5292 20.8183 52.107 21.9412 50.4595 22.7844C50.1858 22.9244 49.9089 23.058 49.5853 23.2186C50.097 23.6471 50.5812 24.0541 51.067 24.4591C51.3231 24.6726 51.5782 24.8875 51.8407 25.093C52.1095 25.3034 52.3972 25.4649 52.7877 25.3396Z" fill="white"/>
<path id="Vector_13" d="M69.9077 15.3619C69.8589 15.0779 69.8537 14.8178 69.7863 14.5749C69.6493 14.0811 69.391 13.9309 68.8501 13.9684C68.9941 13.8704 69.1511 13.7798 69.3193 13.7218C70.0245 13.4786 71.0352 13.8309 70.9861 14.9139C70.9088 16.6208 70.9703 18.3338 70.962 20.0441C70.9605 20.3632 70.9388 20.6889 70.8708 20.9994C70.7621 21.4958 70.4661 21.7095 69.9638 21.7149C69.5137 21.7197 69.0607 21.6879 68.6142 21.7289C67.9394 21.7908 67.2573 21.8516 66.6005 22.007C66.0128 22.1462 65.7599 22.6327 65.8686 23.226C65.9044 23.4213 66.0157 23.6028 66.0657 23.7955C65.3174 23.3867 64.9579 22.7882 65.0887 21.9394C65.5786 21.099 66.4371 20.9923 67.2715 20.8762C67.8918 20.7898 68.5222 20.7777 69.1477 20.7281C69.7217 20.6826 69.8764 20.5404 69.8847 19.9688C69.9069 18.4438 69.9116 16.9186 69.9077 15.3619Z" fill="white"/>
<path id="Vector_14" d="M65.0675 21.9541C64.9604 22.7881 65.3199 23.3865 66.0923 23.8076C66.292 23.9092 66.4358 24.0128 66.5905 24.096C67.7015 24.6933 68.8147 25.2865 69.9251 25.9172C69.9148 26.3486 69.9067 26.744 69.8986 27.1393C68.5437 26.3938 67.1859 25.6533 65.8346 24.9012C64.6738 24.255 64.4622 22.8694 65.0675 21.9541Z" fill="white"/>
<path id="Vector_15" d="M69.9112 27.1725C69.9069 26.7446 69.9151 26.3492 69.9525 25.9248C70.745 26.2462 71.1016 26.8218 70.9789 27.6725C70.9572 27.8225 70.9903 27.98 70.9733 28.1312C70.893 28.8488 71.087 29.4377 71.7393 29.8212C71.5913 29.8179 71.4351 29.8442 71.2966 29.8061C70.7516 29.6559 70.2724 29.4062 70.0155 28.8236C69.9762 28.266 69.9499 27.7356 69.9112 27.1725Z" fill="white"/>
<path id="Vector_16" d="M46.6908 6.32821C45.0753 6.3508 43.4341 6.35595 41.7929 6.35972C39.7026 6.36452 37.6123 6.36821 35.4856 6.36788C35.5572 6.33706 35.6652 6.28784 35.7731 6.28775C39.3534 6.28478 42.9336 6.28643 46.5138 6.2885C46.5642 6.28853 46.6146 6.30262 46.6908 6.32821Z" fill="white"/>
<path id="Vector_17" d="M8.4436 24.9766C8.47677 24.9859 8.50665 25.0217 8.53529 25.0829C8.5028 25.0732 8.47156 25.0381 8.4436 24.9766Z" fill="white"/>
<path id="Vector_18" d="M86.9128 6.43802C86.8835 6.45226 86.8467 6.44653 86.7834 6.43059C86.8064 6.41961 86.8558 6.41883 86.9128 6.43802Z" fill="white"/>
<path id="Vector_19" d="M25.4996 22.8828C25.4821 22.9036 25.4384 22.9303 25.3684 22.9583C25.3858 22.936 25.4296 22.9124 25.4996 22.8828Z" fill="white"/>
<path id="Vector_20" d="M8.37524 24.8154C8.40515 24.8277 8.43307 24.8667 8.45985 24.9313C8.43023 24.9187 8.40174 24.8804 8.37524 24.8154Z" fill="white"/>
<path id="Vector_21" d="M27.5709 6.8073C27.5496 6.81945 27.5158 6.80828 27.4705 6.77243C27.4921 6.75982 27.5252 6.7719 27.5709 6.8073Z" fill="white"/>
<path id="Vector_22" d="M8.30688 24.7227C8.32059 24.7226 8.34515 24.7408 8.37045 24.7826C8.35337 24.7845 8.33555 24.7627 8.30688 24.7227Z" fill="white"/>
<path id="Vector_23" d="M45.6938 29.3691C45.7136 29.3578 45.7514 29.3653 45.7961 29.4015C45.7727 29.4161 45.7422 29.402 45.6938 29.3691Z" fill="white"/>
<path id="Vector_24" d="M71.7638 29.8365C71.0833 29.4374 70.8893 28.8485 70.9696 28.1309C70.9866 27.9796 70.9535 27.8222 70.9752 27.6721C71.0979 26.8215 70.7413 26.2458 69.9509 25.8883C68.8112 25.2868 67.698 24.6936 66.587 24.0963C66.4323 24.0131 66.2886 23.9094 66.1156 23.803C66.0147 23.6029 65.9034 23.4214 65.8676 23.2261C65.7589 22.6328 66.0118 22.1462 66.5996 22.0071C67.2563 21.8517 67.9384 21.7909 68.6132 21.729C69.0597 21.688 69.5127 21.7198 69.9628 21.715C70.4651 21.7096 70.7612 21.4958 70.8699 20.9995C70.9379 20.689 70.9595 20.3633 70.9611 20.0442C70.9693 18.3339 70.9078 16.6209 70.9852 14.914C71.0342 13.831 70.0235 13.4787 69.3183 13.7219C69.1501 13.7799 68.9931 13.8705 68.8158 13.9671C68.1586 14.6296 67.4599 15.224 66.8848 15.9205C64.4587 18.8587 62.8434 22.2452 61.55 25.7991C61.2606 26.5941 61.005 27.402 60.7523 28.2097C60.408 29.3105 59.678 29.8882 58.5134 29.8991C56.8045 29.9152 55.0953 29.9052 53.3863 29.906C51.7801 29.9067 50.1739 29.9069 48.5326 29.8997C47.7709 29.7037 47.1929 29.2737 46.6284 28.7976C44.7829 27.2412 42.9205 25.7049 41.0658 24.1595C40.6876 23.8443 40.3425 23.5047 40.2154 23.0017C39.9932 22.1224 40.4234 21.4384 41.3023 21.2787C41.7565 21.1961 42.2092 21.1055 42.6634 21.0231C44.9438 20.6098 47.0025 18.1675 46.9856 15.523C46.976 14.0105 46.1961 13.3444 44.7077 13.155C44.5945 13.1406 44.4773 13.1581 44.3306 13.16C43.0651 13.1542 41.8311 13.1408 40.5972 13.1481C40.0664 13.1512 39.7158 13.4805 39.5513 14.0564C38.5996 17.3879 37.6502 20.72 36.6915 24.0495C36.2761 25.4923 35.8448 26.9306 35.4123 28.3684C35.1048 29.3904 34.4743 29.8812 33.4085 29.8949C32.0588 29.9123 30.7087 29.9043 29.3589 29.8968C29.1431 29.8956 28.9224 29.8596 28.7128 29.8054C28.0948 29.6456 27.8628 29.2397 28.0142 28.6129C28.0707 28.3791 28.133 28.1467 28.2116 27.8394C26.9658 28.6952 25.6442 29.2123 24.2811 29.6277C22.0025 30.3221 19.6754 30.7264 17.2914 30.4952C16.331 30.402 15.3804 30.1315 14.4473 29.8646C13.9358 29.7183 13.4703 29.4112 12.963 29.1555C12.8734 29.0605 12.8143 28.9743 12.7351 28.9148C9.83519 26.7364 8.54637 23.7895 8.66162 20.2152C8.84112 14.6485 12.9138 9.41294 18.3366 7.67635C21.5379 6.65118 24.6894 6.82488 27.8097 7.99304C28.0937 8.09935 28.3481 8.28472 28.6425 8.43967C28.6689 8.44597 28.66 8.4443 28.665 8.45983C28.6904 8.49251 28.7109 8.50967 28.7313 8.52683C28.9336 8.85456 28.9102 9.18664 28.7443 9.51784C28.0715 10.8615 27.4054 12.2086 26.7186 13.5451C26.4769 14.0156 26.1104 14.148 25.5847 14.0054C23.7963 13.5201 22.0196 13.4437 20.2401 14.0706C17.6198 14.9938 15.6231 18.189 15.9269 20.6559C16.1065 22.1148 16.7674 23.3147 18.0144 24.0923C18.48 24.3826 19.109 24.4108 19.6901 24.5582C23.375 24.8158 26.7053 23.8303 29.775 21.8831C29.9348 21.7817 30.0618 21.5627 30.1176 21.373C31.3115 17.3107 32.4895 13.2436 33.6791 9.18003C34.08 7.81062 34.7097 7.35584 36.1496 7.35563C40.535 7.35499 44.9205 7.3465 49.3059 7.36415C50.0344 7.36709 50.7691 7.44489 51.4894 7.56068C52.5486 7.73096 53.4934 8.18267 54.3265 8.90697C55.0829 9.76609 55.4979 10.7591 55.6304 11.869C55.9432 14.4879 55.4799 16.9151 53.801 19.022C52.6004 20.5285 51.0399 21.5454 49.2655 22.2473C48.6937 22.4735 48.1014 22.6478 47.4973 22.853C47.5167 22.8859 47.5345 22.9474 47.5754 22.9807C48.8606 24.0288 50.1479 25.0743 51.4357 26.1192C51.475 26.151 51.5226 26.1726 51.5822 26.2107C51.6856 26.2934 51.7685 26.3712 51.8614 26.4341C52.7712 27.0501 53.3381 26.8805 53.7349 25.8624C55.3341 21.7598 57.2403 17.8148 59.7438 14.1785C61.0169 12.3294 62.4343 10.6081 64.1988 9.19388C65.6047 8.06715 67.1852 7.39471 68.9904 7.30589C70.9412 7.20989 72.8929 7.12546 74.8452 7.07136C75.4632 7.05424 76.0817 7.15825 76.5684 7.66442C76.5934 7.67388 76.5841 7.67179 76.5866 7.68702C76.6098 7.71713 76.6305 7.73201 76.6512 7.74689C76.7071 7.97933 76.8116 8.21173 76.8118 8.44422C76.8172 15.1901 76.8133 21.936 76.8068 28.6819C76.8061 29.3421 76.368 29.8709 75.7055 29.8922C74.4352 29.9331 73.1628 29.9047 71.8912 29.9022C71.8581 29.9022 71.8251 29.8696 71.7638 29.8365Z" fill="white"/>
<path id="Vector_25" d="M28.7318 8.50027C28.7122 8.50925 28.6918 8.49209 28.6667 8.4549C28.6851 8.44796 28.7081 8.46105 28.7318 8.50027Z" fill="white"/>
<path id="Vector_26" d="M76.6534 7.72149C76.6299 7.73226 76.6092 7.71738 76.5867 7.68258C76.6086 7.67372 76.6324 7.68478 76.6534 7.72149Z" fill="white"/>
<path id="Vector_27" d="M81.8696 29.8283C81.2507 29.5077 81.0515 29.0152 81.0527 28.3589C81.0653 21.8525 81.0603 15.3461 81.0605 8.83968C81.0605 7.7859 81.5009 7.34742 82.5622 7.34653C83.848 7.34544 85.1339 7.34893 86.4197 7.34571C86.974 7.34432 87.3849 7.56693 87.6306 8.12425C87.6509 8.19444 87.6712 8.20842 87.6988 8.21182C87.6988 8.21182 87.6962 8.21265 87.6928 8.24849C87.6911 14.6344 87.6924 20.9844 87.6958 27.3345C87.6959 27.5385 87.7167 27.7426 87.7279 27.9466C87.7326 28.0619 87.7412 28.1772 87.7416 28.2925C87.7455 29.4422 87.3077 29.885 86.1698 29.886C84.9375 29.8871 83.7052 29.8913 82.4729 29.8882C82.2818 29.8878 82.0908 29.8554 81.8696 29.8283Z" fill="white"/>
<path id="Vector_28" d="M87.7436 27.9144C87.7195 27.7423 87.6986 27.5382 87.6985 27.3342C87.6952 20.9841 87.6938 14.6341 87.6964 8.24805C87.7248 8.33295 87.7701 8.45384 87.7701 8.57476C87.7736 14.921 87.7733 21.2672 87.7726 27.6134C87.7726 27.7031 87.7622 27.7927 87.7436 27.9144Z" fill="white"/>
<path id="Vector_29" d="M87.7114 8.19099C87.6729 8.20728 87.6526 8.1933 87.638 8.15004C87.6364 8.13134 87.6684 8.12241 87.6842 8.1273C87.7075 8.14522 87.7149 8.15826 87.7114 8.19099Z" fill="white"/>
</g>
<defs>
<clipPath id="clip0_2456_3317">
<rect width="92.6042" height="31.4082" fill="white" transform="translate(0.958252 0.1875)"/>
</clipPath>
</defs>
</svg>
