<svg width="127" height="83" viewBox="0 0 127 83" fill="none" xmlns="http://www.w3.org/2000/svg">
<g id="291926458_543034944202343_7352062521056494871_n_adobe_express 1" clipPath="url(#clip0_2456_3035)">
<path id="Vector" d="M126.428 29.1023C121.634 30.8119 117.147 33.1611 112.546 35.2488C110.607 36.1285 108.67 37.0111 106.774 37.982C106.602 38.0701 106.395 38.0953 106.201 38.1332C105.471 38.2756 104.802 38.5271 104.238 39.0427C103.812 39.4321 103.328 39.7493 102.781 39.9593C100.79 40.7229 99.1512 42.0827 97.3623 43.1861C96.1406 43.9396 94.8932 44.6572 93.8323 45.6604C92.9793 46.467 91.9411 46.3919 90.8977 46.0124C88.9512 45.3042 88.7387 45.0039 88.6893 42.9445C88.6456 41.123 88.7297 39.3122 89.0545 37.5161C89.0688 37.4373 89.0342 37.3496 89.01 37.1783C88.373 37.3593 87.9846 37.7553 87.7587 38.2947C87.5722 38.7398 87.4103 39.1513 86.8584 39.2529C86.6213 39.2965 86.5404 39.551 86.4506 39.7504C86.1454 40.4286 85.6051 40.902 85.1331 41.4503C84.5363 42.1434 83.8828 42.8072 83.3436 43.5574C82.9555 44.0973 82.5494 44.6243 82.1471 45.1538C81.3727 46.1733 80.1744 46.3733 79.0591 46.6917C78.191 46.9395 77.3466 47.3137 76.4167 47.3215C76.0415 47.3247 75.7331 47.2356 75.4658 46.9468C75.1206 46.5737 74.7407 46.2402 74.2988 45.9681C73.5545 45.5099 73.5565 44.7415 73.6435 44.0083C74.001 40.9983 74.783 38.1033 76.1715 35.3984C76.7156 34.3385 77.4023 33.3589 78.3019 32.5568C78.6466 32.2495 78.6496 31.7449 79.0163 31.4509C79.7294 30.8791 80.524 30.4534 81.3202 30.0114C82.6596 29.268 83.8042 29.6673 84.9919 30.3673C86.0208 30.9737 86.9277 31.6791 87.6057 32.6744C88.1635 33.4932 88.4602 34.3956 88.5912 35.3867C88.8839 35.0934 89.1181 34.7928 89.1172 34.3558C89.1167 34.0737 89.2776 33.8666 89.4769 33.6706C89.9985 33.1574 90.5023 32.6261 91.0144 32.1032C91.6296 31.4751 93.127 31.2756 93.8798 31.72C94.4585 32.0617 94.6591 32.6765 94.4312 33.4773C93.6838 36.1031 93.2033 38.7684 93.1458 41.5069C93.1315 42.187 92.9803 42.8642 93.0916 43.5706C93.5974 43.6552 93.9332 43.3426 94.2339 43.0992C95.4416 42.1221 96.7091 41.3479 98.1954 40.7686C100.533 39.8574 102.724 38.5689 104.981 37.448C105.872 37.0055 106.872 36.8387 107.733 36.2999C110.572 34.5245 113.511 32.9236 116.45 31.3218C118.455 30.2283 120.465 29.122 122.647 28.4229C123.84 28.0406 125.1 27.8678 126.379 27.583C126.428 28.0573 126.428 28.5491 126.428 29.1023ZM87.6986 34.9114C87.3113 34.0864 86.9028 33.2755 86.2569 32.6117C84.9695 31.2887 82.6439 31.4743 81.5351 32.9438C80.0338 34.9337 79.0722 37.1988 78.1258 39.4717C77.6181 40.6911 77.6653 41.9923 77.7418 43.2784C77.7798 43.9171 78.4283 44.6315 78.8545 44.5473C80.3029 44.2611 81.6719 43.7087 82.6038 42.5521C84.3279 40.4124 85.9321 38.1761 87.5937 35.9857C87.8312 35.6726 87.9044 35.3605 87.6986 34.9114Z" fill="white"/>
<path id="Vector_2" d="M10.3024 49.3085C9.14541 49.4544 8.12324 49.9465 7.00981 50.0336C6.38223 50.0827 5.83791 49.9875 5.39797 49.4669C5.01576 49.0145 4.65516 48.5281 4.07856 48.2719C3.85147 48.1709 3.69078 47.9085 3.68718 47.6796C3.67377 46.8273 3.29937 46.0653 3.50785 45.1156C3.94622 43.1187 4.43521 41.1484 5.1711 39.2471C6.03002 37.028 7.14474 34.9681 8.71527 33.1289C9.28083 32.4666 10.0091 31.9483 10.461 31.1161C10.8713 30.3608 11.8481 29.9627 12.6643 29.5815C13.4596 29.2101 14.2893 28.8574 15.167 28.7152C15.8823 28.5993 16.506 28.9503 17.116 29.2732C19.1652 30.3581 20.861 31.7855 21.7488 34.0125C21.9621 34.5476 22.0019 35.1206 22.1924 35.8067C22.3336 33.8797 22.4012 32.0922 22.6113 30.3217C22.8457 28.3464 23.234 26.3899 23.5098 24.4189C23.7457 22.7326 23.8011 21.0161 24.2195 19.3612C24.9301 16.5497 25.6172 13.7278 26.8247 11.069C27.0336 10.609 27.1933 10.1121 27.2833 9.61553C27.4858 8.49748 27.9253 7.50188 28.6323 6.61655C28.7408 6.48071 28.8276 6.31929 28.8904 6.15657C29.281 5.14453 30.3093 4.6777 31.3592 5.03544C31.6913 5.14859 31.6427 5.38385 31.5788 5.62915C31.3751 6.41029 30.9718 7.12218 30.5612 7.78431C30.2915 8.21913 30.295 8.66457 30.1701 9.08375C29.4581 11.4741 28.002 13.6255 27.7418 16.1432C27.4048 19.4029 26.3281 22.5394 26.2686 25.8477C26.2409 27.3887 25.9149 28.9241 25.7278 30.4624C25.6903 30.7701 25.6335 31.0815 25.6469 31.3884C25.7563 33.8864 25.3327 36.3265 24.8934 38.7686C24.6965 39.8627 24.8828 40.9784 24.7566 42.0888C24.6143 43.3402 24.5289 44.6049 24.5644 45.8738C24.6003 47.1543 25.0363 48.2962 25.6331 49.3977C25.8485 49.7953 26.1355 49.8689 26.5026 49.594C26.8575 49.3283 27.2089 49.059 27.4497 48.676C27.485 48.6197 27.4983 48.5381 27.5469 48.5035C28.45 47.8596 28.8523 46.8263 29.4959 45.9825C30.1678 45.1018 30.8289 44.2007 31.3804 43.2427C32.7717 40.826 34.8079 39.0388 36.9182 37.2965C38.6313 35.8821 40.5188 34.7334 42.4101 33.5986C43.3297 33.0468 44.3573 32.6497 45.4314 32.4133C45.9409 32.3011 46.3098 32.5477 46.6539 32.7954C46.9402 33.0014 46.7879 33.3327 46.5077 33.42C45.8623 33.6209 45.7128 34.1596 45.4395 34.6744C44.791 35.8962 44.4382 37.225 44.0237 38.5197C43.6442 39.7052 43.8879 40.9875 43.9232 42.2254C43.949 43.1308 44.1039 44.0319 44.1515 44.9376C44.1758 45.4004 44.3386 45.5438 44.7684 45.3993C44.9572 45.3358 45.1782 45.316 45.3299 45.203C46.5607 44.2857 48.0173 43.6133 48.6975 42.0929C48.9252 41.5841 49.3536 41.1911 49.7058 40.7874C50.6983 39.6499 50.9494 38.1655 51.6736 36.903C52.1807 36.0189 52.3871 34.8875 51.5698 33.9049C51.2827 33.5596 50.9742 33.3815 50.525 33.2919C49.5567 33.0987 48.6194 32.7847 48.2447 31.7148C47.992 30.9931 48.2719 30.6128 49.0434 30.5955C49.4843 30.5856 49.9177 30.5283 50.3549 30.4741C51.1577 30.3746 51.7225 31.0011 52.354 31.3827C53.026 31.7888 53.4444 32.467 53.9912 33.0086C55.1478 34.1543 56.7311 34.2769 58.1814 34.7107C58.4684 34.7965 58.6058 34.5348 58.748 34.335C59.198 33.7025 59.6112 33.0414 60.1626 32.487C60.9834 31.6618 62.2942 31.5832 63.1922 32.3241C63.4808 32.5622 63.6296 32.8727 63.4559 33.2686C63.3316 33.5522 63.2522 33.8554 63.1313 34.1406C62.9494 34.5696 63.016 34.9521 63.2775 35.3138C63.566 35.3213 63.7702 35.1844 63.9525 35.0234C65.4062 33.7388 67.0563 32.7344 68.7717 31.8707C70.3382 31.082 71.9015 30.217 73.7424 30.1477C74.5289 30.1181 75.0953 30.4915 75.6681 30.913C75.8175 31.023 75.8706 31.2055 75.857 31.3913C75.7908 32.2961 75.7644 33.2074 75.628 34.1018C75.5746 34.4518 75.5024 34.9771 74.8388 34.8344C74.2091 34.699 74.0017 34.4697 74.1318 33.8358C74.2234 33.3896 74.4934 32.9022 74.0171 32.5443C73.4388 32.1099 72.7657 31.7484 72.0379 32.0438C70.2539 32.7679 68.4885 33.5402 66.7365 34.3391C66.2282 34.5708 65.8533 35.0448 65.4057 35.3865C64.648 35.965 63.7997 36.4075 63.0737 36.9922C62.0091 37.8496 61.5034 39.1096 61.3495 40.4703C61.2894 41.0024 61.2095 41.5172 61.0204 42.0196C60.8476 42.4788 60.8041 42.9385 60.8823 43.4488C61.0593 44.6036 60.913 45.7408 60.4245 46.8184C60.397 46.879 60.3697 46.94 60.3474 47.0027C59.9944 47.9948 59.9945 47.9958 58.9329 47.8292C58.8017 47.8086 58.6729 47.7456 58.5434 47.7467C56.9471 47.7596 56.9722 47.409 57.1046 45.8222C57.341 42.9874 57.5821 40.1376 58.3832 37.3788C58.598 36.6394 58.2313 36.0059 57.4893 35.8841C56.383 35.7024 55.3524 35.3241 54.3345 34.8851C53.8824 34.69 53.5282 34.86 53.4914 35.3109C53.3992 36.4412 52.9071 37.378 52.2562 38.2613C52.218 38.3131 52.1818 38.3832 52.1826 38.4443C52.2112 40.6177 50.8222 42.0665 49.5545 43.5733C49.3801 43.7806 49.2431 44.0015 49.1174 44.2361C48.8523 44.7309 48.5485 45.2139 48.0361 45.4695C47.0957 45.9386 46.4135 46.6769 45.7468 47.4588C44.9083 48.4421 43.6687 48.5295 42.6246 47.743C42.4317 47.5978 42.2203 47.4701 42.0021 47.3668C41.0004 46.8924 40.213 46.339 39.9973 45.0706C39.854 44.2275 39.3849 43.4467 39.3957 42.521C39.421 40.3748 39.908 38.3537 40.8351 36.4285C40.9216 36.2489 41.0098 36.07 41.094 35.8892C41.1207 35.8319 41.1369 35.7696 41.1503 35.7312C39.5232 36.4246 38.2592 37.6546 36.9082 38.7484C35.8149 39.6334 34.9083 40.7236 34.0776 41.8609C33.8485 42.1746 33.533 42.3753 33.2847 42.6585C32.4411 43.6205 31.9644 44.809 31.2746 45.8661C30.4395 47.1459 29.7192 48.5006 28.8828 49.7793C28.4252 50.4789 27.6395 50.8595 26.9937 51.3744C26.4219 51.8304 25.829 52.2611 25.3525 52.827C24.9291 53.3299 24.3744 53.4062 23.7773 53.2367C23.0844 53.04 22.4946 52.6183 21.9096 52.2315C21.4998 51.9606 21.6256 51.3706 21.5888 50.9321C21.2857 47.321 21.3723 43.7145 21.8106 40.1163C21.8608 39.7042 21.868 39.2869 21.8983 38.8249C21.3566 38.9128 21.1229 39.2829 20.9687 39.6912C20.7699 40.2175 20.5234 40.6426 19.9019 40.7477C19.4782 40.8193 19.3293 41.214 19.1603 41.5464C18.8239 42.2083 18.4463 42.8171 17.7435 43.1655C17.3693 43.3511 17.285 43.8424 17.0005 44.0735C15.5067 45.2871 14.5843 47.0179 13.118 48.2574C12.2994 48.9494 11.3272 49.0837 10.3024 49.3085ZM7.13654 44.9104C7.08885 45.6851 7.54346 46.27 7.89334 46.892C8.00554 47.0915 8.22258 47.1224 8.42354 47.09C10.4255 46.7668 12.3712 46.2052 13.7532 44.648C15.5762 42.5941 17.5564 40.6772 19.2064 38.4687C19.682 37.8321 20.3253 37.3312 20.7427 36.6385C20.8844 36.4035 21.0129 36.2015 20.8994 35.9041C20.5437 34.9724 20.1261 34.0809 19.6215 33.2121C18.5004 31.282 15.1255 30.6741 13.4561 32.021C12.9028 32.4674 12.4739 33.0398 12.0387 33.596C10.5548 35.4926 9.50116 37.6486 8.34559 39.7447C7.47534 41.3232 7.17174 43.0204 7.13654 44.9104Z" fill="white"/>
<path id="Vector_3" d="M65.3003 74.084C63.6173 73.9863 61.9993 73.9281 60.379 73.9552C59.9726 73.962 59.5979 73.882 59.5471 73.3906C59.4958 72.8945 59.4948 72.3833 60.0582 72.1439C60.3409 72.0238 60.6473 71.9381 60.9513 71.8939C61.6125 71.7977 61.9548 71.4457 62.0757 70.7813C62.6143 67.8201 62.7013 64.8409 62.5071 61.8454C62.4125 60.3856 62.4466 58.9218 62.3383 57.4598C62.255 56.3342 61.8813 55.399 61.0859 54.6206C60.8781 54.4173 60.6411 54.2166 60.3364 54.2296C58.2185 54.3197 56.0721 54.2331 54.083 55.1758C53.1047 55.6394 52.4162 56.4057 51.8581 57.3081C51.7482 57.4858 51.7351 57.6835 51.7257 57.8844C51.5672 61.2774 51.6019 64.67 51.7672 68.0612C51.794 68.6106 51.9281 69.1538 51.9837 69.7028C52.0603 70.4599 52.5077 70.9373 53.1073 71.3341C53.6048 71.6634 54.1429 71.9384 54.5634 72.3774C55.1998 73.0417 55.0815 73.4898 54.2131 73.7394C52.6725 74.1823 51.0939 74.1613 49.5238 74.0636C48.2427 73.9839 46.9662 73.8186 45.6802 73.8087C45.1215 73.8044 44.8838 73.5212 44.8552 72.9882C44.8414 72.7318 44.8998 72.5824 45.1701 72.4976C47.7063 71.7016 48.2157 69.3312 48.0357 67.1261C47.856 64.9246 47.5605 62.7398 47.8827 60.5108C48.115 58.9033 47.9287 57.2882 47.2613 55.7535C46.5452 54.1067 45.7015 53.7253 43.4238 54.0747C41.7733 54.328 40.2789 55.1353 38.785 55.8668C38.3323 56.0885 38.1123 56.5602 37.9014 57.0022C37.1489 58.5788 37.328 60.26 37.4168 61.9132C37.4967 63.4015 37.5893 64.8721 37.1675 66.3317C36.9547 67.0682 37.2728 67.7764 37.4365 68.4825C37.532 68.8941 37.6275 69.2975 37.6455 69.7237C37.6898 70.7711 38.2847 72.0183 39.8984 72.1499C40.1871 72.1734 40.5117 72.2188 40.6121 72.5399C40.7174 72.8769 40.4949 73.1321 40.2631 73.3489C39.4775 74.0832 38.5072 74.0236 37.557 73.9119C36.5594 73.7947 35.561 73.8904 34.572 73.8265C33.6184 73.7649 32.6913 73.7906 31.7514 73.923C31.4559 73.9646 31.131 73.8649 30.8766 73.6643C30.4468 73.3254 30.3195 72.6364 30.9658 72.3016C31.5332 72.0076 32.0955 71.6847 32.5774 71.2485C32.9347 70.925 33.1588 70.5705 33.1789 70.0478C33.2026 69.4336 33.4301 68.8255 33.4396 68.2127C33.4934 64.7232 33.9676 61.2209 33.064 57.757C32.8697 57.0121 32.5176 56.5258 31.8477 56.2236C31.4435 56.0413 31.0222 55.8888 30.6387 55.6702C29.6907 55.1298 29.6866 54.1263 30.6125 53.5633C31.9196 52.7684 33.1763 51.8905 34.5358 51.182C35.1904 50.841 35.8884 50.6395 36.6092 50.4883C37.1216 50.3808 37.3156 50.5241 37.3845 51.0637C37.5264 52.1753 37.7511 53.2767 38.094 54.3267C38.4415 54.3716 38.6188 54.1835 38.8095 54.0458C40.6996 52.6809 42.7347 51.6371 45.0411 51.1714C46.3607 50.905 47.6785 50.8968 49.0039 51.1105C49.3207 51.1616 49.4986 51.3624 49.6803 51.5982C50.1804 52.247 50.609 52.9491 51.2174 53.5175C51.7427 54.0083 52.3187 54.129 52.9937 53.9591C53.958 53.7163 54.7775 53.1948 55.6055 52.6717C56.6697 51.9994 57.6784 51.2181 58.9449 50.9191C60.9213 50.4525 62.7926 50.6717 64.4727 51.8436C65.7681 52.7472 66.1746 54.1497 66.4119 55.6329C66.6934 57.3928 66.3318 59.1254 66.2161 60.8638C66.1357 62.071 66.1275 63.2486 66.4168 64.4204C66.7013 65.5726 66.3486 66.7162 66.3927 67.8655C66.4282 68.792 66.3439 69.7178 66.7692 70.6036C67.1686 71.4356 67.7856 72.0298 68.6156 72.331C69.1365 72.52 69.2817 72.7714 69.1706 73.2562C69.0557 73.757 68.8054 74.1091 68.229 74.1037C67.2748 74.0947 66.3205 74.0909 65.3003 74.084Z" fill="white"/>
<path id="Vector_4" d="M84.3426 55.0075C83.4956 52.5735 81.8588 52.2199 79.7883 52.6818C79.4339 52.7609 79.1788 53.0067 78.9398 53.2875C78.008 54.3822 77.2053 55.583 76.1136 56.5471C74.4648 58.0032 72.6452 57.693 71.3015 56.0648C70.7432 55.3883 71.0007 54.5314 71.3107 53.7842C71.5587 53.1863 71.9696 52.695 72.4994 52.2942C74.3807 50.8711 76.4902 50.2096 78.8488 50.1348C80.2377 50.0908 81.6185 49.9335 83.0166 50.0214C84.3986 50.1082 85.6526 50.6351 86.7121 51.3856C87.7774 52.1403 88.1286 53.4986 88.4795 54.7392C89.0511 56.7595 88.8873 58.8191 88.7125 60.8737C88.4875 63.5174 88.1373 66.1573 88.5051 68.8171C88.608 69.5608 89.995 70.9897 90.7196 71.077C91.003 71.1112 91.2444 71.0058 91.4593 70.8369C91.8951 70.4944 92.3221 70.1405 92.7605 69.8014C92.8949 69.6974 93.0334 69.5317 93.2287 69.6166C93.4504 69.7131 93.4149 69.9407 93.4407 70.1371C93.5288 70.8073 93.2272 71.3457 92.8596 71.8562C92.4449 72.4318 92.0058 72.9898 91.5919 73.566C91.4514 73.7617 91.268 73.8655 91.0518 73.9255C90.023 74.2109 88.9844 74.4042 87.9058 74.3643C87.4723 74.3482 87.1275 74.2241 86.8533 73.8992C86.4533 73.4252 86.0554 72.9492 85.6604 72.4711C84.8781 71.5243 84.2563 71.4586 83.2705 72.1988C80.4071 74.3489 77.263 74.9595 73.8652 73.7579C71.2521 72.8338 70.5304 71.2044 70.3117 68.7554C70.1336 66.7602 71.4015 65.5648 72.7457 64.4471C74.2942 63.1596 76.1965 62.7029 78.1116 62.2803C80.0127 61.8607 81.9408 61.5481 83.7763 60.8525C84.447 60.5983 84.7617 60.247 84.7184 59.4815C84.6348 58.0029 84.7761 56.509 84.3426 55.0075ZM77.1077 65.5562C76.4817 66.2607 76.1655 67.1285 76.0267 68.0205C75.9033 68.8135 75.5665 69.6698 76.2986 70.4164C76.9993 71.1311 77.7858 71.5789 78.8049 71.6142C80.7682 71.6822 82.2153 70.668 83.5313 69.3854C83.8271 69.0972 84.2369 68.829 84.2744 68.3912C84.3974 66.957 84.4923 65.519 84.5409 64.0805C84.5616 63.4676 84.1563 63.1114 83.6275 63.1968C81.339 63.5665 79.0993 64.084 77.1077 65.5562Z" fill="white"/>
<path id="Vector_5" d="M100.221 68.2913C101.252 69.9265 102.457 71.3403 104.381 71.7614C107.357 72.4127 110.127 72.0384 112.339 69.6821C112.767 69.2274 113.201 69.2595 113.633 69.5946C114.09 69.9484 113.934 70.3694 113.67 70.7749C112.226 72.9956 110.15 74.2307 107.566 74.6162C105.921 74.8616 104.252 75.0091 102.626 74.5269C99.1928 73.5089 96.7366 71.2486 95.1743 68.1183C92.9048 63.571 93.3872 59.162 96.3056 55.0167C96.7809 54.3415 97.3776 53.7745 98.056 53.3022C98.7107 52.8465 99.3592 52.3884 99.9633 51.8614C101.184 50.7961 102.654 50.3754 104.247 50.2967C106.009 50.2096 107.686 50.4825 109.252 51.3434C110.481 52.0194 111.377 52.9982 111.993 54.243C112.426 55.1174 112.831 56.0052 113.263 56.8803C113.737 57.8421 113.876 58.858 113.827 59.9178C113.815 60.2007 113.723 60.3725 113.473 60.4908C112.927 60.7495 112.38 60.9181 111.75 60.8882C109.315 60.7726 106.876 60.7364 104.442 60.5979C103.045 60.5184 101.65 60.5075 100.254 60.5129C99.2085 60.5169 98.7338 60.9743 98.6254 62.0294C98.5522 62.7426 98.7313 63.4402 98.7579 64.145C98.8155 65.6687 99.2415 67.0481 100.221 68.2913ZM107.554 53.821C107.096 53.6005 106.654 53.3333 106.177 53.1686C104.92 52.7344 103.593 52.412 102.405 53.2079C101.364 53.9059 100.458 54.8117 99.8049 55.9192C99.1126 57.0938 99.3871 57.8845 100.688 58.3199C102.562 58.947 104.494 58.6763 106.409 58.6134C106.668 58.6049 106.929 58.5113 107.181 58.4322C108.543 58.0056 108.946 57.2804 108.589 55.9243C108.527 55.6895 108.468 55.4528 108.428 55.2136C108.335 54.6629 108.066 54.2228 107.554 53.821Z" fill="white"/>
</g>
<defs>
<clipPath id="clip0_2456_3035">
<rect width="125.73" height="82.5403" fill="white" transform="translate(0.5625 0.270508)"/>
</clipPath>
</defs>
</svg>
