<svg width="202" height="64" viewBox="0 0 202 64" fill="none" xmlns="http://www.w3.org/2000/svg">
<g id="Eye+Face+Logo-01_adobe_express 1" clipPath="url(#clip0_2456_3041)">
<path id="Vector" d="M128.018 2.6731C126.807 3.18205 125.534 3.64286 124.307 4.20269C120.292 6.03445 116.778 8.56404 113.795 11.8327C110.596 15.3369 108.151 19.3371 106.177 23.6164C104.111 28.0933 102.178 32.632 100.23 37.1623C98.2363 41.7986 95.9322 46.2576 92.9123 50.3163C89.9226 54.3345 86.3835 57.7549 81.9823 60.2153C79.7764 61.4486 77.4442 62.3822 75.0319 63.1225C74.9863 63.1365 74.9387 63.1439 74.9282 63.1462C76.1917 62.2645 77.5037 61.4048 78.7551 60.4642C81.442 58.4445 83.8552 56.1476 85.7138 53.3145C86.9875 51.373 87.9019 49.2816 88.1722 46.9641C88.5193 43.989 87.9624 41.1865 86.2625 38.6834C85.2312 37.1647 84.1616 35.667 83.0233 34.2279C82.3949 33.4335 81.5854 32.7834 80.8642 32.0617C79.8946 31.0914 78.9767 30.0822 78.3107 28.8645C77.0378 26.5373 78.2874 24.3262 80.2725 23.4829C81.0587 23.149 81.8956 22.9344 82.6807 22.5982C83.2159 22.369 83.7286 22.0611 84.2021 21.7199C84.8032 21.287 84.9263 20.6625 84.7246 19.9611C84.6582 19.7302 84.5854 19.4935 84.572 19.2563C84.5114 18.18 84.9857 17.6714 86.0712 17.6236C86.2316 17.6165 86.3927 17.6226 86.5683 17.6226C86.5985 17.3735 86.6157 17.1234 86.6617 16.8787C86.7308 16.5119 86.9816 16.2772 87.3374 16.3235C87.8602 16.3916 88.4046 16.4747 88.8808 16.6851C89.9635 17.1634 91.219 16.6479 91.8304 15.9969C92.3493 15.4445 92.5349 14.7885 92.2629 14.0664C92.0323 13.4545 91.7779 12.8462 91.4717 12.2695C90.8338 11.0682 91.3635 10.0173 92.7135 9.84866C93.7236 9.72251 94.6871 9.97435 95.6415 10.2215C97.5432 10.714 99.4683 11.0338 101.431 11.0388C102.825 11.0424 104.216 10.9228 105.572 10.5649C106.691 10.2698 107.239 9.23402 107.034 7.9719C106.775 6.37891 106.841 4.78954 107.242 3.22047C107.258 3.15814 107.295 3.10123 107.378 3.04759C107.363 3.2484 107.343 3.44898 107.335 3.65005C107.284 4.80924 107.339 5.95184 107.763 7.05548C108.169 8.11259 108.83 7.91564 109.465 7.52071C109.947 7.22099 110.489 7.00585 111.022 6.80217C114.763 5.37414 118.563 4.12995 122.498 3.36328C124.058 3.05951 125.65 2.92763 127.251 2.69642C127.509 2.67368 127.744 2.672 128.018 2.6731Z" fill="white"/>
<path id="Vector_2" d="M3.37555 12.473C3.37831 12.4354 3.41433 12.4412 3.43407 12.4763C3.4536 16.3808 3.45403 20.2502 3.45303 24.1196C3.45177 28.9967 3.44935 33.8737 3.44743 38.7507C3.44743 38.7507 3.41415 38.7466 3.39748 38.7484C3.37825 37.4203 3.3736 36.0903 3.37346 34.7603C3.37264 27.3437 3.37291 19.9272 3.37555 12.473Z" fill="white"/>
<path id="Vector_3" d="M135.057 15.0371C135.551 14.0688 136.033 13.128 136.51 12.1848C136.679 11.8522 136.854 11.5469 137.298 11.5498C137.755 11.5528 137.999 11.8344 138.182 12.1965C138.787 13.3918 139.385 14.5903 139.988 15.7867C143.771 23.2998 147.555 30.8125 151.338 38.3258C151.613 38.8718 151.535 39.2977 151.118 39.5611C150.698 39.8265 150.292 39.737 150.039 39.2651C149.513 38.2852 149.014 37.2909 148.509 36.3003C147.754 34.8218 146.997 33.3447 146.256 31.8594C146.094 31.5356 145.897 31.4112 145.519 31.4124C140.709 31.4276 135.9 31.4224 131.09 31.4224C130.917 31.4224 130.743 31.4224 130.489 31.4224C130.77 30.8619 131.01 30.3502 131.289 29.861C131.333 29.784 131.556 29.7903 131.696 29.7902C136.009 29.7868 140.321 29.7874 144.634 29.7875C144.794 29.7875 144.955 29.7875 145.198 29.7875C142.565 24.5435 139.957 19.348 137.313 14.0823C136.885 14.9128 136.484 15.6808 136.093 16.4536C133.237 22.0928 130.384 27.7339 127.526 33.3725C126.552 35.2949 125.569 37.2129 124.585 39.1307C124.263 39.7595 123.538 39.8503 123.154 39.3116C122.944 39.0164 122.992 38.7051 123.148 38.4008C123.886 36.9578 124.627 35.5166 125.361 34.072C126.787 31.2667 128.207 28.4577 129.635 25.6534C131.434 22.1218 133.24 18.5934 135.057 15.0371Z" fill="white"/>
<path id="Vector_4" d="M156.818 16.1596C154.89 17.9092 153.591 20.0228 152.943 22.5087C151.946 26.3253 152.749 29.8207 155.04 32.9698C157.059 35.7455 159.834 37.4106 163.208 37.9051C166.828 38.4359 170.152 37.619 172.992 35.1924C173.093 35.1057 173.202 35.0268 173.309 34.9468C173.718 34.6412 174.101 34.6398 174.394 34.9414C174.663 35.2172 174.711 35.7273 174.397 36.0438C173.908 36.5357 173.402 37.0388 172.82 37.4035C170.998 38.5453 169.013 39.2854 166.871 39.5536C161.984 40.1655 157.905 38.5224 154.578 34.9836C152.592 32.8707 151.398 30.3102 151.025 27.4318C150.499 23.366 151.622 19.7348 154.192 16.5615C156.402 13.8318 159.273 12.181 162.735 11.6604C166.769 11.0539 170.449 11.9422 173.66 14.5353C173.94 14.7621 174.201 15.02 174.44 15.2909C174.712 15.5999 174.711 16.0498 174.477 16.3263C174.218 16.6318 173.808 16.6822 173.424 16.4289C172.496 15.8177 171.593 15.1675 170.649 14.5846C169.15 13.6597 167.497 13.235 165.742 13.1495C162.382 12.9857 159.41 13.9583 156.818 16.1596Z" fill="white"/>
<path id="Vector_5" d="M52.646 13.4828C52.641 13.5631 52.6318 13.6433 52.6318 13.7236C52.6321 21.7176 52.6331 29.7115 52.6391 37.767C52.6673 37.8428 52.6905 37.8571 52.7136 37.8714C52.7136 37.8714 52.7134 37.861 52.7083 37.8856C52.7336 37.9164 52.7639 37.9227 52.7941 37.9289C52.955 37.9339 53.1159 37.9431 53.2768 37.9432C58.6231 37.9439 63.9695 37.9436 69.3159 37.9441C69.9828 37.9442 70.3108 38.3156 70.2051 38.9701C70.1524 39.2963 69.9358 39.4872 69.6137 39.5454C69.5096 39.5642 69.3993 39.5488 69.2919 39.5488C63.5425 39.5489 57.7931 39.5488 52.0437 39.549C51.3779 39.549 51.0657 39.255 51.0258 38.5857C51.0147 38.3981 51.0036 38.2102 51.0035 38.0224C51.0024 29.6992 51.0026 21.376 51.0028 13.0529C51.0028 12.9185 51.0001 12.7837 51.0091 12.6497C51.0422 12.155 51.2702 11.8861 51.7517 11.7926C51.9479 11.7545 52.1501 11.7292 52.3496 11.7291C57.9378 11.7257 63.526 11.7259 69.1142 11.7287C69.2867 11.7288 69.4654 11.7411 69.6305 11.7865C70.0404 11.8993 70.2469 12.2491 70.2082 12.7222C70.1794 13.0737 69.9146 13.3303 69.5127 13.3794C69.367 13.3972 69.2177 13.3881 69.07 13.3881C63.643 13.3903 58.2161 13.3921 52.7311 13.4017C52.664 13.4339 52.655 13.4583 52.646 13.4828Z" fill="white"/>
<path id="Vector_6" d="M181.253 13.4827C181.248 13.563 181.239 13.6433 181.239 13.7236C181.239 21.7176 181.24 29.7116 181.246 37.7671C181.274 37.8429 181.297 37.8572 181.321 37.8715C181.321 37.8715 181.32 37.8611 181.315 37.8856C181.34 37.9164 181.371 37.9227 181.401 37.9289C181.575 37.9339 181.75 37.9432 181.924 37.9432C187.257 37.944 192.59 37.9437 197.923 37.9441C198.588 37.9442 198.918 38.3186 198.812 38.9708C198.759 39.2967 198.542 39.4879 198.22 39.5455C198.116 39.5642 198.005 39.5489 197.898 39.5489C192.148 39.549 186.399 39.549 180.649 39.5492C179.985 39.5492 179.673 39.2538 179.633 38.5845C179.621 38.397 179.61 38.209 179.61 38.0212C179.609 29.6979 179.609 21.3745 179.61 13.0511C179.61 12.9167 179.607 12.7819 179.616 12.648C179.65 12.1528 179.877 11.8846 180.36 11.7928C180.57 11.753 180.786 11.7292 180.999 11.7291C186.56 11.7257 192.122 11.7259 197.683 11.7288C197.869 11.7289 198.062 11.7393 198.24 11.7876C198.647 11.898 198.85 12.2464 198.815 12.7247C198.79 13.0791 198.527 13.3329 198.12 13.3801C197.974 13.397 197.825 13.3882 197.677 13.3882C192.25 13.3904 186.823 13.3922 181.338 13.4018C181.271 13.4339 181.262 13.4583 181.253 13.4827Z" fill="white"/>
<path id="Vector_7" d="M3.45383 38.78C3.45192 33.873 3.45434 28.996 3.4556 24.119C3.4566 20.2495 3.45618 16.3801 3.45467 12.4728C3.53289 12.0575 3.79832 11.8717 4.14671 11.7962C4.35466 11.7511 4.5718 11.7297 4.78482 11.7295C10.3745 11.7261 15.9641 11.7222 21.5537 11.7399C21.8462 11.7408 22.21 11.859 22.4082 12.0561C22.5762 12.2232 22.6218 12.5903 22.5957 12.8565C22.5642 13.1784 22.2716 13.3311 21.9579 13.3786C21.8263 13.3985 21.6898 13.3885 21.5555 13.3885C16.248 13.3888 10.9405 13.3888 5.63307 13.3888C5.46161 13.3888 5.29016 13.3888 5.072 13.3888C5.072 21.549 5.072 29.668 5.07583 37.8443C5.07965 37.9018 5.10742 37.9298 5.10742 37.9298L5.14683 37.9293C5.22699 37.9342 5.30715 37.9435 5.38731 37.9435C10.8737 37.9434 16.3602 37.9426 21.9034 37.9407C21.9603 37.9396 21.9983 37.9305 21.9983 37.9305C22.3248 38.0345 22.5784 38.2208 22.6397 38.5779C22.74 39.1625 22.3915 39.5491 21.7781 39.5491C16.8905 39.5495 12.003 39.5492 7.11551 39.5494C6.21589 39.5495 5.31628 39.5509 4.35979 39.5527C4.30291 39.5537 4.26503 39.5636 4.26503 39.5636C3.84838 39.4707 3.51774 39.2855 3.45383 38.78Z" fill="white"/>
<path id="Vector_8" d="M47.1373 12.7228C46.0803 14.0618 45.0396 15.3757 43.9924 16.6845C42.0913 19.0608 40.186 21.4337 38.2832 23.8087C37.8059 24.4045 37.3167 24.9919 36.8646 25.6064C36.7268 25.7938 36.625 26.0588 36.6243 26.2886C36.6101 30.4169 36.6143 34.5452 36.6135 38.6735C36.6134 39.2939 36.4637 39.5365 36.0082 39.6713C35.5788 39.7983 35.1505 39.5543 35.0619 39.1114C35.0175 38.8897 34.9996 38.6592 34.9994 38.4326C34.9958 34.385 34.9949 30.3374 35.0005 26.2898C35.0009 25.9965 34.9397 25.7642 34.7446 25.5225C31.8903 21.9854 29.0489 18.438 26.2055 14.8922C25.6943 14.2547 25.1874 13.6137 24.6803 12.973C24.3461 12.5509 24.3609 12.1379 24.7171 11.8311C25.077 11.521 25.5512 11.5458 25.888 11.9518C26.7441 12.9836 27.5778 14.034 28.4181 15.0788C30.3589 17.492 32.2984 19.9063 34.2382 22.3203C34.7581 22.9673 35.2771 23.615 35.8271 24.3004C36.3033 23.7105 36.7636 23.1443 37.2198 22.5747C39.2578 20.0305 41.2949 17.4856 43.3317 14.9404C44.1274 13.946 44.9184 12.9478 45.7176 11.9562C45.9909 11.6171 46.4371 11.5348 46.802 11.7341C47.1498 11.9241 47.2703 12.2563 47.1373 12.7228Z" fill="white"/>
<path id="Vector_9" d="M115.285 26.4129C112.561 26.4129 109.877 26.4129 107.103 26.4129C107.367 25.8647 107.593 25.3722 107.847 24.8943C107.885 24.8225 108.052 24.789 108.16 24.7889C112.524 24.7838 116.888 24.7821 121.252 24.7874C121.87 24.7882 122.284 25.256 122.178 25.7922C122.096 26.2087 121.828 26.4107 121.328 26.4114C119.327 26.4144 117.326 26.4128 115.285 26.4129Z" fill="white"/>
<path id="Vector_10" d="M54.3352 30.132C54.3747 30.0214 54.3973 29.9152 54.4576 29.8854C54.534 29.8476 54.641 29.8696 54.7349 29.8696C57.9706 29.8693 61.2063 29.8648 64.4419 29.8786C64.6786 29.8796 64.9523 29.9606 65.1424 30.0971C65.4316 30.3047 65.5392 30.629 65.4072 30.9922C65.2823 31.3361 65.032 31.5014 64.6698 31.5022C64.2268 31.5031 63.7837 31.5034 63.3407 31.5034C60.5346 31.5036 57.7285 31.5035 54.9225 31.5036C54.7487 31.5036 54.5749 31.5036 54.335 31.5036C54.335 31.0446 54.335 30.6075 54.3352 30.132Z" fill="white"/>
<path id="Vector_11" d="M188.979 29.8699C190.389 29.8699 191.758 29.8674 193.128 29.8714C193.624 29.8728 194.006 30.1974 194.056 30.641C194.106 31.0855 193.803 31.4549 193.352 31.4981C193.298 31.5032 193.244 31.5037 193.191 31.5037C189.861 31.5037 186.532 31.5036 183.202 31.5025C183.136 31.5025 183.069 31.4918 182.97 31.4832C182.97 30.9654 182.97 30.4496 182.97 29.8699C184.952 29.8699 186.945 29.8699 188.979 29.8699Z" fill="white"/>
<path id="Vector_12" d="M7.33327 29.8693C10.542 29.8693 13.7111 29.8687 16.8801 29.8699C17.425 29.8701 17.7583 30.1142 17.86 30.5762C17.954 31.003 17.6646 31.4268 17.2296 31.4858C17.0841 31.5056 16.935 31.5028 16.7875 31.5028C13.6185 31.5037 10.4494 31.5035 7.28035 31.5035C7.12189 31.5035 6.96343 31.5035 6.77393 31.5035C6.77393 30.9504 6.77393 30.4354 6.77393 29.8693C6.95335 29.8693 7.12348 29.8693 7.33327 29.8693Z" fill="white"/>
<path id="Vector_13" d="M111.984 45.6787C112.774 46.6928 113.547 47.6834 114.32 48.674C114.349 48.6652 114.377 48.6565 114.405 48.6478C114.405 47.4543 114.405 46.2609 114.405 45.0435C114.732 45.0435 115.008 45.0435 115.316 45.0435C115.316 46.8618 115.316 48.6677 115.316 50.4917C114.908 50.5805 114.586 50.5366 114.301 50.158C113.495 49.0878 112.65 48.0467 111.819 46.9945C111.78 46.9446 111.737 46.8979 111.619 46.7611C111.619 48.0737 111.619 49.2834 111.619 50.5098C111.283 50.5098 111.007 50.5098 110.709 50.5098C110.709 48.681 110.709 46.8725 110.709 45.0727C111.338 44.8353 111.667 45.2164 111.984 45.6787Z" fill="white"/>
<path id="Vector_14" d="M174.486 47.3014C174.452 47.9151 174.499 48.5082 174.366 49.0578C174.098 50.1661 173.118 50.6134 172.099 50.5686C170.55 50.5005 169.896 49.3485 169.945 48.191C169.989 47.1595 169.954 46.1246 169.954 45.0561C170.291 45.0561 170.604 45.0561 170.963 45.0561C170.969 45.1985 170.981 45.341 170.981 45.4837C170.983 46.4514 170.972 47.4193 170.986 48.3869C171 49.3184 171.663 49.8349 172.565 49.6407C173.126 49.52 173.465 49.0334 173.474 48.2915C173.485 47.3642 173.476 46.4366 173.477 45.5092C173.477 45.3649 173.477 45.2206 173.477 45.0488C173.823 45.0488 174.123 45.0488 174.486 45.0488C174.486 45.7933 174.486 46.5272 174.486 47.3014Z" fill="white"/>
<path id="Vector_15" d="M198.81 45.4435C198.81 45.5865 198.81 45.6917 198.81 45.8304C198.008 45.8304 197.234 45.8304 196.426 45.8304C196.426 46.3379 196.426 46.813 196.426 47.3478C197.039 47.3478 197.662 47.3478 198.307 47.3478C198.307 47.6273 198.307 47.8486 198.307 48.1301C197.677 48.1301 197.054 48.1301 196.413 48.1301C196.413 48.6688 196.413 49.1482 196.413 49.6878C197.2 49.6878 197.983 49.6878 198.788 49.6878C198.788 49.9949 198.788 50.2421 198.788 50.5102C197.658 50.5102 196.547 50.5102 195.4 50.5102C195.4 48.7034 195.4 46.8985 195.4 45.0576C196.519 45.0576 197.638 45.0576 198.787 45.0576C198.795 45.1724 198.803 45.289 198.81 45.4435Z" fill="white"/>
<path id="Vector_16" d="M126.396 49.2547C126.5 48.7008 126.392 48.4784 125.903 48.2799C125.607 48.1601 125.29 48.0951 124.993 47.9794C124.192 47.6676 123.825 47.1114 123.925 46.3921C124.031 45.6292 124.603 45.0625 125.399 44.972C125.969 44.9072 126.512 45.0081 127.025 45.2949C127.344 45.4734 127.28 45.6572 127.135 45.9074C126.993 46.1519 126.845 46.2252 126.583 46.0737C126.39 45.9618 126.174 45.8535 125.957 45.8264C125.729 45.7979 125.458 45.8089 125.264 45.9122C125.093 46.0032 124.921 46.2367 124.9 46.4237C124.883 46.5886 125.035 46.8249 125.182 46.9415C125.362 47.0846 125.614 47.1381 125.837 47.2264C126.022 47.3001 126.213 47.3627 126.397 47.4396C127.218 47.7818 127.467 48.1904 127.388 49.0542C127.324 49.7569 126.791 50.3738 126.089 50.5124C125.321 50.6642 124.607 50.5224 123.953 50.0728C123.739 49.926 123.698 49.7987 123.854 49.5874C124.005 49.3851 124.085 49.135 124.442 49.3145C124.791 49.4901 125.17 49.6252 125.55 49.7108C125.91 49.7918 126.197 49.6043 126.396 49.2547Z" fill="white"/>
<path id="Vector_17" d="M136.898 45.8602C136.439 45.8557 135.979 45.8513 135.464 45.8412C135.408 45.8356 135.37 45.8262 135.37 45.8262C135.37 45.5859 135.37 45.3455 135.37 45.0635C136.826 45.0635 138.248 45.0635 139.692 45.0635C139.692 45.3057 139.692 45.5433 139.692 45.8261C139.185 45.8261 138.669 45.8261 138.103 45.8261C138.103 47.4045 138.103 48.9391 138.103 50.5021C137.739 50.5021 137.426 50.5021 137.058 50.5021C137.058 49.0268 137.058 47.5551 137.053 46.0219C137.025 45.9463 137.002 45.9321 136.979 45.9179C136.979 45.9179 136.979 45.928 136.984 45.9035C136.959 45.8727 136.929 45.8665 136.898 45.8602Z" fill="white"/>
<path id="Vector_18" d="M185.914 45.0215C186.301 45.0215 186.648 45.0215 187.029 45.0215C187.029 45.2993 187.029 45.5451 187.029 45.833C186.513 45.833 185.997 45.833 185.437 45.833C185.437 47.4095 185.437 48.9454 185.437 50.5051C185.078 50.5051 184.762 50.5051 184.402 50.5051C184.402 48.9726 184.402 47.4368 184.402 45.8578C183.845 45.8578 183.329 45.8578 182.782 45.8578C182.782 45.5705 182.782 45.3256 182.782 45.0215C183.819 45.0215 184.846 45.0215 185.914 45.0215Z" fill="white"/>
<path id="Vector_19" d="M160.041 46.0074C160.041 47.4951 160.041 48.9828 160.041 50.5001C159.702 50.5001 159.403 50.5001 159.046 50.5001C159.046 48.9623 159.046 47.428 159.046 45.8604C158.473 45.8604 157.955 45.8604 157.404 45.8604C157.404 45.5816 157.404 45.3361 157.404 45.0557C158.818 45.0557 160.24 45.0557 161.71 45.0557C161.71 45.3055 161.71 45.5302 161.695 45.7947C161.68 45.8344 161.644 45.8514 161.644 45.8514C161.184 45.85 160.724 45.8485 160.203 45.852C160.127 45.8802 160.112 45.9034 160.098 45.9266C160.098 45.9266 160.109 45.9262 160.084 45.9214C160.053 45.9468 160.047 45.9771 160.041 46.0074Z" fill="white"/>
<path id="Vector_20" d="M100.854 46.6557C100.854 46.1068 100.854 45.5982 100.854 45.0557C101.205 45.0557 101.529 45.0557 101.878 45.0557C101.878 46.8717 101.878 48.6772 101.878 50.5062C101.547 50.5062 101.231 50.5062 100.854 50.5062C100.854 49.2357 100.854 47.9659 100.854 46.6557Z" fill="white"/>
<path id="Vector_21" d="M148.021 46.0916C148.023 45.7559 148.025 45.4605 148.028 45.1651C148.029 45.1399 148.042 45.1148 148.058 45.0557C148.373 45.0557 148.697 45.0557 149.046 45.0557C149.046 46.8716 149.046 48.6772 149.046 50.5062C148.715 50.5062 148.399 50.5062 148.021 50.5062C148.021 49.0477 148.021 47.5897 148.021 46.0916Z" fill="white"/>
<path id="Vector_22" d="M181.262 13.4713C181.259 13.4583 181.267 13.4342 181.297 13.4102C181.304 13.4276 181.289 13.4443 181.262 13.4713Z" fill="white"/>
<path id="Vector_23" d="M5.13227 37.9172C5.14189 37.9292 5.1029 37.9297 5.1029 37.9297C5.1029 37.9297 5.07544 37.902 5.0767 37.8826C5.09418 37.8757 5.10908 37.8898 5.13227 37.9172Z" fill="white"/>
<path id="Vector_24" d="M160.054 45.9922C160.049 45.9772 160.055 45.9469 160.086 45.916C160.094 45.9346 160.079 45.9551 160.054 45.9922Z" fill="white"/>
<path id="Vector_25" d="M136.987 45.9316C136.999 45.9312 137.021 45.9453 137.043 45.9829C137.027 45.9872 137.012 45.9671 136.987 45.9316Z" fill="white"/>
<path id="Vector_26" d="M161.656 45.8521C161.645 45.8506 161.681 45.8338 161.7 45.8291C161.704 45.8417 161.687 45.8514 161.656 45.8521Z" fill="white"/>
<path id="Vector_27" d="M160.116 45.9136C160.116 45.9023 160.13 45.8794 160.168 45.8574C160.172 45.8741 160.152 45.8886 160.116 45.9136Z" fill="white"/>
<path id="Vector_28" d="M136.908 45.8708C136.923 45.8656 136.953 45.8719 136.983 45.9025C136.964 45.9102 136.944 45.8953 136.908 45.8708Z" fill="white"/>
<path id="Vector_29" d="M135.376 45.8336C135.368 45.8265 135.406 45.8357 135.424 45.844C135.441 45.8523 135.411 45.8546 135.411 45.8546C135.411 45.8546 135.384 45.8407 135.376 45.8336Z" fill="white"/>
<path id="Vector_30" d="M52.6993 37.8568C52.688 37.8571 52.6651 37.843 52.6431 37.8052C52.6597 37.801 52.6742 37.8212 52.6993 37.8568Z" fill="white"/>
<path id="Vector_31" d="M52.6608 13.4715C52.6574 13.4584 52.6664 13.4342 52.6959 13.4102C52.7028 13.4276 52.6884 13.4444 52.6608 13.4715Z" fill="white"/>
<path id="Vector_32" d="M181.306 37.8568C181.295 37.8571 181.272 37.843 181.25 37.8052C181.267 37.801 181.281 37.8212 181.306 37.8568Z" fill="white"/>
<path id="Vector_33" d="M4.26902 39.5695C4.25977 39.5646 4.29723 39.5548 4.31625 39.5584C4.33527 39.562 4.30791 39.5767 4.30791 39.5767C4.30791 39.5767 4.27828 39.5744 4.26902 39.5695Z" fill="white"/>
<path id="Vector_34" d="M181.383 37.9175C181.368 37.9227 181.338 37.9165 181.307 37.8858C181.326 37.8781 181.346 37.893 181.383 37.9175Z" fill="white"/>
<path id="Vector_35" d="M52.7818 37.9176C52.7668 37.9228 52.7365 37.9165 52.7061 37.8858C52.7248 37.8781 52.7451 37.893 52.7818 37.9176Z" fill="white"/>
<path id="Vector_36" d="M21.9859 37.9249C21.9951 37.9297 21.9575 37.9387 21.9385 37.9351C21.9373 37.9167 21.9563 37.9129 21.9859 37.9249Z" fill="white"/>
</g>
<defs>
<clipPath id="clip0_2456_3041">
<rect width="200.521" height="62.7083" fill="white" transform="translate(0.633301 0.895508)"/>
</clipPath>
</defs>
</svg>
