<svg width="119" height="41" viewBox="0 0 119 41" fill="none" xmlns="http://www.w3.org/2000/svg">
<path d="M51.899 29.8863C46.553 29.8863 41.3502 29.8873 36.1475 29.8858C34.3 29.8852 34.2994 29.8823 34.7899 28.0492C36.193 22.8062 37.5692 17.5558 39.0158 12.3249C39.486 10.6247 40.1197 8.97921 38.1949 7.5989C46.4376 7.5989 54.6804 7.5989 62.9191 7.5989C63.0723 9.16783 62.7828 9.52434 61.2934 9.53091C58.0477 9.54523 54.8009 9.58296 51.5567 9.51075C50.3613 9.48414 49.7583 9.77977 49.4991 11.0512C49.0649 13.1811 48.4115 15.2662 47.7837 17.6195C51.9477 17.6195 55.9037 17.6195 60.2642 17.6195C58.7022 18.8968 57.5339 19.7831 55.7849 19.6929C53.4047 19.5702 51.0121 19.7077 48.6273 19.6418C47.5645 19.6124 47.0895 20.0133 46.8535 21.0276C46.3485 23.1974 45.744 25.344 45.1276 27.7013C45.7768 27.7676 46.2677 27.861 46.7587 27.8615C55.3027 27.8704 63.8467 27.8504 72.3905 27.8888C73.5334 27.8939 74.1379 27.5984 74.3566 26.3933C74.6253 24.9129 75.0957 23.4691 75.5301 21.8142C74.8449 21.7592 74.3476 21.6869 73.8501 21.6847C71.0817 21.6729 68.313 21.7021 65.5449 21.6714C62.0664 21.6328 60.805 19.9718 61.6767 16.6313C62.0253 15.2955 62.5201 13.9836 62.7247 12.627C63.237 9.23121 66.4859 7.44482 69.1796 7.45479C71.7571 7.46433 74.3346 7.45352 76.9121 7.45301C80.5397 7.4523 84.1673 7.45041 87.7949 7.45625C88.2014 7.4569 88.6078 7.50438 89.3531 7.55163C87.6514 8.75834 86.2645 9.64173 84.3474 9.56714C81.2972 9.44847 78.2378 9.5834 75.1847 9.51087C74.0505 9.48393 73.5673 9.88943 73.3546 10.9744C73.0729 12.4115 72.6372 13.8183 72.2125 15.4503C72.8133 15.5076 73.299 15.5917 73.7851 15.5939C76.6013 15.6068 79.4191 15.5452 82.2326 15.6321C83.151 15.6605 84.1379 15.904 84.9512 16.3244C86.1572 16.9478 86.6897 18.0742 86.346 19.4583C85.8183 21.5835 85.3079 23.7162 84.6783 25.8121C83.9367 28.2806 81.3778 29.8747 78.2467 29.8802C69.5119 29.8956 60.777 29.886 51.899 29.8863Z" fill="white"/>
<path d="M106.622 29.7391C104.166 29.8049 101.832 29.8701 99.4966 29.8796C94.9788 29.898 90.4608 29.885 85.8911 29.7256C87.0361 28.7565 88.1692 27.8501 89.7924 27.8609C93.0847 27.8829 96.3783 27.8225 99.6694 27.8891C100.983 27.9157 101.385 27.3957 101.489 26.1394C101.604 24.7428 102.024 23.3715 102.349 21.8099C101.755 21.7606 101.257 21.6858 100.76 21.6835C98.0397 21.671 95.3193 21.7082 92.6 21.6671C89.2861 21.6171 88.0224 19.9541 88.836 16.7905C89.1917 15.4077 89.6986 14.0485 89.9006 12.6446C90.3816 9.30092 93.6138 7.41736 96.4823 7.44963C98.8201 7.47592 101.159 7.4526 103.497 7.45229C107.171 7.45181 110.845 7.45218 114.519 7.45218C114.978 7.45218 115.437 7.45218 116.313 7.45218C114.609 8.72538 113.274 9.61453 111.418 9.55889C108.367 9.46741 105.311 9.56912 102.258 9.514C101.269 9.49616 100.783 9.81093 100.577 10.7949C100.259 12.3149 99.8231 13.8103 99.3646 15.5994C100.118 15.5994 100.663 15.5993 101.208 15.5994C103.832 15.5994 106.457 15.5802 109.081 15.6044C112.505 15.636 113.795 17.3454 112.934 20.6656C112.575 22.0476 112.138 23.4132 111.856 24.8104C111.283 27.6563 109.439 29.1146 106.622 29.7391Z" fill="white"/>
<path d="M29.7577 16.3737C25.1834 19.8865 20.5938 23.3798 16.0583 26.942C15.6038 27.299 15.5461 28.1225 15.1791 28.6411C14.8419 29.1177 14.3487 29.8126 13.9021 29.8295C11.0902 29.9364 8.27205 29.8841 5.456 29.8715C5.28266 29.8708 5.10979 29.761 4.82969 29.6653C5.21679 27.5191 5.36114 25.6026 7.92401 24.4851C15.601 21.1375 23.1346 17.461 30.7228 13.91C31.1214 13.7235 31.5079 13.5112 31.9001 13.3109C31.8521 13.2052 31.8041 13.0995 31.7561 12.9938C30.0487 13.5246 28.3397 14.05 26.6344 14.5874C22.0951 16.0179 17.567 17.4853 13.0081 18.8502C12.3809 19.038 11.595 18.7718 10.9008 18.628C10.5438 18.554 10.2434 18.2394 9.88886 18.115C8.71076 17.7017 7.89077 18.1276 7.52583 19.301C7.32846 19.9355 7.12989 20.5697 6.87045 21.4008C5.55011 20.2391 4.32832 19.1641 2.92554 17.9298C7.42711 17.1122 11.7146 16.3334 16.1687 15.4396C17.0988 15.2806 17.8623 15.2366 18.6258 15.1926C20.1244 14.9345 21.64 14.7446 23.1119 14.3788C23.5861 14.261 24.1652 13.7534 24.3169 13.2977C24.8268 11.7663 25.1145 10.1617 25.602 8.62142C25.7442 8.17207 26.2601 7.52159 26.6208 7.51104C29.6612 7.42208 32.7053 7.46032 35.8847 7.46032C35.8293 7.97301 35.8363 8.34279 35.7452 8.6866C33.9906 15.3105 32.2153 21.9289 30.4736 28.5561C30.2743 29.3145 30.0756 29.9015 29.1282 29.8934C26.3613 29.8698 23.594 29.8873 20.8269 29.8746C20.6081 29.8736 20.3898 29.7643 20.0766 29.6798C20.4979 27.8324 20.7373 26.0925 22.225 24.6739C24.8804 22.1418 27.3419 19.4064 29.9947 16.6398C30.1765 16.465 30.2292 16.3927 30.3407 16.2425C30.4437 16.1411 30.4958 16.0982 30.4893 16.0675C30.4739 15.9942 30.431 15.9266 30.4583 15.9032C30.526 15.8734 30.5345 15.7971 30.5431 15.7207C30.5021 15.777 30.4611 15.8333 30.3423 15.8935C30.2103 15.9791 30.156 16.0606 30.0257 16.1474C29.8857 16.2263 29.8217 16.3 29.7577 16.3737Z" fill="white"/>
<path d="M18.6268 15.0712C17.8641 15.2361 17.1006 15.2801 16.2146 15.3381C13.5496 15.5245 11.0071 15.6968 8.38281 15.8746C8.72209 14.5748 8.97163 13.3624 9.35905 12.1958C9.91401 10.5247 10.2863 8.94142 8.49104 7.60742C12.5168 7.60742 16.5425 7.60742 20.9055 7.60742C20.1063 10.1819 19.3662 12.5661 18.6268 15.0712Z" fill="white"/>
<path d="M30.2603 16.3073C30.2266 16.3934 30.1739 16.4657 30.0466 16.5623C29.9512 16.5631 29.9116 16.5258 29.8135 16.4314C29.819 16.3007 29.8831 16.2269 30.0631 16.1895C30.1791 16.2257 30.2603 16.3073 30.2603 16.3073Z" fill="white"/>
<path d="M30.4013 15.8545C30.4331 15.9244 30.476 15.992 30.4914 16.0653C30.4978 16.096 30.4458 16.1389 30.3427 16.2403C30.265 16.3044 30.1838 16.2228 30.1438 16.1814C30.1581 16.0584 30.2123 15.9769 30.3387 15.8834C30.4109 15.8714 30.4013 15.8545 30.4013 15.8545Z" fill="white"/>
<path d="M30.4103 15.8815C30.4569 15.8332 30.4979 15.777 30.5389 15.7207C30.5304 15.797 30.5218 15.8733 30.4541 15.9032C30.395 15.8567 30.4046 15.8736 30.4103 15.8815Z" fill="white"/>
</svg>
