<svg width="83" height="83" viewBox="0 0 83 83" fill="none" xmlns="http://www.w3.org/2000/svg">
<g id="Frame 320">
<path id="Ellipse 536" d="M82.8827 41.4006C82.8827 64.1161 64.4682 82.5307 41.7526 82.5307C19.0371 82.5307 0.622559 64.1161 0.622559 41.4006C0.622559 18.6851 19.0371 0.270508 41.7526 0.270508C64.4682 0.270508 82.8827 18.6851 82.8827 41.4006ZM8.64293 41.4006C8.64293 59.6866 23.4667 74.5103 41.7526 74.5103C60.0386 74.5103 74.8624 59.6866 74.8624 41.4006C74.8624 23.1146 60.0386 8.29087 41.7526 8.29087C23.4667 8.29087 8.64293 23.1146 8.64293 41.4006Z" fill="white"/>
<path id="Vector" d="M20.8373 76.4525C20.3849 76.1353 19.9325 75.8181 19.337 75.5013C19.1939 75.5018 19.1979 75.487 19.1705 75.3428C18.1364 74.4381 17.1296 73.6776 16.1122 72.9353C16.1015 72.9536 16.1392 72.9345 16.0758 72.8052C14.3137 71.0529 12.6151 69.4299 10.8904 67.7052C10.7954 67.4696 10.6871 67.3875 10.4999 67.2205C10.0646 66.6733 9.66878 66.263 9.25908 65.7481C9.10521 65.4944 8.9652 65.3454 8.78902 65.0591C8.49805 64.6454 8.24327 64.3689 8.00505 64.044C8.02162 63.9957 7.93666 63.9389 7.91789 63.8174C7.7785 63.5942 7.65789 63.4926 7.53815 63.4239C7.53902 63.4568 7.60387 63.446 7.58812 63.313C7.40524 62.9786 7.23811 62.7773 7.04853 62.4575C6.87936 62.1509 6.73265 61.9628 6.56785 61.6215C5.12642 57.979 3.70308 54.4897 2.28867 50.8514C2.18375 50.4329 2.0699 50.1633 1.98148 49.7253C1.87874 48.8909 1.75058 48.225 1.65212 47.3834C1.60447 43.5916 1.52713 39.9754 1.48291 36.2527C1.50212 36.0732 1.48819 36.0002 1.53885 35.7847C1.68399 35.026 1.76455 34.4098 1.92619 33.6506C2.28904 32.1152 2.5708 30.7228 2.97345 29.2296C3.28264 28.5363 3.47095 27.9438 3.75442 27.2376C4.34567 25.8992 4.84176 24.6747 5.44565 23.3552C6.02563 22.3154 6.4978 21.3705 7.02401 20.2869C7.91419 18.9486 8.75035 17.749 9.66324 16.4254C10.7279 15.2437 11.7158 14.186 12.8303 13.0667C13.9217 12.1056 14.8866 11.206 15.8492 10.3011C15.847 10.2956 15.8525 10.2869 15.9289 10.2594C16.0054 10.232 16.0861 10.0911 16.2131 10.0458C16.8854 9.54258 17.4307 9.08461 17.9692 8.62169C17.9624 8.61674 17.962 8.60248 18.1003 8.56812C18.456 8.35632 18.6734 8.17889 18.9563 7.99903C19.0218 7.99661 19.0978 7.88985 19.2147 7.87322C19.5734 7.66293 19.8153 7.46928 20.173 7.23907C20.4795 7.05946 20.6702 6.91641 20.9836 6.75028C21.2697 6.55892 21.433 6.39063 21.6975 6.10267C23.0992 5.4048 24.3996 4.82662 25.7173 4.26616C25.7346 4.28387 25.7817 4.26812 25.9323 4.24587C27.0583 3.85069 28.0337 3.47777 29.1743 3.09868C32.0988 2.51721 34.8581 1.9419 37.7146 1.39322C37.9601 1.43079 38.0768 1.37551 38.1596 1.22916C38.157 1.20432 38.127 1.24427 38.2923 1.2761C39.1222 1.23707 39.7868 1.16623 40.5861 1.14464C41.1898 1.16042 41.6589 1.12694 42.1998 1.13719C42.2716 1.18091 42.4397 1.18139 42.4397 1.18139C42.4397 1.18139 42.5842 1.09532 42.6899 1.15231C43.0197 1.17032 43.2438 1.13133 43.5764 1.16251C43.9402 1.23815 44.1956 1.24361 44.6027 1.31614C49.5104 2.62852 54.2662 3.87383 59.0221 5.11914C59.0221 5.11914 59.096 4.93845 59.1456 5.12409C59.4301 5.38776 59.6651 5.4658 59.9 5.54384C59.9 5.54384 59.9148 5.50009 59.9561 5.60303C60.1462 5.74735 60.295 5.78872 60.4438 5.83008C60.4438 5.83008 60.5025 5.91162 60.6385 6.01144C60.9499 6.16345 61.1253 6.21565 61.3007 6.26784C61.3007 6.26784 61.2907 6.23732 61.3531 6.36353C61.9169 6.7436 62.4182 6.99744 62.9195 7.25129C62.9195 7.25129 62.9425 7.18357 62.9904 7.32353C63.4367 7.67158 63.8352 7.87967 64.2337 8.08776C64.2337 8.08776 64.2353 8.0467 64.2823 8.17347C64.7102 8.53106 65.091 8.76188 65.4718 8.9927C65.4718 8.9927 65.4855 8.94957 65.5243 9.07261C65.8612 9.36985 66.1594 9.54406 66.4576 9.71826C66.4576 9.71826 66.4586 9.68525 66.4954 9.80532C66.744 10.0533 66.9558 10.1813 67.1677 10.3092C67.1677 10.3092 67.2122 10.2493 67.2219 10.3685C67.3556 10.5622 67.4795 10.6367 67.6035 10.7111C67.6035 10.7111 67.6758 10.5817 67.6891 10.7575C67.985 11.1277 68.2676 11.322 68.5503 11.5163C68.5503 11.5163 68.5486 11.476 68.5887 11.6097C69.1887 12.2203 69.7486 12.6971 70.3085 13.1739C70.3085 13.1739 70.3173 13.1411 70.3397 13.2537C70.4922 13.4536 70.6224 13.541 70.7526 13.6284C70.7526 13.6284 70.8305 13.821 70.947 13.9852C71.2239 14.2802 71.3844 14.4111 71.5449 14.5421C71.5449 14.5421 71.557 14.4909 71.5723 14.6167C71.838 14.9759 72.0885 15.2094 72.339 15.4429C72.339 15.4429 72.3531 15.3961 72.3651 15.5226C72.5559 15.8165 72.7348 15.984 72.9137 16.1515C72.9137 16.1515 72.9387 16.1236 72.9595 16.2664C73.3526 16.8 73.725 17.1909 74.0973 17.5817C74.0973 17.5817 74.108 17.5203 74.1053 17.6621C74.3857 18.1587 74.6688 18.5135 74.9519 18.8683C74.9519 18.8683 74.9605 18.813 74.9622 18.9559C75.2449 19.454 75.5259 19.8092 75.8069 20.1644C75.8069 20.1644 75.8155 20.1072 75.8155 20.2603C76.2817 21.151 76.748 21.8886 77.2142 22.6262C77.2142 22.6262 77.231 22.5981 77.2239 22.7157C77.3206 22.9434 77.4245 23.0535 77.5284 23.1635C77.5284 23.1635 77.5328 23.1089 77.5189 23.2439C77.635 23.59 77.7651 23.8011 77.8952 24.0123C77.8952 24.0123 78.0306 24.0418 77.9909 24.1924C80.3219 29.9758 81.9706 35.7435 81.5487 41.9612C81.413 43.9606 81.5705 45.9798 81.5652 48.1592C81.3698 49.3258 81.2033 50.3232 80.9048 51.3982C80.4332 52.4566 80.0935 53.4375 79.6679 54.5071C79.5341 54.8342 79.4861 55.0725 79.3461 55.4329C78.984 56.3233 78.7138 57.0917 78.4587 57.8561C78.4737 57.852 78.4475 57.8346 78.3332 57.9306C77.0279 60.2806 75.837 62.5346 74.5199 64.8043C74.2604 65.0307 74.1269 65.2414 73.9945 65.4913C73.9955 65.5303 74.0197 65.456 73.919 65.5109C73.755 65.702 73.6918 65.8383 73.6605 65.9853C73.6924 65.9962 73.698 65.9289 73.5704 65.9954C73.3598 66.2332 73.2767 66.4045 73.121 66.584C72.9587 66.6543 72.9213 66.7394 72.8264 66.9038C72.5851 67.1622 72.4534 67.3643 72.3192 67.5835C72.3166 67.6006 72.3484 67.6141 72.2371 67.6603C72.0508 67.8446 71.9757 67.9828 71.9339 68.1254C71.9673 68.1298 71.957 68.0633 71.8414 68.1072C71.6449 68.2897 71.5639 68.4284 71.4738 68.5631C71.4646 68.5592 71.4462 68.5513 71.3326 68.6116C70.7718 69.1853 70.3244 69.6988 69.7614 70.2754C69.5604 70.4879 69.4749 70.6371 69.4252 70.7813C69.4609 70.7762 69.4445 70.706 69.3244 70.7436C69.1168 70.918 69.0293 71.0549 68.9759 71.1926C69.0101 71.1933 69.0019 71.1255 68.8819 71.163C68.6761 71.3394 68.5904 71.4783 68.4972 71.6069C68.4898 71.5967 68.4657 71.5891 68.3377 71.6298C67.6173 72.2086 67.0248 72.7467 66.3151 73.3216C66.0989 73.4836 65.9999 73.6086 65.9345 73.7324C65.9682 73.731 65.9499 73.6663 65.825 73.6993C65.5162 73.9044 65.3322 74.0766 65.0523 74.2677C64.8272 74.3427 64.7443 74.4386 64.5691 74.609C63.8225 75.0698 63.2146 75.4961 62.4613 75.9572C61.3973 76.5324 60.4787 77.0729 59.428 77.6316C59.0798 77.7927 58.8636 77.9355 58.6464 78.0727C58.6453 78.067 58.6354 78.0591 58.4845 78.0813C57.1446 78.6058 55.9556 79.1081 54.6099 79.6258C53.8682 79.8569 53.2832 80.0726 52.5255 80.2861C50.7245 80.6733 49.0961 81.0625 47.2928 81.432C46.5366 81.4858 45.9554 81.5595 45.26 81.6124C45.0723 81.6161 44.9989 81.6405 44.726 81.6559C42.3769 81.6539 40.2274 81.6609 37.9351 81.6193C37.5925 81.5727 37.3927 81.5747 37.0269 81.5318C33.3892 80.6442 29.9175 79.8015 26.4458 78.9588C24.9927 78.2431 23.5395 77.5273 21.9359 76.7832C21.7855 76.7547 21.7612 76.7651 21.6859 76.6673C21.3529 76.5305 21.0951 76.4915 20.8373 76.4525ZM68.2275 41.2504C68.0887 41.035 67.9499 40.8197 67.7575 40.3034C66.224 38.2249 66.6455 36.4679 68.4596 34.7416C69.556 33.6982 70.3948 32.3842 71.3494 31.1918C71.2546 30.996 71.1598 30.8002 71.065 30.6044C70.1786 30.6044 69.274 30.7195 68.4093 30.5823C66.0636 30.2101 64.5455 31.1383 63.3628 33.1593C62.3053 34.9663 60.9345 36.59 59.7019 38.2947C59.5104 38.2445 59.3189 38.1944 59.1274 38.1443C59.1274 35.8241 59.1274 33.5039 59.1536 30.8022C58.4018 30.5955 57.6528 30.2221 56.8979 30.2096C52.564 30.1385 52.5665 30.1675 52.5686 34.4077C52.5707 38.6197 52.5665 42.8316 52.564 47.0436C52.5608 52.5851 52.5605 52.5868 58.1623 52.1347C58.366 52.1183 58.5619 52.0045 59.0738 51.7276C59.157 49.9105 59.2402 48.0934 59.5341 46.0494C60.2811 45.1291 61.0281 44.2087 61.9724 43.0454C63.1504 45.5957 64.2049 47.8787 65.2988 50.4702C65.7006 51.0213 66.0692 52.0156 66.5099 52.0487C68.6991 52.2128 70.9072 52.1235 73.5895 52.1235C72.7967 50.679 72.2703 49.7198 71.7322 48.7984C71.7322 48.7984 71.7718 48.7975 71.7365 48.4953C71.319 47.72 70.9014 46.9448 70.4691 46.2545C70.4691 46.2545 70.5034 46.1754 70.4609 45.8666C69.8629 44.6952 69.2649 43.5239 68.645 42.3805C68.645 42.3805 68.6802 42.3753 68.6569 42.1182C68.5176 41.9088 68.3782 41.6994 68.2139 41.5179C68.2139 41.5179 68.2509 41.5119 68.2275 41.2504ZM33.7976 30.2966C33.6283 31.0082 33.3181 31.7186 33.3122 32.4315C33.2698 37.5844 33.29 42.7378 33.2884 47.8911C33.2869 52.7732 33.3232 52.785 38.1613 52.3178C39.4969 52.1888 40.0269 51.6046 39.9705 50.2563C39.8839 48.1841 39.9249 46.1065 40.2126 43.8784C41.6309 43.8128 43.0576 43.6204 44.4652 43.7144C46.1492 43.8269 46.6499 43.2564 46.6849 41.5454C46.7261 39.5375 46.1966 38.5816 44.0808 38.9138C43.6626 38.9794 43.2251 38.9287 42.7967 38.9204C41.422 38.8938 39.9405 39.3576 39.9833 36.929C40.0267 34.4622 41.6038 35.0871 42.9055 35.0488C44.6894 34.9963 46.4797 34.9675 48.2605 35.0597C49.6828 35.1333 50.248 34.5201 50.136 33.1836C50.067 32.3607 49.9208 31.5443 49.5929 30.3965C44.4532 30.3624 39.3134 30.3284 33.7976 30.2966ZM17.7179 38.1362C17.7179 38.1362 17.6352 38.1425 17.5295 37.7984C17.4951 35.7936 17.4924 33.7873 17.4044 31.7848C17.3817 31.2678 17.1206 30.3325 16.9193 30.3188C15.0117 30.189 13.0906 30.1649 11.1815 30.2646C10.9419 30.2771 10.5637 31.1813 10.5629 31.6729C10.5544 36.6877 10.6108 41.7026 10.5777 47.0994C10.564 53.1819 9.90558 52.1078 15.5939 52.2556C17.0198 52.2927 17.5262 51.6526 17.4251 50.3161C17.3822 49.7486 17.4195 49.1749 17.4199 48.604C17.4233 42.7379 17.4754 42.6945 23.3907 44.0558C23.41 46.511 23.4292 48.9661 23.5106 51.7633C25.1834 51.9218 26.8563 52.0811 28.5292 52.2388C29.8736 52.3654 30.2487 51.6614 30.2422 50.4269C30.2091 44.1982 30.2361 37.9693 30.1995 31.7406C30.1965 31.2297 29.8555 30.2719 29.7035 30.2783C27.6121 30.3666 25.5263 30.5878 23.4049 31.1761C23.3885 33.4483 23.3721 35.7206 23.1574 38.0727C23.1574 38.0727 22.99 38.2058 22.6024 38.1866C21.4451 38.2157 20.2878 38.2449 18.801 38.1739C18.4582 38.1821 18.1154 38.1903 17.7179 38.1362Z" fill="#FEFCFE"/>
</g>
</svg>
