<svg width="198" height="60" viewBox="0 0 198 60" fill="none" xmlns="http://www.w3.org/2000/svg">
<g id="unnamed_adobe_express 1" clipPath="url(#clip0_2456_3099)">
<path id="Vector" d="M3.82056 30.6958C4.08394 20.0403 7.98821 11.3353 16.6108 5.13514C21.9512 1.29505 28.116 -0.431178 34.6418 0.159145C40.8806 0.723507 46.6801 2.61745 51.6222 6.92601C57.7549 12.2725 60.854 18.9515 61.7297 26.868C62.8289 36.8051 59.469 45.1636 52.2814 51.8399C47.3357 56.4336 41.4053 58.9544 34.3953 59.2325C26.7721 59.5349 20.2395 57.2663 14.4548 52.5761C11.0784 49.8385 8.63022 46.3061 6.74319 42.3869C4.98875 38.7431 4.38795 34.8149 3.82056 30.6958ZM13.9955 47.61C16.5653 50.187 19.2999 52.4443 22.6482 54.0843C28.1375 56.7729 33.7314 57.1174 39.4392 55.4863C44.1847 54.1302 48.2552 51.5692 51.7097 47.9041C56.4204 42.9064 58.5724 36.8809 58.9605 30.2723C59.2341 25.6134 57.9027 21.1234 55.6232 16.9674C50.9461 8.4404 43.695 3.91837 34.0848 3.17398C29.2882 2.80245 24.7219 4.04476 20.5824 6.33991C15.8386 8.97011 12.4167 12.9317 9.89582 17.8157C7.5434 22.3732 7.03887 27.1235 7.2703 32.077C7.54683 37.9958 9.89015 43.0413 13.9955 47.61Z" fill="white"/>
<path id="Vector_2" d="M137.286 38.4597C136.31 40.6733 135.236 41.0171 133.75 39.2679C131.248 36.3226 128.941 33.21 126.583 30.1439C125.371 28.5673 124.225 26.9392 122.721 24.8852C122.721 29.591 122.721 33.8405 122.647 38.3043C122.503 38.6284 122.528 38.7243 122.649 38.8064C121.858 39.3099 120.976 40.3193 120.297 40.1977C119.286 40.0168 118.811 38.9466 118.83 37.6645C118.915 31.788 118.882 25.9096 118.852 20.0321C118.847 19.0892 118.791 18.0629 119.964 18.018C120.768 17.9872 121.892 18.2492 122.357 18.809C124.738 21.673 126.956 24.6735 129.223 27.6319C130.476 29.2672 131.715 30.9135 133.426 32.4491C133.426 28.295 133.426 24.1408 133.54 19.7321C133.706 19.2602 133.759 19.0427 133.812 18.8253C134.665 17.4569 136.092 17.6755 137.279 19.6717C137.283 26.145 137.284 32.3024 137.286 38.4597Z" fill="white"/>
<path id="Vector_3" d="M168.699 38.5852C164.052 34.2968 163.42 29.1081 165.416 23.6784C167.309 18.5292 172.25 17.1295 177.201 17.9004C181.282 18.5358 183.426 21.225 184.931 24.7994C187.035 29.7975 184.616 37.2411 179.777 39.3834C176.532 40.8205 173.103 40.8439 169.846 39.0444C169.529 38.8688 169.148 38.8073 168.699 38.5852ZM177.576 21.5717C173.739 20.1173 170.034 21.8261 169.231 25.7283C168.827 27.6886 168.953 29.8208 169.187 31.8348C169.559 35.0352 172.013 37.1516 174.786 36.8929C178.909 36.5083 180.777 34.3162 180.973 30.9215C181.05 29.5871 181.025 28.2415 180.958 26.9054C180.845 24.6385 179.912 22.8219 177.576 21.5717Z" fill="white"/>
<path id="Vector_4" d="M141.946 19.2856C142.37 18.2352 143.031 17.9436 144.238 18.0542C146.386 18.2512 148.567 18.1526 150.732 18.1021C156.812 17.9604 161.426 22.3719 161.469 28.9144C161.506 34.5659 158.679 38.4018 154.418 39.3438C150.895 40.1228 147.126 39.8164 143.464 39.9147C143.081 39.9249 142.684 39.4192 142.285 38.8191C142.274 32.7557 142.282 27.0259 142.255 21.2963C142.252 20.6256 142.054 19.9558 141.946 19.2856ZM145.866 21.8238C145.818 25.923 145.754 30.0222 145.739 34.1215C145.736 34.7872 145.951 35.4537 146.242 36.4076C148.66 36.2122 151.287 36.5476 153.446 35.696C156.609 34.4483 158.176 30.207 157.136 26.8878C156.591 25.1495 156.094 22.8811 154.089 22.4042C151.495 21.7875 148.745 21.8228 145.866 21.8238Z" fill="white"/>
<path id="Vector_5" d="M72.5026 38.4431C72.4893 32.2918 72.4759 26.1404 72.5694 19.7308C72.7306 19.2556 72.7849 19.0386 72.8393 18.8215C73.5185 18.4543 74.4114 17.6259 74.8306 17.8201C75.5976 18.1755 76.5222 19.0875 76.6055 19.8519C76.8449 22.0487 76.6968 24.2877 76.7994 26.8139C79.626 27.1832 82.3541 27.2842 85.0825 27.2917C85.862 27.2938 86.6423 27.0246 87.4222 26.8799C87.4248 24.7316 87.4958 22.5805 87.4049 20.4362C87.3491 19.1207 87.8448 17.9351 88.9921 17.8473C89.8075 17.7848 90.7084 18.8401 91.4823 19.6575C91.3594 25.7264 91.3218 31.5341 91.3039 37.3419C91.3032 37.5698 91.4899 37.7983 91.5892 38.0264C91.5746 39.4586 90.7435 40.3627 89.4288 40.2679C87.9983 40.1647 87.4027 39.0299 87.4226 37.5882C87.4523 35.4387 87.4301 33.2886 87.3316 30.8293C83.6458 30.5199 80.0585 30.5199 76.3104 30.5199C76.3104 33.4047 76.3104 36.125 76.3104 38.8454C75.2236 40.6087 74.7653 40.6971 72.896 39.2559C72.7222 38.8278 72.6124 38.6354 72.5026 38.4431Z" fill="white"/>
<path id="Vector_6" d="M96.2407 18.8344C97.2314 17.1389 98.3901 17.5677 99.695 18.776C99.853 19.099 99.9378 19.1893 100.05 19.2537C100.063 23.4536 100.004 27.6555 100.116 31.8528C100.187 34.4692 101.118 36.1185 103.51 36.7126C106.335 37.4143 109.324 35.8257 110.181 32.6953C110.366 28.0426 110.402 23.6422 110.438 19.2418C111.028 18.7303 111.899 17.6748 112.155 17.8075C112.98 18.2337 114.142 19.0766 114.17 19.7985C114.354 24.4426 114.491 29.1114 114.192 33.7432C114.016 36.4764 112.143 38.5911 109.555 39.5562C105.942 40.9034 102.371 40.7237 99.0152 38.4822C96.9915 37.1307 96.6282 34.9848 96.043 32.6885C96.1655 27.8954 96.2031 23.3649 96.2407 18.8344Z" fill="white"/>
<path id="Vector_7" d="M179.249 15.0346C176.584 15.0409 174.092 15.0562 171.6 15.0365C169.481 15.0198 169.167 14.4135 170.165 12.7416C173.059 12.7416 175.845 12.7022 178.629 12.7787C179.117 12.7921 179.827 13.1925 179.999 13.5986C180.141 13.9337 179.639 14.5415 179.249 15.0346Z" fill="white"/>
<path id="Vector_8" d="M141.918 19.46C142.055 19.9542 142.253 20.6239 142.256 21.2946C142.283 27.0242 142.275 32.754 142.272 38.6652C142.14 38.2783 141.907 37.7104 141.905 37.1414C141.878 31.3064 141.889 25.4712 141.918 19.46Z" fill="white"/>
<path id="Vector_9" d="M76.4634 38.7709C76.3098 36.1237 76.3098 33.4034 76.3098 30.5186C80.0579 30.5186 83.6452 30.5186 87.3307 30.6493C83.9382 30.78 80.4475 30.78 76.617 30.78C76.617 33.4291 76.617 36.0634 76.4634 38.7709Z" fill="white"/>
<path id="Vector_10" d="M137.442 38.384C137.288 32.3021 137.287 26.1448 137.286 19.8066C137.414 19.8754 137.651 20.1252 137.651 20.3747C137.647 26.3527 137.618 32.3306 137.442 38.384Z" fill="white"/>
<path id="Vector_11" d="M91.6154 37.8505C91.4894 37.7986 91.3028 37.5702 91.3035 37.3423C91.3214 31.5345 91.3589 25.7268 91.4914 19.7969C91.6073 25.6745 91.6247 31.6744 91.6154 37.8505Z" fill="white"/>
<path id="Vector_12" d="M96.085 18.9131C96.1989 23.3651 96.1614 27.8956 96.0168 32.543C95.9178 28.1038 95.9257 23.5477 96.085 18.9131Z" fill="white"/>
<path id="Vector_13" d="M110.282 19.3135C110.401 23.6427 110.365 28.0431 110.211 32.55C110.105 28.2326 110.116 23.8086 110.282 19.3135Z" fill="white"/>
<path id="Vector_14" d="M87.2396 26.9024C86.6376 27.0241 85.8573 27.2933 85.0778 27.2912C82.3494 27.2837 79.6214 27.1827 76.7942 26.9888C80.1507 26.882 83.6061 26.9037 87.2396 26.9024Z" fill="white"/>
<path id="Vector_15" d="M133.701 18.8711C133.763 19.0417 133.711 19.2592 133.573 19.5525C133.521 19.3915 133.553 19.1548 133.701 18.8711Z" fill="white"/>
<path id="Vector_16" d="M72.7238 18.8691C72.7848 19.0368 72.7304 19.2538 72.5948 19.5502C72.5452 19.3925 72.5769 19.1555 72.7238 18.8691Z" fill="white"/>
<path id="Vector_17" d="M72.4761 38.5664C72.6082 38.6336 72.718 38.8259 72.8328 39.1331C72.7097 39.0625 72.5817 38.877 72.4761 38.5664Z" fill="white"/>
<path id="Vector_18" d="M100.06 19.1464C99.9372 19.1897 99.8524 19.0994 99.7571 18.8974C99.836 18.8873 99.9531 18.9631 100.06 19.1464Z" fill="white"/>
<path id="Vector_19" d="M122.68 38.717C122.531 38.7235 122.506 38.6275 122.623 38.4821C122.67 38.4465 122.708 38.6284 122.68 38.717Z" fill="white"/>
<path id="Vector_20" d="M145.966 21.7002C146.078 26.3058 146.09 31.0346 146.085 35.9414C145.953 35.4533 145.738 34.7867 145.74 34.121C145.755 30.0217 145.82 25.9226 145.966 21.7002Z" fill="white"/>
<path id="Vector_21" d="M34.6037 54.9517C32.7624 54.9354 31.0525 55.1319 29.4281 54.8448C21.0834 53.37 14.9997 49.1467 11.2358 41.7468C9.82797 38.9789 9.2788 35.7637 8.42201 32.7288C7.38432 29.053 8.232 25.389 9.2997 21.9689C11.0912 16.2302 14.508 11.4606 19.7074 8.1885C25.2257 4.71567 31.2328 4.05263 37.5814 5.01748C43.0554 5.84941 47.5659 8.42975 51.2212 12.4108C54.7448 16.2484 56.6246 20.9654 57.5263 26.0844C58.7145 32.8294 56.8904 38.9281 53.1907 44.4325C50.4186 48.5571 46.659 51.7704 41.8404 53.37C39.5623 54.1263 37.1345 54.4317 34.6037 54.9517ZM36.1011 33.7095C36.1015 37.4769 36.082 41.2446 36.1095 45.0118C36.1264 47.3379 37.1872 48.3537 39.5266 48.3883C40.0373 48.3959 40.5483 48.3899 41.0591 48.3896C44.5565 48.3876 45.3158 47.6303 45.3181 44.1283C45.3207 40.0585 45.3187 35.9888 45.3187 31.651C48.2056 31.651 50.9038 31.651 53.7132 31.651C53.6693 30.7093 53.6383 30.0445 53.6081 29.3954C39.7356 29.3954 26.0402 29.3954 12.2148 29.3954C12.2507 30.2 12.2805 30.8663 12.3168 31.6793C13.8341 31.6793 15.1662 31.6793 16.4983 31.6793C17.8238 31.6793 19.1493 31.6793 20.6575 31.6793C20.6575 32.646 20.6983 33.3978 20.6511 34.144C20.2456 40.554 22.6424 39.8867 26.7978 39.8176C28.7967 39.7843 29.8115 38.6468 29.8554 36.6553C29.8904 35.0718 29.8625 33.487 29.8625 31.6794C31.5428 31.6794 33.0675 31.7672 34.5769 31.6534C35.9474 31.5501 36.2466 32.192 36.1011 33.7095ZM43.1295 25.9321C46.6131 25.9321 50.0967 25.9321 53.5839 25.9321C53.5839 24.9809 53.5839 24.3126 53.5839 23.4547C50.8231 23.4547 48.1733 23.4547 45.317 23.4547C45.317 20.9852 45.3365 18.7037 45.3117 16.4228C45.2842 13.8824 44.2447 12.8793 41.6672 12.8447C41.1565 12.8379 40.6457 12.8417 40.1349 12.8437C37.0709 12.8562 36.1109 13.7985 36.1031 16.8146C36.0974 19.0152 36.102 21.2158 36.102 23.3354C33.8324 23.3354 31.8878 23.3354 29.8627 23.3354C29.8627 20.1964 29.884 17.1993 29.8556 14.2026C29.8351 12.0449 28.7194 10.9567 26.5431 10.8931C25.9052 10.8745 25.2663 10.8876 24.6278 10.8899C21.6079 10.9004 20.6704 11.8473 20.6604 14.925C20.6514 17.714 20.6585 20.5031 20.6585 23.5349C17.7321 23.5349 15.0262 23.5349 12.2087 23.5349C12.2503 24.4565 12.2805 25.1243 12.317 25.9322C22.5883 25.9322 32.6671 25.9322 43.1295 25.9321Z" fill="white"/>
<path id="Vector_22" d="M36.0981 33.5268C36.2435 32.1921 35.9443 31.5502 34.5738 31.6535C33.0644 31.7673 31.5397 31.6794 29.8594 31.6794C29.8594 33.4871 29.8873 35.0719 29.8523 36.6554C29.8084 38.6469 28.7936 39.7844 26.7947 39.8177C22.6393 39.8868 20.2425 40.554 20.648 34.144C20.6952 33.3979 20.6544 32.6461 20.6544 31.6794C19.1462 31.6794 17.8207 31.6794 16.4952 31.6794C15.1631 31.6794 13.831 31.6794 12.3137 31.6794C12.2774 30.8664 12.2476 30.2001 12.2117 29.3955C26.0371 29.3955 39.7325 29.3955 53.605 29.3955C53.6353 30.0446 53.6663 30.7094 53.7102 31.6511C50.9007 31.6511 48.2025 31.6511 45.3156 31.6511C45.3156 35.9889 45.3176 40.0586 45.315 44.1283C45.3127 47.6304 44.5534 48.3877 41.056 48.3896C40.5452 48.3899 40.0342 48.396 39.5235 48.3884C37.1841 48.3538 36.1233 47.338 36.1064 45.0119C36.0789 41.2446 36.0984 37.477 36.0981 33.5268Z" fill="#969696"/>
<path id="Vector_23" d="M42.9407 25.9317C32.6701 25.9317 22.5912 25.9317 12.3199 25.9317C12.2834 25.1238 12.2533 24.456 12.2117 23.5344C15.0291 23.5344 17.735 23.5344 20.6615 23.5344C20.6615 20.5026 20.6543 17.7136 20.6634 14.9246C20.6734 11.8468 21.6108 10.8999 24.6308 10.8894C25.2692 10.8872 25.9081 10.874 26.546 10.8926C28.7224 10.9562 29.8381 12.0444 29.8585 14.2021C29.8869 17.1988 29.8657 20.196 29.8657 23.3349C31.8907 23.3349 33.8353 23.3349 36.1049 23.3349C36.1049 21.2153 36.1003 19.0147 36.106 16.8141C36.1138 13.798 37.0738 12.8557 40.1379 12.8433C40.6486 12.8412 41.1595 12.8374 41.6702 12.8442C44.2477 12.8789 45.2871 13.8819 45.3147 16.4223C45.3394 18.7033 45.3199 20.9848 45.3199 23.4542C48.1762 23.4542 50.826 23.4542 53.5868 23.4542C53.5868 24.3121 53.5868 24.9805 53.5868 25.9317C50.0997 25.9317 46.6161 25.9317 42.9407 25.9317Z" fill="#939393"/>
</g>
<defs>
<clipPath id="clip0_2456_3099">
<rect width="196.364" height="59.0625" fill="white" transform="translate(0.75 0.0830078)"/>
</clipPath>
</defs>
</svg>
