<svg width="180" height="47" viewBox="0 0 180 47" fill="none" xmlns="http://www.w3.org/2000/svg">
<path d="M7.76505 10.1372C7.65048 3.60651 5.42585 2.64219 4.32786 2.97636C0.89068 1.68726 0.604248 6.98657 0.604248 22.0242C1.60676 37.4914 5.47359 39.7828 6.90575 37.778C4.90073 26.7502 7.90826 18.3005 7.76505 10.1372Z" fill="white"/>
<path d="M33.5194 37.5V27.3443C33.5194 26.171 33.1405 25.2056 32.3828 24.4479C31.6496 23.6902 30.6963 23.3113 29.5231 23.3113C28.7409 23.3113 28.0443 23.4824 27.4333 23.8246C26.8222 24.1668 26.3456 24.6434 26.0034 25.2545C25.6612 25.8655 25.4901 26.5621 25.4901 27.3443L23.9136 26.4643C23.9136 25.12 24.2069 23.9346 24.7935 22.908C25.3801 21.857 26.1867 21.0382 27.2133 20.4516C28.2643 19.8405 29.4375 19.535 30.733 19.535C32.0529 19.535 33.2261 19.8772 34.2527 20.5616C35.2792 21.2215 36.0858 22.0892 36.6724 23.1647C37.259 24.2157 37.5524 25.3156 37.5524 26.4643V37.5H33.5194ZM21.4572 37.5V19.9016H25.4901V37.5H21.4572ZM59.4415 37.5V27.3443C59.4415 26.171 59.0626 25.2056 58.3049 24.4479C57.5717 23.6902 56.6184 23.3113 55.4452 23.3113C54.663 23.3113 53.9664 23.4824 53.3554 23.8246C52.7443 24.1668 52.2677 24.6434 51.9255 25.2545C51.5833 25.8655 51.4122 26.5621 51.4122 27.3443L49.8357 26.4643C49.8357 25.12 50.129 23.9346 50.7156 22.908C51.3022 21.857 52.1088 21.0382 53.1354 20.4516C54.1864 19.8405 55.3596 19.535 56.6551 19.535C57.975 19.535 59.1482 19.8772 60.1748 20.5616C61.2013 21.2215 62.0079 22.0892 62.5945 23.1647C63.1811 24.2157 63.4744 25.3156 63.4744 26.4643V37.5H59.4415ZM47.3793 37.5V19.9016H51.4122V37.5H47.3793ZM81.3673 37.8666C79.6563 37.8666 78.1042 37.4633 76.711 36.6567C75.3178 35.8257 74.2057 34.7136 73.3747 33.3204C72.5681 31.9272 72.1648 30.3751 72.1648 28.6641C72.1648 26.9532 72.5681 25.4133 73.3747 24.0446C74.2057 22.6758 75.3178 21.5881 76.711 20.7815C78.1042 19.9505 79.6563 19.535 81.3673 19.535C83.1027 19.535 84.667 19.9383 86.0602 20.7449C87.4534 21.5515 88.5533 22.6514 89.3599 24.0446C90.1909 25.4133 90.6064 26.9532 90.6064 28.6641C90.6064 30.3751 90.1909 31.9272 89.3599 33.3204C88.5533 34.7136 87.4534 35.8257 86.0602 36.6567C84.667 37.4633 83.1027 37.8666 81.3673 37.8666ZM81.3673 33.9803C82.3694 33.9803 83.2493 33.7603 84.007 33.3204C84.7892 32.856 85.388 32.2205 85.8035 31.4139C86.2435 30.6073 86.4635 29.6907 86.4635 28.6641C86.4635 27.6376 86.2435 26.7332 85.8035 25.9511C85.3636 25.1689 84.7647 24.5579 84.007 24.1179C83.2493 23.6535 82.3694 23.4213 81.3673 23.4213C80.3896 23.4213 79.5097 23.6535 78.7275 24.1179C77.9698 24.5579 77.371 25.1689 76.931 25.9511C76.5155 26.7332 76.3077 27.6376 76.3077 28.6641C76.3077 29.6907 76.5155 30.6073 76.931 31.4139C77.371 32.2205 77.9698 32.856 78.7275 33.3204C79.5097 33.7603 80.3896 33.9803 81.3673 33.9803ZM105.445 37.8666C104.467 37.8666 103.526 37.7444 102.622 37.5C101.718 37.2311 100.887 36.8645 100.129 36.4001C99.3712 35.9113 98.7112 35.3246 98.149 34.6403L100.715 32.0738C101.327 32.7827 102.023 33.3204 102.805 33.687C103.612 34.0292 104.516 34.2003 105.518 34.2003C106.423 34.2003 107.107 34.0659 107.572 33.797C108.036 33.5281 108.268 33.1371 108.268 32.6238C108.268 32.0861 108.048 31.6705 107.608 31.3772C107.168 31.0839 106.594 30.8395 105.885 30.644C105.201 30.424 104.467 30.204 103.685 29.984C102.927 29.764 102.194 29.4707 101.485 29.1041C100.801 28.713 100.239 28.1875 99.7989 27.5276C99.3589 26.8676 99.139 26.0122 99.139 24.9612C99.139 23.8368 99.3956 22.8713 99.9089 22.0648C100.447 21.2582 101.192 20.6349 102.145 20.1949C103.123 19.755 104.284 19.535 105.628 19.535C107.046 19.535 108.293 19.7916 109.368 20.3049C110.468 20.7938 111.384 21.5392 112.118 22.5414L109.551 25.1078C109.038 24.4723 108.451 23.9957 107.791 23.6779C107.132 23.3602 106.374 23.2013 105.518 23.2013C104.712 23.2013 104.089 23.3235 103.649 23.5679C103.209 23.8124 102.989 24.1668 102.989 24.6312C102.989 25.12 103.209 25.4989 103.649 25.7677C104.089 26.0366 104.651 26.2688 105.335 26.4643C106.044 26.6599 106.777 26.8799 107.535 27.1243C108.317 27.3443 109.05 27.662 109.735 28.0775C110.443 28.4686 111.018 29.0063 111.458 29.6907C111.898 30.3507 112.118 31.2184 112.118 32.2938C112.118 34.0048 111.519 35.3613 110.321 36.3634C109.124 37.3656 107.498 37.8666 105.445 37.8666ZM129.237 37.8666C127.526 37.8666 125.974 37.4633 124.581 36.6567C123.188 35.8257 122.076 34.7136 121.245 33.3204C120.438 31.9272 120.035 30.3751 120.035 28.6641C120.035 26.9532 120.438 25.4133 121.245 24.0446C122.076 22.6758 123.188 21.5881 124.581 20.7815C125.974 19.9505 127.526 19.535 129.237 19.535C130.973 19.535 132.537 19.9383 133.93 20.7449C135.323 21.5515 136.423 22.6514 137.23 24.0446C138.061 25.4133 138.476 26.9532 138.476 28.6641C138.476 30.3751 138.061 31.9272 137.23 33.3204C136.423 34.7136 135.323 35.8257 133.93 36.6567C132.537 37.4633 130.973 37.8666 129.237 37.8666ZM129.237 33.9803C130.239 33.9803 131.119 33.7603 131.877 33.3204C132.659 32.856 133.258 32.2205 133.673 31.4139C134.113 30.6073 134.333 29.6907 134.333 28.6641C134.333 27.6376 134.113 26.7332 133.673 25.9511C133.234 25.1689 132.635 24.5579 131.877 24.1179C131.119 23.6535 130.239 23.4213 129.237 23.4213C128.26 23.4213 127.38 23.6535 126.597 24.1179C125.84 24.5579 125.241 25.1689 124.801 25.9511C124.385 26.7332 124.178 27.6376 124.178 28.6641C124.178 29.6907 124.385 30.6073 124.801 31.4139C125.241 32.2205 125.84 32.856 126.597 33.3204C127.38 33.7603 128.26 33.9803 129.237 33.9803ZM147.559 37.5V11.1024H151.592V37.5H147.559ZM167.748 37.5L159.719 19.9016H164.192L170.315 34.237H167.675L173.834 19.9016H178.124L170.095 37.5H167.748Z" fill="white"/>
</svg>
