<svg width="141" height="33" viewBox="0 0 141 33" fill="none" xmlns="http://www.w3.org/2000/svg">
<g id="ion247_logo_1_adobe_express 1" clipPath="url(#clip0_2456_3078)">
<path id="Vector" d="M43.2241 32.429C43.1588 22.3919 43.1587 12.3548 43.159 2.31763C43.159 1.3498 43.1598 1.34917 44.1357 1.34885C45.5279 1.34838 46.9211 1.32326 48.3116 1.37094C48.5863 1.38036 48.9637 1.60698 49.1034 1.84254C51.2551 5.47181 53.3805 9.11621 55.5012 12.7632C57.2676 15.8009 59.0188 18.8471 60.7798 21.8878C60.9366 22.1585 61.116 22.4166 61.4033 22.8655C61.4033 22.4267 61.4033 22.1898 61.4033 21.9529C61.4033 15.3831 61.4031 8.81334 61.4036 2.24358C61.4037 1.35072 61.4054 1.34977 62.3163 1.34895C63.4301 1.34794 64.5465 1.39483 65.6567 1.33239C66.3819 1.29159 66.4256 1.63396 66.4249 2.18925C66.414 11.9526 66.417 21.716 66.4171 31.4794C66.4171 31.7532 66.417 32.0269 66.417 32.3649C64.6965 32.429 62.9759 32.429 61.1836 32.3803C56.8562 25.0135 52.6005 17.6955 48.3448 10.3775C48.2874 10.398 48.23 10.4185 48.1726 10.439C48.1726 17.769 48.1726 25.099 48.1726 32.429C46.5448 32.429 44.9171 32.429 43.2241 32.429Z" fill="white"/>
<path id="Vector_2" d="M86.962 1.07422C87.1796 1.19534 87.3132 1.37447 87.4871 1.42872C89.534 2.06721 90.7025 3.51172 90.8888 5.52446C91.0998 7.80562 91.0191 10.1128 91.0663 12.4087C91.0958 13.8425 90.6334 15.1277 89.5221 16.0339C88.6366 16.7561 87.6236 17.3875 86.5694 17.8382C83.3871 19.199 80.1412 20.4156 76.9543 21.7663C75.8097 22.2515 75.3892 22.3762 75.4599 23.8724C75.5071 24.8739 75.4785 25.8788 75.487 26.8821C75.4873 26.9225 75.5197 26.9627 75.5663 27.07C81.4208 27.07 87.3033 27.07 93.2618 27.07C93.2618 28.8587 93.2618 30.5809 93.2781 32.3658C85.5852 32.4284 77.876 32.4284 70.1015 32.4284C70.0362 28.9853 70.0292 25.5423 70.039 22.0993C70.0443 20.2053 70.9274 18.8054 72.5296 17.7715C74.4212 16.5507 76.5638 15.8928 78.6201 15.041C80.5361 14.2473 82.4658 13.4855 84.3895 12.7099C85.2984 12.3434 85.7491 11.7484 85.6543 10.7148C85.5629 9.71899 85.6375 8.70873 85.6336 7.70485C85.6302 6.82243 85.1375 6.29043 84.2392 6.28363C81.8721 6.26572 79.5047 6.26414 77.1377 6.28417C76.1852 6.29223 75.6396 6.95745 75.6117 8.09274C75.5905 8.9567 75.6075 9.82157 75.6075 10.7405C73.8849 10.7405 72.2095 10.7405 70.4422 10.7405C70.579 8.68742 70.1409 6.63162 70.7556 4.63394C71.2576 3.00238 72.3577 1.89804 74.0595 1.4202C74.2251 1.37368 74.3712 1.25979 74.5096 1.1257C78.6275 1.07422 82.7621 1.07422 86.962 1.07422Z" fill="white"/>
<path id="Vector_3" d="M108.539 32.4295C108.474 30.4068 108.474 28.3842 108.474 26.2959C103.319 26.2959 98.2266 26.2959 93.0855 26.2959C93.0572 26.0643 93.0228 25.8926 93.0179 25.72C93.0082 25.3782 93.0568 25.03 93.008 24.6949C92.6644 22.3353 93.392 20.406 94.9976 18.5802C97.2416 16.0286 99.2417 13.2693 101.34 10.5944C103.462 7.88932 105.579 5.17975 107.694 2.46948C108.027 2.04291 108.341 1.60233 108.639 1.12176C110.241 1.07531 111.869 1.07531 113.562 1.13947C113.627 7.62407 113.627 14.0445 113.627 20.5329C116.04 20.5329 118.348 20.5329 120.672 20.5329C120.672 22.4764 120.672 24.351 120.672 26.2935C118.306 26.2935 115.998 26.2935 113.627 26.2935C113.627 28.3841 113.627 30.4068 113.627 32.4295C111.953 32.4295 110.279 32.4295 108.539 32.4295ZM108.474 17.437C108.474 14.776 108.474 12.1151 108.474 9.28057C105.577 13.0726 102.778 16.7356 99.9225 20.4729C102.832 20.4729 105.619 20.4729 108.474 20.4729C108.474 19.4777 108.474 18.5258 108.474 17.437Z" fill="white"/>
<path id="Vector_4" d="M28.6085 1.07422C28.8423 1.19923 28.9923 1.38165 29.182 1.4409C34.9026 3.22675 38.6421 6.92853 40.1666 12.6427C41.224 16.6061 40.8117 20.5017 38.9139 24.1676C37.6164 26.6737 35.726 28.6892 33.2782 30.2009C31.9369 31.0292 30.5418 31.6877 29.0086 32.0716C28.842 32.1133 28.6973 32.2398 28.5385 32.3776C25.9782 32.4284 23.422 32.4284 20.7957 32.3774C20.5438 32.2462 20.3691 32.1411 20.1793 32.0898C17.752 31.433 15.5685 30.2751 13.7627 28.5912C9.96786 25.0526 8.20994 20.6906 8.59914 15.5048C8.77922 13.1053 9.39937 10.8655 10.6155 8.78872C12.7744 5.10164 15.8993 2.60904 20.087 1.43898C20.2765 1.38604 20.4272 1.19887 20.596 1.07422C23.2451 1.07422 25.8941 1.07422 28.6085 1.07422ZM36.149 13.3755C34.148 7.33724 28.2922 3.92154 22.104 5.18293C15.72 6.48421 11.5521 12.711 12.8217 19.0503C14.0742 25.3042 20.3232 29.5134 26.6644 28.3745C33.7705 27.0982 37.9975 20.4826 36.149 13.3755Z" fill="white"/>
<path id="Vector_5" d="M120.515 32.4284C120.598 31.962 120.683 31.4633 120.906 31.0344C122.666 27.6567 124.451 24.2916 126.232 20.924C128.649 16.3505 131.07 11.7784 133.487 7.20469C133.624 6.94609 133.744 6.679 133.939 6.27709C133.571 6.27709 133.308 6.2771 133.046 6.27709C128.615 6.27708 124.184 6.26308 119.754 6.29186C119.075 6.29627 118.881 6.09907 118.903 5.44384C118.95 4.03145 118.917 2.61647 118.917 1.13839C126.05 1.07422 133.183 1.07422 140.365 1.07422C140.365 2.67412 140.365 4.27452 140.316 5.94004C140.101 6.21772 139.897 6.41141 139.774 6.64601C139.077 7.97823 138.412 9.3267 137.712 10.6576C135.941 14.0261 134.156 17.3875 132.378 20.7529C130.557 24.201 128.733 27.6474 126.927 31.1031C126.71 31.5178 126.598 31.9853 126.438 32.4284C124.485 32.4284 122.533 32.4284 120.515 32.4284Z" fill="white"/>
<path id="Vector_6" d="M1.09497 12.092C1.3405 11.775 1.62666 11.5496 1.82497 11.265C3.1043 9.42903 4.36141 7.57815 5.63492 5.73827C5.78415 5.52267 5.98907 5.34432 6.24799 5.06152C6.24799 14.2649 6.24799 23.2826 6.24799 32.3644C4.53437 32.4285 2.82074 32.4285 1.09497 32.4285C1.09497 25.6711 1.09497 18.9136 1.09497 12.092Z" fill="white"/>
<path id="Vector_7" d="M1.09497 1.41182C2.78332 1.34766 4.47167 1.34766 6.20547 1.34766C6.2506 2.53032 6.3657 3.56693 5.56438 4.60902C4.00755 6.63361 2.63423 8.79457 1.13993 10.9155C1.09497 7.77993 1.09497 4.62796 1.09497 1.41182Z" fill="white"/>
<path id="Vector_8" d="M36.1615 13.4276C37.9943 20.4819 33.7674 27.0974 26.6613 28.3737C20.3201 29.5126 14.0711 25.3034 12.8186 19.0496C11.5489 12.7102 15.7169 6.48344 22.1009 5.18215C28.2891 3.92076 34.1448 7.33647 36.1615 13.4276ZM24.1543 5.69545C19.221 5.95431 15.1286 9.10573 13.7981 13.6704C12.4761 18.2061 14.2108 23.0572 18.125 25.7707C22.0377 28.4833 27.289 28.4645 31.1704 25.7241C35.1474 22.9161 36.8252 17.9051 35.3203 13.3289C33.7839 8.65678 29.4967 5.68897 24.1543 5.69545Z" fill="white"/>
<path id="Vector_9" d="M24.2223 5.69532C29.4966 5.68975 33.7838 8.65756 35.3202 13.3297C36.825 17.9059 35.1473 22.9169 31.1703 25.7249C27.2889 28.4653 22.0376 28.4841 18.1248 25.7715C14.2106 23.0579 12.476 18.2068 13.798 13.6712C15.1285 9.10651 19.2209 5.95509 24.2223 5.69532ZM30.3622 8.23071C28.0416 6.74647 25.5142 6.23905 22.7866 6.68504C17.7053 7.51586 13.8686 12.2607 14.2282 17.2669C14.6131 22.6255 18.9176 26.7996 24.2063 26.9427C28.9093 27.0701 33.0365 24.2523 34.483 19.9266C35.9329 15.5907 34.3346 10.9841 30.3622 8.23071Z" fill="#A2A2A2"/>
<path id="Vector_10" d="M30.4075 8.25849C34.3385 10.9832 35.9368 15.5898 34.4869 19.9256C33.0404 24.2514 28.9132 27.0692 24.2102 26.9418C18.9215 26.7986 14.617 22.6246 14.2321 17.266C13.8725 12.2598 17.7092 7.51495 22.7904 6.68413C25.5181 6.23814 28.0454 6.74556 30.4075 8.25849ZM22.0017 16.679C21.6351 16.6849 21.2686 16.6907 20.8114 16.6974C20.7813 16.6993 20.7511 16.7013 20.598 16.6933C20.2269 16.6907 19.8557 16.6882 19.425 16.7158C19.3878 16.7428 19.3615 16.7776 19.3461 16.9344C19.5886 20.1276 22.4663 22.3597 25.5997 21.7007C27.6712 21.265 29.0981 20.0173 29.6205 17.9622C30.184 15.7458 29.4906 13.8669 27.6421 12.5147C25.8807 11.2264 23.9392 11.1738 22.0011 12.1757C20.8948 12.7476 20.89 12.9952 21.8674 13.9027C21.9584 13.9626 22.0494 14.0224 22.1655 14.1688C22.4665 14.4577 22.7674 14.7466 23.1132 15.1207C23.5969 15.6075 24.0807 16.0943 24.6907 16.7082C23.6904 16.7082 22.9056 16.7082 22.0017 16.679Z" fill="white"/>
<path id="Vector_11" d="M19.4824 16.686C19.8535 16.6886 20.2247 16.6911 20.6607 16.7544C20.8937 19.5805 23.6522 21.2634 26.2015 20.1346C26.4559 20.0219 26.6282 19.7298 26.8422 19.5259C26.8458 19.5309 26.8351 19.5369 26.8878 19.5429C27.1168 19.4553 27.3403 19.4016 27.462 19.2621C28.3569 18.2369 28.6164 17.0288 28.3039 15.7438C28.175 15.214 28.1019 14.5373 27.3245 14.3501C27.1897 14.2215 27.0891 14.1099 26.9858 13.9475C26.4984 13.1781 25.1338 12.6518 24.1402 12.924C23.3471 13.1412 22.5997 13.5196 21.832 13.8265C20.8879 12.9956 20.8926 12.748 21.9989 12.1761C23.937 11.1742 25.8786 11.2267 27.6399 12.5151C29.4884 13.8673 30.1818 15.7462 29.6184 17.9626C29.0959 20.0177 27.669 21.2654 25.5976 21.7011C22.4641 22.3601 19.5864 20.128 19.3699 16.8583C19.4288 16.7535 19.4577 16.7216 19.4824 16.686Z" fill="#B1B1B1"/>
<path id="Vector_12" d="M26.9906 13.9991C27.0913 14.1107 27.1919 14.2222 27.3514 14.3942C28.656 16.2023 28.4759 17.8002 26.8373 19.5377C26.8373 19.5377 26.8479 19.5316 26.7979 19.5436C24.1393 21.1543 21.2496 19.7416 20.9021 16.6978C21.2686 16.6919 21.6352 16.686 22.1019 16.7203C22.6898 17.2542 22.9887 17.7958 22.6176 18.5052C23.6493 18.2983 24.23 18.5658 24.5679 19.3772C24.8393 18.5637 25.648 18.286 26.4444 18.4882C26.462 18.5417 26.4829 18.5684 26.5039 18.595C26.5114 18.5799 26.5294 18.5573 26.5247 18.5509C26.5014 18.5194 26.4722 18.4923 26.4358 18.4124C26.2325 17.6274 26.5011 17.0658 27.2483 16.643C26.5807 16.3884 26.2856 15.8342 26.3596 14.9041C26.4152 14.8466 26.4345 14.8066 26.4532 14.7586C26.4638 14.7558 26.4704 14.7347 26.4704 14.7347C26.4704 14.7347 26.4506 14.7689 26.4201 14.7828C26.35 14.8194 26.3178 14.8496 26.2458 14.8973C25.5177 15.0093 24.8787 14.6683 24.5287 13.999C24.3784 14.8212 23.629 14.7965 23.0683 15.0366C22.7674 14.7477 22.4665 14.4588 22.1929 14.1024C23.771 12.8344 25.252 12.8232 26.9906 13.9991Z" fill="#BBBBBB"/>
<path id="Vector_13" d="M26.4474 18.4605C25.6476 18.2851 24.839 18.5628 24.5675 19.3763C24.2296 18.5649 23.649 18.2974 22.6172 18.5043C22.9883 17.7949 22.6894 17.2533 22.1611 16.734C22.9053 16.7084 23.69 16.7084 24.6903 16.7084C24.0803 16.0946 23.5966 15.6078 23.0904 15.0783C23.6286 14.7956 24.378 14.8203 24.5284 13.998C24.8783 14.6674 25.5173 15.0084 26.2557 14.9064C26.3132 14.9067 26.3343 14.926 26.3343 14.926C26.2852 15.8333 26.5803 16.3875 27.248 16.6421C26.5008 17.0649 26.2322 17.6265 26.436 18.4111C26.4459 18.4619 26.4474 18.4605 26.4474 18.4605Z" fill="white"/>
<path id="Vector_14" d="M20.858 16.6982C21.2508 19.7417 24.1406 21.1544 26.7955 19.5388C26.6316 19.7307 26.4593 20.0228 26.2049 20.1354C23.6556 21.2642 20.897 19.5813 20.7256 16.7603C20.7523 16.7025 20.7825 16.7006 20.858 16.6982Z" fill="#E5ECDC"/>
<path id="Vector_15" d="M26.9907 13.9477C25.2547 12.8227 23.7737 12.8338 22.183 14.0586C22.0522 14.023 21.9612 13.9632 21.8535 13.865C22.6046 13.5198 23.352 13.1414 24.1451 12.9242C25.1387 12.652 26.5033 13.1783 26.9907 13.9477Z" fill="#E5ECDC"/>
<path id="Vector_16" d="M19.4548 16.7012C19.4599 16.7216 19.431 16.7535 19.3721 16.8013C19.3616 16.7781 19.3879 16.7432 19.4548 16.7012Z" fill="#E5ECDC"/>
<path id="Vector_17" d="M26.8894 19.5436C28.4753 17.8002 28.6554 16.2023 27.385 14.4111C28.1035 14.538 28.1766 15.2148 28.3055 15.7445C28.618 17.0295 28.3585 18.2376 27.4637 19.2629C27.3419 19.4024 27.1185 19.4561 26.8894 19.5436Z" fill="#E5ECDC"/>
<path id="Vector_18" d="M26.4463 18.463C26.4729 18.4921 26.5021 18.5192 26.5253 18.5507C26.5301 18.5571 26.5121 18.5797 26.5046 18.5949C26.4836 18.5682 26.4627 18.5415 26.4451 18.488C26.4485 18.4612 26.4469 18.4627 26.4463 18.463Z" fill="white"/>
<path id="Vector_19" d="M26.4462 14.7686L26.4659 14.7344C26.4659 14.7344 26.4593 14.7555 26.4505 14.7604C26.4418 14.7653 26.4462 14.7686 26.4462 14.7686Z" fill="white"/>
<path id="Vector_20" d="M26.3025 14.8978C26.317 14.8499 26.3491 14.8196 26.4192 14.783C26.4498 14.7691 26.4454 14.7658 26.4436 14.7637C26.4337 14.8068 26.4143 14.8468 26.3588 14.9043C26.3338 14.9271 26.3127 14.9078 26.3025 14.8978Z" fill="white"/>
</g>
<defs>
<clipPath id="clip0_2456_3078">
<rect width="139.271" height="31.3542" fill="white" transform="translate(0.958252 0.9375)"/>
</clipPath>
</defs>
</svg>
