<svg width="206" height="54" viewBox="0 0 206 54" fill="none" xmlns="http://www.w3.org/2000/svg">
<g id="JP-logo-big-no-WWW_adobe_express 1">
<path id="Vector" d="M102.253 37.569C102.253 39.981 102.253 42.3929 102.253 44.9595C79.0986 44.9595 56.0095 44.9595 32.7852 44.9445C32.65 44.9295 32.5603 44.9182 32.5603 44.9182C32.55 42.5977 32.5397 40.2773 32.6309 37.8636C33.7209 37.7688 34.7094 37.7673 35.7553 37.7966C37.1441 39.3906 38.6984 40.3864 40.8831 39.9681C41.4586 39.8579 42.0847 40.02 42.6638 39.9198C43.3603 39.7993 44.0316 39.5323 44.7503 39.2758C46.0361 38.8855 46.3498 37.8364 46.7372 36.7742C64.3015 36.7744 81.7748 36.7788 99.2482 36.7644C100.341 36.7635 101.406 36.7173 102.253 37.569Z" fill="white"/>
<path id="Vector_2" d="M102.263 37.4777C101.408 36.7184 100.342 36.7646 99.2496 36.7655C81.7763 36.7799 64.303 36.7755 46.7308 36.693C46.6953 34.5442 46.7585 32.4778 46.9129 30.4117C47.7405 30.411 48.4769 30.41 49.2449 30.4719C49.6091 32.0313 51.0445 32.571 52.2952 32.5849C55.0393 32.6154 57.7841 32.6086 60.5283 32.5845C60.7883 32.5823 61.0464 32.3503 61.3863 32.2038C61.6108 32.055 61.8518 31.9449 61.8785 31.7962C61.9479 31.4101 61.923 31.0071 62.0074 30.6098C62.3026 30.5351 62.526 30.4613 62.8128 30.4037C63.6293 31.065 64.3826 31.7101 65.1939 32.4049C65.2728 32.109 65.3216 31.9257 65.4498 31.7785C65.6463 31.7225 65.8663 31.629 65.8649 31.5389C65.8511 30.6325 65.801 29.7266 65.8472 28.8203C66.6325 28.8227 67.3317 28.8253 68.0409 28.9162C67.9846 30.1685 67.9183 31.3326 67.8463 32.5948C68.8728 32.5948 69.7547 32.6089 70.6351 32.5789C70.7601 32.5746 70.8779 32.3562 71.0759 32.2214C71.2719 32.052 71.4898 31.9001 71.493 31.7438C71.506 31.1017 71.4537 30.4582 71.52 29.8153C73.6857 29.8154 75.757 29.8338 77.8276 29.8065C78.6735 29.7953 79.5181 29.685 80.4025 29.6747C81.3114 30.4617 82.181 31.1937 83.1372 31.9986C83.1606 31.6595 83.1759 31.4385 83.259 31.2469C83.4605 31.3757 83.5942 31.4751 83.7257 31.5729C83.7257 30.7402 83.7257 29.9797 83.8215 29.2192C86.8452 29.2196 89.773 29.2201 92.706 29.3126C92.7112 30.4414 92.7112 31.4781 92.7112 32.6026C93.5036 32.6026 94.3576 32.6213 95.2093 32.5859C95.3691 32.5793 95.52 32.3563 95.7589 32.2194C95.9732 31.9906 96.2119 31.7769 96.2144 31.5603C96.2237 30.78 96.1533 29.9988 96.2042 29.2182C96.9879 29.2186 97.681 29.1984 98.3726 29.2232C99.7427 29.2723 101.208 28.8661 102.378 30.0925C102.409 30.3145 102.422 30.4637 102.425 30.7052C102.412 31.7321 102.408 32.6667 102.364 33.6573C102.328 33.9436 102.332 34.1739 102.335 34.4042C102.314 35.3979 102.293 36.3915 102.263 37.4777Z" fill="white"/>
<path id="Vector_3" d="M104.459 44.7348C104.454 43.4699 104.449 42.2051 104.537 40.8465C105.581 40.6862 106.531 40.5622 107.482 40.5618C128.663 40.5507 149.844 40.555 171.025 40.5485C172.113 40.5482 173.2 40.481 174.155 41.2444C174.178 42.4814 174.197 43.6255 174.216 44.7696C173.87 44.8304 173.524 44.9443 173.178 44.9445C150.389 44.9521 127.601 44.9506 104.703 44.9021C104.561 44.7998 104.516 44.76 104.459 44.7348Z" fill="white"/>
<path id="Vector_4" d="M174.151 41.1515C173.199 40.481 172.112 40.5482 171.024 40.5485C149.843 40.555 128.662 40.5507 107.481 40.5618C106.53 40.5623 105.58 40.6863 104.547 40.7542C104.46 39.0952 104.453 37.4347 104.546 35.6793C105.76 35.5842 106.875 35.584 108 35.6487C108.023 35.8002 108.035 35.8867 108.033 36.0546C108.104 36.5339 108.061 37.0551 108.301 37.3068C109.059 38.1033 109.923 38.799 110.821 39.6004C110.899 39.3036 110.945 39.1261 111.056 38.9579C111.235 38.8914 111.448 38.8155 111.448 38.7396C111.448 38.0847 111.409 37.4297 111.475 36.7748C129.523 36.7739 147.479 36.773 165.434 36.8435C165.504 37.0749 165.574 37.235 165.586 37.4579C161.814 37.5343 158.1 37.5422 154.386 37.5701C154.024 37.5728 153.663 37.6987 153.234 37.777C152.995 37.8026 152.823 37.8186 152.469 37.8516C153.076 38.3787 153.513 38.8289 154.02 39.177C154.479 39.4925 155.009 39.9044 155.517 39.9158C158.546 39.9836 161.577 39.9648 164.607 39.9303C165.138 39.9243 165.667 39.7066 166.27 39.5747C167.633 39.0498 168.496 38.1698 168.844 36.7669C170.684 36.9302 172.48 36.4089 174.178 37.1704C174.185 37.5661 174.192 37.9618 174.186 38.5367C174.165 39.5278 174.158 40.3397 174.151 41.1515Z" fill="white"/>
<path id="Vector_5" d="M35.6995 37.7655C34.711 37.767 33.7225 37.7686 32.6455 37.7713C32.5411 37.2993 32.5252 36.8262 32.5091 36.1753C32.5016 35.5136 32.4942 35.0297 32.4973 34.486C32.521 34.3456 32.5342 34.265 32.574 34.1659C32.6369 34.0825 32.6192 34.0316 32.5358 33.9316C32.5121 33.783 32.5004 33.6978 32.4993 33.5228C32.5235 32.9571 32.5369 32.4811 32.6408 32.0042C36.2984 32.0028 39.8654 32.0024 43.4386 32.0951C43.4228 33.933 43.4009 35.678 43.3172 37.4738C40.9754 37.5246 38.6955 37.5246 36.4821 37.5246C36.4436 37.4134 36.4752 37.5048 36.4322 37.5969C36.1382 37.6535 35.9188 37.7095 35.6995 37.7655Z" fill="white"/>
<path id="Vector_6" d="M107.99 35.5841C106.875 35.5842 105.76 35.5844 104.555 35.5873C104.435 35.2388 104.405 34.8875 104.362 34.406C103.717 34.406 103.107 34.406 102.416 34.4049C102.33 34.1734 102.326 33.9431 102.457 33.6588C103.173 33.6047 103.755 33.6047 104.408 33.6047C104.408 32.5066 104.408 31.5546 104.421 30.6074C104.434 30.6123 104.459 30.6227 104.538 30.606C105.741 30.5306 106.865 30.4719 107.996 30.506C107.999 32.2606 107.995 33.9223 107.99 35.5841Z" fill="white"/>
<path id="Vector_7" d="M174.189 34.6309C174.198 35.0242 174.207 35.4174 174.236 35.8931C174.234 36.3166 174.211 36.6576 174.184 37.0842C172.481 36.4084 170.685 36.9296 168.846 36.6738C168.791 35.4496 168.832 34.3212 168.96 33.1929C170.036 33.1935 171.028 33.2449 172.012 33.1815C173.143 33.1086 173.934 33.4384 174.189 34.6309Z" fill="white"/>
<path id="Vector_8" d="M174.154 41.2444C174.158 40.3397 174.165 39.5278 174.189 38.6211C174.318 38.7035 174.526 38.8795 174.528 39.0583C174.553 40.8306 174.547 42.6033 174.536 44.3758C174.535 44.4849 174.419 44.5933 174.286 44.7358C174.196 43.6255 174.177 42.4814 174.154 41.2444Z" fill="white"/>
<path id="Vector_9" d="M104.468 44.7843C104.52 44.7599 104.565 44.7998 104.613 44.8968C104.578 44.9043 104.526 44.8691 104.468 44.7843Z" fill="white"/>
<path id="Vector_10" d="M32.565 44.9558C32.5629 44.9182 32.6526 44.9294 32.6969 44.9393C32.6832 44.964 32.6251 44.9787 32.565 44.9558Z" fill="white"/>
<path id="Vector_11" d="M32.5387 9.93076C32.5294 9.89602 32.5202 9.86127 32.4981 9.77418C32.4854 7.07401 32.4854 4.42619 32.4854 1.71973C55.8279 1.71973 79.097 1.71973 102.439 1.71973C102.439 4.4434 102.439 7.18978 102.441 10.104C102.429 10.4233 102.415 10.5748 102.333 10.7154C101.605 9.34835 100.387 9.52101 99.1853 9.52189C81.7304 9.53471 64.2754 9.53038 46.802 9.44275C46.7835 8.81148 46.7835 8.26762 46.7835 7.51143C45.7513 7.67934 44.887 7.81993 43.9472 7.96656C43.723 8.49247 43.5743 9.01232 43.3329 9.53175C40.5045 9.53116 37.7683 9.50049 35.0335 9.5492C34.1999 9.56405 33.3702 9.79745 32.5387 9.93076Z" fill="white"/>
<path id="Vector_12" d="M104.457 7.73942C104.457 5.725 104.457 3.71059 104.457 1.6709C127.747 1.6709 150.99 1.6709 174.35 1.6709C174.35 3.67801 174.35 5.71598 174.268 7.83285C173.692 7.30192 173.062 7.12785 172.278 7.12897C158.364 7.14881 144.451 7.14323 130.517 7.05524C130.497 6.58997 130.497 6.2126 130.497 5.77662C129.61 5.77662 128.861 5.75172 128.115 5.79407C127.928 5.80471 127.753 6.0311 127.499 6.16463C127.305 6.56161 127.184 6.95229 126.981 7.3318C126.446 7.26156 125.993 7.15186 125.54 7.15105C119.198 7.1398 112.856 7.15443 106.514 7.12921C105.739 7.12613 105.036 7.17227 104.457 7.73942Z" fill="white"/>
<path id="Vector_13" d="M130.54 7.14405C144.454 7.14415 158.367 7.14973 172.281 7.12989C173.065 7.12877 173.695 7.30284 174.256 7.9259C174.334 8.47165 174.345 9.00415 174.359 9.6252C174.358 9.99537 174.354 10.277 174.275 10.6285C173.809 9.89538 173.179 9.70674 172.297 9.70861C158.378 9.73819 144.458 9.72862 130.52 9.63777C130.514 8.74636 130.527 7.94521 130.54 7.14405Z" fill="white"/>
<path id="Vector_14" d="M104.442 7.83059C105.036 7.17307 105.74 7.12693 106.514 7.13001C112.856 7.15523 119.198 7.14061 125.54 7.15186C125.993 7.15266 126.446 7.26236 126.986 7.41664C127.131 8.25305 127.189 8.99425 127.157 9.73354C120.242 9.731 113.417 9.71796 106.592 9.74791C105.867 9.75109 105.143 10.006 104.412 10.1365C104.406 10.129 104.418 10.1131 104.418 10.1131C104.421 9.3824 104.424 8.65168 104.442 7.83059Z" fill="white"/>
<path id="Vector_15" d="M102.336 10.7146C102.414 10.9427 102.425 11.1599 102.411 11.5195C102.405 11.9495 102.422 12.237 102.435 12.6166C102.437 14.165 102.443 15.6212 102.415 17.0908C102.38 17.1041 102.306 17.1161 102.238 17.0859C101.66 16.8011 101.153 16.3394 100.638 16.3304C99.0794 16.3033 97.5179 16.4516 95.9298 16.4656C95.3675 13.8281 94.4309 12.9925 91.8006 12.891C90.0201 12.8223 88.2356 12.8488 86.4529 12.8455C85.1934 12.8432 83.8239 12.6498 83.5211 14.5468C83.2754 13.271 82.5462 12.8667 81.4855 12.8662C78.9761 12.8653 76.4667 12.8612 73.9575 12.8385C72.9718 12.8296 71.9572 12.6853 71.4015 14.0907C71.3101 13.4762 71.2653 13.1754 71.216 12.8437C70.4182 12.8437 69.692 12.8116 68.9721 12.8642C68.7685 12.8791 68.5829 13.1413 68.3105 13.2986C68.1113 13.5953 67.8841 13.8849 67.8879 14.1714C67.9091 15.7425 67.9869 17.313 67.9558 18.8813C67.151 18.8779 66.4355 18.8768 65.7055 18.7838C65.6841 17.8324 65.7231 16.9697 65.6614 16.1142C65.4914 13.7575 64.663 12.9014 62.3157 12.8662C58.4524 12.8081 54.5875 12.8384 50.7235 12.8631C50.4793 12.8647 50.2368 13.1394 49.9123 13.2948C49.6071 13.9767 49.3832 14.6508 49.1199 15.4437C50.1043 15.3086 50.8446 15.1267 51.5868 15.1191C54.7525 15.0866 57.9189 15.1019 61.085 15.1086C61.8736 15.1102 62.4253 15.4184 62.3756 16.2992C57.1301 16.2942 51.975 16.2925 46.8011 16.1995C46.7823 15.0428 46.7823 13.9773 46.7823 12.8367C46.1061 12.8367 45.5517 12.8 45.0049 12.8489C44.5982 12.8852 44.2015 13.0325 43.7235 13.1302C43.5142 13.3411 43.265 13.5541 43.2685 13.7628C43.2896 15.0045 43.369 16.2452 43.3364 17.4856C39.6781 17.4863 36.1123 17.4877 32.5336 17.4228C32.5095 17.2673 32.4982 17.178 32.4954 16.9957C32.4999 15.4381 32.496 13.9736 32.4992 12.4288C32.5013 12.0814 32.4962 11.8143 32.4912 11.5472C32.5012 11.0676 32.5112 10.5879 32.5315 10.0191C33.3731 9.79669 34.2028 9.56329 35.0364 9.54844C37.7713 9.49973 40.5075 9.5304 43.3393 9.61928C43.4559 10.0854 43.4763 10.4629 43.5008 10.9167C44.226 10.9167 44.8458 10.9552 45.4568 10.8986C45.7178 10.8744 45.9605 10.6515 46.2834 10.4968C46.5114 10.1596 46.6674 9.84448 46.8234 9.5294C64.2784 9.52962 81.7334 9.53395 99.1883 9.52113C100.39 9.52025 101.608 9.34759 102.336 10.7146Z" fill="white"/>
<path id="Vector_16" d="M32.4858 17.0899C32.497 17.1792 32.5082 17.2685 32.5209 17.495C32.5121 17.7757 32.5018 17.9192 32.3999 18.0667C22.7906 18.0707 13.2729 18.0707 3.74785 18.0707C3.74785 19.6715 3.74785 21.1125 3.74785 22.6551C13.3716 22.6551 22.9294 22.6551 32.4962 22.7346C32.499 23.0273 32.4928 23.2404 32.3954 23.4539C22.7987 23.4542 13.2932 23.4542 3.76281 23.4542C3.76281 25.0399 3.76281 26.5033 3.76281 28.0134C8.56326 28.0134 13.2829 28.0134 18.0952 28.0251C19.5169 28.0308 20.846 28.0247 22.2678 28.0288C25.7358 28.0463 29.1111 28.0536 32.4952 28.1229C32.5178 28.2674 32.5317 28.3497 32.534 28.495C32.5301 28.6425 32.5377 28.727 32.531 28.8636C32.5068 28.9503 32.4971 28.9849 32.3962 29.0211C28.2642 29.0325 24.2235 29.0423 20.0906 29.0429C14.583 29.0336 9.1677 29.0336 3.75009 29.0336C3.75009 30.616 3.75009 32.057 3.75009 33.5638C8.14777 33.5638 12.4768 33.5638 16.8976 33.5766C17.7895 33.5823 18.5895 33.5752 19.4825 33.5794C20.7723 33.5861 21.969 33.5814 23.2588 33.5855C26.397 33.6007 29.4422 33.6072 32.4874 33.6137C32.4991 33.6989 32.5108 33.7841 32.5257 33.9801C32.5287 34.0908 32.5462 34.1855 32.5462 34.1855C32.5329 34.2661 32.5197 34.3467 32.496 34.4871C29.1106 34.5562 25.7356 34.5654 22.2678 34.5841C20.7791 34.5894 19.3833 34.5853 17.8947 34.5935C12.8146 34.6059 7.8272 34.6059 2.77197 34.6059C2.77197 26.8841 2.77197 19.2866 2.77197 11.5381C12.6215 11.5381 22.4644 11.5381 32.3987 11.5433C32.495 11.8156 32.5 12.0827 32.4065 12.4324C22.7909 12.515 13.2739 12.515 3.74982 12.515C3.74982 14.1083 3.74982 15.5488 3.74982 17.0899C13.3729 17.0899 22.9293 17.0899 32.4858 17.0899Z" fill="white"/>
<path id="Vector_17" d="M36.4307 37.5967C38.7108 40.3385 41.6788 39.5486 44.6186 39.3294C44.0317 39.5318 43.3604 39.7988 42.6639 39.9193C42.0847 40.0195 41.4587 39.8575 40.8832 39.9677C38.6985 40.3859 37.1442 39.3901 35.7554 37.7961C35.9173 37.7093 36.1366 37.6533 36.4307 37.5967Z" fill="white"/>
<path id="Vector_18" d="M83.8202 29.2176C83.6877 26.7594 83.651 24.301 83.7222 21.7513C86.7876 21.6603 89.7451 21.6608 92.7063 21.7543C92.7064 24.3046 92.703 26.7618 92.6995 29.219C89.7717 29.2185 86.8439 29.218 83.8202 29.2176Z" fill="white"/>
<path id="Vector_19" d="M71.5167 29.8132C71.3838 27.5529 71.3455 25.2927 71.418 22.9422C74.4764 22.854 77.424 22.8562 80.3767 22.951C80.3745 25.2351 80.3672 27.4265 80.36 29.6178C79.5148 29.683 78.6702 29.7933 77.8243 29.8045C75.7536 29.8318 73.6823 29.8133 71.5167 29.8132Z" fill="white"/>
<path id="Vector_20" d="M62.0069 30.6086C61.6325 30.4985 61.3307 30.2947 61.0266 30.2912C58.6443 30.2638 56.2613 30.2925 53.8789 30.2668C52.5516 30.2525 52.3865 30.0938 52.3016 28.7944C52.2413 27.8706 52.2675 26.9412 52.3685 25.9257C55.8106 25.8389 59.1393 25.8406 62.4777 25.9346C62.4783 27.1029 62.4437 28.1796 62.4737 29.2546C62.4843 29.6341 62.6527 30.0092 62.7491 30.3864C62.5256 30.4601 62.3021 30.5339 62.0069 30.6086Z" fill="white"/>
<path id="Vector_21" d="M96.2062 29.2165C96.0999 26.9574 96.0849 24.6986 96.1794 22.3483C96.7818 22.2567 97.277 22.2254 97.767 22.2627C99.2797 22.3778 100.847 21.9102 102.29 22.7489C102.333 23.0324 102.384 23.247 102.431 23.5529C102.439 24.4406 102.451 25.2369 102.453 26.1237C102.445 26.8278 102.447 27.4415 102.418 28.1142C102.402 28.4577 102.418 28.7422 102.429 29.1096C102.403 29.4677 102.382 29.7429 102.361 30.018C101.21 28.8643 99.7447 29.2705 98.3746 29.2214C97.683 29.1966 96.9898 29.2169 96.2062 29.2165Z" fill="white"/>
<path id="Vector_22" d="M65.8442 28.8185C65.7384 25.5663 65.7188 22.3137 65.708 18.9682C66.4324 18.8764 67.1479 18.8775 67.9593 18.9733C68.0462 22.3207 68.037 25.5735 68.0279 28.8262C67.3287 28.8236 66.6295 28.8209 65.8442 28.8185Z" fill="white"/>
<path id="Vector_23" d="M92.7035 29.3125C92.7018 26.7633 92.7052 24.3061 92.7101 21.6626C92.7111 19.73 92.6962 17.9835 92.7174 16.2374C92.7255 15.5728 92.4749 15.2892 91.7928 15.2797C89.1987 15.2437 86.6051 15.1727 84.0112 15.1147C84.3982 14.9837 84.7842 14.7434 85.1724 14.7395C87.4825 14.7163 89.7931 14.7576 92.1035 14.756C93.0063 14.7554 93.4156 15.1409 93.4071 16.0701C93.3646 20.7289 93.3559 25.388 93.3175 30.0468C93.3119 30.7366 93.2116 31.4256 93.148 32.2025C93.9209 32.2025 94.7066 32.2025 95.5824 32.2178C95.5174 32.3562 95.3666 32.5791 95.2067 32.5857C94.355 32.6211 93.5011 32.6024 92.7086 32.6024C92.7086 31.478 92.7086 30.4412 92.7035 29.3125Z" fill="white"/>
<path id="Vector_24" d="M80.3988 29.6743C80.3668 27.4281 80.3741 25.2367 80.3839 22.8591C80.3848 20.688 80.3863 18.703 80.3805 16.7181C80.377 15.4929 79.9106 15.087 78.694 15.1209C76.3218 15.187 73.9485 15.2159 71.5757 15.2603C71.9326 15.0936 72.2863 14.7912 72.6471 14.7824C74.9279 14.7268 77.2104 14.7211 79.4923 14.73C80.771 14.7349 80.993 14.9733 80.9965 16.2264C81.007 20.0675 81.0607 23.9096 80.9811 27.749C80.9588 28.8257 81.2337 29.5748 82.0805 30.1803C82.4552 30.4481 82.7791 30.7871 83.1567 31.1554C83.1721 31.438 83.1568 31.659 83.1334 31.9981C82.1772 31.1933 81.3076 30.4612 80.3988 29.6743Z" fill="white"/>
<path id="Vector_25" d="M46.9161 30.4113C46.8117 28.1521 46.7984 25.893 46.8948 23.5426C47.6649 23.4521 48.3254 23.453 48.991 23.5468C49.0695 25.896 49.1429 28.1524 49.2163 30.4087C48.48 30.4096 47.7436 30.4105 46.9161 30.4113Z" fill="white"/>
<path id="Vector_26" d="M68.0389 28.916C68.038 25.5751 68.0471 22.3223 68.0496 18.9772C67.9847 17.3142 67.9069 15.7438 67.8858 14.1726C67.8819 13.8861 68.1092 13.5965 68.3083 13.2998C68.4637 13.9458 68.6053 14.6 68.6073 15.2548C68.625 20.8648 68.6175 26.4749 68.6175 32.2067C69.2054 32.2067 70.0147 32.2067 70.9105 32.2217C70.8758 32.356 70.7581 32.5745 70.633 32.5787C69.7526 32.6087 68.8707 32.5947 67.8442 32.5947C67.9162 31.3324 67.9826 30.1683 68.0389 28.916Z" fill="white"/>
<path id="Vector_27" d="M49.2405 30.4706C49.1355 28.1515 49.0621 25.8952 48.9941 23.4653C49.0673 22.8705 49.0501 22.41 49.2222 22.037C49.485 21.4672 49.8785 20.9579 50.2165 20.4229C50.0119 21.5869 49.6769 22.746 49.6333 23.916C49.5668 25.6969 49.5896 27.4975 49.7808 29.2673C50.0112 31.3999 50.9499 32.1511 53.1735 32.1869C55.821 32.2296 58.4698 32.1986 61.2095 32.2116C61.042 32.349 60.784 32.581 60.524 32.5832C57.7798 32.6073 55.035 32.6141 52.2909 32.5836C51.0402 32.5697 49.6048 32.03 49.2405 30.4706Z" fill="white"/>
<path id="Vector_28" d="M62.812 30.403C62.6524 30.0097 62.484 29.6346 62.4734 29.2551C62.4434 28.1801 62.478 27.1033 62.4898 25.842C62.4925 24.2843 62.4925 22.9119 62.4925 21.4602C59.073 21.4602 55.8109 21.4602 52.5488 21.4602C52.8239 21.3282 53.0981 21.0837 53.3742 21.0814C56.5739 21.0545 59.7738 21.0642 63.0703 21.0642C63.0703 23.644 63.1118 26.1773 63.0413 28.7074C63.0236 29.344 63.1525 29.7412 63.6317 30.1231C64.2243 30.5954 64.763 31.1354 65.3474 31.6939C65.3208 31.925 65.2719 32.1083 65.193 32.4042C64.3818 31.7094 63.6285 31.0643 62.812 30.403Z" fill="white"/>
<path id="Vector_29" d="M104.41 30.6016C104.41 31.5536 104.41 32.5057 104.41 33.6038C103.757 33.6038 103.175 33.6038 102.499 33.6018C102.408 32.6652 102.412 31.7306 102.516 30.7031C103.214 30.6074 103.812 30.6045 104.41 30.6016Z" fill="white"/>
<path id="Vector_30" d="M104.422 30.606C103.811 30.604 103.212 30.6069 102.523 30.6104C102.42 30.4618 102.408 30.3126 102.377 30.0906C102.379 29.7427 102.4 29.4676 102.518 29.1065C103.193 29.0205 103.772 29.0205 104.387 29.0205C104.416 29.6466 104.438 30.1339 104.46 30.6213C104.46 30.6213 104.435 30.6109 104.422 30.606Z" fill="white"/>
<path id="Vector_31" d="M165.438 36.772C147.483 36.7729 129.528 36.7739 111.46 36.6835C111.363 35.5924 111.377 34.5925 111.484 33.5928C129.571 33.595 147.566 33.5971 165.573 33.6903C165.536 34.7783 165.487 35.7751 165.438 36.772Z" fill="white"/>
<path id="Vector_32" d="M108.373 13.3135C108.456 14.3651 108.606 15.4164 108.609 16.4683C108.629 22.9103 108.615 29.3524 108.529 35.8865C108.313 35.9767 108.181 35.9748 108.049 35.9728C108.036 35.8863 108.023 35.7998 108.001 35.6483C107.996 33.9217 108 32.2599 108.006 30.4124C108.002 28.8969 107.996 27.5673 107.998 26.1445C108.001 24.7211 107.995 23.3909 107.996 21.9676C107.999 20.6775 107.995 19.4805 107.996 18.1905C107.992 17.0996 107.981 16.1017 107.976 15.0231C107.923 14.5887 107.783 14.2227 107.834 13.8857C107.867 13.6725 108.184 13.5027 108.373 13.3135Z" fill="white"/>
<path id="Vector_33" d="M153.232 37.7764C153.469 37.8668 153.691 37.9274 153.799 38.0729C154.876 39.5193 156.371 39.605 158.008 39.5545C160.673 39.4722 163.344 39.5475 166.103 39.5712C165.665 39.7059 165.136 39.9236 164.605 39.9297C161.575 39.9641 158.544 39.9829 155.515 39.9151C155.007 39.9038 154.477 39.4918 154.017 39.1763C153.511 38.8282 153.074 38.378 152.467 37.8509C152.821 37.818 152.993 37.802 153.232 37.7764Z" fill="white"/>
<path id="Vector_34" d="M165.625 32.0301C165.77 31.9613 165.916 31.8925 166.24 31.7393C165.978 33.6694 166.642 35.5429 165.713 37.3661C165.574 37.2349 165.503 37.0748 165.433 36.8433C165.483 35.7751 165.531 34.7782 165.583 33.6035C165.599 32.9604 165.612 32.4953 165.625 32.0301Z" fill="white"/>
<path id="Vector_35" d="M108.034 36.0539C108.181 35.9745 108.314 35.9764 108.512 35.978C108.763 36.3677 108.871 36.8253 109.147 37.1331C109.692 37.7427 110.33 38.2696 110.961 38.8892C110.946 39.1253 110.9 39.3028 110.822 39.5997C109.924 38.7983 109.06 38.1026 108.302 37.3061C108.062 37.0544 108.105 36.5331 108.034 36.0539Z" fill="white"/>
<path id="Vector_36" d="M155.232 14.6926C155.192 14.1134 155.152 13.5342 155.102 12.8084C154.149 12.858 153.222 12.9061 152.175 13.0458C151.934 13.7928 151.814 14.4481 151.603 15.1015C150.81 15.1139 150.108 15.1283 149.379 15.0797C149.153 13.8652 148.434 13.213 147.33 12.9826C146.849 12.8823 146.346 12.8505 145.853 12.8491C142.149 12.8384 138.445 12.8369 134.741 12.8543C134.442 12.8557 134.145 13.0201 133.77 13.1178C132.933 13.767 133.169 14.6831 132.946 15.497C132.085 15.4943 131.315 15.4919 130.526 15.3986C130.519 13.4476 130.532 11.5875 130.544 9.72744C144.463 9.72803 158.382 9.7376 172.301 9.70802C173.183 9.70615 173.813 9.89479 174.271 10.712C174.344 10.9425 174.348 11.1587 174.303 11.5051C174.294 11.9308 174.333 12.2261 174.365 12.6132C174.352 13.6363 174.346 14.5676 174.271 15.4846C173.817 14.6748 173.2 14.4208 172.318 14.482C171.175 14.5613 170.023 14.4994 168.875 14.4983C168.848 13.979 168.82 13.4597 168.785 12.7923C167.808 12.8562 166.876 12.9172 165.814 13.0474C165.559 13.3023 165.348 13.4792 165.328 13.6758C165.293 14.0118 165.378 14.3602 165.32 14.7024C161.896 14.6985 158.564 14.6955 155.232 14.6926Z" fill="white"/>
<path id="Vector_37" d="M174.365 12.5225C174.326 12.2271 174.287 11.9318 174.294 11.5873C184.163 11.5381 193.986 11.5381 203.881 11.5381C203.881 19.2069 203.881 26.8077 203.881 34.5864C199.734 34.5864 195.583 34.5864 191.338 34.5952C189.784 34.5954 188.321 34.5866 186.766 34.5845C182.57 34.593 178.467 34.5949 174.274 34.6144C173.93 33.4396 173.139 33.1097 172.009 33.1826C171.024 33.2461 170.033 33.1947 168.956 33.194C168.856 32.4592 168.844 31.7243 168.938 30.8993C170.79 30.9313 172.58 30.4877 174.299 31.2958C174.319 32.0891 174.319 32.7956 174.319 33.579C178.05 33.579 181.767 33.579 185.574 33.5865C186.399 33.5875 187.133 33.581 187.957 33.5833C188.717 33.5847 189.386 33.5772 190.144 33.5788C190.769 33.5807 191.305 33.5737 191.929 33.5766C192.488 33.5791 192.959 33.5717 193.523 33.5748C196.638 33.5853 199.66 33.5853 202.695 33.5853C202.695 32.0034 202.695 30.543 202.695 29.052C198.691 29.052 194.77 29.052 190.756 29.0395C189.401 29.0347 188.138 29.0426 186.783 29.0387C182.576 29.0238 178.462 29.0206 174.306 28.9959C174.212 28.9352 174.176 28.8842 174.157 28.7539C174.221 28.4755 174.286 28.2646 174.443 28.0513C177.457 28.0409 180.376 28.0329 183.388 28.0331C184.678 28.034 185.874 28.0268 187.164 28.0281C188.519 28.0291 189.782 28.0216 191.138 28.0241C195.049 28.0341 198.868 28.0341 202.694 28.0341C202.694 26.4416 202.694 24.9777 202.694 23.4584C193.197 23.4584 183.782 23.4584 174.314 23.416C174.297 23.1319 174.333 22.8901 174.461 22.6507C183.931 22.6531 193.31 22.6531 202.69 22.6531C202.69 21.0532 202.69 19.5887 202.69 18.0738C193.182 18.0738 183.76 18.0738 174.302 18.0703C174.266 18.0668 174.193 18.0708 174.182 17.9945C174.237 17.638 174.303 17.3578 174.461 17.082C183.938 17.0863 193.323 17.0863 202.71 17.0863C202.71 15.4923 202.71 14.0512 202.71 12.5225C193.217 12.5225 183.791 12.5225 174.365 12.5225Z" fill="white"/>
<path id="Vector_38" d="M32.5435 28.432C32.5296 28.3496 32.5158 28.2672 32.5029 28.0366C32.4965 27.6034 32.4891 27.3184 32.4928 26.9533C32.4959 26.6577 32.488 26.4424 32.4905 26.1456C32.5161 25.7914 32.5312 25.5186 32.6368 25.2445C36.2939 25.2429 39.8605 25.2427 43.4318 25.3354C43.4341 27.62 43.4316 29.8116 43.4291 32.0031C39.8621 32.0035 36.295 32.0039 32.6236 31.9205C32.5068 31.494 32.4944 31.1514 32.4923 30.7239C32.4959 30.2978 32.4894 29.9565 32.4925 29.5411C32.4966 29.3178 32.491 29.1686 32.4854 29.0195C32.495 28.9848 32.5047 28.9502 32.5662 28.834C32.5932 28.6456 32.5684 28.5388 32.5435 28.432Z" fill="white"/>
<path id="Vector_39" d="M43.4332 32.0947C43.4296 29.8101 43.4321 27.6186 43.4365 25.2409C43.4334 22.5318 43.4285 20.0088 43.4236 17.4859C43.3637 16.2448 43.2843 15.0041 43.2632 13.7624C43.2597 13.5537 43.5089 13.3407 43.7181 13.1299C43.8893 14.2452 44.0604 15.36 44.065 16.4755C44.0909 22.7192 44.0942 28.9632 44.0526 35.2068C44.0477 35.9402 43.7207 36.6714 43.4583 37.4131C43.3955 35.6776 43.4174 33.9326 43.4332 32.0947Z" fill="white"/>
<path id="Vector_40" d="M32.5684 34.1661C32.5417 34.1845 32.5242 34.0898 32.5331 34.0424C32.6137 34.0317 32.6315 34.0826 32.5684 34.1661Z" fill="white"/>
<path id="Vector_41" d="M107.991 26.2384C107.997 27.568 108.003 28.8976 108 30.3202C106.866 30.4719 105.742 30.5306 104.54 30.606C104.439 30.1353 104.417 29.648 104.388 29.0219C103.773 29.0219 103.194 29.0219 102.523 29.0249C102.416 28.7434 102.4 28.459 102.506 28.1113C103.202 28.048 103.777 28.048 104.463 28.048C104.463 27.3417 104.463 26.7922 104.552 26.2402C105.758 26.238 106.874 26.2382 107.991 26.2384Z" fill="white"/>
<path id="Vector_42" d="M43.9523 7.96582C44.0278 8.74096 44.0278 9.52215 44.0278 10.4733C44.7631 10.4733 45.4007 10.4733 46.1259 10.4962C45.9625 10.6516 45.7199 10.8744 45.4589 10.8986C44.8479 10.9552 44.2281 10.9167 43.5028 10.9167C43.4783 10.4629 43.458 10.0855 43.4341 9.61972C43.5793 9.01158 43.728 8.49172 43.9523 7.96582Z" fill="white"/>
<path id="Vector_43" d="M127.503 6.16406C127.67 7.43817 127.838 8.71824 127.844 9.99905C127.871 15.8116 127.852 21.6243 127.768 27.5285C127.551 27.6207 127.417 27.6213 127.278 27.5312C127.263 26.7756 127.252 26.1107 127.254 25.3525C127.26 23.9283 127.253 22.5972 127.257 21.1733C127.262 20.0818 127.257 19.0832 127.259 17.9917C127.263 16.8998 127.259 15.9008 127.261 14.8085C127.262 13.0549 127.257 11.3945 127.252 9.73408C127.193 8.99288 127.135 8.25168 127.072 7.42645C127.188 6.95173 127.309 6.56105 127.503 6.16406Z" fill="white"/>
<path id="Vector_44" d="M127.158 9.73254C127.254 11.3949 127.259 13.0553 127.176 14.8056C126.188 14.842 125.288 14.7885 124.388 14.7351C123.92 13.4362 122.898 12.9218 121.62 12.8996C118.814 12.8509 116.005 12.8036 113.201 12.8811C112.478 12.9011 111.768 13.3858 111.03 13.6652C111.023 13.603 110.988 13.2942 110.926 12.74C110.075 12.8713 109.232 13.0015 108.38 13.2223C108.181 13.5022 107.864 13.672 107.832 13.8852C107.78 14.2221 107.92 14.5882 107.885 15.0207C106.675 15.2322 105.56 15.3648 104.437 15.4049C104.427 14.3809 104.425 13.4494 104.424 12.4359C104.424 12.0815 104.424 11.8092 104.425 11.5369C104.425 11.1302 104.425 10.7235 104.422 10.2299C105.144 10.005 105.868 9.7501 106.593 9.74691C113.418 9.71697 120.243 9.73 127.158 9.73254Z" fill="white"/>
<path id="Vector_45" d="M104.337 11.5361C104.427 11.8102 104.427 12.0825 104.336 12.436C103.643 12.5199 103.04 12.5225 102.437 12.5251C102.42 12.2376 102.404 11.9501 102.415 11.6016C103.044 11.5385 103.645 11.5365 104.337 11.5361Z" fill="white"/>
<path id="Vector_46" d="M43.3338 17.4863C43.4312 20.0099 43.4362 22.5328 43.4345 25.1489C39.8613 25.2423 36.2947 25.2426 32.6232 25.1552C32.5074 24.5294 32.4964 23.9912 32.4854 23.453C32.4915 23.2399 32.4977 23.0268 32.5043 22.6414C32.4998 21.0002 32.495 19.5312 32.4902 18.0623C32.5005 17.9187 32.5108 17.7752 32.5325 17.5607C36.1098 17.4884 39.6756 17.487 43.3338 17.4863Z" fill="white"/>
<path id="Vector_47" d="M50.2715 20.3923C49.8796 20.9589 49.4862 21.4683 49.2234 22.038C49.0513 22.4111 49.0684 22.8715 48.9903 23.3734C48.3192 23.4532 47.6586 23.4523 46.9078 23.4513C46.8039 21.1257 46.7904 18.8002 46.7967 16.3834C51.9717 16.2936 57.1268 16.2953 62.384 16.389C62.4221 17.3374 62.3581 18.1938 62.2942 19.0503C60.223 19.1037 58.152 19.1661 56.0806 19.2067C54.9932 19.228 53.9047 19.1929 52.8174 19.2164C51.8311 19.2376 50.9231 19.4717 50.2715 20.3923Z" fill="white"/>
<path id="Vector_48" d="M102.293 22.6803C100.841 21.9105 99.2732 22.3781 97.7605 22.263C97.2705 22.2258 96.7753 22.2571 96.1907 22.2569C96.0455 20.409 95.9921 18.5612 95.9458 16.6225C97.5133 16.4516 99.0748 16.3032 100.633 16.3304C101.148 16.3393 101.655 16.801 102.221 17.1553C102.329 17.5277 102.381 17.8005 102.428 18.167C102.429 19.7214 102.435 21.1819 102.405 22.6553C102.369 22.668 102.293 22.6803 102.293 22.6803Z" fill="white"/>
<path id="Vector_49" d="M62.3699 19.0473C62.3611 18.1928 62.4251 17.3364 62.4774 16.3912C62.425 15.4185 61.8733 15.1103 61.0848 15.1087C57.9186 15.1021 54.7523 15.0868 51.5865 15.1192C50.8444 15.1269 50.104 15.3088 49.1196 15.4439C49.383 14.6509 49.6069 13.9768 49.912 13.2949C49.9932 13.8089 49.9932 14.3307 49.9932 14.7468C52.3088 14.7468 54.6638 14.7468 57.0188 14.7468C58.5361 14.7468 60.0534 14.7392 61.5706 14.7493C62.7818 14.7573 63.0977 15.0481 63.0766 16.281C63.0602 17.2355 63.3576 18.2877 62.3699 19.0473Z" fill="white"/>
<path id="Vector_50" d="M102.413 17.091C103.047 17.0795 103.646 17.0813 104.335 17.1637C104.426 17.5241 104.426 17.804 104.335 18.0798C103.642 18.075 103.039 18.0743 102.436 18.0736C102.384 17.8008 102.332 17.528 102.292 17.1857C102.304 17.1163 102.378 17.1044 102.413 17.091Z" fill="white"/>
<path id="Vector_51" d="M32.5317 28.4941C32.5682 28.538 32.5932 28.6449 32.5806 28.7812C32.5354 28.7262 32.5277 28.6416 32.5317 28.4941Z" fill="white"/>
<path id="Vector_52" d="M71.5283 15.3205C73.9544 15.2152 76.3277 15.1862 78.6999 15.1201C79.9165 15.0862 80.3829 15.4922 80.3864 16.7173C80.3921 18.7022 80.3907 20.6872 80.3847 22.7656C77.4295 22.857 74.4819 22.8549 71.4485 22.853C71.4001 20.3627 71.4376 17.8721 71.5283 15.3205Z" fill="white"/>
<path id="Vector_53" d="M83.9529 15.1699C86.6078 15.1723 89.2015 15.2433 91.7956 15.2793C92.4777 15.2888 92.7283 15.5724 92.7202 16.237C92.699 17.9831 92.7139 19.7296 92.7093 21.5691C89.7467 21.6618 86.7892 21.6614 83.7444 21.6613C83.7353 19.5163 83.8135 17.3709 83.9529 15.1699Z" fill="white"/>
<path id="Vector_54" d="M52.488 21.5124C55.8105 21.46 59.0726 21.46 62.4921 21.46C62.4921 22.9117 62.4921 24.2841 62.4796 25.7495C59.1385 25.8409 55.8099 25.8392 52.3972 25.8382C52.3513 24.4142 52.3895 22.9896 52.488 21.5124Z" fill="white"/>
<path id="Vector_55" d="M102.46 26.034C102.448 25.2376 102.436 24.4413 102.519 23.5493C103.217 23.456 103.82 23.4583 104.426 23.5518C104.419 24.4378 104.411 25.2326 104.314 26.0305C103.637 26.0337 103.048 26.0338 102.46 26.034Z" fill="white"/>
<path id="Vector_56" d="M104.423 23.4609C103.82 23.4587 103.216 23.4564 102.522 23.4584C102.38 23.2481 102.329 23.0335 102.286 22.75C102.295 22.6811 102.371 22.6688 102.497 22.6607C103.223 22.6512 103.823 22.6498 104.424 22.7296C104.423 23.0275 104.423 23.2442 104.423 23.4609Z" fill="white"/>
<path id="Vector_57" d="M130.107 31.7433C130.249 31.7889 130.392 31.8345 130.576 31.8935C130.576 31.1982 130.576 30.5017 130.689 29.7127C131.495 29.6114 132.189 29.6024 132.924 29.6536C133.191 31.585 134.107 32.6562 136.336 32.6119C139.048 32.558 141.763 32.6116 144.476 32.5843C144.766 32.5814 145.054 32.3489 145.425 32.2075C146.446 31.899 145.703 31.1 146.065 30.6089C146.422 30.605 146.697 30.6006 147.03 30.6263C147.713 31.2153 148.338 31.7742 149.076 32.4335C149.108 32.0232 149.126 31.8013 149.204 31.6053C149.381 31.718 149.497 31.8051 149.702 31.9588C149.702 31.3587 149.702 30.8873 149.793 30.4141C150.636 30.4749 151.389 30.5373 152.192 30.6416C152.806 32.0421 153.873 32.5972 155.287 32.5974C158.25 32.5977 161.213 32.6148 164.175 32.5773C164.59 32.5721 165.001 32.2977 165.414 32.148C165.452 32.1014 165.49 32.0548 165.577 32.0191C165.612 32.4952 165.599 32.9604 165.571 33.5123C147.562 33.597 129.567 33.5949 111.48 33.5926C111.38 33.246 111.372 32.8994 111.47 32.4715C111.931 32.4577 112.284 32.5818 112.639 32.5839C115.413 32.6002 118.187 32.6088 120.961 32.5749C121.344 32.5702 121.725 32.3193 122.106 32.1824C122.106 32.1824 122.106 32.1988 122.141 32.1853C122.235 32.145 122.272 32.1003 122.289 32.0378C122.684 31.8975 123.078 31.7571 123.638 31.6043C125.56 31.5947 127.317 31.5975 129.133 31.6294C129.502 31.6334 129.703 32.7785 130.107 31.7433Z" fill="white"/>
<path id="Vector_58" d="M165.66 30.0476C165.287 30.1219 164.915 30.2578 164.542 30.2605C161.94 30.2794 159.337 30.2792 156.735 30.2672C155.464 30.2614 155.306 30.1314 155.223 28.8738C155.156 27.8559 155.179 26.8319 155.275 25.7235C158.781 25.6407 162.173 25.6452 165.576 25.7413C165.591 26.8468 165.591 27.8608 165.603 28.8746C165.608 29.2658 165.64 29.6566 165.66 30.0476Z" fill="white"/>
<path id="Vector_59" d="M165.566 25.6495C162.174 25.6451 158.782 25.6406 155.306 25.6351C155.204 24.3682 155.186 23.1026 155.281 21.7484C158.789 21.6627 162.183 21.6655 165.587 21.7604C165.586 23.1181 165.576 24.3838 165.566 25.6495Z" fill="white"/>
<path id="Vector_60" d="M165.575 21.6681C162.181 21.6653 158.787 21.6625 155.309 21.6599C155.205 20.4597 155.185 19.2592 155.279 17.9701C158.788 17.8843 162.185 17.8871 165.588 17.9821C165.589 19.2722 165.582 20.4702 165.575 21.6681Z" fill="white"/>
<path id="Vector_61" d="M165.583 17.8902C162.187 17.8874 158.79 17.8846 155.311 17.882C155.208 16.8784 155.188 15.8745 155.199 14.7817C158.561 14.6956 161.893 14.6986 165.32 14.7946C165.471 15.8884 165.527 16.8893 165.583 17.8902Z" fill="white"/>
<path id="Vector_62" d="M174.353 28.0527C174.289 28.2636 174.225 28.4745 174.084 28.7432C173.512 28.6748 173.022 28.4617 172.523 28.4394C171.308 28.3852 170.089 28.4194 168.871 28.418C168.858 27.22 168.846 26.0221 168.94 24.7327C170.8 24.7101 172.552 24.7789 174.319 24.9329C174.35 25.4198 174.367 25.8215 174.373 26.304C174.367 26.601 174.372 26.8172 174.368 27.1177C174.358 27.4855 174.356 27.7691 174.353 28.0527Z" fill="white"/>
<path id="Vector_63" d="M174.197 18.0703C174.197 18.0703 174.269 18.0663 174.306 18.1638C174.335 19.4617 174.328 20.6621 174.244 21.8601C173.382 21.7259 172.602 21.5323 171.812 21.4782C170.836 21.4115 169.852 21.4606 168.872 21.4597C168.858 20.3275 168.845 19.1953 168.939 17.9717C170.764 17.9436 172.48 18.007 174.197 18.0703Z" fill="white"/>
<path id="Vector_64" d="M174.186 17.9927C172.48 18.0057 170.764 17.9424 168.959 17.8791C168.858 16.8129 168.846 15.7466 168.853 14.5889C170.02 14.4987 171.172 14.5606 172.315 14.4813C173.197 14.4201 173.814 14.6741 174.275 15.5713C174.359 16.1408 174.366 16.6083 174.373 17.0759C174.307 17.3561 174.241 17.6363 174.186 17.9927Z" fill="white"/>
<path id="Vector_65" d="M168.852 21.551C169.852 21.4606 170.835 21.4114 171.811 21.4782C172.601 21.5323 173.382 21.7259 174.254 21.9381C174.352 22.2285 174.363 22.4382 174.373 22.6479C174.336 22.8896 174.3 23.1313 174.308 23.5018C174.336 24.0365 174.321 24.4423 174.305 24.8482C172.552 24.7794 170.8 24.7106 168.959 24.6418C168.859 23.642 168.846 22.6421 168.852 21.551Z" fill="white"/>
<path id="Vector_66" d="M165.325 32.1633C165.004 32.2981 164.592 32.5724 164.178 32.5776C161.215 32.6151 158.252 32.598 155.29 32.5977C153.875 32.5975 152.808 32.0424 152.187 30.5549C152.043 29.3647 151.959 28.3033 151.887 27.1483C151.896 25.5907 151.89 24.1265 151.894 22.569C151.899 21.3441 151.895 20.2124 151.896 18.9877C151.833 17.6312 151.763 16.3676 151.693 15.104C151.813 14.4487 151.932 13.7934 152.126 13.1299C152.306 14.6354 152.482 16.1482 152.502 17.6631C152.546 20.9428 152.505 24.2236 152.509 27.5039C152.514 31.2769 153.441 32.2049 157.189 32.201C159.87 32.1982 162.552 32.1862 165.325 32.1633Z" fill="white"/>
<path id="Vector_67" d="M168.852 28.5088C170.089 28.4201 171.308 28.3858 172.523 28.4401C173.022 28.4624 173.512 28.6754 174.084 28.8114C174.18 28.8839 174.215 28.9349 174.304 29.0786C174.345 29.4603 174.35 29.7374 174.348 30.0939C174.345 30.3857 174.349 30.5981 174.345 30.8776C174.319 31.0326 174.302 31.1206 174.284 31.2086C172.583 30.4874 170.794 30.931 168.96 30.8091C168.859 30.0726 168.846 29.3358 168.852 28.5088Z" fill="white"/>
<path id="Vector_68" d="M165.593 17.9827C165.529 16.8897 165.473 15.8888 165.415 14.7958C165.377 14.3606 165.292 14.0122 165.327 13.6762C165.347 13.4796 165.558 13.3027 165.76 13.1162C165.956 14.1163 166.166 15.116 166.177 16.118C166.222 20.1082 166.223 24.0992 166.192 28.0895C166.187 28.7194 165.931 29.3474 165.727 30.0121C165.643 29.657 165.611 29.2661 165.606 28.875C165.594 27.8612 165.594 26.8472 165.579 25.7416C165.578 24.3843 165.588 23.1186 165.589 21.7608C165.586 20.4708 165.593 19.2728 165.593 17.9827Z" fill="white"/>
<path id="Vector_69" d="M121.332 30.1406C119.517 30.1826 117.703 30.2372 115.887 30.2619C114.763 30.2772 113.638 30.2271 112.514 30.2437C111.709 30.2556 111.368 29.8658 111.364 29.0986C111.359 28.0061 111.348 26.9136 111.453 25.7299C114.041 25.6388 116.515 25.6055 118.987 25.6573C119.821 25.6748 120.651 25.9083 121.49 26.1352C121.442 27.5318 121.387 28.8362 121.332 30.1406Z" fill="white"/>
<path id="Vector_70" d="M121.481 26.0433C120.649 25.9085 119.819 25.6751 118.985 25.6576C116.513 25.6057 114.039 25.639 111.472 25.639C111.365 24.374 111.351 23.1089 111.451 21.7528C114.178 21.6617 116.79 21.634 119.402 21.6802C120.098 21.6925 120.79 21.9312 121.49 22.1583C121.491 23.5148 121.486 24.7791 121.481 26.0433Z" fill="white"/>
<path id="Vector_71" d="M121.484 22.0658C120.79 21.931 120.098 21.6923 119.402 21.68C116.79 21.6338 114.178 21.6615 111.472 21.6615C111.365 20.5952 111.351 19.5289 111.451 18.3717C114.178 18.2808 116.792 18.2532 119.404 18.2993C120.1 18.3116 120.793 18.5496 121.493 18.7763C121.494 19.9344 121.489 21.0001 121.484 22.0658Z" fill="white"/>
<path id="Vector_72" d="M121.488 18.6841C120.793 18.5497 120.101 18.3117 119.404 18.2994C116.792 18.2533 114.179 18.2809 111.473 18.2809C111.401 17.3251 111.423 16.3693 111.597 15.3543C114.53 15.2952 117.313 15.3332 120.093 15.2733C120.979 15.2542 121.396 15.5717 121.444 16.4036C121.488 17.162 121.475 17.9238 121.488 18.6841Z" fill="white"/>
<path id="Vector_73" d="M121.495 18.7758C121.477 17.9232 121.49 17.1615 121.447 16.403C121.399 15.5711 120.981 15.2536 120.095 15.2727C117.315 15.3326 114.532 15.2947 111.657 15.2934C111.856 15.1134 112.147 14.7841 112.444 14.779C115.189 14.7322 117.935 14.7125 120.68 14.7468C121.939 14.7626 122.111 14.9863 122.114 16.2265C122.121 20.2671 122.14 24.3082 122.084 28.3482C122.075 28.9393 121.682 29.5251 121.4 30.1268C121.388 28.8358 121.443 27.5314 121.491 26.1348C121.489 24.7784 121.494 23.5142 121.493 22.1576C121.491 20.9996 121.496 19.9339 121.495 18.7758Z" fill="white"/>
<path id="Vector_74" d="M127.239 25.4457C127.25 26.1107 127.261 26.7756 127.268 27.6229C127.273 28.5384 127.283 29.2715 127.199 30.007C126.238 30.0102 125.37 30.0111 124.503 30.0119C124.574 28.5473 124.644 27.0827 124.821 25.5267C125.698 25.4387 126.469 25.4422 127.239 25.4457Z" fill="white"/>
<path id="Vector_75" d="M127.254 25.3534C126.47 25.4431 125.699 25.4396 124.841 25.4357C124.742 24.0389 124.73 22.6424 124.822 21.1542C125.699 21.1306 126.473 21.1988 127.246 21.267C127.253 22.5981 127.26 23.9292 127.254 25.3534Z" fill="white"/>
<path id="Vector_76" d="M124.406 14.8186C125.287 14.7898 126.187 14.8433 127.169 14.9001C127.255 15.9024 127.259 16.9015 127.175 17.9899C126.308 18.0127 125.529 17.9463 124.751 17.8799C124.642 16.8868 124.533 15.8938 124.406 14.8186Z" fill="white"/>
<path id="Vector_77" d="M124.738 17.9703C125.534 17.9452 126.313 18.0116 127.172 18.0815C127.258 19.0837 127.263 20.0824 127.258 21.1739C126.474 21.1985 125.7 21.1303 124.841 21.0621C124.743 20.062 124.732 19.0619 124.738 17.9703Z" fill="white"/>
<path id="Vector_78" d="M124.469 30.0729C125.373 30.0124 126.24 30.0115 127.259 30.0384C127.965 30.5776 128.52 31.089 129.075 31.6004C127.318 31.5976 125.562 31.5948 123.705 31.5844C123.881 31.0953 124.157 30.614 124.469 30.0729Z" fill="white"/>
<path id="Vector_79" d="M122.013 32.1765C121.725 32.3194 121.344 32.5703 120.961 32.575C118.187 32.6089 115.413 32.6003 112.638 32.584C112.284 32.5819 111.931 32.4578 111.495 32.3881C111.387 32.0941 111.361 31.8021 111.355 31.7305C112.375 31.8882 113.384 32.1559 114.398 32.1789C116.904 32.2358 119.412 32.1806 122.013 32.1765Z" fill="white"/>
<path id="Vector_80" d="M122.234 32.0342C122.269 32.1 122.232 32.1447 122.13 32.1842C122.118 32.1415 122.151 32.0861 122.234 32.0342Z" fill="white"/>
<path id="Vector_81" d="M104.427 23.5514C104.425 23.2435 104.426 23.0268 104.429 22.6641C104.441 22.4323 104.451 22.3464 104.543 22.2591C105.748 22.1921 106.869 22.1263 107.991 22.0605C107.996 23.3907 108.002 24.7209 107.999 26.1443C106.875 26.2373 105.758 26.2371 104.552 26.2394C104.453 26.206 104.443 26.1703 104.419 26.0809C104.412 25.2323 104.421 24.4375 104.427 23.5514Z" fill="white"/>
<path id="Vector_82" d="M107.997 21.9683C106.868 22.1272 105.747 22.1929 104.53 22.1672C104.442 20.8786 104.449 19.6815 104.54 18.4826C105.745 18.4153 106.868 18.3497 107.991 18.2842C107.995 19.4812 107.999 20.6782 107.997 21.9683Z" fill="white"/>
<path id="Vector_83" d="M107.993 18.1911C106.864 18.3497 105.742 18.4152 104.525 18.4164C104.428 18.2628 104.425 18.1736 104.422 18.0844C104.423 17.8045 104.423 17.5247 104.422 17.1606C104.424 16.6089 104.427 16.1413 104.437 15.5861C105.56 15.3659 106.674 15.2333 107.879 15.1025C107.978 16.1023 107.988 17.1002 107.993 18.1911Z" fill="white"/>
<path id="Vector_84" d="M146.151 19.0463C144.01 19.0996 141.87 19.1609 139.728 19.2027C138.672 19.2233 137.614 19.1804 136.558 19.2164C135.605 19.249 134.73 19.5054 134.053 20.426C133.691 20.7305 133.457 20.9978 133.141 21.2531C132.221 21.1802 131.382 21.1192 130.543 21.0582C130.528 19.2628 130.513 17.4673 130.52 15.5804C131.312 15.4914 132.082 15.4937 133.028 15.4958C133.526 15.4325 133.847 15.3157 134.17 15.3144C137.843 15.2998 141.517 15.3017 145.191 15.302C145.848 15.3021 146.151 15.6514 146.149 16.2973C146.146 17.2137 146.15 18.13 146.151 19.0463Z" fill="white"/>
<path id="Vector_85" d="M149.637 19.0685C149.56 17.8205 149.483 16.5726 149.403 15.2337C150.101 15.1284 150.803 15.114 151.597 15.1016C151.758 16.3671 151.828 17.6307 151.804 18.9855C151.019 19.074 150.328 19.0713 149.637 19.0685Z" fill="white"/>
<path id="Vector_86" d="M132.88 29.5928C132.187 29.6018 131.494 29.6108 130.706 29.6234C130.579 28.1577 130.545 26.6883 130.621 25.129C131.427 25.0408 132.123 25.0425 132.825 25.1371C132.847 26.6842 132.864 28.1385 132.88 29.5928Z" fill="white"/>
<path id="Vector_87" d="M132.824 25.0447C132.128 25.0429 131.432 25.0411 130.652 25.0396C130.547 23.7737 130.525 22.5076 130.524 21.1501C131.384 21.1198 132.223 21.1808 133.138 21.3327C133.084 22.6306 132.954 23.8376 132.824 25.0447Z" fill="white"/>
<path id="Vector_88" d="M129.137 31.629C128.523 31.0885 127.968 30.5771 127.355 30.0355C127.287 29.2723 127.278 28.5391 127.277 27.7143C127.42 27.6221 127.555 27.6214 127.757 27.6211C127.608 29.0491 128.194 30.0704 129.385 30.8253C129.675 31.0094 129.872 31.3408 130.111 31.6737C129.708 32.7781 129.506 31.633 129.137 31.629Z" fill="white"/>
<path id="Vector_89" d="M146.065 30.6088C145.733 30.4928 145.483 30.2796 145.231 30.2771C142.828 30.2539 140.423 30.2715 138.019 30.2668C136.342 30.2635 136.215 30.1383 136.152 28.4962C136.138 28.1343 136.146 27.7714 136.262 27.3193C139.21 27.2295 142.039 27.2199 144.868 27.2382C145.352 27.2413 145.835 27.3634 146.327 27.522C146.457 28.6271 145.947 29.7762 146.973 30.5961C146.698 30.6005 146.423 30.6048 146.065 30.6088Z" fill="white"/>
<path id="Vector_90" d="M132.826 25.1372C132.95 23.8374 133.08 22.6303 133.215 21.3443C133.455 20.9981 133.689 20.7309 133.994 20.459C133.861 21.6498 133.531 22.8404 133.485 24.0418C133.419 25.7855 133.465 27.5461 133.633 29.2829C133.831 31.3269 134.813 32.1518 136.934 32.186C139.675 32.2301 142.417 32.2 145.25 32.2121C145.053 32.3484 144.766 32.5809 144.476 32.5838C141.762 32.6111 139.048 32.5575 136.335 32.6114C134.106 32.6558 133.19 31.5845 132.924 29.6531C132.865 28.1386 132.848 26.6843 132.826 25.1372Z" fill="white"/>
<path id="Vector_91" d="M147.029 30.6262C145.946 29.7762 146.455 28.6272 146.335 27.4301C146.331 26.4461 146.325 25.6455 146.327 24.7519C146.335 23.6189 146.335 22.5788 146.335 21.4611C142.916 21.4611 139.659 21.4611 136.403 21.4611C136.645 21.3309 136.886 21.0894 137.129 21.0875C140.366 21.0623 143.603 21.0707 146.919 21.0707C146.919 23.5752 146.979 26.0191 146.886 28.4572C146.855 29.2641 147.084 29.7539 147.674 30.2092C148.17 30.5923 148.616 31.041 149.113 31.52C149.125 31.8013 149.108 32.0231 149.075 32.4334C148.337 31.7741 147.712 31.2152 147.029 30.6262Z" fill="white"/>
<path id="Vector_92" d="M149.792 30.4145C149.66 29.4116 149.618 28.407 149.685 27.3141C150.485 27.2312 151.178 27.2365 151.871 27.2419C151.955 28.3033 152.04 29.3648 152.132 30.5132C151.388 30.5377 150.635 30.4753 149.792 30.4145Z" fill="white"/>
<path id="Vector_93" d="M151.886 27.1472C151.18 27.2354 150.488 27.23 149.711 27.2228C149.613 25.7578 149.6 24.2947 149.696 22.7418C150.498 22.6551 151.191 22.6582 151.884 22.6613C151.889 24.1254 151.895 25.5896 151.886 27.1472Z" fill="white"/>
<path id="Vector_94" d="M151.889 22.569C151.186 22.6592 150.493 22.6561 149.717 22.6528C149.617 21.5183 149.601 20.384 149.61 19.1593C150.327 19.0717 151.018 19.0744 151.797 19.0789C151.889 20.2123 151.893 21.344 151.889 22.569Z" fill="white"/>
<path id="Vector_95" d="M136.339 21.5177C139.657 21.4609 142.914 21.4609 146.332 21.4609C146.332 22.5786 146.332 23.6188 146.25 24.741C145.568 24.697 144.97 24.4707 144.369 24.4621C141.642 24.4232 138.914 24.4457 136.187 24.4461C136.217 23.4889 136.247 22.5317 136.339 21.5177Z" fill="white"/>
<path id="Vector_96" d="M136.165 24.5355C138.917 24.4453 141.644 24.4227 144.371 24.4616C144.973 24.4702 145.571 24.6966 146.245 24.8334C146.325 25.6449 146.331 26.4455 146.327 27.3381C145.834 27.3629 145.351 27.2407 144.867 27.2376C142.037 27.2193 139.208 27.2289 136.284 27.2295C136.173 26.3618 136.157 25.4936 136.165 24.5355Z" fill="white"/>
</g>
</svg>
