<svg width="191" height="71" viewBox="0 0 191 71" fill="none" xmlns="http://www.w3.org/2000/svg">
<g clipPath="url(#clip0_2456_3013)">
<path d="M37.5977 3.24597C46.9828 3.75075 55.311 8.23518 60.9222 15.0441C61.6606 14.6769 62.4087 14.3294 63.1656 14.0021C57.1133 6.38682 47.9525 1.3515 37.5977 0.833008V3.24597Z" fill="white"/>
<path d="M36.75 68.1946C36.4409 68.2033 36.1331 68.2183 35.8215 68.2183C18.0645 68.2183 3.64279 53.9798 3.32497 36.2988H0.916992C1.23482 55.3097 16.7346 70.6263 35.8215 70.6263C36.3686 70.6263 36.9108 70.6088 37.4517 70.5851C37.1967 69.7946 36.9628 68.9975 36.75 68.1946Z" fill="white"/>
<path d="M3.45669 32.7475C4.89998 16.7628 17.9083 4.11469 34.0525 3.24597V0.833008C16.5772 1.70796 2.49699 15.4304 1.04248 32.7475H3.45669Z" fill="white"/>
<path d="M16.8164 28.6895H18.4367V39.893H23.8048V41.2541H16.8164V28.6895Z" fill="white"/>
<path d="M28.5479 29.6961C28.5679 30.2557 28.1578 30.7044 27.5047 30.7044C26.9264 30.7044 26.5176 30.2557 26.5176 29.6961C26.5176 29.1203 26.9463 28.6729 27.5421 28.6729C28.1578 28.6729 28.5479 29.1203 28.5479 29.6961ZM26.7282 41.2537V32.23H28.3734V41.2537H26.7282Z" fill="white"/>
<path d="M32.2379 34.6736C32.2379 33.7414 32.2192 32.9786 32.1631 32.232H33.5964L33.6737 33.6853H33.7285C34.2333 32.829 35.0709 32.0276 36.5628 32.0276C37.7929 32.0276 38.7252 32.7729 39.1153 33.8348H39.1527C39.4319 33.3313 39.7871 32.9387 40.1598 32.6595C40.7007 32.2507 41.2977 32.0264 42.154 32.0264C43.348 32.0264 45.1166 32.8091 45.1166 35.9412V41.2532H43.515V36.1469C43.515 34.4119 42.8818 33.3687 41.5582 33.3687C40.6234 33.3687 39.8993 34.0592 39.6201 34.8594C39.5441 35.0837 39.4892 35.3828 39.4892 35.682V41.2532H37.8852V35.8477C37.8852 34.4119 37.252 33.3687 36.0031 33.3687C34.9774 33.3687 34.2333 34.1888 33.9716 35.0089C33.8799 35.266 33.8355 35.5375 33.8407 35.8103V41.2532H32.2379V34.6736Z" fill="white"/>
<path d="M49.8667 37.0405C49.9041 39.259 51.32 40.1726 52.9614 40.1726C54.1355 40.1726 54.8434 39.967 55.4579 39.7065L55.7383 40.8806C55.16 41.1423 54.1717 41.4414 52.7371 41.4414C49.9602 41.4414 48.3013 39.613 48.3013 36.8922C48.3013 34.1701 49.9028 32.0264 52.5314 32.0264C55.4778 32.0264 56.2593 34.6188 56.2593 36.2765C56.2593 36.613 56.2232 36.8747 56.2045 37.0405H49.8667ZM54.6752 35.8664C54.6951 34.822 54.2477 33.2004 52.4006 33.2004C50.7429 33.2004 50.015 34.7285 49.8842 35.8677L54.6752 35.8664Z" fill="white"/>
<path d="M93.5381 23.7355H95.8725V26.3304C96.5693 25.3084 97.3034 24.5431 98.0749 24.0383C98.8476 23.5323 99.6515 23.2793 100.49 23.2793C101.121 23.2793 101.797 23.48 102.514 23.8825L101.322 25.8082C100.843 25.6025 100.442 25.4978 100.115 25.4978C99.3524 25.4978 98.6195 25.8119 97.9103 26.4363C97.2049 27.062 96.6665 28.0329 96.2975 29.3491C96.0121 30.3612 95.8738 32.4064 95.8738 35.485V41.49H93.5381V23.7355Z" fill="white"/>
<path d="M148.781 16.4279C149.299 16.4279 149.743 16.6123 150.11 16.9825C150.479 17.3527 150.663 17.7976 150.663 18.3211C150.663 18.8309 150.479 19.2721 150.11 19.6422C149.939 19.8211 149.732 19.9627 149.503 20.0581C149.274 20.1535 149.027 20.2007 148.779 20.1969C148.268 20.1969 147.832 20.0124 147.463 19.6422C147.286 19.4713 147.145 19.266 147.05 19.0388C146.955 18.8116 146.907 18.5674 146.91 18.3211C146.91 17.7976 147.094 17.3527 147.463 16.9825C147.633 16.8046 147.837 16.6635 148.063 16.5681C148.29 16.4727 148.534 16.4249 148.779 16.4279H148.781ZM147.646 23.7378C147.646 23.7378 148.787 22.9102 149.93 23.7378V41.4923H147.645L147.646 23.7378Z" fill="white"/>
<path d="M190.276 25.6773L188.406 27.1966C186.851 26.0101 185.333 25.4168 183.848 25.4168C182.905 25.4168 182.096 25.6611 181.423 26.1522C180.75 26.6407 180.415 27.2116 180.415 27.8647C180.415 28.4417 180.691 28.9902 181.246 29.5136C181.801 30.0471 182.966 30.6715 184.741 31.3894C186.904 32.2706 188.375 33.1194 189.153 33.9345C189.914 34.7608 190.296 35.6919 190.296 36.7251C190.296 38.1833 189.644 39.4172 188.342 40.4293C187.038 41.4413 185.409 41.9474 183.456 41.9474C182.182 41.9529 180.917 41.7261 179.724 41.2781C178.54 40.8319 177.558 40.2174 176.783 39.4335L178.607 37.8032C180.093 39.1181 181.666 39.7775 183.331 39.7775C184.496 39.7775 185.489 39.4833 186.307 38.8963C187.125 38.308 187.534 37.6175 187.534 36.8236C187.534 36.1705 187.262 35.5884 186.724 35.0774C186.182 34.5776 184.961 33.9469 183.062 33.1829C181.024 32.3578 179.636 31.5415 178.902 30.7363C178.166 29.9324 177.798 29.0126 177.798 27.9793C177.798 26.6308 178.384 25.509 179.556 24.6179C180.727 23.7255 182.206 23.2793 183.995 23.2793C186.073 23.2793 188.167 24.0795 190.275 25.6773H190.276Z" fill="white"/>
<path d="M72.0283 33.81C72.0121 33.5919 71.9909 33.3775 71.9909 33.1532C71.9909 33.0011 72.0208 32.864 72.0283 32.7145V23.7568H69.7661V49.1677H72.0283V33.81Z" fill="white"/>
<path d="M83.8931 25.8717C82.4012 24.143 80.6052 23.2793 78.5088 23.2793C77.3036 23.2793 76.2155 23.5734 75.2384 24.1642C74.9847 24.3176 74.7419 24.4884 74.5117 24.6752V27.0408C75.5786 25.949 76.8512 25.3757 78.3505 25.3757C79.4074 25.3757 80.3834 25.6711 81.277 26.2656C82.1706 26.8601 82.8811 27.6952 83.4108 28.7695C83.9356 29.8299 84.2069 30.9977 84.2035 32.1808C84.2035 33.3699 83.9367 34.5066 83.4058 35.5909C82.8711 36.6752 82.1557 37.5215 81.2558 38.1248C80.3584 38.7293 79.3987 39.0334 78.3779 39.0334C77.3385 39.0334 76.3514 38.733 75.4166 38.1335C75.092 37.9199 74.789 37.6753 74.5117 37.4031V39.6541C75.6657 40.5605 77.0938 41.0475 78.5612 41.035C80.6513 41.035 82.4349 40.1688 83.9131 38.4351C85.3925 36.7027 86.1316 34.5938 86.1316 32.1098C86.1316 29.6794 85.385 27.598 83.8931 25.8717Z" fill="white"/>
<path d="M119.655 33.9316C119.518 34.5299 119.307 35.1095 119.019 35.6641C118.466 36.7185 117.718 37.5336 116.778 38.107C115.847 38.6793 114.775 38.9782 113.682 38.9695C112.558 38.9695 111.527 38.6828 110.587 38.1082C109.646 37.5349 108.9 36.7185 108.348 35.6641C108.057 35.1095 107.849 34.5299 107.712 33.9316H105.609C105.899 35.5831 106.615 37.0687 107.762 38.3862C109.296 40.151 111.27 41.0334 113.69 41.0334C116.098 41.0334 118.069 40.151 119.602 38.3862C120.749 37.0687 121.467 35.5818 121.756 33.9316H119.655Z" fill="white"/>
<path d="M107.573 31.5626C107.705 29.9685 108.273 28.5751 109.333 27.4073C110.544 26.0737 111.992 25.4056 113.679 25.4056C115.356 25.4056 116.801 26.0724 118.019 27.4073C119.082 28.5751 119.653 29.9685 119.786 31.5626H121.875C121.753 29.485 121.04 27.6628 119.724 26.1036C118.126 24.2216 116.114 23.2793 113.686 23.2793C111.248 23.2793 109.232 24.2265 107.635 26.1185C106.319 27.6777 105.606 29.4937 105.484 31.5626H107.573Z" fill="white"/>
<path d="M171.366 36.7351C169.748 38.2432 168.721 38.8539 167.37 39.3699C166.526 39.6871 165.631 39.8468 164.73 39.841C162.858 39.841 161.284 39.1829 160.01 37.863C158.735 36.5456 158.076 34.8543 158.033 32.7928C158.033 32.7928 158.038 31.9939 158.26 30.8186C158.484 29.6432 159.422 27.9631 160.335 27.148C161.589 26.0263 163.085 25.4654 164.828 25.4654C165.885 25.4654 166.892 25.6898 167.852 26.136C168.809 26.5822 169.58 27.1692 170.164 27.8971C170.746 28.6262 171.19 29.5996 171.495 30.8186H161.265V32.7928H174.008C173.987 30.3686 173.335 28.3433 172.047 26.723C170.241 24.4272 167.823 23.2793 164.796 23.2793C161.857 23.2793 159.511 24.401 157.757 26.6407C156.374 28.4031 155.683 30.411 155.683 32.6607C155.683 35.0562 156.499 37.2012 158.132 39.0994C159.766 40.9976 162.03 41.9474 164.927 41.9474C166.233 41.9474 167.405 41.748 168.439 41.3516C169.474 40.9553 171.328 40.18 173.046 38.2295L171.366 36.7351Z" fill="white"/>
<path d="M137.262 33.9932L135.904 35.92L140.151 41.4913H142.935L137.262 33.9932Z" fill="white"/>
<path d="M133.702 29.1487L129.394 23.2783H126.653L132.349 31.0756L133.702 29.1487Z" fill="white"/>
<path d="M136.894 31.6661L142.939 23.2793H140.192L135.518 29.7729L134.146 31.6823L127.291 41.3666H130.018L135.519 33.5768L136.894 31.6661Z" fill="white"/>
</g>
<defs>
<clipPath id="clip0_2456_3013">
<rect width="189.448" height="69.7965" fill="white" transform="translate(0.814453 0.833008)"/>
</clipPath>
</defs>
</svg>
