<svg width="90" height="33" viewBox="0 0 90 33" fill="none" xmlns="http://www.w3.org/2000/svg">
<path fillRule="evenodd" clipRule="evenodd" d="M0.872984 0.0980975V5.74096C2.57636 5.81215 3.46341 6.38028 3.46341 7.4444V25.1537H3.42781C3.39222 26.1827 2.50517 26.7157 0.836914 26.786V32.4288H13.3647V26.7509C11.6258 26.6797 10.7743 26.112 10.7743 25.0469V16.4229L17.4108 32.4288H27.8802V7.4444C27.8802 6.37981 28.7317 5.81215 30.4706 5.74096V0.0625H17.9428V5.70583C19.6818 5.77655 20.5332 6.34468 20.5332 7.37415V15.0755L14.1811 0.0625H0.872984V0.0980975ZM83.2782 32.4293V26.7162C81.5392 26.645 80.6522 26.0774 80.6522 25.0474V8.08325C80.7224 6.87674 81.0774 6.27349 81.7162 6.27349C82.6393 6.4154 83.1002 7.08985 83.1002 8.29635V13.2296H89.6308V0.0625H63.0137V13.2296H69.5795V8.29588C69.5795 7.08937 70.0413 6.41493 70.9283 6.27301C71.6023 6.27301 71.9924 6.76995 72.0275 7.79895V25.083C72.0275 26.1471 71.1766 26.7153 69.4376 26.786V32.4288H83.2782V32.4293ZM61.346 32.4293V26.7162C59.607 26.645 58.755 26.0774 58.755 25.0474V7.4444C58.7199 6.37981 59.5709 5.84727 61.346 5.77655V0.0625H47.5054V5.74096C48.0023 5.77655 48.3924 5.84775 48.7474 5.95406C49.6345 6.23789 50.0602 6.73483 50.0963 7.4444L50.1314 7.4088V25.0835C50.1314 26.1476 49.2443 26.7157 47.5054 26.7865V32.4293H61.346ZM45.8732 32.4293V26.7162C44.1698 26.645 43.2823 26.0774 43.2823 25.0474V7.4444C43.2467 6.37981 44.0986 5.84727 45.8732 5.77655V0.0625H32.0677V5.74096C32.5646 5.77655 32.9903 5.84775 33.3454 5.95406C34.1968 6.23789 34.6225 6.73483 34.6586 7.4444L34.6942 7.4088V25.0835C34.6942 26.1476 33.8427 26.7157 32.0682 26.7865V32.4293H45.8732Z" fill="white"/>
</svg>
