<svg width="81" height="31" viewBox="0 0 81 31" fill="none" xmlns="http://www.w3.org/2000/svg">
<path d="M24.6148 17.6045V15.0262H28.401C28.8965 15.0262 29.3456 14.9255 29.7482 14.7242C30.1508 14.5229 30.4683 14.2365 30.7006 13.8648C30.9328 13.4777 31.049 13.0131 31.049 12.4711C31.049 11.9446 30.9328 11.4878 30.7006 11.1007C30.4683 10.7135 30.1508 10.4193 29.7482 10.218C29.3456 10.0167 28.8965 9.91606 28.401 9.91606H24.6148V7.33776H28.7262C29.7637 7.33776 30.6928 7.54681 31.5135 7.96491C32.3497 8.38301 33.0079 8.9792 33.4879 9.75346C33.9679 10.5122 34.208 11.4181 34.208 12.4711C34.208 13.5241 33.9679 14.4378 33.4879 15.212C33.0079 15.9708 32.3497 16.5592 31.5135 16.9773C30.6928 17.3955 29.7637 17.6045 28.7262 17.6045H24.6148ZM22.292 23.667V7.33776H25.451V23.667H22.292ZM40.2841 23.667V7.68618H43.4663V23.667H40.2841ZM35.081 10.1483V7.33776H48.6694V10.1483H35.081ZM53.1734 16.838V14.3758H56.9595C57.7338 14.3758 58.33 14.1823 58.7481 13.7951C59.1817 13.3925 59.3985 12.8428 59.3985 12.1459C59.3985 11.511 59.1817 10.9845 58.7481 10.5664C58.33 10.1329 57.7338 9.91606 56.9595 9.91606H53.1734V7.33776H57.2383C58.2913 7.33776 59.2127 7.54681 60.0024 7.96491C60.8076 8.36753 61.4271 8.925 61.8606 9.63732C62.3097 10.3496 62.5342 11.1704 62.5342 12.0995C62.5342 13.0596 62.3097 13.8958 61.8606 14.6081C61.4271 15.3049 60.8076 15.8547 60.0024 16.2573C59.1972 16.6444 58.2603 16.838 57.1918 16.838H53.1734ZM50.8506 23.667V7.33776H54.0096V23.667H50.8506ZM59.7701 23.667L54.3812 16.6057L57.2847 15.6998L63.6027 23.667H59.7701ZM63.6612 23.667L70.2347 7.33776H72.813L79.3632 23.667H75.9952L70.9315 10.2645H72.0929L66.9595 23.667H63.6612ZM67.1454 20.6241V17.9761H75.9255V20.6241H67.1454Z" fill="white"/>
<path d="M14.6483 23.0888C2.76839 23.3292 3.08722 11.5381 3.77257 8.82031C2.64503 10.8876 1.62857 12.0095 1.05479 13.5765C-2.39184 22.989 5.88316 25.8092 10.5714 25.1271C13.5676 24.6912 16.4383 23.0526 14.6483 23.0888Z" fill="white"/>
<path d="M17.1748 20.9281C18.9963 9.1862 7.26786 7.93083 4.48297 8.24787C6.68209 7.40589 7.92947 6.54801 9.55889 6.18817C19.3467 4.02666 21.0391 12.6037 19.7383 17.1592C18.9069 20.0706 16.9003 22.6973 17.1748 20.9281Z" fill="white"/>
</svg>
