<svg width="264" height="51" viewBox="0 0 264 51" fill="none" xmlns="http://www.w3.org/2000/svg">
<g clipPath="url(#clip0_2508_3493)">
<path d="M25.3823 0.328125C25.5498 0.354289 25.681 0.402367 25.8125 0.403396C28.7591 0.426451 31.577 1.07151 34.3004 2.15481C35.8902 2.78717 37.4155 3.55803 38.793 4.57188C39.8197 5.3275 40.8013 6.14865 41.7619 6.9871C43.1101 8.1637 44.2211 9.55344 45.2046 11.0393C45.6626 11.7311 46.0818 12.4521 46.4637 13.1881C46.622 13.4931 46.6582 13.8687 46.7106 14.2181C46.764 14.5748 46.7892 14.9385 46.7921 15.2994C46.8079 17.236 46.3853 19.0831 45.6204 20.8578C45.5054 21.1248 45.392 21.3924 45.2433 21.7407C45.1166 21.1695 45.0036 20.689 44.9041 20.2057C44.595 18.7036 44.1087 17.2589 43.5098 15.848C42.9271 14.4755 42.1447 13.2207 41.2717 12.0176C41.1434 11.8409 41.016 11.6596 40.8612 11.5078C40.7987 11.4466 40.6354 11.4076 40.5655 11.4454C39.2488 12.1583 37.9392 12.8842 36.6425 13.5995C37.0534 15.063 37.5248 16.5902 37.9027 18.14C38.1715 19.2422 38.3181 20.3742 38.5103 21.4945C38.5559 21.7602 38.5724 22.0316 38.5903 22.3012C38.6082 22.5696 38.7536 22.6256 39.0029 22.6244C40.8694 22.6153 42.7359 22.6195 44.6897 22.6195C44.4254 22.9734 44.2147 23.3002 43.9596 23.5881C43.3822 24.2395 42.7895 24.8779 42.1892 25.5086C41.9576 25.752 41.7071 25.9873 41.4297 26.1742C41.2517 26.2943 41.0112 26.3687 40.795 26.3777C40.1651 26.404 39.533 26.3756 38.9029 26.3982C38.7966 26.402 38.6187 26.5415 38.6049 26.637C38.528 27.1704 38.4914 27.7095 38.4388 28.2705C37.0858 28.8878 35.747 29.4987 34.3668 30.1284C34.5649 28.8621 34.7529 27.6597 34.9472 26.4172C32.2143 26.4172 29.5542 26.4172 26.8383 26.4172C26.8383 26.5396 26.8383 26.6772 26.8383 26.8149C26.8383 28.306 26.8383 29.7972 26.8383 31.2883C26.8383 31.8542 26.8422 31.8833 26.2823 31.9582C25.3354 32.0849 24.383 32.1715 23.4327 32.2726C23.3452 32.2819 23.2558 32.2738 23.1428 32.2738C23.1428 30.3084 23.1428 28.3769 23.1428 26.4162C20.4582 26.4162 17.798 26.4162 15.092 26.4162C15.1159 26.7745 15.1067 27.1464 15.1709 27.5053C15.3619 28.5726 15.5047 29.6571 15.8075 30.694C16.3096 32.4136 16.8683 34.1216 17.5053 35.796C17.9942 37.0813 18.5696 38.3459 19.2336 39.5504C20.1573 41.226 21.1931 42.841 22.2028 44.4685C22.2931 44.614 22.5371 44.6786 22.7222 44.7474C22.8386 44.7907 22.9783 44.7717 23.1339 44.7825C23.1339 42.6471 23.1339 40.4919 23.1339 38.284C23.7131 38.4891 24.2582 38.6637 24.7886 38.8749C25.3948 39.1162 25.9844 39.3987 26.5889 39.6447C26.7899 39.7265 26.8453 39.8356 26.8438 40.0462C26.8334 41.485 26.8383 42.9238 26.8383 44.3626C26.8383 44.5055 26.8383 44.6483 26.8383 44.7422C27.6708 44.9506 27.9618 44.3585 28.2968 43.8175C28.7267 43.1229 29.1679 42.4351 29.6078 41.7466C29.6553 41.6723 29.7261 41.6126 29.7909 41.5408C30.6491 42.3671 31.5062 43.1717 32.0083 44.2761C32.4404 45.2264 32.4758 46.2225 32.4211 47.2297C32.414 47.3612 32.207 47.5599 32.0613 47.5937C30.8772 47.8688 29.6882 48.1247 28.4958 48.3619C26.8177 48.6956 25.113 48.6491 23.4214 48.5818C21.7504 48.5154 20.0964 48.2297 18.481 47.7768C16.7378 47.2881 15.0555 46.6451 13.4595 45.783C12.1581 45.0801 10.9067 44.3031 9.77555 43.35C9.03192 42.7234 8.27171 42.106 7.59973 41.4076C6.16974 39.9212 4.92116 38.292 3.90262 36.4913C2.75082 34.455 1.91335 32.2969 1.38671 30.0275C1.14142 28.9704 1.03563 27.8813 0.83693 26.7931C0.807248 25.3388 0.807248 23.8982 0.83716 22.4068C0.925786 21.8976 0.956749 21.4335 1.04859 20.9818C1.29212 19.7838 1.51776 18.5796 1.83164 17.3992C2.30595 15.6154 3.08286 13.9504 3.99377 12.3451C4.92394 10.7059 6.04447 9.20525 7.3468 7.84642C8.01141 7.15298 8.74306 6.521 9.46588 5.88542C10.7343 4.77012 12.1518 3.86307 13.6468 3.08678C15.0784 2.34342 16.5772 1.75565 18.1369 1.31705C20.1207 0.759202 22.1297 0.403934 24.1961 0.403234C24.3143 0.403194 24.4325 0.354288 24.5507 0.328125C24.8159 0.328125 25.081 0.328125 25.3823 0.328125ZM5.1847 19.6375C5.00558 20.6168 4.82646 21.5961 4.64261 22.6013C6.90539 22.6013 9.12202 22.6013 11.2981 22.6013C11.5638 21.0626 11.7621 19.5258 12.1076 18.0224C12.4542 16.5145 12.9475 15.04 13.3595 13.61C12.0568 12.8943 10.7351 12.1642 9.40527 11.4491C9.33696 11.4124 9.15478 11.4712 9.09892 11.5425C7.87671 13.1015 6.84902 14.7784 6.15578 16.6358C5.79604 17.5996 5.52815 18.5973 5.1847 19.6375ZM11.4563 27.2926C11.4222 27.0011 11.388 26.7096 11.3522 26.4035C9.12618 26.4035 6.91106 26.4035 4.69619 26.4035C5.09869 30.5897 6.59581 34.3225 9.20338 37.5826C10.6072 36.8407 12.0057 36.1016 13.365 35.3832C12.9746 34.0771 12.526 32.7888 12.2125 31.4686C11.8915 30.117 11.7029 28.7343 11.4563 27.2926ZM23.1308 18.1063C23.1308 17.6616 23.1171 17.2163 23.136 16.7724C23.1472 16.5103 23.0152 16.4485 22.7949 16.4159C22.147 16.32 21.4903 16.2533 20.857 16.096C19.5199 15.7638 18.1955 15.3812 16.8077 15.0035C15.8882 17.3929 15.273 19.938 15.078 22.5962C17.7855 22.5962 20.4459 22.5962 23.1308 22.5962C23.1308 21.1102 23.1308 19.6475 23.1308 18.1063ZM31.2934 15.5554C29.8168 15.9002 28.3402 16.245 26.8669 16.5891C26.8669 18.5707 26.8669 20.5882 26.8669 22.5919C29.5541 22.5919 32.2126 22.5919 34.9069 22.5919C34.7202 19.9192 34.0444 17.3957 33.1038 14.9309C32.5113 15.1409 31.9345 15.3454 31.2934 15.5554ZM29.6004 12.2181C30.3585 12.0259 31.1165 11.8337 31.88 11.6402C31.8131 11.4576 31.7794 11.333 31.7238 11.2189C30.6813 9.07849 29.5393 6.99664 28.1644 5.0435C27.827 4.56426 27.5261 4.13617 26.8585 4.22497C26.8585 7.01381 26.8585 9.82001 26.8585 12.6967C27.7733 12.5454 28.6576 12.3991 29.6004 12.2181ZM19.7437 8.3846C19.6775 8.52307 19.615 8.66348 19.5443 8.79969C19.114 9.62934 18.6733 10.4539 18.257 11.2904C18.1686 11.468 18.0828 11.6537 18.4666 11.7294C19.519 11.9369 20.5516 12.2422 21.6002 12.4714C22.0933 12.5791 22.6053 12.6011 23.1017 12.6611C23.1017 9.79208 23.1017 6.99057 23.1017 4.09219C22.7802 4.25094 22.4192 4.31098 22.2762 4.51922C21.4153 5.77247 20.6044 7.0597 19.7437 8.3846ZM37.5688 9.00001C37.706 8.91988 37.8432 8.83974 38.0234 8.73446C36.4816 7.45382 34.8601 6.43813 33.0532 5.7243C33.8275 7.22481 34.5902 8.70283 35.3634 10.2011C36.0596 9.82766 36.7932 9.43413 37.5688 9.00001ZM15.3221 6.48903C14.1337 7.11447 13.0178 7.84533 11.9312 8.77095C12.871 9.27286 13.7572 9.74614 14.6112 10.2022C15.3892 8.70565 16.1554 7.23171 16.9377 5.72676C16.4051 5.97451 15.8884 6.21489 15.3221 6.48903ZM16.7823 42.6372C16.1064 41.3706 15.4305 40.104 14.7453 38.8198C13.8947 39.2671 12.9959 39.7398 12.0615 40.2312C13.602 41.5425 15.272 42.5155 17.1431 43.2908C17.0129 43.0502 16.9141 42.8679 16.7823 42.6372Z" fill="white"/>
<path d="M33.7339 50.6413C33.9731 49.8911 34.2951 49.1549 34.505 48.3882C35.1724 45.9497 34.6723 43.735 33.0977 41.7615C32.0377 40.433 30.7071 39.4232 29.2487 38.5644C27.1457 37.3262 24.8742 36.484 22.5561 35.7628C21.4369 35.4147 20.288 35.1612 19.1533 34.8622C19.072 34.8408 18.9966 34.7973 18.9241 34.7077C19.0446 34.7077 19.1652 34.7101 19.2856 34.7073C20.384 34.6817 21.4849 34.6931 22.5801 34.6195C23.9338 34.5285 25.2895 34.4145 26.6324 34.2257C29.5117 33.821 32.3448 33.1961 35.0783 32.1907C36.9638 31.4972 38.7736 30.6482 40.4873 29.584C42.1626 28.5437 43.6679 27.3111 44.9834 25.8615C46.7544 23.9099 48.0361 21.6719 48.5982 19.0821C48.8093 18.1097 48.9142 17.1091 48.9972 16.1156C49.1721 14.0201 48.7839 11.9896 48.1822 9.99144C48.1383 9.84577 48.101 9.69818 48.0584 9.55212C48.0178 9.41315 47.9743 9.27501 48.0109 9.0957C48.3762 9.69782 48.7575 10.291 49.1036 10.9038C50.058 12.5936 50.8538 14.3591 51.371 16.227C51.7539 17.6099 52.0489 19.0207 52.304 20.4332C52.4636 21.3168 52.4893 22.2257 52.5511 23.1248C52.5983 23.8109 52.6743 24.5047 52.62 25.1859C52.511 26.5537 52.331 27.9164 52.1631 29.279C51.9786 30.7763 51.5591 32.2198 51.0511 33.6334C50.1153 36.2379 48.8482 38.669 47.1795 40.8941C46.2213 42.1719 45.2097 43.4032 44.0246 44.4688C42.9445 45.4399 41.8265 46.3875 40.6287 47.2056C39.3883 48.0528 38.0534 48.7725 36.7184 49.4693C35.8637 49.9154 34.9338 50.2188 34.0277 50.6137C33.9337 50.6413 33.8496 50.6413 33.7339 50.6413Z" fill="white"/>
<path d="M264.04 32.0806C263.936 32.4631 263.814 32.8045 263.731 33.1552C263.419 34.4818 263.119 35.8111 262.818 37.1401C262.513 38.4818 262.217 39.8255 261.901 41.1644C261.875 41.277 261.726 41.4425 261.63 41.4448C260.739 41.4663 259.846 41.4575 258.889 41.4575C258.981 41.0312 259.061 40.6392 259.151 40.2494C259.623 38.2015 260.097 36.1543 260.568 34.1063C260.703 33.5228 260.857 32.9417 260.949 32.3513C261.004 32.0038 261.047 31.5985 260.691 31.3569C260.223 31.0394 259.757 31.2254 259.315 31.4469C258.576 31.8171 258.264 32.452 258.115 33.2415C257.884 34.4673 257.576 35.6788 257.301 36.8963C256.96 38.4004 256.619 39.9044 256.272 41.4352C255.317 41.4352 254.336 41.4352 253.317 41.4352C253.534 40.4804 253.746 39.5306 253.967 38.5828C254.402 36.7099 254.847 34.839 255.277 32.9648C255.337 32.7034 255.325 32.4265 255.366 32.1599C255.482 31.4027 254.906 30.9698 254.16 31.289C253.667 31.5 253.197 31.8662 252.849 32.2747C252.62 32.5445 252.616 33.0106 252.528 33.3925C251.974 35.7874 251.423 38.183 250.874 40.579C250.809 40.8633 250.761 41.1516 250.704 41.4448C249.733 41.4448 248.789 41.4448 247.746 41.4448C248.723 37.2005 249.694 32.9818 250.667 28.7538C251.645 28.7538 252.615 28.7538 253.616 28.7538C253.57 28.9537 253.527 29.1426 253.487 29.316C254.097 29.0694 254.687 28.7513 255.318 28.5953C256.141 28.392 256.993 28.3882 257.733 28.9096C257.933 29.0501 258.075 29.2856 258.211 29.4979C258.345 29.7078 258.467 29.7538 258.665 29.5821C259.247 29.0795 259.899 28.7071 260.669 28.5803C261.523 28.4396 262.361 28.4067 263.145 28.8895C263.579 29.1567 263.727 29.583 263.884 30.0163C263.909 30.0857 263.95 30.1494 264.012 30.2247C264.04 30.837 264.04 31.4404 264.04 32.0806Z" fill="white"/>
<path d="M136.962 41.4569C135.11 41.4569 133.298 41.4569 131.424 41.4569C131.54 40.9222 131.644 40.4189 131.759 39.9182C132.177 38.1059 132.596 36.2939 133.019 34.4828C133.433 32.7091 133.855 30.9373 134.267 29.1631C134.486 28.2198 134.719 27.278 134.887 26.3254C134.952 25.9556 134.91 25.5447 134.82 25.1756C134.685 24.6164 134.111 24.3294 133.549 24.4776C133.217 24.5653 132.885 24.6583 132.56 24.7697C131.934 24.9844 131.638 25.4408 131.514 26.0837C131.281 27.2844 130.999 28.4757 130.726 29.6684C130.312 31.4813 129.892 33.2928 129.468 35.1037C129.053 36.8771 128.631 38.649 128.212 40.4213C128.133 40.7538 128.151 41.2183 127.939 41.3806C127.711 41.5546 127.264 41.4542 126.912 41.4551C125.23 41.4591 123.547 41.4569 121.865 41.4569C121.724 41.4569 121.583 41.4569 121.43 41.4569C121.933 39.2595 122.423 37.099 122.923 34.9409C123.335 33.1667 123.763 31.3964 124.176 29.6225C124.419 28.5802 124.674 27.5394 124.867 26.4876C124.942 26.0758 124.945 25.6125 124.833 25.2137C124.645 24.5458 124.021 24.2574 123.081 24.5474C122.778 24.6408 122.497 24.8053 122.208 24.9398C121.785 25.136 121.674 25.5186 121.58 25.9307C121.09 28.0661 120.585 30.1982 120.089 32.3323C119.64 34.268 119.192 36.2042 118.749 38.1414C118.501 39.2226 118.264 40.3063 118.021 41.3884C118.016 41.4084 117.991 41.4237 117.973 41.4436C115.795 41.4436 113.616 41.4436 111.403 41.4436C111.596 40.5843 111.783 39.7437 111.974 38.9042C112.442 36.8549 112.906 34.8047 113.382 32.7575C113.735 31.2444 114.114 29.7375 114.465 28.2241C114.952 26.1266 115.424 24.0257 115.901 21.926C116.087 21.106 116.259 20.2825 116.468 19.4682C116.493 19.3693 116.704 19.2561 116.83 19.2538C117.816 19.2361 118.802 19.244 119.788 19.244C120.876 19.244 121.964 19.244 123.106 19.244C123.037 19.6045 122.975 19.9218 122.895 20.3377C123.306 20.1065 123.635 19.9222 123.963 19.738C124.881 19.2228 125.857 18.8731 126.916 18.8607C127.712 18.8514 128.519 18.853 129.301 18.9791C130.458 19.1659 131.355 19.8164 131.98 20.8381C133.143 19.895 134.433 19.2488 135.877 18.9681C137.325 18.6863 138.788 18.6622 140.145 19.343C141.271 19.9078 141.78 20.9173 141.936 22.1374C142.157 23.861 141.719 25.4942 141.321 27.1423C140.815 29.2352 140.364 31.341 139.88 33.4391C139.471 35.2139 139.044 36.9846 138.633 38.7591C138.427 39.6503 138.239 40.5458 138.04 41.4569C137.682 41.4569 137.341 41.4569 136.962 41.4569Z" fill="white"/>
<path d="M145.736 23.7471C146.161 23.0896 146.533 22.4296 146.986 21.8298C148.146 20.2936 149.598 19.1464 151.567 18.8689C152.736 18.7041 153.915 18.7483 154.933 19.4842C155.246 19.7109 155.512 20.0031 155.869 20.3292C155.979 19.9445 156.076 19.6049 156.176 19.2559C158.351 19.2559 160.53 19.2559 162.777 19.2559C162.687 19.6561 162.603 20.033 162.517 20.4097C162.043 22.4964 161.576 24.5848 161.093 26.6694C160.685 28.4308 160.252 30.1865 159.842 31.9473C159.336 34.118 158.814 36.2856 158.35 38.4654C158.01 40.068 157.576 41.6353 156.834 43.0993C155.732 45.2705 154.069 46.8775 151.842 47.8992C150.32 48.5974 148.714 49.011 147.073 49.3059C146.48 49.4124 145.886 49.5089 145.273 49.6134C144.948 48.2017 144.623 46.789 144.288 45.3325C144.923 45.1915 145.555 45.0582 146.184 44.9096C147.32 44.6412 148.429 44.3047 149.418 43.6573C150.341 43.0537 150.82 42.1487 151.143 41.1446C151.184 41.0155 151.079 40.8395 151.041 40.6852C150.914 40.726 150.767 40.7393 150.662 40.8118C149.439 41.655 148.081 42.0404 146.606 41.9202C144.905 41.7816 143.782 40.8398 143.2 39.2694C142.651 37.7837 142.575 36.2123 142.75 34.6782C142.962 32.8187 143.346 30.9724 143.76 29.1438C144.108 27.6061 144.615 26.1055 145.315 24.6799C145.461 24.3827 145.585 24.0749 145.736 23.7471ZM149.506 32.8921C149.479 33.5927 149.418 34.294 149.432 34.9938C149.446 35.7166 149.862 36.3225 150.444 36.3394C150.843 36.3511 151.272 36.2757 151.642 36.1278C152.043 35.9679 152.4 35.7231 152.508 35.2101C152.89 33.3899 153.306 31.5763 153.723 29.7634C154.065 28.2748 154.429 26.791 154.777 25.3036C154.795 25.2249 154.775 25.117 154.732 25.0478C154.219 24.2182 152.616 24.1138 152.07 24.9159C151.679 25.4907 151.335 26.1179 151.09 26.7667C150.351 28.7274 149.897 30.7671 149.506 32.8921Z" fill="white"/>
<path d="M93.0211 37.061C92.984 35.0115 93.3755 33.0966 94.3368 31.316C95.456 29.243 97.1564 27.8878 99.4612 27.3368C101.034 26.9608 102.61 26.9944 104.163 27.4846C104.388 27.5554 104.614 27.6212 104.839 27.6893C104.898 27.4582 104.967 27.2291 105.015 26.9958C105.124 26.4722 105.277 25.9503 105.315 25.4209C105.375 24.5543 104.708 24.1248 103.984 24.0348C102.545 23.8564 101.217 24.2723 99.9186 24.8147C99.3034 25.0717 98.7039 25.3659 98.0608 25.66C97.7814 24.1366 97.5018 22.6129 97.2217 21.0862C98.9244 20.1768 100.714 19.4963 102.607 19.1164C103.338 18.9696 104.09 18.9053 104.837 18.8618C105.559 18.8197 106.29 18.8039 107.01 18.8628C108.479 18.983 109.888 19.3018 110.964 20.4224C111.534 21.015 111.814 21.7452 111.955 22.5421C112.217 24.0291 111.862 25.4578 111.545 26.8877C111.113 28.8399 110.665 30.7888 110.212 32.7365C109.938 33.9144 109.631 35.0847 109.358 36.2628C108.978 37.9009 108.62 39.5441 108.237 41.1816C108.212 41.289 108.058 41.4455 107.962 41.4462C105.887 41.4614 103.812 41.4578 101.744 41.4578C101.765 41.1459 101.784 40.8532 101.81 40.4628C101.473 40.6654 101.22 40.8215 100.963 40.9722C99.5593 41.7969 98.0789 42.1391 96.4469 41.7943C95.0804 41.5056 94.0579 40.8221 93.4883 39.5329C93.1465 38.7594 92.9776 37.9488 93.0211 37.061ZM103.752 32.007C103.493 31.9026 103.238 31.7809 102.972 31.6969C101.813 31.3316 100.822 31.6765 100.143 32.6856C99.5132 33.6226 99.3152 34.664 99.4072 35.7769C99.4538 36.3404 99.8725 36.8438 100.424 36.9867C101.165 37.1785 101.811 36.9306 102.444 36.5945C102.693 36.4621 102.906 36.32 102.966 35.9988C103.092 35.3232 103.26 34.6557 103.403 33.9832C103.54 33.34 103.667 32.6948 103.752 32.007Z" fill="white"/>
<path d="M176.718 32.274C174.025 32.274 171.372 32.274 168.697 32.274C168.532 33.3751 168.394 34.4474 168.747 35.5252C169.103 36.6132 170.022 36.8704 170.924 36.7211C172.2 36.5101 173.132 35.7471 173.933 34.7835C174.085 34.6004 174.325 34.4897 174.545 34.3315C175.531 35.2511 176.625 36.2713 177.757 37.3258C177.505 37.6293 177.289 37.9462 177.018 38.2047C176.359 38.8315 175.702 39.4647 174.994 40.0338C173.901 40.9127 172.641 41.4836 171.258 41.7339C170.224 41.9211 169.183 41.9869 168.121 41.8659C167.02 41.7405 166.019 41.4115 165.12 40.7827C164.194 40.1346 163.572 39.2407 163.155 38.2079C162.733 37.165 162.559 36.076 162.509 34.9492C162.4 32.5254 162.781 30.176 163.437 27.8547C163.949 26.0455 164.713 24.3603 165.811 22.8267C167.15 20.9572 168.859 19.5807 171.134 19.0513C173.088 18.5966 175.026 18.6678 176.838 19.656C177.832 20.1981 178.531 21.0273 179.004 22.0429C179.514 23.1361 179.718 24.2919 179.814 25.4937C179.909 26.6792 179.81 27.8372 179.637 28.9987C179.49 29.9853 179.307 30.9667 179.174 31.9549C179.138 32.218 179.048 32.2812 178.808 32.2776C178.124 32.2673 177.441 32.274 176.718 32.274ZM173.359 27.957C173.552 27.957 173.745 27.957 174.049 27.957C174.017 26.9573 174.017 26.0012 173.946 25.0503C173.897 24.391 173.31 23.8559 172.735 23.793C171.873 23.6985 171.26 24.0766 170.801 24.7565C170.148 25.7231 169.867 26.8336 169.56 27.957C170.817 27.957 172.05 27.957 173.359 27.957Z" fill="white"/>
<path d="M85.7458 18.851C86.3233 18.851 86.8698 18.8015 87.4035 18.8625C88.4049 18.977 89.3492 19.2797 90.2029 19.8461C91.4636 20.6827 92.1653 21.8987 92.5335 23.3055C92.7299 24.0557 92.7649 24.8483 92.8647 25.6228C93.0346 26.9425 92.8388 28.2422 92.6312 29.5398C92.5061 30.3221 92.3468 31.0997 92.245 31.8847C92.2033 32.2063 92.082 32.2803 91.7772 32.2794C88.5444 32.2695 85.3115 32.2733 82.0786 32.2733C81.9873 32.2733 81.8961 32.2733 81.771 32.2733C81.6005 33.4113 81.4304 34.5316 81.858 35.6507C82.2255 36.6124 83.1196 36.8719 83.968 36.7273C85.2023 36.517 86.1431 35.8024 86.9227 34.855C87.0864 34.6561 87.2724 34.4753 87.4956 34.235C88.5881 35.2495 89.696 36.2783 90.8196 37.3217C89.7322 38.6725 88.5193 39.8443 87.0258 40.7205C86.0268 41.3065 84.9509 41.6689 83.8195 41.8249C82.1874 42.0498 80.5585 42.0144 79.0336 41.2862C77.3502 40.4824 76.4032 39.0706 75.9124 37.3312C75.5886 36.1838 75.4379 34.9954 75.5293 33.8135C75.6427 32.3448 75.8151 30.8727 76.0909 29.4263C76.4355 27.6184 77.0602 25.8884 77.9579 24.2688C79.066 22.2695 80.5211 20.6003 82.6262 19.5962C83.5924 19.1354 84.6185 18.8414 85.7458 18.851ZM84.5656 24.0348C83.6083 24.5819 82.8495 26.8006 82.6813 27.9376C84.1198 27.9376 85.5595 27.9376 87.0324 27.9376C87.0324 27.8055 87.0326 27.6908 87.0324 27.576C87.0309 26.7525 87.1212 25.9161 87.0072 25.1082C86.8158 23.7525 85.6076 23.5079 84.5656 24.0348Z" fill="white"/>
<path d="M67.4659 41.9294C66.3282 41.9361 65.2661 41.803 64.334 41.1495C63.6268 40.6536 63.2838 39.9416 63.1302 39.1268C62.893 37.8679 63.1609 36.6479 63.4406 35.4282C63.8962 33.4413 64.335 31.4507 64.7883 29.4633C65.1506 27.8753 65.5239 26.2899 65.9003 24.6688C65.0754 24.6688 64.2777 24.6688 63.4361 24.6688C63.7461 23.3606 64.0488 22.0908 64.3471 20.82C64.446 20.3983 64.5448 19.9759 64.6223 19.5499C64.6649 19.3157 64.7681 19.2337 65.0109 19.24C65.6413 19.2564 66.2725 19.2419 66.9033 19.2476C67.1009 19.2494 67.1915 19.2031 67.2383 18.9763C67.4882 17.766 67.7657 16.5614 68.0379 15.3558C68.1837 14.7102 68.3293 14.0642 68.4964 13.424C68.5267 13.3082 68.6415 13.1668 68.7508 13.1261C70.3186 12.5417 71.8916 11.9708 73.4647 11.4005C74.0891 11.1741 74.7166 10.9565 75.3436 10.7374C75.4113 10.7138 75.4847 10.7066 75.5805 10.6865C74.9222 13.5462 74.2723 16.3693 73.6138 19.2297C74.8454 19.2297 76.0598 19.2297 77.3756 19.2297C76.9475 21.07 76.5321 22.8557 76.112 24.6614C74.9848 24.6614 73.8691 24.6678 72.7536 24.6571C72.4571 24.6543 72.3232 24.6823 72.2533 25.0541C72.0179 26.3045 71.6939 27.5384 71.4098 28.7799C70.9864 30.6302 70.5585 32.4797 70.1559 34.3345C70.081 34.6792 70.0391 35.0658 70.1188 35.4009C70.2491 35.9489 70.7531 36.172 71.3762 36.1418C72.1594 36.1037 72.8542 35.8472 73.5029 35.4303C73.5724 35.3856 73.6594 35.368 73.8307 35.3025C73.623 35.8887 73.4402 36.3979 73.2622 36.9088C72.827 38.1585 72.4049 39.4129 71.9489 40.6549C71.8753 40.8555 71.6873 41.0849 71.4962 41.1602C70.5769 41.5224 69.6342 41.8156 68.6315 41.8529C68.2555 41.8669 67.8803 41.9032 67.4659 41.9294Z" fill="white"/>
<path d="M209.605 24.6598C209.216 24.6598 208.865 24.6598 208.486 24.6598C208.715 23.6712 208.931 22.7287 209.153 21.7876C209.325 21.0565 209.529 20.3317 209.671 19.595C209.731 19.2859 209.864 19.2315 210.138 19.2389C210.742 19.2553 211.348 19.2326 211.952 19.2499C212.177 19.2563 212.245 19.1491 212.286 18.9678C212.705 17.1168 213.122 15.2652 213.555 13.4172C213.586 13.2829 213.712 13.1105 213.834 13.0661C215.682 12.3945 217.538 11.7413 219.392 11.084C219.764 10.9519 220.137 10.8203 220.625 10.6475C219.963 13.5403 219.317 16.3589 218.66 19.2281C219.909 19.2281 221.133 19.2281 222.417 19.2281C222.292 19.7646 222.182 20.2443 222.068 20.7233C221.781 21.9377 221.476 23.1485 221.215 24.3686C221.156 24.6454 221.034 24.6625 220.819 24.6617C219.677 24.6577 218.534 24.6598 217.371 24.6598C216.804 27.2046 216.242 29.7387 215.673 32.2709C215.511 32.9908 215.326 33.7057 215.148 34.4222C214.959 35.1895 215.168 35.8137 215.731 36.0489C216.155 36.2264 216.605 36.1718 217.036 36.061C217.344 35.9819 217.64 35.8557 217.935 35.7327C218.225 35.6114 218.505 35.4678 218.859 35.3015C218.678 35.8518 218.526 36.3436 218.355 36.8289C217.908 38.1014 217.428 39.3633 217.012 40.646C216.87 41.0848 216.541 41.1808 216.204 41.2932C215.326 41.5858 214.436 41.7926 213.501 41.8706C212.402 41.9622 211.325 41.9732 210.281 41.6079C209.091 41.1917 208.384 40.3647 208.177 39.097C207.963 37.79 208.218 36.5364 208.504 35.2799C208.947 33.3296 209.394 31.3804 209.842 29.4312C210.204 27.8556 210.569 26.2806 210.943 24.6598C210.5 24.6598 210.073 24.6598 209.605 24.6598Z" fill="white"/>
<path d="M201.295 41.0469C200.507 41.2805 199.757 41.5445 198.985 41.7083C197.851 41.9488 196.703 41.9795 195.539 41.8699C194.596 41.7811 193.681 41.6219 192.795 41.3012C191.634 40.881 190.597 40.2527 189.69 39.4157C189.55 39.2868 189.401 39.1679 189.241 39.0321C190.611 37.4676 191.97 35.915 193.333 34.3578C194.257 35.3501 195.24 36.1645 196.51 36.5404C197.24 36.7565 197.975 36.7669 198.703 36.4451C199.619 36.0402 199.61 34.7818 199.052 34.1944C198.346 33.4511 197.491 32.9302 196.614 32.4403C195.205 31.6536 193.953 30.6926 193.166 29.2629C192.877 28.7379 192.696 28.128 192.589 27.5349C192.361 26.2735 192.489 25.0185 192.924 23.8104C193.478 22.2702 194.468 21.0609 195.861 20.1955C196.997 19.4901 198.24 19.0705 199.575 18.931C200.063 18.8799 200.553 18.7692 201.039 18.7859C202.418 18.8333 203.781 18.9749 205.074 19.5362C206.078 19.9722 206.973 20.5497 207.771 21.2921C207.984 21.4902 207.973 21.6107 207.777 21.829C206.968 22.7341 206.188 23.6652 205.389 24.5806C204.929 25.1081 204.456 25.6237 204.011 26.1193C203.439 25.6287 202.917 25.093 202.311 24.6805C201.47 24.1089 200.538 23.8064 199.504 24.1865C198.68 24.489 198.359 25.6114 198.906 26.294C199.531 27.0735 200.393 27.542 201.234 28.0282C202.334 28.6634 203.395 29.3515 204.252 30.2911C205.207 31.3377 205.743 32.556 205.759 34.0122C205.777 35.6291 205.43 37.1098 204.492 38.4455C203.677 39.606 202.588 40.4237 201.295 41.0469Z" fill="white"/>
<path d="M184.122 21.5897C184.283 20.8737 184.431 20.1887 184.608 19.5111C184.636 19.405 184.794 19.2568 184.893 19.2561C186.969 19.2427 189.046 19.2475 191.123 19.2501C191.147 19.2501 191.171 19.2673 191.256 19.3002C189.556 26.6706 187.854 34.0495 186.149 41.4422C183.956 41.4422 181.765 41.4422 179.534 41.4422C179.712 40.678 179.886 39.9374 180.055 39.1956C180.493 37.2703 180.925 35.3434 181.367 33.4189C181.658 32.1528 181.968 30.8909 182.26 29.6248C182.702 27.7006 183.133 25.7735 183.576 23.8493C183.747 23.105 183.938 22.3651 184.122 21.5897Z" fill="white"/>
<path d="M238.456 32.0155C239.23 30.4878 240.286 29.2708 241.932 28.7306C243.156 28.3293 244.407 28.3179 245.555 29.0107C246.447 29.5483 246.943 30.386 247.153 31.3901C247.386 32.5027 247.336 33.6111 247.172 34.7351C246.987 36.0006 246.654 37.2084 246.044 38.3293C245.222 39.8404 244.113 41.0624 242.382 41.5379C241.186 41.8665 239.982 41.8401 238.924 41.1207C238.025 40.5094 237.522 39.5872 237.383 38.5213C237.089 36.2634 237.43 34.0945 238.456 32.0155ZM241.119 32.9045C240.468 34.4334 240.072 36.0138 240.302 37.6827C240.465 38.8663 241.418 39.2964 242.369 38.6792C242.742 38.4369 243.047 38.0286 243.271 37.6332C243.765 36.7615 244.027 35.806 244.171 34.8095C244.287 34.0012 244.382 33.2047 244.241 32.3899C244.096 31.5544 243.344 30.9354 242.415 31.4138C241.806 31.7274 241.428 32.2481 241.119 32.9045Z" fill="white"/>
<path d="M234.539 40.4372C233.243 41.6548 231.733 41.9823 230.074 41.5321C228.601 41.1323 227.882 39.9246 227.688 38.5672C227.588 37.8643 227.559 37.1379 227.61 36.4303C227.705 35.1291 227.987 33.863 228.506 32.6498C228.97 31.5664 229.604 30.6136 230.487 29.8345C231.407 29.0235 232.448 28.4856 233.72 28.5044C234.354 28.5137 234.972 28.5055 235.581 28.7796C236.606 29.2409 237.09 30.0779 237.377 31.0866C237.404 31.1815 237.424 31.2785 237.455 31.4059C236.569 31.9277 235.683 32.4491 234.814 32.9607C234.642 32.5722 234.507 32.2038 234.321 31.8635C233.876 31.0501 233.007 31.0995 232.384 31.6384C231.538 32.3704 231.194 33.3827 230.917 34.4145C230.666 35.3515 230.521 36.3136 230.609 37.2821C230.647 37.6983 230.758 38.1712 231.003 38.4924C231.535 39.1905 232.281 39.0799 232.964 38.4867C233.413 38.096 233.753 37.5803 234.152 37.1086C234.717 37.582 235.329 38.0947 236.023 38.6757C235.542 39.2556 235.054 39.8441 234.539 40.4372Z" fill="white"/>
<path d="M192.472 15.3696C191.894 16.465 190.983 17.0215 189.805 17.208C188.96 17.3418 188.144 17.3158 187.334 16.9953C186.378 16.6172 185.741 15.9547 185.502 14.974C185.193 13.7051 185.458 12.5475 186.409 11.6093C187.022 11.005 187.798 10.7401 188.646 10.598C189.454 10.4627 190.215 10.582 190.955 10.854C192.006 11.2402 192.656 12.0687 192.815 13.2271C192.917 13.9746 192.789 14.6678 192.472 15.3696Z" fill="white"/>
<path d="M225.544 40.2554C225.032 41.6782 223.346 42.15 222.244 41.2974C221.578 40.7814 221.278 39.7545 221.827 38.7375C222.241 37.9724 222.934 37.6245 223.724 37.6422C224.627 37.6625 225.315 38.0756 225.549 39.0087C225.644 39.3895 225.553 39.8166 225.544 40.2554Z" fill="white"/>
<path d="M225.285 12.7931C225.81 12.0925 226.472 11.6181 227.277 11.3628C228.026 11.1252 228.78 11.1102 229.538 11.3839C230.586 11.7628 231.2 12.9152 231.003 14.1607C230.779 15.5787 230.012 16.5729 228.751 17.1662C227.692 17.6642 226.591 17.7344 225.554 17.0458C224.998 16.6767 224.707 16.1405 224.595 15.4891C224.426 14.4964 224.739 13.6303 225.285 12.7931ZM227.284 11.9803C227.2 12.0105 227.111 12.032 227.033 12.0722C225.991 12.6058 225.3 13.4437 225.169 14.5959C224.993 16.1312 226.005 16.9295 227.294 16.9396C228.414 16.9485 229.353 16.385 229.951 15.4108C230.405 14.6711 230.647 13.8592 230.282 13.0007C229.823 11.9198 228.569 11.4821 227.284 11.9803Z" fill="white"/>
<path d="M228.061 15.7241C227.981 15.4622 227.877 15.2378 227.834 15.0025C227.79 14.7666 227.693 14.6831 227.45 14.6843C227.187 14.6857 227.119 14.7862 227.107 15.0336C227.093 15.2982 227.027 15.5641 226.954 15.8208C226.84 16.2182 226.514 15.9385 226.224 16.0631C226.456 14.8631 226.675 13.7324 226.9 12.5729C227.524 12.5729 228.14 12.5552 228.755 12.5784C229.262 12.5975 229.606 13.2186 229.363 13.8008C229.214 14.1559 228.877 14.4326 228.561 14.8225C228.653 15.1229 228.787 15.558 228.943 16.0635C228.629 15.9074 228.216 16.2883 228.061 15.7241ZM228.4 14.0034C228.519 13.8256 228.638 13.6477 228.757 13.4698C228.577 13.3801 228.406 13.2472 228.216 13.2115C227.977 13.1664 227.722 13.2006 227.462 13.2006C227.4 13.4911 227.343 13.7615 227.283 14.0482C227.646 14.0482 227.998 14.0482 228.4 14.0034Z" fill="white"/>
<path d="M228.376 14.0261C227.999 14.0485 227.647 14.0485 227.284 14.0485C227.344 13.7618 227.401 13.4914 227.463 13.2009C227.723 13.2009 227.978 13.1667 228.217 13.2118C228.407 13.2475 228.578 13.3804 228.758 13.4701C228.639 13.648 228.52 13.8259 228.376 14.0261Z" fill="white"/>
</g>
<defs>
<clipPath id="clip0_2508_3493">
<rect width="263.229" height="50.3125" fill="white" transform="translate(0.729248 0.25)"/>
</clipPath>
</defs>
</svg>
