<svg width="261" height="43" viewBox="0 0 261 43" fill="none" xmlns="http://www.w3.org/2000/svg">
<path d="M82.2449 18.9281C81.9269 19.8049 81.4042 20.665 81.3318 21.5617C81.1602 23.6841 80.6889 26.0232 83.8511 26.9109C83.7093 27.0626 83.5676 27.2143 83.4258 27.366C80.7358 27.366 78.0458 27.366 75.1065 27.366C78.0623 24.3304 78.2388 22.4967 76.1265 18.8293C75.3643 17.5059 74.628 16.1617 73.7745 14.8985C72.9394 13.6627 71.9699 12.5179 71.1719 11.4795C73.4188 11.4795 76.1596 11.4795 78.9866 11.4795C77.5379 13.2941 78.31 16.1405 81.1961 18.851C81.7649 18.8984 82.0049 18.9133 82.2449 18.9281Z" fill="white"/>
<path d="M230.915 27.4208C230.324 27.3622 229.906 27.3044 229.451 27.2413C231.444 23.5169 231.002 12.2969 228.792 10.2466C230.421 10.16 232.057 9.97935 233.676 10.0732C233.968 10.0901 234.402 11.2308 234.417 11.8611C234.494 15.0649 234.366 18.275 234.488 21.476C234.56 23.3755 234.963 25.2624 235.253 27.4216C234.23 27.4216 232.66 27.4216 230.915 27.4208Z" fill="white"/>
<path d="M49.2909 16.8576C49.5909 19.59 49.8909 22.3223 50.2646 25.3934C50.7259 25.9675 51.1135 26.2027 51.5011 26.438C50.995 26.7697 50.5099 27.3402 49.9788 27.3871C48.5371 27.5145 47.0758 27.42 45.443 27.2078C47.053 24.8246 46.2317 22.2687 46.1433 19.8748C46.1167 19.1568 45.0444 17.884 44.5201 17.9184C43.7463 17.9692 42.4416 18.9236 42.3998 19.5614C42.2301 22.1483 41.3534 24.9599 43.6597 27.1627C41.6056 27.2389 39.5515 27.3152 37.3328 27.2072C37.6192 25.7837 38.383 24.5636 38.4592 23.3018C38.6472 20.187 38.5846 17.0509 38.4758 13.9285C38.4469 13.0958 37.8885 12.2816 37.5732 11.459C37.2339 11.3728 36.8945 11.2867 36.3914 11.269C36.2276 11.3375 36.2599 11.3517 36.2599 11.3517C36.305 11.2721 36.3501 11.1925 36.5253 10.9094C36.9146 10.6301 37.1737 10.5543 37.5694 10.5773C38.2318 11.783 39.1413 12.8661 39.2114 14.0012C39.4171 17.3306 39.2195 20.6834 39.3454 24.0208C39.3733 24.7613 40.0815 25.4759 40.4764 26.2025C40.8306 25.5064 41.4798 24.8149 41.4909 24.1134C41.5619 19.6176 41.4928 15.1196 41.549 10.5406C41.6801 10.4037 41.732 10.3485 41.8896 10.432C42.1179 12.664 42.2407 14.7574 42.3892 17.2893C43.2736 16.7409 43.8309 16.3953 44.3882 16.0497C44.6527 16.0096 44.9172 15.9695 45.4815 15.9148C46.2524 15.8644 46.7236 15.8287 47.1947 15.7929C47.4445 15.8662 47.6942 15.9395 48.156 16.1322C48.6757 16.4536 48.9833 16.6556 49.2909 16.8576Z" fill="white"/>
<path d="M187.718 13.7104C187.885 13.8837 188.053 14.0571 188.27 14.5049C188.801 15.8892 189.283 16.9991 189.766 18.109C189.787 18.8147 189.807 19.5204 189.681 20.4919C189.132 21.9202 188.729 23.0829 188.326 24.2455C188.197 24.4466 188.068 24.6477 187.717 24.9412C187.294 25.2773 187.092 25.5211 186.889 25.7649C186.627 25.9957 186.364 26.2266 185.818 26.4834C184.982 26.7892 184.43 27.0691 183.878 27.3489C183.878 27.3489 183.667 27.3817 183.555 27.1871C183.435 26.8868 183.428 26.781 183.428 26.541C183.429 26.2266 183.423 26.0464 183.436 25.8862C183.455 25.9063 183.413 25.8698 183.547 25.8366C183.872 25.5142 184.063 25.2249 184.306 24.7784C184.623 23.7751 184.89 22.9289 185.224 22.0176C185.273 21.6667 185.256 21.3809 185.242 20.9004C185.248 19.6666 185.249 18.6274 185.307 17.5068C185.294 17.1882 185.224 16.951 185.126 16.5605C185.036 15.9956 184.975 15.584 184.947 15.0377C184.781 14.6206 184.583 14.3382 184.345 13.9804C184.304 13.905 184.245 13.7441 184.234 13.6055C183.952 13.2508 183.68 13.0347 183.254 12.7353C182.048 12.5061 180.998 12.3603 179.85 12.1615C179.546 12.1744 179.339 12.2403 179.146 12.1667C180.608 11.8259 182.058 11.6244 183.507 11.4229C184.548 11.8609 185.589 12.2989 186.804 12.9341C187.224 13.3243 187.471 13.5173 187.718 13.7104Z" fill="white"/>
<path d="M200.187 20.3084C199.358 19.7002 198.68 19.1108 197.994 18.5142C196.022 19.9078 196.318 24.6764 198.789 27.2394C196.258 27.2394 193.96 27.2394 191.594 27.2394C193.664 23.6099 193.594 20.1308 191.542 16.5011C191.849 16.3744 192.197 16.1548 192.572 16.0881C195.14 15.632 197.713 17.0045 200.354 16.0251C200.776 15.8685 202.204 17.1596 202.407 17.9724C202.744 19.3166 201.956 20.3526 200.187 20.3084ZM193.56 25.0226C194.036 25.4482 194.512 25.8738 194.987 26.2994C195.355 25.7578 195.997 25.237 196.039 24.671C196.181 22.7847 196.221 20.8719 196.052 18.9918C195.995 18.3594 195.193 17.7944 194.731 17.1985C194.33 17.7799 193.631 18.3375 193.583 18.9469C193.434 20.8311 193.532 22.735 193.56 25.0226Z" fill="white"/>
<path d="M125.929 25.5408C126.093 22.5263 127.141 19.3956 124.242 16.1073C126.319 16.1073 128.162 15.5915 129.38 16.2453C130.731 16.9698 131.494 16.4161 132.657 16.2596C132.796 16.8199 132.788 17.2078 132.634 17.6449C131.734 18.2491 130.98 18.8041 130.226 19.3591C130.202 21.2552 130.178 23.1514 130.225 25.3787C130.693 26.0656 131.09 26.4215 131.487 26.7773C129.296 26.94 127.106 27.1028 124.817 27.1091C125.123 26.4821 125.526 26.0114 125.929 25.5408Z" fill="white"/>
<path d="M30.7337 12.8099C30.6993 16.878 30.6649 20.9461 30.6066 25.3336C30.6885 25.8635 30.7943 26.0741 30.7101 26.307C29.1151 26.1437 27.7101 25.958 26.3052 25.7723C26.4101 21.7284 26.5151 17.6845 26.685 13.3022C26.7743 12.7705 26.7986 12.5772 27.0091 12.3686C28.2038 12.3115 29.2123 12.2698 30.2924 12.3383C30.4872 12.5689 30.6105 12.6894 30.7337 12.8099Z" fill="white"/>
<path d="M107.696 24.9033C109.131 24.9312 110.57 24.8943 111.998 25.0015C114.432 25.1842 115.353 26.1476 115.689 28.8017C115.688 29.1153 115.642 29.2643 115.615 29.5297C115.077 30.1593 114.521 30.6725 113.695 31.2307C112.694 31.1984 111.964 31.1209 111.241 31.0313C111.248 31.0191 111.275 31.0079 111.376 30.9812C111.609 30.8867 111.698 30.783 111.861 30.5202C112.638 27.9621 111.113 26.8012 108.015 27.5168C106.592 27.8457 105.608 28.6249 106.547 30.4679C106.052 32.5799 104.704 30.8953 103.846 31.2718C103.775 31.2482 103.704 31.2246 103.521 31.1895C102.377 29.1094 103.243 27.9775 105.446 27.4905C105.04 26.5454 104.691 25.7314 104.473 24.7048C105.84 23.0783 106.654 24.8507 107.696 24.9033Z" fill="white"/>
<path d="M61.5974 27.2851C61.4419 27.3322 61.2864 27.3793 60.803 27.3957C59.481 27.3987 58.4869 27.4324 57.4928 27.4661C57.2078 27.4075 56.9228 27.3489 56.4534 27.099C55.5599 26.4357 54.8508 25.9635 54.1417 25.4914C54.1417 25.4914 54.1693 25.4725 54.1458 25.3113C52.6498 21.4278 53.5982 18.4502 56.8686 16.1871C57.1845 16.1188 57.5004 16.0505 58.0828 16.072C58.8371 16.1101 59.3248 16.0585 59.8126 16.0068C60.1334 16.0224 60.4542 16.0379 61.0108 16.1972C61.5574 16.4319 61.8682 16.5229 62.179 16.6139C62.3826 16.7175 62.5861 16.8212 62.8898 17.1772C63.3033 18.532 63.6166 19.6344 63.7616 20.7781C62.6754 20.8701 61.7576 20.9208 60.7816 20.8102C60.6531 20.4305 60.5828 20.2121 60.5307 19.8348C60.0632 18.726 59.5776 17.7761 59.0919 16.8262C58.4222 17.3543 57.7525 17.8824 56.9899 18.448C56.8555 18.77 56.8141 19.0545 56.7837 19.4459C56.7948 19.5528 56.8008 19.7676 56.7858 19.9458C56.7927 20.6012 56.8148 21.0784 56.791 21.7066C56.8834 22.3317 57.0217 22.8058 57.16 23.28C57.7668 24.0878 58.3736 24.8957 59.2343 25.8683C60.1896 26.1362 60.891 26.2394 61.593 26.3437C61.5936 26.3448 61.5961 26.3475 61.6093 26.5035C61.6142 26.868 61.6058 27.0766 61.5974 27.2851Z" fill="white"/>
<path d="M158.444 21.7359C158.632 22.718 158.821 23.7 158.895 24.924C158.689 25.4043 158.597 25.6428 158.505 25.8813C158.334 26.0277 158.162 26.1741 157.735 26.3207C156.841 25.7145 156.201 25.108 155.561 24.5015C155.294 24.3427 155.027 24.1839 154.541 23.8529C153.97 23.5984 153.618 23.5161 153.267 23.4338C153.092 23.3681 152.917 23.3023 152.552 23.1061C152.066 22.909 151.77 22.8424 151.475 22.7758C150.965 22.427 150.455 22.0782 149.797 21.4767C149.552 20.1546 149.455 19.0854 149.358 18.0161C149.621 17.6796 149.885 17.3431 150.367 16.8991C150.865 16.5639 151.145 16.3363 151.424 16.1087C151.822 16.0661 152.22 16.0236 152.886 16.0677C153.774 16.1172 154.396 16.0801 155.017 16.043C155.204 16.0371 155.392 16.0312 155.722 16.2384C155.863 16.6848 155.862 16.9181 155.693 17.0961C154.293 16.6942 152.895 16.4889 152.489 17.9986C152.055 19.6116 153.724 19.6134 154.687 20.0646C155.928 20.6456 157.191 21.1809 158.444 21.7359Z" fill="white"/>
<path d="M116.817 27.2869C118.986 24.7983 118.859 19.0061 116.274 16.5246C116.168 16.4028 116.188 16.4591 116.188 16.4591C116.46 16.3621 116.725 16.2108 117.004 16.1761C121.924 15.5657 121.968 15.6136 121.979 20.5788C121.982 22.106 122.029 23.6331 122.182 25.4651C122.689 26.0186 123.07 26.2671 123.451 26.5156C123.451 26.5156 123.545 26.3505 123.497 26.5498C123.5 26.8969 123.55 27.0447 123.6 27.1925C121.406 27.232 119.213 27.2716 116.817 27.2869Z" fill="white"/>
<path d="M101.383 24.1767C101.305 24.2999 101.226 24.4232 101.012 24.7262C100.697 25.1965 100.517 25.4871 100.338 25.7776C100.338 25.7776 100.44 25.8849 100.258 25.8713C99.8487 26.1172 99.6202 26.3767 99.3917 26.6362C99.3917 26.6362 99.2547 26.673 99.0622 26.7213C98.5827 26.9788 98.2956 27.1879 98.0086 27.3971C97.7424 27.4425 97.4762 27.4878 96.9289 27.537C96.0228 27.466 95.3976 27.3911 94.7758 27.1721C94.7832 26.932 94.7873 26.836 94.9434 26.6959C95.8309 25.9741 97.0567 25.388 97.203 24.6006C97.5373 22.8009 97.6025 20.859 97.2987 19.0557C96.9191 16.8017 95.9625 16.5068 93.5753 17.355C93.042 17.1186 92.6072 16.9469 92.1728 16.6471C92.1681 16.4337 92.1632 16.3485 92.1582 16.2632C92.3411 16.216 92.524 16.1688 93.0101 16.0933C94.3862 15.9896 95.4592 15.9142 96.5322 15.8389C96.9288 15.9109 97.3254 15.9829 97.9572 16.1668C98.5137 16.421 98.8348 16.5633 99.156 16.7056C99.4909 16.9686 99.8258 17.2316 100.291 17.7069C100.67 18.1737 100.919 18.4283 101.168 18.6828C101.168 18.6828 101.197 18.8178 101.231 19.0175C101.445 19.5486 101.624 19.8799 101.803 20.2113C101.8 21.1074 101.798 22.0035 101.7 23.1778C101.53 23.6962 101.456 23.9365 101.383 24.1767Z" fill="white"/>
<path d="M147.254 27.3664C145.184 27.3556 143.113 27.3449 140.884 27.1666C141.071 26.5896 141.416 26.1801 141.762 25.7706C141.762 25.7706 141.833 25.7569 141.949 25.597C142.294 22.2348 142.909 18.972 140.614 16.1666C141.814 16.1156 143.014 16.0646 144.511 16.0439C145.175 16.1318 145.543 16.1893 145.912 16.2467C145.912 16.2467 145.901 16.2727 145.886 16.4716C145.864 19.0297 145.786 21.392 145.89 23.7463C145.923 24.4894 146.442 25.211 146.738 25.9424C146.738 25.9424 146.757 25.9096 146.78 26.0717C146.953 26.6114 147.104 26.9889 147.254 27.3664Z" fill="white"/>
<path d="M176.692 26.5677C176.692 26.5677 176.542 26.5127 176.441 26.3214C175.948 25.7101 175.547 25.2987 175.167 24.8688C172.63 21.9989 172.471 16.917 174.996 14.0823C175.921 13.0435 177.01 11.5585 178.759 13.0047C178.723 13.0736 178.628 13.197 178.486 13.2495C177.948 14.5011 177.552 15.7001 177.151 17.0851C177.409 19.6606 177.673 22.0502 177.922 24.6026C178.273 25.8877 177.718 26.3876 176.692 26.5677Z" fill="white"/>
<path d="M241.572 23.3713C242.154 24.1184 242.735 24.8656 243.563 25.7965C244.511 26.0942 245.211 26.2081 245.936 26.4885C245.943 26.8781 245.926 27.1011 245.909 27.3242C245.756 27.3676 245.603 27.411 245.126 27.4163C243.805 27.4034 242.808 27.4287 241.811 27.4539C241.654 27.4332 241.497 27.4125 241.136 27.2535C240.675 27.0249 240.419 26.9346 240.163 26.8443C239.947 26.7387 239.731 26.6331 239.397 26.3192C239.011 25.8976 238.744 25.6842 238.477 25.4708C238.477 25.4708 238.387 25.3269 238.361 25.0757C238.334 22.6619 238.334 20.4992 238.333 18.3366C239.444 17.6559 240.555 16.9753 241.911 16.3896C242.274 16.5761 242.392 16.6674 242.423 16.8955C242.095 18.0645 241.854 19.0968 241.58 20.2914C241.555 21.4264 241.563 22.3988 241.572 23.3713Z" fill="white"/>
<path d="M113.792 18.4847C114.246 21.2633 113.515 22.1973 110.221 22.6215C110.009 22.2004 109.979 21.9729 109.977 21.6806C110.006 21.6158 110.122 21.5338 110.244 21.4515C110.487 21.0103 110.609 20.6515 110.675 20.178C110.661 19.6491 110.702 19.2348 110.749 18.6713C110.553 18.2097 110.351 17.8973 110.043 17.4777C108.302 16.2843 107.507 17.0326 107.37 18.6879C107.289 19.6737 107.539 20.687 107.571 21.8221C106.643 21.9494 105.786 21.9425 104.929 21.9356C104.606 21.6532 104.284 21.3708 103.944 20.7707C104.076 19.4801 104.225 18.5072 104.375 17.5343C104.502 17.3754 104.63 17.2166 105.008 17.0424C105.708 16.742 106.158 16.457 106.609 16.1719C106.945 16.0976 107.281 16.0233 107.895 16.0367C108.636 16.1011 109.101 16.0778 109.565 16.0545C110.639 16.0909 111.713 16.1273 112.963 16.3641C113.357 17.2045 113.574 17.8446 113.792 18.4847Z" fill="white"/>
<path d="M221.704 27.4508C221.552 27.4345 221.4 27.4183 221.041 27.2667C220.571 27.043 220.309 26.9548 220.046 26.8665C219.475 26.4129 218.903 25.9592 218.291 25.2275C217.991 24.5363 217.732 24.1229 217.473 23.7096C217.428 22.6772 217.383 21.6448 217.507 20.3277C217.852 19.5855 218.028 19.128 218.205 18.6704C218.688 18.1375 219.171 17.6045 219.959 17.0452C220.628 16.9972 220.992 16.9755 221.436 17.2178C221.575 17.6567 221.632 17.8317 221.689 18.0066C221.379 20.723 220.494 23.5565 223.479 25.8374C224.276 26.1276 224.835 26.2297 225.417 26.501C225.419 26.8969 225.399 27.1235 225.379 27.35C225.232 27.3887 225.085 27.4273 224.613 27.4183C223.427 27.3974 222.566 27.4241 221.704 27.4508Z" fill="white"/>
<path d="M210.919 16.0234C211.115 16.0343 211.311 16.0451 211.711 16.2231C212.36 16.6116 212.806 16.8329 213.253 17.0543C213.253 17.0543 213.171 17.1177 213.214 17.2262C213.526 17.7143 213.793 18.094 214.06 18.4737C214.103 20.603 214.146 22.7324 214.167 25.2054C214.54 26.1262 214.934 26.7032 215.329 27.2803C215.218 27.3711 215.09 27.4219 214.621 27.3719C213.54 27.3305 212.786 27.3497 212.031 27.369C211.734 27.1885 211.437 27.0081 210.992 26.5793C210.608 26.1281 210.373 25.9252 210.19 25.5402C210.304 24.0922 210.367 22.8262 210.511 21.4064C210.633 20.7983 210.674 20.344 210.716 19.7477C210.213 18.6525 209.709 17.6993 209.315 16.67C209.923 16.4037 210.421 16.2136 210.919 16.0234Z" fill="white"/>
<path d="M132.787 17.5958C132.794 17.2079 132.802 16.82 132.82 16.2869C133.555 16.0967 134.281 16.0517 135.219 16.1936C136.075 16.9341 136.718 17.4877 137.411 18.1823C137.482 18.5202 137.503 18.7172 137.441 19.0735C137.286 20.7525 137.185 22.2715 137.145 23.792C137.077 26.4171 136.703 26.6917 134.14 25.7047C134.166 23.9966 134.276 22.4849 134.155 20.9923C134.081 20.0849 133.648 19.2068 133.377 18.3155C133.377 18.3155 133.239 18.4621 133.29 18.2679C133.157 17.9144 132.972 17.7551 132.787 17.5958Z" fill="white"/>
<path d="M94.7993 26.7393C94.7952 26.8352 94.7911 26.9312 94.6529 27.2066C94.1699 27.4562 93.821 27.5262 93.4721 27.5963C93.3511 27.5193 93.2196 27.4709 92.8861 27.3302C91.7053 26.4319 90.7161 25.6547 89.7269 24.8775C89.7269 24.8775 89.6141 24.953 89.5968 24.749C89.3339 23.0812 89.0884 21.6175 88.8428 20.1538C88.9066 19.9748 88.9704 19.7958 89.1686 19.4115C89.4002 18.9675 89.4973 18.7289 89.5945 18.4904C90.1048 17.9821 90.6151 17.4739 91.3665 16.8937C91.7985 16.806 91.9894 16.7902 92.1804 16.7744C92.6151 16.9461 93.0498 17.1178 93.5662 17.4153C93.6479 17.5412 93.5371 17.6028 93.4337 17.6241C93.2202 17.9147 93.1101 18.1841 93.0008 18.6013C92.9462 18.9372 92.8908 19.1252 92.7211 19.4207C92.6843 21.0796 92.7618 22.6311 92.8964 24.3186C92.974 24.6494 92.9944 24.8442 92.9749 25.1318C93.1421 25.4399 93.3492 25.6551 93.6593 25.9449C94.108 26.2595 94.4536 26.4994 94.7993 26.7393Z" fill="white"/>
<path d="M210.718 19.8916C210.677 20.346 210.635 20.8003 210.36 21.4341C208.513 21.8407 207.371 22.6203 207.523 24.3903C207.666 26.0544 208.938 25.8904 210.03 25.8008C209.544 26.3661 209.156 26.8176 208.767 27.2691C208.671 27.3635 208.556 27.4133 208.086 27.3683C207.107 27.3495 206.464 27.381 205.82 27.4125L205.648 27.471C205.648 27.471 205.471 27.4372 205.33 27.2641C204.723 26.6883 204.258 26.2856 203.792 25.8829C203.737 25.819 203.683 25.7551 203.59 25.4208C203.524 24.8128 203.497 24.4753 203.47 24.1377C203.743 23.6535 204.016 23.1693 204.499 22.5409C204.994 22.1653 205.277 21.9339 205.561 21.7025C205.561 21.7025 205.677 21.7104 205.895 21.6806C207.648 21.0644 209.183 20.478 210.718 19.8916Z" fill="white"/>
<path d="M178.794 12.9363C177.009 11.559 175.921 13.044 174.995 14.0828C172.47 16.9175 172.63 21.9994 175.167 24.8693C175.547 25.2992 175.948 25.7106 176.377 26.2733C173.657 25.0161 172.021 21.8604 172.397 18.6706C172.857 14.7806 175.082 11.924 178.621 11.1682C180.114 10.8493 181.739 11.1474 183.403 11.2932C182.054 11.6228 180.604 11.8244 179.139 12.2605C179.114 12.6281 179.111 12.761 179.036 12.9302C178.96 12.9662 178.794 12.9363 178.794 12.9363Z" fill="white"/>
<path d="M210.781 15.9453C210.426 16.2148 209.928 16.4049 209.162 16.7181C208.54 17.2807 207.895 17.7141 207.886 18.1611C207.854 19.681 206.94 20.0798 205.716 20.247C205.152 19.6725 204.145 19.1 204.142 18.5228C204.139 17.8787 204.938 16.8446 205.582 16.6595C207.21 16.1918 208.946 16.1052 210.781 15.9453Z" fill="white"/>
<path d="M158.449 21.6216C157.19 21.1818 155.927 20.6465 154.686 20.0655C153.722 19.6142 152.053 19.6124 152.488 17.9995C152.894 16.4898 154.292 16.695 155.729 17.2151C156.658 18.1822 157.382 18.9761 158.106 19.77C158.222 20.3488 158.338 20.9276 158.449 21.6216Z" fill="white"/>
<path d="M242.514 16.7597C242.396 16.6684 242.278 16.577 242.076 16.4118C244.23 16.1396 246.513 15.7834 248.15 18.2883C248.414 18.8308 248.597 19.1208 248.78 19.4108C248.825 19.7097 248.87 20.0086 248.7 20.4801C247.258 20.4438 246.031 20.2349 244.839 19.8715C244.892 18.0858 244.512 16.7743 242.514 16.7597Z" fill="white"/>
<path d="M145.915 12.7863C145.135 13.2044 144.355 13.6225 143.34 13.9716C142.86 13.8514 142.616 13.8002 142.372 13.749C141.449 12.6791 141.083 11.5836 142.443 10.3C142.875 10.0485 143.083 9.91586 143.291 9.7832C143.481 9.78591 143.671 9.78861 144.082 9.85977C144.54 10.0104 144.776 10.0927 145.012 10.1749C145.219 10.4179 145.426 10.661 145.723 11.1573C145.846 11.8692 145.88 12.3277 145.915 12.7863Z" fill="white"/>
<path d="M37.5754 11.665C37.89 12.2823 38.4483 13.0965 38.4773 13.9292C38.586 17.0516 38.6486 20.1877 38.4606 23.3025C38.3845 24.5643 37.6206 25.7844 37.1281 27.1897C36.8956 27.0907 36.5087 26.7951 36.5443 26.5652C36.8561 24.552 37.4396 22.5625 37.5614 20.5429C37.7352 17.6623 37.5869 14.7622 37.5754 11.665Z" fill="white"/>
<path d="M120.99 10.1504C121.309 10.9198 121.628 11.6893 121.813 12.6797C121.539 13.121 121.4 13.3415 121.261 13.5619C121.261 13.5619 121.117 13.6198 120.936 13.6742C120.544 13.8543 120.332 13.9801 120.12 14.1059C119.923 14.0938 119.726 14.0818 119.303 13.9889C118.837 13.8346 118.597 13.7611 118.357 13.6876C118.038 13.1228 117.719 12.558 117.451 11.7969C117.64 11.2606 117.777 10.9206 117.914 10.5806C118.039 10.5274 118.152 10.4559 118.507 10.2763C119.504 10.1746 120.247 10.1625 120.99 10.1504Z" fill="white"/>
<path d="M30.2187 12.2284C29.2102 12.2701 28.2016 12.3118 26.8583 12.2879C25.6836 12.376 24.8435 12.5296 24.0035 12.6832C23.4048 13.4101 22.806 14.137 21.919 14.9507C21.3806 15.0104 21.1305 14.9832 20.8804 14.9561C20.8564 14.2149 20.8325 13.4738 20.9332 12.4468C21.1661 11.9073 21.2743 11.6535 21.3825 11.3998C24.0342 11.3528 26.6859 11.3059 29.5854 11.378C29.9617 11.7409 30.0902 11.9847 30.2187 12.2284Z" fill="white"/>
<path d="M134.129 25.9089C136.704 26.6914 137.078 26.4167 137.146 23.7916C137.186 22.2711 137.287 20.7521 137.572 19.07C137.871 18.9042 137.957 18.9009 138.044 18.8975C138.059 21.0094 138.073 23.1213 138.213 25.5525C138.687 26.3566 139.036 26.8413 139.384 27.326C137.229 27.2454 135.074 27.1648 132.94 26.8762C133.351 26.4151 133.74 26.162 134.129 25.9089Z" fill="white"/>
<path d="M244.804 20.0244C246.031 20.2333 247.258 20.4421 248.676 20.6284C248.277 20.958 247.715 21.5285 247.088 21.6157C245.874 21.784 244.601 21.5435 243.398 21.7446C242.777 21.8483 242.254 22.5363 241.632 23.1655C241.568 22.3982 241.56 21.4257 241.764 20.2931C242.919 20.0967 243.862 20.0606 244.804 20.0244Z" fill="white"/>
<path d="M221.818 17.9435C221.629 17.8308 221.571 17.6558 221.462 17.1268C221.451 16.5823 221.493 16.3918 221.535 16.2013C221.987 16.1209 222.439 16.0405 223.151 16.0541C223.764 16.0991 224.117 16.05 224.47 16.001C225.266 16.2112 226.063 16.4214 227.011 16.9172C227.384 18.0049 227.604 18.8068 227.825 19.6087C227.825 19.6087 227.773 19.747 227.511 19.7825C226.432 19.8626 225.616 19.907 224.8 19.9515C224.8 19.9515 224.77 19.951 224.796 19.7443C224.515 18.6331 224.208 17.7285 223.901 16.8239C223.251 17.1764 222.601 17.5288 221.818 17.9435Z" fill="white"/>
<path d="M161.486 10.8489C161.652 10.6925 161.817 10.5361 162.33 10.3976C162.99 10.3936 163.303 10.3716 163.616 10.3496C163.616 10.3496 163.751 10.3865 163.822 10.5954C163.971 11.8924 164.05 12.9807 164.129 14.0689C164.107 14.2563 164.085 14.4437 163.912 14.8379C163.465 15.5106 163.169 15.9766 162.535 16.9733C162.126 14.5858 161.806 12.7173 161.486 10.8489Z" fill="white"/>
<path d="M30.2944 12.3374C30.0944 11.9835 29.9659 11.7397 29.7803 11.4067C31.7742 11.2891 33.8253 11.2607 36.0677 11.2922C36.259 11.352 36.2267 11.3379 36.2202 11.3216C36.2999 11.7017 36.3861 12.098 36.2844 12.689C35.1152 12.9126 34.1338 12.9414 33.1525 12.9703C32.4632 12.9115 31.774 12.8527 30.9103 12.8014C30.6125 12.6885 30.4892 12.568 30.2944 12.3374ZM31.2445 11.6855C31.2248 11.6915 31.2445 11.6855 31.2445 11.6855V11.6855Z" fill="white"/>
<path d="M56.7278 16.168C53.6022 18.4505 52.6539 21.4281 54.1377 25.3235C51.4124 22.2987 52.5077 18.0922 56.7278 16.168Z" fill="white"/>
<path d="M33.2095 13.1076C34.1378 12.9425 35.1192 12.9137 36.3146 12.8926C36.5919 13.253 36.7832 13.6436 36.6927 13.951C36.4725 14.6989 36.1216 15.4081 35.8233 16.133C35.2749 15.6567 34.6792 15.2237 34.1932 14.6903C33.8125 14.2726 33.5677 13.7306 33.2095 13.1076Z" fill="white"/>
<path d="M61.5951 26.3431C60.8937 26.2399 60.1922 26.1367 59.3799 25.9339C60.9962 25.293 62.7235 24.7517 64.6701 24.1416C64.7036 26.1865 63.2553 26.7655 61.715 27.3245C61.6085 27.077 61.6168 26.8685 61.7112 26.5196C61.9587 26.3041 62.1201 26.2291 62.2816 26.154C62.2306 26.1205 62.1614 26.0467 62.1316 26.0602C61.9478 26.1436 61.7729 26.2466 61.5951 26.3431Z" fill="white"/>
<path d="M140.494 16.1426C142.901 18.9705 142.286 22.2333 141.942 25.5588C141.731 24.5346 141.594 23.3888 141.548 22.2393C141.48 20.5362 141.867 18.7376 140.174 17.4688C140.004 17.3409 140.302 16.5846 140.494 16.1426Z" fill="white"/>
<path d="M109.948 21.7432C109.979 21.9706 110.009 22.1981 110.055 22.5971C109.387 22.9408 108.636 22.9945 108.05 23.3332C107.736 23.5141 107.706 24.187 107.625 24.7704C106.659 24.8504 105.845 23.078 104.503 24.5613C104.612 23.8442 104.827 23.0578 104.985 22.1024C105.786 21.9402 106.643 21.9471 107.733 21.8722C108.627 21.7747 109.287 21.7589 109.948 21.7432Z" fill="white"/>
<path d="M83.5791 11.3264C84.8231 11.3014 86.0671 11.2764 87.5149 11.3965C87.7176 11.9031 87.7166 12.2645 87.7155 12.626C87.0013 13.1859 86.2872 13.7458 85.3841 14.2567C85.0888 14.0144 84.9824 13.8211 84.8571 13.4836C84.4185 12.6685 83.9988 11.9975 83.5791 11.3264Z" fill="white"/>
<path d="M161.359 10.9453C161.807 12.7175 162.127 14.586 162.536 16.9736C163.17 15.9768 163.467 15.5109 163.863 14.9709C163.757 15.8951 163.551 16.8932 163.344 17.8914C163.111 17.8929 162.879 17.8945 162.646 17.896C161.7 15.7346 160.474 13.6459 161.359 10.9453Z" fill="white"/>
<path d="M146.739 25.735C146.436 25.211 145.916 24.4895 145.884 23.7464C145.78 21.3921 145.858 19.0298 145.893 16.4658C146.187 17.0346 146.648 17.7989 146.686 18.5834C146.796 20.8938 146.738 23.2123 146.739 25.735Z" fill="white"/>
<path d="M60.8376 20.9705C61.7554 20.9198 62.6732 20.8691 63.8676 20.7579C64.2904 20.6762 64.4367 20.655 64.583 20.6338C63.9838 21.0042 63.4182 21.6009 62.7782 21.6962C61.5769 21.8751 60.3119 21.6342 59.1146 21.8262C58.4735 21.929 57.9183 22.5698 57.2411 23.1234C57.0195 22.8048 56.8813 22.3307 56.9569 21.657C58.393 21.2952 59.6153 21.1328 60.8376 20.9705Z" fill="white"/>
<path d="M151.531 27.2764C150.743 27.2764 149.955 27.2764 148.919 27.2764C148.919 26.0212 148.919 24.8231 148.919 23.625C149.184 23.4153 149.449 23.2057 149.713 22.9961C150.517 24.0775 151.322 25.1588 152.071 26.4981C151.855 26.9294 151.693 27.1029 151.531 27.2764Z" fill="white"/>
<path d="M134.133 25.7036C133.732 26.1612 133.342 26.4143 132.821 26.7116C132.895 24.0839 133.101 21.4121 133.338 18.5273C133.641 19.2056 134.074 20.0837 134.148 20.9912C134.269 22.4838 134.158 23.9954 134.133 25.7036Z" fill="white"/>
<path d="M158.196 19.6195C157.383 18.9768 156.659 18.183 155.898 17.271C155.862 16.9197 155.863 16.6864 155.858 16.2785C158.771 15.8745 158.948 16.1192 158.196 19.6195Z" fill="white"/>
<path d="M84.8751 13.6289C84.9814 13.8222 85.0878 14.0155 85.2652 14.3583C84.3945 15.9446 83.4525 17.3815 82.3755 18.8741C82.0003 18.9149 81.7603 18.9001 81.3403 18.8721C82.0521 17.3774 82.9437 15.8958 84.0243 14.2353C84.4339 13.9139 84.6545 13.7714 84.8751 13.6289Z" fill="white"/>
<path d="M225.498 27.3826C225.399 27.1232 225.42 26.8967 225.41 26.5065C225.381 26.3429 225.368 26.3544 225.49 26.3745C225.795 26.1373 225.978 25.8801 226.161 25.6229C226.763 25.0526 227.365 24.4824 227.967 23.9121C228.125 24.0884 228.282 24.2647 228.44 24.4409C228.228 26.0835 227.069 26.8803 225.498 27.3826Z" fill="white"/>
<path d="M238.198 18.4062C238.333 20.4986 238.333 22.6613 238.327 24.9967C236.62 23.0648 236.543 21.0545 238.198 18.4062Z" fill="white"/>
<path d="M113.846 18.3301C113.569 17.8453 113.351 17.2052 113.133 16.4068C114.042 16.286 114.95 16.3235 116.023 16.4112C116.189 16.4613 116.168 16.405 116.178 16.3913C115.426 16.9767 114.665 17.5758 113.846 18.3301Z" fill="white"/>
<path d="M26.209 25.7676C27.7131 25.9581 29.118 26.1438 30.7361 26.4076C30.9492 26.4857 30.9928 26.6873 30.9928 26.6873C29.3918 26.8652 27.7909 27.0431 25.9982 27.0447C25.8097 26.5855 25.813 26.3027 25.8163 26.0199C25.8821 25.8974 25.98 25.8117 26.209 25.7676Z" fill="white"/>
<path d="M176.753 26.6816C177.714 26.3883 178.269 25.8884 178.047 24.6582C178.842 25.2098 179.495 25.8694 179.977 26.616C179.482 26.8933 179.156 27.0835 178.831 27.2738C178.16 27.1141 177.489 26.9545 176.753 26.6816Z" fill="white"/>
<path d="M155.509 24.6816C156.2 25.11 156.84 25.7165 157.629 26.362C157.234 26.7385 156.691 27.076 155.911 27.2621C155.39 26.935 155.105 26.7594 154.821 26.5837C155.033 26.0091 155.246 25.4344 155.509 24.6816Z" fill="white"/>
<path d="M37.431 10.4788C37.1718 10.5547 36.9127 10.6305 36.5308 10.7727C36.7376 8.73084 38.1735 9.30404 39.5775 9.76057C39.5978 10.0852 39.5217 10.2154 39.2821 10.3146C38.5561 10.3486 37.9936 10.4137 37.431 10.4788Z" fill="white"/>
<path d="M139.477 27.3882C139.032 26.8436 138.683 26.3589 138.295 25.729C139.307 25.6231 140.358 25.6622 141.583 25.736C141.412 26.1802 141.066 26.5897 140.678 27.129C140.28 27.3219 139.927 27.3849 139.477 27.3882Z" fill="white"/>
<path d="M88.7331 20.2646C89.0835 21.6181 89.3291 23.0818 89.6445 24.7065C87.8158 23.743 88.183 22.0684 88.7331 20.2646Z" fill="white"/>
<path d="M93.5483 27.7325C93.8178 27.5261 94.1667 27.456 94.6464 27.3506C95.4023 27.3901 96.0274 27.4651 96.8073 27.585C95.931 28.8357 94.804 28.6968 93.5483 27.7325Z" fill="white"/>
<path d="M164.238 13.9622C164.051 12.9811 163.972 11.8929 163.873 10.6445C165.415 11.4026 164.987 12.6131 164.238 13.9622Z" fill="white"/>
<path d="M215.42 27.3145C214.937 26.7031 214.543 26.1261 214.151 25.3945C214.652 25.5374 215.243 25.7528 215.609 26.1671C215.79 26.3712 215.555 26.9433 215.42 27.3145Z" fill="white"/>
<path d="M84.8561 13.4851C84.6545 13.7717 84.4339 13.9142 84.0877 14.0943C83.6772 13.5389 83.3257 12.9664 83.1357 12.3443C83.0414 12.0357 83.2438 11.636 83.445 11.3027C83.9977 11.9989 84.4174 12.6699 84.8561 13.4851Z" fill="white"/>
<path d="M31.1316 26.6772C30.99 26.6879 30.9464 26.4864 30.9234 26.3858C30.7945 26.0748 30.6887 25.8642 30.6006 25.5361C31.3838 25.8636 32.1495 26.3087 32.9151 26.7537C32.8154 26.9271 32.7158 27.1005 32.6162 27.274C32.1685 27.0714 31.7208 26.8689 31.1316 26.6772Z" fill="white"/>
<path d="M89.6973 25.0361C90.715 25.6547 91.7042 26.4319 92.7794 27.3306C91.2031 27.5482 90.2235 26.6736 89.6973 25.0361Z" fill="white"/>
<path d="M64.6113 20.4663C64.4397 20.655 64.2934 20.6762 64.039 20.7166C63.6175 19.6334 63.3041 18.531 62.9629 17.2656C63.5022 18.1681 64.0694 19.2335 64.6113 20.4663Z" fill="white"/>
<path d="M149.222 18.0918C149.456 19.0858 149.553 20.155 149.664 21.4005C148.27 20.6511 148.157 19.4998 149.222 18.0918Z" fill="white"/>
<path d="M183.187 27.4471C181.977 27.5196 180.767 27.5922 179.613 27.4957C180.229 27.1022 180.789 26.8777 181.408 26.616C181.468 26.5788 181.592 26.6437 181.733 26.7554C182.311 27.0604 182.749 27.2537 183.187 27.4471Z" fill="white"/>
<path d="M188.454 24.1789C188.719 23.0794 189.122 21.9168 189.636 20.6621C189.361 21.752 188.976 22.9339 188.454 24.1789Z" fill="white"/>
<path d="M245.916 26.3214C245.215 26.2074 244.515 26.0935 243.705 25.8756C244.768 25.4933 245.94 25.215 247.33 24.9318C247.548 24.9269 247.675 25.0693 247.585 25.1756C246.96 25.6374 246.425 25.9928 245.897 26.3419C245.904 26.3356 245.916 26.3214 245.916 26.3214Z" fill="white"/>
<path d="M189.813 17.9463C189.279 16.9985 188.797 15.8886 188.312 14.6172C188.828 15.5651 189.347 16.6747 189.813 17.9463Z" fill="white"/>
<path d="M137.359 18.0417C136.715 17.4881 136.072 16.9345 135.39 16.2549C136.016 16.5502 136.681 16.9715 137.389 17.6083C137.408 17.8965 137.384 17.9691 137.359 18.0417Z" fill="white"/>
<path d="M96.4597 15.7148C95.4633 15.9141 94.3903 15.9894 93.1436 16.0348C94.1075 15.8669 95.2453 15.7289 96.4597 15.7148Z" fill="white"/>
<path d="M224.872 20.0659C225.621 19.9082 226.437 19.8637 227.457 19.8281C226.865 20.8409 225.96 20.9742 224.872 20.0659Z" fill="white"/>
<path d="M247.482 24.8577C247.927 24.6334 248.435 24.4812 248.943 24.3291C248.753 24.8459 248.563 25.3626 248.198 25.7888C247.905 25.4896 247.788 25.2809 247.671 25.0723C247.671 25.0723 247.544 24.9299 247.482 24.8577Z" fill="white"/>
<path d="M24.1748 12.7074C24.8452 12.5291 25.6853 12.3754 26.6739 12.3027C26.7982 12.5769 26.7738 12.7702 26.6927 13.0981C25.8721 13.0658 25.1082 12.8989 24.1748 12.7074Z" fill="white"/>
<path d="M132.636 17.6445C132.967 17.7547 133.152 17.914 133.356 18.1959C132.429 18.6356 131.483 18.9529 130.382 19.3144C130.982 18.8037 131.736 18.2487 132.636 17.6445Z" fill="white"/>
<path d="M104.242 17.6006C104.221 18.506 104.072 19.4789 103.905 20.6405C103.962 19.7755 104.038 18.7218 104.242 17.6006Z" fill="white"/>
<path d="M57.6025 27.5676C58.4857 27.4307 59.4799 27.397 60.6819 27.416C59.831 27.536 58.7722 27.6034 57.6025 27.5676Z" fill="white"/>
<path d="M223.978 16.9854C224.214 17.7279 224.52 18.6325 224.801 19.7286C224.533 18.9959 224.291 18.0717 223.978 16.9854Z" fill="white"/>
<path d="M241.928 27.5528C242.81 27.4305 243.807 27.4053 245.011 27.4402C244.16 27.5502 243.101 27.6 241.928 27.5528Z" fill="white"/>
<path d="M123.694 27.2491C123.558 27.0455 123.508 26.8977 123.456 26.633C124.173 26.2092 124.892 25.9023 125.775 25.5684C125.535 26.0119 125.132 26.4826 124.632 27.0505C124.284 27.2001 124.032 27.2524 123.694 27.2491Z" fill="white"/>
<path d="M25.6784 26.0244C25.8135 26.3023 25.8102 26.5851 25.8041 27.0094C25.3275 27.0189 24.8537 26.8868 24.3799 26.7546C24.7666 26.5129 25.1533 26.2711 25.6784 26.0244Z" fill="white"/>
<path d="M120.925 10.0191C120.252 10.1645 119.509 10.1766 118.579 10.2028C119.074 9.06937 119.905 9.03172 120.925 10.0191Z" fill="white"/>
<path d="M221.813 27.5458C222.562 27.425 223.424 27.3983 224.496 27.4282C223.779 27.5366 222.852 27.5882 221.813 27.5458Z" fill="white"/>
<path d="M54.1733 25.6338C54.8529 25.9624 55.5619 26.4345 56.3219 27.0397C55.6495 26.7077 54.9262 26.2425 54.1733 25.6338Z" fill="white"/>
<path d="M208.893 27.2795C209.16 26.8161 209.548 26.3647 210.044 25.8065C210.151 25.6998 210.145 25.7228 210.145 25.7228C210.38 25.9257 210.614 26.1286 210.925 26.468C210.339 26.8336 209.677 27.0625 208.893 27.2795Z" fill="white"/>
<path d="M227.915 19.5032C227.609 18.8095 227.388 18.0076 227.123 17.0381C227.385 17.712 227.693 18.5535 227.915 19.5032Z" fill="white"/>
<path d="M87.8448 12.6309C87.7182 12.2651 87.7193 11.9036 87.7036 11.4072C88.0256 11.4231 88.3642 11.5739 88.7028 11.7247C88.4593 12.0282 88.2158 12.3317 87.8448 12.6309Z" fill="white"/>
<path d="M212.152 27.4594C212.793 27.3516 213.548 27.3324 214.525 27.365C213.92 27.4605 213.093 27.5042 212.152 27.4594Z" fill="white"/>
<path d="M155.331 27.4301C154.494 27.4967 153.656 27.5633 152.936 27.4683C153.811 27.3479 154.571 27.389 155.331 27.4301Z" fill="white"/>
<path d="M154.908 15.9596C154.398 16.0797 153.777 16.1168 153.038 16.0804C153.546 15.9635 154.171 15.92 154.908 15.9596Z" fill="white"/>
<path d="M203.789 26.0039C204.257 26.2859 204.722 26.6885 205.256 27.2106C204.812 26.9282 204.299 26.5264 203.789 26.0039Z" fill="white"/>
<path d="M155.432 27.4455C154.572 27.3875 153.812 27.3464 152.83 27.367C152.333 27.4147 152.06 27.4008 151.659 27.3315C151.694 27.1026 151.855 26.9291 152.141 26.6271C153.01 26.5218 153.756 26.5452 154.663 26.575C155.107 26.7572 155.392 26.9329 155.797 27.224C155.803 27.421 155.675 27.4619 155.432 27.4455Z" fill="white"/>
<path d="M147.357 27.3889C147.104 26.9875 146.953 26.61 146.766 26.083C147.494 26.1682 148.388 26.3386 147.357 27.3889Z" fill="white"/>
<path d="M183.988 27.3934C184.423 27.0682 184.975 26.7884 185.687 26.5273C185.266 26.8437 184.685 27.1413 183.988 27.3934Z" fill="white"/>
<path d="M20.8364 15.0545C21.134 14.9826 21.3841 15.0098 21.8225 15.0497C21.7796 15.3518 21.5484 15.6411 21.3172 15.9304C21.1411 15.6714 20.965 15.4125 20.8364 15.0545Z" fill="white"/>
<path d="M146.032 12.728C145.878 12.3271 145.844 11.8685 145.809 11.2373C145.923 11.5999 146.038 12.1351 146.032 12.728Z" fill="white"/>
<path d="M221.403 16.168C221.494 16.3934 221.452 16.5839 221.382 16.8645C220.99 16.9762 220.626 16.9979 220.082 16.9896C220.357 16.6841 220.814 16.4086 221.403 16.168Z" fill="white"/>
<path d="M205.942 27.4981C206.472 27.3806 207.115 27.3492 208 27.3477C207.513 27.4464 206.785 27.5153 205.942 27.4981Z" fill="white"/>
<path d="M131.539 26.6728C131.09 26.422 130.693 26.0662 130.28 25.5742C130.705 25.8146 131.148 26.1912 131.539 26.6728Z" fill="white"/>
<path d="M39.4473 10.347C39.5234 10.2168 39.5996 10.0865 39.7195 9.85114C40.2286 9.75799 40.6938 9.76996 41.3309 9.74902C41.5362 9.8597 41.6016 9.98672 41.7414 10.1961C41.7319 10.3502 41.6799 10.4055 41.3468 10.5323C40.5262 10.5183 39.9867 10.4327 39.4473 10.347Z" fill="white"/>
<path d="M109.465 15.9791C109.098 16.0767 108.633 16.1 108.063 16.066C108.427 15.974 108.897 15.9395 109.465 15.9791Z" fill="white"/>
<path d="M225.386 26.3387C224.833 26.2309 224.274 26.1289 223.613 25.9274C224.037 25.7995 224.562 25.7709 225.23 25.9197C225.372 26.1834 225.369 26.2697 225.367 26.3559C225.367 26.3559 225.38 26.3445 225.386 26.3387Z" fill="white"/>
<path d="M59.7146 15.9209C59.3261 16.0578 58.8383 16.1094 58.2461 16.0844C58.6329 15.9504 59.1241 15.8931 59.7146 15.9209Z" fill="white"/>
<path d="M47.1293 15.681C46.7227 15.8302 46.2515 15.8659 45.6055 15.8673C45.9753 15.7444 46.52 15.656 47.1293 15.681Z" fill="white"/>
<path d="M246.011 27.369C245.925 27.1027 245.942 26.8796 245.935 26.4901C245.911 26.3236 245.899 26.3379 246.072 26.3845C246.612 26.473 246.978 26.5148 247.344 26.5566C246.934 26.8418 246.524 27.1271 246.011 27.369Z" fill="white"/>
<path d="M247.457 26.4961C246.982 26.5156 246.616 26.4738 246.069 26.3917C246.424 25.9959 246.96 25.6405 247.584 25.1787C247.791 25.2811 247.908 25.4898 248.068 25.8138C247.929 26.0977 247.747 26.2662 247.457 26.4961Z" fill="white"/>
<path d="M217.438 23.8145C217.737 24.1216 217.995 24.5349 218.237 25.1007C217.946 24.8089 217.672 24.3648 217.438 23.8145Z" fill="white"/>
<path d="M213.214 16.9289C212.814 16.8336 212.368 16.6123 211.855 16.2803C212.249 16.3807 212.708 16.5917 213.214 16.9289Z" fill="white"/>
<path d="M106.471 16.1533C106.158 16.4563 105.707 16.7414 105.112 17.0246C105.423 16.727 105.878 16.4312 106.471 16.1533Z" fill="white"/>
<path d="M214.099 18.3683C213.798 18.0945 213.531 17.7148 213.257 17.1904C213.544 17.4514 213.838 17.8569 214.099 18.3683Z" fill="white"/>
<path d="M218.097 18.7217C218.031 19.1273 217.854 19.5848 217.558 20.1381C217.62 19.7471 217.803 19.2604 218.097 18.7217Z" fill="white"/>
<path d="M137.41 18.1824C137.386 17.9688 137.41 17.8961 137.478 17.7168C137.739 17.9717 137.957 18.3333 138.109 18.7964C137.955 18.9013 137.868 18.9047 137.652 18.9112C137.501 18.7173 137.481 18.5203 137.41 18.1824Z" fill="white"/>
<path d="M203.368 24.1904C203.498 24.4738 203.525 24.8114 203.519 25.316C203.412 25.0702 203.339 24.6574 203.368 24.1904Z" fill="white"/>
<path d="M151.494 22.8754C151.768 22.8423 152.064 22.9089 152.411 23.0849C152.147 23.1212 151.831 23.0481 151.494 22.8754Z" fill="white"/>
<path d="M101.87 20.1087C101.63 19.8811 101.451 19.5497 101.278 19.0742C101.5 19.2883 101.715 19.6466 101.87 20.1087Z" fill="white"/>
<path d="M224.394 15.9183C224.122 16.0512 223.769 16.1002 223.329 16.0754C223.598 15.9459 223.955 15.8901 224.394 15.9183Z" fill="white"/>
<path d="M145.864 16.1308C145.542 16.1876 145.173 16.1301 144.681 16.0069C144.977 15.9662 145.397 15.9913 145.864 16.1308Z" fill="white"/>
<path d="M123.433 26.3693C123.078 26.2668 122.697 26.0182 122.271 25.6367C122.619 25.7436 123.013 25.9835 123.433 26.3693Z" fill="white"/>
<path d="M51.4608 26.3042C51.1116 26.2046 50.724 25.9693 50.311 25.5938C50.6646 25.6919 51.0435 25.9302 51.4608 26.3042Z" fill="white"/>
<path d="M181.355 26.6528C180.794 26.8773 180.234 27.1018 179.499 27.3933C179.236 27.4468 179.148 27.4332 178.946 27.3469C179.159 27.0838 179.484 26.8936 180.131 26.6224C180.753 26.5786 181.054 26.6157 181.355 26.6528Z" fill="white"/>
<path d="M144.976 10.073C144.768 10.0919 144.532 10.0097 144.214 9.82959C144.403 9.81173 144.676 9.89178 144.976 10.073Z" fill="white"/>
<path d="M183.269 27.4341C182.753 27.2543 182.315 27.0609 181.863 26.7259C182.021 26.5655 182.193 26.5468 182.536 26.5781C182.942 26.6437 183.178 26.6594 183.414 26.6751C183.421 26.7809 183.429 26.8867 183.447 27.1511C183.459 27.3097 183.346 27.4206 183.269 27.4341Z" fill="white"/>
<path d="M101.164 18.5376C100.924 18.4266 100.675 18.172 100.396 17.7852C100.629 17.8999 100.892 18.147 101.164 18.5376Z" fill="white"/>
<path d="M98.1626 27.4124C98.3072 27.1884 98.5942 26.9793 99.0165 26.7637C98.8695 26.9806 98.5872 27.2039 98.1626 27.4124Z" fill="white"/>
<path d="M220.07 26.9709C220.308 26.9537 220.571 27.0419 220.93 27.2338C220.716 27.2504 220.405 27.1633 220.07 26.9709Z" fill="white"/>
<path d="M240.19 26.9496C240.424 26.9357 240.681 27.026 241.027 27.2232C240.815 27.2379 240.514 27.1459 240.19 26.9496Z" fill="white"/>
<path d="M49.2384 16.7154C48.9796 16.6555 48.672 16.4535 48.2827 16.1367C48.5305 16.2057 48.86 16.3895 49.2384 16.7154Z" fill="white"/>
<path d="M62.1283 16.4912C61.8721 16.5235 61.5612 16.4325 61.1685 16.2472C61.4156 16.2245 61.7446 16.2962 62.1283 16.4912Z" fill="white"/>
<path d="M92.1787 16.6479C91.9875 16.7918 91.7966 16.8076 91.4634 16.8024C91.5424 16.5781 91.7637 16.3748 92.0745 16.2178C92.1691 16.3493 92.1741 16.4345 92.1787 16.6479Z" fill="white"/>
<path d="M99.0901 16.5801C98.8379 16.5621 98.5167 16.4198 98.1113 16.1709C98.3585 16.1948 98.6898 16.3253 99.0901 16.5801Z" fill="white"/>
<path d="M143.207 9.72656C143.083 9.9174 142.875 10.0501 142.539 10.1818C142.649 10.0101 142.887 9.83924 143.207 9.72656Z" fill="white"/>
<path d="M163.535 10.2708C163.301 10.3715 162.988 10.3935 162.443 10.374C162.626 10.2856 163.041 10.2389 163.535 10.2708Z" fill="white"/>
<path d="M151.282 16.0967C151.149 16.339 150.869 16.5666 150.452 16.8017C150.588 16.5668 150.862 16.3244 151.282 16.0967Z" fill="white"/>
<path d="M117.796 10.6533C117.787 10.9219 117.65 11.2619 117.406 11.693C117.422 11.431 117.544 11.0779 117.796 10.6533Z" fill="white"/>
<path d="M205.415 21.7061C205.279 21.9351 204.995 22.1665 204.575 22.4237C204.715 22.2025 204.991 21.9554 205.415 21.7061Z" fill="white"/>
<path d="M121.371 13.5576C121.402 13.3432 121.541 13.1228 121.801 12.8467C121.774 13.0445 121.626 13.298 121.371 13.5576Z" fill="white"/>
<path d="M153.351 23.547C153.621 23.5171 153.973 23.5993 154.396 23.805C154.123 23.8386 153.778 23.7489 153.351 23.547Z" fill="white"/>
<path d="M21.2772 11.4072C21.2831 11.6529 21.1749 11.9066 20.9731 12.263C20.9741 12.0488 21.0686 11.7321 21.2772 11.4072Z" fill="white"/>
<path d="M101.483 24.1515C101.457 23.9367 101.53 23.6965 101.699 23.3701C101.724 23.5646 101.653 23.8453 101.483 24.1515Z" fill="white"/>
<path d="M100.481 25.7412C100.523 25.4889 100.703 25.1984 100.991 24.835C100.939 25.0757 100.779 25.3893 100.481 25.7412Z" fill="white"/>
<path d="M158.61 25.8602C158.599 25.6425 158.691 25.404 158.897 25.0996C158.912 25.3023 158.813 25.5709 158.61 25.8602Z" fill="white"/>
<path d="M187.013 25.7532C187.089 25.5206 187.291 25.2768 187.614 25.0078C187.536 25.2357 187.338 25.4889 187.013 25.7532Z" fill="white"/>
<path d="M187.69 13.5787C187.461 13.5151 187.214 13.3221 186.927 13.0137C187.15 13.082 187.411 13.2657 187.69 13.5787Z" fill="white"/>
<path d="M89.4839 18.5049C89.4919 18.728 89.3947 18.9665 89.1797 19.2685C89.1674 19.0613 89.2731 18.7909 89.4839 18.5049Z" fill="white"/>
<path d="M118.391 13.7866C118.6 13.7628 118.84 13.8363 119.16 14.0114C118.966 14.0366 118.694 13.9603 118.391 13.7866Z" fill="white"/>
<path d="M120.208 14.16C120.338 13.9806 120.55 13.8549 120.889 13.7324C120.775 13.895 120.533 14.0543 120.208 14.16Z" fill="white"/>
<path d="M142.402 13.8429C142.612 13.7998 142.855 13.851 143.182 13.998C142.989 14.0416 142.713 13.9894 142.402 13.8429Z" fill="white"/>
<path d="M238.504 25.6025C238.747 25.6856 239.014 25.8989 239.306 26.2442C239.064 26.1617 238.797 25.9473 238.504 25.6025Z" fill="white"/>
<path d="M248.807 19.2755C248.594 19.1202 248.411 18.8302 248.246 18.4062C248.455 18.5618 248.646 18.8513 248.807 19.2755Z" fill="white"/>
<path d="M99.5298 26.6177C99.6191 26.3752 99.8476 26.1157 100.203 25.8193C100.11 26.0552 99.8894 26.328 99.5298 26.6177Z" fill="white"/>
<path d="M225.491 26.3756C225.371 26.2693 225.374 26.183 225.384 25.9674C225.561 25.7876 225.731 25.737 226.031 25.6553C225.979 25.8813 225.795 26.1385 225.491 26.3756Z" fill="white"/>
<path d="M111.24 31.0435C111.97 31.121 112.701 31.1985 113.576 31.2984C110.533 33.1594 107.302 32.9115 103.95 31.3945C104.71 30.8954 106.059 32.5799 106.712 30.5156C108.335 30.6155 109.787 30.8295 111.24 31.0435Z" fill="white"/>
<path d="M39.2879 10.3154C39.9908 10.4322 40.5302 10.5178 41.2717 10.6135C41.4967 15.1209 41.5657 19.6189 41.4947 24.1146C41.4836 24.8162 40.8344 25.5076 40.4803 26.2038C40.0853 25.4772 39.3772 24.7625 39.3493 24.0221C39.2233 20.6847 39.4209 17.3319 39.2153 14.0025C39.1451 12.8674 38.2357 11.7843 37.5732 10.5786C37.9993 10.4146 38.5619 10.3494 39.2879 10.3154Z" fill="white"/>
<path d="M184.948 15.0374C184.731 14.8873 184.547 14.6024 184.375 14.1865C184.585 14.3379 184.783 14.6203 184.948 15.0374Z" fill="white"/>
<path d="M185.303 17.5046C185.18 17.3494 185.113 17.1129 185.099 16.7939C185.221 16.9488 185.29 17.186 185.303 17.5046Z" fill="white"/>
<path d="M183.543 25.8337C183.608 25.588 183.807 25.3091 184.128 24.9814C184.06 25.222 183.868 25.5112 183.543 25.8337Z" fill="white"/>
<path d="M184.232 13.6058C183.987 13.5201 183.731 13.2959 183.441 12.9453C183.678 13.035 183.95 13.2511 184.232 13.6058Z" fill="white"/>
<path d="M185.222 22.017C185.134 21.8273 185.115 21.5725 185.166 21.2061C185.254 21.3803 185.272 21.6661 185.222 22.017Z" fill="white"/>
<path d="M179.848 12.1592C179.757 12.4086 179.567 12.605 179.247 12.8474C179.113 12.7602 179.116 12.6272 179.128 12.3991C179.338 12.2379 179.544 12.1721 179.848 12.1592Z" fill="white"/>
<path d="M182.541 26.5764C182.633 26.3167 182.896 26.107 183.287 25.8809C183.42 26.0446 183.426 26.2248 183.425 26.5392C183.182 26.6577 182.947 26.642 182.541 26.5764Z" fill="white"/>
<path d="M193.547 24.8247C193.532 22.7328 193.433 20.8289 193.582 18.9447C193.631 18.3353 194.329 17.7776 194.731 17.1963C195.192 17.7921 195.994 18.3571 196.051 18.9896C196.221 20.8696 196.18 22.7825 196.039 24.6687C195.996 25.2347 195.354 25.7556 194.987 26.2971C194.511 25.8715 194.035 25.4459 193.547 24.8247Z" fill="white"/>
<path d="M111.381 30.9822C111.318 30.861 111.406 30.7546 111.648 30.667C111.703 30.784 111.614 30.8877 111.381 30.9822Z" fill="white"/>
<path d="M56.7822 19.9444C57.9204 19.8615 59.0435 19.9569 60.3377 20.0222C60.5793 20.2106 60.6496 20.429 60.778 20.8087C59.6139 21.1324 58.3917 21.2947 57.0014 21.5056C56.8113 21.0769 56.7892 20.5998 56.7822 19.9444Z" fill="white"/>
<path d="M56.9876 18.4482C57.0348 18.657 56.9889 18.9034 56.8568 19.2445C56.8119 19.0548 56.8533 18.7703 56.9876 18.4482Z" fill="white"/>
<path d="M178.485 13.251C178.21 14.3656 177.793 15.5327 177.266 16.8002C177.551 15.7016 177.947 14.5025 178.485 13.251Z" fill="white"/>
<path d="M110.239 21.4512C110.253 21.1859 110.387 20.8384 110.625 20.3916C110.605 20.6512 110.483 21.0101 110.239 21.4512Z" fill="white"/>
<path d="M92.7202 19.4209C92.8612 20.8034 92.8879 22.2933 92.8765 23.9831C92.7609 22.6314 92.6834 21.0798 92.7202 19.4209Z" fill="white"/>
<path d="M93.4316 17.625C93.4267 17.836 93.3184 18.0683 93.104 18.3776C93.108 18.1851 93.2181 17.9157 93.4316 17.625Z" fill="white"/>
<path d="M92.9673 25.1318C93.1744 25.2305 93.3417 25.4222 93.5288 25.742C93.3416 25.655 93.1345 25.4399 92.9673 25.1318Z" fill="white"/>
<path d="M31.2354 11.6883C31.2267 11.6909 31.2441 11.6856 31.2354 11.6883V11.6883Z" fill="white"/>
<path d="M61.5903 26.3422C61.7676 26.2447 61.9425 26.1416 62.1263 26.0583C62.156 26.0448 62.2253 26.1186 62.2762 26.152C62.1148 26.2271 61.9533 26.3022 61.6927 26.3617C61.5934 26.346 61.5909 26.3433 61.5903 26.3422Z" fill="white"/>
</svg>
