<svg width="186" height="60" viewBox="0 0 186 60" fill="none" xmlns="http://www.w3.org/2000/svg">
<g clipPath="url(#clip0_2456_3459)">
<path d="M46.5069 22.5281C47.189 24.6451 47.8543 26.693 48.5795 28.9255C49.3856 26.3327 50.1565 23.9494 50.8629 21.547C51.319 19.9954 51.1093 19.7147 49.5216 19.3861C49.788 19.0388 51.3309 18.9262 52.9523 19.1357C52.9634 19.192 52.9971 19.2891 52.9803 19.299C51.4009 20.2211 51.3682 21.9574 50.8802 23.4234C49.9825 26.1201 49.195 28.8536 48.3563 31.5702C48.2922 31.7779 48.1871 31.9728 48.101 32.1736C48.0082 32.1835 47.9155 32.1934 47.8227 32.2033C46.8017 29.1747 45.7807 26.1461 44.6824 22.8883C43.6835 26.126 42.7458 29.165 41.7326 32.4491C41.4869 32.0452 41.3579 31.8993 41.3006 31.7291C40.1561 28.3281 39.0093 24.9279 37.8892 21.5187C37.5867 20.5978 37.3999 19.6287 36.3611 19.1265C37.6847 19.1265 39.0083 19.1265 40.3392 19.1265C40.3392 19.227 40.3511 19.3319 40.3375 19.3353C39.345 19.5851 39.3991 20.2081 39.6677 21.0047C40.5332 23.5723 41.3555 26.1544 42.2614 28.9368C43.015 26.5512 43.8555 24.3892 44.3239 22.1488C44.4982 21.315 44.0775 20.1677 43.1572 19.5272C43.0297 19.4385 42.9178 19.3272 42.6924 19.1364C44.2507 19.1364 45.655 19.1364 47.0892 19.1364C47.0414 19.2873 47.0345 19.3816 47.0059 19.3888C45.6933 19.7165 45.6244 19.8477 46.0707 21.1932C46.2106 21.6151 46.3503 22.0371 46.5069 22.5281Z" fill="white"/>
<path d="M152.797 30.2971C152.801 27.0058 152.791 23.7968 152.811 20.5879C152.815 19.8891 152.534 19.5395 151.854 19.4736C151.698 19.4586 151.548 19.3898 151.273 19.3106C151.457 19.1646 151.537 19.0465 151.616 19.0468C153.599 19.0542 155.585 19.0184 157.565 19.1105C158.988 19.1767 160.181 19.8497 160.674 21.2418C161.094 22.4298 160.824 23.6376 159.868 24.5094C159.301 25.0257 158.553 25.3417 157.875 25.7552C159.544 25.9502 159.932 27.3179 160.238 28.7604C160.373 29.3987 160.505 30.0431 160.713 30.6595C161.023 31.5803 161.486 31.6638 162.187 30.9836C162.281 30.8916 162.393 30.8174 162.673 30.5952C162.591 31.5011 162.087 31.8442 161.556 32.0639C160.413 32.5371 159.252 31.9651 158.897 30.7574C158.597 29.7351 158.412 28.6792 158.122 27.6537C157.664 26.0371 157.435 25.884 155.764 25.8704C155.415 25.8676 155.065 25.87 154.662 25.87C154.662 27.4349 154.651 28.9378 154.668 30.4404C154.675 31.0649 154.987 31.4316 155.654 31.4387C155.809 31.4404 155.963 31.5258 156.109 31.7915C154.559 31.7915 153.01 31.7915 151.343 31.7915C151.713 31.1966 153.062 31.5208 152.797 30.2971ZM154.607 22.079C154.607 23.1692 154.607 24.2594 154.607 25.3704C155.071 25.3704 155.426 25.3773 155.78 25.3693C158.438 25.3091 159.649 23.4515 158.668 20.945C158.234 19.8373 156.852 19.1807 155.463 19.486C154.319 19.7374 154.744 20.7367 154.611 21.4615C154.585 21.6054 154.607 21.7583 154.607 22.079Z" fill="white"/>
<path d="M82.1201 26.517C82.6106 28.4546 82.0047 30.0775 80.4288 31.1661C78.0513 32.8085 73.8803 32.4342 71.8461 30.3959C70.3326 28.8793 70.339 26.2999 71.8796 24.8839C72.1344 24.6496 72.4711 24.505 72.77 24.319C72.8222 24.3764 72.8744 24.4338 72.9267 24.4912C72.8465 24.6579 72.7818 24.8343 72.6839 24.9896C71.5898 26.7254 72.0694 28.8578 73.8054 29.955C75.5551 31.0608 78.7249 30.9718 80.4035 29.7698C82.084 28.5663 82.0968 26.0929 80.4167 25.1467C80.2009 25.0251 79.8933 24.896 79.6865 24.96C78.8178 25.229 77.957 25.5366 77.1211 25.8954C76.4587 26.1797 76.0523 26.7185 76.302 27.4655C76.5611 28.2404 77.2433 28.4809 77.9979 28.4988C78.2275 28.5042 78.4595 28.4103 78.7843 28.3422C78.6158 28.1808 78.3999 28.0729 78.3687 27.9257C78.2795 27.5032 78.0795 26.9236 78.2708 26.6704C78.4824 26.3903 79.1562 26.2112 79.4858 26.3444C79.7952 26.4694 80.12 27.0795 80.084 27.4407C79.9895 28.3917 79.1967 28.6838 78.3685 28.8328C77.2394 29.0359 76.1352 28.5241 75.7442 27.6249C75.3194 26.6481 75.5791 25.5371 76.5226 24.8585C77.0845 24.4545 77.749 24.1643 78.4049 23.9276C79.8486 23.4066 81.3397 23.0125 82.7662 22.4508C83.8965 22.0058 84.3015 21.235 84.0663 20.4064C83.823 19.5489 82.9446 19.0614 81.8128 19.1558C82.2521 20.3065 82.0322 20.9137 81.1105 20.891C80.7453 20.8821 80.1449 20.6033 80.0852 20.346C79.9996 19.9767 80.1869 19.3736 80.4756 19.1186C81.3615 18.3361 83.4863 18.6938 84.2648 19.6624C85.0339 20.6193 84.8616 22.3757 83.8558 23.2046C83.4324 23.5535 82.9118 23.7999 82.4061 24.0273C81.8444 24.2799 81.2492 24.4577 80.754 24.6372C81.2061 25.2445 81.6538 25.8459 82.1201 26.517Z" fill="white"/>
<path d="M34.8627 20.497C36.8316 23.0643 36.968 27.1309 35.2167 29.7582C33.8382 31.8262 31.3101 32.6657 28.6843 31.9275C26.604 31.3427 24.969 29.1791 24.8454 26.7454C24.7562 24.9887 24.8098 23.2656 25.6666 21.6223C27.5617 17.9877 32.7488 17.9159 34.8627 20.497ZM30.4879 31.7653C31.7607 31.7943 32.7414 31.2393 33.3357 30.1402C34.9065 27.2351 34.9529 24.2337 33.5819 21.2639C32.9694 19.9372 31.8852 19.0139 30.2931 19.1352C28.7881 19.2499 27.9351 20.2891 27.4119 21.5753C26.5105 23.7909 26.4397 26.0979 27.0941 28.3755C27.5679 30.0248 28.4508 31.4166 30.4879 31.7653Z" fill="white"/>
<path d="M101.884 26.0639C101.764 23.8794 102.239 21.9882 103.68 20.3785C106.095 17.6808 111.768 18.0655 113.09 22.5451C113.754 24.7979 113.737 27.0671 112.61 29.2084C111.463 31.3861 109.413 32.4363 106.813 32.1366C104.453 31.8647 102.948 30.4804 102.233 28.2488C102.019 27.5808 101.995 26.8514 101.884 26.0639ZM108.264 19.162C106.497 19.0126 105.324 19.6189 104.6 21.3366C103.456 24.0492 103.372 26.8228 104.664 29.5221C104.972 30.1647 105.484 30.7842 106.054 31.2104C107.683 32.4297 109.811 31.6922 110.745 29.5871C111.852 27.0909 111.895 24.5157 110.987 21.952C110.537 20.6826 109.736 19.6695 108.264 19.162Z" fill="white"/>
<path d="M136.941 23.7595C136.941 26.6052 136.941 29.3616 136.941 32.1181C136.858 32.1657 136.776 32.2133 136.694 32.2609C136.471 32.0092 136.209 31.7824 136.03 31.502C133.818 28.0216 131.618 24.5334 129.415 21.0475C129.326 20.9071 129.234 20.7692 128.989 20.3936C128.989 21.3163 128.989 21.9714 128.989 22.6264C128.987 24.7092 128.984 26.792 128.984 28.8748C128.985 30.9984 128.986 30.9984 130.668 31.9512C129.457 31.9512 128.246 31.9512 127.035 31.9512C126.97 31.8673 126.905 31.7833 126.841 31.6994C128.759 31.6624 128.524 30.3701 128.525 29.2254C128.527 26.5476 128.523 23.8698 128.517 21.1921C128.513 19.7137 128.479 19.6782 127.039 19.3992C127.039 19.3431 127.036 19.2348 127.039 19.2346C128.077 19.1774 129.115 19.1058 130.153 19.1027C130.296 19.1023 130.458 19.4306 130.582 19.6255C132.426 22.5288 134.264 25.4355 136.107 28.3398C136.162 28.4262 136.245 28.4946 136.413 28.6795C136.413 25.8828 136.43 23.2233 136.405 20.5641C136.396 19.5423 135.527 19.5456 134.802 19.4071C135.151 19.0064 137.757 18.9355 138.548 19.3844C136.698 19.4421 136.948 20.6928 136.942 21.7956C136.938 22.4205 136.941 23.0454 136.941 23.7595Z" fill="white"/>
<path d="M56.1078 21.4904C56.1058 24.1312 56.1035 26.6887 56.1052 29.2462C56.1064 31.1742 56.1086 31.1742 57.7212 31.9311C56.5309 31.9311 55.3406 31.9311 54.1502 31.9311C54.1014 31.8521 54.0525 31.7732 54.0037 31.6942C55.6817 31.6748 55.6142 30.5389 55.6167 29.4617C55.623 26.8447 55.6177 24.2276 55.6192 21.6106C55.6201 19.884 55.6217 19.884 54.1343 19.1432C54.4674 19.1196 54.8095 19.1367 55.1323 19.0654C56.8447 18.6871 57.7704 19.5095 58.5913 20.9582C60.0479 23.5287 61.7132 25.98 63.3959 28.6473C63.4509 28.293 63.5012 28.117 63.5021 27.9408C63.5141 25.681 63.4772 23.4198 63.5426 21.1616C63.5783 19.9294 63.008 19.3878 61.7049 19.423C61.7591 19.3359 61.8134 19.2488 61.8676 19.1617C63.0506 19.1617 64.2337 19.1617 65.4225 19.1617C65.4173 19.2474 65.4264 19.3499 65.4087 19.3548C63.7914 19.8037 64.0472 20.2304 64.0352 21.4819C64.0015 25.0174 64.0234 28.5534 63.8258 32.2499C63.5832 31.9997 63.2892 31.7824 63.1059 31.4942C60.9418 28.0935 58.795 24.6818 56.641 21.2746C56.5208 21.0845 56.3782 20.9087 56.1093 20.5376C56.1093 20.9771 56.1093 21.192 56.1078 21.4904Z" fill="white"/>
<path d="M124.298 20.2944C124.26 22.4245 124.246 24.475 124.201 26.5248C124.185 27.2943 124.156 28.0723 124.03 28.8292C123.544 31.7418 121.455 32.486 118.99 32.0814C116.933 31.7438 115.836 30.2739 115.787 27.9037C115.742 25.7036 115.773 23.5019 115.77 21.301C115.767 19.7409 115.741 19.7058 114.354 19.2088C115.889 19.2088 117.424 19.2088 118.96 19.2088C118.952 19.2578 118.956 19.3561 118.932 19.3636C117.41 19.8405 117.54 19.4681 117.549 21.3712C117.563 23.9548 117.577 26.5419 117.722 29.1202C117.798 30.4819 118.599 31.259 119.676 31.4213C121.306 31.6667 122.612 31.1655 123.097 29.862C123.462 28.8827 123.63 27.7957 123.693 26.7451C123.789 25.1448 123.743 23.5339 123.712 21.9284C123.67 19.8063 123.787 19.9111 122.045 19.1689C123.226 19.1689 124.408 19.1689 125.598 19.1689C125.135 19.5444 124.723 19.8795 124.298 20.2944Z" fill="white"/>
<path d="M91.6018 25.852C91.9146 27.1891 92.0881 28.502 92.5674 29.6907C93.1678 31.1797 94.7661 31.9262 96.2714 31.6879C98.1654 31.3882 99.1047 30.4636 99.4166 28.6147C99.4843 28.213 99.5997 27.8193 99.6932 27.4219C99.8074 27.445 99.9217 27.4681 100.036 27.4911C100.036 28.9667 100.036 30.4423 100.036 32.1291C99.8195 31.8662 99.6313 31.7436 99.6167 31.6028C99.5193 30.6654 99.1047 30.8934 98.5596 31.2491C96.6146 32.5182 94.5634 32.5227 92.5817 31.4499C90.6371 30.3972 89.8686 28.5563 89.786 26.4102C89.7289 24.9253 89.7642 23.4656 90.3913 22.0483C91.8804 18.6822 96.0344 17.7278 98.7467 19.732C98.8871 19.8358 99.031 19.9348 99.2735 20.1073C99.4812 19.6697 99.6651 19.2821 99.8489 18.8945C99.92 18.9198 99.991 18.9452 100.062 18.9705C100.062 20.3699 100.062 21.7693 100.062 23.1687C99.9906 23.208 99.9192 23.2472 99.8478 23.2865C99.7258 23.0766 99.5696 22.8792 99.4884 22.6546C99.2693 22.0483 99.1862 21.3671 98.8617 20.8295C98.0419 19.4715 96.7121 19.0176 95.2035 19.1443C93.7007 19.2707 92.7571 20.2696 92.3527 21.5989C91.9442 22.942 91.8372 24.3776 91.6018 25.852Z" fill="white"/>
<path d="M144.015 29.8892C144.028 26.3946 144.028 22.9786 144.028 19.483C143.76 19.483 143.532 19.4826 143.305 19.483C141.31 19.487 140.726 20.0118 140.481 21.9912C140.441 22.3086 140.33 22.617 140.252 22.9296C140.145 22.9094 140.039 22.8892 139.932 22.8689C139.932 22.2407 139.948 21.6118 139.928 20.9842C139.907 20.3656 139.85 19.7482 139.806 19.0762C143.176 19.0762 146.509 19.0762 149.886 19.0762C149.886 20.3403 149.886 21.5772 149.886 23.0298C149.628 22.8081 149.46 22.7122 149.367 22.5674C149.294 22.4539 149.319 22.2791 149.294 22.1328C148.88 19.7302 148.329 19.31 145.788 19.5502C145.788 19.9687 145.788 20.4024 145.788 20.8362C145.788 23.5738 145.788 26.3115 145.788 29.0492C145.788 31.0322 145.787 31.0322 147.57 31.7086C145.778 31.7086 143.987 31.7086 142.195 31.7086C143.02 31.3631 144.125 31.3061 144.015 29.8892Z" fill="white"/>
<path d="M168.252 28.7566C168.252 29.0823 168.252 29.3203 168.252 29.5583C168.254 31.1203 168.254 31.1203 169.663 31.6945C168.1 31.6945 166.537 31.6945 164.952 31.6945C164.988 31.6009 164.995 31.5132 165.029 31.5019C166.466 31.0172 166.404 31.0145 166.489 29.5007C166.573 28.0056 166.282 26.685 165.471 25.3957C164.526 23.8924 163.787 22.2597 162.912 20.7092C162.603 20.1618 162.159 19.6913 161.732 19.127C163.136 19.127 164.536 19.127 165.956 19.127C165.927 19.2771 165.929 19.3737 165.904 19.3816C164.443 19.8358 164.426 19.8997 165.174 21.3117C166.047 22.9605 166.901 24.6195 167.832 26.4052C168.734 24.5615 169.628 22.8549 170.408 21.0971C170.878 20.0369 170.592 19.751 168.987 19.201C170.162 19.201 171.338 19.201 172.572 19.201C170.712 20.8007 170.193 23.2002 168.958 25.1716C168.268 26.2722 168.182 27.4416 168.252 28.7566Z" fill="white"/>
<path d="M14.1623 20.785C14 21.5268 13.8603 22.2014 13.7207 22.876C13.6492 22.8712 13.5778 22.8665 13.5063 22.8618C13.5063 21.6318 13.5063 20.4018 13.5063 19.0977C16.6934 19.0977 19.962 19.0977 23.2615 19.0977C23.2615 20.3405 23.2615 21.5926 23.2615 22.8446C23.1929 22.8722 23.1243 22.8997 23.0557 22.9273C22.9513 22.7696 22.7972 22.6244 22.7537 22.4513C22.6819 22.1662 22.7014 21.8594 22.6482 21.5681C22.3638 20.0114 21.7655 19.5077 20.1796 19.4758C19.884 19.4699 19.5881 19.4749 19.2607 19.4749C19.2291 19.6012 19.1781 19.7103 19.178 19.8194C19.1731 23.1809 19.1631 26.5425 19.1784 29.904C19.1833 31.0009 19.4271 31.2446 20.4921 31.4209C20.6533 31.4476 20.8133 31.4814 20.9639 31.7034C19.1845 31.7034 17.4051 31.7034 15.6008 31.7034C15.6368 31.5893 15.6467 31.4939 15.671 31.49C17.1528 31.2563 17.4177 31.4517 17.4162 29.2972C17.414 26.0584 17.4156 22.8195 17.4156 19.5922C15.7162 19.2665 14.7682 19.6062 14.1623 20.785Z" fill="white"/>
<path d="M147.858 41.7398C147.63 41.8217 147.404 41.9686 147.174 41.9757C144.513 42.0583 141.85 42.1073 139.189 42.1895C134.755 42.3265 130.321 42.4751 125.888 42.6373C125.428 42.6541 125.217 42.5144 125.223 42.0537C125.228 41.6457 125.224 41.2376 125.224 40.6758C132.763 40.9266 140.201 41.1741 147.728 41.5071C147.83 41.6417 147.844 41.6907 147.858 41.7398ZM132.768 41.2553C130.392 41.2553 128.016 41.2553 125.633 41.2553C125.495 42.2319 125.727 42.4628 126.698 42.2756C126.957 42.2257 127.219 42.1607 127.48 42.1562C131.406 42.0883 135.333 42.0445 139.259 41.9587C140.347 41.935 141.432 41.7934 142.518 41.7059C142.515 41.6304 142.513 41.5549 142.51 41.4794C139.321 41.4048 136.132 41.3302 132.768 41.2553Z" fill="white"/>
<path d="M38.3665 41.442C45.6727 41.1844 52.979 40.9268 60.3749 40.666C60.3749 41.3563 60.3749 41.9532 60.3749 42.6133C53.0766 42.4 45.8062 42.1875 38.4369 41.9218C38.3475 41.7264 38.357 41.5842 38.3665 41.442ZM48.6994 41.3436C46.8411 41.3926 44.9827 41.4416 43.1244 41.4906C44.1209 41.7866 45.1203 41.9241 46.1231 41.9571C48.8077 42.0454 51.494 42.0834 54.1794 42.152C55.8889 42.1957 57.5981 42.2531 59.3071 42.3159C59.7492 42.3321 60.0545 42.2448 60.0903 41.7151C60.1262 41.1825 59.8715 41.0582 59.3997 41.0692C55.8862 41.1508 52.3723 41.2188 48.6994 41.3436Z" fill="white"/>
<path d="M75.9837 20.6448C76.2162 20.307 76.4268 20.0363 76.6257 19.7806C75.9823 19.309 74.8654 19.3131 74.2109 19.8624C73.5274 20.4362 73.3073 21.6906 73.7445 22.6513C74.0157 23.2472 74.3527 23.7566 75.1557 23.465C75.3122 23.4081 75.537 23.3936 75.675 23.4658C75.9027 23.585 76.0853 23.7907 76.2869 23.96C76.0541 24.0744 75.8113 24.3037 75.5902 24.2842C74.4173 24.1808 73.429 23.6583 72.7082 22.7208C71.9396 21.7209 72.1426 20.3794 73.1919 19.6805C74.4137 18.8667 75.7352 18.8157 77.0495 19.4531C77.3436 19.5957 77.6651 19.89 77.7611 20.1844C77.8917 20.5847 77.9755 21.1503 77.7836 21.4613C77.6148 21.7349 77.0217 21.9008 76.6476 21.8549C76.0725 21.7844 75.8552 21.2988 75.9837 20.6448Z" fill="white"/>
<path d="M77.3027 40.3182C77.6042 39.4997 77.9934 39.8498 78.29 40.2077C78.8491 40.8824 79.3564 41.6004 80.0519 42.5211C80.0519 41.6729 80.0785 41.0709 80.0445 40.4723C80.0101 39.8648 80.2855 39.7513 80.8388 39.9136C80.8388 41.2643 80.8388 42.6196 80.8388 44.0303C79.9588 44.2859 79.8093 43.4551 79.4237 43.0331C78.9873 42.5555 78.6186 42.0157 78.1034 41.3522C78.1034 42.347 78.1034 43.18 78.1034 44.0553C77.7911 44.0553 77.5736 44.0553 77.3036 44.0553C77.3036 42.8217 77.3036 41.6082 77.3027 40.3182Z" fill="white"/>
<path d="M103.276 39.8916C103.946 39.9769 104.627 39.9355 105.126 40.2187C106.205 40.831 106.171 41.5852 105.972 42.6957C105.82 43.5475 104.76 44.1268 103.735 44.0834C102.678 44.0385 101.85 43.4125 101.636 42.4965C101.395 41.4598 101.821 40.5387 102.783 40.0413C102.912 39.9747 103.064 39.954 103.276 39.8916ZM102.48 41.6225C102.353 42.2752 102.519 42.8993 103.14 43.1013C103.607 43.2536 104.304 43.2417 104.675 42.9813C104.999 42.7538 105.228 42.0044 105.1 41.619C104.957 41.1874 104.414 40.732 103.956 40.6011C103.312 40.417 102.782 40.8288 102.48 41.6225Z" fill="white"/>
<path d="M96.0669 40.3946C97.6884 39.2829 99.6672 39.9921 99.8084 41.6739C99.9009 42.7753 99.4563 43.5883 98.5876 43.9067C97.454 44.3221 96.2448 43.9906 95.661 43.1044C95.1102 42.2682 95.2371 41.3152 96.0669 40.3946ZM96.5101 42.7952C97.2929 43.4611 98.0719 43.505 98.6058 42.9133C99.1503 42.3098 99.129 41.4655 98.5205 40.941C98.0021 40.4942 97.4321 40.3851 96.8326 40.8193C96.1382 41.3221 96.0622 41.9561 96.5101 42.7952Z" fill="white"/>
<path d="M111.616 42.6988C111.271 43.6859 110.514 43.981 109.661 44.0713C109.084 44.1325 108.495 44.083 107.854 44.083C107.854 42.6812 107.854 41.3343 107.854 39.9857C110.301 39.4965 112.059 40.1982 111.616 42.6988ZM110.791 41.6077C110.346 40.64 109.898 40.4406 108.674 40.6589C108.674 41.5336 108.674 42.4052 108.674 43.2715C110.327 43.3803 110.766 43.059 110.791 41.6077Z" fill="white"/>
<path d="M114.158 39.9326C114.907 39.9605 115.589 40.0167 116.467 40.089C116.204 40.5323 116.081 40.7385 115.995 40.8834C115.488 40.7684 115.07 40.6285 114.645 40.6016C114.497 40.5922 114.277 40.8364 114.198 41.0135C114.165 41.0862 114.39 41.3533 114.545 41.4176C114.924 41.5744 115.409 41.5663 115.703 41.8069C116.045 42.0866 116.446 42.5757 116.42 42.9461C116.395 43.3073 115.927 43.7869 115.543 43.9435C114.698 44.2888 113.886 44.0189 113.146 43.4728C113.342 42.9647 113.558 42.687 114.056 43.0878C114.167 43.1763 114.335 43.2726 114.456 43.2513C114.842 43.1839 115.218 43.0626 115.597 42.9622C115.323 42.7535 115.069 42.5067 114.769 42.3467C114.463 42.1829 114.076 42.1601 113.785 41.9777C112.967 41.4643 113.118 40.547 114.158 39.9326Z" fill="white"/>
<path d="M83.2159 42.8439C83.2158 41.8158 83.2158 40.8751 83.2158 39.833C84.2925 39.9793 85.3495 39.6481 86.2771 40.0387C86.2525 40.2032 86.228 40.3676 86.2034 40.5321C85.5044 40.5321 84.8053 40.5321 84.0445 40.5321C84.0445 40.9079 84.0445 41.2124 84.0445 41.4749C84.6027 41.9392 85.6788 40.9898 86.0543 42.3113C85.3025 42.3113 84.6945 42.3113 84.0363 42.3113C84.0363 42.6897 84.0363 42.9951 84.0363 43.3742C84.7555 43.3742 85.4543 43.3742 86.1492 43.3742C86.1761 44.2218 86.1534 44.2266 83.2159 44.0347C83.2159 43.6738 83.2159 43.3026 83.2159 42.8439Z" fill="white"/>
<path d="M70.0544 40.7501C70.046 41.0663 70.046 41.2992 70.046 41.5898C70.6998 41.5898 71.3099 41.5898 71.9815 41.5898C72.0021 41.8569 72.0185 42.0713 72.04 42.3504C71.3633 42.3504 70.7521 42.3504 70.2509 42.3504C69.6628 42.8433 70.6516 44.0101 69.2991 44.1045C69.2991 42.6741 69.2991 41.3182 69.2991 39.8504C70.3061 39.9733 71.349 39.6512 72.2746 40.0362C72.2532 40.1845 72.2318 40.3328 72.2104 40.4811C71.4945 40.543 70.7786 40.6049 70.0544 40.7501Z" fill="white"/>
<path d="M93.3754 42.1604C92.7346 42.3011 92.1039 42.3573 91.5533 42.4063C91.0049 42.8541 92.0102 44.0295 90.6328 44.0965C90.6328 42.6692 90.6328 41.3169 90.6328 39.9102C91.5859 39.9102 92.516 39.9102 93.4907 39.9102C93.8214 40.6867 93.2188 40.5439 92.7797 40.5506C92.3427 40.5574 91.9055 40.5521 91.4301 40.5521C91.4301 40.923 91.4301 41.2326 91.4301 41.6299C91.9064 41.6299 92.376 41.5857 92.8303 41.6501C93.0313 41.6787 93.2013 41.9272 93.3754 42.1604Z" fill="white"/>
<path d="M74.9493 41.6232C74.9514 42.3339 74.9844 42.9604 74.9387 43.581C74.9234 43.788 74.7067 43.98 74.5821 44.1789C74.5053 44.1358 74.4286 44.0927 74.3518 44.0496C74.3518 42.6622 74.3518 41.2749 74.3518 39.7588C75.3722 40.1679 74.7736 40.9837 74.9493 41.6232Z" fill="white"/>
<path d="M38.2826 41.4326C38.3547 41.5856 38.3452 41.7277 38.3513 41.9126C35.8888 41.9552 33.4106 41.9552 30.9324 41.9552C30.9324 41.8349 30.9324 41.7146 30.9324 41.5942C33.3552 41.5368 35.7781 41.4793 38.2826 41.4326Z" fill="white"/>
<path d="M147.924 41.7457C147.852 41.6926 147.838 41.6436 147.815 41.5187C148.958 41.4516 150.111 41.4384 151.262 41.4752C152.408 41.5119 153.552 41.5988 154.697 41.8262C153.24 41.8262 151.782 41.8347 150.325 41.8228C149.544 41.8165 148.763 41.7752 147.924 41.7457Z" fill="white"/>
<path d="M132.858 41.253C136.135 41.3278 139.324 41.4024 142.513 41.477C142.515 41.5525 142.518 41.628 142.52 41.7035C141.434 41.791 140.349 41.9326 139.261 41.9564C135.335 42.0421 131.408 42.0859 127.482 42.1538C127.221 42.1583 126.959 42.2233 126.701 42.2732C125.729 42.4604 125.497 42.2295 125.635 41.2529C128.018 41.2529 130.394 41.2529 132.858 41.253Z" fill="white"/>
<path d="M48.7833 41.3191C52.3766 41.2205 55.8905 41.1526 59.404 41.071C59.8758 41.06 60.1305 41.1843 60.0945 41.7169C60.0588 42.2465 59.7535 42.3339 59.3113 42.3176C57.6024 42.2549 55.8932 42.1975 54.1837 42.1538C51.4983 42.0852 48.812 42.0471 46.1274 41.9589C45.1246 41.9259 44.1252 41.7883 43.1287 41.4924C44.987 41.4434 46.8454 41.3944 48.7833 41.3191Z" fill="white"/>
<path d="M102.505 41.5519C102.784 40.8252 103.314 40.4134 103.958 40.5974C104.416 40.7284 104.959 41.1838 105.102 41.6154C105.23 42.0008 105.001 42.7502 104.677 42.9777C104.307 43.2381 103.609 43.2499 103.142 43.0977C102.522 42.8956 102.356 42.2716 102.505 41.5519Z" fill="black"/>
<path d="M96.4551 42.743C96.0513 41.9569 96.1273 41.3229 96.8217 40.82C97.4212 40.3859 97.9911 40.4949 98.5096 40.9418C99.1181 41.4662 99.1394 42.3106 98.5948 42.9141C98.061 43.5057 97.2819 43.4618 96.4551 42.743Z" fill="black"/>
<path d="M110.794 41.6799C110.76 43.0584 110.321 43.3797 108.668 43.2709C108.668 42.4046 108.668 41.5331 108.668 40.6583C109.892 40.44 110.341 40.6394 110.794 41.6799Z" fill="black"/>
</g>
<defs>
<clipPath id="clip0_2456_3459">
<rect width="185.391" height="59.0625" fill="white" transform="translate(0.125 0.25)"/>
</clipPath>
</defs>
</svg>
