<svg width="113" height="40" viewBox="0 0 113 40" fill="none" xmlns="http://www.w3.org/2000/svg">
<path d="M11.3628 31.3519C9.7567 31.3519 8.31746 30.9973 7.04508 30.2882C5.79357 29.5581 4.80278 28.5673 4.07273 27.3158C3.34268 26.0434 2.97766 24.6042 2.97766 22.9981V9.32527H5.91872V22.9355C5.91872 24.0827 6.15859 25.0735 6.63834 25.9079C7.11809 26.7422 7.7647 27.3888 8.57819 27.8477C9.41253 28.3066 10.3407 28.536 11.3628 28.536C12.4266 28.536 13.3548 28.3066 14.1474 27.8477C14.9609 27.3888 15.5971 26.7422 16.056 25.9079C16.5357 25.0735 16.7756 24.0932 16.7756 22.9668V9.32527H19.748V23.0294C19.748 24.6355 19.3829 26.0643 18.6529 27.3158C17.9228 28.5673 16.9321 29.5581 15.6805 30.2882C14.429 30.9973 12.9898 31.3519 11.3628 31.3519Z" fill="#121212"/>
<path d="M24.7499 22.5913V20.0257H30.6633C31.4768 20.0257 32.1964 19.8589 32.8222 19.5251C33.4688 19.1914 33.9694 18.7221 34.324 18.1172C34.6994 17.5123 34.8872 16.7926 34.8872 15.9583C34.8872 15.124 34.6994 14.4043 34.324 13.7994C33.9694 13.1945 33.4688 12.7252 32.8222 12.3915C32.1964 12.0577 31.4768 11.8909 30.6633 11.8909H24.7499V9.32527H30.851C32.186 9.32527 33.3749 9.59643 34.4178 10.1388C35.4816 10.6811 36.316 11.4528 36.9209 12.4541C37.5466 13.4344 37.8595 14.6025 37.8595 15.9583C37.8595 17.2933 37.5466 18.4613 36.9209 19.4625C36.316 20.4429 35.4816 21.2147 34.4178 21.7778C33.3749 22.3202 32.186 22.5913 30.851 22.5913H24.7499ZM22.7787 31.0391V9.32527H25.7198V31.0391H22.7787Z" fill="#121212"/>
<path d="M42.3503 21.8781V19.4064H48.2324C49.5048 19.4064 50.4851 19.0831 51.1735 18.4365C51.8618 17.7898 52.206 16.9138 52.206 15.8083C52.206 14.7654 51.8618 13.8997 51.1735 13.2114C50.506 12.5231 49.5361 12.1789 48.2637 12.1789H42.3503V9.61328H48.3576C49.7342 9.61328 50.9336 9.88444 51.9557 10.4268C52.9777 10.9482 53.7599 11.6679 54.3023 12.5856C54.8654 13.5034 55.147 14.5568 55.147 15.7457C55.147 16.9764 54.8654 18.0506 54.3023 18.9684C53.7599 19.8861 52.9777 20.6058 51.9557 21.1272C50.9336 21.6278 49.7342 21.8781 48.3576 21.8781H42.3503ZM40.3792 31.3271V9.61328H43.3202V31.3271H40.3792ZM51.501 30.3484L45.0098 21.5965L47.7944 20.6266L52.206 25.9768L55.412 26.4374V30.3484H51.501Z" fill="#121212"/>
<path d="M72.031 31.0391L80.9167 9.32527H83.0443L91.8988 31.0391H88.7074L81.4173 12.6731H82.5124L75.1597 31.0391H72.031ZM76.2548 26.1269V23.5613H87.6749V26.1269H76.2548Z" fill="#121212"/>
<path d="M97.1083 21.5901V19.1184H102.99C104.263 19.1184 105.243 18.7951 105.931 18.1485C106.62 17.5018 106.964 16.6258 106.964 15.5203C106.964 14.4773 106.62 13.6117 105.931 12.9234C105.264 12.235 104.294 11.8909 103.022 11.8909H97.1083V9.32527H103.116C104.492 9.32527 105.692 9.59643 106.714 10.1388C107.736 10.6602 108.518 11.3798 109.06 12.2976C109.623 13.2154 109.905 14.2688 109.905 15.4577C109.905 16.6884 109.623 17.7626 109.06 18.6803C108.518 19.5981 107.736 20.3177 106.714 20.8392C105.692 21.3398 104.492 21.5901 103.116 21.5901H97.1083ZM95.1371 31.0391V9.32527H98.0782V31.0391H95.1371ZM107.652 31.0391L99.7677 21.3085L102.552 20.3386L111.376 31.0391H107.652Z" fill="#121212"/>
<path d="M67.9784 11.6484L67.9789 11.6487C68.8154 12.3199 69.4872 13.3166 69.9861 14.654L69.9863 14.6546C70.489 15.9869 70.7438 17.6312 70.7438 19.5933C70.7438 21.5555 70.489 23.1997 69.9863 24.532L69.9861 24.5327C69.4872 25.87 68.8154 26.8667 67.9789 27.5379L67.9784 27.5383C67.1466 28.2102 66.2205 28.5432 65.194 28.5432C64.1676 28.5432 63.2385 28.2102 62.4006 27.538C61.5698 26.8667 60.8979 25.8698 60.3932 24.5323C59.8962 23.1999 59.6442 21.5555 59.6442 19.5933C59.6442 17.6311 59.8962 15.9867 60.3932 14.6543C60.898 13.3167 61.5698 12.3198 62.4008 11.6485C63.2385 10.9764 64.1677 10.6434 65.194 10.6434C66.2205 10.6434 67.1466 10.9764 67.9784 11.6484ZM72.1862 25.9092C72.8717 24.1267 73.2116 22.0199 73.2116 19.5933C73.2116 17.1667 72.8717 15.0599 72.1862 13.2774C71.5019 11.4983 70.5583 10.1138 69.3491 9.13589C68.1376 8.15606 66.7502 7.6648 65.194 7.6648C63.6379 7.6648 62.2505 8.15606 61.0389 9.13589C59.8298 10.1138 58.8862 11.4983 58.2019 13.2774C57.5163 15.0599 57.1765 17.1667 57.1765 19.5933C57.1765 22.0199 57.5163 24.1267 58.2019 25.9092C58.8862 27.6883 59.8298 29.0728 61.0389 30.0507C62.2505 31.0306 63.6379 31.5218 65.194 31.5218C66.7502 31.5218 68.1376 31.0306 69.3491 30.0507C70.5583 29.0728 71.5019 27.6883 72.1862 25.9092Z" fill="#121212" stroke="#121212" strokeWidth="0.391098"/>
</svg>
