<svg width="157" height="32" viewBox="0 0 157 32" fill="none" xmlns="http://www.w3.org/2000/svg">
<g id="Screenshot 2023-01-04 at 18.09.52_adobe_express 1" clipPath="url(#clip0_2456_3123)">
<path id="Vector" d="M41.6734 25.3369C38.6107 24.26 37.1034 22.049 36.8694 19.0223C36.6385 16.0353 37.6208 13.4581 40.3376 11.9421C42.9224 10.4996 45.5824 10.6247 48.0663 12.2749C50.8 14.0911 51.8231 18.2644 50.4113 21.4949C48.9593 24.8172 45.6468 26.3067 41.6734 25.3369ZM43.1481 13.2316C39.9316 14.005 39.2604 17.5426 40.0476 20.44C40.576 22.3852 42.0662 23.4606 43.8769 23.478C45.7738 23.4962 47.3309 22.4322 47.7846 20.39C48.0716 19.0981 48.0808 17.6394 47.8002 16.3468C47.3177 14.1248 45.7054 13.1179 43.1481 13.2316Z" fill="white"/>
<path id="Vector_2" d="M138.673 11.1278C142.137 11.9535 144.04 14.1359 144.436 17.6208C144.776 20.6179 143.151 23.6989 140.569 24.9547C137.772 26.3147 134.354 25.7415 132.191 23.5496C130.213 21.5457 129.66 17.7871 130.936 15.0174C132.274 12.1118 134.913 10.7554 138.673 11.1278ZM138.184 13.2485C136.336 12.8758 134.874 13.5413 133.974 15.1406C132.818 17.1946 132.813 19.3894 133.915 21.4677C135.05 23.6083 137.88 24.1874 139.695 22.714C141.447 21.2923 141.722 19.2981 141.441 17.238C141.191 15.3993 140.342 13.8889 138.184 13.2485Z" fill="white"/>
<path id="Vector_3" d="M66.5094 11.2831C70.7917 10.3501 74.1951 12.241 75.3352 16.094C76.4647 19.9108 74.6686 23.8762 71.2146 25.1919C67.4382 26.6305 63.239 24.8239 61.937 21.2006C60.4147 16.9644 62.2835 12.8161 66.5094 11.2831ZM64.9061 21.076C65.758 22.7905 67.11 23.6497 69.0315 23.4553C70.8564 23.2706 72.0481 22.1121 72.4006 20.4489C72.6941 19.0642 72.6479 17.5113 72.3529 16.1187C71.9696 14.3087 70.313 13.177 68.6234 13.1325C66.9483 13.0884 65.2278 14.1424 64.84 15.9955C64.5148 17.5496 64.805 19.2346 64.9061 21.076Z" fill="white"/>
<path id="Vector_4" d="M88.8548 19.1964C88.7831 17.781 88.7885 16.5015 88.6185 15.2462C88.4412 13.9372 87.5199 13.3487 86.2594 13.2677C84.0506 13.1256 82.1144 14.9091 82.1115 17.0857C82.1083 19.3911 82.067 21.6977 82.13 24.0013C82.1593 25.073 81.7163 25.3389 80.7464 25.3324C79.8123 25.3261 79.3033 25.1381 79.3174 24.0378C79.3634 20.4578 79.3071 16.8763 79.3531 13.2962C79.3619 12.6154 78.8845 11.6334 80.0672 11.356C81.1968 11.0911 81.8018 11.6194 81.9691 12.934C82.5383 12.5985 82.9466 12.2464 83.4176 12.1016C84.7406 11.6947 86.0798 11.1294 87.4305 11.0746C89.4953 10.9909 91.1064 12.1331 91.26 14.1707C91.5337 17.8034 91.3369 21.4721 91.3369 25.2366C90.9152 25.2589 90.4364 25.2708 89.9601 25.3122C89.1439 25.383 88.8299 25.0185 88.8473 24.1988C88.8818 22.5809 88.8558 20.9617 88.8548 19.1964Z" fill="white"/>
<path id="Vector_5" d="M110.202 22.8174C113.038 24.212 115.885 22.4808 115.894 19.4846C115.901 17.2284 115.93 14.9713 115.876 12.7164C115.852 11.7122 116.17 11.3136 117.205 11.3096C118.238 11.3056 118.7 11.5775 118.682 12.7176C118.627 16.2973 118.685 19.8787 118.64 23.4586C118.631 24.1277 119.115 25.1078 117.843 25.3127C116.679 25.5006 116.134 24.9532 116.006 23.6282C115.469 23.9987 115.078 24.2494 114.707 24.5285C113.34 25.5593 111.794 25.8429 110.142 25.6142C108.068 25.327 106.675 23.9154 106.565 21.5998C106.419 18.5167 106.52 15.4222 106.494 12.3328C106.485 11.1478 107.318 11.3839 108.024 11.3296C108.87 11.2644 109.291 11.5658 109.281 12.4812C109.257 14.9334 109.198 17.3897 109.315 19.8365C109.362 20.8137 109.834 21.7702 110.202 22.8174Z" fill="white"/>
<path id="Vector_6" d="M31.0319 15.8757C31.4954 14.6203 31.8842 13.4577 32.356 12.3303C32.5087 11.9653 32.8385 11.4867 33.1586 11.4227C33.746 11.3054 34.3865 11.4575 35.0048 11.4972C34.9382 12.0416 34.9753 12.6253 34.7885 13.1239C33.4499 16.6975 32.035 20.2423 30.7152 23.8228C30.3265 24.8772 29.8254 25.3631 28.6193 25.3608C27.3656 25.3585 26.7193 25.0085 26.2685 23.7733C24.9607 20.1893 23.4796 16.6698 22.1377 13.0978C21.9494 12.5964 22.1596 11.943 22.1854 11.36C23.0767 11.4633 24.1919 10.8777 24.6726 12.2226C25.6773 15.0329 26.6964 17.8379 27.7132 20.6438C27.9081 21.1816 28.1195 21.7133 28.3233 22.2478C28.4563 22.2669 28.5893 22.2859 28.7223 22.305C29.478 20.1974 30.2338 18.0898 31.0319 15.8757Z" fill="white"/>
<path id="Vector_7" d="M103.894 24.8004C103.784 24.9386 103.674 25.0768 103.39 25.2209C103.008 25.3165 102.799 25.4062 102.59 25.4959C99.7642 25.9685 98.2904 25.437 97.1283 23.3331C97.0122 22.8991 96.9091 22.6629 96.806 22.4267C96.7643 19.9336 96.6855 17.4402 96.6994 14.9474C96.7049 13.9542 96.5478 13.3401 95.3677 13.4364C94.3865 13.5164 94.5045 12.7471 94.5998 11.9707C94.8365 11.7037 94.9843 11.576 95.1321 11.4484C95.547 11.4173 95.9619 11.3862 96.5903 11.2729C96.8566 10.7756 96.9094 10.3605 96.9621 9.94541C96.9796 9.75065 97.0342 9.55086 97.0089 9.36193C96.7944 7.76151 97.5307 7.23348 99.1113 7.7202C99.3678 9.0331 99.5278 10.1551 99.6879 11.277C100.657 11.3021 101.627 11.3546 102.596 11.3437C103.368 11.3349 103.591 11.7117 103.599 12.4306C103.608 13.2014 103.273 13.4753 102.548 13.4602C101.675 13.4421 100.801 13.4761 99.7002 13.5824C99.3865 15.6685 99.2588 17.6592 99.2337 19.6512C99.2242 20.4032 99.4519 21.1583 99.5716 21.912C99.9408 23.3931 101.015 23.6204 102.542 23.4935C103.043 23.5421 103.304 23.5686 103.564 23.5951C103.598 23.6978 103.631 23.8005 103.667 24.0822C103.744 24.4409 103.819 24.6206 103.894 24.8004Z" fill="white"/>
<path id="Vector_8" d="M124.728 25.3139C124.242 24.3973 123.535 23.5449 123.519 22.6793C123.416 17.1908 123.482 11.6994 123.448 6.20917C123.442 5.12664 123.949 4.88714 124.884 4.88382C125.818 4.88051 126.333 5.11005 126.326 6.19647C126.293 11.2945 126.311 16.3928 126.315 21.4911C126.316 22.3505 126.128 23.245 127.293 23.6683C127.574 23.7706 127.722 24.611 127.679 25.0891C127.66 25.3079 127.034 25.6155 126.675 25.6277C126.063 25.6485 125.443 25.468 124.728 25.3139Z" fill="white"/>
<path id="Vector_9" d="M57.4991 10.6557C57.4992 14.4812 57.5012 18.1597 57.498 21.8381C57.4973 22.5846 57.4691 23.2438 58.3985 23.6167C58.727 23.7486 58.8636 24.5991 58.8859 25.1301C58.8925 25.2877 58.2212 25.5939 57.8425 25.6279C55.9236 25.8 54.7971 24.9239 54.7683 22.9779C54.6848 17.3391 54.7265 11.6985 54.6958 6.0587C54.6901 4.9964 55.3099 4.90312 56.1288 4.90235C56.9651 4.90156 57.5498 5.03505 57.5115 6.09503C57.4584 7.56443 57.4987 9.03726 57.4991 10.6557Z" fill="white"/>
<path id="Vector_10" d="M99.595 21.7713C99.4505 21.1578 99.2227 20.4028 99.2322 19.6507C99.2574 17.6587 99.3851 15.668 99.5651 13.6152C99.6454 16.2462 99.6327 18.9387 99.595 21.7713Z" fill="white"/>
<path id="Vector_11" d="M99.6717 11.1403C99.5272 10.1537 99.3671 9.03171 99.2148 7.77051C99.3672 8.75584 99.5117 9.88041 99.6717 11.1403Z" fill="white"/>
<path id="Vector_12" d="M96.8948 10.0195C96.9096 10.3607 96.8568 10.7758 96.7128 11.2467C96.6901 10.8994 96.7587 10.4965 96.8948 10.0195Z" fill="white"/>
<path id="Vector_13" d="M103.556 23.5077C103.306 23.5676 103.045 23.5411 102.656 23.4876C102.867 23.4475 103.207 23.4344 103.556 23.5077Z" fill="white"/>
<path id="Vector_14" d="M96.7769 22.4922C96.9117 22.662 97.0148 22.8982 97.1082 23.2328C96.9807 23.0737 96.8629 22.8162 96.7769 22.4922Z" fill="white"/>
<path id="Vector_15" d="M102.678 25.5179C102.802 25.4049 103.011 25.3152 103.305 25.249C103.182 25.3621 102.973 25.4516 102.678 25.5179Z" fill="white"/>
<path id="Vector_16" d="M103.932 24.7372C103.82 24.6194 103.745 24.4397 103.681 24.1611C103.784 24.2667 103.876 24.471 103.932 24.7372Z" fill="white"/>
<path id="Vector_17" d="M95.0467 11.4219C94.9844 11.5749 94.8366 11.7025 94.6177 11.852C94.6847 11.7147 94.8229 11.5556 95.0467 11.4219Z" fill="white"/>
</g>
<defs>
<clipPath id="clip0_2456_3123">
<rect width="156.042" height="30.625" fill="white" transform="translate(0.674805 0.9375)"/>
</clipPath>
</defs>
</svg>
