<svg width="150" height="100" viewBox="0 0 296 100" fill="none" xmlns="http://www.w3.org/2000/svg">
<g clipPath="url(#clip0_447_42482)">
<path d="M174.09 27.1781C174.09 34.5843 168.206 40.0418 160.986 40.0418C153.766 40.0418 147.883 34.5843 147.883 27.1781C147.883 19.7197 153.766 14.3145 160.986 14.3145C168.206 14.3145 174.09 19.7197 174.09 27.1781ZM168.353 27.1781C168.353 22.55 164.944 19.3834 160.986 19.3834C157.029 19.3834 153.619 22.55 153.619 27.1781C153.619 31.7598 157.029 34.9728 160.986 34.9728C164.944 34.9728 168.353 31.754 168.353 27.1781Z" fill="white"/>
<path d="M202.355 27.1781C202.355 34.5843 196.472 40.0418 189.252 40.0418C182.032 40.0418 176.148 34.5843 176.148 27.1781C176.148 19.7255 182.032 14.3145 189.252 14.3145C196.472 14.3145 202.355 19.7197 202.355 27.1781ZM196.619 27.1781C196.619 22.55 193.209 19.3834 189.252 19.3834C185.294 19.3834 181.884 22.55 181.884 27.1781C181.884 31.7598 185.294 34.9728 189.252 34.9728C193.209 34.9728 196.619 31.754 196.619 27.1781Z" fill="white"/>
<path d="M229.447 15.0916V38.1859C229.447 47.6857 223.758 51.5657 217.033 51.5657C210.702 51.5657 206.891 47.3957 205.455 43.9855L210.449 41.9382C211.338 44.0319 213.517 46.5026 217.027 46.5026C221.332 46.5026 223.999 43.8869 223.999 38.963V37.1129H223.799C222.515 38.673 220.042 40.0359 216.921 40.0359C210.39 40.0359 204.406 34.4335 204.406 27.2245C204.406 19.9633 210.39 14.3145 216.921 14.3145C220.036 14.3145 222.509 15.6774 223.799 17.1911H223.999V15.0974H229.447V15.0916ZM224.406 27.2245C224.406 22.695 221.338 19.3834 217.433 19.3834C213.476 19.3834 210.16 22.695 210.16 27.2245C210.16 31.7076 213.476 34.9728 217.433 34.9728C221.338 34.9728 224.406 31.7076 224.406 27.2245Z" fill="white"/>
<path d="M238.423 1.55469V39.2525H232.828V1.55469H238.423Z" fill="white"/>
<path d="M260.229 31.4118L264.681 34.3348C263.244 36.4285 259.781 40.0359 253.798 40.0359C246.378 40.0359 240.836 34.387 240.836 27.1722C240.836 19.5225 246.425 14.3086 253.156 14.3086C259.934 14.3086 263.25 19.6211 264.334 22.4919L264.928 23.9534L247.467 31.0754C248.804 33.6563 250.883 34.9728 253.798 34.9728C256.719 34.9728 258.745 33.5577 260.229 31.4118ZM246.525 26.7837L258.197 22.0105C257.555 20.404 255.624 19.2847 253.35 19.2847C250.435 19.2847 246.378 21.8192 246.525 26.7837Z" fill="white"/>
<path d="M126.704 23.8317V18.3742H145.378C145.561 19.3254 145.655 20.4505 145.655 21.6684C145.655 25.763 144.518 30.8261 140.855 34.4335C137.292 38.0873 132.74 40.0359 126.709 40.0359C115.532 40.0359 106.133 31.0697 106.133 20.0619C106.133 9.05416 115.532 0.0878906 126.709 0.0878906C132.893 0.0878906 137.298 2.47735 140.608 5.59177L136.697 9.44274C134.324 7.25047 131.109 5.54537 126.704 5.54537C118.541 5.54537 112.157 12.0236 112.157 20.0619C112.157 28.1002 118.541 34.5785 126.704 34.5785C131.998 34.5785 135.013 32.4848 136.945 30.5825C138.511 29.0398 139.542 26.8359 139.948 23.8259L126.704 23.8317Z" fill="white"/>
<path d="M121.456 60.309L115.706 75.9749H127.439L121.642 60.309H121.456ZM110.743 89.5399H105.734L118.998 54.8282H124.146L137.41 89.5399H132.402L129.016 80.1312H114.175L110.743 89.5399Z" fill="white"/>
<path d="M139.695 65.7901H144.055V69.0786H144.24C144.913 67.9253 145.968 66.9662 147.394 66.2012C148.843 65.4133 150.327 65.0137 151.846 65.0137C154.815 65.0137 157.087 65.8586 158.664 67.5257C160.264 69.1699 161.076 71.5335 161.076 74.605V89.5402H156.53V74.9248C156.438 71.0311 154.455 69.0786 150.594 69.0786C148.797 69.0786 147.278 69.8094 146.049 71.2709C144.843 72.7096 144.24 74.4109 144.24 76.3863V89.5402H139.695V65.7901Z" fill="white"/>
<path d="M169.465 82.2781C169.465 83.4428 169.952 84.4134 170.95 85.2012C171.935 85.9663 173.106 86.3431 174.474 86.3431C176.353 86.3431 178.045 85.658 179.529 84.2878C181.037 82.8947 181.802 81.2505 181.802 79.3551C180.376 78.2589 178.393 77.7108 175.866 77.7108C174.034 77.7108 172.503 78.1561 171.274 79.0353C170.068 79.8917 169.465 80.9765 169.465 82.2781ZM175.309 65.0137C178.648 65.0137 181.269 65.9043 183.193 67.6627C185.141 69.4326 186.115 71.8532 186.115 74.9248V89.5402H181.802V86.2517H181.616C179.727 88.9693 177.222 90.3166 174.103 90.3166C171.436 90.3166 169.21 89.5402 167.425 87.9873C165.662 86.4344 164.781 84.5047 164.781 82.1868C164.781 79.7204 165.72 77.7793 167.61 76.3406C169.489 74.8791 172.016 74.1483 175.17 74.1483C177.86 74.1483 180.063 74.6279 181.802 75.5642V74.5594C181.802 73.0065 181.164 71.7048 179.9 70.6315C178.66 69.5353 177.211 68.9872 175.541 68.9872C173.002 68.9872 171.007 70.0377 169.558 72.1387L165.57 69.6723C167.761 66.5666 171.007 65.0137 175.309 65.0137Z" fill="white"/>
<path d="M195.592 54.8281V89.5398H191.047V54.8281H195.592Z" fill="white"/>
<path d="M222.312 65.7891L207.193 99.9983H202.555L208.167 88.0319L198.195 65.7891H203.111L210.3 82.8708H210.393L217.396 65.7891H222.312Z" fill="white"/>
<path d="M234.764 89.9048C232.816 89.9048 231.192 89.3111 229.894 88.1236C228.595 86.9361 227.923 85.2804 227.9 83.1452V69.8543H223.633V65.7894H227.9V58.5273H232.398V65.7894H238.335V69.8543H232.398V81.6837C232.398 83.2708 232.7 84.3555 233.326 84.9265C233.975 85.4745 234.682 85.7486 235.459 85.7486C235.83 85.7486 236.178 85.7257 236.526 85.6572C236.862 85.5659 237.187 85.4631 237.5 85.3375L238.891 89.3111C237.709 89.6993 236.34 89.9048 234.764 89.9048Z" fill="white"/>
<path d="M248.244 57.6143C248.244 58.4707 247.919 59.2129 247.27 59.8523C246.644 60.4689 245.902 60.7658 245.044 60.7658C244.139 60.7658 243.386 60.4689 242.771 59.8523C242.145 59.2129 241.844 58.4707 241.844 57.6143C241.844 56.7351 242.145 55.9929 242.771 55.3764C243.386 54.7712 244.139 54.4629 245.044 54.4629C245.902 54.4629 246.644 54.7712 247.27 55.3764C247.919 55.9929 248.244 56.7351 248.244 57.6143ZM247.316 65.7898V89.5399H242.771V65.7898H247.316Z" fill="white"/>
<path d="M262.586 90.3166C258.992 90.3166 256.024 89.1177 253.681 86.7084C251.363 84.2763 250.203 81.2619 250.203 77.6651C250.203 74.0113 251.363 70.9969 253.681 68.6219C256.024 66.224 258.992 65.0137 262.586 65.0137C265.056 65.0137 267.201 65.6303 269.033 66.8406C270.853 68.0624 272.233 69.7408 273.16 71.8647L269.033 73.5546C267.757 70.5744 265.519 69.0786 262.308 69.0786C260.232 69.0786 258.435 69.9007 256.928 71.5449C255.444 73.1892 254.702 75.2331 254.702 77.6651C254.702 80.1087 255.444 82.1411 256.928 83.7854C258.435 85.4296 260.232 86.2517 262.308 86.2517C265.612 86.2517 267.931 84.7673 269.264 81.7757L273.299 83.4656C272.43 85.6009 271.05 87.2794 269.172 88.4897C267.282 89.7 265.09 90.3166 262.586 90.3166Z" fill="white"/>
<path d="M295.699 82.9632C295.699 85.0414 294.772 86.7884 292.917 88.2157C291.085 89.6087 288.789 90.3166 286.006 90.3166C283.595 90.3166 281.461 89.6886 279.606 88.444C277.774 87.1994 276.464 85.5552 275.664 83.5113L279.699 81.8214C280.313 83.2601 281.183 84.3677 282.296 85.1556C283.432 85.9548 284.673 86.3431 286.006 86.3431C287.456 86.3431 288.661 86.0462 289.624 85.4296C290.609 84.8244 291.108 84.0937 291.108 83.2373C291.108 81.7186 289.914 80.6111 287.537 79.9031L283.409 78.8983C278.702 77.7108 276.36 75.4728 276.36 72.1844C276.36 70.0263 277.253 68.2907 279.05 66.9776C280.835 65.6759 283.131 65.0137 285.914 65.0137C288.047 65.0137 289.972 65.5161 291.711 66.5209C293.438 67.5257 294.644 68.8731 295.328 70.5401L291.293 72.1844C290.83 71.1796 290.064 70.4031 289.021 69.855C288.001 69.2841 286.853 68.9872 285.589 68.9872C284.406 68.9872 283.34 69.2841 282.389 69.855C281.461 70.4374 280.998 71.1567 280.998 72.0017C280.998 73.349 282.296 74.3196 284.893 74.9248L288.511 75.8382C293.299 77.0029 295.699 79.3779 295.699 82.9632Z" fill="white"/>
<path d="M62.8984 11.7041V85.2731C62.8984 93.5112 68.664 98.0919 74.7832 98.0919C80.4426 98.0919 86.6679 94.1905 86.6679 85.2731V12.2615C86.6679 4.71997 81.0085 0 74.7832 0C68.5578 0 62.8984 5.20764 62.8984 11.7041Z" fill="white"/>
<path d="M31.7734 49.0459V85.273C31.7734 93.5112 37.539 98.0919 43.6582 98.0919C49.3176 98.0919 55.5429 94.1905 55.5429 85.273V49.6033C55.5429 42.0618 49.8835 37.3418 43.6582 37.3418C37.4328 37.3418 31.7734 42.5494 31.7734 49.0459Z" fill="white"/>
<path d="M24.4179 86.3877C24.4179 92.8494 19.0945 98.0919 12.5332 98.0919C5.97181 98.0919 0.648438 92.8494 0.648438 86.3877C0.648438 79.9261 5.97181 74.6836 12.5332 74.6836C19.0945 74.6836 24.4179 79.9261 24.4179 86.3877Z" fill="white"/>
</g>
<defs>
<clipPath id="clip0_447_42482">
<rect width="295.049" height="100" fill="white" transform="translate(0.648438)"/>
</clipPath>
</defs>
</svg>
