<svg width="150" height="100" viewBox="0 0 265 100" fill="none" xmlns="http://www.w3.org/2000/svg">
<g clipPath="url(#clip0_447_42536)">
<path d="M43.6209 0.920273C42.044 1.83712 39.4197 4.43293 36.2891 8.19772L39.1578 13.5383C41.177 10.7018 43.2253 8.14042 45.2677 5.97437C45.4306 5.80247 45.5063 5.72224 45.5063 5.72224C45.4306 5.80247 45.3434 5.89415 45.2677 5.97437C44.5985 6.69639 42.5677 9.03434 39.5069 13.6529C42.4572 13.5097 46.9552 12.9137 50.6793 12.2949C51.7849 6.22078 49.6028 3.47024 49.6028 3.47024C49.6028 3.47024 46.833 -0.942066 43.6093 0.943194L43.6209 0.920273Z" fill="white"/>
<path d="M33.955 45.7793C33.5884 45.8423 33.216 45.9111 32.8261 45.9741C32.8261 45.9741 32.8203 45.9741 32.8203 45.9799C33.0182 45.9512 33.2102 45.9226 33.4022 45.8939C33.5826 45.8538 33.7688 45.8194 33.955 45.7793Z" fill="white"/>
<path d="M33.955 45.7793C33.5884 45.8423 33.216 45.9111 32.8261 45.9741C32.8261 45.9741 32.8203 45.9741 32.8203 45.9799C33.0182 45.9512 33.2102 45.9226 33.4022 45.8939C33.5826 45.8538 33.7688 45.8194 33.955 45.7793Z" fill="white"/>
<path d="M34.9511 41.1371C34.9453 41.1371 34.9453 41.1371 34.9453 41.1429C35.0035 41.1371 35.0675 41.1257 35.1257 41.1142C35.3701 41.0798 35.6087 41.0397 35.8414 40.9824C35.5505 41.034 35.2595 41.0856 34.9511 41.1371Z" fill="white"/>
<path d="M34.9511 41.1371C34.9453 41.1371 34.9453 41.1371 34.9453 41.1429C35.0035 41.1371 35.0675 41.1257 35.1257 41.1142C35.3701 41.0798 35.6087 41.0397 35.8414 40.9824C35.5505 41.034 35.2595 41.0856 34.9511 41.1371Z" fill="white"/>
<path d="M30.7092 27.3305C31.582 25.7203 32.4665 24.1502 33.3568 22.626C34.282 21.0329 35.2247 19.4972 36.1732 18.0074C36.2255 17.9214 36.2895 17.8297 36.3419 17.7438C37.2788 16.2826 38.2272 14.8729 39.1757 13.532L36.307 8.19141C36.0917 8.44927 35.8764 8.71286 35.6553 8.98791C34.8232 10.0079 33.9678 11.0967 33.0833 12.2599C32.0882 13.5664 31.0699 14.9646 30.0283 16.4315C29.074 17.7839 28.0964 19.1993 27.1189 20.6719C26.2867 21.9211 25.4605 23.2047 24.6342 24.5227C24.6051 24.5685 24.576 24.6201 24.5469 24.6717L28.2885 31.9491C29.0798 30.3733 29.8945 28.8319 30.7092 27.3305Z" fill="white"/>
<path d="M13.6529 68.3018C13.1582 69.637 12.6578 71.0065 12.1632 72.399C12.1574 72.4161 12.1516 72.4391 12.1399 72.4563C12.0701 72.6511 11.9944 72.8516 11.9304 73.0465C11.5929 73.9862 11.302 74.8343 10.6328 76.754C11.7326 77.2468 12.6171 78.5533 13.455 80.0317C13.3677 78.5017 12.7276 77.0634 11.4998 75.9517C16.9289 76.1924 21.6248 74.8401 24.0106 70.932C24.2259 70.5825 24.4237 70.2214 24.6041 69.8261C23.5043 71.2013 22.1369 71.7801 19.5707 71.6426C23.3531 69.975 25.2442 68.3763 26.9026 65.7404C27.2983 65.11 27.6882 64.4281 28.0839 63.666C24.7787 67.0068 20.9847 67.958 16.9115 67.236L13.8856 67.5626C13.7867 67.8147 13.6994 68.0611 13.6005 68.3133L13.6529 68.3018Z" fill="white"/>
<path d="M15.1125 61.6549C15.7642 59.9931 16.4392 58.3084 17.1259 56.6123C17.7892 54.9849 18.4642 53.346 19.1625 51.7072C19.8608 50.0683 20.5707 48.4123 21.2922 46.7619C22.0254 45.083 22.7819 43.4097 23.5558 41.7422C24.3181 40.0919 25.0862 38.4531 25.8717 36.8371C26.1511 36.2526 26.442 35.6681 26.7271 35.0894C27.2217 34.0866 27.7222 33.0895 28.2284 32.1039C28.2575 32.0523 28.2808 31.995 28.3099 31.9435L24.5683 24.666C24.5101 24.7634 24.4461 24.8666 24.3821 24.9583C23.5092 26.3622 22.6422 27.7947 21.7927 29.256C20.9314 30.7344 20.0877 32.2414 19.2614 33.7714C18.569 35.0607 17.8881 36.3558 17.219 37.6737C17.0851 37.9373 16.9571 38.2067 16.8233 38.4702C16.0086 40.1263 15.2754 41.7136 14.6062 43.255C13.8498 44.9913 13.1864 46.6531 12.6103 48.2289C12.2263 49.2661 11.883 50.2631 11.5629 51.2258C11.3011 52.0453 11.0567 52.8704 10.8123 53.6898C10.2537 55.6152 9.77069 57.5406 9.375 59.4774L13.134 66.8122C13.6287 65.5057 14.1407 64.1762 14.6644 62.8354C14.8215 62.4514 14.9612 62.0732 15.1125 61.7065V61.6549Z" fill="white"/>
<path d="M9.29272 59.7097C8.82138 62.0476 8.48388 64.3741 8.31513 66.7006L8.29767 66.9413C7.12224 65.0904 3.98583 63.2854 3.99164 63.3026C6.24358 66.5115 7.94854 69.7205 8.19875 72.8148C6.99423 73.0555 5.34746 72.7059 3.44466 72.0183C5.42893 73.8176 6.91858 74.3104 7.5063 74.4479C5.67914 74.5625 3.78216 75.7946 1.86772 77.2157C4.66664 76.0925 6.93022 75.6456 8.55953 76.0066C5.98755 83.1694 3.41557 91.0772 0.820312 99.5007C1.61169 99.2715 2.08303 98.7443 2.34488 98.0395C2.80458 96.521 5.84789 86.5216 10.6078 73.4566C10.7475 73.0841 10.8813 72.7059 11.0209 72.3335C11.0559 72.2246 11.0966 72.1215 11.1373 72.024C11.6378 70.6488 12.1673 69.2449 12.7026 67.8123C12.8248 67.4857 12.947 67.159 13.075 66.8324C13.075 66.8267 13.0809 66.8209 13.0809 66.8152L9.31599 59.4805C9.30435 59.555 9.2869 59.6409 9.26944 59.7269L9.29272 59.7097Z" fill="white"/>
<path d="M28.8457 32.5431C28.7351 32.7609 28.6304 32.9786 28.5198 33.1964C28.1939 33.8554 27.8681 34.5258 27.5306 35.2134C27.1698 35.9584 26.809 36.7148 26.4424 37.4941C26.2562 37.8837 26.07 38.2791 25.8838 38.6802C25.3252 39.8779 24.7608 41.1156 24.1847 42.3935C23.4806 43.9578 22.7532 45.591 22.0259 47.2871C21.3334 48.9031 20.6177 50.5706 19.9077 52.3011C19.2269 53.94 18.5403 55.6361 17.842 57.3781C17.2194 58.931 16.5909 60.5355 15.9625 62.1801C15.9334 62.2546 15.9043 62.3405 15.8752 62.415C15.2468 64.0482 14.6125 65.7271 13.9782 67.4462C13.9666 67.4863 13.9491 67.5207 13.9375 67.5666L16.9634 67.2399C16.9052 67.2285 16.8412 67.2227 16.783 67.2113C20.3965 66.77 25.2205 64.1055 28.3045 60.7934C29.736 59.2806 31.0336 57.4927 32.2323 55.4012C33.1226 53.8483 33.9664 52.1177 34.7694 50.2096C35.4676 48.542 36.1368 46.7313 36.7827 44.7773C35.9506 45.207 35.0021 45.5279 33.9547 45.7457C33.7685 45.7858 33.5823 45.8202 33.3903 45.8545C33.1982 45.8889 33.0062 45.9176 32.8084 45.9405C32.8084 45.9405 32.8142 45.9405 32.8142 45.9348C36.1892 44.6569 38.3131 42.1929 39.8551 39.1731C38.9707 39.769 37.5276 40.5483 35.7993 40.9208C35.5666 40.9724 35.328 41.0125 35.0836 41.0526C35.0254 41.0583 34.9614 41.0698 34.9032 41.0812H34.9148C36.0903 40.5999 37.0737 40.0555 37.9291 39.4195C38.1153 39.2819 38.2957 39.1444 38.4586 38.9954C38.7204 38.7719 38.9648 38.537 39.2092 38.2963C39.3605 38.1359 39.506 37.9754 39.6515 37.8092C39.989 37.4139 40.3032 36.9898 40.5941 36.5314C40.6814 36.3881 40.7745 36.2506 40.856 36.1016C40.9724 35.8896 41.0771 35.6776 41.1819 35.477C41.6532 34.5487 42.0314 33.7121 42.3282 32.9844C42.4795 32.6176 42.6075 32.2853 42.7239 31.9644C42.7704 31.8383 42.8112 31.718 42.8519 31.5976C42.9741 31.2481 43.0672 30.9387 43.1428 30.6636C43.2592 30.251 43.3291 29.9244 43.364 29.6895C43.2476 29.7754 43.1196 29.8671 42.9683 29.953C41.95 30.5547 40.2043 31.0934 38.7961 31.3512C38.7786 31.357 38.7554 31.357 38.7321 31.3627C38.5866 31.3856 38.4528 31.4085 38.3073 31.4257L38.3771 31.3913L28.8922 32.4171C28.8922 32.44 28.8748 32.4801 28.8573 32.5145L28.8457 32.5431Z" fill="white"/>
<path d="M39.5549 13.6333C38.7112 14.9112 37.7918 16.3609 36.7909 18.0055C36.7386 18.0858 36.6804 18.1832 36.6338 18.2634C35.7784 19.6845 34.8707 21.2431 33.9047 22.9565C33.0784 24.4349 32.2172 26.0165 31.3211 27.7183C30.5414 29.2025 29.7384 30.7783 28.9062 32.4458L38.3912 31.4201C41.161 30.1652 42.3946 29.0363 43.5933 27.3917C43.9075 26.939 44.2334 26.4691 44.5476 25.9763C45.5252 24.475 46.4795 22.8247 47.3349 21.1801C48.1612 19.5928 48.8885 18.0227 49.4472 16.6016C49.8021 15.702 50.0873 14.8653 50.2851 14.1261C50.4597 13.4786 50.5935 12.8597 50.6982 12.2695C47.0148 12.8941 42.4935 13.4901 39.5258 13.6333H39.5549Z" fill="white"/>
<path d="M33.3788 45.8965C33.1867 45.9309 32.9947 45.9595 32.7969 45.9824C32.9947 45.9652 33.1926 45.9309 33.3788 45.8965Z" fill="white"/>
<path opacity="0.35" d="M33.3788 45.8965C33.1867 45.9309 32.9947 45.9595 32.7969 45.9824C32.9947 45.9652 33.1926 45.9309 33.3788 45.8965Z" fill="white"/>
<path d="M33.3788 45.8965C33.1867 45.9309 32.9947 45.9595 32.7969 45.9824C32.9947 45.9652 33.1926 45.9309 33.3788 45.8965Z" fill="white"/>
<path d="M34.9453 41.1419C35.0035 41.1362 35.0675 41.1247 35.1257 41.1133C35.0675 41.119 35.0093 41.1362 34.9453 41.1419Z" fill="white"/>
<path opacity="0.35" d="M34.9453 41.1419C35.0035 41.1362 35.0675 41.1247 35.1257 41.1133C35.0675 41.119 35.0093 41.1362 34.9453 41.1419Z" fill="white"/>
<path d="M34.9453 41.1419C35.0035 41.1362 35.0675 41.1247 35.1257 41.1133C35.0675 41.119 35.0093 41.1362 34.9453 41.1419Z" fill="white"/>
<path d="M34.9453 41.1437C34.9522 41.1368 34.9522 41.1437 34.9453 41.1437C34.9522 41.1368 34.9522 41.1437 34.9453 41.1437Z" fill="white"/>
<path opacity="0.35" d="M34.9453 41.1437C34.9522 41.1368 34.9522 41.1437 34.9453 41.1437C34.9522 41.1368 34.9522 41.1437 34.9453 41.1437Z" fill="white"/>
<path d="M170.939 67.143C170.357 67.0401 168.158 66.4838 167.824 66.3545C167.015 66.0477 164.245 64.6481 163.91 64.3844C163.475 64.0319 163.418 63.9888 162.625 63.4057C161.84 62.8301 160.156 61.1693 159.561 60.3884C159.311 60.0588 159.038 59.7038 158.954 59.6049C158.87 59.5045 158.729 59.3361 158.642 59.2297C158.457 59.0068 156.894 56.4152 156.894 56.3138C156.894 56.2826 156.731 55.9005 156.533 55.4644C156.334 55.0283 156.052 54.3336 155.908 53.9203C155.762 53.507 155.583 53.0329 155.511 52.868C155.35 52.4979 154.909 50.4542 154.749 49.3437C154.581 48.1621 154.586 44.9319 154.758 43.867C155.211 41.0779 155.569 39.8862 156.604 37.7056C156.763 37.3684 156.895 37.0134 156.895 36.9171C156.895 36.8192 156.963 36.7391 157.047 36.7391C157.131 36.7391 157.2 36.6519 157.2 36.5449C157.2 36.4381 157.625 35.7183 158.142 34.945C158.982 33.6899 160.897 31.5981 162.159 30.5839C163.465 29.5139 166.047 28.1219 167.592 27.6427C168.045 27.5052 168.588 27.3333 168.797 27.2623C169.572 26.9986 171.063 26.8059 172.994 26.7223C175.483 26.613 178.092 26.933 179.946 27.5742C181.323 28.0534 182.572 28.6265 182.675 28.8115C182.703 28.8737 182.792 28.9244 182.874 28.9244C183.196 28.9244 184.928 30.2175 185.964 31.2317C187.166 32.4082 187.954 33.4376 188.59 34.6546C188.981 35.4153 188.986 35.4508 188.712 35.6359C188.556 35.7419 188.357 35.8816 188.269 35.9452C188.182 36.0089 187.93 36.1645 187.711 36.2875C187.492 36.4115 186.998 36.7059 186.609 36.9417C185.821 37.4209 185.52 37.3879 185.288 36.7868C184.642 35.1108 181.683 32.3496 179.649 31.5636C177.425 30.6863 176.07 30.4251 173.779 30.4277C171.353 30.4302 169.788 30.7218 167.857 31.5433C167.195 31.8222 165.782 32.6539 165.483 32.9404C165.372 33.0466 165.234 33.1336 165.176 33.1336C165.014 33.1336 163.317 34.7842 162.576 35.6666C161.767 36.6225 160.364 39.0895 160.032 40.1291C159.9 40.5424 159.733 41.0165 159.659 41.1813C159.01 42.6367 158.629 46.1509 158.866 48.509C159.027 50.1165 159.368 51.8051 159.661 52.4644C159.736 52.6297 159.842 52.9335 159.898 53.1414C160.144 54.0516 161.582 56.6911 162.334 57.6039C163.086 58.5243 164.458 59.9442 165.089 60.4437C165.802 61.0192 168.127 62.4467 168.333 62.4467C168.389 62.4467 168.611 62.5388 168.83 62.6501C169.047 62.7614 169.837 63.0152 170.586 63.213C171.729 63.5147 172.275 63.5705 174.01 63.5552C176.92 63.5296 178.748 63.038 181.194 61.6333C182.79 60.7155 185.004 58.5907 185.777 57.2215C186.07 56.7068 186.379 56.2834 186.464 56.2808C186.789 56.2765 189.734 57.8605 189.734 58.038C189.734 58.2484 188.846 59.9193 188.671 60.0359C188.609 60.0773 188.48 60.2591 188.383 60.4391C188.019 61.1212 186.348 62.7287 184.778 63.9128C183.944 64.5416 181.74 65.6471 180.195 66.2023C178.158 66.9402 176.925 67.138 174.093 67.1811C172.581 67.2039 171.183 67.1922 170.977 67.1549L170.939 67.143ZM49.1529 66.9328C49.1529 66.8492 49.2191 66.6641 49.3002 66.5195C49.381 66.376 49.5911 65.9212 49.7662 65.5079C49.9415 65.0946 50.1447 64.6204 50.2194 64.4556C50.2933 64.2903 50.7729 63.1752 51.2853 61.9759C51.7977 60.7766 52.2792 59.6609 52.3564 59.4961C52.4326 59.3308 52.6731 58.7558 52.8894 58.2182C53.1067 57.6807 53.3451 57.1051 53.4224 56.9403C53.4996 56.7755 53.7056 56.3014 53.8832 55.8881C54.0617 55.4748 54.3055 54.9246 54.4265 54.6634C54.5475 54.4023 54.6443 54.1462 54.6443 54.0904C54.6443 54.0052 54.9379 53.312 55.409 52.28C55.4847 52.1147 55.7232 51.5397 55.942 51.0022C56.1609 50.4646 56.4003 49.8891 56.475 49.7243C56.5515 49.5589 56.7917 48.9839 57.008 48.4463C57.2253 47.9088 57.4663 47.3333 57.5409 47.1684C57.6166 47.0031 57.8242 46.5295 57.9993 46.1162C58.1764 45.7029 58.3829 45.2288 58.455 45.064C58.5289 44.8987 58.9056 44.0193 59.2944 43.1116C59.6806 42.2014 60.0616 41.3241 60.1363 41.1593C60.2117 40.9939 60.556 40.1831 60.8984 39.3565C61.2435 38.5299 61.5859 37.7186 61.6606 37.5538C61.7355 37.3884 62.0365 36.679 62.33 35.9767C63.9753 32.0466 64.3512 31.1592 64.7168 30.3478C64.7912 30.1825 65.0309 29.6074 65.2498 29.0699C65.4686 28.5324 65.7802 27.8047 65.945 27.4548L66.2411 26.8158H69.5625L69.9024 27.6044C70.3272 28.5856 70.7932 29.6505 70.9735 30.0461C71.4936 31.1947 71.7356 31.7702 71.7356 31.8488C71.7356 31.9328 72.0291 32.6146 72.5853 33.824C72.705 34.0852 72.8031 34.3413 72.8031 34.397C72.8031 34.482 73.0389 35.0411 73.5652 36.2074C74.0853 37.356 74.3273 37.9316 74.3273 38.0102C74.3273 38.0606 74.4697 38.4184 74.644 38.8063C74.8184 39.1942 75.0637 39.7495 75.1873 40.0386C75.313 40.3276 75.4757 40.7003 75.5504 40.8652C75.6248 41.0305 75.8645 41.6055 76.0808 42.143C76.2981 42.6806 76.5365 43.2561 76.6112 43.4209C76.6861 43.5863 77.1673 44.7014 77.6823 45.9007C78.1972 47.1 78.6787 48.2156 78.7534 48.3804C78.8283 48.5457 79.0013 48.9509 79.137 49.2831C80.5402 52.6807 81.0964 53.9991 81.2715 54.4048C81.3843 54.6528 81.7581 55.5306 82.1057 56.3572C82.4507 57.1837 82.7957 57.9951 82.8704 58.1599C82.9451 58.3247 83.1511 58.7989 83.3287 59.2122C83.5059 59.6255 83.7124 60.0996 83.787 60.2644C83.8617 60.4292 84.1011 61.0048 84.32 61.5423C84.5373 62.0798 84.7783 62.6554 84.853 62.8202C85.5919 64.4328 86.5317 66.6996 86.5317 66.877C86.5317 67.0591 86.1584 67.0964 84.3303 67.0964C82.1778 67.0964 82.1263 67.0885 82.0233 66.7591C81.9296 66.4574 81.5753 65.608 81.1917 64.7687C81.116 64.6034 80.875 64.0284 80.6561 63.4909C80.2828 62.5755 79.9815 61.8681 79.6623 61.1607C79.5878 60.9954 79.3481 60.4203 79.1319 59.8828C78.9145 59.3453 78.6735 58.7697 78.5989 58.6049C78.1354 57.5932 77.8342 56.8808 77.8342 56.8022C77.8342 56.7517 77.7065 56.4269 77.551 56.0795C77.3949 55.7322 77.1725 55.2301 77.0566 54.9614L76.845 54.472H58.7959L58.4869 55.187C58.3175 55.58 57.99 56.3737 57.7608 56.9518C57.5312 57.5299 57.215 58.288 57.0579 58.6353C56.9009 58.9827 56.7721 59.3073 56.7721 59.358C56.7721 59.4376 56.4709 60.149 56.0074 61.1607C55.9317 61.326 55.6933 61.9011 55.4744 62.4386C55.2556 62.9761 55.0161 63.5517 54.9363 63.7165C54.8581 63.8818 54.545 64.6268 54.2437 65.3697C53.9399 66.1126 53.6567 66.8073 53.6129 66.9087C53.5125 67.1473 49.1328 67.1826 49.1328 66.9442L49.1529 66.9328ZM75.9304 51.1365C75.9304 50.993 75.7054 50.4519 75.0807 49.0929C74.961 48.8317 74.8629 48.5731 74.8629 48.5148C74.8629 48.457 74.763 48.1979 74.6412 47.9367C74.5192 47.6755 74.0361 46.5168 73.5701 45.3505C73.1041 44.1943 72.6561 43.1116 72.5788 42.9468C72.5011 42.7815 72.1205 41.8337 71.7369 40.8423C71.3507 39.8509 70.9748 38.9027 70.9001 38.7378C70.8254 38.5725 70.6617 38.2003 70.5371 37.9113C70.4114 37.6222 70.1663 37.0669 69.9938 36.679C69.8197 36.2911 69.6771 35.9183 69.6771 35.8524C69.6771 35.786 69.5875 35.5634 69.4791 35.3555C69.3707 35.1488 69.116 34.539 68.9152 34.004C68.7133 33.4665 68.4595 32.858 68.3513 32.6526C68.2429 32.446 68.1539 32.1911 68.1533 32.0897C68.1508 31.7728 67.8753 31.881 67.7645 32.2401C67.7076 32.4259 67.5702 32.7801 67.4582 33.0286C67.3472 33.2766 66.9741 34.1569 66.6291 34.981C66.2841 35.8075 65.8 36.9561 65.5554 37.5418C65.3113 38.1199 64.0157 41.193 62.6717 44.3878C61.3328 47.5571 60.1252 50.4223 59.9939 50.7265L59.7519 51.2894H67.8366C73.3981 51.2894 75.9214 51.24 75.9214 51.131L75.9304 51.1365ZM90.8898 46.9276V26.7955L99.3865 26.7981C108.269 26.8006 109.891 26.8812 111.308 27.4041C112.314 27.7743 113.872 28.5349 114.166 28.7935C114.275 28.8932 114.593 29.1434 114.874 29.3488C116.843 30.7915 118.736 33.6592 119.431 36.3469C120.126 38.9331 119.84 42.4575 118.741 44.9169C117.16 48.4413 114.493 50.8754 111.145 51.8896C110.471 52.0907 109.132 52.1376 102.674 52.1862L95.0016 52.2428V67.1009H90.882V46.9689L90.8898 46.9276ZM108.99 48.4185C111.797 48.0356 114.088 45.9235 115.221 42.6375C115.613 41.5092 115.703 38.4032 115.379 37.1354C114.939 35.4366 114.133 34.0167 112.935 32.8504C112.341 32.2723 111.651 31.6967 111.398 31.5725C111.147 31.4487 110.909 31.3113 110.865 31.2657C110.823 31.221 110.479 31.0537 110.103 30.893C109.462 30.6216 108.939 30.5988 102.199 30.5532L94.9893 30.505V48.5579H101.375C105.134 48.5579 108.275 48.4907 108.97 48.3954L108.99 48.4185ZM117.539 66.9531C117.502 66.8912 117.735 66.233 118.056 65.4876C118.378 64.7447 119.233 62.7239 119.959 60.9744C120.682 59.2375 121.367 57.6275 121.48 57.3739C121.594 57.1259 121.97 56.2456 122.317 55.4216C122.925 53.9738 123.254 53.2055 123.54 52.5564C123.614 52.3911 123.957 51.5803 124.302 50.7537C124.647 49.9271 125.021 49.0473 125.131 48.8013C125.242 48.5554 125.688 47.5057 126.12 46.4712C126.553 45.4392 127.106 44.1182 127.348 43.53C127.866 42.2977 129.599 38.2561 129.797 37.8251C129.872 37.6597 130.111 37.0847 130.327 36.5472C130.545 36.0096 130.783 35.4341 130.86 35.2693C130.936 35.1039 131.144 34.6303 131.321 34.217C131.5 33.8037 131.743 33.2535 131.864 32.9924C131.984 32.7312 132.082 32.4751 132.082 32.4193C132.082 32.3344 132.318 31.7753 132.844 30.609C133.148 29.9396 133.583 28.9051 133.921 28.0481C134.118 27.5511 134.343 27.0618 134.42 26.9578C134.517 26.8277 135.064 26.7699 136.202 26.7699H137.845L138.044 27.2593C138.443 28.2405 140.196 32.3303 140.618 33.3192C140.693 33.4845 141.036 34.2954 141.378 35.1219C141.72 35.9485 142.068 36.7599 142.145 36.9247C142.222 37.09 142.807 38.4764 143.44 40.018C144.076 41.547 144.658 42.9339 144.733 43.086C144.808 43.2513 145.227 44.2321 145.662 45.264C146.695 47.7057 147.766 50.2083 147.938 50.5886C148.013 50.7539 148.219 51.2276 148.397 51.6408C148.574 52.0541 148.78 52.5283 148.855 52.6931C148.931 52.8584 149.172 53.4335 149.391 53.971C149.764 54.8863 150.065 55.5937 150.384 56.3011C150.459 56.4664 150.699 57.0415 150.917 57.579C151.136 58.1166 151.414 58.7682 151.535 59.0294C151.656 59.2905 151.755 59.5491 151.755 59.6049C151.755 59.6617 151.961 60.1475 152.213 60.6825C152.465 61.2175 152.671 61.6916 152.671 61.7373C152.671 61.7829 152.77 62.0289 152.891 62.29C153.011 62.5512 153.29 63.2028 153.509 63.7404C153.728 64.2779 153.97 64.8534 154.044 65.0182C154.572 66.1744 154.809 66.75 154.809 66.8895C154.809 67.1311 150.612 67.1029 150.432 66.86C150.348 66.7566 149.677 65.217 148.946 63.4371C148.212 61.6597 147.522 60.0141 147.412 59.7606C147.301 59.5126 147.031 58.8706 146.812 58.3331C146.593 57.7956 146.351 57.22 146.276 57.0552C146.069 56.6039 145.586 55.4654 145.365 54.9127L145.169 54.4233L127.017 54.5009L126.113 56.6789C125.616 57.8782 125.143 59.0141 125.063 59.2068C124.982 59.3983 124.916 59.5872 124.916 59.6277C124.916 59.6921 124.584 60.4645 124.151 61.4127C124.075 61.5781 123.834 62.1531 123.615 62.6906C123.397 63.2282 123.126 63.8697 123.018 64.1181C122.908 64.3661 122.591 65.1273 122.31 65.8093L121.803 67.0492H119.704C118.551 67.0492 117.578 66.9985 117.539 66.9366L117.539 66.9531ZM144.059 51.2075C144.059 51.1335 143.533 49.8459 143.08 48.8089C142.972 48.5609 142.722 47.919 142.524 47.3814C142.327 46.8439 142.076 46.2354 141.968 46.03C141.859 45.8234 141.77 45.599 141.77 45.533C141.767 45.4283 141.499 44.7851 141.005 43.6999C140.929 43.5345 140.688 42.9595 140.47 42.4219C140.251 41.8844 139.983 41.2429 139.872 40.9944C139.762 40.7465 139.545 40.2059 139.391 39.7926C139.237 39.3793 139.023 38.8722 138.914 38.6643C138.807 38.4577 138.718 38.2307 138.718 38.1623C138.718 38.092 138.618 37.8225 138.496 37.5614C138.375 37.3002 138.023 36.4457 137.714 35.6597C137.405 34.8737 137.034 33.9609 136.887 33.6313C136.741 33.3017 136.527 32.8098 136.411 32.541C136.146 31.9325 135.973 31.9807 135.713 32.7375C135.601 33.0646 135.445 33.4652 135.365 33.63C135.286 33.7954 135.077 34.269 134.899 34.6823C134.722 35.0956 134.516 35.5697 134.438 35.7345C134.314 36.0058 132.654 39.9181 130.602 44.761C130.182 45.7524 129.778 46.7006 129.703 46.8655C129.629 47.0303 129.286 47.8416 128.944 48.6682C128.601 49.4948 128.22 50.3924 128.097 50.6637C127.973 50.935 127.873 51.1885 127.873 51.2265C127.873 51.2651 131.503 51.2965 135.958 51.2965C140.412 51.2965 144.042 51.2605 144.042 51.2169L144.059 51.2075ZM195.296 66.877C195.255 66.7713 195.24 57.7238 195.261 46.7704L195.3 26.8665H199.266L199.305 35.7662L199.344 44.6659H223.29V26.7905H227.409V67.1052H223.29V48.317H199.344L199.266 67.0292L197.317 67.0713C195.841 67.1032 195.35 67.0667 195.293 66.9209L195.296 66.877ZM236.492 46.9225V26.7905H263.27V30.543H240.535V44.6659H260.36V48.2663H240.535V63.302H263.733V67.0545H236.441L236.492 46.9225Z" fill="white"/>
<path d="M48.1172 84.3781V71.9034H50.2542V77.304H56.5367V71.9034H58.6737V84.3781H56.5367V79.2817H50.2542V84.3781H48.1172ZM66.9129 73.9825V84.5303H64.7759V73.9825H60.9395V72.0555H70.7493V73.9825H66.9129ZM77.7269 73.9825V84.5303H75.5899V73.9825H71.7535V72.0555H81.5633V73.9825H77.7269ZM88.2834 71.9541C90.2059 71.9541 91.6049 72.3167 92.4803 73.0418C93.3609 73.767 93.8011 74.8826 93.8011 76.3887C93.8011 77.8982 93.348 79.0054 92.4417 79.7103C91.5491 80.4117 90.1759 80.7625 88.3221 80.7625H86.0769V84.4136H83.9398V71.9389L88.2834 71.9541ZM88.5564 78.8507C89.739 78.8507 90.5415 78.631 90.9638 78.1915C91.398 77.7401 91.6152 77.086 91.6152 76.229C91.6152 75.3618 91.3431 74.7499 90.799 74.3933C90.2548 74.0366 89.4035 73.8583 88.2448 73.8583H86.0717V78.8532L88.5564 78.8507ZM105.019 73.4754C104.403 73.4754 103.896 73.6005 103.498 73.8507C103.099 74.1008 102.9 74.4812 102.9 74.9916C102.9 75.4903 103.099 75.8765 103.498 76.1504C103.896 76.4124 104.741 76.698 106.034 77.0074C107.338 77.3167 108.317 77.7503 108.969 78.3081C109.633 78.8676 109.965 79.6942 109.965 80.7878C109.965 81.8697 109.549 82.7486 108.717 83.4248C107.884 84.1009 106.794 84.4398 105.447 84.4415C103.473 84.4415 101.713 83.7696 100.169 82.4258L101.507 80.8385C102.788 81.9322 104.118 82.479 105.498 82.479C106.187 82.479 106.73 82.3362 107.128 82.0505C107.538 81.753 107.743 81.3668 107.743 80.8918C107.743 80.405 107.55 80.0306 107.164 79.7686C106.79 79.4947 106.138 79.2513 105.207 79.0383C104.277 78.8118 103.571 78.6098 103.088 78.4323C102.606 78.2413 102.178 77.9979 101.804 77.7021C101.055 77.1426 100.681 76.289 100.681 75.1412C100.681 73.9884 101.103 73.101 101.948 72.4789C102.804 71.8484 103.86 71.5332 105.115 71.5332C105.923 71.5332 106.726 71.6642 107.522 71.9262C108.319 72.1882 109.007 72.5567 109.587 73.0317L108.446 74.6189C108.072 74.2859 107.565 74.0121 106.925 73.7974C106.284 73.5827 105.65 73.4754 105.022 73.4754H105.019ZM121.755 71.9541V73.9343H115.009V77.2305H121.086V79.1043H115.009V82.4511H121.987V84.4314H112.872V71.9566L121.755 71.9541ZM134.629 76.0109C134.629 78.0731 133.719 79.3663 131.9 79.8903L135.221 84.4288H132.492L129.48 80.2452H126.673V84.4288H124.536V71.9541H129.248C131.188 71.9541 132.569 72.2753 133.393 72.9176C134.226 73.5599 134.642 74.591 134.642 76.0109H134.629ZM129.325 78.3284C130.532 78.3284 131.353 78.1441 131.789 77.7756C132.225 77.4072 132.442 76.8189 132.441 76.0109C132.441 75.1911 132.217 74.6324 131.771 74.3349C131.325 74.0256 130.528 73.8709 129.382 73.8709H126.653V78.3335L129.325 78.3284ZM143.383 84.3781H140.994L135.896 71.9034H138.285L142.173 81.2087L146.061 71.9034H148.45L143.383 84.3781ZM159.089 71.9541V73.9343H152.343V77.2305H158.42V79.1043H152.343V82.4511H159.321V84.4314H150.206V71.9566L159.089 71.9541ZM172.221 76.0109C172.221 78.0731 171.311 79.3663 169.491 79.8903L172.813 84.4288H170.084L167.071 80.2452H164.265V84.4288H162.128V71.9541H166.839C168.779 71.9541 170.161 72.2753 170.985 72.9176C171.817 73.5599 172.233 74.591 172.233 76.0109H172.221ZM166.917 78.3284C168.123 78.3284 168.945 78.1441 169.381 77.7756C169.817 77.4072 170.034 76.8189 170.032 76.0109C170.032 75.1911 169.809 74.6324 169.363 74.3349C168.916 74.0256 168.12 73.8709 166.973 73.8709H164.244V78.3335L166.917 78.3284ZM184.579 71.9541C186.502 71.9541 187.901 72.3167 188.776 73.0418C189.657 73.767 190.097 74.8826 190.097 76.3887C190.097 77.8982 189.644 79.0054 188.738 79.7103C187.845 80.4117 186.472 80.7625 184.618 80.7625H182.373V84.4136H180.236V71.9389L184.579 71.9541ZM184.852 78.8507C186.035 78.8507 186.838 78.631 187.26 78.1915C187.694 77.7401 187.911 77.086 187.911 76.229C187.911 75.3618 187.639 74.7499 187.095 74.3933C186.551 74.0366 185.699 73.8583 184.541 73.8583H182.368V78.8532L184.852 78.8507ZM202.86 76.0109C202.86 78.0731 201.951 79.3663 200.131 79.8903L203.452 84.4288H200.723L197.711 80.2452H194.904V84.4288H192.767V71.9541H197.479C199.419 71.9541 200.8 72.2753 201.624 72.9176C202.457 73.5599 202.873 74.591 202.873 76.0109H202.86ZM197.556 78.3284C198.763 78.3284 199.584 78.1441 200.02 77.7756C200.456 77.4072 200.673 76.8189 200.672 76.0109C200.672 75.1911 200.449 74.6324 200.002 74.3349C199.556 74.0256 198.76 73.8709 197.613 73.8709H194.884V78.3335L197.556 78.3284ZM214.962 74.9967C214.105 74.1177 213.049 73.6782 211.795 73.6782C210.54 73.6782 209.476 74.1177 208.602 74.9967C207.745 75.8757 207.317 76.9491 207.317 78.2168C207.317 79.466 207.745 80.5309 208.602 81.4116C209.471 82.2906 210.535 82.73 211.795 82.73C213.055 82.73 214.11 82.2906 214.962 81.4116C215.83 80.5326 216.264 79.4677 216.264 78.2168C216.264 76.9558 215.83 75.8825 214.962 74.9967ZM216.537 82.8061C215.257 84.0299 213.678 84.6418 211.8 84.6418C209.922 84.6418 208.343 84.0299 207.062 82.8061C205.782 81.5705 205.141 80.0407 205.141 78.2168C205.141 76.3743 205.782 74.8446 207.062 73.6275C208.343 72.3919 209.922 71.7741 211.8 71.7741C213.678 71.7741 215.257 72.3919 216.537 73.6275C217.818 74.8513 218.458 76.3811 218.458 78.2168C218.458 80.0424 217.818 81.5722 216.537 82.8061ZM221.141 73.729V71.8375H227.295V80.0525C227.295 81.5029 226.921 82.5931 226.172 83.3234C225.424 84.0485 224.462 84.4111 223.288 84.4111C221.816 84.4111 220.563 83.8998 219.529 82.8771L220.742 81.2189C221.562 81.9914 222.365 82.3776 223.149 82.3776C223.706 82.3776 224.177 82.1934 224.563 81.8249C224.961 81.4564 225.16 80.9036 225.16 80.1666V73.7264L221.141 73.729ZM239.422 71.9541V73.9343H232.676V77.2305H238.752V79.1043H232.676V82.4511H239.654V84.4314H230.539V71.9566L239.422 71.9541ZM248.176 82.6033C248.912 82.6033 249.547 82.4841 250.079 82.2458C250.609 81.9956 251.164 81.6034 251.745 81.0693L253.122 82.4613C251.782 83.9234 250.151 84.6545 248.23 84.6545C246.325 84.6545 244.737 84.0485 243.467 82.8365C242.212 81.6246 241.585 80.0948 241.585 78.2473C241.585 76.3997 242.225 74.853 243.505 73.6073C244.798 72.3716 246.42 71.7538 248.372 71.7538C250.346 71.7538 251.985 72.4671 253.289 73.8938L251.93 75.3568C251.326 74.7854 250.753 74.3874 250.21 74.1625C249.68 73.936 249.052 73.8228 248.328 73.8228C247.047 73.8228 245.975 74.2327 245.109 75.0525C244.241 75.8605 243.807 76.9 243.807 78.1712C243.807 79.4322 244.235 80.4887 245.091 81.3406C245.96 82.1841 246.99 82.6058 248.181 82.6058L248.176 82.6033ZM260.535 73.9825V84.5303H258.398V73.9825H254.561V72.0555H264.371V73.9825H260.535Z" fill="white"/>
</g>
<defs>
<clipPath id="clip0_447_42536">
<rect width="264.912" height="100" fill="white" transform="translate(0.046875)"/>
</clipPath>
</defs>
</svg>
