<svg width="84" height="100" viewBox="0 0 84 100" fill="none" xmlns="http://www.w3.org/2000/svg">
<g clipPath="url(#clip0_447_42603)">
<path d="M83.2806 19.6523L75.7064 91.9568L41.6597 100L7.70687 91.9682L0.140625 19.6523H83.2806Z" fill="#333333"/>
<path d="M69.2223 87.352L75.695 25.5645H41.7109V93.8514L69.2223 87.352Z" fill="black"/>
<path d="M17.4844 52.3867L18.4172 61.2559H41.7089V52.3867H17.4844Z" fill="white"/>
<path d="M41.7083 34.4336H41.6724H15.6094L16.5555 43.3029H41.7083V34.4336Z" fill="white"/>
<path d="M41.7094 84.6477V75.4199L41.6638 75.4303L30.0721 72.7631L29.3311 65.6895H23.6984H18.8828L20.341 79.6154L41.6615 84.659L41.7094 84.6477Z" fill="white"/>
<path d="M19.7109 0H32.3171V4.49219H24.9826V8.98438H32.3171V13.4766H19.7109V0Z" fill="white"/>
<path d="M34.8359 0H47.4421V3.90625H40.1076V4.6875H47.4421V13.6719H34.8359V9.57031H42.1705V8.78906H34.8359V0Z" fill="white"/>
<path d="M49.9609 0H62.5671V3.90625H55.2326V4.6875H62.5671V13.6719H49.9609V9.57031H57.2955V8.78906H49.9609V0Z" fill="white"/>
<path d="M54.4885 61.2543L53.2804 72.757L41.6719 75.427V84.6543L63.0094 79.615L63.1659 78.1166L65.6117 54.7668L65.8657 52.3852L67.7447 34.4336H41.6719V43.3029H56.3382L55.3911 52.3852H41.6719V61.2543H54.4885Z" fill="white"/>
</g>
<defs>
<clipPath id="clip0_447_42603">
<rect width="83.14" height="100" fill="white" transform="translate(0.140625)"/>
</clipPath>
</defs>
</svg>
