<svg width="100" height="60" viewBox="0 0 68 100" fill="none" xmlns="http://www.w3.org/2000/svg">
<g clipPath="url(#clip0_447_42597)">
<path d="M17.6432 99.9993C26.8432 99.9993 34.3099 92.5327 34.3099 83.3327V66.666H17.6432C8.44323 66.666 0.976562 74.1327 0.976562 83.3327C0.976562 92.5327 8.44323 99.9993 17.6432 99.9993Z" fill="white"/>
<path d="M0.976562 49.9987C0.976562 40.7987 8.44323 33.332 17.6432 33.332H34.3099V66.6654H17.6432C8.44323 66.6654 0.976562 59.1987 0.976562 49.9987Z" fill="white"/>
<path d="M0.976562 16.6667C0.976562 7.46667 8.44323 0 17.6432 0H34.3099V33.3333H17.6432C8.44323 33.3333 0.976562 25.8667 0.976562 16.6667Z" fill="white"/>
<path d="M34.3125 0H50.9792C60.1792 0 67.6458 7.46667 67.6458 16.6667C67.6458 25.8667 60.1792 33.3333 50.9792 33.3333H34.3125V0Z" fill="white"/>
<path d="M67.6458 49.9987C67.6458 59.1987 60.1792 66.6654 50.9792 66.6654C41.7792 66.6654 34.3125 59.1987 34.3125 49.9987C34.3125 40.7987 41.7792 33.332 50.9792 33.332C60.1792 33.332 67.6458 40.7987 67.6458 49.9987Z" fill="white"/>
</g>
<defs>
<clipPath id="clip0_447_42597">
<rect width="66.68" height="100" fill="white" transform="translate(0.96875)"/>
</clipPath>
</defs>
</svg>
