<svg width="84" height="100" viewBox="0 0 84 100" fill="none" xmlns="http://www.w3.org/2000/svg">
<g clipPath="url(#clip0_447_42562)">
<path d="M7.5662 91.9656L0 19.6562H83.1418L75.5673 91.9543L41.5199 99.9968L7.5662 91.9656Z" fill="black"/>
<path d="M41.5703 93.8471L69.0823 87.3484L75.5552 25.5664H41.5703V93.8471Z" fill="black"/>
<path d="M41.5683 52.3875H27.7952L26.8439 43.3061H41.5683V34.4375H15.4688L15.7179 36.8168L18.2761 61.2558H41.5683V52.3875ZM41.5683 75.4198L41.523 75.4302L29.9307 72.7632L29.1897 65.6902H18.7412L20.1994 79.6149L41.5204 84.658L41.5683 84.6467V75.4198Z" fill="#EBEBEB"/>
<path d="M7.73438 0.00390625H13.0238V4.45664H17.8624V0.00390625H23.1521V13.4879H17.8627V8.97264H13.0241V13.4879H7.73483V0.00390625H7.73438ZM30.1079 4.47538H25.4516V0.00390625H40.0568V4.47538H35.3981V13.4879H30.1084L30.1079 4.47538ZM42.3745 0.00390625H47.8898L51.2825 4.74177L54.6721 0.00390625H60.1896V13.4879H54.9219V6.80447L51.2828 11.5988H51.192L47.5501 6.80447V13.4879H42.3748V0.00390625H42.3745ZM62.8221 0.00390625H68.1131V9.03084H75.5517V13.4879H62.8221V0.00390625Z" fill="white"/>
<path d="M41.5312 52.3875V61.2558H54.3479L53.1398 72.7575L41.5312 75.4272V84.6537L62.869 79.6149L63.0256 78.1166L65.4715 54.7689L65.7254 52.3875H62.9206H41.5312ZM41.5312 34.4375V43.3061H66.6725L66.8813 41.3127L67.3556 36.8168L67.6045 34.4375H41.5312Z" fill="white"/>
</g>
<defs>
<clipPath id="clip0_447_42562">
<rect width="83.1418" height="100" fill="white"/>
</clipPath>
</defs>
</svg>
