<svg width="150" height="100" viewBox="0 0 268 100" fill="none" xmlns="http://www.w3.org/2000/svg">
<g clipPath="url(#clip0_447_42615)">
<path d="M165.606 9.88663C164.063 9.94287 162.589 10.5791 161.489 11.6829C160.228 12.9394 159.579 14.6866 159.703 16.462C159.703 18.8097 160.952 20.981 162.986 22.1523C165.016 23.3287 167.522 23.3287 169.553 22.1523C171.584 20.981 172.839 18.8097 172.835 16.462C172.961 14.6866 172.311 12.9394 171.051 11.6829C169.793 10.4214 168.045 9.7713 166.27 9.89907C166.048 9.88323 165.827 9.87871 165.606 9.88663ZM138.479 13.739L138.503 64.3846C138.503 71.5603 135.628 76.5342 127.313 76.5342C123.832 76.5612 120.381 75.9274 117.141 74.6699V84.242C120.942 85.5382 124.938 86.1684 128.953 86.111C142.533 86.111 148.328 76.9705 148.328 63.727V13.739H138.479ZM240.342 29.8077C225.023 29.8077 217.364 42.8262 217.364 58.255C217.364 74.3452 224.701 86.7067 239.249 86.7067C247.669 86.7067 254.233 82.9907 257.741 75.7654L257.753 85.613H267.167V30.9015H257.753V40.5247C254.457 33.4113 248.326 29.8077 240.342 29.8077ZM211.706 30.0661C202.294 30.0534 197.247 34.4723 194.273 40.5247V30.9015H185.083V85.65H194.273V53.3196C194.273 41.7316 201.61 38.0763 213.647 39.318V30.1279C212.98 30.0868 212.334 30.0669 211.706 30.0661ZM161.459 30.9142V85.624H170.868V30.9142H161.459ZM242.818 38.5107C250.852 38.5107 257.741 43.8712 257.741 56.0196V60.4444C257.741 72.5878 250.198 77.9496 241.775 77.9549C232.024 77.9549 226.778 71.3862 226.728 58.2042C226.728 45.5102 232.197 38.5107 242.818 38.5107Z" fill="white"/>
<path d="M92.8443 47.362L52.3049 6.82254L48.3759 2.89648L3.91049 47.362C2.45692 48.8195 2.45692 51.179 3.91049 52.6336L31.7906 80.5128L48.3759 97.102L92.8443 52.6336C94.2989 51.179 94.2989 48.8195 92.8443 47.362ZM48.3759 63.9235L34.4512 49.9998L48.3759 36.071L62.3036 49.9998L48.3759 63.9235Z" fill="white"/>
<path d="M48.38 36.0715C39.2636 26.9511 39.217 12.1798 48.283 3.00586L17.8047 33.4724L34.3939 50.0616L48.38 36.0715Z" fill="white"/>
<path d="M62.3492 49.9609L48.3828 63.9243C52.7841 68.3216 55.2596 74.2903 55.2596 80.5135C55.2596 86.7367 52.7841 92.7015 48.3828 97.1028L78.9345 66.5502L62.3492 49.9609Z" fill="white"/>
</g>
<defs>
<clipPath id="clip0_447_42615">
<rect width="267.143" height="100" fill="white"/>
</clipPath>
</defs>
</svg>
