<svg width="150" height="100" viewBox="0 0 353 100" fill="none" xmlns="http://www.w3.org/2000/svg">

<path d="M44.7974 40.1125C39.7009 17.5992 29.0786 11.6058 26.3689 7.36917C25.2516 5.50281 24.2617 3.56282 23.4062 1.5625C23.2631 3.5625 23.0001 4.8225 21.3024 6.33917C17.8937 9.3825 3.41654 21.1958 2.19818 46.7758C1.06304 70.6258 19.7079 85.3325 22.1712 86.8525C24.0653 87.7858 26.3722 86.8725 27.4974 86.0158C36.4853 79.8392 48.7654 63.3725 44.8074 40.1125" fill="white"/>

<path d="M24.177 74.1523C23.7076 80.0557 23.3714 83.4857 22.1797 86.859C22.1797 86.859 22.962 92.479 23.5112 98.4323H25.4553C25.919 94.2401 26.627 90.0785 27.5757 85.969C25.0591 84.729 24.2735 79.3323 24.177 74.1523Z" fill="#B8C4C2"/>

<path d="M27.5786 85.9736C25.0354 84.797 24.2997 79.287 24.1866 74.1536C24.8155 65.6858 24.9988 57.1908 24.7358 48.7036C24.6027 44.2503 24.7991 7.45698 23.6406 2.07031C24.4331 3.89472 25.3461 5.6642 26.3736 7.36698C29.0833 11.607 39.709 17.6003 44.8021 40.1136C48.7701 63.3336 36.5565 79.757 27.5786 85.9736Z" fill="white"/>

<path d="M280.592 72.7945C282.086 73.9912 285.072 74.4845 287.705 74.4845C291.117 74.4845 294.463 73.8512 297.732 70.8945C301.061 67.8645 303.351 63.2279 303.351 55.8245C303.351 48.7112 300.648 42.9379 295.102 39.5579C291.973 37.5879 287.918 36.8112 283.295 36.8112C281.963 36.8112 280.592 36.8812 279.813 37.2345C279.493 37.487 279.267 37.8389 279.17 38.2345C279.03 39.5012 279.03 49.1479 279.03 54.8512C279.03 60.6979 279.03 68.8512 279.17 69.8512C279.243 70.6979 279.669 72.1845 280.592 72.8079M266.397 33.6445C267.606 33.6445 272.2 33.8545 274.337 33.8545C278.331 33.8545 281.091 33.6445 288.557 33.6445C294.816 33.6445 300.082 35.3345 303.847 38.5712C308.401 42.5179 310.837 48.0079 310.837 54.6979C310.837 64.2045 306.51 69.6979 302.159 72.7945C297.832 76.0345 292.203 77.8645 284.183 77.8645C279.916 77.8645 272.589 77.7245 266.474 77.6545H266.347C266.061 77.0912 266.87 74.8945 267.369 74.8379C269.034 74.6512 269.473 74.5845 270.239 74.2679C271.53 73.7379 271.833 73.0779 271.976 70.7545C272.19 66.3879 272.12 61.1779 272.12 55.2612C272.12 51.0379 272.19 42.7979 272.05 40.1912C271.833 38.0112 270.915 37.4479 269.054 37.0245C267.734 36.7438 266.401 36.5324 265.059 36.3912C264.919 35.9679 266.011 34.0579 266.367 33.6445" fill="white"/>

<path d="M328.466 37.2156C328.183 37.2856 327.827 37.9923 327.827 38.3423C327.754 40.879 327.684 47.4956 327.684 52.0723C327.702 52.1598 327.745 52.24 327.809 52.3028C327.872 52.3657 327.953 52.4084 328.04 52.4256C328.962 52.4956 331.239 52.569 333.16 52.569C335.863 52.569 337.427 52.2156 338.28 51.7923C340.557 50.6656 341.608 48.199 341.608 45.5256C341.608 39.399 337.341 37.0756 331.013 37.0756C330.157 37.0648 329.302 37.1116 328.453 37.2156M344.598 65.3823C344.598 59.1856 340.044 55.6656 331.722 55.6656C331.369 55.6656 328.726 55.5956 328.097 55.7356C327.884 55.8056 327.671 55.9456 327.671 56.089C327.671 60.5256 327.597 67.6356 327.814 70.4523C327.957 71.649 328.812 73.339 329.874 73.8323C331.013 74.4656 333.573 74.6056 335.35 74.6056C340.257 74.6056 344.598 71.8623 344.598 65.3823ZM315.617 33.7656C316.259 33.7656 318.15 33.9756 322.987 33.9756C327.537 33.9756 331.236 33.8356 335.637 33.8356C341.112 33.8356 348.649 35.809 348.649 43.9756C348.649 47.9756 345.806 51.229 342.108 52.779C341.895 52.849 341.895 52.989 342.108 53.059C347.371 54.3923 351.991 57.6356 351.991 63.8323C351.991 69.889 348.223 73.6923 342.747 76.0856C339.418 77.5656 335.28 78.0556 331.096 78.0556C327.897 78.0556 319.322 77.7223 314.555 77.7756C314.056 77.5656 315.011 75.309 315.437 74.959C316.529 74.9253 317.613 74.7551 318.663 74.4523C320.367 74.0323 320.57 73.4823 320.783 70.9456C320.926 68.7623 320.926 60.9456 320.926 55.3823C320.926 47.7756 321 42.639 320.926 40.1023C320.856 38.1323 320.144 37.4956 318.793 37.1456C317.727 36.9323 315.95 36.7223 314.528 36.5123C314.172 36.159 315.267 34.0456 315.62 33.7656" fill="white"/>

<path d="M60.5492 77.8293C60.366 77.3786 60.2919 76.8909 60.3328 76.406C60.3169 76.0755 60.3917 75.7469 60.5492 75.456C61.469 75.3232 62.3804 75.1373 63.2788 74.8993C64.5371 74.586 65.0098 73.8993 65.0831 72.2927C65.2895 68.496 65.3028 61.3727 65.2295 56.366V56.2193C65.2295 55.6793 65.2295 54.946 64.5638 54.4293C63.3936 53.6942 62.1232 53.1328 60.7922 52.7627C60.1963 52.586 59.8668 52.2727 59.8834 51.906C59.9001 51.5393 60.2762 51.106 61.0518 50.9527C63.1124 50.7427 68.5118 49.4527 70.6322 48.4727C70.8506 48.7576 70.9518 49.1154 70.9152 49.4727C70.9152 49.6927 70.8819 49.926 70.8586 50.166C70.7987 50.8727 70.7321 51.676 70.7321 52.476C70.7451 52.5732 70.785 52.6648 70.8472 52.7405C70.9095 52.8162 70.9916 52.873 71.0843 52.9046C71.177 52.9361 71.2767 52.9411 71.3721 52.9189C71.4675 52.8968 71.5548 52.8485 71.6242 52.7793C75.6621 49.6093 79.2806 48.4793 81.1347 48.4793C84.1873 48.4793 86.5641 49.9393 88.4049 52.946C88.4471 53.0186 88.5073 53.0791 88.5796 53.1217C88.6518 53.1643 88.7339 53.1876 88.8177 53.1893C88.894 53.1886 88.9689 53.1694 89.0361 53.1335C89.1034 53.0975 89.1609 53.0457 89.2039 52.9827C92.9155 50.1627 96.5939 48.4793 99.0572 48.4793C104.876 48.4793 108.355 52.8427 108.355 60.146C108.355 62.246 108.335 64.9093 108.315 67.3927C108.298 69.5727 108.281 71.616 108.281 73.0293C108.281 73.3627 108.741 74.3227 109.43 74.5127C110.282 74.9293 111.51 75.1427 113.065 75.4093H113.125C113.241 75.8293 112.995 77.4593 112.759 77.7927C112.373 77.7927 111.84 77.7593 111.174 77.726C109.966 77.666 108.308 77.5827 106.381 77.5827C102.513 77.5827 100.492 77.656 98.5612 77.7827C98.4148 77.2993 98.3648 75.7393 98.5413 75.4127C99.3408 75.2875 100.132 75.1149 100.911 74.896C102.143 74.4893 102.499 73.9293 102.576 72.2927C102.606 71.1293 102.829 60.8793 102.433 58.446C102.067 55.9227 100.169 52.9693 96.018 52.9693C94.4767 52.9693 91.9901 53.6127 89.62 55.4127C89.4729 55.5795 89.3903 55.7935 89.3869 56.016V56.066C89.6666 57.3793 89.6666 58.9127 89.6666 61.2293C89.6666 62.5627 89.6666 63.9527 89.6499 65.3427C89.6333 68.1693 89.62 70.836 89.6666 72.8527C89.6666 74.226 90.4955 74.556 91.1646 74.8193C91.5274 74.8993 91.8137 74.9693 92.1033 75.036C92.6592 75.1727 93.2384 75.3127 94.1006 75.4493C94.2282 76.0349 94.2168 76.6423 94.0673 77.2227C94.032 77.4405 93.9465 77.647 93.8176 77.826C91.6672 77.7527 89.4602 77.6893 86.2745 77.6893C85.3091 77.6893 83.7346 77.7293 82.3431 77.766C81.2146 77.796 80.1494 77.826 79.5436 77.8293C79.3797 77.4422 79.3068 77.0225 79.3305 76.6027C79.2965 76.2071 79.3738 75.8099 79.5535 75.456L80.4091 75.2993C81.1547 75.166 81.8005 75.0527 82.4064 74.8993C83.4583 74.566 83.8544 73.9927 83.931 72.6493C84.1374 69.516 84.2971 60.486 83.8544 58.226C83.1021 54.5993 81.0415 52.7593 77.726 52.7593C75.7853 52.7593 73.3319 53.696 71.328 55.1993C71.1352 55.3873 70.9834 55.6131 70.882 55.8626C70.7806 56.1122 70.7318 56.38 70.7388 56.6493C70.7388 57.726 70.7388 59.006 70.7388 60.3793C70.7388 64.9127 70.7088 70.556 70.8187 72.996C70.8852 73.7493 71.1515 74.6427 72.5596 74.9693C72.8692 75.0593 73.4018 75.146 74.021 75.2493C74.3772 75.3093 74.7667 75.3727 75.1695 75.446C75.2975 76.2442 75.2324 77.0615 74.9797 77.8293C74.3606 77.8293 73.5982 77.7893 72.7261 77.7527C71.3946 77.6927 69.7301 77.6193 67.8493 77.6193C65.6257 77.6193 64.0778 77.6927 62.8361 77.7527C62.0006 77.7927 61.2782 77.826 60.5558 77.8293" fill="white"/>

<path d="M131.937 51.4972C130.735 51.4723 129.554 51.8052 128.541 52.4539C126.071 53.9572 124.813 56.9606 124.813 61.3739C124.813 69.6339 128.944 75.4039 134.859 75.4039C136.446 75.4543 137.993 74.9058 139.194 73.8672C141.011 72.3839 141.977 69.3506 141.977 65.1039C141.977 56.9672 137.939 51.4972 131.93 51.4972M133.069 78.4672C122.383 78.4672 118.578 70.6172 118.578 63.2739C118.578 58.1439 120.672 54.1339 124.803 51.3506C127.697 49.5569 131.018 48.5738 134.42 48.5039C142.572 48.5039 148.268 54.3739 148.268 62.7839C148.268 68.4972 145.994 73.0106 141.69 75.8306C139.623 77.0972 136.031 78.4672 133.069 78.4672Z" fill="white"/>

<path d="M240.727 51.4972C239.523 51.4699 238.339 51.803 237.325 52.4539C234.855 53.9572 233.597 56.9606 233.597 61.3739C233.597 69.6339 237.728 75.4039 243.643 75.4039C245.234 75.4576 246.786 74.9089 247.991 73.8672C249.808 72.3839 250.77 69.3506 250.77 65.1039C250.77 56.9672 246.736 51.4972 240.727 51.4972ZM241.865 78.4672C231.18 78.4672 227.375 70.6172 227.375 63.2772C227.375 58.1406 229.469 54.1339 233.603 51.3506C236.495 49.5558 239.815 48.5726 243.217 48.5039C251.369 48.5039 257.065 54.3772 257.065 62.7806C257.065 68.5006 254.791 73.0106 250.487 75.8272C248.42 77.0972 244.828 78.4672 241.865 78.4672Z" fill="white"/>

<path d="M204.737 51.2127C201.444 51.2127 199.314 53.816 199.314 57.846C199.314 61.876 201.148 66.666 206.305 66.666C207.19 66.666 208.795 66.2727 209.59 65.396C210.789 64.2927 211.587 62.0127 211.587 59.606C211.587 54.3493 209.031 51.2127 204.753 51.2127M204.327 79.026C203.397 79.0158 202.48 79.2454 201.664 79.6927C199.058 81.3593 197.849 83.026 197.849 84.9627C197.849 86.776 198.552 88.2193 200.063 89.4993C201.894 91.0527 204.364 91.8093 207.609 91.8093C213.998 91.8093 216.86 88.3693 216.86 84.9627C216.86 82.5893 215.672 80.9993 213.225 80.0993C211.341 79.4093 208.192 79.0293 204.337 79.0293M204.763 95.3627C200.928 95.3627 198.166 94.5527 195.805 92.7327C193.509 90.9593 192.477 88.326 192.477 86.506C192.501 85.3331 192.948 84.2087 193.735 83.3393C194.401 82.5793 195.949 81.156 199.527 78.6927C199.583 78.669 199.63 78.6296 199.663 78.5792C199.696 78.5288 199.714 78.4697 199.713 78.4093C199.715 78.342 199.693 78.2762 199.652 78.2229C199.611 78.1696 199.552 78.1319 199.487 78.116C196.541 76.986 195.652 75.116 195.383 74.116C195.383 74.0793 195.383 74.0227 195.353 73.9593C195.269 73.566 195.19 73.1927 195.725 72.8093C196.138 72.516 196.797 72.1227 197.503 71.706C198.499 71.1538 199.455 70.5311 200.363 69.8427C200.411 69.7901 200.448 69.7272 200.468 69.6585C200.489 69.5899 200.494 69.5174 200.482 69.4466C200.471 69.3758 200.443 69.3086 200.402 69.2501C200.36 69.1917 200.306 69.1435 200.243 69.1093C195.882 67.6427 193.685 64.3993 193.685 59.4427C193.672 57.897 194.031 56.3709 194.732 54.9939C195.433 53.6169 196.456 52.4296 197.713 51.5327C199.467 50.1427 203.871 48.4727 206.724 48.4727H206.89C209.823 48.5427 211.478 49.1593 213.768 50.006C215.071 50.4777 216.451 50.6971 217.836 50.6527C220.262 50.6527 221.324 49.8827 222.236 48.986C222.384 49.3899 222.463 49.8159 222.469 50.246C222.525 51.2709 222.247 52.2862 221.677 53.1393C221.181 53.8293 220.013 54.3293 218.944 54.3293C218.834 54.3293 218.728 54.3293 218.611 54.3127C218.049 54.273 217.492 54.1804 216.947 54.036L216.674 54.1327C216.587 54.2593 216.644 54.3993 216.714 54.5793C216.731 54.6145 216.744 54.6514 216.754 54.6893C216.949 55.579 217.081 56.4812 217.15 57.3893C217.15 62.5727 215.109 64.8293 212.902 66.5027C210.769 68.1059 208.234 69.0886 205.579 69.3427C205.522 69.3427 205.246 69.366 204.727 69.4127C204.394 69.4427 203.961 69.4827 203.898 69.4827H203.835C203.355 69.616 202.104 70.2127 202.104 71.3227C202.104 72.2427 202.669 73.386 205.376 73.5927L207.127 73.716C210.695 73.966 215.153 74.276 217.25 74.986C218.641 75.4758 219.842 76.3925 220.683 77.6055C221.524 78.8186 221.962 80.2663 221.933 81.7427C221.933 86.3927 218.631 90.766 213.102 93.4393C210.495 94.6864 207.64 95.3279 204.75 95.316" fill="white"/>

<path d="M188.414 75.3556C186.85 75.1456 185.708 74.9322 184.36 74.2989C184.095 74.0245 183.921 73.6755 183.86 73.2989C183.717 71.1156 183.717 64.7789 183.717 60.6322C183.717 57.2489 183.151 54.2989 181.72 52.1822C180.012 49.7856 177.595 48.3789 174.466 48.3789C171.693 48.3789 167.995 50.2789 164.939 52.8856C164.866 52.9556 164.397 53.4022 164.407 52.7089C164.417 52.0156 164.523 50.6089 164.59 49.7089C164.619 49.4698 164.592 49.2271 164.512 49.0002C164.431 48.7733 164.298 48.5685 164.124 48.4022C162.126 49.4022 156.524 50.7356 154.45 50.9389C152.939 51.2322 152.556 52.6889 154.17 53.1922H154.194C155.486 53.5491 156.72 54.0926 157.855 54.8056C158.495 55.2989 158.425 56.0022 158.425 56.5656C158.495 61.2822 158.495 68.5356 158.282 72.4789C158.212 74.0289 157.782 74.5922 156.644 74.8756L156.75 74.8389C155.883 75.0565 155.004 75.2212 154.117 75.3322C153.761 75.6822 153.761 77.7256 154.117 78.1489C154.83 78.1489 158.445 77.9389 161.441 77.9389C165.562 77.9389 167.695 78.1489 168.764 78.1489C169.193 77.6556 169.333 75.7556 169.05 75.3322C168.066 75.2877 167.088 75.1459 166.131 74.9089C164.996 74.6289 164.71 74.0622 164.64 72.7989C164.5 69.4856 164.5 62.4456 164.5 57.6556C164.5 56.3222 164.853 55.6856 165.279 55.3222C166.7 54.0556 169.05 53.2122 171.111 53.2122C173.108 53.2122 174.44 53.8456 175.438 54.6889C176.602 55.7052 177.331 57.1299 177.476 58.6689C177.759 61.3356 177.685 66.6989 177.685 71.3356C177.685 73.8722 177.476 74.5089 176.55 74.7889C176.124 74.9989 174.986 75.2122 173.634 75.3522C173.208 75.7756 173.348 77.7456 173.634 78.1689C175.482 78.1689 177.629 77.9589 180.745 77.9589C184.656 77.9589 187.146 78.1689 188.141 78.1689C188.567 77.6756 188.71 75.8356 188.428 75.3522" fill="white"/>

</svg>