<svg width="150" height="100" viewBox="0 0 196 100" fill="none" xmlns="http://www.w3.org/2000/svg">
<g clipPath="url(#clip0_447_42530)">
<path d="M0.9375 91.3592H7.3605V65.9958L17.3036 88.1067C18.477 90.7826 20.083 91.7298 23.2324 91.7298C26.3824 91.7298 27.9264 90.7831 29.1003 88.1067L39.0434 65.9958V91.3587H45.4664V66.0373C45.4664 63.5666 44.4781 62.3727 42.4404 61.7555C37.5614 60.232 34.2879 61.5495 32.8054 64.8435L23.0474 86.6653L13.5984 64.8435C12.178 61.5495 8.84296 60.232 3.96394 61.7555C1.92581 62.3727 0.9375 63.5671 0.9375 66.0369V91.3592ZM50.807 70.7148H57.228V84.6882C57.168 85.4474 57.4716 87.2289 60.9902 87.284C62.7853 87.3125 74.8445 87.284 74.957 87.284V70.6468H81.3931C81.4226 70.6468 81.3866 93.3358 81.3871 93.4324C81.4221 99.0281 74.4439 100.243 71.2274 100.338H50.9461V96.0162C50.9821 96.0162 71.2124 96.0207 71.2634 96.0157C75.3972 95.579 74.909 93.5244 74.9085 92.8327V91.1482H61.2563C54.9043 91.0897 50.86 88.3173 50.81 85.1288C50.805 84.8332 50.9471 70.8543 50.8065 70.7143L50.807 70.7148Z" fill="white"/>
<path d="M86.3521 91.364H104.818C106.979 91.364 109.079 90.9113 110.747 90.1286C113.526 88.8527 114.885 87.1237 114.885 84.8585V80.165C114.885 78.3119 113.341 76.5824 110.315 75.43C108.709 74.8118 106.732 74.4827 104.818 74.4827H97.0354C94.4426 74.4827 93.2072 73.7005 92.8986 71.9714C92.8366 71.7654 92.8366 71.6003 92.8366 71.3948V68.4719C92.8366 68.3068 92.8366 68.1417 92.8986 67.9362C93.2072 66.6188 93.8869 66.2477 96.1716 66.0421C96.3567 66.0421 96.6038 66.0006 96.7893 66.0006H115.132V61.7192H97.0979C94.5041 61.7192 93.1452 61.8838 91.9103 62.2539C88.0811 63.4483 86.4136 65.3424 86.4136 68.6359V72.3831C86.4136 75.2655 89.6871 77.7357 95.1833 78.3119C95.8015 78.3529 96.4187 78.3939 97.0359 78.3939H103.706C103.954 78.3939 104.201 78.3939 104.386 78.4355C106.424 78.6005 107.288 78.9706 107.906 79.7119C108.276 80.082 108.4 80.4531 108.4 80.8647V84.6109C108.4 85.0645 108.091 85.6412 107.474 86.1349C106.918 86.629 105.992 86.9586 104.756 87.0411C104.509 87.0411 104.324 87.0821 104.077 87.0821H86.3516V91.3635L86.3521 91.364ZM154.953 83.9117C154.953 88.317 158.226 90.7878 164.835 91.282C165.452 91.323 166.07 91.364 166.688 91.364H183.425V87.0821H166.564C162.797 87.0821 161.376 86.1348 161.376 83.8706V61.7188H154.953V83.9117ZM118.984 84.1362V68.87C118.984 64.9918 121.708 62.6395 127.091 61.8968C127.665 61.8149 128.244 61.7736 128.824 61.7733H141.016C141.635 61.7733 142.192 61.8148 142.811 61.8968C148.195 62.6395 150.918 64.9918 150.918 68.87V84.1357C150.918 87.2817 149.762 88.9662 147.096 90.0636L153.423 95.7744H145.966L140.847 91.1539L135.694 91.4805H128.824C127.648 91.4805 126.411 91.315 125.049 90.9439C120.965 89.83 118.984 87.6843 118.984 84.1357V84.1362ZM125.916 83.7651C125.916 83.9717 125.978 84.1777 126.04 84.4253C126.412 86.1994 128.083 87.1897 130.62 87.1897H136.455L131.095 82.3507H138.552L143.228 86.571C144.089 86.1118 144.656 85.4096 144.854 84.5078C144.916 84.3018 144.916 84.0952 144.916 83.8892V69.2421C144.916 69.077 144.916 68.8705 144.854 68.6639C144.483 67.0134 142.812 66.0651 140.336 66.0651H130.62C127.773 66.0651 125.917 67.303 125.917 69.2421V83.7651H125.916Z" fill="white"/>
<path d="M189.061 54.6134C185.113 54.5064 182.097 54.8735 179.519 55.9608C178.786 56.2699 177.618 56.2779 177.498 57.1962C177.901 57.6184 177.963 58.2486 178.283 58.7677C178.898 59.764 179.938 61.0989 180.866 61.7992C181.879 62.5644 182.923 63.3822 184.01 64.0449C185.942 65.2227 188.099 65.8954 189.959 67.0758C191.056 67.7715 192.145 68.6478 193.215 69.433C193.744 69.8212 194.099 70.4249 194.786 70.6684V70.5559C194.425 70.0963 194.332 69.4641 194.001 68.9839L192.541 67.5245C191.114 65.6304 189.303 63.9668 187.377 62.5849C185.842 61.4826 182.405 59.9941 181.764 58.2065L181.651 58.094C182.74 57.9715 184.015 57.5774 185.02 57.3088C186.708 56.8556 188.216 56.9727 189.959 56.5225C190.745 56.298 191.531 56.0729 192.317 55.8488V55.3997C191.436 54.4954 190.808 53.299 189.846 52.4808C187.333 50.3401 184.589 48.2014 181.764 46.4184C180.197 45.4291 178.26 44.7864 176.6 43.9481C176.041 43.6665 175.059 43.52 174.691 43.0498C173.818 41.938 173.343 40.528 172.67 39.2326C171.261 36.5193 169.877 33.5554 168.629 30.7C167.777 28.7534 167.221 26.8338 166.159 25.0867C161.061 16.7056 155.574 11.6475 147.074 6.67499C145.266 5.61767 143.088 5.19954 140.787 4.65437L137.082 4.4293C136.328 4.1142 135.544 3.19241 134.836 2.74527C132.02 0.966717 124.798 -2.90299 122.712 2.1841C121.396 5.3951 124.681 8.52857 125.855 10.1556C126.68 11.2969 127.736 12.5763 128.325 13.8602C128.713 14.704 128.78 15.5498 129.111 16.4425C129.928 18.6417 130.637 21.034 131.693 23.0661C132.227 24.0944 132.815 25.1778 133.49 26.097C133.903 26.6617 134.612 26.9103 134.724 27.7816C134.031 28.7519 133.991 30.2573 133.602 31.4862C131.847 37.0189 132.509 43.8951 135.061 47.9899C135.845 49.2468 137.689 51.9426 140.225 50.9088C142.444 50.005 141.948 47.2046 142.583 44.7343C142.727 44.1742 142.638 43.762 142.92 43.3869V43.4995L144.94 47.5407C146.436 49.949 149.091 52.4663 151.34 54.1648C152.506 55.0456 153.425 56.5685 154.933 57.0837V56.9712H154.82C154.528 56.516 154.071 56.327 153.698 55.9608C152.819 55.0996 151.842 54.0287 151.115 53.0419C149.07 50.2646 147.262 47.2251 145.615 44.0606C144.828 42.5502 144.144 40.8826 143.481 39.3452C143.225 38.7525 143.228 37.8562 142.696 37.5486C141.969 38.6755 140.9 39.5867 140.338 40.9172C139.44 43.0438 139.324 45.6371 138.991 48.3265C138.794 48.397 138.881 48.3485 138.766 48.4385C137.202 48.0614 136.653 46.4519 136.072 45.071C134.602 41.5789 134.329 35.9556 135.622 31.9359C135.957 30.8955 137.47 27.6195 136.857 26.6592C136.565 25.7004 135.601 25.1458 135.061 24.4135C134.394 23.5077 133.727 22.3154 133.265 21.2695C132.062 18.5467 131.5 15.4902 130.234 12.7379C129.629 11.422 128.605 10.0906 127.764 8.9207C126.833 7.62529 125.791 6.66999 125.07 5.10301C124.813 4.54633 124.465 3.65505 124.845 3.08238C124.966 2.69626 125.137 2.53471 125.519 2.40867C126.17 1.90701 127.984 2.57572 128.662 2.85781C130.462 3.60554 131.965 4.31776 133.49 5.32758C134.222 5.81323 134.962 6.75202 135.847 7.0121H136.857C138.438 7.37521 140.208 7.12464 141.685 7.57328C144.295 8.36652 146.633 9.59991 148.757 10.9413C155.229 15.0271 160.519 20.8434 164.138 27.7816C164.721 28.8984 164.973 29.9648 165.485 31.1496C166.52 33.5394 167.824 35.9981 168.853 38.3349C169.88 40.6656 170.881 43.0188 172.333 44.9589C173.097 45.9787 176.046 46.5259 177.385 47.0916C178.325 47.4887 179.864 47.9023 180.754 48.4385C182.453 49.4638 184.1 50.6842 185.694 51.8071C186.49 52.3682 188.939 53.5991 189.061 54.6134Z" fill="white"/>
<path fillRule="evenodd" clipRule="evenodd" d="M138.881 11.8413C138.057 11.8263 137.475 11.9313 136.859 12.0653V12.1779H136.972C137.365 12.9846 138.057 13.5038 138.543 14.1985C138.917 14.9846 139.292 15.7705 139.666 16.5562L139.778 16.4442C140.473 15.9541 140.792 15.1703 140.789 13.9744C140.51 13.6813 140.469 13.3132 140.227 12.9636C139.906 12.4975 139.285 12.2334 138.881 11.8413Z" fill="#00618A"/>
<path fillRule="evenodd" clipRule="evenodd" d="M186.43 86.9595C186.43 89.7874 188.664 91.693 191.164 91.693C193.663 91.693 195.897 89.7874 195.897 86.9595C195.897 84.1322 193.663 82.2266 191.164 82.2266C188.664 82.2266 186.43 84.1322 186.43 86.9595H186.43ZM194.837 86.9595C194.837 89.1052 193.196 90.7087 191.164 90.7087C189.107 90.7087 187.491 89.1052 187.491 86.9595C187.491 84.8139 189.106 83.2104 191.164 83.2104C193.196 83.2104 194.837 84.8139 194.837 86.9595ZM192.439 89.6604H193.499L191.947 87.2881C192.78 87.1996 193.41 86.7955 193.41 85.8112C193.41 84.7128 192.717 84.2587 191.379 84.2587H189.271V89.6604H190.179V87.3257H191.025L192.439 89.6604ZM190.179 86.5684V85.0159H191.227C191.77 85.0159 192.426 85.117 192.426 85.7482C192.426 86.5049 191.833 86.5684 191.151 86.5684H190.179Z" fill="#CCCCCC"/>
</g>
<defs>
<clipPath id="clip0_447_42530">
<rect width="195" height="100" fill="white" transform="translate(0.695312)"/>
</clipPath>
</defs>
</svg>
