<svg width="100" height="100" viewBox="0 0 164 100" fill="none" xmlns="http://www.w3.org/2000/svg">
<g clipPath="url(#clip0_447_42577)">
<path d="M81.0476 100C80.5065 100 79.969 99.859 79.4946 99.587L74.551 96.6726C73.8127 96.2614 74.173 96.116 74.4165 96.0322C75.401 95.6889 75.6008 95.6114 76.6516 95.0172C76.762 94.9544 76.9066 94.9766 77.0196 95.043L80.8175 97.2871C80.9546 97.3609 81.1492 97.3609 81.2763 97.2871L96.0843 88.7757C96.2215 88.6982 96.3104 88.5394 96.3104 88.377V71.3615C96.3104 71.1917 96.2215 71.0404 96.0814 70.9555L81.2793 62.4514C81.1422 62.3702 80.9605 62.3702 80.8234 62.4514L66.0243 70.9555C65.8809 71.0367 65.7897 71.1954 65.7897 71.3578V88.3734C65.7897 88.5358 65.8786 88.6908 66.0195 88.7683L70.0745 91.101C72.2763 92.1972 73.6218 90.9054 73.6218 89.6061V72.8121C73.6218 72.5722 73.8108 72.3876 74.0517 72.3876H75.9273C76.1608 72.3876 76.3536 72.5722 76.3536 72.8121V89.6135C76.3536 92.5368 74.7523 94.2162 71.9686 94.2162C71.1124 94.2162 70.4378 94.2162 68.5548 93.2935L64.6703 91.0641C63.7102 90.5104 63.1172 89.477 63.1172 88.3734V71.3578C63.1172 70.2505 63.7102 69.217 64.6703 68.6708L79.4931 60.1556C80.4309 59.6278 81.6763 59.6278 82.6067 60.1556L97.4109 68.6745C98.3672 69.2244 98.964 70.2542 98.964 71.3615V88.377C98.964 89.4806 98.3672 90.5104 97.4109 91.0641L82.6067 99.5792C82.1322 99.8524 81.5947 99.9926 81.0462 99.9926" fill="white"/>
<path d="M85.6189 88.2742C79.1397 88.2742 77.7812 85.3126 77.7812 82.8285C77.7812 82.5923 77.9725 82.4041 78.2101 82.4041H80.1227C80.334 82.4041 80.5119 82.5573 80.5453 82.7651C80.8344 84.7058 81.6943 85.6846 85.6122 85.6846C88.7332 85.6846 90.0602 84.9826 90.0602 83.3346C90.0602 82.386 89.6821 81.681 84.8339 81.2086C80.7788 80.8099 78.2731 79.9204 78.2731 76.6908C78.2731 73.7158 80.7936 71.9441 85.0155 71.9441C89.7563 71.9441 92.1063 73.5829 92.4028 77.1042C92.4139 77.226 92.3694 77.3441 92.2879 77.4327C92.2063 77.5176 92.0914 77.5692 91.9728 77.5692H90.0491C89.8489 77.5692 89.6747 77.429 89.6339 77.237C89.1706 75.1959 88.0512 74.5426 85.0081 74.5426C81.6017 74.5426 81.2051 75.7237 81.2051 76.6096C81.2051 77.6837 81.6721 77.9974 86.2683 78.6027C90.8201 79.2043 92.981 80.0533 92.981 83.2386C92.981 86.4498 90.29 88.2916 85.5974 88.2916M103.634 70.2463H104.131C104.538 70.2463 104.616 69.9621 104.616 69.796C104.616 69.3604 104.316 69.3604 104.149 69.3604H103.638L103.634 70.2463ZM103.03 68.8511H104.131C104.509 68.8511 105.25 68.8511 105.25 69.6926C105.25 70.2795 104.872 70.4013 104.646 70.4751C105.087 70.5046 105.117 70.7925 105.176 71.1986C105.205 71.4532 105.254 71.8925 105.343 72.0401H104.664C104.646 71.8925 104.542 71.0804 104.542 71.0362C104.498 70.8553 104.435 70.7667 104.208 70.7667H103.649V72.0438H103.03V68.8511ZM101.706 70.4382C101.706 71.7596 102.778 72.83 104.094 72.83C105.42 72.83 106.492 71.7374 106.492 70.4382C106.492 69.1131 105.406 68.0612 104.09 68.0612C102.792 68.0612 101.703 69.0984 101.703 70.4345M106.951 70.4456C106.951 72.0106 105.665 73.2877 104.097 73.2877C102.54 73.2877 101.243 72.0253 101.243 70.4456C101.243 68.8363 102.57 67.6035 104.097 67.6035C105.635 67.6035 106.948 68.84 106.948 70.4456" fill="white"/>
<path fillRule="evenodd" clipRule="evenodd" d="M35.1893 33.422C35.1893 32.7428 34.8297 32.119 34.2411 31.7813L18.5413 22.7863C18.2763 22.6313 17.9794 22.5501 17.6784 22.539H17.5161C17.2151 22.5501 16.9182 22.6313 16.6487 22.7863L0.949639 31.7813C0.364732 32.1209 0 32.7447 0 33.4238L0.0344717 57.6516C0.0344717 57.9874 0.208683 58.3012 0.505214 58.4673C0.794331 58.6444 1.15758 58.6444 1.4467 58.4673L10.78 53.1448C11.3693 52.7957 11.7289 52.1785 11.7289 51.506V40.1876C11.7289 39.5121 12.0884 38.8883 12.6759 38.5525L16.6494 36.2736C16.9445 36.1038 17.2684 36.0197 17.5983 36.0197C17.923 36.0197 18.2544 36.1031 18.5413 36.2733L22.513 38.5513C23.1008 38.8872 23.4619 39.511 23.4619 40.1865V51.5042C23.4619 52.1759 23.8262 52.796 24.4126 53.143L33.74 58.4617C34.0328 58.6352 34.3972 58.6352 34.6889 58.4617C34.9765 58.2956 35.1589 57.9819 35.1589 57.646L35.1893 33.422ZM109.273 46.0363C109.273 46.205 109.183 46.3611 109.036 46.4446L103.643 49.5398C103.497 49.6236 103.316 49.6236 103.17 49.5398L97.7768 46.4446C97.6286 46.3608 97.5396 46.2046 97.5396 46.0363V39.8369C97.5396 39.6679 97.6286 39.5121 97.7731 39.4272L103.163 36.3268C103.311 36.2419 103.492 36.2419 103.641 36.3268L109.034 39.4272C109.182 39.5121 109.271 39.6679 109.271 39.8369L109.273 46.0363ZM110.73 0.119509C110.435 -0.0436337 110.077 -0.0392045 109.787 0.129474C109.498 0.299261 109.319 0.609305 109.319 0.945186V24.9367C109.319 25.1729 109.193 25.3907 108.988 25.5088C108.784 25.6269 108.53 25.6269 108.324 25.5088L104.391 23.2532C103.806 22.9159 103.084 22.9159 102.496 23.2532L86.7915 32.2789C86.2047 32.6147 85.8426 33.2385 85.8426 33.9103V51.9667C85.8426 52.6421 86.2047 53.2622 86.7915 53.6018L102.496 62.6337C103.083 62.9696 103.805 62.9696 104.393 62.6337L120.098 53.5981C120.684 53.2585 121.047 52.6384 121.047 51.963V6.96226C121.047 6.27721 120.673 5.64716 120.072 5.31238L110.73 0.119509ZM163.028 39.6738C163.611 39.3364 163.97 38.7134 163.97 38.0416V33.6656C163.97 32.9923 163.611 32.3711 163.026 32.0323L147.421 23.0115C146.832 22.6719 146.109 22.6719 145.52 23.0115L129.818 32.036C129.229 32.3756 128.87 32.9957 128.87 33.6711V51.7201C128.87 52.3993 129.236 53.0267 129.826 53.3626L145.427 62.2173C146.002 62.5458 146.706 62.5495 147.288 62.2284L156.725 57.0056C157.021 56.8395 157.21 56.5258 157.21 56.1862C157.21 55.8467 157.029 55.5292 156.732 55.3631L140.935 46.3349C140.638 46.1688 140.456 45.8551 140.456 45.5192V39.8572C140.456 39.5191 140.634 39.2076 140.931 39.0393L145.846 36.2157C146.139 36.0459 146.498 36.0459 146.791 36.2157L151.71 39.0393C152.003 39.2054 152.184 39.5191 152.184 39.855V44.3064C152.184 44.6422 152.366 44.956 152.659 45.1258C152.951 45.2919 153.315 45.2919 153.608 45.1221L163.028 39.6738Z" fill="white"/>
<path fillRule="evenodd" clipRule="evenodd" d="M146.244 38.8302C146.355 38.7649 146.494 38.7649 146.607 38.8302L149.621 40.5613C149.733 40.6263 149.802 40.7459 149.802 40.8751V44.3409C149.802 44.4701 149.733 44.5897 149.621 44.6547L146.607 46.3857C146.494 46.4511 146.355 46.4511 146.244 46.3857L143.232 44.6547C143.117 44.5897 143.047 44.4701 143.047 44.3409V40.8751C143.047 40.7459 143.114 40.6263 143.229 40.5613L146.244 38.8302Z" fill="white"/>
<mask id="mask0_447_42577" style="mask-type:luminance" maskUnits="userSpaceOnUse" x="43" y="22" width="36" height="41">
<path d="M59.5754 23.1025L43.9593 32.078C43.3744 32.4138 43.0156 33.0339 43.0156 33.7042V51.6676C43.0156 52.3383 43.3744 52.958 43.9593 53.2939L59.5765 62.2763C60.1603 62.6111 60.8801 62.6111 61.4632 62.2763L77.0777 53.2939C77.6596 52.958 78.0192 52.3379 78.0192 51.6676V33.7042C78.0192 33.0339 77.6596 32.4138 77.074 32.078L61.4617 23.1025C61.1688 22.9353 60.8427 22.8516 60.5165 22.8516C60.1903 22.8516 59.8641 22.9353 59.5713 23.1025" fill="white"/>
</mask>
<g mask="url(#mask0_447_42577)">
<path d="M93.7999 30.5541L49.7966 9.07617L27.2344 54.9089L71.2365 76.3879L93.7999 30.5541Z" fill="white"/>
</g>
<mask id="mask1_447_42577" style="mask-type:luminance" maskUnits="userSpaceOnUse" x="43" y="22" width="35" height="41">
<path d="M43.3984 52.8097C43.5478 53.0027 43.7346 53.1699 43.9544 53.2954L57.3502 61.0004L59.5816 62.2775C59.9152 62.4694 60.2955 62.5506 60.6691 62.5229C60.7937 62.5129 60.9182 62.4897 61.0398 62.4554L77.5098 32.4253C77.3838 32.2888 77.2363 32.1744 77.0709 32.0784L66.8458 26.1986L61.4408 23.1019C61.2874 23.0133 61.1209 22.9505 60.9516 22.9062L43.3984 52.8097Z" fill="white"/>
</mask>
<g mask="url(#mask1_447_42577)">
<path d="M24.375 36.9082L55.4458 78.7837L96.5375 48.5522L65.4648 6.67773L24.375 36.9082Z" fill="white"/>
</g>
<mask id="mask2_447_42577" style="mask-type:luminance" maskUnits="userSpaceOnUse" x="44" y="22" width="34" height="41">
<path d="M60.3337 22.8605C60.0716 22.8864 59.8155 22.9676 59.5794 23.1012L44.0078 32.0508L60.7988 62.5052C61.0324 62.472 61.2622 62.3945 61.4697 62.2749L77.0858 53.2925C77.5676 53.0142 77.8975 52.5432 77.9976 52.0095L60.8804 22.8912C60.7544 22.8664 60.6283 22.8535 60.4986 22.8535C60.4467 22.8535 60.3948 22.8561 60.3429 22.8609" fill="white"/>
</mask>
<g mask="url(#mask2_447_42577)">
<path d="M44.0078 22.8535V62.506H77.9913V22.8535H44.0078Z" fill="white"/>
</g>
</g>
<defs>
<clipPath id="clip0_447_42577">
<rect width="163.971" height="100" fill="white"/>
</clipPath>
</defs>
</svg>
