<svg width="100" height="100" viewBox="0 0 114 100" fill="none" xmlns="http://www.w3.org/2000/svg">
<g clipPath="url(#clip0_447_42513)">
<path d="M56.6681 60.0162C62.219 60.0162 66.7189 55.531 66.7189 49.9983C66.7189 44.4656 62.219 39.9805 56.6681 39.9805C51.1171 39.9805 46.6172 44.4656 46.6172 49.9983C46.6172 55.531 51.1171 60.0162 56.6681 60.0162Z" fill="white"/>
<path d="M56.6659 70.5233C86.4515 70.5233 110.597 61.3343 110.597 49.999C110.597 38.6637 86.4515 29.4746 56.6659 29.4746C26.8803 29.4746 2.73438 38.6637 2.73438 49.999C2.73438 61.3343 26.8803 70.5233 56.6659 70.5233Z" stroke="white" strokeWidth="1.6117"/>
<path d="M38.8306 60.2606C53.7233 85.9708 73.7805 102.219 83.6296 96.551C93.4786 90.8833 89.3898 65.4465 74.497 39.7362C59.6042 14.0259 39.547 -2.22187 29.698 3.44578C19.849 9.11342 23.9378 34.5503 38.8306 60.2606Z" stroke="white" strokeWidth="1.6117"/>
<path d="M38.8287 39.7372C23.9359 65.4475 19.8471 90.8843 29.6962 96.552C39.5452 102.22 59.6024 85.9719 74.4952 60.2616C89.3879 34.5513 93.4767 9.11445 83.6277 3.4468C73.7787 -2.22085 53.7215 14.0269 38.8287 39.7372Z" stroke="white" strokeWidth="1.6117"/>
</g>
<defs>
<clipPath id="clip0_447_42513">
<rect width="112.766" height="100" fill="white" transform="translate(0.28125)"/>
</clipPath>
</defs>
</svg>
