<svg width="84" height="100" viewBox="0 0 100 100" fill="none" xmlns="http://www.w3.org/2000/svg">
<g clipPath="url(#clip0_447_42570)">
<path d="M7.10938 49.9993C7.10938 66.9773 16.9763 81.6497 31.2842 88.6026L10.8231 32.543C8.44304 37.8775 7.10938 43.7809 7.10938 49.9993Z" fill="white"/>
<path d="M78.96 47.8345C78.96 42.5334 77.0558 38.8623 75.4226 36.0049C73.2483 32.4716 71.2103 29.4795 71.2103 25.9463C71.2103 22.0034 74.2008 18.3331 78.4132 18.3331C78.6033 18.3331 78.7837 18.3567 78.969 18.3673C71.3376 11.376 61.1703 7.10742 50.0031 7.10742C35.0178 7.10742 21.8338 14.7958 14.1641 26.4409C15.1704 26.4711 16.1188 26.4924 16.9244 26.4924C21.411 26.4924 28.356 25.948 28.356 25.948C30.6683 25.8117 30.9409 29.2078 28.6311 29.4812C28.6311 29.4812 26.3074 29.7546 23.7217 29.8901L39.342 76.3507L48.729 48.1985L42.046 29.8885C39.7362 29.753 37.548 29.4795 37.548 29.4795C35.2365 29.3441 35.5075 25.81 37.819 25.9463C37.819 25.9463 44.9027 26.4907 49.1175 26.4907C53.6033 26.4907 60.5492 25.9463 60.5492 25.9463C62.8631 25.81 63.1348 29.2061 60.8242 29.4795C60.8242 29.4795 58.4956 29.753 55.9148 29.8885L71.416 75.9973L75.6944 61.7004C77.5488 55.7677 78.96 51.5064 78.96 47.8345Z" fill="white"/>
<path d="M50.7525 53.75L37.8828 91.1462C41.7255 92.2758 45.7893 92.8937 50 92.8937C54.9951 92.8937 59.7854 92.0302 64.2442 90.4623C64.1291 90.2786 64.0247 90.0836 63.939 89.8714L50.7525 53.75Z" fill="white"/>
<path d="M87.6374 29.4199C87.8219 30.7862 87.9264 32.2529 87.9264 33.8305C87.9264 38.1832 87.1134 43.0761 84.6649 49.1942L71.5625 87.0752C84.3147 79.6391 92.8921 65.8237 92.8921 49.9997C92.8929 42.5424 90.9879 35.5298 87.6374 29.4199Z" fill="white"/>
<path d="M50.0016 0C22.4314 0 0 22.4293 0 49.9988C0 77.5716 22.4314 100 50.0016 100C77.571 100 100.006 77.5716 100.006 49.9988C100.005 22.4293 77.571 0 50.0016 0ZM50.0016 97.7082C23.6957 97.7082 2.29269 76.3057 2.29269 49.9988C2.29269 23.6935 23.6949 2.29263 50.0016 2.29263C76.3067 2.29263 97.7081 23.6935 97.7081 49.9988C97.7081 76.3057 76.3067 97.7082 50.0016 97.7082Z" fill="white"/>
</g>
<defs>
<clipPath id="clip0_447_42570">
<rect width="100" height="100" fill="white"/>
</clipPath>
</defs>
</svg>
