<svg width="196" height="39" viewBox="0 0 196 39" fill="none" xmlns="http://www.w3.org/2000/svg">
<g clipPath="url(#clip0_3374_7480)">
<path d="M155.584 32.0518C155.125 32.0518 154.765 31.906 154.504 31.6145C154.242 31.3229 154.111 30.9827 154.111 30.594V8.82347C154.111 8.43471 154.242 8.09455 154.504 7.80299C154.798 7.51142 155.158 7.36563 155.584 7.36563C156.009 7.36563 156.353 7.51142 156.615 7.80299C156.91 8.09455 157.057 8.43471 157.057 8.82347V16.1126L156.32 16.2584C156.419 15.1246 156.697 14.0069 157.155 12.9054C157.646 11.7716 158.301 10.7349 159.119 9.79536C159.937 8.8559 160.903 8.09455 162.016 7.51142C163.162 6.92829 164.438 6.63672 165.846 6.63672C166.435 6.63672 167.008 6.76633 167.565 7.02547C168.121 7.25227 168.4 7.64103 168.4 8.19174C168.4 8.67769 168.268 9.05027 168.007 9.30942C167.745 9.5686 167.434 9.69817 167.074 9.69817C166.514 9.74983 164.156 9.60062 162.016 10.8865C159.46 12.4227 157.11 15.6344 157.057 18.5911V30.594C157.057 30.9827 156.91 31.3229 156.615 31.6145C156.32 31.906 155.977 32.0518 155.584 32.0518Z" fill="#58585A"/>
<path d="M41.8539 32.0518C41.3955 32.0518 41.0353 31.906 40.7737 31.6145C40.5117 31.3229 40.3809 30.9827 40.3809 30.594V8.82347C40.3809 8.43471 40.5117 8.09455 40.7737 7.80299C41.0683 7.51142 41.4281 7.36563 41.8539 7.36563C42.2793 7.36563 42.6231 7.51142 42.8851 7.80299C43.1797 8.09455 43.327 8.43471 43.327 8.82347V16.1126L42.5905 16.2584C42.6887 15.1246 42.9668 14.0069 43.4252 12.9054C43.9162 11.7716 44.5706 10.7349 45.3893 9.79536C46.2075 8.8559 47.1731 8.09455 48.2863 7.51142C49.4318 6.92829 50.7084 6.63672 52.1163 6.63672C52.7055 6.63672 53.2782 6.76633 53.8348 7.02547C54.3911 7.25227 54.6696 7.64103 54.6696 8.19174C54.6696 8.67769 54.5384 9.05027 54.2768 9.30942C54.0148 9.5686 53.7036 9.69817 53.3438 9.69817C52.7843 9.74983 50.4258 9.60062 48.2863 10.8865C45.7301 12.4227 43.3802 15.6344 43.327 18.5911V30.594C43.327 30.9827 43.1797 31.3229 42.8851 31.6145C42.5905 31.906 42.2467 32.0518 41.8539 32.0518Z" fill="#58585A"/>
<path fillRule="evenodd" clipRule="evenodd" d="M29.3399 25.4706C28.1735 27.6484 26.5946 29.1948 24.603 30.4035C22.6114 31.6123 20.3502 32.369 17.8195 32.4127C14.2324 32.4559 11.157 31.3289 8.59321 28.7374C6.02941 26.1456 4.74756 22.9388 4.74756 19.3452C4.74756 15.6426 6.0349 12.3976 8.60971 9.93651C11.1185 7.49723 14.1883 6.25582 17.8195 6.27763C20.3502 6.29939 22.6499 6.97453 24.7185 8.23774C26.6991 9.47915 28.2396 11.1289 29.3399 13.2197H26.468C24.3554 10.1924 21.4065 8.6842 17.6214 8.72777C14.8045 8.72777 12.3783 9.76769 10.3427 11.7823C8.30709 13.7968 7.28932 16.5138 7.2233 19.3452C7.15728 22.2854 8.14204 24.5501 10.2437 26.6957C12.3453 28.8408 14.8706 29.9625 17.8195 29.9625C19.536 29.9625 21.2085 29.4504 22.837 28.5578C24.3994 27.7084 25.6208 26.7773 26.5011 25.4706H29.3399Z" fill="#D0021B"/>
<path fillRule="evenodd" clipRule="evenodd" d="M29.978 15.3164H30.9233C30.9258 15.7179 30.9283 16.4509 30.9138 17.2113C30.8874 18.7789 30.7558 21.5124 30.3824 23.4521H29.417C29.8146 21.4279 29.9376 18.8017 29.9702 17.1931C29.9846 16.4335 29.9817 15.7179 29.978 15.3164ZM33.7192 15.3576C33.9875 15.5084 34.9303 16.0949 34.9303 16.9125V16.9439C34.967 16.9717 35.0103 16.9885 35.0392 17.0289C35.4828 17.6469 35.8876 17.6085 36.0803 17.8784C36.2734 18.1488 36.254 19.3845 36.254 19.3845C36.254 19.3845 36.2734 20.6206 36.0803 20.8905C35.8876 21.1612 35.4828 21.1224 35.0392 21.7407C35.0103 21.7807 34.967 21.7974 34.9303 21.8256V21.8562C34.9303 22.8081 33.6446 23.4521 33.6446 23.4521H33.1717C33.5592 21.4373 33.6796 18.8532 33.7114 17.2637C33.7263 16.4841 33.723 15.7523 33.7192 15.3576ZM31.8476 15.3164H32.7946C32.7974 15.7081 32.7999 16.4625 32.7855 17.2461C32.7595 18.805 32.6291 21.5145 32.2615 23.4521H31.293C31.6854 21.4324 31.8084 18.8279 31.8402 17.2286C31.8554 16.4449 31.8513 15.7095 31.8476 15.3164Z" fill="#D0021B"/>
<path d="M41.6054 32.0517C41.147 32.0517 40.7867 31.9059 40.5251 31.6143C40.2631 31.3227 40.1323 30.9826 40.1323 30.5938V8.82347C40.1323 8.43472 40.2631 8.09456 40.5251 7.80299C40.8198 7.51142 41.1796 7.36564 41.6054 7.36564C42.0308 7.36564 42.3745 7.51142 42.6365 7.80299C42.9311 8.09456 43.0785 8.43472 43.0785 8.82347V16.1127L42.3419 16.2584C42.4401 15.1245 42.7182 14.0069 43.1767 12.9054C43.6677 11.7715 44.3221 10.7348 45.1407 9.79536C45.959 8.85586 46.9245 8.09455 48.0378 7.51142C49.1832 6.92829 50.4599 6.63672 51.8677 6.63672C52.457 6.63672 53.0297 6.76629 53.5863 7.02548C54.1425 7.25224 54.421 7.64099 54.421 8.19174C54.421 8.67769 54.2898 9.05023 54.0282 9.30942C53.7662 9.56856 53.4551 9.69817 53.0953 9.69817C52.8007 9.69817 52.4731 9.61716 52.1133 9.4552C51.7856 9.29321 51.3437 9.21223 50.7875 9.21223C49.8706 9.21223 48.9542 9.48758 48.0378 10.0383C47.1209 10.5567 46.2862 11.2694 45.5336 12.1765C44.7805 13.0836 44.1748 14.1041 43.7168 15.238C43.291 16.3394 43.0785 17.457 43.0785 18.591V30.5938C43.0785 30.9826 42.9311 31.3227 42.6365 31.6143C42.3419 31.9059 41.9982 32.0517 41.6054 32.0517ZM70.3677 32.5376C67.847 32.5376 65.6213 32.0031 63.6898 30.934C61.7583 29.8649 60.2527 28.3748 59.1724 26.4633C58.0922 24.5518 57.552 22.3164 57.552 19.7572C57.552 17.0035 58.0922 14.6548 59.1724 12.711C60.2853 10.7673 61.7092 9.27699 63.4443 8.24034C65.212 7.17126 67.0779 6.63672 69.0419 6.63672C70.4824 6.63672 71.8734 6.89586 73.2156 7.41423C74.5905 7.90018 75.8015 8.64526 76.8492 9.64958C77.9294 10.6215 78.7807 11.8201 79.4025 13.2456C80.0573 14.671 80.4171 16.3232 80.4827 18.2022C80.4501 18.591 80.2863 18.9311 79.9917 19.2227C79.6971 19.482 79.3534 19.6115 78.9606 19.6115H59.2706L58.6814 16.9874H78.0276L77.3893 17.5705V16.5986C77.2585 15.076 76.7675 13.7801 75.9162 12.711C75.065 11.642 74.0339 10.832 72.8228 10.2813C71.6118 9.73056 70.3512 9.4552 69.0419 9.4552C68.0599 9.4552 67.0453 9.64958 65.9976 10.0383C64.983 10.4271 64.05 11.0426 63.1988 11.8849C62.3806 12.6948 61.7092 13.7477 61.1856 15.0436C60.662 16.307 60.4 17.8135 60.4 19.5629C60.4 21.4744 60.7928 23.2075 61.5784 24.7625C62.364 26.3175 63.4934 27.5487 64.9665 28.4557C66.4721 29.3626 68.2563 29.8163 70.3186 29.8163C71.4644 29.8163 72.4956 29.6542 73.412 29.3304C74.3285 29.0065 75.1306 28.5851 75.818 28.0669C76.5055 27.516 77.0782 26.9492 77.5366 26.3661C77.8968 26.0745 78.2566 25.9287 78.6169 25.9287C78.9441 25.9287 79.2226 26.0582 79.4516 26.3175C79.7136 26.5768 79.8444 26.8684 79.8444 27.1922C79.8444 27.581 79.6806 27.9211 79.3534 28.2127C78.3714 29.379 77.0947 30.3994 75.5234 31.2741C73.9522 32.1166 72.2336 32.5376 70.3677 32.5376ZM144.904 7.21985C145.33 7.21985 145.673 7.36564 145.935 7.6572C146.23 7.94877 146.377 8.3051 146.377 8.72628V30.5938C146.377 30.9826 146.23 31.3227 145.935 31.6143C145.64 31.9059 145.297 32.0517 144.904 32.0517C144.479 32.0517 144.118 31.9059 143.824 31.6143C143.562 31.3227 143.431 30.9826 143.431 30.5938V24.8111L144.266 24.4223C144.266 25.3293 144.004 26.2526 143.48 27.1922C142.989 28.1318 142.302 29.0065 141.418 29.8163C140.534 30.6261 139.487 31.2905 138.275 31.8087C137.097 32.2946 135.82 32.5376 134.445 32.5376C132.22 32.5376 130.222 31.9708 128.455 30.8368C126.72 29.7028 125.345 28.1478 124.33 26.1717C123.348 24.1957 122.857 21.9763 122.857 19.5143C122.857 16.9874 123.365 14.7682 124.379 12.8568C125.394 10.913 126.769 9.39039 128.504 8.28893C130.239 7.18743 132.203 6.63672 134.396 6.63672C135.804 6.63672 137.113 6.87969 138.324 7.36564C139.568 7.85158 140.649 8.51569 141.565 9.35801C142.482 10.2003 143.185 11.1722 143.676 12.2737C144.2 13.3428 144.462 14.4604 144.462 15.6267L143.431 14.8978V8.72628C143.431 8.3051 143.562 7.94877 143.824 7.6572C144.118 7.36564 144.479 7.21985 144.904 7.21985ZM134.691 29.8163C136.426 29.8163 137.964 29.379 139.306 28.5043C140.649 27.5973 141.696 26.3661 142.449 24.8111C143.234 23.2238 143.627 21.458 143.627 19.5143C143.627 17.6027 143.234 15.8858 142.449 14.3632C141.696 12.8406 140.649 11.6257 139.306 10.7187C137.964 9.81153 136.426 9.35801 134.691 9.35801C132.989 9.35801 131.45 9.79536 130.075 10.6701C128.733 11.5448 127.669 12.7434 126.883 14.2661C126.131 15.7887 125.754 17.5382 125.754 19.5143C125.754 21.458 126.131 23.2238 126.883 24.8111C127.669 26.3661 128.733 27.5973 130.075 28.5043C131.417 29.379 132.956 29.8163 134.691 29.8163ZM155.581 32.0517C155.123 32.0517 154.763 31.9059 154.501 31.6143C154.239 31.3227 154.108 30.9826 154.108 30.5938V8.82347C154.108 8.43472 154.239 8.09456 154.501 7.80299C154.795 7.51142 155.156 7.36564 155.581 7.36564C156.007 7.36564 156.351 7.51142 156.612 7.80299C156.907 8.09456 157.054 8.43472 157.054 8.82347V16.1127L156.318 16.2584C156.416 15.1245 156.694 14.0069 157.152 12.9054C157.643 11.7715 158.298 10.7348 159.116 9.79536C159.935 8.85586 160.901 8.09455 162.013 7.51142C163.159 6.92829 164.436 6.63672 165.843 6.63672C166.433 6.63672 167.006 6.76629 167.562 7.02548C168.119 7.25224 168.397 7.64099 168.397 8.19174C168.397 8.67769 168.266 9.05023 168.004 9.30942C167.742 9.56856 167.431 9.69817 167.071 9.69817C166.776 9.69817 166.449 9.61716 166.089 9.4552C165.762 9.29321 165.32 9.21223 164.763 9.21223C163.847 9.21223 162.93 9.48758 162.013 10.0383C161.097 10.5567 160.262 11.2694 159.509 12.1765C158.757 13.0836 158.151 14.1041 157.692 15.238C157.267 16.3394 157.054 17.457 157.054 18.591V30.5938C157.054 30.9826 156.907 31.3227 156.612 31.6143C156.318 31.9059 155.974 32.0517 155.581 32.0517ZM183.241 32.5376C180.72 32.5376 178.494 32.0031 176.563 30.934C174.631 29.8649 173.126 28.3748 172.045 26.4633C170.965 24.5518 170.425 22.3164 170.425 19.7572C170.425 17.0035 170.965 14.6548 172.045 12.711C173.158 10.7673 174.582 9.27699 176.317 8.24034C178.085 7.17126 179.951 6.63672 181.915 6.63672C183.355 6.63672 184.746 6.89586 186.089 7.41423C187.464 7.90018 188.675 8.64526 189.722 9.64958C190.803 10.6215 191.653 11.8201 192.276 13.2456C192.93 14.671 193.29 16.3232 193.356 18.2022C193.323 18.591 193.159 18.9311 192.865 19.2227C192.57 19.482 192.226 19.6115 191.834 19.6115H172.144L171.554 16.9874H190.901L190.262 17.5705V16.5986C190.131 15.076 189.64 13.7801 188.789 12.711C187.938 11.642 186.907 10.832 185.696 10.2813C184.484 9.73056 183.224 9.4552 181.915 9.4552C180.933 9.4552 179.918 9.64958 178.871 10.0383C177.856 10.4271 176.923 11.0426 176.072 11.8849C175.253 12.6948 174.582 13.7477 174.059 15.0436C173.535 16.307 173.273 17.8135 173.273 19.5629C173.273 21.4744 173.666 23.2075 174.451 24.7625C175.237 26.3175 176.366 27.5487 177.84 28.4557C179.345 29.3626 181.129 29.8163 183.192 29.8163C184.337 29.8163 185.368 29.6542 186.285 29.3304C187.202 29.0065 188.004 28.5851 188.691 28.0669C189.379 27.516 189.951 26.9492 190.41 26.3661C190.769 26.0745 191.13 25.9287 191.49 25.9287C191.817 25.9287 192.095 26.0582 192.325 26.3175C192.586 26.5768 192.717 26.8684 192.717 27.1922C192.717 27.581 192.554 27.9211 192.226 28.2127C191.244 29.379 189.968 30.3994 188.396 31.2741C186.825 32.1166 185.107 32.5376 183.241 32.5376Z" fill="#58585A"/>
<path fillRule="evenodd" clipRule="evenodd" d="M117.15 6.71484H120.384C120.37 6.8595 120.337 6.98448 120.284 7.08977C120.248 7.19533 120.213 7.31849 120.177 7.45925L109.724 31.7396C109.439 32.373 108.959 32.7074 108.284 32.7425C107.963 32.7777 107.644 32.7074 107.323 32.5314C107.039 32.3203 106.826 32.0565 106.683 31.7396L103.183 23.6506L104.874 19.6795L108.241 27.6003L117.15 6.71484ZM103.838 6.71484H107.102C107.085 6.81619 107.056 6.90642 107.016 6.98554C106.98 7.0911 106.945 7.21426 106.909 7.35502L96.4555 31.6355C96.1712 32.2689 95.6913 32.6033 95.0154 32.6385C94.6957 32.6736 94.3754 32.6033 94.0557 32.4273C93.771 32.2162 93.5576 31.9524 93.4157 31.6355L82.9086 7.35502C82.8732 7.28466 82.8373 7.1791 82.8018 7.03834C82.7746 6.93051 82.7578 6.82267 82.7515 6.71484H86.1391L94.9727 27.4967L99.8745 16.0054L99.7819 15.7915L96.1764 7.45925C96.141 7.38889 96.1055 7.28329 96.0696 7.14253C96.0341 7.00181 96.0163 6.86105 96.0163 6.72029C96.0163 6.71847 96.0163 6.71666 96.0164 6.71484H99.3626L101.514 11.7754L101.596 11.9694L103.838 6.71484Z" fill="#D0021B"/>
</g>
<defs>
<clipPath id="clip0_3374_7480">
<rect width="196" height="39" fill="white"/>
</clipPath>
</defs>
</svg>
