<svg width="19" height="19" viewBox="0 0 19 19" fill="none" xmlns="http://www.w3.org/2000/svg">
<g clipPath="url(#clip0_2041_41268)">
<mask id="mask0_2041_41268" style="mask-type:luminance" maskUnits="userSpaceOnUse" x="0" y="0" width="19" height="19">
<path d="M18.25 0.652344H0.25V18.6523H18.25V0.652344Z" fill="white"/>
</mask>
<g mask="url(#mask0_2041_41268)">
<path d="M9.24961 8.36719C8.99531 8.36719 8.74673 8.4426 8.53529 8.58387C8.32385 8.72515 8.15905 8.92596 8.06174 9.1609C7.96442 9.39583 7.93896 9.65435 7.98857 9.90376C8.03818 10.1532 8.16064 10.3823 8.34045 10.5621C8.52027 10.7419 8.74936 10.8644 8.99877 10.914C9.24818 10.9636 9.5067 10.9381 9.74164 10.8408C9.97658 10.7435 10.1774 10.5787 10.3187 10.3672C10.4599 10.1558 10.5353 9.90722 10.5353 9.65293C10.5343 9.31224 10.3986 8.98578 10.1577 8.74487C9.91675 8.50397 9.5903 8.36819 9.24961 8.36719ZM13.7496 3.86719H4.74961C4.58075 3.86714 4.41353 3.90036 4.25752 3.96496C4.10151 4.02956 3.95975 4.12427 3.84035 4.24367C3.72094 4.36307 3.62624 4.50483 3.56164 4.66084C3.49704 4.81685 3.46382 4.98407 3.46387 5.15293V14.1529C3.46382 14.3218 3.49704 14.489 3.56164 14.645C3.62624 14.801 3.72094 14.9428 3.84035 15.0622C3.95975 15.1816 4.10151 15.2763 4.25752 15.3409C4.41353 15.4055 4.58075 15.4387 4.74961 15.4387H13.7496C13.9185 15.4387 14.0857 15.4055 14.2417 15.3409C14.3977 15.2763 14.5395 15.1816 14.6589 15.0622C14.7783 14.9428 14.873 14.801 14.9376 14.645C15.0022 14.489 15.0354 14.3218 15.0353 14.1529V5.15293C15.0354 4.98407 15.0022 4.81685 14.9376 4.66084C14.873 4.50483 14.7783 4.36307 14.6589 4.24367C14.5395 4.12427 14.3977 4.02956 14.2417 3.96496C14.0857 3.90036 13.9185 3.86714 13.7496 3.86719ZM12.6246 9.65293C12.6237 9.79923 12.6129 9.9453 12.5924 10.0901L13.5439 10.8357C13.5853 10.87 13.6132 10.9179 13.6227 10.9709C13.6321 11.0239 13.6224 11.0785 13.5953 11.125L12.6953 12.6807C12.668 12.7268 12.6253 12.7617 12.5747 12.7793C12.5241 12.797 12.4689 12.7962 12.4189 12.7772L11.3003 12.3272C11.0675 12.5068 10.8125 12.6558 10.5418 12.7707L10.3746 13.96C10.3651 14.0131 10.3375 14.0614 10.2965 14.0965C10.2555 14.1316 10.2036 14.1515 10.1496 14.1527H8.34961C8.29651 14.1518 8.24531 14.1328 8.20442 14.0989C8.16353 14.0651 8.13538 14.0183 8.12461 13.9663L7.95739 12.7772C7.68594 12.6638 7.43085 12.5146 7.19887 12.3337L6.08035 12.7837C6.03028 12.8027 5.9751 12.8035 5.92452 12.7858C5.87395 12.7682 5.83122 12.7332 5.80387 12.6872L4.90387 11.1314C4.8768 11.0849 4.86712 11.0303 4.87655 10.9774C4.88598 10.9244 4.9139 10.8765 4.95535 10.8422L5.90683 10.0964C5.88651 9.94946 5.87575 9.80131 5.87461 9.65293C5.8755 9.50663 5.88627 9.36056 5.90683 9.21571L4.95535 8.46997C4.9139 8.43566 4.88598 8.38775 4.87655 8.33478C4.86712 8.28181 4.8768 8.22721 4.90387 8.18071L5.80387 6.62497C5.83122 6.57891 5.87395 6.54399 5.92452 6.52634C5.9751 6.50869 6.03028 6.50945 6.08035 6.52849L7.19887 6.97849C7.43176 6.7989 7.68667 6.64985 7.95739 6.53497L8.12461 5.34571C8.13411 5.29255 8.1617 5.24431 8.20271 5.20917C8.24372 5.17403 8.29562 5.15416 8.34961 5.15293H10.1496C10.2027 5.15387 10.2539 5.17284 10.2948 5.20673C10.3357 5.24062 10.3638 5.28741 10.3746 5.33941L10.5418 6.52867C10.8133 6.6421 11.0684 6.79125 11.3003 6.97219L12.4189 6.52219C12.4689 6.50315 12.5241 6.50239 12.5747 6.52004C12.6253 6.53769 12.668 6.57261 12.6953 6.61867L13.5953 8.17441C13.6224 8.22091 13.6321 8.27551 13.6227 8.32848C13.6132 8.38145 13.5853 8.42936 13.5439 8.46367L12.5924 9.20941C12.6127 9.3564 12.6235 9.50455 12.6246 9.65293Z" fill="#D0021B"/>
</g>
</g>
<defs>
<clipPath id="clip0_2041_41268">
<rect width="18" height="18" fill="white" transform="translate(0.250977 0.652344)"/>
</clipPath>
</defs>
</svg>
