<svg width="28" height="28" viewBox="0 0 28 28" fill="none" xmlns="http://www.w3.org/2000/svg">
<g clipPath="url(#clip0_2586_14859)">
<path fillRule="evenodd" clipRule="evenodd" d="M0.400391 13.8939V23.6784H13.9128H27.4252V13.8939V4.10938H13.9128H0.400391V13.8939ZM17.9175 6.22387C18.0546 6.23778 18.1537 6.25974 18.2238 6.2917C18.2842 6.3192 18.4147 6.35136 18.5369 6.36885C18.859 6.41486 18.8649 6.41635 18.9425 6.46898C18.9825 6.49614 19.0692 6.53134 19.1352 6.54715C19.3579 6.60046 19.3934 6.61316 19.4386 6.65525C19.4634 6.67842 19.5458 6.71329 19.6216 6.73274C19.7123 6.75605 19.7803 6.78754 19.8204 6.82463C19.854 6.85564 19.9323 6.89631 19.9944 6.91509C20.0669 6.93698 20.1316 6.97333 20.1747 7.0165C20.2118 7.0536 20.2559 7.08386 20.2729 7.08386C20.3212 7.08386 20.4593 7.16061 20.4724 7.1948C20.4789 7.21176 20.5292 7.24561 20.584 7.26993C20.6388 7.29425 20.7013 7.33371 20.7229 7.35763C20.7444 7.38154 20.7972 7.41904 20.8402 7.441C20.9266 7.48491 21.0853 7.61585 21.2081 7.74435C21.2518 7.79009 21.2985 7.82752 21.3118 7.82752C21.3251 7.82752 21.3623 7.86083 21.3946 7.90157C21.4269 7.94231 21.4744 7.9869 21.5002 8.00068C21.5259 8.01446 21.5627 8.055 21.582 8.09067C21.6012 8.12635 21.6378 8.16506 21.6633 8.17668C21.6888 8.1883 21.7324 8.23377 21.7601 8.27775C21.7878 8.32174 21.8237 8.36275 21.8398 8.36896C21.8558 8.37511 21.8968 8.42092 21.9309 8.47071C21.965 8.52057 22.019 8.58766 22.0508 8.61982C22.0827 8.65198 22.1246 8.71414 22.144 8.75799C22.1634 8.80183 22.2015 8.84953 22.2285 8.86406C22.257 8.87926 22.2915 8.92649 22.3105 8.97628C22.3285 9.0235 22.3605 9.07141 22.3815 9.08262C22.4026 9.0939 22.4494 9.16734 22.4857 9.24578C22.522 9.32429 22.5638 9.39314 22.5787 9.39888C22.5936 9.40455 22.6297 9.46941 22.659 9.54299C22.6883 9.61656 22.7328 9.69879 22.7579 9.72568C22.783 9.75257 22.8233 9.84067 22.8474 9.9214C22.8715 10.0021 22.9115 10.0888 22.9364 10.1142C22.9895 10.1681 22.9928 10.1771 23.0312 10.3793C23.0473 10.4643 23.0729 10.548 23.0879 10.5652C23.1494 10.6355 23.1782 10.7295 23.2078 10.9563C23.2285 11.1153 23.2519 11.2158 23.2776 11.2577C23.4514 11.5404 23.4566 13.5949 23.2845 13.9105C23.2362 13.999 23.1819 14.2925 23.2034 14.3485C23.2123 14.3717 23.2542 14.3825 23.3683 14.3911C23.6079 14.4092 23.7502 14.4405 23.825 14.4916C23.871 14.5231 23.9435 14.5457 24.0429 14.5595C24.2457 14.5878 24.3118 14.6089 24.371 14.6646C24.3999 14.6918 24.4757 14.7257 24.5485 14.7441C24.6305 14.7648 24.6965 14.7959 24.7344 14.8318C24.7667 14.8624 24.8343 14.9052 24.8845 14.9269C24.9347 14.9487 24.9852 14.9841 24.9966 15.0056C25.0082 15.0271 25.056 15.0633 25.1031 15.0861C25.1501 15.1088 25.2274 15.1633 25.2747 15.2071C25.322 15.2508 25.3849 15.301 25.4145 15.3185C25.4441 15.3361 25.4683 15.3574 25.4683 15.3658C25.4683 15.3743 25.5409 15.4539 25.6297 15.5426C25.7753 15.6883 25.8989 15.8465 25.8989 15.8872C25.8989 15.8957 25.9218 15.924 25.9499 15.9501C25.9779 15.9762 26.0215 16.0438 26.0466 16.1003C26.0718 16.1568 26.1018 16.2031 26.1133 16.2031C26.1474 16.2031 26.2099 16.3225 26.2236 16.4141C26.2306 16.461 26.256 16.523 26.28 16.5517C26.3456 16.6307 26.3646 16.6747 26.4057 16.8423C26.4263 16.9266 26.4656 17.0485 26.4928 17.1131C26.6224 17.4206 26.612 18.6055 26.4771 18.8938C26.452 18.9476 26.4208 19.0445 26.4079 19.109C26.381 19.2431 26.3208 19.3928 26.2937 19.3928C26.2728 19.3928 26.243 19.4625 26.212 19.5839C26.2003 19.6297 26.1654 19.6962 26.1344 19.7314C26.1034 19.7667 26.0564 19.8447 26.0298 19.9048C26.0033 19.9648 25.9714 20.0203 25.9589 20.028C25.9466 20.0356 25.9145 20.0765 25.8879 20.1187C25.843 20.1898 25.6849 20.3811 25.6144 20.4495C25.5755 20.4874 25.4737 20.5892 25.4431 20.6209C25.3545 20.7128 25.1755 20.8515 25.1058 20.8823C25.0602 20.9024 25.0091 20.94 24.9922 20.9658C24.9753 20.9916 24.9211 21.0265 24.8718 21.0433C24.8225 21.06 24.7473 21.1036 24.7046 21.1401C24.6548 21.1827 24.5897 21.2148 24.5221 21.2299C24.4643 21.2429 24.3872 21.2758 24.3507 21.3033C24.2587 21.3724 24.221 21.3847 24.0271 21.4088C23.9138 21.4228 23.8176 21.4489 23.7382 21.487C23.529 21.5874 23.8232 21.5845 13.6291 21.5838C3.50028 21.5832 3.74411 21.5855 3.54122 21.4867C3.45413 21.4443 3.36907 21.4211 3.2507 21.4076C3.05443 21.3853 3.00714 21.3697 2.93573 21.3035C2.9062 21.2762 2.83891 21.2451 2.78364 21.2332C2.66109 21.2069 2.55947 21.16 2.54535 21.1232C2.53947 21.1079 2.48786 21.0746 2.43056 21.0494C2.37334 21.024 2.31193 20.9811 2.29409 20.9538C2.27625 20.9267 2.23754 20.8984 2.20795 20.8909C2.1464 20.8755 2.0458 20.8091 2.01026 20.7606C1.99702 20.7424 1.94695 20.7047 1.89905 20.6765C1.85115 20.6485 1.80629 20.6076 1.79933 20.5857C1.79237 20.5638 1.75217 20.5241 1.70995 20.4974C1.66779 20.4708 1.63326 20.4399 1.63326 20.4289C1.63326 20.4178 1.59516 20.3672 1.54868 20.3166C1.50213 20.2659 1.44328 20.1892 1.41788 20.1462C1.39254 20.1031 1.34254 20.0348 1.3068 19.9945C1.27106 19.9541 1.24188 19.9067 1.24188 19.8892C1.24188 19.8717 1.21141 19.8237 1.17418 19.7824C1.13229 19.7362 1.09412 19.6642 1.07419 19.5942C1.05541 19.5283 1.01771 19.4554 0.984127 19.42C0.936563 19.3698 0.921024 19.3283 0.896567 19.1851C0.880217 19.0894 0.85657 18.9925 0.844003 18.9697C0.831437 18.9468 0.805696 18.901 0.786913 18.8679C0.666923 18.657 0.692191 17.1874 0.818262 17.0475C0.834274 17.0297 0.86184 16.9403 0.879474 16.8488C0.914876 16.6646 0.959737 16.543 0.99764 16.5285C1.01129 16.5232 1.0423 16.4594 1.06649 16.3866C1.09074 16.3139 1.13182 16.2331 1.15776 16.207C1.18377 16.1811 1.22546 16.1145 1.25039 16.0592C1.27532 16.0038 1.31261 15.9408 1.33322 15.9193C1.35383 15.8977 1.3993 15.8384 1.43423 15.7875C1.46916 15.7365 1.51449 15.6859 1.53489 15.6749C1.55536 15.664 1.59131 15.6207 1.61489 15.5789C1.63847 15.5369 1.6784 15.4932 1.70353 15.4817C1.72873 15.4702 1.76913 15.4307 1.79325 15.3939C1.81744 15.357 1.86507 15.3118 1.89919 15.2935C1.93331 15.2751 1.9802 15.2345 2.0033 15.2031C2.02648 15.1719 2.09688 15.1203 2.15978 15.0886C2.22261 15.0568 2.2795 15.0167 2.28612 14.9995C2.29274 14.9823 2.34003 14.9501 2.39131 14.9278C2.44259 14.9056 2.5109 14.8627 2.54319 14.8324C2.58008 14.7979 2.64886 14.7654 2.72838 14.745C2.80452 14.7255 2.87985 14.6906 2.91769 14.6574C2.98505 14.5982 3.01194 14.5899 3.23597 14.559C3.31563 14.548 3.40366 14.5262 3.43163 14.5107C3.56513 14.4364 3.62844 14.4191 3.8314 14.4014C4.0832 14.3795 4.11854 14.3711 4.11854 14.3335C4.11854 14.2064 4.04949 13.85 4.00773 13.7618C3.89774 13.5293 3.89693 12.5032 4.00652 12.2109C4.0328 12.141 4.06462 12.0133 4.07732 11.9272C4.11394 11.6791 4.13975 11.5824 4.19961 11.4695C4.23035 11.4114 4.25548 11.3485 4.25548 11.3297C4.25548 11.2622 4.33399 11.0427 4.36966 11.0104C4.38966 10.9923 4.42216 10.9243 4.44182 10.8593C4.46391 10.7863 4.50128 10.7172 4.53945 10.6786C4.57343 10.6442 4.61208 10.5781 4.62525 10.5317C4.63843 10.4853 4.67944 10.4138 4.71639 10.3729C4.75342 10.332 4.79693 10.2666 4.81321 10.2277C4.82949 10.1888 4.86591 10.1418 4.89428 10.1232C4.92259 10.1047 4.95874 10.0583 4.97462 10.0201C4.99056 9.98194 5.03285 9.91992 5.06859 9.88222C5.1044 9.84459 5.20183 9.73892 5.2852 9.64744C5.3685 9.55589 5.46654 9.45908 5.50309 9.43212C5.53957 9.40523 5.61314 9.34578 5.66652 9.30004C5.71989 9.2543 5.77502 9.21687 5.78901 9.21687C5.80299 9.21687 5.84279 9.18167 5.87738 9.13863C5.91197 9.09559 5.95305 9.06033 5.96866 9.06033C5.98426 9.06033 6.03007 9.03073 6.07047 8.99452C6.15452 8.91919 6.23478 8.87507 6.32187 8.85636C6.35525 8.84913 6.40105 8.81818 6.42382 8.78737C6.45213 8.74913 6.5053 8.71806 6.59171 8.68927C6.6613 8.6661 6.72988 8.63313 6.7442 8.6159C6.77866 8.57435 6.86122 8.54118 7.02519 8.50314C7.09965 8.48591 7.17836 8.45558 7.20018 8.43578C7.25382 8.387 7.34469 8.36106 7.54772 8.3364C7.73439 8.31376 7.75013 8.30978 7.86702 8.2558C8.15098 8.12452 9.37264 8.1256 9.64674 8.25735C9.72991 8.29735 9.81848 8.32012 9.95009 8.33538C10.1663 8.36052 10.2575 8.38579 10.3126 8.43578C10.3344 8.45558 10.4136 8.48564 10.4887 8.50253C10.661 8.54138 10.7215 8.5653 10.7631 8.61117C10.7812 8.63131 10.8527 8.66651 10.9218 8.68955C11.0075 8.71806 11.0607 8.7492 11.0889 8.78737C11.1117 8.81812 11.1575 8.84919 11.1909 8.85636C11.277 8.87494 11.3981 8.93952 11.4113 8.97391C11.4531 9.08269 11.6882 9.09722 11.7386 8.99418C11.7589 8.95243 11.8008 8.90405 11.8315 8.88656C11.8641 8.86804 11.8966 8.82649 11.9097 8.78636C11.922 8.74873 11.9645 8.67826 12.004 8.62982C12.0435 8.58138 12.0951 8.51402 12.1186 8.48017C12.168 8.40876 12.6897 7.88481 12.8587 7.73678C12.9219 7.68145 13.019 7.59653 13.0746 7.54802C13.1301 7.49951 13.2064 7.44965 13.2441 7.43721C13.2819 7.42472 13.3268 7.3931 13.344 7.36688C13.3612 7.34067 13.4081 7.30222 13.4483 7.28155C13.4885 7.26081 13.5518 7.21649 13.5891 7.18305C13.6262 7.14953 13.6995 7.1094 13.7518 7.09386C13.8047 7.07819 13.8706 7.04029 13.9002 7.00853C13.9329 6.97354 13.9987 6.93766 14.0702 6.91577C14.1343 6.89618 14.2146 6.85645 14.2487 6.82753C14.3097 6.77571 14.3598 6.75477 14.5243 6.71241C14.5701 6.70065 14.6075 6.68275 14.6075 6.67268C14.6075 6.64099 14.7164 6.59627 14.8947 6.55472C14.9893 6.53262 15.0845 6.49797 15.1062 6.47763C15.1641 6.42344 15.2268 6.40466 15.4008 6.38933C15.6115 6.37075 15.7145 6.34703 15.8308 6.29021C15.9947 6.21029 17.3575 6.16691 17.9175 6.22387Z" fill="#FBFBFB"/>
<path fillRule="evenodd" clipRule="evenodd" d="M16.427 6.30444C16.3032 6.31377 16.1623 6.33383 16.1139 6.34897C15.9956 6.38599 15.8755 6.41092 15.5922 6.4572C15.4533 6.4799 15.3094 6.51666 15.2462 6.54551C15.1867 6.57273 15.078 6.60888 15.0047 6.62584C14.9313 6.64279 14.8272 6.68144 14.7734 6.71178C14.7196 6.74204 14.6264 6.78082 14.5664 6.79792C14.5064 6.81501 14.4236 6.85183 14.3825 6.87973C14.3414 6.90764 14.2511 6.95101 14.1817 6.97621C14.1124 7.00135 14.0366 7.03992 14.0132 7.06188C13.9898 7.08384 13.9218 7.12343 13.8622 7.14985C13.8025 7.1762 13.7277 7.2193 13.696 7.24558C13.6644 7.2718 13.5973 7.31713 13.5471 7.34618C13.4969 7.3753 13.4446 7.4126 13.431 7.42901C13.4174 7.4455 13.374 7.47536 13.3346 7.49543C13.2952 7.51556 13.233 7.55826 13.1963 7.59035C12.8152 7.92404 12.684 8.04532 12.4697 8.26206C12.3328 8.40056 12.1925 8.55548 12.158 8.60628C12.1234 8.65709 12.0752 8.71763 12.0508 8.7408C12.0265 8.76397 11.9935 8.8139 11.9777 8.8518C11.9619 8.88971 11.9258 8.93592 11.8974 8.9545C11.869 8.97308 11.8321 9.01558 11.8153 9.04895C11.7603 9.15806 11.6909 9.21846 11.6474 9.19516C11.6263 9.18394 11.5602 9.15786 11.5003 9.13725C11.4406 9.11665 11.3467 9.06584 11.2919 9.02429C11.2371 8.98274 11.1637 8.93916 11.1289 8.92754C11.094 8.91585 11.0324 8.88045 10.9919 8.84876C10.9514 8.81708 10.869 8.77309 10.8086 8.75114C10.7483 8.72911 10.6656 8.68857 10.6249 8.66094C10.5842 8.63331 10.5191 8.60324 10.4802 8.59406C10.2592 8.5421 10.2091 8.52663 10.1121 8.48075C10.0422 8.44765 9.9202 8.41745 9.75744 8.39292C9.62097 8.37232 9.43889 8.33583 9.35281 8.31185C9.1404 8.2526 8.38465 8.24699 8.20797 8.30334C8.14879 8.32225 7.96421 8.35968 7.79781 8.38664C7.60012 8.4186 7.45986 8.45231 7.39297 8.484C7.33669 8.51055 7.23069 8.54615 7.15738 8.56298C7.08408 8.5798 6.97855 8.61912 6.92294 8.65033C6.86727 8.68148 6.77086 8.72492 6.70857 8.74681C6.64634 8.7687 6.56203 8.81343 6.52122 8.8462C6.48041 8.87896 6.40967 8.91903 6.364 8.93511C6.31833 8.95119 6.25888 8.98511 6.23178 9.01044C6.20476 9.03578 6.13652 9.07956 6.08024 9.10766C6.02389 9.13584 5.96316 9.18124 5.94525 9.20867C5.92728 9.23603 5.88532 9.27245 5.85195 9.28967C5.77979 9.32683 5.72757 9.37426 5.42252 9.67985C5.10241 10.0006 5.06661 10.04 5.02999 10.1124C5.01229 10.1472 4.97688 10.1895 4.95121 10.2064C4.92554 10.2232 4.89953 10.257 4.89338 10.2816C4.88723 10.3061 4.83791 10.3861 4.78386 10.4593C4.72981 10.5325 4.68556 10.6067 4.68549 10.624C4.68542 10.6528 4.66205 10.694 4.563 10.8397C4.54408 10.8676 4.51077 10.9495 4.48902 11.0218C4.46733 11.0939 4.44098 11.1584 4.43044 11.1649C4.39295 11.188 4.35167 11.2934 4.32147 11.443C4.30464 11.5266 4.26593 11.6477 4.23546 11.7123C4.19472 11.7987 4.17168 11.8943 4.1483 12.0744C4.1308 12.2089 4.09925 12.4155 4.07817 12.5335C4.03142 12.7951 4.02757 13.17 4.06926 13.3937C4.08547 13.4807 4.11993 13.6938 4.14587 13.8672C4.17573 14.0672 4.20769 14.2116 4.23323 14.2616C4.29964 14.3918 4.22174 14.4534 3.94197 14.492C3.89353 14.4987 3.79408 14.5215 3.72091 14.5428C3.64774 14.564 3.49998 14.5982 3.39249 14.6186C3.28364 14.6394 3.13007 14.6858 3.04603 14.7234C2.96299 14.7606 2.86192 14.7999 2.82152 14.8107C2.78112 14.8216 2.69423 14.8664 2.62849 14.9103C2.56276 14.9542 2.49675 14.9902 2.48188 14.9902C2.46702 14.9902 2.42175 15.0198 2.38135 15.056C2.34102 15.0922 2.27994 15.1361 2.24569 15.1536C2.2115 15.1711 2.13306 15.2295 2.07144 15.2834C2.00983 15.3374 1.94841 15.3815 1.93504 15.3815C1.92159 15.3815 1.89308 15.4113 1.8716 15.4477C1.85011 15.4841 1.80518 15.53 1.77181 15.5498C1.73836 15.5695 1.70573 15.6023 1.69931 15.6227C1.69283 15.643 1.64222 15.7137 1.58682 15.7798C1.41231 15.9881 1.32319 16.1135 1.3088 16.1711C1.30117 16.2018 1.26435 16.2668 1.22699 16.3158C1.18969 16.3647 1.14301 16.4515 1.12335 16.5086C1.10368 16.5657 1.06517 16.6508 1.03768 16.6978C1.00883 16.747 0.970993 16.8653 0.948292 16.9776C0.926672 17.0846 0.891675 17.2205 0.87046 17.2797C0.765063 17.5743 0.766077 18.4224 0.872082 18.7082C0.894107 18.7674 0.933496 18.9125 0.959642 19.0306C0.988829 19.1625 1.02612 19.274 1.05612 19.3193C1.08301 19.3599 1.12233 19.4394 1.14361 19.4959C1.16483 19.5524 1.21314 19.642 1.25097 19.695C1.28874 19.7481 1.31968 19.8031 1.31968 19.8173C1.31968 19.8315 1.34853 19.8762 1.38386 19.9166C1.41913 19.957 1.46068 20.0151 1.47622 20.0458C1.53831 20.1682 1.86842 20.5223 2.03746 20.6478C2.09313 20.6892 2.14441 20.7322 2.15137 20.7433C2.15826 20.7546 2.2067 20.7854 2.25906 20.8119C2.31136 20.8385 2.36574 20.8767 2.37993 20.8969C2.39419 20.9171 2.46249 20.9623 2.53181 20.9972C2.60106 21.0322 2.68031 21.0775 2.70788 21.0978C2.73544 21.1182 2.81611 21.1515 2.88719 21.1718C2.9582 21.192 3.05069 21.2313 3.09265 21.259C3.15055 21.2972 3.22817 21.319 3.41357 21.3489C3.54815 21.3706 3.70665 21.4019 3.76583 21.4185C3.82502 21.4351 3.93069 21.4574 4.00068 21.4681C4.08392 21.4808 7.4404 21.4856 13.7167 21.4821L23.3055 21.4766L23.4523 21.4333C23.533 21.4094 23.6915 21.3763 23.8046 21.3595C24.0619 21.3213 24.1217 21.3051 24.1933 21.2541C24.2248 21.2317 24.3065 21.1991 24.3749 21.1817C24.5213 21.1444 24.5567 21.1276 24.6394 21.0557C24.6735 21.0262 24.7352 20.9912 24.7764 20.978C24.8177 20.9648 24.8779 20.9297 24.9102 20.9C24.9425 20.8703 24.9909 20.8347 25.0178 20.8209C25.1961 20.7296 25.7322 20.1888 25.828 20.0035C25.8452 19.9702 25.8723 19.9358 25.8882 19.9269C25.9041 19.9179 25.9446 19.8539 25.9783 19.7844C26.0119 19.715 26.0598 19.6339 26.0848 19.6042C26.1099 19.5745 26.1449 19.4995 26.1627 19.4374C26.1806 19.3754 26.2202 19.2851 26.2508 19.2366C26.3017 19.1559 26.3379 19.0233 26.3785 18.768C26.3862 18.7202 26.4092 18.6322 26.4297 18.5724C26.5132 18.33 26.5185 17.5999 26.4383 17.4079C26.4215 17.3679 26.3862 17.2219 26.3596 17.0834C26.3139 16.8448 26.2752 16.7297 26.2315 16.7027C26.2208 16.6961 26.1935 16.6295 26.1708 16.5548C26.1481 16.48 26.1084 16.3902 26.0826 16.3552C26.0568 16.3202 26.0145 16.249 25.9886 16.197C25.9627 16.1451 25.9217 16.0815 25.8976 16.0558C25.8734 16.0301 25.8307 15.9699 25.8026 15.922C25.6968 15.7417 25.224 15.2755 25.0232 15.1537C24.9852 15.1306 24.9354 15.0889 24.9126 15.061C24.8897 15.0331 24.8343 14.9976 24.7895 14.9821C24.7446 14.9666 24.6622 14.9224 24.6063 14.884C24.5504 14.8455 24.4922 14.814 24.477 14.814C24.429 14.814 24.2309 14.738 24.1955 14.7061C24.1769 14.6892 24.0571 14.6537 23.9293 14.6272C23.8014 14.6007 23.6441 14.5618 23.5795 14.5408C23.5149 14.5198 23.4063 14.4966 23.338 14.4892C23.1707 14.4713 23.0911 14.4085 23.1062 14.3066C23.1118 14.2682 23.1309 14.1367 23.1485 14.0145C23.166 13.8923 23.197 13.7469 23.2173 13.6916C23.3479 13.3352 23.3536 11.8642 23.2259 11.4996C23.199 11.4229 23.1599 11.2424 23.139 11.0984C23.1101 10.8998 23.0888 10.816 23.0507 10.7509C23.0231 10.7037 22.9827 10.5838 22.9611 10.4842C22.9381 10.3778 22.9023 10.2749 22.8742 10.2342C22.8481 10.1962 22.8044 10.0998 22.7773 10.0201C22.7502 9.94037 22.7118 9.85699 22.6919 9.83483C22.6721 9.81267 22.6276 9.73734 22.5929 9.66735C22.4576 9.39419 22.375 9.24772 22.3291 9.19928C22.3027 9.17151 22.2667 9.11232 22.249 9.06767C22.2313 9.02307 22.192 8.9645 22.1618 8.93754C22.1315 8.91052 22.0864 8.85235 22.0616 8.80823C22.0369 8.76411 22.0098 8.72803 22.0015 8.72803C21.9933 8.72803 21.9581 8.68689 21.9235 8.63655C21.713 8.33056 20.9614 7.61407 20.7199 7.48921C20.6889 7.4732 20.6462 7.44084 20.6249 7.41733C20.6036 7.39381 20.5557 7.36179 20.5183 7.34618C20.481 7.33058 20.4059 7.2843 20.3516 7.24329C20.2972 7.20234 20.2238 7.15742 20.1886 7.14343C20.1532 7.12951 20.0932 7.09343 20.0552 7.06323C20.0172 7.03303 19.9404 6.99331 19.8846 6.975C19.8288 6.95662 19.7479 6.91703 19.7048 6.88696C19.6618 6.8569 19.5737 6.81744 19.5092 6.7992C19.4446 6.78103 19.3433 6.74137 19.2841 6.71103C19.2249 6.6807 19.1093 6.63854 19.0271 6.61726C18.9449 6.59597 18.8437 6.56145 18.802 6.54051C18.7096 6.49402 18.5986 6.46875 18.3056 6.42747C18.1818 6.40998 18.0322 6.3791 17.9729 6.35883C17.7705 6.28938 16.9901 6.26188 16.427 6.30444ZM17.3888 6.37059C17.6117 6.41748 17.8798 6.45376 18.1875 6.47869C18.4402 6.49909 18.4813 6.5076 18.5707 6.55807C18.6656 6.61165 18.7654 6.63779 18.9756 6.66401C19.0266 6.67043 19.0795 6.68637 19.093 6.69955C19.1693 6.77353 19.2518 6.81096 19.384 6.83163C19.5042 6.85041 19.537 6.86386 19.5776 6.91081C19.6151 6.95412 19.6604 6.97534 19.771 7.00114C19.8822 7.02716 19.9199 7.04486 19.9351 7.07823C19.9576 7.12749 20.0558 7.17958 20.1573 7.19606C20.2024 7.20336 20.2373 7.22484 20.2588 7.25829C20.3006 7.32382 20.3386 7.35274 20.3995 7.3653C20.4264 7.37084 20.4881 7.41145 20.5364 7.45557C20.5849 7.49962 20.6575 7.54556 20.6979 7.55765C20.7383 7.56975 20.7714 7.58995 20.7714 7.60251C20.7714 7.63751 20.853 7.70379 20.9139 7.71825C20.9469 7.72602 20.9757 7.75027 20.9869 7.77973C20.9971 7.80648 21.0436 7.85148 21.0903 7.87965C21.1371 7.90789 21.1834 7.94958 21.1935 7.97228C21.2035 7.99498 21.2367 8.02552 21.2673 8.04011C21.2979 8.05464 21.3406 8.09653 21.3621 8.13315C21.3837 8.16977 21.4089 8.1997 21.4181 8.1997C21.4415 8.1997 21.5197 8.2778 21.5601 8.34158C21.5788 8.37117 21.6055 8.39536 21.6195 8.39536C21.6333 8.39536 21.6646 8.43069 21.6888 8.47386C21.7131 8.51703 21.758 8.56527 21.7886 8.58115C21.8232 8.59899 21.8532 8.63682 21.8677 8.68067C21.8844 8.73127 21.9092 8.75904 21.9551 8.77816C22.005 8.79904 22.022 8.82012 22.0321 8.87376C22.0408 8.92025 22.0669 8.9593 22.1125 8.99409C22.1579 9.02868 22.187 9.07206 22.2013 9.12651C22.2292 9.23252 22.2695 9.29326 22.3262 9.31481C22.3607 9.32791 22.3756 9.35312 22.3862 9.41662C22.4044 9.52695 22.4252 9.56634 22.5053 9.64188C22.5461 9.68045 22.5717 9.72322 22.5717 9.75315C22.5717 9.82733 22.6071 9.90571 22.6704 9.97131C22.7079 10.0102 22.734 10.0641 22.7461 10.1278C22.7723 10.2659 22.7983 10.3259 22.8524 10.3729C22.8887 10.4044 22.9027 10.4418 22.9131 10.5348C22.9368 10.7454 22.9651 10.8425 23.0218 10.907C23.0735 10.966 23.0778 10.9853 23.0987 11.2532C23.1226 11.5604 23.1512 11.6974 23.2182 11.8256C23.283 11.9497 23.2859 13.2365 23.2217 13.3464C23.1542 13.4617 23.122 13.61 23.0997 13.9078C23.0806 14.1652 23.0736 14.1994 23.0289 14.258C22.8701 14.4663 23.16 14.6142 23.8339 14.6687C23.9602 14.6789 23.9999 14.6902 24.0393 14.7271C24.1073 14.7906 24.2039 14.8269 24.3487 14.8433C24.4185 14.8512 24.4823 14.8698 24.4955 14.886C24.5642 14.9705 24.5948 14.9902 24.7062 15.0214C24.8008 15.0481 24.8348 15.068 24.8592 15.1114C24.879 15.1464 24.9178 15.1753 24.9639 15.1893C25.0134 15.2043 25.0498 15.233 25.0763 15.278C25.0985 15.3155 25.1416 15.3534 25.1757 15.3653C25.2092 15.377 25.2438 15.4072 25.2538 15.4333C25.2636 15.4592 25.3029 15.4988 25.3411 15.5213C25.3794 15.5439 25.4237 15.5875 25.4396 15.6184C25.4555 15.6492 25.4948 15.6879 25.5268 15.7046C25.5589 15.7211 25.5977 15.7647 25.6131 15.8014C25.6284 15.8381 25.6669 15.8816 25.6986 15.8979C25.7381 15.9184 25.7602 15.9479 25.769 15.9918C25.7761 16.027 25.8119 16.0868 25.8486 16.1247C25.8853 16.1626 25.9338 16.2429 25.9561 16.3032C25.9836 16.3773 26.0123 16.4197 26.0449 16.4346C26.0714 16.4466 26.0969 16.4766 26.1017 16.5012C26.1475 16.738 26.1608 16.7787 26.2107 16.8358C26.2744 16.9086 26.2827 16.9423 26.3093 17.2338C26.3221 17.3735 26.3481 17.5073 26.3816 17.6056C26.4528 17.8144 26.4566 18.1069 26.3908 18.2973C26.3464 18.4256 26.3233 18.5587 26.2925 18.8661C26.2782 19.0078 26.2661 19.0469 26.2147 19.1179C26.1738 19.1743 26.1431 19.2517 26.1214 19.3525C26.0942 19.479 26.0805 19.5079 26.0355 19.5338C25.9973 19.5557 25.972 19.5957 25.9478 19.6728C25.9266 19.7401 25.8885 19.8054 25.847 19.8457C25.8103 19.8812 25.7715 19.9428 25.7609 19.9824C25.7466 20.0354 25.7282 20.0577 25.6913 20.067C25.6566 20.0757 25.6297 20.1054 25.6041 20.1635C25.5833 20.2103 25.5458 20.257 25.519 20.2692C25.4927 20.2812 25.4594 20.3156 25.445 20.3457C25.4306 20.3757 25.3914 20.4181 25.3579 20.4398C25.3245 20.4615 25.2838 20.5022 25.2676 20.5303C25.2514 20.5583 25.204 20.5979 25.1622 20.6183C25.1205 20.6387 25.0753 20.6786 25.0618 20.707C25.0446 20.7433 25.0165 20.7626 24.9671 20.7719C24.9259 20.7796 24.8633 20.816 24.8155 20.86C24.7693 20.9025 24.6975 20.9449 24.6496 20.9578C24.5872 20.9745 24.5551 20.9974 24.5268 21.0454C24.4918 21.1047 24.478 21.1114 24.3667 21.1234C24.1982 21.1416 24.1177 21.1694 24.0491 21.2334C23.9931 21.2857 23.9772 21.2892 23.6969 21.3102C23.5355 21.3223 23.3285 21.3405 23.237 21.3507C23.0097 21.3761 4.24451 21.3759 4.02021 21.3505C3.92873 21.3401 3.73063 21.322 3.5799 21.3102C3.3335 21.2909 3.30101 21.284 3.25675 21.2419C3.19635 21.1844 3.08231 21.1427 2.93502 21.1243C2.8328 21.1116 2.74821 21.0622 2.74821 21.0153C2.74821 21.0074 2.702 20.9858 2.64552 20.9673C2.58856 20.9487 2.50648 20.9005 2.46134 20.8593C2.415 20.817 2.35041 20.7795 2.31129 20.7721C2.26096 20.7627 2.23663 20.7448 2.22008 20.7048C2.20616 20.6712 2.16745 20.6367 2.11928 20.615C2.07584 20.5954 2.02841 20.5552 2.01253 20.5246C1.99686 20.4943 1.9749 20.4694 1.96382 20.4694C1.9349 20.4694 1.70776 20.2304 1.66783 20.158C1.64945 20.1246 1.61249 20.089 1.58574 20.0788C1.55155 20.0658 1.53331 20.0403 1.52446 19.993C1.51716 19.9543 1.48419 19.899 1.44663 19.8625C1.41055 19.8275 1.36211 19.7477 1.33819 19.6838C1.31171 19.613 1.27428 19.5536 1.24144 19.5302C1.20408 19.5036 1.18402 19.468 1.17517 19.4125C1.15672 19.2971 1.11517 19.186 1.05963 19.1035C1.02025 19.045 1.0045 18.9806 0.977276 18.7669C0.958764 18.6217 0.922551 18.4212 0.896809 18.3215C0.834247 18.079 0.834314 17.8642 0.897012 17.6251C0.946535 17.4363 0.977141 17.2581 0.997342 17.0409C1.00707 16.9364 1.02119 16.8949 1.06653 16.8379C1.12544 16.7637 1.15557 16.6825 1.17571 16.5431C1.18449 16.4827 1.19956 16.4565 1.23469 16.4404C1.28022 16.4197 1.35887 16.2734 1.35887 16.2093C1.35887 16.1928 1.39062 16.1502 1.42947 16.1147C1.47034 16.0772 1.50568 16.023 1.51318 15.9861C1.52196 15.9433 1.54541 15.9117 1.58439 15.8902C1.61641 15.8725 1.66019 15.8273 1.68175 15.7896C1.72796 15.7088 2.0759 15.362 2.1107 15.362C2.13867 15.362 2.209 15.2884 2.22522 15.2421C2.2313 15.2247 2.26771 15.2045 2.30602 15.1972C2.35237 15.1886 2.39203 15.1628 2.42446 15.1203C2.45945 15.0743 2.50506 15.0465 2.58627 15.0215C2.65883 14.9991 2.72078 14.9638 2.75916 14.9229C2.80713 14.8719 2.8401 14.8565 2.9255 14.8456C3.07913 14.8261 3.16028 14.7964 3.23324 14.733C3.26864 14.7022 3.31391 14.677 3.33391 14.677C3.42113 14.677 3.78941 14.6344 3.94008 14.6069C4.33491 14.5347 4.44321 14.3747 4.27755 14.1082C4.13932 13.8858 4.12155 12.0463 4.256 11.8787C4.32329 11.7948 4.34748 11.719 4.37207 11.514C4.39315 11.3388 4.40119 11.3129 4.44159 11.2913C4.49767 11.2613 4.52712 11.1934 4.54665 11.0495C4.55489 10.9889 4.5653 10.9367 4.56976 10.9335C4.57428 10.9302 4.60023 10.9136 4.62745 10.8966C4.67272 10.8685 4.74278 10.7063 4.74501 10.6245C4.74548 10.6093 4.77332 10.5793 4.80703 10.5577C4.84386 10.5342 4.87838 10.4888 4.89378 10.4438C4.90784 10.4026 4.95803 10.3259 5.00533 10.2734C5.05262 10.2207 5.09654 10.1531 5.10289 10.1231C5.11073 10.0863 5.13539 10.0589 5.17863 10.0391C5.22207 10.0193 5.24821 9.99016 5.25977 9.94888C5.27125 9.90787 5.29693 9.87902 5.33834 9.86078C5.37314 9.84544 5.41435 9.80463 5.43327 9.76673C5.45259 9.72802 5.49252 9.6889 5.52785 9.67404C5.56454 9.65863 5.59758 9.62539 5.61062 9.59087C5.62541 9.55175 5.65629 9.52398 5.70743 9.50391C5.76033 9.4831 5.78858 9.45696 5.80303 9.41554C5.81742 9.37433 5.84033 9.35305 5.87972 9.3444C5.91053 9.33758 5.96552 9.2992 6.0018 9.259C6.03808 9.21887 6.11125 9.16827 6.16436 9.14658C6.22536 9.12165 6.27529 9.08449 6.30002 9.04557C6.32198 9.01098 6.35637 8.98355 6.37833 8.98308C6.47028 8.98105 6.57621 8.93511 6.63384 8.87221C6.68283 8.8187 6.71715 8.80167 6.80491 8.78742C6.93578 8.76607 6.97902 8.74512 7.01956 8.68331C7.04584 8.64311 7.07536 8.63378 7.23961 8.61358C7.44162 8.58879 7.48465 8.57379 7.56262 8.50129C7.60762 8.4594 7.6391 8.45359 7.92354 8.43454C8.09494 8.42312 8.2929 8.40535 8.36344 8.39515C8.5522 8.36786 8.98771 8.37184 9.25552 8.4034C9.38437 8.41853 9.58665 8.43643 9.70502 8.44312C9.90412 8.4544 9.92297 8.45893 9.95608 8.50352C9.99796 8.55987 10.1316 8.60223 10.3302 8.62203C10.4495 8.63392 10.4735 8.64338 10.526 8.69898C10.5713 8.74708 10.6141 8.76823 10.7031 8.78647C10.7932 8.80498 10.8343 8.82552 10.8799 8.87484C10.9346 8.93403 11.0457 8.98206 11.1282 8.98233C11.1467 8.9824 11.1752 9.00808 11.1914 9.03936C11.2109 9.07719 11.251 9.1078 11.3106 9.13057C11.3599 9.14942 11.4317 9.18982 11.4701 9.22036C11.6264 9.34454 11.7453 9.33237 11.823 9.18428C11.8446 9.14327 11.8944 9.07469 11.9337 9.03199C11.973 8.98929 12.0139 8.922 12.0246 8.88241C12.0387 8.82971 12.0572 8.80715 12.0936 8.79803C12.1283 8.78931 12.1543 8.75979 12.18 8.69986C12.2011 8.65067 12.2342 8.60865 12.2576 8.60122C12.2801 8.59406 12.3162 8.55379 12.3376 8.51176C12.3591 8.46974 12.4028 8.42177 12.4348 8.40522C12.4668 8.38867 12.5065 8.34901 12.523 8.31712C12.5395 8.28516 12.5791 8.24557 12.6111 8.22902C12.643 8.21253 12.6827 8.17281 12.6992 8.14071C12.7159 8.10842 12.7594 8.06984 12.7967 8.0543C12.8417 8.03552 12.8684 8.00876 12.8772 7.97384C12.8859 7.93897 12.9127 7.91215 12.9573 7.89357C12.994 7.87817 13.0414 7.83635 13.0624 7.80067C13.0862 7.76047 13.1301 7.72426 13.1779 7.70548C13.2297 7.68514 13.259 7.6596 13.267 7.62805C13.2759 7.59231 13.3001 7.57529 13.3674 7.55725C13.4254 7.54171 13.4864 7.50401 13.544 7.448C13.5925 7.40091 13.658 7.3572 13.6898 7.35091C13.7267 7.34348 13.7596 7.31781 13.781 7.27977C13.7998 7.24626 13.836 7.21565 13.8635 7.20991C14.0305 7.17512 14.1193 7.12897 14.1402 7.06621C14.1444 7.05364 14.209 7.02938 14.284 7.01229C14.3879 6.98858 14.4336 6.96682 14.4771 6.92027C14.5237 6.87034 14.5589 6.85507 14.6719 6.83609C14.7708 6.8194 14.8352 6.79494 14.8993 6.74961C14.9709 6.69901 15.0295 6.67908 15.1942 6.64948C15.3309 6.62496 15.4324 6.59415 15.4976 6.5574C15.5837 6.50895 15.6291 6.49943 15.8694 6.47943C16.1519 6.45592 16.639 6.39146 16.7596 6.3616C16.8743 6.33323 17.2357 6.33836 17.3888 6.37059Z" fill="#D0021B"/>
<path fillRule="evenodd" clipRule="evenodd" d="M16.7613 6.36131C16.6407 6.39118 16.1536 6.45563 15.8711 6.47914C15.6307 6.49914 15.5853 6.50867 15.4992 6.55711C15.434 6.59386 15.3325 6.62467 15.1958 6.6492C15.0311 6.67879 14.9726 6.69872 14.9009 6.74932C14.8368 6.79466 14.7724 6.81911 14.6735 6.8358C14.5605 6.85479 14.5253 6.87006 14.4787 6.91998C14.4352 6.96654 14.3896 6.98829 14.2856 7.012C14.2107 7.0291 14.146 7.05335 14.1418 7.06592C14.1209 7.12868 14.0321 7.17483 13.8651 7.20962C13.8376 7.21537 13.8014 7.24597 13.7826 7.27948C13.7612 7.31752 13.7283 7.34319 13.6914 7.35063C13.6596 7.35691 13.5941 7.40062 13.5457 7.44771C13.488 7.50372 13.427 7.54142 13.369 7.55696C13.3017 7.575 13.2775 7.59203 13.2686 7.62777C13.2606 7.65932 13.2313 7.68486 13.1795 7.70519C13.1318 7.72397 13.0878 7.76019 13.0641 7.80039C13.043 7.83606 12.9956 7.87788 12.9589 7.89328C12.9143 7.91186 12.8875 7.93869 12.8788 7.97355C12.87 8.00848 12.8433 8.03523 12.7983 8.05401C12.7611 8.06955 12.7175 8.10813 12.7009 8.14043C12.6843 8.17252 12.6446 8.21225 12.6127 8.22873C12.5807 8.24528 12.5411 8.28487 12.5246 8.31683C12.5081 8.34872 12.4684 8.38838 12.4364 8.40493C12.4044 8.42148 12.3607 8.46945 12.3392 8.51148C12.3178 8.5535 12.2818 8.59377 12.2593 8.60093C12.2358 8.60836 12.2027 8.65039 12.1816 8.69957C12.156 8.7595 12.13 8.78902 12.0952 8.79774C12.0588 8.80686 12.0404 8.82942 12.0262 8.88212C12.0155 8.92171 11.9746 8.98901 11.9353 9.03171C11.896 9.07441 11.8462 9.14298 11.8246 9.18399C11.7469 9.33209 11.628 9.34425 11.4718 9.22007C11.4333 9.18953 11.3615 9.14913 11.3122 9.13028C11.2526 9.10751 11.2125 9.0769 11.193 9.03907C11.1768 9.00779 11.1483 8.98212 11.1298 8.98205C11.0473 8.98178 10.9362 8.93374 10.8815 8.87456C10.8359 8.82524 10.7948 8.8047 10.7047 8.78619C10.6158 8.76794 10.5729 8.7468 10.5276 8.69869C10.4751 8.64309 10.4512 8.63363 10.3319 8.62174C10.1332 8.60194 9.99959 8.55958 9.9577 8.50324C9.9246 8.45864 9.90575 8.45412 9.70664 8.44283C9.58827 8.43615 9.38599 8.41824 9.25715 8.40311C8.98933 8.37156 8.55383 8.36757 8.36506 8.39487C8.29453 8.40507 8.09657 8.42284 7.92516 8.43425C7.64073 8.45331 7.60924 8.45912 7.56425 8.50101C7.48628 8.5735 7.44324 8.5885 7.24123 8.61329C7.07699 8.6335 7.04746 8.64282 7.02118 8.68302C6.98064 8.74484 6.93741 8.76578 6.80654 8.78713C6.71877 8.80139 6.68445 8.81841 6.63547 8.87192C6.57784 8.93482 6.4719 8.98076 6.37995 8.98279C6.35799 8.98326 6.3236 9.01069 6.30165 9.04529C6.27692 9.0842 6.22699 9.12136 6.16598 9.14629C6.11288 9.16798 6.03971 9.21858 6.00343 9.25871C5.96715 9.29891 5.91215 9.33729 5.88134 9.34411C5.84195 9.35276 5.81905 9.37404 5.80466 9.41526C5.7902 9.45667 5.76196 9.48282 5.70906 9.50363C5.65791 9.52369 5.62704 9.55146 5.61224 9.59058C5.5992 9.6251 5.56616 9.65834 5.52948 9.67375C5.49414 9.68861 5.45421 9.72773 5.43489 9.76644C5.41597 9.80435 5.37476 9.84515 5.33997 9.86049C5.29855 9.87873 5.27288 9.90758 5.26139 9.94859C5.24984 9.98987 5.22369 10.019 5.18025 10.0389C5.13701 10.0587 5.11235 10.086 5.10451 10.1228C5.09816 10.1528 5.05425 10.2205 5.00695 10.2731C4.95966 10.3257 4.90946 10.4023 4.89541 10.4436C4.88 10.4885 4.84548 10.5339 4.80866 10.5575C4.77494 10.579 4.74711 10.609 4.74664 10.6242C4.74441 10.706 4.67434 10.8682 4.62908 10.8964C4.60185 10.9133 4.57591 10.9299 4.57138 10.9332C4.56692 10.9364 4.55652 10.9886 4.54827 11.0492C4.52875 11.1932 4.49929 11.261 4.44321 11.291C4.40281 11.3126 4.39477 11.3385 4.37369 11.5137C4.3491 11.7187 4.32491 11.7945 4.25762 11.8784C4.12317 12.046 4.14094 13.8855 4.27917 14.1079C4.44484 14.3744 4.33653 14.5344 3.9417 14.6066C3.79104 14.6341 3.42276 14.6767 3.33553 14.6767C3.31554 14.6767 3.27027 14.7019 3.23487 14.7327C3.1619 14.7961 3.08076 14.8258 2.92712 14.8454C2.84172 14.8562 2.80875 14.8716 2.76078 14.9226C2.72241 14.9635 2.66045 14.9989 2.58789 15.0212C2.50668 15.0462 2.46108 15.0741 2.42608 15.12C2.39365 15.1625 2.35399 15.1883 2.30764 15.197C2.26934 15.2042 2.23292 15.2244 2.22684 15.2418C2.21062 15.2881 2.14029 15.3617 2.11232 15.3617C2.07753 15.3617 1.72958 15.7085 1.68337 15.7893C1.66182 15.827 1.61804 15.8722 1.58601 15.8899C1.54703 15.9114 1.52359 15.943 1.5148 15.9858C1.5073 16.0227 1.47197 16.0769 1.43109 16.1144C1.39225 16.1499 1.36049 16.1925 1.36049 16.209C1.36049 16.2731 1.28185 16.4194 1.23631 16.4402C1.20118 16.4562 1.18611 16.4825 1.17733 16.5428C1.1572 16.6822 1.12706 16.7634 1.06815 16.8376C1.02282 16.8947 1.0087 16.9361 0.998966 17.0406C0.978765 17.2578 0.948159 17.436 0.898636 17.6249C0.835939 17.8639 0.835871 18.0787 0.898434 18.3212C0.924175 18.4209 0.960388 18.6214 0.9789 18.7667C1.00613 18.9804 1.02187 19.0447 1.06126 19.1032C1.11679 19.1858 1.15835 19.2968 1.17679 19.4122C1.18564 19.4677 1.20571 19.5033 1.24307 19.5299C1.2759 19.5533 1.31333 19.6127 1.33982 19.6835C1.36373 19.7475 1.41218 19.8273 1.44825 19.8622C1.48582 19.8987 1.51879 19.954 1.52609 19.9927C1.53494 20.04 1.55318 20.0655 1.58736 20.0785C1.61412 20.0887 1.65108 20.1243 1.66945 20.1577C1.70938 20.2301 1.93653 20.4692 1.96544 20.4692C1.97652 20.4692 1.99848 20.494 2.01415 20.5243C2.03003 20.555 2.07746 20.5951 2.1209 20.6147C2.16907 20.6364 2.20779 20.6709 2.22171 20.7045C2.23826 20.7445 2.26258 20.7624 2.31291 20.7718C2.35203 20.7792 2.41662 20.8167 2.46297 20.8591C2.5081 20.9002 2.59019 20.9484 2.64714 20.967C2.70363 20.9855 2.74984 21.0072 2.74984 21.015C2.74984 21.0619 2.83443 21.1113 2.93665 21.124C3.08393 21.1424 3.19798 21.1841 3.25838 21.2416C3.30263 21.2837 3.33513 21.2906 3.58153 21.3099C3.73226 21.3217 3.93035 21.3398 4.02183 21.3502C4.24614 21.3756 23.0113 21.3758 23.2387 21.3504C23.3301 21.3402 23.5371 21.322 23.6985 21.3099C23.9788 21.2889 23.9947 21.2854 24.0508 21.2331C24.1193 21.1691 24.1998 21.1413 24.3683 21.1231C24.4796 21.1111 24.4934 21.1044 24.5284 21.0451C24.5567 20.9972 24.5888 20.9743 24.6512 20.9575C24.6991 20.9446 24.771 20.9022 24.8171 20.8597C24.8649 20.8157 24.9275 20.7793 24.9687 20.7716C25.0181 20.7623 25.0462 20.7431 25.0634 20.7067C25.0769 20.6783 25.1221 20.6384 25.1638 20.618C25.2056 20.5977 25.253 20.558 25.2692 20.53C25.2854 20.5019 25.3261 20.4612 25.3596 20.4395C25.393 20.4178 25.4322 20.3755 25.4466 20.3454C25.461 20.3153 25.4943 20.2809 25.5206 20.2689C25.5474 20.2567 25.5849 20.21 25.6057 20.1632C25.6314 20.1051 25.6582 20.0754 25.6929 20.0667C25.7299 20.0574 25.7482 20.0351 25.7625 19.9821C25.7731 19.9425 25.8119 19.881 25.8486 19.8454C25.8901 19.8052 25.9282 19.7398 25.9494 19.6725C25.9736 19.5954 25.9989 19.5554 26.0371 19.5335C26.0821 19.5076 26.0959 19.4787 26.123 19.3522C26.1447 19.2514 26.1754 19.1741 26.2163 19.1176C26.2677 19.0466 26.2798 19.0075 26.2941 18.8658C26.325 18.5584 26.348 18.4253 26.3924 18.297C26.4583 18.1066 26.4544 17.8141 26.3833 17.6053C26.3498 17.507 26.3237 17.3732 26.311 17.2335C26.2844 16.942 26.276 16.9083 26.2123 16.8355C26.1624 16.7784 26.1492 16.7377 26.1033 16.5009C26.0986 16.4763 26.073 16.4463 26.0465 16.4343C26.014 16.4194 25.9853 16.377 25.9578 16.3029C25.9354 16.2426 25.887 16.1623 25.8503 16.1244C25.8135 16.0865 25.7777 16.0267 25.7706 15.9915C25.7618 15.9476 25.7397 15.9181 25.7002 15.8976C25.6685 15.8813 25.63 15.8378 25.6147 15.8012C25.5993 15.7644 25.5606 15.7208 25.5285 15.7043C25.4964 15.6877 25.4571 15.6489 25.4412 15.6181C25.4253 15.5873 25.381 15.5436 25.3427 15.521C25.3045 15.4985 25.2652 15.4589 25.2554 15.433C25.2454 15.4069 25.2108 15.3767 25.1773 15.365C25.1432 15.3532 25.1001 15.3153 25.078 15.2777C25.0514 15.2327 25.0151 15.204 24.9655 15.189C24.9194 15.175 24.8806 15.1461 24.8608 15.1111C24.8364 15.0677 24.8024 15.0478 24.7078 15.0212C24.5964 14.9899 24.5658 14.9702 24.4971 14.8857C24.484 14.8695 24.4201 14.8509 24.3503 14.843C24.2055 14.8266 24.1089 14.7903 24.041 14.7268C24.0015 14.6899 23.9618 14.6786 23.8355 14.6684C23.1616 14.6139 22.8717 14.466 23.0306 14.2577C23.0752 14.1991 23.0822 14.1649 23.1014 13.9075C23.1236 13.6097 23.1558 13.4614 23.2233 13.3461C23.2876 13.2362 23.2847 11.9494 23.2199 11.8253C23.1529 11.6971 23.1242 11.5602 23.1003 11.2529C23.0794 10.9851 23.0752 10.9657 23.0234 10.9067C22.9667 10.8422 22.9384 10.7451 22.9148 10.5345C22.9044 10.4415 22.8904 10.4042 22.854 10.3726C22.8 10.3256 22.7739 10.2656 22.7477 10.1276C22.7356 10.0639 22.7095 10.0099 22.672 9.97102C22.6088 9.90542 22.5733 9.82705 22.5733 9.75286C22.5733 9.72293 22.5478 9.68017 22.507 9.64159C22.4268 9.56605 22.406 9.52667 22.3878 9.41634C22.3772 9.35283 22.3624 9.32763 22.3278 9.31452C22.2711 9.29297 22.2308 9.23223 22.2029 9.12623C22.1886 9.07177 22.1595 9.0284 22.1141 8.9938C22.0685 8.95901 22.0424 8.91996 22.0337 8.87348C22.0236 8.81983 22.0066 8.79875 21.9567 8.77788C21.9109 8.75875 21.8861 8.73099 21.8693 8.68038C21.8548 8.63654 21.8249 8.5987 21.7903 8.58086C21.7597 8.56499 21.7147 8.51675 21.6905 8.47358C21.6662 8.4304 21.6349 8.39507 21.6211 8.39507C21.6072 8.39507 21.5804 8.37088 21.5617 8.34129C21.5214 8.27751 21.4431 8.19941 21.4197 8.19941C21.4105 8.19941 21.3854 8.16948 21.3637 8.13286C21.3422 8.09624 21.2995 8.05435 21.2689 8.03983C21.2383 8.02523 21.2051 7.9947 21.1951 7.97199C21.185 7.94929 21.1387 7.90761 21.0919 7.87937C21.0452 7.85119 20.9987 7.8062 20.9885 7.77944C20.9773 7.74999 20.9485 7.72573 20.9155 7.71796C20.8546 7.7035 20.773 7.63722 20.773 7.60223C20.773 7.58966 20.7399 7.56946 20.6995 7.55737C20.6591 7.54527 20.5865 7.49933 20.5381 7.45528C20.4897 7.41116 20.4281 7.37056 20.4011 7.36502C20.3402 7.35245 20.3023 7.32353 20.2604 7.258C20.239 7.22455 20.204 7.20307 20.1589 7.19577C20.0574 7.17929 19.9592 7.1272 19.9368 7.07795C19.9216 7.04457 19.8838 7.02687 19.7726 7.00086C19.6621 6.97505 19.6167 6.95383 19.5792 6.91053C19.5386 6.86357 19.5058 6.85013 19.3857 6.83134C19.2534 6.81067 19.1709 6.77324 19.0947 6.69926C19.0811 6.68608 19.0282 6.67014 18.9772 6.66372C18.7671 6.63751 18.6672 6.61136 18.5723 6.55778C18.4829 6.50732 18.4418 6.4988 18.1891 6.4784C17.8815 6.45347 17.6134 6.41719 17.3904 6.3703C17.2373 6.33807 16.8759 6.33294 16.7613 6.36131Z" fill="#D0021B"/>
<path fillRule="evenodd" clipRule="evenodd" d="M16.4346 6.26384C16.2205 6.27553 16.1103 6.29221 15.9454 6.33809C15.8283 6.37065 15.6356 6.41166 15.5173 6.42916C15.3749 6.45024 15.2623 6.4797 15.1846 6.51625C15.12 6.54665 15.0187 6.58246 14.9596 6.59584C14.9004 6.60922 14.7947 6.64854 14.7247 6.6832C14.6548 6.71786 14.5517 6.76123 14.4956 6.77961C14.4395 6.79798 14.3612 6.83508 14.3216 6.86197C14.2818 6.88892 14.2 6.92892 14.1397 6.95094C14.0794 6.9729 13.9992 7.01479 13.9615 7.04405C13.9239 7.07323 13.8446 7.12086 13.7854 7.14978C13.666 7.20815 13.5168 7.30538 13.416 7.39057C13.3795 7.42131 13.3164 7.46401 13.2755 7.48556C13.0989 7.57853 12.2562 8.3836 12.1095 8.59939C12.0817 8.6404 12.0428 8.69006 12.023 8.70979C12.0033 8.72952 11.9724 8.77478 11.9543 8.81032C11.9362 8.84586 11.8939 8.90221 11.8603 8.93551C11.8266 8.96882 11.7755 9.03206 11.7466 9.07598L11.6939 9.15583L11.5705 9.11847C11.5027 9.09793 11.4119 9.05456 11.3688 9.02199C11.3257 8.9895 11.2424 8.94031 11.1839 8.91261C11.1253 8.88498 11.053 8.8418 11.0232 8.81674C10.9934 8.79167 10.9268 8.7556 10.8753 8.73661C10.8237 8.71756 10.7331 8.67351 10.674 8.63871C10.6148 8.60385 10.5179 8.56467 10.4587 8.55163C10.3994 8.53852 10.2897 8.50129 10.2145 8.46879C10.1348 8.43434 9.9884 8.39475 9.86233 8.3736C9.74362 8.35374 9.58931 8.32036 9.51938 8.29942C9.1634 8.19294 8.36117 8.18639 8.05166 8.28739C8.00322 8.3032 7.8406 8.33867 7.69021 8.36617C7.53961 8.39373 7.36908 8.43805 7.31071 8.46474C7.2524 8.49143 7.15093 8.5271 7.08519 8.54406C7.01938 8.56102 6.91716 8.60007 6.85798 8.63094C6.79879 8.66175 6.69752 8.70999 6.633 8.7381C6.56841 8.76614 6.49801 8.80552 6.47645 8.82552C6.4549 8.84552 6.38883 8.88329 6.32957 8.90937C6.27039 8.93551 6.19553 8.97902 6.1633 9.00618C6.13101 9.03334 6.06743 9.07435 6.02203 9.09739C5.9767 9.12043 5.93055 9.15604 5.91954 9.17657C5.9086 9.19711 5.86644 9.2338 5.82597 9.25812C5.78543 9.28244 5.72591 9.32785 5.69361 9.35899C5.66132 9.39021 5.58646 9.45608 5.52727 9.5054C5.3831 9.62553 5.06582 9.97266 5.01813 10.0624C4.99711 10.1021 4.96306 10.1464 4.94246 10.1608C4.92185 10.1752 4.87314 10.2414 4.83415 10.3079C4.79517 10.3745 4.75382 10.4347 4.74227 10.4419C4.73072 10.449 4.69558 10.5121 4.66417 10.5821C4.63275 10.6521 4.58593 10.7344 4.56012 10.7651C4.53431 10.7958 4.49817 10.8674 4.47972 10.9242C4.46135 10.981 4.42155 11.0716 4.39129 11.1254C4.36108 11.1792 4.31785 11.2937 4.29528 11.3798C4.27271 11.4659 4.23245 11.586 4.20576 11.6466C4.17664 11.7129 4.14158 11.859 4.11806 12.0126C4.09651 12.1533 4.0605 12.3456 4.03807 12.4401C3.98564 12.6609 3.99179 13.4158 4.04753 13.6009C4.0653 13.6601 4.09766 13.8217 4.11928 13.9601C4.14097 14.0985 4.17083 14.2409 4.18576 14.2766C4.22866 14.3793 4.15293 14.4298 3.92261 14.4521C3.84187 14.4599 3.70803 14.4876 3.6252 14.5136C3.5423 14.5396 3.39258 14.5783 3.29252 14.5997C3.1924 14.621 3.04883 14.6683 2.97349 14.7047C2.89816 14.7412 2.80128 14.7818 2.75824 14.795C2.7152 14.8082 2.65359 14.8387 2.62129 14.8627C2.589 14.8868 2.51853 14.9287 2.46475 14.956C2.4109 14.9833 2.35044 15.0239 2.3303 15.0461C2.31017 15.0684 2.25794 15.1052 2.2143 15.128C2.02634 15.226 1.55841 15.6935 1.41916 15.9226C1.39862 15.9564 1.37227 15.9899 1.36058 15.9971C1.34896 16.0043 1.31241 16.0647 1.27931 16.1314C1.24627 16.198 1.20796 16.2657 1.19411 16.2818C1.12385 16.3638 0.949807 16.7722 0.918863 16.9276C0.900689 17.0191 0.86934 17.1318 0.849139 17.178C0.740634 17.4271 0.722798 18.4636 0.822385 18.7321C0.869273 18.8586 0.921363 19.0352 0.955752 19.1846C0.973386 19.2614 1.00676 19.3423 1.03406 19.3747C1.0602 19.4058 1.09689 19.4774 1.1156 19.5338C1.14702 19.6284 1.2558 19.8109 1.36349 19.9498C1.38795 19.9813 1.42727 20.0407 1.45078 20.0816C1.58239 20.3107 1.92986 20.6494 2.22497 20.8362C2.27997 20.871 2.34807 20.9216 2.37631 20.9487C2.40462 20.9758 2.43692 20.998 2.4482 20.998C2.45948 20.998 2.52758 21.0366 2.59954 21.0839C2.67149 21.1311 2.77182 21.1801 2.82256 21.1928C2.8733 21.2054 2.96248 21.2424 3.02072 21.2751C3.0943 21.3164 3.18854 21.3455 3.32941 21.3705C3.44089 21.3902 3.61344 21.4311 3.71269 21.4614L3.89328 21.5165H13.6386C22.9515 21.5165 23.3888 21.515 23.4916 21.4815C23.5508 21.4622 23.7255 21.4204 23.8797 21.3884C24.0531 21.3525 24.1913 21.3124 24.2418 21.2832C24.2866 21.2572 24.3762 21.2211 24.4407 21.203C24.5053 21.185 24.5914 21.1441 24.6319 21.1122C24.6726 21.0803 24.7518 21.0337 24.8081 21.0088C24.8644 20.9838 24.928 20.9439 24.9495 20.92C24.971 20.8961 25.015 20.8629 25.0472 20.8462C25.247 20.7429 25.6933 20.3041 25.8514 20.0554C25.8765 20.016 25.9064 19.9779 25.9179 19.9708C25.9293 19.9637 25.9661 19.9035 25.9997 19.8371C26.0333 19.7706 26.0801 19.6898 26.1037 19.6575C26.1274 19.6252 26.167 19.5418 26.1917 19.472C26.2164 19.4023 26.2568 19.3142 26.2814 19.2763C26.3072 19.2366 26.3655 19.0541 26.419 18.8454L26.5117 18.4833L26.5198 18.0333C26.5269 17.6364 26.5232 17.5635 26.4892 17.4169C26.3905 16.9907 26.3233 16.7557 26.2822 16.6928C26.2576 16.6551 26.2182 16.5662 26.1947 16.4952C26.1711 16.4242 26.1294 16.3361 26.102 16.2995C26.0746 16.2629 26.0343 16.1977 26.0124 16.1547C25.9905 16.1116 25.953 16.0543 25.9291 16.0274C25.9051 16.0006 25.8629 15.9389 25.8352 15.8904C25.7358 15.7162 25.27 15.2599 25.0644 15.1351C25.0272 15.1126 24.9685 15.068 24.934 15.0361C24.8995 15.0041 24.8448 14.9669 24.8125 14.9533C24.7802 14.9398 24.7098 14.8991 24.656 14.8629C24.6022 14.8267 24.5186 14.7868 24.4703 14.7742C24.422 14.7617 24.334 14.7263 24.2747 14.6957C24.2153 14.665 24.0842 14.622 23.9833 14.6001C23.8824 14.5783 23.7371 14.5388 23.6604 14.5124C23.5837 14.4859 23.4532 14.4582 23.3703 14.4507C23.115 14.4277 23.0882 14.2834 23.2462 13.7832C23.3902 13.3274 23.3907 11.8045 23.247 11.3932C23.22 11.3161 23.1845 11.1538 23.1681 11.0326C23.1458 10.8685 23.1236 10.7839 23.081 10.7012C23.0496 10.6402 23.0053 10.5113 22.9827 10.4149C22.959 10.3137 22.9215 10.2125 22.8942 10.1755C22.8681 10.1401 22.8337 10.0664 22.8178 10.0117C22.8018 9.95692 22.7637 9.87246 22.7331 9.82402C22.7025 9.77565 22.6489 9.67876 22.6139 9.60877C22.5198 9.42041 22.4138 9.23806 22.342 9.14097C22.307 9.09368 22.2784 9.04192 22.2784 9.02598C22.2784 9.01003 22.2488 8.96902 22.2125 8.93491C22.1763 8.90072 22.1221 8.83363 22.0919 8.7858C22.0618 8.73796 22.0257 8.68999 22.0118 8.67925C21.9978 8.66851 21.9618 8.62304 21.9318 8.57825C21.7539 8.31273 21.0601 7.65143 20.7759 7.47658C20.7197 7.44199 20.6737 7.40706 20.6737 7.39895C20.6737 7.39077 20.6275 7.35929 20.571 7.32895C20.5144 7.29862 20.4364 7.24896 20.3975 7.21863C20.3585 7.18829 20.288 7.14694 20.2407 7.12667C20.1935 7.1064 20.1285 7.06789 20.0963 7.04107C20.0641 7.01425 19.9857 6.97304 19.9221 6.94939C19.8585 6.92581 19.7811 6.88514 19.75 6.85906C19.719 6.83291 19.6302 6.79292 19.5526 6.77015C19.475 6.74738 19.3763 6.7086 19.3333 6.68394C19.2901 6.65935 19.1725 6.61563 19.0718 6.58685C18.971 6.55807 18.8698 6.52247 18.8467 6.50774C18.789 6.47078 18.6836 6.44517 18.4429 6.4095C18.3298 6.39281 18.1618 6.35707 18.0694 6.33012C17.7996 6.25134 17.1483 6.22492 16.4346 6.26384ZM17.6014 6.30208C17.7594 6.31404 17.9088 6.33687 17.9732 6.35897C18.0324 6.37923 18.1821 6.41011 18.3058 6.42761C18.5988 6.46889 18.7098 6.49416 18.8023 6.54064C18.8439 6.56158 18.9452 6.59611 19.0273 6.61739C19.1095 6.63867 19.2251 6.68083 19.2843 6.71117C19.3435 6.7415 19.4448 6.78116 19.5094 6.79934C19.5739 6.81758 19.662 6.85703 19.705 6.8871C19.7481 6.91716 19.829 6.95675 19.8848 6.97513C19.9406 6.99344 20.0175 7.03317 20.0554 7.06337C20.0935 7.09357 20.1535 7.12965 20.1888 7.14356C20.2241 7.15755 20.2974 7.20248 20.3518 7.24342C20.4061 7.28443 20.4812 7.33071 20.5186 7.34632C20.5559 7.36192 20.6038 7.39395 20.6251 7.41746C20.6464 7.44097 20.6892 7.47333 20.7202 7.48935C20.9616 7.6142 21.7132 8.3307 21.9237 8.63669C21.9584 8.68702 21.9935 8.72817 22.0018 8.72817C22.01 8.72817 22.0371 8.76424 22.0618 8.80836C22.0866 8.85248 22.1317 8.91065 22.162 8.93768C22.1923 8.96463 22.2315 9.02321 22.2492 9.0678C22.2669 9.11246 22.3029 9.17164 22.3293 9.19941C22.3752 9.24785 22.4578 9.39433 22.5931 9.66748C22.6278 9.73748 22.6724 9.81281 22.6922 9.83497C22.712 9.85713 22.7504 9.9405 22.7776 10.0202C22.8047 10.0999 22.8483 10.1963 22.8745 10.2343C22.9025 10.275 22.9383 10.378 22.9613 10.4844C22.983 10.5839 23.0233 10.7039 23.0509 10.751C23.089 10.8162 23.1104 10.9 23.1392 11.0985C23.1601 11.2425 23.1992 11.423 23.2261 11.4997C23.3539 11.8643 23.3481 13.3354 23.2175 13.6918C23.1973 13.7471 23.1663 13.8924 23.1487 14.0146C23.1311 14.1369 23.1121 14.2683 23.1064 14.3068C23.0913 14.4087 23.171 14.4714 23.3383 14.4893C23.4065 14.4967 23.5151 14.5199 23.5797 14.5409C23.6443 14.562 23.8017 14.6009 23.9295 14.6274C24.0573 14.6538 24.1771 14.6893 24.1958 14.7062C24.2311 14.7382 24.4292 14.8142 24.4772 14.8142C24.4924 14.8142 24.5506 14.8456 24.6065 14.8841C24.6624 14.9225 24.7448 14.9667 24.7897 14.9822C24.8346 14.9977 24.89 15.0332 24.9128 15.0611C24.9356 15.0891 24.9854 15.1308 25.0235 15.1538C25.2242 15.2757 25.6971 15.7419 25.8029 15.9222C25.831 15.97 25.8737 16.0302 25.8979 16.056C25.922 16.0816 25.9629 16.1452 25.9889 16.1972C26.0147 16.2491 26.057 16.3203 26.0828 16.3553C26.1087 16.3904 26.1483 16.4802 26.171 16.5549C26.1937 16.6296 26.221 16.6962 26.2317 16.7028C26.2754 16.7298 26.3141 16.8449 26.3598 17.0836C26.3864 17.222 26.4217 17.3681 26.4385 17.4081C26.5187 17.6001 26.5134 18.3302 26.43 18.5725C26.4094 18.6323 26.3864 18.7203 26.3788 18.7682C26.3381 19.0235 26.3019 19.156 26.251 19.2368C26.2204 19.2852 26.1808 19.3755 26.163 19.4376C26.1451 19.4996 26.1101 19.5747 26.0851 19.6043C26.0601 19.634 26.0121 19.7152 25.9785 19.7846C25.9449 19.854 25.9043 19.9181 25.8884 19.927C25.8725 19.9359 25.8454 19.9704 25.8283 20.0036C25.7325 20.1889 25.1964 20.7298 25.0181 20.821C24.9911 20.8348 24.9427 20.8704 24.9104 20.9002C24.8781 20.9299 24.8179 20.9649 24.7767 20.9781C24.7354 20.9914 24.6737 21.0263 24.6396 21.0559C24.557 21.1277 24.5215 21.1445 24.3751 21.1818C24.3067 21.1993 24.225 21.2318 24.1935 21.2542C24.1219 21.3052 24.0621 21.3214 23.8048 21.3596C23.6917 21.3764 23.5332 21.4096 23.4525 21.4334L23.3058 21.4767L13.7169 21.4822C7.44063 21.4858 4.08415 21.481 4.00091 21.4683C3.93092 21.4575 3.82525 21.4352 3.76607 21.4186C3.70688 21.402 3.54838 21.3707 3.4138 21.349C3.22841 21.3191 3.15078 21.2974 3.09288 21.2592C3.05092 21.2315 2.95843 21.1922 2.88742 21.1719C2.81634 21.1516 2.73568 21.1183 2.70811 21.098C2.68055 21.0776 2.60129 21.0324 2.53204 20.9974C2.46273 20.9624 2.39442 20.9172 2.38016 20.897C2.36598 20.8768 2.31159 20.8386 2.2593 20.8121C2.20693 20.7856 2.15849 20.7547 2.1516 20.7435C2.14464 20.7323 2.09336 20.6893 2.03769 20.6479C1.86865 20.5224 1.53854 20.1683 1.47645 20.0459C1.46091 20.0152 1.41936 19.9571 1.3841 19.9167C1.34876 19.8763 1.31991 19.8317 1.31991 19.8174C1.31991 19.8032 1.28897 19.7482 1.2512 19.6952C1.21337 19.6421 1.16506 19.5526 1.14385 19.496C1.12256 19.4395 1.08324 19.3601 1.05635 19.3194C1.02635 19.2741 0.98906 19.1627 0.959873 19.0308C0.933727 18.9127 0.894338 18.7676 0.872313 18.7084C0.766308 18.4226 0.765295 17.5745 0.870692 17.2798C0.891906 17.2207 0.926903 17.0847 0.948523 16.9777C0.971224 16.8655 1.00906 16.7471 1.03791 16.6979C1.06541 16.651 1.10392 16.5658 1.12358 16.5088C1.14324 16.4516 1.18992 16.3648 1.22722 16.3159C1.26458 16.2669 1.3014 16.2019 1.30903 16.1712C1.32343 16.1136 1.41254 15.9883 1.58705 15.78C1.64245 15.7139 1.69306 15.6431 1.69954 15.6228C1.70596 15.6025 1.73859 15.5696 1.77204 15.5499C1.80541 15.5302 1.85034 15.4842 1.87183 15.4478C1.89331 15.4115 1.92182 15.3817 1.93527 15.3817C1.94864 15.3817 2.01006 15.3376 2.07168 15.2836C2.13329 15.2297 2.21173 15.1712 2.24592 15.1537C2.28017 15.1362 2.34125 15.0923 2.38158 15.0561C2.42198 15.0199 2.46725 14.9903 2.48212 14.9903C2.49698 14.9903 2.56299 14.9544 2.62873 14.9104C2.69446 14.8665 2.78135 14.8217 2.82175 14.8108C2.86215 14.8 2.96323 14.7607 3.04626 14.7236C3.13031 14.6859 3.28387 14.6395 3.39272 14.6188C3.50021 14.5983 3.64797 14.5641 3.72114 14.5429C3.79431 14.5217 3.89376 14.4988 3.9422 14.4922C4.22197 14.4536 4.29987 14.392 4.23346 14.2618C4.20792 14.2117 4.17596 14.0673 4.1461 13.8673C4.12016 13.6939 4.0857 13.4808 4.06949 13.3939C4.0278 13.1701 4.03165 12.7952 4.07841 12.5337C4.09948 12.4156 4.13104 12.209 4.14853 12.0745C4.17191 11.8945 4.19495 11.7989 4.23569 11.7125C4.26616 11.6479 4.30487 11.5267 4.3217 11.4431C4.3519 11.2936 4.39318 11.1882 4.43067 11.165C4.44121 11.1585 4.46756 11.0941 4.48925 11.0219C4.51101 10.9497 4.54431 10.8677 4.56323 10.8398C4.66228 10.6942 4.68565 10.6529 4.68572 10.6242C4.68579 10.6068 4.73004 10.5327 4.78409 10.4594C4.83814 10.3862 4.88746 10.3062 4.89361 10.2817C4.89976 10.2572 4.92577 10.2233 4.95144 10.2065C4.97712 10.1897 5.01252 10.1474 5.03022 10.1125C5.06684 10.0402 5.10265 10.0008 5.42276 9.67998C5.7278 9.3744 5.78002 9.32697 5.85218 9.28981C5.88556 9.27258 5.92751 9.23617 5.94548 9.2088C5.96339 9.18137 6.02413 9.13597 6.08047 9.1078C6.13675 9.07969 6.20499 9.03591 6.23201 9.01058C6.25911 8.98524 6.31856 8.95132 6.36423 8.93524C6.40991 8.91916 6.48064 8.8791 6.52145 8.84633C6.56226 8.81356 6.64658 8.76884 6.7088 8.74695C6.77109 8.72506 6.8675 8.68162 6.92317 8.65047C6.97878 8.61926 7.08431 8.57993 7.15762 8.56311C7.23092 8.54629 7.33693 8.51068 7.3932 8.48413C7.46009 8.45244 7.60035 8.41873 7.79804 8.38677C7.96444 8.35982 8.14902 8.32239 8.20821 8.30347C8.38488 8.24712 9.14063 8.25273 9.35305 8.31198C9.43912 8.33597 9.6212 8.37245 9.75768 8.39306C9.92043 8.41758 10.0424 8.44778 10.1124 8.48089C10.2093 8.52676 10.2595 8.54223 10.4805 8.59419C10.5193 8.60338 10.5844 8.63344 10.6252 8.66108C10.6658 8.68871 10.7485 8.72925 10.8089 8.75127C10.8692 8.77323 10.9516 8.81721 10.9922 8.8489C11.0326 8.88059 11.0943 8.91599 11.1291 8.92768C11.164 8.9393 11.2374 8.98287 11.2921 9.02443C11.3469 9.06598 11.4408 9.11678 11.5006 9.13739C11.5604 9.158 11.6266 9.18407 11.6476 9.19529C11.6912 9.2186 11.7605 9.1582 11.8155 9.04909C11.8323 9.01571 11.8693 8.97321 11.8976 8.95463C11.926 8.93605 11.9622 8.88984 11.978 8.85194C11.9938 8.81404 12.0267 8.76411 12.0511 8.74093C12.0755 8.71776 12.1236 8.65723 12.1582 8.60642C12.1927 8.55561 12.333 8.40069 12.47 8.26219C12.6842 8.04545 12.8154 7.92418 13.1965 7.59049C13.2332 7.5584 13.2954 7.5157 13.3348 7.49556C13.3742 7.4755 13.4176 7.44563 13.4312 7.42915C13.4449 7.41273 13.4972 7.37544 13.5474 7.34632C13.5976 7.31727 13.6646 7.27193 13.6962 7.24572C13.7279 7.21944 13.8027 7.17633 13.8624 7.14998C13.9221 7.12357 13.99 7.08397 14.0134 7.06202C14.0369 7.04006 14.1127 7.00148 14.182 6.97635C14.2513 6.95115 14.3416 6.90777 14.3828 6.87987C14.4239 6.85197 14.5066 6.81514 14.5667 6.79805C14.6267 6.78096 14.7198 6.74218 14.7736 6.71191C14.8275 6.68157 14.9315 6.64293 15.0049 6.62597C15.0783 6.60901 15.1869 6.57287 15.2464 6.54564C15.3096 6.51679 15.4535 6.48004 15.5925 6.45734C15.8757 6.41106 15.9958 6.38613 16.1141 6.3491C16.3012 6.29059 17.1101 6.26499 17.6014 6.30208Z" fill="#BCDCD4"/>
<path fillRule="evenodd" clipRule="evenodd" d="M16.1037 6.22531C15.9842 6.23679 15.8965 6.25753 15.8297 6.2901C15.7134 6.34692 15.6104 6.37063 15.3997 6.38921C15.2257 6.40455 15.163 6.42333 15.1051 6.47752C15.0834 6.49785 14.9883 6.53251 14.8936 6.5546C14.7153 6.59616 14.6064 6.64088 14.6064 6.67257C14.6064 6.68263 14.569 6.70054 14.5232 6.71229C14.3587 6.75466 14.3086 6.7756 14.2476 6.82742C14.2135 6.85634 14.1333 6.89606 14.0691 6.91566C13.9977 6.93755 13.9319 6.97342 13.8992 7.00842C13.8695 7.04017 13.8036 7.07808 13.7507 7.09375C13.6984 7.10929 13.6251 7.14942 13.588 7.18293C13.5507 7.21638 13.4874 7.2607 13.4472 7.28144C13.407 7.30211 13.3601 7.34055 13.3429 7.36677C13.3257 7.39298 13.2808 7.4246 13.2431 7.4371C13.2054 7.44953 13.129 7.49939 13.0735 7.5479C13.0179 7.59641 12.9208 7.68134 12.8576 7.73667C12.6886 7.8847 12.1669 8.40864 12.1175 8.48006C12.094 8.51391 12.0424 8.58126 12.0029 8.62971C11.9634 8.67815 11.9209 8.74862 11.9086 8.78625C11.8955 8.82638 11.863 8.86793 11.8304 8.88644C11.7997 8.90394 11.7578 8.95232 11.7375 8.99407C11.6871 9.0971 11.452 9.08258 11.4102 8.9738C11.397 8.93941 11.2759 8.87482 11.1898 8.85624C11.1564 8.84908 11.1106 8.818 11.0878 8.78726C11.0596 8.74909 11.0064 8.71794 10.9207 8.68943C10.8516 8.66639 10.7801 8.63119 10.762 8.61106C10.7204 8.56519 10.66 8.54127 10.4876 8.50242C10.4125 8.48553 10.3333 8.45546 10.3115 8.43567C10.2564 8.38567 10.1652 8.3604 9.949 8.33527C9.81739 8.32 9.72881 8.29723 9.64564 8.25724C9.37154 8.12549 8.14989 8.12441 7.86592 8.25568C7.74904 8.30967 7.7333 8.31365 7.54662 8.33628C7.3436 8.36094 7.25273 8.38689 7.19908 8.43567C7.17726 8.45546 7.09855 8.4858 7.0241 8.50303C6.86013 8.54107 6.77756 8.57424 6.74311 8.61579C6.72878 8.63302 6.66021 8.66599 6.59062 8.68916C6.50421 8.71794 6.45104 8.74902 6.42273 8.78726C6.39996 8.81807 6.35415 8.84901 6.32078 8.85624C6.23369 8.87496 6.15343 8.91908 6.06938 8.99441C6.02898 9.03062 5.98317 9.06021 5.96756 9.06021C5.95196 9.06021 5.91088 9.09548 5.87629 9.13852C5.84169 9.18155 5.8019 9.21675 5.78791 9.21675C5.77393 9.21675 5.7188 9.25418 5.66542 9.29992C5.61205 9.34566 5.53848 9.40512 5.50199 9.43201C5.46544 9.45896 5.36741 9.55578 5.2841 9.64733C5.20073 9.73881 5.10331 9.84447 5.0675 9.88211C5.03176 9.91981 4.98947 9.98183 4.97352 10.02C4.95764 10.0582 4.9215 10.1046 4.89319 10.1231C4.86481 10.1417 4.8284 10.1887 4.81212 10.2276C4.79583 10.2665 4.75232 10.3319 4.7153 10.3727C4.67834 10.4137 4.63733 10.4852 4.62416 10.5316C4.61098 10.578 4.57234 10.6441 4.53835 10.6785C4.50018 10.717 4.46282 10.7862 4.44073 10.8592C4.42107 10.9242 4.38857 10.9922 4.36857 11.0103C4.3329 11.0426 4.25439 11.2621 4.25439 11.3296C4.25439 11.3484 4.22926 11.4113 4.19852 11.4693C4.13866 11.5823 4.11285 11.679 4.07623 11.9271C4.06353 12.0132 4.03171 12.1409 4.00542 12.2108C3.89584 12.5031 3.89665 13.5292 4.00664 13.7617C4.04839 13.8499 4.11744 14.2063 4.11744 14.3334C4.11744 14.371 4.08211 14.3794 3.8303 14.4013C3.62735 14.419 3.56404 14.4363 3.43054 14.5106C3.40257 14.5261 3.31453 14.5479 3.23488 14.5589C3.01084 14.5898 2.98395 14.5981 2.91659 14.6573C2.87876 14.6905 2.80343 14.7254 2.72728 14.7449C2.64776 14.7653 2.57899 14.7978 2.5421 14.8323C2.5098 14.8626 2.4415 14.9055 2.39022 14.9277C2.33894 14.9499 2.29164 14.9822 2.28502 14.9994C2.2784 15.0166 2.22151 15.0567 2.15868 15.0884C2.09578 15.1202 2.02538 15.1717 2.00221 15.203C1.9791 15.2344 1.93221 15.275 1.89809 15.2934C1.86398 15.3117 1.81634 15.3569 1.79216 15.3938C1.76804 15.4306 1.72764 15.4701 1.70243 15.4816C1.6773 15.4931 1.63737 15.5368 1.61379 15.5787C1.59021 15.6206 1.55427 15.6639 1.5338 15.6748C1.5134 15.6858 1.46806 15.7364 1.43313 15.7874C1.3982 15.8383 1.35273 15.8976 1.33213 15.9192C1.31152 15.9407 1.27423 16.0036 1.2493 16.059C1.22436 16.1144 1.18268 16.181 1.15667 16.2069C1.13072 16.2329 1.08965 16.3137 1.06539 16.3865C1.0412 16.4593 1.01019 16.5231 0.996546 16.5284C0.958643 16.5429 0.913782 16.6645 0.878379 16.8487C0.860746 16.9402 0.83318 17.0296 0.817168 17.0474C0.691097 17.1873 0.665829 18.6569 0.785819 18.8678C0.804602 18.9009 0.830343 18.9466 0.842909 18.9695C0.855476 18.9924 0.879123 19.0893 0.895473 19.185C0.91993 19.3282 0.935469 19.3697 0.983033 19.4198C1.01661 19.4553 1.05431 19.5282 1.07309 19.5941C1.09302 19.6641 1.1312 19.736 1.17309 19.7823C1.21031 19.8236 1.24078 19.8716 1.24078 19.8891C1.24078 19.9066 1.26997 19.954 1.30571 19.9944C1.34145 20.0347 1.39145 20.103 1.41678 20.1461C1.44219 20.1891 1.50103 20.2658 1.54758 20.3165C1.59406 20.3671 1.63217 20.4177 1.63217 20.4288C1.63217 20.4398 1.66669 20.4707 1.70885 20.4973C1.75108 20.524 1.79128 20.5637 1.79824 20.5856C1.8052 20.6075 1.85006 20.6484 1.89796 20.6764C1.94586 20.7045 1.99592 20.7423 2.00917 20.7605C2.0447 20.809 2.1453 20.8753 2.20685 20.8908C2.23645 20.8982 2.27516 20.9265 2.29299 20.9537C2.31083 20.9809 2.37225 21.0239 2.42947 21.0492C2.48676 21.0745 2.53838 21.1078 2.54426 21.1231C2.55838 21.1599 2.65999 21.2068 2.78255 21.2331C2.83782 21.245 2.90511 21.2761 2.93463 21.3034C3.00605 21.3696 3.05334 21.3852 3.24961 21.4075C3.36798 21.421 3.45304 21.4441 3.54012 21.4866C3.74301 21.5854 3.49918 21.5831 13.628 21.5837C23.8221 21.5844 23.5279 21.5872 23.7371 21.4869C23.8165 21.4488 23.9127 21.4227 24.026 21.4087C24.2199 21.3846 24.2576 21.3723 24.3497 21.3031C24.3861 21.2757 24.4632 21.2427 24.521 21.2298C24.5886 21.2147 24.6538 21.1826 24.7035 21.14C24.7462 21.1035 24.8214 21.0599 24.8707 21.0432C24.92 21.0263 24.9742 20.9915 24.9911 20.9657C25.008 20.9399 25.0591 20.9023 25.1047 20.8822C25.1744 20.8514 25.3534 20.7126 25.442 20.6208C25.4726 20.5891 25.5744 20.4873 25.6133 20.4494C25.6838 20.381 25.8419 20.1897 25.8868 20.1186C25.9134 20.0763 25.9455 20.0355 25.9578 20.0278C25.9703 20.0201 26.0022 19.9647 26.0287 19.9047C26.0553 19.8446 26.1024 19.7666 26.1333 19.7313C26.1643 19.696 26.1992 19.6296 26.2109 19.5838C26.2419 19.4624 26.2717 19.3927 26.2926 19.3927C26.3197 19.3927 26.3799 19.243 26.4068 19.1089C26.4197 19.0443 26.4509 18.9475 26.476 18.8937C26.6109 18.6054 26.6213 17.4205 26.4917 17.113C26.4645 17.0484 26.4252 16.9265 26.4046 16.8422C26.3635 16.6746 26.3445 16.6306 26.2789 16.5516C26.2549 16.5229 26.2295 16.4609 26.2225 16.414C26.2088 16.3224 26.1463 16.2029 26.1122 16.2029C26.1007 16.2029 26.0707 16.1567 26.0455 16.1002C26.0204 16.0437 25.9768 15.9761 25.9488 15.95C25.9207 15.9239 25.8978 15.8956 25.8978 15.8871C25.8978 15.8464 25.7742 15.6882 25.6286 15.5425C25.5398 15.4537 25.4672 15.3742 25.4672 15.3657C25.4672 15.3573 25.443 15.336 25.4134 15.3184C25.3838 15.3009 25.3209 15.2507 25.2736 15.2069C25.2263 15.1632 25.1491 15.1087 25.102 15.0859C25.0549 15.0632 25.0071 15.027 24.9955 15.0055C24.9841 14.984 24.9336 14.9486 24.8834 14.9268C24.8332 14.9051 24.7656 14.8622 24.7333 14.8317C24.6954 14.7958 24.6294 14.7647 24.5474 14.7439C24.4746 14.7256 24.3988 14.6916 24.3699 14.6645C24.3107 14.6088 24.2446 14.5877 24.0418 14.5594C23.9424 14.5456 23.8699 14.523 23.8239 14.4915C23.7491 14.4404 23.6068 14.409 23.3672 14.391C23.2531 14.3824 23.2112 14.3715 23.2023 14.3484C23.1808 14.2924 23.2352 13.9989 23.2834 13.9104C23.4555 13.5948 23.4503 11.5403 23.2765 11.2576C23.2508 11.2157 23.2274 11.1152 23.2067 10.9562C23.1771 10.7294 23.1483 10.6354 23.0869 10.5651C23.0718 10.5479 23.0462 10.4642 23.0301 10.3792C22.9917 10.1769 22.9884 10.168 22.9353 10.114C22.9104 10.0887 22.8704 10.002 22.8463 9.92129C22.8222 9.84056 22.7819 9.75245 22.7568 9.72556C22.7317 9.69867 22.6872 9.61645 22.6579 9.54288C22.6286 9.4693 22.5925 9.40444 22.5776 9.39877C22.5627 9.39302 22.5209 9.32418 22.4846 9.24567C22.4483 9.16723 22.4015 9.09379 22.3804 9.08251C22.3594 9.07129 22.3275 9.02339 22.3094 8.97617C22.2904 8.92637 22.2559 8.87915 22.2274 8.86395C22.2004 8.84942 22.1623 8.80172 22.1429 8.75787C22.1236 8.71402 22.0816 8.65187 22.0497 8.61971C22.0179 8.58755 21.9639 8.52046 21.9299 8.4706C21.8957 8.42081 21.8547 8.375 21.8387 8.36885C21.8226 8.36263 21.7868 8.32162 21.759 8.27764C21.7313 8.23366 21.6877 8.18819 21.6622 8.17657C21.6367 8.16495 21.6001 8.12623 21.5809 8.09056C21.5616 8.05489 21.5248 8.01435 21.4991 8.00057C21.4733 7.98679 21.4258 7.9422 21.3935 7.90146C21.3612 7.86072 21.324 7.82741 21.3107 7.82741C21.2974 7.82741 21.2507 7.78998 21.207 7.74424C21.0842 7.61574 20.9255 7.4848 20.8391 7.44088C20.7961 7.41893 20.7433 7.38143 20.7218 7.35751C20.7002 7.3336 20.6377 7.29414 20.5829 7.26982C20.5281 7.24549 20.4778 7.21165 20.4713 7.19469C20.4582 7.1605 20.3201 7.08375 20.2718 7.08375C20.2549 7.08375 20.2107 7.05348 20.1736 7.01639C20.1305 6.97322 20.0658 6.93687 19.9933 6.91498C19.9312 6.8962 19.8529 6.85553 19.8193 6.82452C19.7792 6.78742 19.7112 6.75594 19.6205 6.73263C19.5447 6.71317 19.4623 6.67831 19.4376 6.65514C19.3923 6.61305 19.3568 6.60034 19.1341 6.54704C19.0681 6.53123 18.9814 6.49603 18.9414 6.46887C18.8638 6.41624 18.8579 6.41475 18.5358 6.36874C18.4136 6.35124 18.2831 6.31908 18.2227 6.29159C18.041 6.20882 16.7093 6.1672 16.1037 6.22531ZM17.5989 6.26186C17.8199 6.27551 17.9454 6.29354 18.0685 6.32949C18.1609 6.35645 18.3289 6.39219 18.442 6.40887C18.6827 6.44455 18.7881 6.47015 18.8458 6.50711C18.8689 6.52184 18.9701 6.55744 19.0709 6.58622C19.1716 6.61501 19.2893 6.65872 19.3324 6.68331C19.3754 6.70797 19.4741 6.74675 19.5517 6.76952C19.6293 6.79229 19.7181 6.83229 19.7491 6.85843C19.7802 6.88451 19.8576 6.92518 19.9212 6.94876C19.9848 6.97241 20.0632 7.01362 20.0954 7.04044C20.1276 7.06727 20.1926 7.10578 20.2399 7.12605C20.2871 7.14631 20.3576 7.18766 20.3966 7.218C20.4355 7.24833 20.5135 7.29799 20.5701 7.32833C20.6266 7.35866 20.6728 7.39015 20.6728 7.39832C20.6728 7.40643 20.7188 7.44136 20.775 7.47595C21.0592 7.6508 21.753 8.3121 21.9309 8.57762C21.9609 8.62241 21.9969 8.66788 22.0109 8.67862C22.0248 8.68936 22.0609 8.73733 22.0911 8.78517C22.1212 8.833 22.1754 8.90009 22.2117 8.93428C22.2479 8.9684 22.2775 9.00941 22.2775 9.02535C22.2775 9.0413 22.3061 9.09305 22.3411 9.14034C22.4129 9.23743 22.5189 9.41978 22.613 9.60814C22.648 9.67814 22.7016 9.77502 22.7322 9.82339C22.7628 9.87184 22.8009 9.95629 22.8169 10.0111C22.8328 10.0658 22.8672 10.1395 22.8933 10.1749C22.9206 10.2119 22.9581 10.3131 22.9818 10.4143C23.0044 10.5107 23.0487 10.6395 23.0801 10.7006C23.1227 10.7833 23.1449 10.8679 23.1672 11.0319C23.1836 11.1532 23.2191 11.3154 23.2461 11.3926C23.3898 11.8039 23.3893 13.3268 23.2454 13.7825C23.0873 14.2828 23.1141 14.4271 23.3694 14.4501C23.4523 14.4575 23.5828 14.4853 23.6595 14.5117C23.7362 14.5381 23.8815 14.5777 23.9824 14.5995C24.0833 14.6214 24.2144 14.6644 24.2738 14.695C24.3331 14.7257 24.4211 14.7611 24.4694 14.7736C24.5177 14.7862 24.6013 14.8261 24.6551 14.8622C24.709 14.8985 24.7794 14.9391 24.8116 14.9527C24.8439 14.9663 24.8986 15.0035 24.9331 15.0355C24.9676 15.0674 25.0263 15.112 25.0635 15.1345C25.2691 15.2592 25.7349 15.7156 25.8343 15.8898C25.862 15.9382 25.9042 15.9999 25.9282 16.0268C25.9521 16.0537 25.9896 16.1109 26.0115 16.154C26.0334 16.1971 26.0737 16.2623 26.1011 16.2989C26.1285 16.3355 26.1703 16.4235 26.1938 16.4945C26.2173 16.5656 26.2567 16.6545 26.2813 16.6922C26.3224 16.7551 26.3896 16.99 26.4883 17.4162C26.5223 17.5628 26.526 17.6358 26.5189 18.0327L26.5108 18.4827L26.4181 18.8448C26.3646 19.0535 26.3063 19.2359 26.2805 19.2757C26.2559 19.3136 26.2155 19.4017 26.1908 19.4714C26.1661 19.5411 26.1265 19.6246 26.1028 19.6569C26.0792 19.6892 26.0324 19.77 25.9988 19.8364C25.9652 19.9029 25.9284 19.9631 25.917 19.9702C25.9055 19.9772 25.8756 20.0153 25.8505 20.0548C25.6924 20.3034 25.2461 20.7423 25.0463 20.8456C25.0141 20.8623 24.9701 20.8955 24.9486 20.9193C24.9271 20.9432 24.8635 20.9832 24.8072 21.0082C24.7509 21.0331 24.6717 21.0796 24.6311 21.1115C24.5905 21.1434 24.5044 21.1844 24.4399 21.2024C24.3753 21.2204 24.2857 21.2565 24.2409 21.2825C24.1904 21.3117 24.0522 21.3519 23.8788 21.3878C23.7246 21.4198 23.5499 21.4616 23.4907 21.4809C23.3879 21.5143 22.9506 21.5159 13.6378 21.5159H3.89239L3.7118 21.4608C3.61255 21.4305 3.44 21.3896 3.32852 21.3698C3.18765 21.3449 3.0934 21.3158 3.01983 21.2745C2.96159 21.2418 2.87241 21.2048 2.82167 21.1921C2.77093 21.1795 2.6706 21.1305 2.59865 21.0832C2.52669 21.036 2.45859 20.9974 2.44731 20.9974C2.43602 20.9974 2.40373 20.9752 2.37542 20.9481C2.34718 20.921 2.27908 20.8703 2.22408 20.8355C1.92897 20.6487 1.5815 20.3101 1.44989 20.081C1.42638 20.0401 1.38705 19.9807 1.3626 19.9491C1.2549 19.8102 1.14613 19.6277 1.11471 19.5332C1.096 19.4767 1.05931 19.4052 1.03316 19.3741C1.00587 19.3417 0.972493 19.2607 0.95486 19.1839C0.920471 19.0346 0.86838 18.8579 0.821492 18.7315C0.721906 18.463 0.739742 17.4265 0.848247 17.1774C0.868448 17.1312 0.899797 17.0185 0.917971 16.927C0.948914 16.7715 1.12295 16.3631 1.19322 16.2812C1.20707 16.265 1.24538 16.1973 1.27841 16.1307C1.31152 16.0641 1.34807 16.0037 1.35969 15.9965C1.37138 15.9893 1.39773 15.9557 1.41827 15.922C1.55751 15.6929 2.02545 15.2253 2.21341 15.1274C2.25705 15.1046 2.30928 15.0678 2.32941 15.0455C2.34954 15.0232 2.41001 14.9826 2.46386 14.9554C2.51764 14.9281 2.58811 14.8862 2.6204 14.8621C2.6527 14.8381 2.71431 14.8076 2.75735 14.7944C2.80039 14.7812 2.89727 14.7406 2.9726 14.7041C3.04793 14.6677 3.1915 14.6204 3.29163 14.599C3.39169 14.5777 3.54141 14.539 3.62431 14.5129C3.70714 14.4869 3.84098 14.4592 3.92171 14.4515C4.15203 14.4292 4.22777 14.3786 4.18487 14.2759C4.16994 14.2403 4.14007 14.0978 4.11839 13.9595C4.09677 13.8211 4.06441 13.6594 4.04664 13.6003C3.9909 13.4151 3.98475 12.6603 4.03718 12.4395C4.05961 12.345 4.09562 12.1527 4.11717 12.012C4.14068 11.8584 4.17575 11.7122 4.20487 11.646C4.23155 11.5853 4.27182 11.4653 4.29439 11.3791C4.31695 11.2931 4.36019 11.1786 4.39039 11.1248C4.42066 11.0709 4.46045 10.9804 4.47883 10.9236C4.49728 10.8668 4.53342 10.7951 4.55923 10.7645C4.58504 10.7338 4.63186 10.6514 4.66328 10.5814C4.69469 10.5115 4.72982 10.4484 4.74138 10.4412C4.75293 10.4341 4.79428 10.3738 4.83326 10.3073C4.87225 10.2408 4.92096 10.1746 4.94156 10.1601C4.96217 10.1457 4.99622 10.1015 5.01723 10.0618C5.06493 9.97203 5.3822 9.6249 5.52638 9.50477C5.58557 9.45545 5.66042 9.38958 5.69272 9.35836C5.72501 9.32722 5.78454 9.28182 5.82507 9.25749C5.86554 9.23317 5.9077 9.19649 5.91865 9.17595C5.92966 9.15541 5.9758 9.1198 6.02114 9.09676C6.06654 9.07373 6.13012 9.03272 6.16241 9.00556C6.19464 8.9784 6.2695 8.93489 6.32868 8.90874C6.38793 8.88266 6.45401 8.84489 6.47556 8.82489C6.49711 8.8049 6.56751 8.76551 6.6321 8.73747C6.69662 8.70936 6.7979 8.66112 6.85708 8.63032C6.91627 8.59944 7.01849 8.56039 7.0843 8.54343C7.15003 8.52647 7.25151 8.4908 7.30982 8.46411C7.36819 8.43743 7.53872 8.3931 7.68931 8.36554C7.83971 8.33804 8.00233 8.30257 8.05077 8.28676C8.36027 8.18576 9.16251 8.19231 9.51849 8.29879C9.58842 8.31973 9.74273 8.35311 9.86144 8.37297C9.98751 8.39412 10.1339 8.43371 10.2136 8.46817C10.2888 8.50066 10.3986 8.53789 10.4578 8.551C10.517 8.56404 10.6139 8.60322 10.6731 8.63808C10.7322 8.67288 10.8228 8.71693 10.8744 8.73598C10.9259 8.75497 10.9925 8.79105 11.0223 8.81611C11.0522 8.84118 11.1244 8.88435 11.183 8.91198C11.2415 8.93968 11.3248 8.98887 11.3679 9.02136C11.411 9.05393 11.5018 9.0973 11.5696 9.11784L11.693 9.15521L11.7457 9.07535C11.7746 9.03143 11.8257 8.96819 11.8594 8.93489C11.893 8.90158 11.9353 8.84523 11.9534 8.80969C11.9715 8.77415 12.0024 8.72889 12.0221 8.70916C12.0419 8.68943 12.0808 8.63977 12.1086 8.59876C12.2553 8.38297 13.098 7.5779 13.2746 7.48494C13.3155 7.46338 13.3787 7.42068 13.4151 7.38994C13.5159 7.30475 13.6651 7.20753 13.7845 7.14915C13.8437 7.12023 13.923 7.0726 13.9606 7.04342C13.9983 7.01416 14.0785 6.97227 14.1388 6.95032C14.1991 6.92829 14.2809 6.88829 14.3207 6.86134C14.3603 6.83445 14.4386 6.79736 14.4947 6.77898C14.5508 6.7606 14.6539 6.71723 14.7238 6.68257C14.7938 6.64791 14.8995 6.60859 14.9587 6.59521C15.0178 6.58183 15.1191 6.54602 15.1837 6.51562C15.2614 6.47907 15.374 6.44961 15.5164 6.42853C15.6348 6.41104 15.8274 6.37003 15.9445 6.33746C16.2519 6.25193 16.9324 6.22085 17.5989 6.26186Z" fill="#C8E4DC"/>
</g>
<defs>
<clipPath id="clip0_2586_14859">
<rect width="27.0248" height="23.6467" fill="white" transform="translate(0.401367 2.06445)"/>
</clipPath>
</defs>
</svg>
