<svg width="28" height="28" viewBox="0 0 28 28" fill="none" xmlns="http://www.w3.org/2000/svg">
<g clipPath="url(#clip0_2586_13646)">
<path fillRule="evenodd" clipRule="evenodd" d="M17.8634 4.08938C17.6648 4.09913 17.5615 4.11479 17.5094 4.14302C17.409 4.19742 17.2818 4.22283 16.9519 4.25439C16.7151 4.27712 16.6623 4.28956 16.613 4.33444C16.5382 4.40251 16.4992 4.41566 16.2951 4.44155C16.1553 4.45925 16.116 4.47444 16.0572 4.53317C16.0117 4.57874 15.9525 4.60901 15.8892 4.61912C15.8299 4.62865 15.7556 4.66476 15.7 4.71121C15.6441 4.75796 15.5699 4.79395 15.5089 4.80388C15.4436 4.81452 15.388 4.84297 15.3476 4.88639C15.3108 4.92589 15.2341 4.96773 15.1573 4.99005C15.07 5.01541 15.0249 5.04176 15.017 5.07185C15.0106 5.09634 14.9682 5.1318 14.9228 5.15079C14.8774 5.16978 14.8228 5.21203 14.8013 5.24475C14.7799 5.27748 14.7437 5.31014 14.721 5.31733C14.6983 5.32457 14.6335 5.3736 14.577 5.42636C14.5206 5.47912 14.4417 5.53621 14.4019 5.55327C14.362 5.57034 14.3114 5.61153 14.2896 5.6449C14.2678 5.6782 14.225 5.71496 14.1946 5.72653C14.1642 5.7381 14.1252 5.77672 14.1081 5.81242C14.0911 5.84812 14.0524 5.88961 14.0223 5.90463C13.9921 5.91964 13.9475 5.96487 13.923 6.00513C13.8985 6.04539 13.8521 6.09032 13.82 6.10493C13.7878 6.1196 13.7614 6.14835 13.7614 6.16874C13.7613 6.2201 13.6746 6.35765 13.6105 6.40802C13.5814 6.43098 13.5448 6.48024 13.5294 6.51752C13.5139 6.5548 13.4767 6.59851 13.4465 6.61463C13.4117 6.63327 13.3827 6.6792 13.3673 6.7405C13.3537 6.79431 13.3063 6.87571 13.26 6.92468C13.2145 6.97288 13.1772 7.02915 13.1772 7.04966C13.1772 7.07023 13.1465 7.11575 13.1088 7.15087C13.0633 7.1934 13.0285 7.26084 13.0045 7.35304C12.9819 7.44016 12.9476 7.5087 12.912 7.53815C12.8695 7.57321 12.8463 7.63048 12.8189 7.76738C12.7912 7.90558 12.765 7.96962 12.711 8.03115C12.6553 8.09454 12.6396 8.13434 12.6396 8.21188C12.6396 8.33867 12.586 8.54517 12.5203 8.67121C12.3894 8.92235 12.3791 11.1639 12.5078 11.3981C12.5946 11.5561 12.6152 11.6203 12.6383 11.8046C12.6577 11.9588 12.6747 12.0121 12.7198 12.0594C12.7565 12.0978 12.7904 12.1788 12.8146 12.2858C12.84 12.3979 12.8708 12.4696 12.9089 12.5054C12.9401 12.5346 12.9825 12.6172 13.0034 12.6889C13.0243 12.7606 13.0719 12.854 13.1092 12.8966C13.1466 12.9391 13.1772 12.9946 13.1772 13.0198C13.1772 13.0451 13.2146 13.1052 13.2604 13.1534C13.3061 13.2017 13.3555 13.285 13.37 13.3387C13.387 13.4017 13.4152 13.4449 13.4497 13.4606C13.4791 13.474 13.5188 13.5225 13.5379 13.5683C13.5571 13.6141 13.6073 13.6856 13.6496 13.7272C13.6919 13.7687 13.7738 13.8589 13.8316 13.9277C13.8895 13.9964 13.9815 14.0983 14.0361 14.1542C14.0908 14.21 14.1355 14.2665 14.1355 14.2798C14.1355 14.2931 14.1768 14.3301 14.2274 14.3621C14.3168 14.4185 14.4393 14.5215 14.5917 14.6684C14.6326 14.7078 14.6978 14.7532 14.7365 14.7693C14.7753 14.7854 14.8208 14.8241 14.8375 14.8554C14.8542 14.8867 14.8846 14.9123 14.9049 14.9123C14.9533 14.9125 15.0976 15.001 15.134 15.0529C15.1497 15.0754 15.2041 15.1103 15.2547 15.1305C15.3053 15.1508 15.3612 15.188 15.3788 15.2131C15.3973 15.2394 15.47 15.2742 15.5503 15.295C15.6379 15.3178 15.7071 15.3522 15.7365 15.3876C15.7664 15.4236 15.8295 15.4545 15.9118 15.4733C16.0591 15.5071 16.1143 15.5315 16.1816 15.5926C16.2125 15.6206 16.2953 15.645 16.4154 15.6614C16.5444 15.679 16.6272 15.7044 16.6859 15.7446C16.7757 15.8061 16.8299 15.8166 17.4077 15.8836C17.5941 15.9052 17.7843 15.9378 17.8303 15.9561C17.9558 16.006 18.7827 15.9892 18.9204 15.9341C18.9782 15.911 19.1816 15.8793 19.4112 15.8575C19.7268 15.8276 19.8125 15.8119 19.8501 15.7769C19.9169 15.7148 20.0096 15.6845 20.2098 15.659C20.3445 15.642 20.399 15.6236 20.4449 15.5799C20.4832 15.5433 20.5642 15.5094 20.6711 15.4852C20.7832 15.4598 20.8549 15.429 20.8907 15.3909C20.92 15.3598 21.0028 15.3174 21.0748 15.2967C21.147 15.276 21.2372 15.2292 21.2759 15.1925C21.3144 15.1558 21.3744 15.1189 21.409 15.1104C21.4437 15.1018 21.488 15.0705 21.5076 15.0407C21.527 15.0109 21.6003 14.9604 21.6703 14.9283C21.7404 14.8962 21.8092 14.8486 21.8231 14.8225C21.8371 14.7964 21.8845 14.7621 21.9284 14.7462C21.9723 14.7303 22.0195 14.6926 22.0333 14.6624C22.0471 14.6322 22.0856 14.5971 22.1189 14.5844C22.1523 14.5717 22.2572 14.4826 22.3519 14.3862C22.4467 14.2899 22.5342 14.2111 22.5464 14.2111C22.5585 14.2111 22.5902 14.1743 22.6167 14.1293C22.6432 14.0843 22.6799 14.0475 22.6982 14.0475C22.7164 14.0475 22.7489 14.0106 22.7703 13.9654C22.7917 13.9203 22.8355 13.8662 22.8676 13.8451C22.8996 13.8241 22.9405 13.772 22.9583 13.7294C22.9785 13.6809 23.0124 13.6464 23.0484 13.6373C23.0915 13.6265 23.1101 13.6021 23.1214 13.5416C23.1298 13.4969 23.1716 13.4216 23.2145 13.3741C23.2572 13.3267 23.3091 13.2475 23.3297 13.1981C23.3503 13.1487 23.387 13.1032 23.4112 13.0968C23.4426 13.0886 23.4672 13.0415 23.4964 12.9339C23.5243 12.8306 23.5546 12.7712 23.5915 12.747C23.6291 12.7224 23.6548 12.6708 23.6753 12.579C23.6948 12.4916 23.7262 12.4265 23.7674 12.388C23.8151 12.3434 23.8386 12.286 23.8668 12.145C23.8882 12.0381 23.9279 11.9251 23.9612 11.8762C24.0056 11.8112 24.0249 11.7387 24.0458 11.5583C24.0615 11.4227 24.0972 11.2633 24.1308 11.1787C24.2484 10.8829 24.2844 9.20376 24.1774 8.99896C24.0988 8.84838 24.0678 8.73373 24.0446 8.50912C24.0292 8.35907 24.0077 8.26698 23.979 8.22765C23.9006 8.12037 23.8809 8.06609 23.8599 7.89856C23.8436 7.76838 23.8279 7.72444 23.7879 7.69639C23.7299 7.65578 23.6716 7.53178 23.6716 7.44899C23.6716 7.41708 23.6368 7.35754 23.5898 7.30916C23.5448 7.26282 23.5079 7.21129 23.5079 7.19457C23.5075 7.10955 23.4571 6.99818 23.4096 6.97709C23.377 6.96271 23.3406 6.90931 23.3139 6.83703C23.2902 6.77281 23.2348 6.68727 23.1907 6.64689C23.1467 6.60657 23.1106 6.55205 23.1106 6.5257C23.1106 6.49795 23.0905 6.47142 23.0626 6.46259C23.0362 6.45424 22.9921 6.40095 22.9645 6.34415C22.9369 6.28742 22.9009 6.24096 22.8845 6.24096C22.868 6.24096 22.836 6.21204 22.8132 6.17669C22.7904 6.14134 22.6297 5.97328 22.4562 5.80319C22.0132 5.3691 22.0078 5.36419 21.9358 5.33392C21.9003 5.31896 21.8596 5.28139 21.8455 5.25036C21.8305 5.21747 21.7928 5.18854 21.7551 5.181C21.7195 5.17388 21.6411 5.12549 21.581 5.07343C21.5209 5.02143 21.4557 4.97883 21.4363 4.97883C21.4168 4.97883 21.3694 4.94745 21.331 4.90906C21.2866 4.86465 21.2129 4.82673 21.1283 4.80476C21.0441 4.78285 20.9783 4.74907 20.9487 4.7125C20.9165 4.67288 20.8564 4.64436 20.7565 4.62146C20.6765 4.60305 20.5735 4.5594 20.5277 4.52446C20.4554 4.4693 20.274 4.42104 20.1288 4.41835C20.1149 4.41811 20.0546 4.38551 19.9949 4.34589C19.8994 4.28267 19.8556 4.2711 19.6345 4.25076C19.4796 4.23657 19.3152 4.20455 19.2074 4.16762C18.9618 4.08347 18.5137 4.05741 17.8634 4.08938ZM7.47421 12.8533C7.41637 12.8616 7.33748 12.8912 7.29892 12.9193C7.25451 12.9515 7.15225 12.9833 7.0202 13.0059C6.86114 13.033 6.79728 13.0553 6.75141 13.0992C6.71834 13.1309 6.6301 13.1728 6.55537 13.1923C6.46422 13.216 6.3979 13.2508 6.35384 13.2979C6.31007 13.3448 6.25585 13.3734 6.19069 13.3838C6.11584 13.3957 6.08528 13.4146 6.0594 13.4647C6.04082 13.5006 6.00184 13.537 5.97274 13.5456C5.9437 13.5542 5.88837 13.5908 5.8498 13.6269C5.68555 13.7807 5.26566 14.2064 5.19834 14.2874C5.15814 14.3357 5.09106 14.4101 5.04928 14.4527C5.0075 14.4951 4.97332 14.5481 4.97332 14.5703C4.97332 14.6256 4.91804 14.728 4.85973 14.7808C4.8332 14.8048 4.79908 14.8626 4.78388 14.9092C4.76869 14.9559 4.72756 15.0271 4.69244 15.0675C4.64961 15.1168 4.62057 15.1867 4.60409 15.2802C4.58077 15.4126 4.54969 15.4956 4.46771 15.6447C4.43189 15.7098 4.41109 15.9194 4.37439 16.585C4.34833 17.0575 4.42353 17.7983 4.50586 17.8806C4.54934 17.9241 4.58007 18.0157 4.60999 18.1908C4.61829 18.2393 4.65469 18.3129 4.69086 18.3545C4.72709 18.3959 4.7736 18.4882 4.79417 18.5596C4.81479 18.6308 4.85768 18.7136 4.88959 18.7436C4.92143 18.7735 4.95416 18.8281 4.96222 18.8649C4.97028 18.9017 5.00785 18.9539 5.04578 18.9808C5.08364 19.0078 5.1343 19.0684 5.15832 19.1155C5.18239 19.1626 5.22534 19.2222 5.25379 19.2479C5.28225 19.2737 5.32497 19.3328 5.34869 19.3794C5.37247 19.4259 5.41331 19.4696 5.43955 19.4764C5.46573 19.4833 5.50564 19.5215 5.52825 19.5613C5.5508 19.6011 5.58803 19.6397 5.61093 19.6472C5.63378 19.6545 5.71138 19.7121 5.78325 19.7749C5.85518 19.8379 5.93318 19.8955 5.95667 19.9029C5.98011 19.9104 6.00564 19.9363 6.0133 19.9605C6.02177 19.9871 6.07225 20.0195 6.14091 20.0423C6.20337 20.063 6.28121 20.1047 6.31381 20.1349C6.34642 20.1652 6.42547 20.2073 6.48946 20.2286C6.55344 20.2498 6.61889 20.283 6.6349 20.3023C6.68269 20.3598 6.73826 20.3806 6.93827 20.4155C7.06712 20.438 7.15792 20.4691 7.21933 20.5117C7.38277 20.6249 8.31786 20.6573 9.13369 20.578C9.23582 20.5682 9.32388 20.5419 9.40247 20.4977C9.46675 20.4618 9.57841 20.4214 9.65058 20.4083C9.74483 20.3911 9.80133 20.3647 9.85129 20.3148C9.90002 20.2661 9.95407 20.2403 10.0323 20.2286C10.1129 20.2165 10.1605 20.1931 10.2041 20.1441C10.2409 20.1029 10.3125 20.0624 10.3874 20.0407C10.471 20.0164 10.5152 19.9898 10.5254 19.9578C10.5336 19.9317 10.5855 19.8912 10.6412 19.8673C10.6984 19.8428 10.7488 19.803 10.7576 19.7756C10.766 19.7489 10.7833 19.7271 10.7961 19.7271C10.8088 19.7271 10.9291 19.614 11.0633 19.4758C11.3901 19.1393 11.407 19.12 11.4477 19.0385C11.467 18.9997 11.5117 18.9541 11.547 18.9373C11.5823 18.9203 11.6113 18.8886 11.6113 18.8668C11.6116 18.7757 11.6649 18.6464 11.7293 18.5806C11.7672 18.5418 11.7982 18.4896 11.7982 18.4646C11.7982 18.3843 11.8713 18.2334 11.9172 18.2188C11.9418 18.2111 11.9619 18.1975 11.9619 18.1887C11.9627 18.0601 12.0455 17.7097 12.0951 17.6249C12.2156 17.4194 12.2145 15.9923 12.0938 15.8099C12.0526 15.7476 12.0196 15.6494 11.9973 15.5227C11.9735 15.3869 11.9465 15.31 11.9062 15.2621C11.8732 15.2227 11.8338 15.1274 11.813 15.036C11.7932 14.949 11.7653 14.8741 11.7512 14.8693C11.6985 14.8518 11.6386 14.7654 11.6235 14.6854C11.6147 14.6379 11.5737 14.5675 11.5272 14.5196C11.4828 14.4739 11.4404 14.4124 11.433 14.383C11.4256 14.3537 11.3994 14.3232 11.3749 14.3155C11.3503 14.3077 11.3131 14.2678 11.2922 14.227C11.2713 14.1861 11.2162 14.1146 11.1698 14.068C11.1233 14.0214 11.0711 13.9688 11.0536 13.9511C10.9122 13.8077 10.8429 13.7487 10.7894 13.7261C10.7551 13.7116 10.7205 13.679 10.7124 13.6535C10.7043 13.6281 10.6682 13.597 10.6321 13.5844C10.5959 13.5718 10.5358 13.5301 10.4986 13.4917C10.4614 13.4533 10.38 13.4031 10.3178 13.3801C10.2556 13.3572 10.1897 13.3155 10.1714 13.2876C10.1493 13.2538 10.0939 13.2269 10.0063 13.2072C9.91825 13.1875 9.85433 13.1563 9.81378 13.1133C9.76417 13.0606 9.71468 13.0419 9.54353 13.0113C9.41667 12.9885 9.30793 12.9544 9.26796 12.9249C9.15355 12.8403 7.91292 12.7908 7.47421 12.8533ZM17.1541 18.8651C16.9134 18.8799 16.8831 18.8869 16.8269 18.9407C16.7922 18.974 16.7046 19.0158 16.6279 19.0358C16.5472 19.0568 16.4692 19.0948 16.4382 19.1283C16.4092 19.1595 16.3271 19.2036 16.2556 19.2261C16.1721 19.2524 16.1217 19.2822 16.1146 19.3095C16.1084 19.3329 16.0735 19.3653 16.0369 19.3816C15.9631 19.4143 15.7015 19.6658 15.7015 19.7039C15.7015 19.7172 15.6754 19.7399 15.6437 19.7544C15.6106 19.7695 15.5748 19.8144 15.5599 19.8595C15.5448 19.9053 15.5071 19.9521 15.4698 19.9714C15.4191 19.9976 15.3997 20.0317 15.3767 20.1342C15.3568 20.2229 15.3289 20.2785 15.2879 20.3108C15.2379 20.3501 15.2213 20.396 15.186 20.5928C15.1599 20.7379 15.123 20.8611 15.0896 20.9144C15.0075 21.0453 15.0061 21.803 15.0876 21.9124C15.1197 21.9555 15.1542 22.0592 15.1771 22.1812C15.2025 22.3167 15.2362 22.413 15.2831 22.484C15.3209 22.5412 15.3641 22.6291 15.3791 22.6791C15.3941 22.7293 15.4296 22.7855 15.458 22.8041C15.4864 22.8227 15.5321 22.8899 15.5594 22.9535C15.5868 23.017 15.6366 23.0871 15.6702 23.1091C15.7037 23.1311 15.7457 23.1838 15.7634 23.2261C15.7811 23.2685 15.8114 23.3031 15.8308 23.3031C15.8502 23.3031 15.9116 23.3451 15.9672 23.3963C16.0228 23.4476 16.1041 23.5045 16.1478 23.5228C16.1916 23.5412 16.2528 23.5834 16.284 23.6166C16.3152 23.6499 16.355 23.6771 16.3726 23.6771C16.4109 23.6771 16.5872 23.7637 16.6364 23.8067C16.6557 23.8236 16.7872 23.8603 16.9285 23.8883C17.0699 23.9163 17.2271 23.9591 17.2777 23.9835C17.4136 24.0488 17.908 24.048 18.0199 23.9823C18.0625 23.9573 18.221 23.9159 18.3733 23.89C18.6124 23.8492 18.6603 23.8333 18.7306 23.7717C18.7752 23.7325 18.8327 23.7005 18.8584 23.7005C18.8841 23.7005 18.9415 23.6641 18.9859 23.6197C19.0303 23.5752 19.1096 23.5261 19.162 23.5103C19.2262 23.4911 19.2683 23.4604 19.2911 23.4162C19.3098 23.3801 19.3551 23.3352 19.3918 23.3162C19.4285 23.2972 19.4641 23.2604 19.4708 23.2345C19.4776 23.2086 19.521 23.1651 19.5673 23.1378C19.6136 23.1105 19.6515 23.0722 19.6515 23.0527C19.6515 23.0332 19.6868 22.9843 19.7299 22.944C19.7731 22.9037 19.8273 22.8202 19.8504 22.7585C19.8735 22.6969 19.9157 22.6281 19.9443 22.6056C19.9801 22.5774 20.0082 22.511 20.0354 22.3905C20.0573 22.2937 20.1027 22.1756 20.1377 22.1248L20.2007 22.0333V21.3814C20.2007 20.7439 20.1996 20.7286 20.1509 20.6899C20.0808 20.6342 20.0544 20.5738 20.0275 20.4065C20.0089 20.291 19.9869 20.2419 19.9212 20.1692C19.8757 20.1188 19.8384 20.0568 19.8384 20.0314C19.8384 20.006 19.8116 19.9677 19.7788 19.9462C19.746 19.9247 19.7046 19.8788 19.6867 19.8443C19.6586 19.79 19.4754 19.5996 19.184 19.322C19.139 19.2792 19.0657 19.2316 19.021 19.2162C18.9765 19.2009 18.9133 19.1631 18.8808 19.1323C18.8471 19.1003 18.7565 19.0598 18.6698 19.0378C18.5862 19.0167 18.4806 18.9751 18.435 18.9454C18.3048 18.8604 17.7735 18.8272 17.1541 18.8651Z" fill="#D0021B"/>
<path fillRule="evenodd" clipRule="evenodd" d="M17.957 3.9905C17.5785 4.00429 17.2359 4.04905 17.082 4.10479C16.9976 4.13529 16.8539 4.17006 16.7627 4.18204C16.6715 4.19402 16.5242 4.23539 16.4355 4.27401C16.3467 4.31264 16.2144 4.35634 16.1413 4.37124C16.0623 4.38731 15.9748 4.425 15.9255 4.46421C15.8799 4.50044 15.7969 4.54157 15.7411 4.55565C15.6852 4.56968 15.5998 4.6128 15.5512 4.65142C15.5026 4.69005 15.4274 4.72826 15.3841 4.73638C15.3408 4.74451 15.2552 4.78687 15.1938 4.83052C15.1325 4.87411 15.0697 4.90981 15.0544 4.90981C15.0391 4.90981 14.9789 4.94925 14.9207 4.99746C14.7534 5.136 14.6134 5.24463 14.326 5.45907C14.2283 5.53194 13.7239 6.04275 13.6762 6.11708C13.6384 6.17603 13.5951 6.23377 13.382 6.5091C13.3529 6.54673 13.3029 6.62158 13.2707 6.6754C13.1576 6.86501 13.0715 6.99712 13.0204 7.05976C12.992 7.09459 12.9515 7.17464 12.9304 7.23769C12.9093 7.30068 12.8715 7.37465 12.8462 7.40206C12.821 7.4294 12.7789 7.52406 12.7524 7.61241C12.726 7.7007 12.68 7.81505 12.6502 7.86647C12.6204 7.91789 12.5792 8.03336 12.5585 8.12311C12.5379 8.21286 12.4959 8.33907 12.4654 8.40358C12.4334 8.47095 12.403 8.59056 12.3938 8.68452C12.3773 8.85503 12.336 9.09174 12.2776 9.35065C12.2154 9.62622 12.2289 10.5456 12.2993 10.8348C12.3306 10.9634 12.3683 11.1737 12.3831 11.3023C12.4012 11.4596 12.4315 11.5857 12.4758 11.6879C12.5119 11.7715 12.5541 11.903 12.5694 11.9801C12.5847 12.0572 12.6211 12.1624 12.6503 12.2138C12.6795 12.2652 12.7219 12.3652 12.7446 12.4359C12.7672 12.5066 12.8091 12.596 12.8377 12.6345C12.8662 12.6731 12.9076 12.7591 12.9295 12.8255C12.9515 12.892 12.9855 12.9598 13.005 12.976C13.0246 12.9923 13.0676 13.0588 13.1005 13.1239C13.1334 13.189 13.1904 13.2788 13.2273 13.3235C13.264 13.3682 13.2941 13.4182 13.2941 13.4345C13.2941 13.4508 13.3309 13.5049 13.3759 13.5547C13.4209 13.6045 13.4577 13.6555 13.4577 13.668C13.4577 13.6924 13.5948 13.8563 13.8626 14.152C14.0399 14.3478 14.0623 14.3698 14.229 14.5135C14.2869 14.5633 14.3815 14.6459 14.4394 14.697C14.4972 14.7481 14.5893 14.8178 14.6439 14.8519C14.6985 14.886 14.7432 14.9231 14.7432 14.9342C14.7432 14.9453 14.7762 14.9681 14.8164 14.9848C14.8567 15.0015 14.9172 15.0383 14.9508 15.0665C15.0964 15.1888 15.3432 15.3413 15.4441 15.3713C15.5042 15.3891 15.5826 15.4288 15.6182 15.4594C15.6539 15.4901 15.7267 15.5279 15.78 15.5434C15.8332 15.5589 15.9158 15.5982 15.9635 15.6307C16.0116 15.6634 16.1469 15.713 16.2674 15.7418C16.3868 15.7705 16.5213 15.8157 16.5663 15.8422C16.614 15.8704 16.7275 15.9009 16.8384 15.9153C16.9431 15.9289 17.0904 15.9615 17.1658 15.9875C17.5566 16.1228 19.0508 16.1236 19.4344 15.9888C19.5033 15.9645 19.6408 15.9327 19.74 15.9181C19.8392 15.9035 19.9782 15.8653 20.0489 15.8333C20.1196 15.8014 20.2486 15.7602 20.3358 15.7418C20.4228 15.7235 20.5543 15.6776 20.6279 15.6399C20.7015 15.6022 20.8053 15.5587 20.8585 15.5433C20.9118 15.5278 20.9839 15.4907 21.0187 15.4608C21.0535 15.4309 21.132 15.3898 21.1931 15.3695C21.2542 15.3492 21.3295 15.3057 21.3602 15.2729C21.391 15.24 21.4529 15.1978 21.4977 15.179C21.5425 15.1603 21.6003 15.1258 21.6262 15.1026C21.6521 15.0794 21.7101 15.0404 21.7551 15.0161C21.8305 14.9753 21.9135 14.9105 22.129 14.7244C22.174 14.6856 22.2845 14.5926 22.3745 14.5178C22.5138 14.402 22.7255 14.1897 22.9356 13.9551C22.9643 13.923 23.0051 13.8628 23.0261 13.8214C23.0472 13.78 23.0853 13.7349 23.1109 13.7213C23.1364 13.7076 23.1776 13.6566 23.2024 13.608C23.2272 13.5594 23.2657 13.5045 23.288 13.4861C23.3103 13.4677 23.3517 13.4026 23.3799 13.3416C23.4083 13.2806 23.4574 13.2047 23.4891 13.173C23.5208 13.1413 23.5609 13.0724 23.5783 13.0198C23.5956 12.9673 23.6342 12.896 23.6641 12.8612C23.694 12.8265 23.7339 12.7448 23.7529 12.6795C23.7719 12.6143 23.8088 12.5416 23.8348 12.5181C23.8609 12.4945 23.9043 12.4006 23.9311 12.3094C23.958 12.2183 24.0013 12.1089 24.0273 12.0663C24.0533 12.0237 24.0951 11.8825 24.1202 11.7525C24.1452 11.6225 24.1873 11.4738 24.2137 11.422C24.3831 11.0901 24.3811 9.1757 24.2109 8.65776C24.1735 8.54394 24.1307 8.38243 24.1159 8.29887C24.1011 8.21531 24.0632 8.10266 24.0318 8.04855C24.0003 7.99444 23.9579 7.87612 23.9375 7.78566C23.9144 7.68329 23.8759 7.59038 23.8356 7.53966C23.8 7.4949 23.7592 7.41164 23.7448 7.35467C23.7305 7.2977 23.6938 7.22127 23.6635 7.18481C23.6331 7.14834 23.5862 7.06847 23.5593 7.00723C23.5324 6.94605 23.4953 6.89013 23.4768 6.88306C23.4583 6.87593 23.4252 6.82083 23.4033 6.76059C23.3813 6.70035 23.3342 6.62479 23.2986 6.59266C23.2629 6.56052 23.2166 6.50068 23.1957 6.45966C23.1748 6.4187 23.1382 6.37137 23.1143 6.35449C23.0904 6.33766 23.052 6.28706 23.0288 6.24212C22.9588 6.10638 22.1778 5.33917 22.0538 5.28424C21.9951 5.2583 21.9415 5.22271 21.9348 5.20513C21.9183 5.16195 21.6643 4.9707 21.54 4.90782C21.4848 4.87984 21.4319 4.8439 21.4225 4.82789C21.4131 4.81188 21.3447 4.77454 21.2706 4.74492C21.1964 4.71535 21.1063 4.66697 21.0704 4.63746C21.0344 4.60795 20.9608 4.57219 20.9068 4.55805C20.8527 4.54385 20.769 4.50529 20.7208 4.47239C20.6725 4.43943 20.5542 4.39374 20.458 4.37083C20.3617 4.34787 20.2277 4.30235 20.1601 4.26969C20.0924 4.23697 19.9676 4.19939 19.8826 4.18613C19.7975 4.17287 19.6458 4.13518 19.5455 4.1024C19.2926 4.01989 18.5616 3.96835 17.957 3.9905ZM18.8477 4.04496C19.1073 4.06073 19.2728 4.08288 19.3808 4.11624C19.467 4.14283 19.6411 4.18438 19.7678 4.20851C19.8945 4.23264 20.0394 4.27343 20.0898 4.29914C20.1402 4.32491 20.2683 4.36809 20.3745 4.3952C20.4807 4.42231 20.6226 4.47554 20.6899 4.51352C20.7572 4.55151 20.8278 4.58259 20.8467 4.58259C20.8656 4.58259 20.9316 4.61461 20.9933 4.6537C21.0549 4.69285 21.1565 4.74421 21.2188 4.76794C21.2812 4.79166 21.3616 4.83402 21.3976 4.86213C21.4621 4.91256 21.6164 5.01528 21.7714 5.11082C21.8151 5.13781 21.8669 5.18269 21.8864 5.21044C21.9058 5.23826 21.9612 5.28115 22.0094 5.30575C22.1749 5.39018 22.8104 6.03182 23.0873 6.3941C23.1323 6.45294 23.2021 6.54012 23.2424 6.58781C23.2827 6.63549 23.3333 6.71653 23.3547 6.76795C23.3761 6.81937 23.4188 6.88774 23.4496 6.91987C23.4804 6.95201 23.5225 7.01892 23.5433 7.06858C23.564 7.11825 23.6063 7.19713 23.6371 7.24388C23.668 7.29063 23.7086 7.37255 23.7273 7.42596C23.7461 7.4793 23.7885 7.56391 23.8216 7.61393C23.8547 7.66395 23.8933 7.76732 23.9075 7.84369C23.9216 7.92 23.9591 8.02681 23.9909 8.08104C24.025 8.13935 24.0676 8.27789 24.0952 8.42041C24.1208 8.55282 24.1622 8.71058 24.1873 8.77095C24.3307 9.11651 24.3275 10.9989 24.1829 11.3349C24.1586 11.3914 24.1166 11.5492 24.0896 11.6855C24.0626 11.8218 24.0165 11.9754 23.9872 12.0268C23.9579 12.0783 23.9212 12.1757 23.9056 12.2433C23.89 12.3109 23.8513 12.4045 23.8196 12.4512C23.7879 12.4979 23.7412 12.5915 23.7159 12.6592C23.6906 12.7269 23.6549 12.7946 23.6366 12.8098C23.6183 12.825 23.5811 12.897 23.5541 12.9697C23.527 13.0424 23.4752 13.1335 23.4389 13.1721C23.4026 13.2107 23.3659 13.2657 23.3573 13.2943C23.3487 13.3229 23.3055 13.3897 23.2612 13.4426C23.217 13.4955 23.1808 13.548 23.1808 13.5592C23.1808 13.5704 23.1361 13.632 23.0815 13.6961C23.0268 13.7602 22.9348 13.8717 22.877 13.9438C22.7551 14.0959 22.2351 14.6095 22.2031 14.6095C22.1911 14.6095 22.1385 14.649 22.0861 14.6972C21.9112 14.8579 21.6455 15.0492 21.4483 15.1563C21.3888 15.1887 21.3344 15.2301 21.3273 15.2485C21.3203 15.2668 21.2409 15.31 21.1509 15.3444C21.0608 15.3789 20.9751 15.4216 20.9603 15.4393C20.9456 15.4572 20.8633 15.4948 20.7775 15.5229C20.6917 15.5512 20.5778 15.5996 20.5243 15.6304C20.4709 15.6613 20.3619 15.6971 20.2821 15.7099C20.2024 15.7228 20.0872 15.7586 20.0262 15.7895C19.9652 15.8204 19.8218 15.862 19.7074 15.8818C19.5931 15.9018 19.3734 15.9451 19.2191 15.9781C18.7364 16.0817 17.7893 16.0813 17.3854 15.9774C17.3141 15.959 17.1244 15.9215 16.9639 15.8939C16.7798 15.8623 16.6375 15.8241 16.5783 15.7905C16.5267 15.7612 16.4161 15.7247 16.3326 15.7093C16.249 15.694 16.1102 15.6454 16.0241 15.6012C15.938 15.5571 15.8527 15.5211 15.8346 15.5211C15.8164 15.5211 15.7606 15.493 15.7106 15.4587C15.6606 15.4244 15.5675 15.3763 15.5037 15.3517C15.44 15.3272 15.2996 15.2475 15.1917 15.1745C15.084 15.1016 14.9601 15.0202 14.9165 14.9937C14.8729 14.9671 14.8135 14.9237 14.7844 14.8973C14.7553 14.8708 14.7077 14.8368 14.6786 14.8218C14.6494 14.8067 14.5706 14.7469 14.5033 14.6888C14.436 14.6307 14.335 14.5444 14.2789 14.497C14.0427 14.2976 13.5686 13.7745 13.4948 13.6319C13.4771 13.5975 13.44 13.549 13.4125 13.5241C13.385 13.4992 13.3416 13.4362 13.3161 13.3839C13.2905 13.3317 13.2357 13.2396 13.1942 13.1792C13.0552 12.9769 12.994 12.8683 12.9443 12.7356C12.9172 12.663 12.8802 12.5915 12.8621 12.5765C12.844 12.5614 12.8117 12.4947 12.7904 12.4282C12.7691 12.3617 12.7218 12.2442 12.6852 12.1671C12.6487 12.0899 12.6027 11.9491 12.583 11.8542C12.5634 11.7592 12.5322 11.6584 12.5136 11.63C12.4648 11.5556 12.4354 11.4271 12.4067 11.1639C12.3928 11.0364 12.3601 10.8288 12.3339 10.7026C12.2684 10.3862 12.2785 9.67092 12.3549 9.2221C12.3834 9.05498 12.4224 8.82044 12.4416 8.70083C12.4609 8.58122 12.4925 8.45909 12.512 8.42941C12.5314 8.39967 12.5635 8.29782 12.5833 8.20298C12.6031 8.10821 12.6492 7.9779 12.6859 7.91351C12.7226 7.84906 12.7602 7.75429 12.7694 7.70286C12.7871 7.60411 12.8355 7.49251 12.886 7.43408C12.9026 7.41479 12.9367 7.34643 12.9616 7.28215C12.9865 7.21788 13.0742 7.06385 13.1564 6.9398C13.2385 6.81581 13.324 6.68434 13.3463 6.64764C13.3686 6.611 13.4398 6.5126 13.5045 6.42905C13.5691 6.34549 13.6403 6.24604 13.6626 6.208C13.7616 6.03913 14.3607 5.46404 14.5822 5.3252C14.6157 5.30423 14.6946 5.24463 14.7575 5.1928C14.8204 5.14097 14.9075 5.06951 14.9511 5.03398C14.9948 4.99845 15.0735 4.95013 15.126 4.92664C15.1785 4.90309 15.2385 4.86856 15.2592 4.8498C15.2799 4.83104 15.359 4.79125 15.4349 4.76128C15.5108 4.73136 15.6139 4.67889 15.6639 4.6447C15.7139 4.61052 15.7715 4.58259 15.792 4.58259C15.8124 4.58259 15.8891 4.54555 15.9625 4.50026C16.0416 4.45141 16.1511 4.408 16.2318 4.39345C16.3065 4.37995 16.4307 4.33881 16.5079 4.30194C16.5951 4.26022 16.7218 4.22499 16.843 4.20868C16.9502 4.19425 17.1027 4.16311 17.1819 4.13944C17.5338 4.03432 18.1231 4.0009 18.8477 4.04496ZM7.8445 12.7158C7.81031 12.7261 7.70513 12.7418 7.61077 12.7505C7.30049 12.7795 7.14372 12.8108 7.03357 12.8656C6.97386 12.8954 6.87242 12.9325 6.80814 12.948C6.74387 12.9636 6.65447 13.0013 6.60947 13.0319C6.56448 13.0624 6.46813 13.1095 6.39538 13.1365C6.32263 13.1635 6.24971 13.2017 6.23329 13.2215C6.21681 13.2413 6.15405 13.2825 6.09381 13.3131C6.03357 13.3436 5.97858 13.3833 5.97169 13.4014C5.96473 13.4194 5.90297 13.4662 5.83437 13.5053C5.60882 13.6341 4.99108 14.277 4.90425 14.4733C4.87895 14.5305 4.83776 14.5959 4.8128 14.6185C4.7878 14.6411 4.74397 14.7141 4.7154 14.7807C4.68683 14.8472 4.64055 14.929 4.61256 14.9624C4.58463 14.9958 4.54782 15.0852 4.53087 15.1611C4.51392 15.2369 4.47507 15.3288 4.44457 15.3651C4.41401 15.4015 4.389 15.4383 4.389 15.4469C4.3887 15.4993 4.30848 15.9146 4.26617 16.082C4.1891 16.3874 4.19015 17.1639 4.26798 17.4116C4.29784 17.5066 4.33658 17.6728 4.35405 17.781C4.37158 17.8892 4.40618 18.012 4.43089 18.0539C4.45561 18.0958 4.49885 18.1993 4.52695 18.2837C4.55506 18.3682 4.59818 18.4555 4.62284 18.4778C4.64744 18.5001 4.68507 18.5723 4.70652 18.6383C4.7279 18.7042 4.76921 18.7845 4.79837 18.8166C4.82753 18.8488 4.8734 18.9191 4.90034 18.9728C4.92727 19.0266 4.96087 19.0777 4.97495 19.0864C4.98909 19.0951 5.0359 19.1574 5.07902 19.2248C5.1617 19.354 5.56997 19.7767 5.71663 19.8848C5.7642 19.92 5.84138 19.9821 5.88813 20.023C5.93488 20.0638 6.004 20.1041 6.04169 20.1123C6.07944 20.1206 6.14213 20.1565 6.18111 20.1921C6.22002 20.2277 6.30341 20.2759 6.3664 20.2994C6.42939 20.3229 6.50196 20.3604 6.52767 20.3828C6.59738 20.4435 6.6564 20.4688 6.77308 20.4879C6.83093 20.4974 6.93629 20.5344 7.00716 20.57C7.08359 20.6085 7.21208 20.646 7.3227 20.6622C7.42536 20.6772 7.59692 20.7098 7.70402 20.7347C8.07407 20.8208 8.52669 20.8156 8.90001 20.7212C8.97072 20.7033 9.12731 20.6761 9.24798 20.6607C9.40118 20.6412 9.50344 20.6137 9.58688 20.5695C9.65262 20.5347 9.74845 20.4927 9.79987 20.4761C9.85129 20.4596 9.93543 20.4168 9.98685 20.3809C10.0383 20.3449 10.1246 20.3041 10.1786 20.2901C10.2327 20.276 10.3063 20.2399 10.3422 20.2099C10.3782 20.1799 10.451 20.1332 10.504 20.1064C10.5571 20.0794 10.6065 20.0417 10.6139 20.0224C10.6213 20.0032 10.6723 19.9645 10.7272 19.9364C10.8481 19.8748 11.4814 19.2495 11.5062 19.1672C11.5159 19.1351 11.5646 19.0643 11.6143 19.01C11.664 18.9557 11.7048 18.8966 11.7048 18.8789C11.7048 18.8611 11.7327 18.8057 11.7669 18.7556C11.801 18.7056 11.8519 18.6069 11.88 18.5362C11.9082 18.4655 11.9574 18.3691 11.9896 18.3221C12.0217 18.275 12.0598 18.1779 12.0742 18.1062C12.0886 18.0346 12.1269 17.9198 12.1594 17.8512C12.2002 17.765 12.226 17.6546 12.2427 17.4944C12.2668 17.2636 12.3136 16.7694 12.3155 16.7248C12.3245 16.5147 12.2133 15.7113 12.1615 15.6121C12.1283 15.5487 12.0858 15.4304 12.067 15.3492C12.0313 15.1954 11.8544 14.8234 11.7772 14.7396C11.7526 14.7131 11.7196 14.6473 11.7037 14.5934C11.6878 14.5395 11.6395 14.4612 11.5963 14.4194C11.5531 14.3775 11.5178 14.3333 11.5178 14.3212C11.5178 14.2654 11.0026 13.7297 10.806 13.5811C10.7465 13.5361 10.6588 13.4665 10.6111 13.4265C10.5634 13.3864 10.4783 13.3302 10.4218 13.3016C10.3654 13.273 10.2993 13.2311 10.2751 13.2085C10.2508 13.1859 10.1866 13.1546 10.1323 13.1389C10.078 13.1232 9.99094 13.0804 9.93882 13.0437C9.8867 13.0071 9.77906 12.9602 9.69971 12.9397C9.6203 12.9191 9.52097 12.882 9.47896 12.8572C9.29642 12.7496 8.08079 12.6444 7.8445 12.7158ZM9.00946 12.7964C9.1948 12.8187 9.32738 12.8476 9.38932 12.8792C9.44162 12.9058 9.55013 12.9442 9.63047 12.9643C9.71076 12.9844 9.81459 13.0267 9.86116 13.0584C9.90773 13.09 10.0024 13.1373 10.0715 13.1635C10.1406 13.1896 10.213 13.2248 10.2323 13.2415C10.2515 13.2582 10.3248 13.3008 10.3951 13.336C10.4654 13.3712 10.5512 13.4277 10.5857 13.4614C10.6203 13.4951 10.6981 13.5595 10.7587 13.6045C10.9062 13.7139 11.2962 14.1039 11.4126 14.2583C11.464 14.3266 11.5317 14.4096 11.5629 14.4428C11.5942 14.4761 11.6397 14.5556 11.664 14.6195C11.6882 14.6835 11.7389 14.7708 11.7766 14.8137C11.8142 14.8566 11.845 14.9062 11.845 14.924C11.845 14.9417 11.88 15.0229 11.9229 15.1043C11.9658 15.1857 12.0189 15.3246 12.0408 15.4129C12.0627 15.5012 12.1007 15.6128 12.1252 15.6607C12.2482 15.9018 12.2865 16.7779 12.205 17.4844C12.1969 17.5551 12.1603 17.6918 12.1238 17.7882C12.0873 17.8847 12.0456 18.0241 12.0313 18.0982C12.0158 18.1783 11.9813 18.2613 11.9461 18.3031C11.9135 18.3417 11.8727 18.4205 11.8553 18.4783C11.838 18.536 11.7968 18.6185 11.7639 18.6617C11.731 18.7048 11.6877 18.7881 11.6677 18.8469C11.6477 18.9056 11.6059 18.9703 11.5749 18.9907C11.5438 19.0111 11.4967 19.0702 11.4701 19.1222C11.4157 19.2289 10.9698 19.6973 10.8041 19.8217C10.7442 19.8667 10.6515 19.9408 10.5981 19.9865C10.5448 20.032 10.4563 20.0889 10.4016 20.1127C10.3468 20.1366 10.2907 20.1699 10.2767 20.1867C10.2628 20.2035 10.1959 20.238 10.1282 20.2634C10.0605 20.2887 9.95419 20.3417 9.89201 20.3811C9.8299 20.4205 9.7627 20.4527 9.74272 20.4527C9.72274 20.4527 9.63965 20.4844 9.55807 20.5229C9.41527 20.5905 9.09202 20.653 8.6546 20.6976C8.57747 20.7054 8.46165 20.7221 8.39726 20.7347C8.21285 20.7707 7.22739 20.6279 7.08862 20.5451C7.05005 20.5221 6.92957 20.4812 6.82094 20.4543C6.71226 20.4273 6.60182 20.3851 6.57553 20.3606C6.54917 20.3361 6.46982 20.2934 6.39912 20.2658C6.32842 20.2381 6.24895 20.1954 6.22248 20.1707C6.19601 20.146 6.12034 20.0968 6.05425 20.0614C5.79733 19.9236 5.21131 19.3821 5.11507 19.1935C5.09129 19.147 5.04858 19.0878 5.02006 19.0621C4.99161 19.0364 4.94398 18.9673 4.91424 18.9087C4.8845 18.85 4.84412 18.7887 4.82455 18.7725C4.80497 18.7562 4.77231 18.6928 4.75192 18.6315C4.73158 18.5702 4.68928 18.4853 4.6579 18.4427C4.62652 18.4002 4.57785 18.296 4.54974 18.2112C4.52164 18.1264 4.47887 18.0189 4.45467 17.9723C4.43054 17.9257 4.40027 17.8206 4.38748 17.7386C4.37468 17.6567 4.33688 17.4581 4.30351 17.2974C4.2352 16.9684 4.23538 16.5781 4.30404 16.2106C4.32326 16.1077 4.35581 15.9186 4.37638 15.7904C4.39975 15.6441 4.43901 15.5047 4.48161 15.4164C4.51895 15.339 4.5567 15.2359 4.56552 15.1872C4.57434 15.1386 4.60695 15.0614 4.63798 15.0156C4.669 14.9699 4.72533 14.8711 4.76325 14.7961C4.80112 14.7211 4.84372 14.6525 4.85791 14.6437C4.87211 14.635 4.90279 14.5834 4.92605 14.5291C4.98757 14.3856 5.43996 13.8823 5.68531 13.6844C5.80153 13.5907 5.93342 13.4832 5.97841 13.4456C6.0234 13.4079 6.09703 13.3584 6.14202 13.3356C6.18701 13.3128 6.24836 13.2749 6.27834 13.2516C6.30832 13.2282 6.38831 13.1884 6.45609 13.163C6.52387 13.1376 6.61795 13.0907 6.6651 13.0586C6.71231 13.0266 6.80335 12.9892 6.86739 12.9754C6.93149 12.9617 7.04836 12.9234 7.12707 12.8902C7.21506 12.8532 7.35232 12.821 7.48327 12.8068C7.60042 12.7941 7.75416 12.7744 7.82486 12.763C7.99642 12.7353 8.65553 12.7539 9.00946 12.7964ZM17.1156 18.7604C17.0384 18.778 16.927 18.7982 16.868 18.8054C16.8024 18.8133 16.7118 18.8499 16.6351 18.8993C16.566 18.9439 16.4954 18.9803 16.4783 18.9803C16.4429 18.9803 16.3035 19.0481 16.2858 19.0739C16.2794 19.0833 16.2193 19.1186 16.1523 19.1525C16.0852 19.1863 16.0191 19.235 16.0054 19.2607C15.9916 19.2864 15.9645 19.3075 15.945 19.3075C15.8952 19.3075 15.5499 19.6599 15.4944 19.7675C15.4691 19.8165 15.4261 19.8701 15.3991 19.8865C15.372 19.9028 15.3234 19.9761 15.291 20.0493C15.2587 20.1225 15.2166 20.1996 15.1975 20.2207C15.1784 20.2417 15.1423 20.3331 15.1172 20.4237C15.0921 20.5143 15.0509 20.6237 15.0256 20.6667C14.8932 20.8925 14.9087 21.9865 15.0476 22.2174C15.0708 22.256 15.106 22.3502 15.1259 22.4268C15.1458 22.5033 15.1837 22.5927 15.2102 22.6254C15.2367 22.6581 15.2779 22.7269 15.3018 22.7783C15.3257 22.8298 15.3781 22.9127 15.4182 22.9627C15.4583 23.0127 15.4912 23.0634 15.4912 23.0755C15.4912 23.0876 15.5306 23.1379 15.5788 23.1873C15.627 23.2366 15.6891 23.3015 15.7168 23.3315C15.8441 23.4695 16.1381 23.6905 16.2743 23.7508C16.3273 23.7742 16.3895 23.8144 16.4128 23.8401C16.457 23.889 16.5414 23.9213 16.6891 23.9461C16.7373 23.9542 16.853 23.9939 16.9462 24.0344C17.2515 24.167 18.1102 24.1564 18.4011 24.0163C18.4653 23.9854 18.5776 23.9487 18.6505 23.9347C18.7234 23.9207 18.7965 23.8933 18.8127 23.8737C18.829 23.8541 18.9015 23.8082 18.9737 23.7717C19.0459 23.7352 19.1194 23.6881 19.137 23.6669C19.1546 23.6457 19.2 23.6123 19.2379 23.5928C19.2949 23.5633 19.4714 23.393 19.8202 23.031C19.8694 22.9801 19.9876 22.7818 20.0616 22.6264C20.083 22.5814 20.1355 22.471 20.1782 22.381C20.3697 21.9779 20.3774 20.8657 20.1914 20.4912C20.1521 20.4122 20.1085 20.3017 20.0945 20.2457C20.0805 20.1896 20.0449 20.1212 20.0154 20.0937C19.986 20.0662 19.9402 20.0017 19.9138 19.9502C19.8002 19.7295 19.313 19.2374 19.1261 19.1548C19.0586 19.1249 18.9974 19.085 18.9901 19.066C18.9829 19.0471 18.9157 19.0087 18.8409 18.9807C18.7661 18.9528 18.6696 18.9082 18.6264 18.8815C18.4178 18.7528 17.4789 18.6775 17.1156 18.7604ZM18.2948 18.8288C18.4035 18.8498 18.5349 18.8913 18.5869 18.921C18.639 18.9507 18.7355 18.9924 18.8015 19.0136C18.8675 19.0349 18.9405 19.0733 18.9637 19.0989C18.9869 19.1246 19.0486 19.1651 19.1008 19.189C19.2714 19.267 19.7797 19.7831 19.885 19.9853C19.9018 20.0174 19.9441 20.0767 19.9792 20.1172C20.0144 20.1576 20.0562 20.2468 20.0725 20.3158C20.0888 20.3847 20.1316 20.5001 20.1677 20.5724C20.3221 20.8811 20.3188 21.9758 20.1624 22.2822C20.1354 22.3353 20.0933 22.4366 20.069 22.5073C20.0446 22.578 20.0044 22.6576 19.9795 22.684C19.9546 22.7105 19.9126 22.7811 19.8862 22.8409C19.836 22.9542 19.3184 23.5058 19.2104 23.5611C19.1798 23.5767 19.109 23.6244 19.0531 23.6672C18.9971 23.7099 18.9274 23.7523 18.8982 23.7615C18.8691 23.7706 18.8159 23.8025 18.7802 23.8324C18.7445 23.8623 18.6761 23.8929 18.6283 23.9006C18.5805 23.9082 18.4414 23.9482 18.3193 23.9892C18.0206 24.0896 17.2562 24.1031 17.0407 24.0118C16.9739 23.9834 16.8339 23.9385 16.7297 23.9119C16.6169 23.8831 16.5014 23.8354 16.4445 23.7942C16.3919 23.7561 16.3389 23.7249 16.3266 23.7249C16.2956 23.7249 15.9734 23.5076 15.8862 23.4279C15.6691 23.2294 15.5582 23.1094 15.5166 23.0278C15.491 22.9776 15.4432 22.9047 15.4105 22.8658C15.3777 22.8268 15.3509 22.7851 15.3509 22.7731C15.3509 22.7611 15.3202 22.7048 15.2827 22.648C15.2451 22.5911 15.1646 22.4026 15.1038 22.2291L14.9933 21.9135L14.9828 21.5099C14.9716 21.0807 14.9949 20.864 15.0698 20.6995C15.0935 20.6473 15.1305 20.5368 15.152 20.4539C15.1735 20.371 15.2156 20.274 15.2456 20.2383C15.2756 20.2027 15.3131 20.1338 15.3288 20.0852C15.3445 20.0367 15.398 19.9525 15.4476 19.8982C15.4973 19.8438 15.5379 19.7901 15.5379 19.7788C15.5379 19.7166 16.0686 19.234 16.195 19.1811C16.2386 19.163 16.3024 19.1259 16.3369 19.0988C16.3714 19.0716 16.4447 19.0335 16.4997 19.0141C16.5548 18.9946 16.6475 18.9504 16.7058 18.9157C16.9371 18.7781 17.791 18.7315 18.2948 18.8288Z" fill="#D0021B"/>
<path fillRule="evenodd" clipRule="evenodd" d="M2.72852 13.8845V27.394H14.4149H26.1014V13.8845V0.375H14.4149H2.72852V13.8845ZM18.9843 3.96372C19.4899 3.9802 19.6325 4.00194 19.7202 4.07574C19.7716 4.11892 19.8262 4.13481 19.9676 4.14761C20.1639 4.16537 20.2884 4.20616 20.3202 4.26301C20.3327 4.28533 20.4021 4.30847 20.5037 4.32419C20.6796 4.35136 20.7957 4.38934 20.7957 4.41967C20.7957 4.45835 20.8711 4.51199 20.9254 4.51199C21.015 4.51199 21.1666 4.58234 21.1821 4.63096C21.1898 4.65544 21.2244 4.68144 21.2589 4.68869C21.2934 4.69594 21.3442 4.70645 21.3718 4.71195C21.3994 4.7175 21.4661 4.75893 21.5201 4.80398C21.574 4.84909 21.6338 4.88596 21.6529 4.88596C21.6719 4.88596 21.7194 4.9178 21.7583 4.95678C21.7972 4.99569 21.8594 5.0432 21.8964 5.06236C21.9334 5.08153 21.9703 5.12325 21.9783 5.15515C21.9863 5.18706 22.0029 5.21318 22.0151 5.21318C22.0819 5.21318 22.2652 5.31654 22.2882 5.36715C22.3026 5.3987 22.3408 5.43452 22.3731 5.44679C22.4054 5.45906 22.4519 5.50212 22.4764 5.54244C22.5009 5.58276 22.5456 5.62799 22.5757 5.643C22.6058 5.65802 22.6445 5.69951 22.6616 5.73521C22.6787 5.77091 22.7184 5.80989 22.7498 5.82181C22.7812 5.83373 22.8285 5.88 22.8548 5.92465C22.8811 5.96929 22.9229 6.01224 22.9477 6.02007C22.9725 6.02795 22.9928 6.04326 22.9928 6.05419C22.9928 6.06506 23.0506 6.15037 23.1213 6.24368C23.192 6.337 23.2499 6.43289 23.2499 6.45673C23.2499 6.48063 23.2683 6.50669 23.2908 6.51463C23.3564 6.53795 23.4135 6.59621 23.4135 6.63997C23.4135 6.66229 23.4551 6.73101 23.506 6.7926C23.557 6.85424 23.6056 6.93686 23.6141 6.97631C23.6225 7.01569 23.6598 7.07424 23.697 7.10638C23.7466 7.14932 23.7707 7.19829 23.7877 7.29126C23.8026 7.37177 23.8279 7.42945 23.8575 7.45019C23.9234 7.49635 23.9457 7.5469 23.9718 7.70899C23.9863 7.79915 24.0127 7.86921 24.0439 7.90041C24.1103 7.96679 24.1338 8.03556 24.1525 8.21863C24.1637 8.32749 24.1837 8.39147 24.2202 8.43512C24.2888 8.51693 24.318 8.66663 24.3373 9.03464C24.3461 9.20204 24.3731 9.41655 24.3975 9.51232C24.4626 9.76737 24.4623 10.4895 24.3971 10.6385C24.3642 10.714 24.3483 10.8237 24.3366 11.0564C24.3189 11.4128 24.2945 11.5369 24.2281 11.6086C24.1956 11.6436 24.173 11.7233 24.1512 11.8798C24.123 12.082 24.0687 12.225 24.0201 12.225C24.0097 12.225 23.9887 12.285 23.9734 12.3583C23.9377 12.5305 23.9073 12.5948 23.8541 12.6118C23.8303 12.6193 23.8051 12.6537 23.7981 12.6882C23.7637 12.857 23.7349 12.9274 23.684 12.9674C23.6534 12.9915 23.6172 13.0517 23.6036 13.1012C23.5899 13.1506 23.548 13.2235 23.5105 13.2632C23.4731 13.3028 23.4298 13.3749 23.4143 13.4233C23.3963 13.4797 23.3624 13.5237 23.32 13.5456C23.2773 13.5677 23.2481 13.6058 23.2377 13.6528C23.2279 13.6975 23.1966 13.7402 23.157 13.7629C23.1215 13.7834 23.0792 13.8366 23.063 13.8813C23.0468 13.926 22.9929 14.0049 22.9432 14.0566C22.8934 14.1084 22.8467 14.1699 22.8393 14.1932C22.8319 14.2165 22.7946 14.2517 22.7563 14.2716C22.7181 14.2913 22.6748 14.334 22.66 14.3665C22.6452 14.399 22.6037 14.4408 22.5677 14.4594C22.5318 14.4779 22.4849 14.5199 22.4635 14.5526C22.442 14.5852 22.3753 14.6369 22.315 14.6675C22.2547 14.698 22.1872 14.7508 22.165 14.7847C22.1427 14.8187 22.0952 14.8566 22.0594 14.8691C22.0235 14.8816 21.9826 14.9171 21.9686 14.948C21.9519 14.9846 21.9108 15.0127 21.8499 15.0291C21.7899 15.0453 21.7514 15.0714 21.7414 15.1026C21.7261 15.151 21.5668 15.2387 21.4923 15.2396C21.4706 15.2399 21.439 15.2686 21.4222 15.3034C21.4009 15.3477 21.3613 15.3755 21.2908 15.3959C21.2353 15.4119 21.1546 15.456 21.1115 15.4938C21.067 15.533 20.9925 15.5695 20.9386 15.5786C20.8866 15.5874 20.8064 15.6245 20.7604 15.6611C20.6848 15.7211 20.5103 15.7777 20.4005 15.7777C20.3773 15.7777 20.2903 15.8131 20.2073 15.8564C20.0847 15.9203 20.0182 15.9383 19.8526 15.9521C19.6846 15.966 19.6368 15.9792 19.58 16.027C19.4756 16.1148 19.316 16.1273 18.2948 16.1276C17.2951 16.1279 17.1042 16.1126 17.0093 16.0245C16.9617 15.9802 16.9141 15.9671 16.7522 15.9539C16.5588 15.9381 16.3549 15.8734 16.3549 15.8279C16.3549 15.8154 16.2786 15.7932 16.1854 15.7783C15.9708 15.7442 15.8926 15.714 15.875 15.6584C15.8673 15.6341 15.8327 15.6078 15.7982 15.6001C15.6072 15.5572 15.5626 15.538 15.5056 15.474C15.4672 15.431 15.4201 15.4037 15.384 15.4037C15.2994 15.4037 15.1747 15.3466 15.1348 15.2898C15.1161 15.263 15.0623 15.225 15.0154 15.2054C14.9685 15.1858 14.9137 15.1448 14.8937 15.1142C14.8736 15.0836 14.8282 15.0528 14.7926 15.0457C14.757 15.0386 14.6864 14.9944 14.6357 14.9476C14.585 14.9007 14.5172 14.8485 14.4851 14.8314C14.4529 14.8145 14.4027 14.768 14.3733 14.7282C14.344 14.6884 14.3044 14.6558 14.2853 14.6558C14.2662 14.6558 14.2304 14.6225 14.2056 14.5818C14.1809 14.5412 14.1284 14.4943 14.0889 14.4777C14.0495 14.4611 14.007 14.4206 13.9945 14.3877C13.982 14.3547 13.9447 14.3175 13.9117 14.3049C13.8774 14.2919 13.8413 14.2524 13.8276 14.2131C13.8143 14.175 13.7676 14.1228 13.7236 14.0968C13.6796 14.0709 13.6436 14.0341 13.6436 14.015C13.6436 13.996 13.6072 13.9526 13.5628 13.9187C13.5182 13.8847 13.4754 13.8366 13.4675 13.8117C13.4596 13.7867 13.4113 13.7181 13.3602 13.6591C13.3092 13.6001 13.2614 13.5219 13.2541 13.4853C13.2468 13.4488 13.2163 13.4028 13.1863 13.3832C13.1564 13.3635 13.1118 13.3026 13.0873 13.2478C13.0628 13.1931 13.0199 13.128 12.9921 13.1033C12.9642 13.0785 12.9244 12.9996 12.9037 12.928C12.883 12.8563 12.836 12.7632 12.7993 12.7211C12.7611 12.6774 12.726 12.6038 12.7172 12.5494C12.7089 12.4972 12.6776 12.4253 12.6476 12.3897C12.5764 12.3051 12.5529 12.2398 12.5335 12.0716C12.5221 11.9731 12.4971 11.9037 12.4471 11.8322C12.3842 11.7423 12.3737 11.7012 12.348 11.4465C12.3268 11.2353 12.3057 11.1359 12.2664 11.0625C12.1243 10.7967 12.1313 9.19018 12.2754 8.9762C12.3208 8.90883 12.3334 8.8511 12.3469 8.64898C12.364 8.39235 12.3989 8.27087 12.4759 8.19906C12.5012 8.17551 12.5217 8.12578 12.5217 8.08827C12.5217 7.95534 12.5719 7.78711 12.6285 7.73055C12.6626 7.69648 12.6942 7.62724 12.7073 7.55782C12.7365 7.40403 12.7765 7.32065 12.8291 7.30394C12.8528 7.2964 12.878 7.26204 12.885 7.22751C12.9199 7.0563 12.9477 6.99255 13.0123 6.93505C13.051 6.90052 13.0827 6.85605 13.0827 6.83625C13.0827 6.81644 13.1189 6.76297 13.1631 6.71739C13.2073 6.67188 13.2503 6.60398 13.2584 6.56658C13.2667 6.52918 13.314 6.45638 13.3636 6.40478C13.4132 6.35313 13.4604 6.28991 13.4686 6.26431C13.4767 6.23866 13.5124 6.20267 13.548 6.18426C13.5875 6.16381 13.6213 6.12069 13.6349 6.07347C13.6482 6.02667 13.681 5.9846 13.7179 5.96689C13.7514 5.95077 13.7856 5.91062 13.7939 5.87767C13.8036 5.83916 13.8368 5.80615 13.8871 5.78511C13.9379 5.7639 13.9707 5.73106 13.9806 5.69162C13.9907 5.65159 14.0236 5.61928 14.0768 5.59696C14.1214 5.57838 14.1578 5.55097 14.1578 5.53607C14.1578 5.49266 14.2315 5.42353 14.2777 5.42353C14.3011 5.42353 14.3361 5.39286 14.3555 5.35534C14.3772 5.31339 14.4219 5.27687 14.4718 5.26045C14.5164 5.24572 14.5592 5.21399 14.5668 5.18998C14.5745 5.16591 14.6249 5.11992 14.6789 5.08772C14.733 5.05553 14.8064 5.00159 14.842 4.96788C14.8775 4.93416 14.9406 4.89507 14.9822 4.88099C15.0237 4.86691 15.084 4.82536 15.1161 4.78867C15.1585 4.74029 15.2089 4.71557 15.2994 4.69897C15.3881 4.68267 15.4424 4.65655 15.487 4.60876C15.5289 4.56394 15.5898 4.53291 15.6693 4.51585C15.7466 4.49925 15.8127 4.46624 15.8568 4.42212C15.9024 4.3766 15.9593 4.34885 16.0289 4.33827C16.2179 4.30958 16.2614 4.29813 16.2614 4.27698C16.2614 4.23134 16.4249 4.17601 16.644 4.14749C16.8068 4.12634 16.8894 4.10431 16.9245 4.07282C16.9519 4.04822 16.9953 4.01988 17.021 4.00983C17.0895 3.98295 18.1077 3.93036 18.3533 3.94094C18.469 3.94596 18.7529 3.95619 18.9843 3.96372ZM8.67655 12.5988C8.75351 12.6114 8.84291 12.6413 8.87528 12.6652C8.91975 12.6981 8.99676 12.7129 9.1907 12.7259C9.45452 12.7436 9.57968 12.7786 9.6505 12.8546C9.67416 12.88 9.74189 12.9051 9.81317 12.9149C9.90625 12.9277 9.95405 12.9499 10.0141 13.0083C10.0701 13.0627 10.1243 13.0895 10.2009 13.101C10.2762 13.1123 10.3304 13.1387 10.3798 13.1882C10.4189 13.2271 10.4882 13.272 10.5338 13.2877C10.5795 13.3033 10.6292 13.3406 10.6442 13.3703C10.6593 13.4 10.7041 13.4381 10.7439 13.4548C10.928 13.5322 11.5076 14.1116 11.5646 14.2752C11.5773 14.3115 11.6111 14.3515 11.6398 14.3641C11.6727 14.3785 11.705 14.427 11.7271 14.4948C11.7463 14.554 11.7947 14.6394 11.8346 14.6844C11.8783 14.7338 11.9131 14.8041 11.9223 14.8614C11.9324 14.9246 11.9519 14.9611 11.9807 14.9702C12.0392 14.9888 12.0726 15.0702 12.1036 15.27C12.1222 15.3899 12.1427 15.4473 12.1753 15.4701C12.2445 15.5186 12.2643 15.5954 12.2884 15.9105C12.3005 16.0696 12.3217 16.2207 12.3355 16.2466C12.4313 16.4255 12.4427 17.0031 12.3539 17.1762C12.3228 17.2366 12.303 17.3505 12.2868 17.5619C12.2644 17.8531 12.2359 17.958 12.1629 18.0186C12.1438 18.0345 12.1155 18.1228 12.1 18.2148C12.077 18.3508 12.0585 18.3946 12.0015 18.4479C11.953 18.4932 11.9249 18.5479 11.9111 18.624C11.8973 18.7002 11.8697 18.7538 11.8221 18.7971C11.7841 18.8316 11.7415 18.9026 11.7275 18.9547C11.7094 19.0218 11.6867 19.0533 11.6495 19.0626C11.6118 19.0721 11.5847 19.1102 11.554 19.1973C11.5304 19.264 11.4729 19.3573 11.4262 19.4045C11.3796 19.4517 11.3242 19.5081 11.3031 19.5299C11.2659 19.5685 11.1869 19.6464 11.1222 19.7085C11.1045 19.7255 11.0505 19.778 11.0022 19.8252C10.9539 19.8724 10.8709 19.9332 10.8178 19.9603C10.7646 19.9874 10.6941 20.0399 10.6611 20.077C10.6281 20.1141 10.5741 20.1512 10.5411 20.1594C10.5082 20.1677 10.4535 20.204 10.4198 20.2402C10.3783 20.2846 10.3173 20.3148 10.2322 20.333C10.1531 20.35 10.0935 20.3781 10.0721 20.4086C10.0324 20.4654 9.90754 20.5224 9.82311 20.5224C9.78723 20.5224 9.74002 20.5494 9.70274 20.5913C9.63285 20.6697 9.59955 20.6793 9.30598 20.7062C9.14085 20.7213 9.0774 20.7376 9.02048 20.7797C8.84916 20.9064 7.68478 20.9051 7.51293 20.778C7.46537 20.7428 7.37638 20.7197 7.19892 20.6965C6.99453 20.6696 6.94065 20.6539 6.89081 20.6068C6.85189 20.5699 6.78177 20.5407 6.69348 20.5246C6.56336 20.5009 6.39805 20.4222 6.39805 20.384C6.39805 20.3741 6.35335 20.3529 6.29872 20.3368C6.18916 20.3044 6.11758 20.2516 6.11758 20.2032C6.11758 20.1859 6.1004 20.1718 6.07936 20.1718C5.98055 20.1718 5.85078 20.1119 5.81572 20.0501C5.79532 20.0143 5.74507 19.9738 5.70405 19.9601C5.65783 19.9448 5.6181 19.9097 5.59958 19.8678C5.58316 19.8307 5.54541 19.7942 5.51567 19.7867C5.48598 19.7793 5.44198 19.7407 5.41785 19.7011C5.39372 19.6614 5.34937 19.6169 5.31922 19.6021C5.28913 19.5874 5.24974 19.5419 5.23175 19.5012C5.21369 19.4604 5.17565 19.4213 5.14708 19.4141C5.11669 19.4065 5.08257 19.3694 5.06486 19.3248C5.04827 19.2829 5.00462 19.2239 4.96787 19.1938C4.93111 19.1637 4.88495 19.1006 4.86538 19.0536C4.84574 19.0065 4.79947 18.9365 4.76254 18.898C4.72561 18.8594 4.68827 18.7891 4.67962 18.7417C4.67092 18.6944 4.64275 18.6365 4.61698 18.6132C4.55814 18.5599 4.51584 18.4764 4.49661 18.3756C4.48843 18.3325 4.45565 18.2663 4.42381 18.2285C4.35532 18.1471 4.3278 18.0491 4.30665 17.8111C4.29385 17.6676 4.28024 17.6244 4.23121 17.5729C4.088 17.4222 4.09793 16.0454 4.24366 15.8483C4.27568 15.805 4.2966 15.7203 4.31284 15.5682C4.33388 15.3712 4.34282 15.344 4.40552 15.2853C4.45875 15.2356 4.47879 15.1914 4.49147 15.0961C4.50731 14.9767 4.57544 14.8309 4.62283 14.8151C4.63533 14.811 4.6642 14.755 4.68698 14.6908C4.71112 14.6229 4.74857 14.565 4.77644 14.5526C4.80601 14.5393 4.83499 14.4918 4.85182 14.4288C4.87029 14.3599 4.91347 14.2931 4.98417 14.2245C5.0419 14.1683 5.08917 14.1112 5.08917 14.0975C5.08917 14.0839 5.1195 14.057 5.15654 14.0378C5.19388 14.0185 5.23075 13.9759 5.23917 13.9422C5.2491 13.9027 5.28188 13.8699 5.33266 13.8487C5.38344 13.8275 5.41627 13.7947 5.42615 13.7552C5.43614 13.7156 5.46898 13.6829 5.52069 13.6613C5.56428 13.6431 5.60676 13.6068 5.61506 13.5807C5.62336 13.5545 5.67408 13.5109 5.72778 13.4837C5.78148 13.4565 5.86369 13.3999 5.91043 13.358C5.95718 13.316 6.02584 13.275 6.06294 13.2669C6.10081 13.2585 6.14048 13.2292 6.15322 13.2001C6.16865 13.165 6.22129 13.1332 6.31625 13.1015C6.39338 13.0758 6.484 13.0268 6.5176 12.9925C6.56347 12.9459 6.61238 12.9262 6.71323 12.9135C6.81239 12.9011 6.86048 12.8821 6.89618 12.8411C6.95877 12.7691 7.05307 12.7462 7.36802 12.7266C7.58358 12.7132 7.64774 12.6997 7.76501 12.6432C7.91956 12.5685 8.36078 12.5471 8.67655 12.5988ZM18.0374 18.6311C18.095 18.6444 18.16 18.6713 18.1816 18.6909C18.2033 18.7105 18.2981 18.7361 18.3923 18.7477C18.6464 18.7792 18.6811 18.7897 18.7409 18.8533C18.7709 18.8853 18.842 18.9232 18.8989 18.9375C18.9728 18.9561 19.0131 18.9825 19.0401 19.0299C19.0615 19.0675 19.0981 19.0966 19.1246 19.097C19.2014 19.0981 19.37 19.1852 19.37 19.2237C19.37 19.2435 19.4112 19.2857 19.4616 19.3175C19.512 19.3493 19.5601 19.3969 19.5685 19.4232C19.5768 19.4496 19.6142 19.4869 19.6514 19.5062C19.6887 19.5254 19.7314 19.5647 19.7464 19.5935C19.7614 19.6224 19.8086 19.6785 19.8515 19.7184C19.9002 19.7638 19.9401 19.8315 19.9583 19.8996C19.9743 19.9593 19.9993 20.0082 20.014 20.0082C20.0629 20.0082 20.115 20.0897 20.1413 20.2072C20.1556 20.2713 20.1918 20.35 20.2218 20.3821C20.2913 20.4567 20.299 20.4852 20.3258 20.7678C20.3393 20.9097 20.3648 21.0337 20.3907 21.0833C20.4552 21.2069 20.4533 21.7446 20.388 21.844C20.3573 21.8907 20.3338 21.9915 20.3152 22.1555C20.2899 22.3795 20.2823 22.403 20.216 22.465C20.1637 22.5139 20.1396 22.5624 20.1275 22.6433C20.1152 22.7256 20.0914 22.7727 20.0359 22.8246C19.9946 22.8632 19.9541 22.9229 19.9459 22.9574C19.9286 23.0294 19.872 23.0934 19.8257 23.0934C19.8082 23.0934 19.7906 23.1167 19.7865 23.1452C19.7824 23.1737 19.7422 23.2217 19.6972 23.2519C19.6522 23.2822 19.6078 23.3274 19.5984 23.3525C19.5892 23.3776 19.5456 23.4193 19.5016 23.4453C19.4577 23.4712 19.4163 23.5132 19.4096 23.5386C19.403 23.5641 19.3602 23.6005 19.3145 23.6196C19.2688 23.6386 19.2197 23.6762 19.2053 23.703C19.191 23.7298 19.1416 23.7675 19.0956 23.7867C19.0497 23.8059 18.973 23.853 18.9252 23.8914C18.859 23.9446 18.7987 23.967 18.6707 23.986C18.5379 24.0058 18.4892 24.0245 18.438 24.0757C18.3525 24.1612 18.1881 24.1765 17.4849 24.1645C16.9289 24.155 16.8762 24.1459 16.7969 24.0463C16.77 24.0125 16.7184 23.9952 16.6099 23.9836C16.4392 23.9653 16.3646 23.932 16.3432 23.8647C16.335 23.839 16.3093 23.818 16.286 23.818C16.2061 23.818 16.0782 23.7487 16.028 23.6782C16.0004 23.6394 15.9609 23.6076 15.9402 23.6076C15.8933 23.6076 15.8173 23.5405 15.8173 23.4991C15.8173 23.482 15.7808 23.4528 15.7363 23.4342C15.6822 23.4116 15.6502 23.3797 15.6397 23.3381C15.6297 23.2983 15.6003 23.2675 15.5583 23.2529C15.5136 23.2373 15.4841 23.2044 15.4662 23.1504C15.4518 23.1066 15.4093 23.0489 15.3718 23.0222C15.3243 22.9884 15.2923 22.9352 15.2666 22.8466C15.2462 22.7763 15.216 22.7194 15.1992 22.7194C15.1466 22.7194 15.115 22.659 15.0877 22.5055C15.0688 22.399 15.0456 22.3439 15.0057 22.3104C14.9193 22.2378 14.9069 22.1252 14.9065 21.4106C14.906 20.7048 14.9183 20.5984 15.0119 20.499C15.0437 20.4652 15.0738 20.3962 15.0831 20.3354C15.103 20.206 15.1492 20.1106 15.2072 20.0796C15.2312 20.0667 15.258 20.0182 15.2668 19.9718C15.2777 19.9132 15.3028 19.8759 15.3491 19.8494C15.3914 19.8251 15.4253 19.7785 15.4425 19.7212C15.4671 19.6394 15.7653 19.307 15.8142 19.307C15.8234 19.307 15.8774 19.2649 15.9342 19.2135C15.991 19.1621 16.0569 19.12 16.0807 19.12C16.1044 19.12 16.1521 19.0891 16.1868 19.0514C16.2565 18.9753 16.3488 18.9329 16.444 18.9333C16.4858 18.9334 16.5265 18.9095 16.5656 18.8619C16.6325 18.7805 16.7411 18.7475 16.9441 18.7466C17.0429 18.7462 17.0885 18.7348 17.1194 18.7027C17.1424 18.679 17.1823 18.6477 17.208 18.6333C17.2678 18.6 17.8949 18.5983 18.0374 18.6311Z" fill="#FCFCFC"/>
<path fillRule="evenodd" clipRule="evenodd" d="M17.7793 4.04492C17.4795 4.06251 17.3887 4.07676 17.1795 4.13929C17.1003 4.16295 16.9478 4.19409 16.8406 4.20853C16.7194 4.22483 16.5927 4.26006 16.5055 4.30178C16.4283 4.33866 16.3041 4.37979 16.2294 4.39329C16.1487 4.40784 16.0392 4.45125 15.9601 4.5001C15.8867 4.54539 15.81 4.58243 15.7895 4.58243C15.7691 4.58243 15.7115 4.61036 15.6615 4.64455C15.6114 4.67873 15.5084 4.7312 15.4325 4.76112C15.3566 4.7911 15.2774 4.83089 15.2568 4.84964C15.2361 4.8684 15.1761 4.90293 15.1236 4.92648C15.0711 4.94997 14.9924 4.9983 14.9487 5.03382C14.9051 5.06935 14.8179 5.14081 14.7551 5.19264C14.6922 5.24447 14.6133 5.30407 14.5798 5.32505C14.4594 5.40048 14.2045 5.62188 13.9994 5.82902C13.7682 6.06252 13.7021 6.13638 13.6602 6.20784C13.6379 6.24588 13.5667 6.34533 13.502 6.42889C13.4374 6.51245 13.3662 6.61085 13.3439 6.64748C13.3216 6.68418 13.2361 6.81565 13.154 6.93964C13.0718 7.06369 12.9841 7.21772 12.9592 7.282C12.9343 7.34627 12.9002 7.41464 12.8835 7.43392C12.8331 7.49235 12.7847 7.60396 12.767 7.70271C12.7578 7.75413 12.7202 7.84891 12.6835 7.91336C12.6468 7.97775 12.6007 8.10805 12.5809 8.20283C12.5611 8.29766 12.529 8.39951 12.5096 8.42925C12.4901 8.45894 12.4585 8.58106 12.4392 8.70067C12.42 8.82028 12.381 9.05483 12.3525 9.22194C12.2761 9.67076 12.266 10.386 12.3315 10.7024C12.3577 10.8286 12.3904 11.0362 12.4043 11.1638C12.433 11.4269 12.4624 11.5554 12.5112 11.6299C12.5297 11.6582 12.561 11.7591 12.5806 11.854C12.6003 11.949 12.6463 12.0898 12.6828 12.1669C12.7194 12.2441 12.7667 12.3616 12.788 12.4281C12.8093 12.4945 12.8416 12.5613 12.8597 12.5763C12.8778 12.5913 12.9148 12.6629 12.9419 12.7354C12.9916 12.8681 13.0528 12.9767 13.1918 13.1791C13.2333 13.2394 13.2881 13.3315 13.3137 13.3838C13.3392 13.436 13.3826 13.4991 13.4101 13.5239C13.4376 13.5488 13.4746 13.5973 13.4924 13.6317C13.5661 13.7743 14.0403 14.2975 14.2765 14.4968C14.3326 14.5442 14.4336 14.6305 14.5009 14.6887C14.5681 14.7468 14.647 14.8066 14.6762 14.8217C14.7053 14.8367 14.7529 14.8706 14.7819 14.8971C14.811 14.9236 14.8705 14.9669 14.9141 14.9935C14.9577 15.02 15.0816 15.1014 15.1893 15.1744C15.2971 15.2473 15.4376 15.327 15.5013 15.3516C15.5651 15.3761 15.6582 15.4243 15.7082 15.4586C15.7582 15.4929 15.814 15.5209 15.8321 15.5209C15.8503 15.5209 15.9356 15.557 16.0217 15.6011C16.1078 15.6452 16.2466 15.6938 16.3302 15.7091C16.4137 15.7245 16.5243 15.761 16.5759 15.7904C16.6351 15.824 16.7774 15.8621 16.9615 15.8938C17.122 15.9213 17.3117 15.9589 17.383 15.9772C17.7869 16.0811 18.734 16.0815 19.2167 15.978C19.371 15.9449 19.5907 15.9016 19.705 15.8817C19.8194 15.8618 19.9628 15.8203 20.0238 15.7894C20.0848 15.7584 20.1999 15.7226 20.2797 15.7098C20.3595 15.6969 20.4685 15.6612 20.5219 15.6302C20.5754 15.5994 20.6893 15.551 20.7751 15.5228C20.8609 15.4946 20.9431 15.457 20.9579 15.4392C20.9727 15.4214 21.0584 15.3787 21.1485 15.3443C21.2385 15.3099 21.3179 15.2667 21.3249 15.2483C21.332 15.2299 21.3864 15.1885 21.4459 15.1562C21.6431 15.0491 21.9088 14.8578 22.0837 14.697C22.1361 14.6488 22.1887 14.6094 22.2007 14.6094C22.2327 14.6094 22.7527 14.0957 22.8746 13.9437C22.9324 13.8715 23.0244 13.76 23.0791 13.6959C23.1337 13.6319 23.1784 13.5702 23.1784 13.559C23.1784 13.5478 23.2146 13.4954 23.2588 13.4424C23.303 13.3895 23.3463 13.3228 23.3549 13.2941C23.3635 13.2655 23.4002 13.2105 23.4365 13.172C23.4728 13.1334 23.5246 13.0423 23.5517 12.9695C23.5787 12.8968 23.6159 12.8249 23.6342 12.8097C23.6525 12.7945 23.6882 12.7267 23.7135 12.659C23.7388 12.5914 23.7855 12.4978 23.8172 12.4511C23.8489 12.4043 23.8876 12.3108 23.9032 12.2432C23.9188 12.1755 23.9555 12.0781 23.9848 12.0267C24.014 11.9753 24.0601 11.8216 24.0871 11.6853C24.1142 11.549 24.1562 11.3912 24.1805 11.3347C24.3251 10.9987 24.3283 9.11636 24.1849 8.77079C24.1598 8.71043 24.1183 8.55266 24.0927 8.42025C24.0652 8.27774 24.0226 8.13919 23.9884 8.08088C23.9567 8.02665 23.9191 7.91984 23.9051 7.84353C23.8909 7.76716 23.8523 7.66379 23.8192 7.61377C23.7861 7.56376 23.7437 7.47915 23.7249 7.4258C23.7062 7.37239 23.6656 7.29047 23.6347 7.24372C23.6038 7.19698 23.5616 7.11809 23.5409 7.06843C23.5201 7.01876 23.478 6.95186 23.4472 6.91972C23.4164 6.88758 23.3737 6.81921 23.3522 6.76779C23.3309 6.71637 23.2803 6.63533 23.24 6.58765C23.1997 6.53997 23.1299 6.45279 23.0849 6.39395C22.808 6.03167 22.1725 5.39002 22.007 5.30559C21.9587 5.28099 21.9034 5.2381 21.884 5.21029C21.8645 5.18253 21.8127 5.13766 21.769 5.11066C21.614 5.01512 21.4597 4.9124 21.3952 4.86197C21.3592 4.83387 21.2788 4.7915 21.2164 4.76778C21.1541 4.74406 21.0525 4.6927 20.9909 4.65355C20.9292 4.61446 20.8632 4.58243 20.8443 4.58243C20.8253 4.58243 20.7548 4.55135 20.6875 4.51337C20.6202 4.47539 20.4783 4.42215 20.3721 4.39504C20.2659 4.36793 20.1378 4.32475 20.0874 4.29898C20.037 4.27327 19.8921 4.23248 19.7654 4.20835C19.6387 4.18422 19.4646 4.14267 19.3784 4.11609C19.1219 4.03685 18.4372 4.00641 17.7793 4.04492ZM18.6908 4.08997C18.9597 4.10469 19.066 4.12094 19.205 4.16856C19.3128 4.20549 19.4773 4.23751 19.6321 4.25171C19.8533 4.27204 19.897 4.28361 19.9925 4.34684C20.0523 4.38645 20.1125 4.41906 20.1264 4.41929C20.2716 4.42198 20.453 4.47024 20.5253 4.5254C20.5712 4.56035 20.6742 4.604 20.7541 4.6224C20.854 4.64531 20.9142 4.67382 20.9463 4.71344C20.9759 4.75002 21.0418 4.78379 21.126 4.8057C21.2106 4.82767 21.2843 4.8656 21.3287 4.91C21.3671 4.94839 21.4144 4.97977 21.4339 4.97977C21.4534 4.97977 21.5185 5.02237 21.5786 5.07437C21.6388 5.12644 21.7171 5.17482 21.7527 5.18195C21.7905 5.18949 21.8282 5.21841 21.8432 5.25131C21.8573 5.28233 21.8979 5.31991 21.9334 5.33486C22.0054 5.36513 22.0109 5.37004 22.4538 5.80413C22.6274 5.97423 22.788 6.14228 22.8108 6.17763C22.8336 6.21298 22.8657 6.24191 22.8822 6.24191C22.8986 6.24191 22.9346 6.28836 22.9621 6.3451C22.9897 6.40189 23.0338 6.45518 23.0603 6.46354C23.0881 6.47236 23.1083 6.49889 23.1083 6.52665C23.1083 6.553 23.1443 6.60752 23.1883 6.64783C23.2324 6.68821 23.2878 6.77375 23.3115 6.83797C23.3382 6.91025 23.3747 6.96366 23.4072 6.97803C23.4548 6.99913 23.5052 7.1105 23.5055 7.19552C23.5056 7.21223 23.5424 7.26377 23.5874 7.3101C23.6344 7.35848 23.6692 7.41803 23.6692 7.44993C23.6692 7.53273 23.7275 7.65672 23.7855 7.69733C23.8255 7.72538 23.8412 7.76932 23.8575 7.89951C23.8785 8.06703 23.8982 8.12132 23.9766 8.2286C24.0054 8.26792 24.0268 8.36001 24.0423 8.51006C24.0654 8.73468 24.0965 8.84932 24.1751 8.9999C24.282 9.20471 24.2461 10.8838 24.1285 11.1797C24.0948 11.2643 24.0591 11.4236 24.0434 11.5592C24.0226 11.7397 24.0033 11.8122 23.9589 11.8772C23.9255 11.926 23.8858 12.039 23.8644 12.1459C23.8362 12.2869 23.8127 12.3443 23.7651 12.389C23.7239 12.4275 23.6925 12.4926 23.673 12.5799C23.6525 12.6718 23.6267 12.7234 23.5891 12.748C23.5522 12.7722 23.5219 12.8316 23.494 12.9348C23.4648 13.0424 23.4402 13.0896 23.4089 13.0977C23.3846 13.1041 23.3479 13.1497 23.3273 13.1991C23.3068 13.2484 23.2549 13.3276 23.2121 13.3751C23.1693 13.4225 23.1275 13.4979 23.119 13.5425C23.1077 13.6031 23.0891 13.6275 23.0461 13.6382C23.01 13.6473 22.9762 13.6818 22.956 13.7303C22.9381 13.773 22.8973 13.825 22.8652 13.8461C22.8331 13.8671 22.7894 13.9212 22.7679 13.9664C22.7465 14.0115 22.714 14.0484 22.6958 14.0484C22.6776 14.0484 22.6409 14.0852 22.6144 14.1302C22.5878 14.1752 22.5562 14.212 22.544 14.212C22.5319 14.212 22.4443 14.2909 22.3495 14.3872C22.2548 14.4835 22.1499 14.5727 22.1166 14.5854C22.0832 14.598 22.0447 14.6332 22.0309 14.6634C22.0172 14.6935 21.97 14.7313 21.926 14.7471C21.8821 14.763 21.8348 14.7974 21.8208 14.8235C21.8068 14.8495 21.7381 14.8972 21.668 14.9292C21.5979 14.9613 21.5247 15.0119 21.5052 15.0417C21.4857 15.0714 21.4413 15.1027 21.4067 15.1113C21.372 15.1198 21.3121 15.1568 21.2735 15.1934C21.2348 15.2302 21.1447 15.2769 21.0725 15.2977C21.0005 15.3183 20.9176 15.3607 20.8884 15.3918C20.8526 15.4299 20.7809 15.4607 20.6687 15.4862C20.5619 15.5103 20.4808 15.5443 20.4425 15.5808C20.3967 15.6246 20.3421 15.6429 20.2075 15.66C20.0072 15.6854 19.9146 15.7158 19.8478 15.7778C19.8101 15.8128 19.7245 15.8286 19.4089 15.8585C19.1792 15.8802 18.9759 15.9119 18.9181 15.9351C18.7803 15.9902 17.9534 16.0069 17.828 15.9571C17.7819 15.9388 17.5917 15.9062 17.4053 15.8845C16.8275 15.8175 16.7733 15.8071 16.6836 15.7456C16.6248 15.7054 16.542 15.6799 16.413 15.6623C16.2929 15.6459 16.2101 15.6215 16.1793 15.5936C16.112 15.5324 16.0568 15.508 15.9095 15.4743C15.8272 15.4555 15.7641 15.4246 15.7342 15.3885C15.7048 15.3531 15.6356 15.3187 15.5479 15.296C15.4676 15.2751 15.3949 15.2403 15.3764 15.214C15.3588 15.1889 15.303 15.1517 15.2524 15.1315C15.2017 15.1112 15.1474 15.0763 15.1317 15.0539C15.0953 15.002 14.9509 14.9134 14.9025 14.9133C14.8822 14.9133 14.8519 14.8876 14.8351 14.8563C14.8184 14.8251 14.7729 14.7863 14.7341 14.7702C14.6954 14.7542 14.6302 14.7088 14.5894 14.6694C14.437 14.5225 14.3144 14.4194 14.2251 14.363C14.1745 14.3311 14.1331 14.2941 14.1331 14.2808C14.1331 14.2674 14.0884 14.2109 14.0338 14.1551C13.9791 14.0993 13.8871 13.9974 13.8293 13.9286C13.7714 13.8599 13.6895 13.7697 13.6473 13.7281C13.6049 13.6866 13.5548 13.615 13.5356 13.5692C13.5164 13.5234 13.4767 13.4749 13.4474 13.4615C13.4129 13.4458 13.3846 13.4026 13.3676 13.3397C13.3531 13.286 13.3038 13.2026 13.258 13.1544C13.2123 13.1062 13.1748 13.046 13.1748 13.0208C13.1748 12.9955 13.1443 12.9401 13.1069 12.8975C13.0695 12.855 13.0219 12.7615 13.0011 12.6898C12.9802 12.6181 12.9377 12.5356 12.9066 12.5064C12.8685 12.4705 12.8377 12.3988 12.8123 12.2867C12.788 12.1797 12.7542 12.0988 12.7175 12.0603C12.6724 12.0131 12.6553 11.9598 12.636 11.8055C12.6129 11.6212 12.5923 11.557 12.5054 11.399C12.3768 11.1649 12.387 8.9233 12.5179 8.67215C12.5836 8.54612 12.6373 8.33962 12.6373 8.21282C12.6373 8.13528 12.653 8.09549 12.7086 8.03209C12.7626 7.97056 12.7888 7.90652 12.8165 7.76833C12.8439 7.63142 12.8672 7.57416 12.9097 7.5391C12.9452 7.50965 12.9795 7.44111 13.0022 7.35399C13.0261 7.26178 13.0609 7.19435 13.1065 7.15181C13.1441 7.11669 13.1748 7.07117 13.1748 7.05061C13.1748 7.0301 13.2121 6.97383 13.2577 6.92562C13.304 6.87665 13.3514 6.79526 13.3649 6.74144C13.3804 6.68015 13.4093 6.63422 13.4441 6.61558C13.4743 6.59945 13.5116 6.55574 13.5271 6.51846C13.5425 6.48119 13.579 6.43193 13.6082 6.40896C13.6722 6.35859 13.7589 6.22105 13.7591 6.16968C13.7591 6.14929 13.7854 6.12054 13.8176 6.10588C13.8498 6.09127 13.8962 6.04633 13.9207 6.00607C13.9451 5.96581 13.9898 5.92059 14.0199 5.90557C14.05 5.89055 14.0887 5.84907 14.1058 5.81336C14.1229 5.77766 14.1618 5.73904 14.1922 5.72747C14.2226 5.7159 14.2654 5.67915 14.2873 5.64584C14.3091 5.61248 14.3596 5.57128 14.3995 5.55422C14.4394 5.53716 14.5182 5.48007 14.5747 5.4273C14.6311 5.37454 14.6959 5.32552 14.7187 5.31827C14.7414 5.31108 14.7776 5.27842 14.7989 5.2457C14.8204 5.21297 14.8751 5.17073 14.9205 5.15174C14.9659 5.13275 15.0083 5.09728 15.0146 5.0728C15.0225 5.0427 15.0677 5.01635 15.1549 4.99099C15.2317 4.96867 15.3085 4.92683 15.3453 4.88733C15.3857 4.84392 15.4413 4.81546 15.5066 4.80483C15.5676 4.79489 15.6417 4.7589 15.6977 4.71215C15.7533 4.6657 15.8275 4.62959 15.8868 4.62006C15.9501 4.60996 16.0093 4.57969 16.0549 4.53411C16.1136 4.47539 16.1529 4.46019 16.2927 4.44249C16.4968 4.4166 16.5358 4.40346 16.6106 4.33538C16.66 4.29051 16.7127 4.27806 16.9495 4.25533C17.2794 4.22378 17.4067 4.19836 17.507 4.14396C17.5592 4.11574 17.6624 4.10008 17.8611 4.09032C18.2775 4.06987 18.322 4.06981 18.6908 4.08997ZM7.82245 12.7628C7.75175 12.7743 7.59801 12.794 7.48086 12.8067C7.34991 12.8209 7.21265 12.853 7.12465 12.8901C7.04595 12.9232 6.92908 12.9615 6.86498 12.9753C6.80094 12.989 6.7099 13.0265 6.66269 13.0585C6.61554 13.0905 6.52146 13.1375 6.45368 13.1628C6.3859 13.1882 6.3059 13.228 6.27593 13.2514C6.24595 13.2748 6.1846 13.3126 6.13961 13.3354C6.09461 13.3583 6.02099 13.4078 5.976 13.4454C5.931 13.483 5.79912 13.5906 5.6829 13.6842C5.43754 13.8821 4.98516 14.3854 4.92363 14.5289C4.90038 14.5832 4.8697 14.6348 4.8555 14.6436C4.8413 14.6523 4.79871 14.7209 4.76084 14.796C4.72292 14.871 4.66659 14.9698 4.63556 15.0155C4.60454 15.0612 4.57193 15.1384 4.56311 15.187C4.55429 15.2357 4.51654 15.3388 4.4792 15.4163C4.4366 15.5046 4.39734 15.644 4.37396 15.7902C4.3534 15.9185 4.32085 16.1076 4.30163 16.2104C4.23297 16.578 4.23279 16.9682 4.3011 17.2973C4.33446 17.4579 4.37227 17.6565 4.38507 17.7384C4.39786 17.8204 4.42813 17.9256 4.45226 17.9721C4.47645 18.0188 4.51923 18.1263 4.54733 18.2111C4.57544 18.2959 4.62411 18.4 4.65549 18.4426C4.68687 18.4851 4.72917 18.57 4.74951 18.6313C4.7699 18.6926 4.80256 18.7561 4.82214 18.7723C4.84171 18.7886 4.88209 18.8499 4.91183 18.9085C4.94157 18.9672 4.9892 19.0362 5.01765 19.0619C5.04617 19.0876 5.08888 19.1468 5.11266 19.1934C5.2089 19.3819 5.79492 19.9235 6.05184 20.0613C6.11793 20.0967 6.1936 20.1459 6.22007 20.1705C6.24654 20.1952 6.326 20.238 6.39671 20.2656C6.46741 20.2932 6.54676 20.336 6.57311 20.3604C6.59941 20.385 6.70985 20.4272 6.81853 20.4541C6.92715 20.481 7.04764 20.5219 7.08621 20.545C7.22498 20.6278 8.21044 20.7706 8.39485 20.7346C8.45924 20.722 8.57506 20.7052 8.65219 20.6974C9.08961 20.6528 9.41286 20.5903 9.55566 20.5228C9.63723 20.4842 9.72032 20.4526 9.74031 20.4526C9.76029 20.4526 9.82749 20.4203 9.8896 20.381C9.95177 20.3415 10.0581 20.2885 10.1258 20.2632C10.1935 20.2379 10.2604 20.2033 10.2743 20.1865C10.2883 20.1697 10.3444 20.1365 10.3992 20.1126C10.4539 20.0887 10.5423 20.0319 10.5957 19.9863C10.6491 19.9407 10.7418 19.8665 10.8017 19.8215C10.9674 19.6971 11.4133 19.2288 11.4677 19.122C11.4943 19.07 11.5414 19.0109 11.5724 18.9905C11.6035 18.9702 11.6453 18.9055 11.6653 18.8468C11.6853 18.788 11.7286 18.7047 11.7615 18.6615C11.7944 18.6183 11.8356 18.5358 11.8529 18.4781C11.8703 18.4204 11.9111 18.3416 11.9437 18.3029C11.9788 18.2611 12.0134 18.1781 12.0289 18.098C12.0432 18.024 12.0849 17.8845 12.1214 17.7881C12.1579 17.6917 12.1945 17.5549 12.2026 17.4842C12.2841 16.7777 12.2458 15.9016 12.1228 15.6606C12.0983 15.6126 12.0603 15.5011 12.0384 15.4128C12.0165 15.3244 11.9634 15.1855 11.9205 15.1041C11.8776 15.0227 11.8426 14.9416 11.8426 14.9238C11.8426 14.906 11.8118 14.8564 11.7742 14.8135C11.7365 14.7707 11.6858 14.6833 11.6616 14.6194C11.6372 14.5554 11.5918 14.476 11.5605 14.4427C11.5293 14.4094 11.4616 14.3264 11.4102 14.2581C11.2938 14.1038 10.9038 13.7138 10.7563 13.6043C10.6957 13.5594 10.6178 13.495 10.5833 13.4612C10.5488 13.4275 10.463 13.3711 10.3927 13.3359C10.3224 13.3006 10.2491 13.2581 10.2299 13.2414C10.2106 13.2246 10.1382 13.1895 10.0691 13.1633C9.99998 13.1372 9.90532 13.0899 9.85875 13.0582C9.81218 13.0266 9.70835 12.9842 9.62806 12.9641C9.54772 12.944 9.43921 12.9057 9.38691 12.879C9.20963 12.7886 8.15031 12.7099 7.82245 12.7628ZM9.06612 12.8552C9.13957 12.8672 9.22932 12.899 9.26561 12.9258C9.30557 12.9553 9.41432 12.9895 9.54117 13.0122C9.71232 13.0429 9.76181 13.0615 9.81142 13.1142C9.85197 13.1573 9.9159 13.1885 10.004 13.2082C10.0915 13.2278 10.1469 13.2548 10.1691 13.2885C10.1874 13.3165 10.2532 13.3581 10.3155 13.3811C10.3776 13.404 10.459 13.4542 10.4962 13.4926C10.5335 13.531 10.5935 13.5727 10.6297 13.5854C10.6658 13.5979 10.702 13.6291 10.71 13.6545C10.7181 13.6799 10.7528 13.7125 10.787 13.727C10.8405 13.7496 10.9099 13.8087 11.0512 13.9521C11.0687 13.9698 11.1209 14.0224 11.1674 14.0689C11.2138 14.1155 11.269 14.187 11.2899 14.2279C11.3108 14.2688 11.3479 14.3086 11.3726 14.3164C11.3971 14.3242 11.4233 14.3546 11.4306 14.384C11.438 14.4133 11.4804 14.4748 11.5248 14.5206C11.5713 14.5684 11.6123 14.6389 11.6212 14.6864C11.6362 14.7664 11.6961 14.8528 11.7489 14.8703C11.763 14.875 11.7908 14.95 11.8106 15.0369C11.8315 15.1284 11.8708 15.2237 11.9039 15.263C11.9442 15.3109 11.9711 15.3879 11.995 15.5236C12.0172 15.6503 12.0502 15.7485 12.0914 15.8108C12.2122 15.9932 12.2132 17.4204 12.0928 17.6259C12.0431 17.7107 11.9603 18.061 11.9596 18.1897C11.9595 18.1985 11.9394 18.212 11.9149 18.2198C11.8689 18.2344 11.7958 18.3853 11.7958 18.4655C11.7958 18.4906 11.7648 18.5427 11.7269 18.5815C11.6625 18.6474 11.6093 18.7766 11.609 18.8678C11.6089 18.8896 11.58 18.9213 11.5447 18.9382C11.5093 18.9551 11.4646 19.0007 11.4454 19.0395C11.4047 19.121 11.3877 19.1403 11.0609 19.4768C10.9267 19.615 10.8065 19.728 10.7937 19.728C10.781 19.728 10.7636 19.7498 10.7552 19.7765C10.7465 19.804 10.696 19.8438 10.6389 19.8683C10.5832 19.8921 10.5312 19.9327 10.523 19.9587C10.5128 19.9907 10.4686 20.0173 10.385 20.0416C10.3101 20.0634 10.2385 20.1038 10.2017 20.1451C10.1581 20.194 10.1105 20.2175 10.0299 20.2295C9.95172 20.2412 9.89767 20.267 9.84893 20.3157C9.79897 20.3656 9.74247 20.392 9.64822 20.4092C9.57606 20.4224 9.46439 20.4627 9.40012 20.4987C9.32153 20.5428 9.23347 20.5691 9.13133 20.579C8.3155 20.6583 7.38041 20.6258 7.21698 20.5126C7.15557 20.47 7.06476 20.4389 6.93592 20.4164C6.73591 20.3815 6.68034 20.3608 6.63254 20.3032C6.61653 20.284 6.55109 20.2508 6.4871 20.2295C6.42312 20.2083 6.34406 20.1662 6.31146 20.1359C6.27885 20.1057 6.20102 20.064 6.13855 20.0432C6.0699 20.0204 6.01941 19.9881 6.01094 19.9615C6.00328 19.9372 5.97775 19.9113 5.95432 19.9039C5.93083 19.8964 5.85282 19.8388 5.78089 19.7759C5.70902 19.713 5.63142 19.6555 5.60858 19.6481C5.58567 19.6407 5.54845 19.6021 5.52589 19.5623C5.50328 19.5224 5.46337 19.4842 5.43719 19.4774C5.41096 19.4705 5.37011 19.4268 5.34633 19.3803C5.32261 19.3337 5.2799 19.2746 5.25144 19.2489C5.22298 19.2232 5.18003 19.1636 5.15596 19.1165C5.13195 19.0693 5.08128 19.0087 5.04342 18.9817C5.0055 18.9548 4.96793 18.9026 4.95986 18.8659C4.9518 18.8291 4.91908 18.7745 4.88723 18.7446C4.85533 18.7146 4.81244 18.6318 4.79181 18.5605C4.77124 18.4892 4.72473 18.3969 4.6885 18.3554C4.65233 18.3139 4.61593 18.2402 4.60763 18.1918C4.57772 18.0167 4.54698 17.9251 4.50351 17.8816C4.42118 17.7992 4.34597 17.0584 4.37204 16.5859C4.40873 15.9204 4.42953 15.7108 4.46535 15.6457C4.54733 15.4966 4.57842 15.4136 4.60173 15.2811C4.61821 15.1876 4.64725 15.1177 4.69008 15.0685C4.7252 15.028 4.76634 14.9569 4.78153 14.9102C4.79672 14.8636 4.83084 14.8057 4.85737 14.7817C4.91569 14.7289 4.97096 14.6266 4.97096 14.5713C4.97096 14.5491 5.00515 14.4961 5.04693 14.4536C5.08871 14.4111 5.15579 14.3367 5.19599 14.2883C5.2633 14.2073 5.68319 13.7817 5.84745 13.6278C5.88601 13.5917 5.94135 13.5551 5.97039 13.5466C5.99949 13.538 6.03846 13.5015 6.05704 13.4656C6.08293 13.4155 6.11349 13.3967 6.18834 13.3847C6.25349 13.3743 6.30772 13.3457 6.35148 13.2989C6.39554 13.2517 6.46186 13.2169 6.55301 13.1932C6.62775 13.1738 6.71598 13.1319 6.74905 13.1001C6.79492 13.0562 6.85879 13.034 7.01784 13.0068C7.1499 12.9843 7.25215 12.9525 7.29656 12.9202C7.33513 12.8922 7.41401 12.8626 7.47186 12.8543C7.6395 12.8304 8.91916 12.8311 9.06612 12.8552ZM17.0664 18.8122C16.8804 18.8414 16.78 18.87 16.7034 18.9156C16.6451 18.9502 16.5524 18.9945 16.4973 19.0139C16.4423 19.0333 16.369 19.0714 16.3345 19.0986C16.3 19.1257 16.2361 19.1628 16.1926 19.181C16.0662 19.2339 15.5355 19.7165 15.5355 19.7786C15.5355 19.7899 15.4949 19.8437 15.4452 19.898C15.3956 19.9524 15.3421 20.0366 15.3264 20.0851C15.3106 20.1336 15.2732 20.2025 15.2432 20.2381C15.2132 20.2738 15.171 20.3708 15.1495 20.4538C15.1281 20.5367 15.0911 20.6472 15.0674 20.6993C14.9925 20.8639 14.9692 21.0805 14.9804 21.5097L14.9908 21.9134L15.1014 22.2289C15.1622 22.4025 15.2427 22.591 15.2803 22.6478C15.3178 22.7046 15.3485 22.761 15.3485 22.773C15.3485 22.785 15.3753 22.8267 15.408 22.8656C15.4408 22.9045 15.4886 22.9774 15.5142 23.0277C15.5558 23.1093 15.6667 23.2293 15.8838 23.4278C15.971 23.5075 16.2932 23.7248 16.3241 23.7248C16.3365 23.7248 16.3895 23.7559 16.4421 23.794C16.499 23.8353 16.6145 23.8829 16.7273 23.9117C16.8315 23.9383 16.9715 23.9833 17.0383 24.0116C17.2537 24.103 18.0182 24.0895 18.3169 23.989C18.439 23.948 18.578 23.9081 18.6258 23.9004C18.6737 23.8928 18.7421 23.8621 18.7778 23.8322C18.8135 23.8024 18.8666 23.7705 18.8958 23.7613C18.925 23.7522 18.9947 23.7098 19.0506 23.667C19.1066 23.6243 19.1774 23.5765 19.2079 23.5609C19.316 23.5057 19.8336 22.9541 19.8838 22.8407C19.9102 22.7809 19.9522 22.7103 19.9771 22.6839C20.002 22.6574 20.0422 22.5779 20.0665 22.5072C20.0909 22.4365 20.133 22.3352 20.16 22.282C20.3164 21.9756 20.3197 20.881 20.1653 20.5722C20.1292 20.5 20.0864 20.3845 20.0701 20.3157C20.0538 20.2466 20.012 20.1574 19.9768 20.117C19.9417 20.0766 19.8994 20.0173 19.8826 19.9851C19.7772 19.783 19.2689 19.2669 19.0984 19.1888C19.0461 19.165 18.9844 19.1244 18.9612 19.0988C18.938 19.0731 18.8651 19.0347 18.7991 19.0135C18.7331 18.9923 18.6366 18.9505 18.5845 18.9209C18.358 18.7915 17.5608 18.7345 17.0664 18.8122ZM18.234 18.8768C18.2977 18.8853 18.3871 18.9166 18.4327 18.9463C18.4782 18.9761 18.5839 19.0177 18.6674 19.0388C18.7541 19.0607 18.8447 19.1013 18.8784 19.1333C18.911 19.164 18.9741 19.2019 19.0187 19.2172C19.0633 19.2325 19.1367 19.2802 19.1816 19.323C19.473 19.6005 19.6562 19.7909 19.6843 19.8452C19.7022 19.8798 19.7436 19.9256 19.7765 19.9472C19.8093 19.9687 19.8361 20.007 19.8361 20.0323C19.8361 20.0577 19.8734 20.1197 19.9189 20.1701C19.9846 20.2428 20.0065 20.2919 20.0252 20.4075C20.0521 20.5748 20.0784 20.6352 20.1485 20.6908C20.1973 20.7295 20.1984 20.7448 20.1984 21.3823V22.0342L20.1354 22.1257C20.1004 22.1766 20.0549 22.2947 20.0331 22.3915C20.0059 22.512 19.9777 22.5784 19.9419 22.6066C19.9134 22.629 19.8711 22.6978 19.848 22.7595C19.8249 22.8212 19.7707 22.9046 19.7276 22.945C19.6844 22.9853 19.6491 23.0342 19.6491 23.0536C19.6491 23.0732 19.6112 23.1114 19.565 23.1388C19.5187 23.1661 19.4753 23.2096 19.4685 23.2355C19.4617 23.2614 19.4261 23.2981 19.3894 23.3171C19.3527 23.3361 19.3074 23.3811 19.2888 23.4171C19.2659 23.4614 19.2238 23.4921 19.1596 23.5113C19.1072 23.527 19.028 23.5762 18.9835 23.6206C18.9391 23.6651 18.8817 23.7014 18.856 23.7014C18.8304 23.7014 18.7728 23.7335 18.7282 23.7726C18.6579 23.8343 18.6101 23.8502 18.371 23.8909C18.2186 23.9169 18.0602 23.9583 18.0175 23.9833C17.9056 24.049 17.4112 24.0497 17.2753 23.9844C17.2247 23.9601 17.0676 23.9173 16.9262 23.8893C16.7848 23.8613 16.6534 23.8245 16.634 23.8076C16.5849 23.7646 16.4086 23.678 16.3702 23.678C16.3527 23.678 16.3128 23.6508 16.2817 23.6176C16.2505 23.5843 16.1892 23.5421 16.1455 23.5238C16.1018 23.5055 16.0205 23.4485 15.9648 23.3973C15.9093 23.346 15.8479 23.3041 15.8285 23.3041C15.8091 23.3041 15.7787 23.2694 15.761 23.2271C15.7433 23.1847 15.7014 23.1321 15.6678 23.11C15.6342 23.0881 15.5844 23.018 15.557 22.9544C15.5297 22.8908 15.4841 22.8236 15.4557 22.805C15.4273 22.7864 15.3917 22.7302 15.3768 22.6801C15.3618 22.63 15.3185 22.5421 15.2807 22.4849C15.2339 22.414 15.2001 22.3176 15.1747 22.1822C15.1518 22.0601 15.1173 21.9565 15.0852 21.9134C15.0037 21.8039 15.0052 21.0462 15.0872 20.9154C15.1206 20.862 15.1575 20.7388 15.1836 20.5938C15.219 20.397 15.2356 20.351 15.2856 20.3117C15.3265 20.2795 15.3545 20.2239 15.3743 20.1351C15.3973 20.0326 15.4168 19.9986 15.4675 19.9723C15.5048 19.9531 15.5424 19.9062 15.5576 19.8604C15.5725 19.8154 15.6083 19.7704 15.6414 19.7554C15.6731 19.7409 15.6991 19.7182 15.6991 19.7049C15.6991 19.6667 15.9608 19.4152 16.0345 19.3825C16.0711 19.3662 16.1061 19.3338 16.1122 19.3105C16.1193 19.2832 16.1698 19.2534 16.2533 19.227C16.3247 19.2045 16.4069 19.1605 16.4359 19.1292C16.4669 19.0957 16.5448 19.0577 16.6255 19.0367C16.7023 19.0167 16.7898 18.9749 16.8245 18.9417C16.9123 18.8576 17.7891 18.8173 18.234 18.8768Z" fill="#D0021B"/>
<path fillRule="evenodd" clipRule="evenodd" d="M17.6063 3.96251C17.047 3.99354 17.0075 3.99997 16.9254 4.07365C16.8904 4.10514 16.8078 4.12717 16.645 4.14832C16.4258 4.17684 16.2624 4.23218 16.2624 4.27781C16.2624 4.29896 16.2189 4.31042 16.0299 4.33911C15.9603 4.34968 15.9033 4.37744 15.8578 4.42296C15.8137 4.46707 15.7476 4.50009 15.6703 4.51668C15.5907 4.53374 15.5298 4.56477 15.488 4.60959C15.4434 4.65739 15.3891 4.6835 15.3003 4.69981C15.2099 4.7164 15.1594 4.74112 15.1171 4.7895C15.0849 4.8262 15.0247 4.86774 14.9832 4.88182C14.9416 4.89591 14.8785 4.935 14.8429 4.96871C14.8073 5.00243 14.7339 5.05636 14.6799 5.08856C14.6258 5.12075 14.5754 5.16674 14.5678 5.19081C14.5602 5.21483 14.5174 5.24656 14.4728 5.26128C14.4229 5.2777 14.3781 5.31422 14.3565 5.35618C14.3371 5.39369 14.3021 5.42437 14.2787 5.42437C14.2324 5.42437 14.1588 5.49349 14.1588 5.53691C14.1588 5.55181 14.1223 5.57921 14.0778 5.59779C14.0245 5.62011 13.9916 5.65243 13.9816 5.69245C13.9717 5.73189 13.9389 5.76473 13.8881 5.78594C13.8378 5.80698 13.8045 5.83999 13.7948 5.8785C13.7866 5.91145 13.7524 5.9516 13.7189 5.96773C13.682 5.98543 13.6492 6.0275 13.6358 6.07431C13.6223 6.12152 13.5885 6.16464 13.549 6.18509C13.5134 6.2035 13.4777 6.23949 13.4695 6.26514C13.4614 6.29074 13.4141 6.35396 13.3645 6.40562C13.3149 6.45721 13.2676 6.53002 13.2594 6.56741C13.2512 6.60481 13.2083 6.67271 13.164 6.71823C13.1198 6.7638 13.0836 6.81727 13.0836 6.83708C13.0836 6.85689 13.052 6.90135 13.0132 6.93589C12.9487 6.99338 12.9209 7.05713 12.886 7.22834C12.879 7.26287 12.8538 7.29723 12.8301 7.30477C12.7775 7.32148 12.7374 7.40486 12.7083 7.55866C12.6951 7.62807 12.6635 7.69731 12.6295 7.73138C12.5729 7.78794 12.5227 7.95617 12.5227 8.0891C12.5227 8.12662 12.5021 8.17634 12.4768 8.19989C12.3998 8.2717 12.365 8.39318 12.3479 8.64982C12.3344 8.85193 12.3218 8.90966 12.2764 8.97704C12.1323 9.19101 12.1253 10.7975 12.2673 11.0633C12.3066 11.1367 12.3278 11.2361 12.349 11.4474C12.3746 11.702 12.3851 11.7431 12.448 11.833C12.498 11.9045 12.523 11.9739 12.5344 12.0724C12.5539 12.2406 12.5773 12.3059 12.6486 12.3906C12.6785 12.4261 12.7099 12.498 12.7182 12.5503C12.7269 12.6046 12.762 12.6782 12.8003 12.7219C12.837 12.764 12.884 12.8571 12.9047 12.9288C12.9254 13.0004 12.9651 13.0793 12.993 13.1041C13.0209 13.1288 13.0637 13.1939 13.0883 13.2487C13.1127 13.3035 13.1573 13.3643 13.1873 13.384C13.2173 13.4036 13.2478 13.4496 13.2551 13.4862C13.2624 13.5228 13.3101 13.6009 13.3612 13.66C13.4123 13.7189 13.4605 13.7876 13.4684 13.8125C13.4764 13.8374 13.5192 13.8856 13.5637 13.9195C13.6082 13.9535 13.6446 13.9968 13.6446 14.0159C13.6446 14.0349 13.6806 14.0717 13.7245 14.0977C13.7685 14.1237 13.8153 14.1759 13.8285 14.2139C13.8423 14.2533 13.8784 14.2927 13.9126 14.3058C13.9456 14.3183 13.9829 14.3555 13.9954 14.3885C14.008 14.4214 14.0505 14.4619 14.0899 14.4785C14.1293 14.4951 14.1819 14.542 14.2066 14.5827C14.2314 14.6233 14.2672 14.6566 14.2863 14.6566C14.3054 14.6566 14.345 14.6892 14.3743 14.729C14.4036 14.7688 14.4539 14.8153 14.486 14.8323C14.5182 14.8493 14.5859 14.9015 14.6367 14.9484C14.6874 14.9952 14.758 15.0394 14.7935 15.0466C14.8291 15.0536 14.8746 15.0845 14.8946 15.115C14.9146 15.1456 14.9694 15.1866 15.0163 15.2062C15.0633 15.2258 15.117 15.2638 15.1358 15.2906C15.1756 15.3475 15.3004 15.4046 15.3849 15.4046C15.421 15.4046 15.4682 15.4318 15.5066 15.4749C15.5636 15.5388 15.6081 15.5581 15.7992 15.601C15.8337 15.6087 15.8682 15.6349 15.8759 15.6592C15.8936 15.7148 15.9718 15.745 16.1864 15.7792C16.2796 15.794 16.3558 15.8163 16.3558 15.8287C16.3558 15.8742 16.5598 15.9389 16.7532 15.9547C16.915 15.968 16.9627 15.9811 17.0103 16.0253C17.1051 16.1135 17.2961 16.1288 18.2958 16.1285C19.3169 16.1281 19.4766 16.1156 19.5809 16.0278C19.6377 15.98 19.6856 15.9669 19.8536 15.9529C20.0191 15.9391 20.0857 15.9211 20.2083 15.8572C20.2913 15.8139 20.3783 15.7785 20.4015 15.7785C20.5112 15.7785 20.6857 15.722 20.7613 15.6619C20.8074 15.6253 20.8876 15.5882 20.9396 15.5794C20.9934 15.5703 21.0679 15.5338 21.1125 15.4947C21.1556 15.4569 21.2363 15.4127 21.2918 15.3967C21.3623 15.3763 21.4019 15.3485 21.4232 15.3042C21.44 15.2695 21.4715 15.2407 21.4933 15.2404C21.5678 15.2395 21.727 15.1518 21.7424 15.1034C21.7523 15.0722 21.7908 15.0461 21.8509 15.03C21.9118 15.0135 21.9529 14.9854 21.9696 14.9488C21.9836 14.9179 22.0245 14.8825 22.0603 14.87C22.0962 14.8575 22.1437 14.8195 22.1659 14.7855C22.1881 14.7516 22.2556 14.6989 22.3159 14.6683C22.3762 14.6378 22.443 14.586 22.4644 14.5534C22.4858 14.5207 22.5328 14.4788 22.5687 14.4602C22.6046 14.4416 22.6461 14.3998 22.661 14.3673C22.6757 14.3349 22.7191 14.2921 22.7573 14.2724C22.7955 14.2526 22.8329 14.2173 22.8403 14.194C22.8476 14.1707 22.8944 14.1092 22.9442 14.0575C22.9939 14.0058 23.0478 13.9268 23.064 13.8821C23.0801 13.8374 23.1225 13.7842 23.158 13.7637C23.1976 13.741 23.2289 13.6983 23.2387 13.6536C23.249 13.6067 23.2783 13.5685 23.3209 13.5464C23.3634 13.5245 23.3973 13.4805 23.4153 13.4241C23.4307 13.3757 23.474 13.3036 23.5115 13.264C23.549 13.2243 23.5908 13.1514 23.6045 13.102C23.6182 13.0525 23.6544 12.9923 23.6849 12.9682C23.7359 12.9282 23.7646 12.8578 23.7991 12.6891C23.8061 12.6545 23.8313 12.6202 23.855 12.6126C23.9083 12.5957 23.9387 12.5313 23.9744 12.3591C23.9896 12.2858 24.0106 12.2259 24.0211 12.2259C24.0696 12.2259 24.1239 12.0828 24.1521 11.8806C24.174 11.7242 24.1966 11.6445 24.2291 11.6094C24.2955 11.5377 24.3198 11.4137 24.3376 11.0572C24.3492 10.8245 24.3651 10.7148 24.3981 10.6394C24.4633 10.4903 24.4635 9.76821 24.3985 9.51315C24.3741 9.41738 24.347 9.20288 24.3382 9.03547C24.319 8.66746 24.2898 8.51776 24.2212 8.43596C24.1846 8.39231 24.1646 8.32832 24.1535 8.21946C24.1347 8.0364 24.1112 7.96762 24.0449 7.90124C24.0137 7.87004 23.9873 7.79998 23.9728 7.70982C23.9466 7.54773 23.9243 7.49719 23.8585 7.45102C23.8288 7.43028 23.8035 7.37261 23.7887 7.29209C23.7716 7.19912 23.7476 7.15016 23.698 7.10721C23.6608 7.07507 23.6235 7.01652 23.615 6.97714C23.6066 6.9377 23.5579 6.85508 23.507 6.79343C23.4561 6.73184 23.4144 6.66313 23.4144 6.6408C23.4144 6.59704 23.3574 6.53878 23.2917 6.51547C23.2692 6.50752 23.2508 6.48146 23.2508 6.45756C23.2508 6.43372 23.193 6.33783 23.1223 6.24452C23.0516 6.1512 22.9937 6.06589 22.9937 6.05502C22.9937 6.0441 22.9735 6.02879 22.9487 6.0209C22.9239 6.01307 22.8821 5.97012 22.8558 5.92548C22.8294 5.88084 22.7822 5.83456 22.7508 5.82264C22.7194 5.81072 22.6797 5.77174 22.6625 5.73604C22.6455 5.70034 22.6068 5.65885 22.5767 5.64384C22.5465 5.62882 22.5018 5.58359 22.4774 5.54327C22.4528 5.50296 22.4064 5.45989 22.3741 5.44762C22.3417 5.43535 22.3036 5.39953 22.2892 5.36798C22.2661 5.31738 22.0828 5.21401 22.0161 5.21401C22.0038 5.21401 21.9872 5.18789 21.9792 5.15599C21.9712 5.12408 21.9344 5.08236 21.8974 5.0632C21.8603 5.04403 21.7982 4.99653 21.7592 4.95761C21.7203 4.91864 21.6729 4.88679 21.6538 4.88679C21.6348 4.88679 21.575 4.84992 21.5211 4.80481C21.4671 4.75976 21.4003 4.71833 21.3728 4.71278C21.3452 4.70729 21.2943 4.69677 21.2599 4.68952C21.2253 4.68228 21.1908 4.65628 21.183 4.63179C21.1676 4.58318 21.0159 4.51282 20.9264 4.51282C20.8721 4.51282 20.7967 4.45918 20.7967 4.4205C20.7967 4.39018 20.6806 4.35219 20.5047 4.32502C20.4031 4.30931 20.3337 4.28617 20.3212 4.26385C20.2893 4.20699 20.1649 4.16621 19.9686 4.14844C19.8272 4.13565 19.7725 4.11975 19.7212 4.07657C19.6335 4.00277 19.4908 3.98103 18.9853 3.96456C18.7539 3.95702 18.4699 3.94679 18.3542 3.94177C18.2385 3.9368 17.902 3.94609 17.6063 3.96251ZM19.1156 4.0224C19.2656 4.03503 19.4347 4.06664 19.5454 4.10275C19.6457 4.13553 19.7974 4.17322 19.8825 4.18648C19.9675 4.19975 20.0923 4.23732 20.1599 4.27004C20.2276 4.3027 20.3616 4.34822 20.4579 4.37119C20.5541 4.39409 20.6724 4.43978 20.7207 4.47274C20.7689 4.50564 20.8526 4.5442 20.9067 4.5584C20.9607 4.57254 21.0343 4.6083 21.0703 4.63781C21.1062 4.66732 21.1963 4.7157 21.2704 4.74527C21.3446 4.77489 21.413 4.81223 21.4224 4.82824C21.4318 4.84425 21.4847 4.88019 21.5399 4.90818C21.6642 4.97105 21.9182 5.1623 21.9347 5.20548C21.9414 5.22307 21.995 5.25865 22.0537 5.2846C22.1777 5.33952 22.9587 6.10674 23.0287 6.24247C23.0519 6.28741 23.0903 6.33801 23.1142 6.35484C23.1381 6.37172 23.1747 6.41905 23.1956 6.46002C23.2165 6.50103 23.2628 6.56087 23.2985 6.59301C23.3341 6.62514 23.3812 6.7007 23.4032 6.76094C23.4251 6.82118 23.4581 6.87629 23.4767 6.88341C23.4952 6.89049 23.5323 6.9464 23.5592 7.00758C23.5861 7.06882 23.633 7.1487 23.6634 7.18516C23.6937 7.22162 23.7304 7.29805 23.7447 7.35502C23.7591 7.41199 23.7999 7.49526 23.8355 7.54002C23.8758 7.59074 23.9143 7.68364 23.9373 7.78601C23.9578 7.87647 24.0002 7.99479 24.0317 8.0489C24.0631 8.10301 24.101 8.21567 24.1158 8.29922C24.1306 8.38278 24.1734 8.54429 24.2108 8.65811C24.381 9.17606 24.3829 11.0905 24.2136 11.4224C24.1872 11.4741 24.1451 11.6228 24.1201 11.7529C24.095 11.8829 24.0532 12.0241 24.0272 12.0666C24.0012 12.1092 23.9579 12.2186 23.931 12.3098C23.9042 12.4009 23.8608 12.4948 23.8347 12.5184C23.8087 12.542 23.7718 12.6147 23.7528 12.6799C23.7338 12.7451 23.6939 12.8269 23.664 12.8616C23.6341 12.8963 23.5955 12.9677 23.5782 13.0202C23.5608 13.0727 23.5207 13.1416 23.489 13.1733C23.4573 13.2051 23.4082 13.2809 23.3798 13.342C23.3516 13.403 23.3102 13.468 23.2879 13.4864C23.2656 13.5049 23.2271 13.5597 23.2023 13.6084C23.1775 13.657 23.1363 13.708 23.1108 13.7216C23.0852 13.7353 23.0471 13.7803 23.026 13.8218C23.005 13.8631 22.9642 13.9233 22.9355 13.9555C22.7254 14.1901 22.5137 14.4024 22.3743 14.5182C22.2844 14.5929 22.1739 14.6859 22.1289 14.7247C21.9134 14.9109 21.8304 14.9756 21.755 15.0165C21.71 15.0408 21.652 15.0797 21.6261 15.103C21.6002 15.1262 21.5424 15.1606 21.4976 15.1794C21.4528 15.1981 21.3909 15.2404 21.3601 15.2732C21.3293 15.306 21.2541 15.3495 21.193 15.3699C21.1319 15.3901 21.0534 15.4312 21.0186 15.4611C20.9838 15.491 20.9117 15.5281 20.8584 15.5436C20.8052 15.5591 20.7014 15.6025 20.6278 15.6403C20.5542 15.678 20.4227 15.7238 20.3357 15.7422C20.2485 15.7605 20.1195 15.8017 20.0487 15.8337C19.978 15.8657 19.8391 15.9038 19.7399 15.9185C19.6407 15.9331 19.5032 15.9649 19.4343 15.9891C19.0507 16.1239 17.5565 16.1232 17.1657 15.9879C17.0903 15.9618 16.943 15.9293 16.8383 15.9157C16.7274 15.9012 16.6139 15.8707 16.5662 15.8426C16.5212 15.816 16.3867 15.7708 16.2673 15.7422C16.1468 15.7133 16.0115 15.6638 15.9634 15.631C15.9157 15.5986 15.8331 15.5593 15.7799 15.5438C15.7266 15.5283 15.6538 15.4905 15.6181 15.4598C15.5825 15.4291 15.5041 15.3894 15.444 15.3716C15.3431 15.3416 15.0963 15.1891 14.9507 15.0669C14.9171 15.0386 14.8566 15.0019 14.8163 14.9851C14.7761 14.9685 14.7431 14.9457 14.7431 14.9345C14.7431 14.9234 14.6984 14.8864 14.6438 14.8523C14.5891 14.8182 14.4971 14.7484 14.4393 14.6974C14.3814 14.6462 14.2868 14.5637 14.2289 14.5138C14.0621 14.3702 14.0398 14.3481 13.8625 14.1524C13.5947 13.8566 13.4576 13.6928 13.4576 13.6683C13.4576 13.6558 13.4208 13.6049 13.3758 13.555C13.3308 13.5052 13.294 13.4511 13.294 13.4348C13.294 13.4185 13.2639 13.3686 13.2272 13.3239C13.1903 13.2792 13.1333 13.1893 13.1004 13.1243C13.0675 13.0592 13.0245 12.9926 13.0049 12.9764C12.9854 12.9601 12.9514 12.8924 12.9294 12.8259C12.9075 12.7594 12.8661 12.6735 12.8376 12.6349C12.809 12.5963 12.7671 12.5069 12.7445 12.4362C12.7218 12.3655 12.6794 12.2656 12.6502 12.2142C12.621 12.1628 12.5846 12.0576 12.5693 11.9804C12.554 11.9033 12.5118 11.7718 12.4757 11.6883C12.4314 11.586 12.4011 11.4599 12.383 11.3026C12.3682 11.1741 12.3305 10.9637 12.2992 10.8352C12.2288 10.5459 12.2153 9.62657 12.2775 9.351C12.3359 9.09209 12.3772 8.85538 12.3937 8.68488C12.4029 8.59092 12.4333 8.47131 12.4653 8.40393C12.4958 8.33943 12.5378 8.21321 12.5584 8.12346C12.5791 8.03371 12.6203 7.91825 12.6501 7.86683C12.6799 7.81541 12.7259 7.70105 12.7523 7.61276C12.7787 7.52441 12.8209 7.42975 12.8461 7.40241C12.8714 7.375 12.9092 7.30103 12.9303 7.23804C12.9514 7.17499 12.9919 7.09494 13.0203 7.06011C13.0714 6.99747 13.1575 6.86536 13.2706 6.67575C13.3028 6.62193 13.3528 6.54708 13.3819 6.50945C13.595 6.23412 13.6383 6.17639 13.6761 6.11743C13.7238 6.0431 14.2282 5.53229 14.3259 5.45942C14.6133 5.24498 14.7533 5.13635 14.9206 4.99781C14.9788 4.9496 15.039 4.91016 15.0543 4.91016C15.0696 4.91016 15.1324 4.87446 15.1937 4.83087C15.2551 4.78722 15.3407 4.74486 15.384 4.73674C15.4273 4.72861 15.5025 4.6904 15.5511 4.65178C15.5997 4.61315 15.6851 4.57003 15.741 4.55601C15.7968 4.54192 15.8798 4.50079 15.9254 4.46456C15.9747 4.42535 16.0622 4.38766 16.1412 4.37159C16.2143 4.35669 16.3466 4.31299 16.4354 4.27436C16.5241 4.23574 16.6714 4.19437 16.7626 4.18239C16.8538 4.17041 16.9975 4.13565 17.0819 4.10514C17.3959 3.99149 18.3068 3.95445 19.1156 4.0224ZM7.76597 12.644C7.6487 12.7006 7.58454 12.7141 7.36899 12.7274C7.05404 12.747 6.95973 12.7699 6.89715 12.8419C6.86145 12.8829 6.81336 12.902 6.7142 12.9144C6.61334 12.927 6.56444 12.9467 6.51857 12.9934C6.48497 13.0276 6.39434 13.0766 6.31721 13.1023C6.22226 13.134 6.16961 13.1659 6.15418 13.201C6.14145 13.2301 6.10177 13.2593 6.06391 13.2677C6.0268 13.2758 5.95814 13.3168 5.9114 13.3588C5.86465 13.4008 5.78244 13.4573 5.72874 13.4845C5.67504 13.5117 5.62432 13.5554 5.61602 13.5815C5.60773 13.6077 5.56525 13.6439 5.52166 13.6621C5.46994 13.6837 5.43711 13.7164 5.42711 13.7561C5.41724 13.7955 5.3844 13.8284 5.33362 13.8496C5.28284 13.8708 5.25006 13.9036 5.24013 13.9431C5.23172 13.9767 5.19485 14.0194 5.15751 14.0387C5.12046 14.0578 5.09014 14.0847 5.09014 14.0984C5.09014 14.112 5.04286 14.1691 4.98513 14.2253C4.91443 14.2939 4.87125 14.3607 4.85278 14.4296C4.83596 14.4927 4.80697 14.5402 4.77741 14.5534C4.74953 14.5658 4.71208 14.6237 4.68795 14.6916C4.66516 14.7559 4.63629 14.8118 4.62379 14.816C4.5764 14.8318 4.50827 14.9775 4.49243 15.097C4.47975 15.1922 4.45971 15.2365 4.40648 15.2862C4.34378 15.3448 4.33484 15.372 4.31381 15.5691C4.29756 15.7212 4.27664 15.8059 4.24462 15.8492C4.09889 16.0463 4.08896 17.423 4.23218 17.5737C4.2812 17.6253 4.29482 17.6684 4.30761 17.812C4.32877 18.0499 4.35629 18.1479 4.42477 18.2293C4.45661 18.2672 4.4894 18.3334 4.49758 18.3764C4.5168 18.4772 4.5591 18.5608 4.61795 18.6141C4.64371 18.6374 4.67188 18.6952 4.68058 18.7426C4.68923 18.7899 4.72657 18.8602 4.7635 18.8988C4.80043 18.9374 4.84671 19.0074 4.86634 19.0544C4.88592 19.1014 4.93208 19.1646 4.96883 19.1946C5.00558 19.2247 5.04923 19.2837 5.06583 19.3257C5.08353 19.3702 5.11766 19.4073 5.14804 19.4149C5.17661 19.4221 5.21465 19.4613 5.23271 19.5021C5.25071 19.5427 5.29009 19.5882 5.32018 19.603C5.35033 19.6178 5.39468 19.6623 5.41882 19.702C5.44295 19.7416 5.48695 19.7801 5.51663 19.7876C5.54637 19.795 5.58412 19.8315 5.60054 19.8687C5.61906 19.9105 5.6588 19.9456 5.70502 19.961C5.74604 19.9746 5.79629 20.0151 5.81668 20.051C5.85174 20.1127 5.98152 20.1726 6.08033 20.1726C6.10136 20.1726 6.11854 20.1868 6.11854 20.2041C6.11854 20.2524 6.19012 20.3052 6.29968 20.3376C6.35431 20.3538 6.39901 20.375 6.39901 20.3848C6.39901 20.423 6.56432 20.5017 6.69445 20.5254C6.78274 20.5415 6.85286 20.5707 6.89177 20.6076C6.94161 20.6547 6.99549 20.6704 7.19988 20.6973C7.37734 20.7205 7.46633 20.7437 7.5139 20.7788C7.68575 20.9059 8.85012 20.9072 9.02145 20.7806C9.07836 20.7385 9.14182 20.7221 9.30695 20.707C9.60051 20.6802 9.63381 20.6705 9.7037 20.5921C9.74098 20.5502 9.78819 20.5232 9.82407 20.5232C9.9085 20.5232 10.0334 20.4662 10.0731 20.4095C10.0944 20.3789 10.1541 20.3508 10.2332 20.3338C10.3183 20.3156 10.3793 20.2854 10.4207 20.2411C10.4545 20.2049 10.5091 20.1685 10.5421 20.1602C10.575 20.152 10.629 20.1149 10.662 20.0778C10.6951 20.0407 10.7656 19.9882 10.8188 19.9611C10.8719 19.934 10.9549 19.8732 11.0032 19.826C11.0514 19.7789 11.1055 19.7263 11.1232 19.7093C11.1879 19.6473 11.2668 19.5693 11.3041 19.5307C11.3251 19.5089 11.3805 19.4525 11.4272 19.4053C11.4738 19.3581 11.5313 19.2649 11.5549 19.1981C11.5857 19.111 11.6127 19.0729 11.6504 19.0635C11.6877 19.0541 11.7104 19.0227 11.7285 18.9555C11.7425 18.9034 11.7851 18.8325 11.823 18.798C11.8707 18.7546 11.8982 18.7011 11.9121 18.6248C11.9259 18.5487 11.954 18.494 12.0024 18.4488C12.0594 18.3954 12.078 18.3516 12.1009 18.2157C12.1164 18.1236 12.1448 18.0353 12.1639 18.0195C12.2369 17.9589 12.2654 17.854 12.2877 17.5628C12.304 17.3513 12.3238 17.2374 12.3548 17.177C12.4437 17.0039 12.4322 16.4264 12.3365 16.2474C12.3226 16.2216 12.3014 16.0704 12.2893 15.9113C12.2652 15.5962 12.2455 15.5194 12.1763 15.4709C12.1437 15.4481 12.1232 15.3907 12.1046 15.2708C12.0736 15.071 12.0402 14.9896 11.9816 14.9711C11.9529 14.9619 11.9334 14.9255 11.9232 14.8623C11.9141 14.8049 11.8792 14.7346 11.8355 14.6853C11.7957 14.6402 11.7473 14.5548 11.728 14.4956C11.706 14.4278 11.6736 14.3794 11.6408 14.3649C11.6121 14.3524 11.5783 14.3124 11.5656 14.276C11.5085 14.1124 10.929 13.533 10.7449 13.4556C10.7051 13.4389 10.6602 13.4009 10.6452 13.3711C10.6301 13.3414 10.5805 13.3042 10.5348 13.2885C10.4891 13.2728 10.4198 13.228 10.3808 13.189C10.3314 13.1396 10.2772 13.1131 10.2019 13.1018C10.1252 13.0904 10.0711 13.0635 10.0151 13.0091C9.95502 12.9508 9.90722 12.9285 9.81414 12.9157C9.74285 12.906 9.67513 12.8808 9.65146 12.8554C9.58064 12.7794 9.45548 12.7444 9.19166 12.7267C8.99772 12.7137 8.92071 12.6989 8.87624 12.666C8.72128 12.5514 7.98784 12.5369 7.76597 12.644ZM8.79853 12.7287C9.29894 12.7925 9.40155 12.812 9.47885 12.8576C9.52087 12.8823 9.6202 12.9194 9.69961 12.94C9.77896 12.9606 9.88659 13.0074 9.93871 13.0441C9.99083 13.0807 10.0779 13.1236 10.1322 13.1393C10.1865 13.1549 10.2507 13.1863 10.275 13.2089C10.2992 13.2315 10.3653 13.2734 10.4217 13.3019C10.4782 13.3305 10.5633 13.3867 10.611 13.4268C10.6587 13.4669 10.7464 13.5365 10.8059 13.5815C11.0025 13.73 11.5177 14.2657 11.5177 14.3215C11.5177 14.3337 11.553 14.3779 11.5962 14.4198C11.6394 14.4616 11.6877 14.5399 11.7036 14.5938C11.7195 14.6476 11.7525 14.7134 11.777 14.74C11.8543 14.8238 12.0312 15.1958 12.0669 15.3496C12.0857 15.4308 12.1282 15.5491 12.1614 15.6124C12.2132 15.7116 12.3244 16.5151 12.3154 16.7251C12.3135 16.7697 12.2667 17.2639 12.2426 17.4947C12.2259 17.655 12.2001 17.7653 12.1593 17.8515C12.1268 17.9201 12.0885 18.0349 12.0741 18.1066C12.0597 18.1783 12.0216 18.2754 11.9894 18.3224C11.9573 18.3695 11.9081 18.4658 11.8799 18.5365C11.8518 18.6072 11.8009 18.706 11.7668 18.756C11.7326 18.806 11.7046 18.8615 11.7046 18.8792C11.7046 18.897 11.6639 18.956 11.6142 19.0104C11.5645 19.0647 11.5158 19.1355 11.5061 19.1676C11.4813 19.2498 10.848 19.8751 10.7271 19.9368C10.6722 19.9648 10.6212 20.0035 10.6138 20.0227C10.6064 20.042 10.557 20.0798 10.5039 20.1067C10.4509 20.1336 10.3781 20.1802 10.3421 20.2103C10.3062 20.2403 10.2326 20.2764 10.1785 20.2904C10.1245 20.3044 10.0382 20.3453 9.98674 20.3812C9.93532 20.4171 9.85118 20.46 9.79976 20.4765C9.74834 20.493 9.65251 20.535 9.58678 20.5698C9.50334 20.614 9.40108 20.6416 9.24787 20.6611C9.12721 20.6764 8.97061 20.7037 8.89991 20.7215C8.52659 20.816 8.07397 20.8211 7.70392 20.7351C7.59681 20.7102 7.42526 20.6775 7.32259 20.6625C7.21198 20.6463 7.08349 20.6088 7.00706 20.5704C6.93618 20.5347 6.83083 20.4978 6.77298 20.4883C6.65629 20.4692 6.59727 20.4439 6.52756 20.3832C6.50185 20.3608 6.42928 20.3233 6.36629 20.2998C6.3033 20.2763 6.21992 20.228 6.181 20.1924C6.14203 20.1568 6.07933 20.121 6.04159 20.1127C6.0039 20.1044 5.93477 20.0642 5.88803 20.0233C5.84128 19.9824 5.76409 19.9203 5.71653 19.8852C5.56986 19.777 5.1616 19.3544 5.07892 19.2251C5.03579 19.1578 4.98899 19.0955 4.97485 19.0868C4.96077 19.0781 4.92717 19.0269 4.90023 18.9732C4.87329 18.9194 4.82742 18.8491 4.79827 18.817C4.76911 18.7849 4.7278 18.7046 4.70641 18.6386C4.68497 18.5726 4.64734 18.5004 4.62274 18.4782C4.59808 18.4558 4.55496 18.3685 4.52685 18.284C4.49874 18.1996 4.4555 18.0962 4.43079 18.0543C4.40607 18.0124 4.37148 17.8896 4.35395 17.7814C4.33648 17.6731 4.29774 17.507 4.26788 17.412C4.19005 17.1642 4.189 16.3877 4.26607 16.0824C4.30837 15.9149 4.3886 15.4997 4.38889 15.4473C4.38889 15.4386 4.4139 15.4018 4.44446 15.3655C4.47496 15.3291 4.51382 15.2373 4.53077 15.1614C4.54771 15.0855 4.58452 14.9961 4.61245 14.9628C4.64044 14.9293 4.68672 14.8476 4.71529 14.781C4.74387 14.7144 4.78769 14.6414 4.8127 14.6188C4.83765 14.5962 4.87885 14.5309 4.90415 14.4736C4.99098 14.2774 5.60872 13.6345 5.83427 13.5057C5.90287 13.4665 5.96463 13.4197 5.97158 13.4017C5.97848 13.3837 6.03346 13.344 6.09371 13.3135C6.15395 13.2829 6.21671 13.2417 6.23318 13.2219C6.2496 13.2021 6.32253 13.1638 6.39527 13.1369C6.46802 13.1099 6.56438 13.0628 6.60937 13.0322C6.65436 13.0017 6.74376 12.9639 6.80804 12.9484C6.87231 12.9328 6.97375 12.8957 7.03347 12.866C7.14361 12.8111 7.30039 12.7799 7.61066 12.7509C7.70503 12.7421 7.81021 12.7264 7.84439 12.7161C7.95009 12.6842 8.50759 12.6915 8.79853 12.7287ZM17.209 18.6342C17.1832 18.6485 17.1434 18.6798 17.1204 18.7036C17.0895 18.7356 17.0439 18.747 16.9451 18.7475C16.7421 18.7483 16.6335 18.7814 16.5666 18.8627C16.5275 18.9104 16.4868 18.9342 16.445 18.9341C16.3498 18.9337 16.2575 18.9761 16.1877 19.0522C16.1531 19.0899 16.1053 19.1208 16.0816 19.1208C16.0578 19.1208 15.9919 19.1629 15.9351 19.2143C15.8783 19.2658 15.8243 19.3078 15.8152 19.3078C15.7663 19.3078 15.468 19.6403 15.4435 19.722C15.4263 19.7793 15.3924 19.8259 15.3501 19.8502C15.3038 19.8767 15.2787 19.914 15.2677 19.9727C15.259 20.0191 15.2322 20.0676 15.2081 20.0805C15.1502 20.1114 15.1039 20.2069 15.0841 20.3362C15.0747 20.397 15.0447 20.466 15.0129 20.4998C14.9193 20.5992 14.907 20.7056 14.9074 21.4114C14.9079 22.126 14.9203 22.2386 15.0067 22.3112C15.0466 22.3448 15.0698 22.3999 15.0887 22.5063C15.116 22.6598 15.1475 22.7203 15.2001 22.7203C15.2169 22.7203 15.2472 22.7772 15.2676 22.8474C15.2933 22.936 15.3252 22.9892 15.3727 23.0231C15.4102 23.0498 15.4528 23.1074 15.4672 23.1512C15.485 23.2052 15.5146 23.2381 15.5592 23.2537C15.6013 23.2684 15.6307 23.2991 15.6407 23.3389C15.6512 23.3805 15.6832 23.4124 15.7373 23.435C15.7818 23.4536 15.8183 23.4828 15.8183 23.4999C15.8183 23.5414 15.8943 23.6084 15.9412 23.6084C15.9618 23.6084 16.0013 23.6402 16.029 23.6791C16.0792 23.7495 16.207 23.8188 16.287 23.8188C16.3103 23.8188 16.336 23.8398 16.3442 23.8655C16.3655 23.9328 16.4402 23.9662 16.6108 23.9844C16.7194 23.9961 16.7709 24.0134 16.7978 24.0471C16.8772 24.1468 16.9299 24.1558 17.4859 24.1653C18.1891 24.1773 18.3535 24.162 18.439 24.0765C18.4902 24.0253 18.5389 24.0066 18.6716 23.9868C18.7997 23.9678 18.86 23.9454 18.9262 23.8922C18.974 23.8538 19.0506 23.8068 19.0966 23.7875C19.1426 23.7684 19.192 23.7307 19.2063 23.7039C19.2207 23.677 19.2698 23.6395 19.3154 23.6204C19.3611 23.6013 19.404 23.5649 19.4106 23.5395C19.4173 23.514 19.4586 23.472 19.5026 23.4461C19.5465 23.4202 19.5901 23.3784 19.5994 23.3534C19.6088 23.3282 19.6532 23.283 19.6982 23.2528C19.7431 23.2225 19.7834 23.1745 19.7874 23.146C19.7915 23.1175 19.8092 23.0942 19.8266 23.0942C19.873 23.0942 19.9296 23.0302 19.9468 22.9582C19.9551 22.9237 19.9956 22.864 20.0368 22.8254C20.0924 22.7735 20.1162 22.7265 20.1285 22.6441C20.1406 22.5632 20.1647 22.5147 20.2169 22.4659C20.2833 22.4039 20.2908 22.3804 20.3161 22.1563C20.3347 21.9924 20.3583 21.8915 20.389 21.8448C20.4543 21.7454 20.4562 21.2078 20.3917 21.0842C20.3657 21.0345 20.3403 20.9106 20.3268 20.7686C20.2999 20.486 20.2922 20.4575 20.2228 20.383C20.1928 20.3508 20.1566 20.2721 20.1422 20.208C20.116 20.0905 20.0638 20.009 20.0149 20.009C20.0003 20.009 19.9752 19.9601 19.9593 19.9004C19.9411 19.8324 19.9012 19.7647 19.8524 19.7192C19.8096 19.6793 19.7623 19.6232 19.7474 19.5944C19.7324 19.5656 19.6896 19.5262 19.6523 19.507C19.6151 19.4877 19.5778 19.4504 19.5694 19.4241C19.5611 19.3978 19.513 19.3501 19.4626 19.3183C19.4122 19.2865 19.3709 19.2443 19.3709 19.2246C19.3709 19.186 19.2024 19.0989 19.1255 19.0978C19.0991 19.0975 19.0624 19.0684 19.041 19.0307C19.014 18.9833 18.9737 18.9569 18.8999 18.9383C18.843 18.924 18.7719 18.8861 18.7419 18.8542C18.6821 18.7905 18.6474 18.78 18.3933 18.7486C18.2991 18.7369 18.2043 18.7114 18.1826 18.6918C18.0943 18.6118 17.3298 18.5666 17.209 18.6342ZM18.2407 18.7786C18.4288 18.8122 18.5782 18.8522 18.6263 18.8819C18.6695 18.9085 18.766 18.9531 18.8408 18.9811C18.9156 19.0091 18.9828 19.0475 18.99 19.0664C18.9973 19.0853 19.0585 19.1253 19.126 19.1551C19.3129 19.2378 19.8001 19.7298 19.9137 19.9506C19.9401 20.002 19.9859 20.0666 20.0153 20.0941C20.0448 20.1216 20.0804 20.1899 20.0944 20.246C20.1084 20.3021 20.152 20.4125 20.1913 20.4915C20.3773 20.866 20.3696 21.9782 20.1781 22.3814C20.1354 22.4713 20.0829 22.5818 20.0615 22.6268C19.9875 22.7821 19.8692 22.9804 19.8201 23.0314C19.4713 23.3934 19.2948 23.5636 19.2378 23.5931C19.1998 23.6127 19.1545 23.6461 19.1369 23.6672C19.1193 23.6884 19.0458 23.7356 18.9736 23.772C18.9014 23.8085 18.8289 23.8544 18.8126 23.874C18.7964 23.8936 18.7233 23.9211 18.6504 23.9351C18.5775 23.949 18.4652 23.9857 18.401 24.0167C18.1101 24.1568 17.2514 24.1674 16.9461 24.0348C16.8529 23.9943 16.7372 23.9545 16.689 23.9465C16.5412 23.9216 16.4569 23.8893 16.4127 23.8404C16.3894 23.8148 16.3272 23.7746 16.2742 23.7512C16.138 23.6909 15.844 23.4698 15.7167 23.3318C15.689 23.3018 15.6269 23.2369 15.5787 23.1876C15.5305 23.1383 15.491 23.088 15.491 23.0759C15.491 23.0638 15.4582 23.013 15.4181 22.963C15.378 22.9131 15.3256 22.8301 15.3017 22.7787C15.2778 22.7273 15.2366 22.6584 15.2101 22.6258C15.1836 22.5931 15.1457 22.5037 15.1258 22.4271C15.1059 22.3505 15.0707 22.2563 15.0475 22.2177C14.9086 21.9868 14.8931 20.8929 15.0255 20.667C15.0508 20.624 15.092 20.5147 15.1171 20.4241C15.1422 20.3334 15.1783 20.2421 15.1974 20.221C15.2165 20.2 15.2585 20.1228 15.2909 20.0496C15.3233 19.9765 15.3719 19.9032 15.399 19.8868C15.426 19.8705 15.469 19.8169 15.4943 19.7678C15.5498 19.6603 15.8951 19.3078 15.9449 19.3078C15.9643 19.3078 15.9915 19.2868 16.0052 19.261C16.019 19.2353 16.0851 19.1866 16.1521 19.1528C16.2192 19.119 16.2793 19.0837 16.2857 19.0743C16.3034 19.0485 16.4428 18.9806 16.4782 18.9806C16.4953 18.9806 16.5658 18.9442 16.635 18.8997C16.7117 18.8503 16.8023 18.8137 16.8679 18.8057C16.9269 18.7986 17.0383 18.7783 17.1155 18.7607C17.3532 18.7065 17.8841 18.7149 18.2407 18.7786Z" fill="#D0021B"/>
</g>
<defs>
<clipPath id="clip0_2586_13646">
<rect width="23.3728" height="27.0248" fill="white" transform="translate(2.72852 0.375977)"/>
</clipPath>
</defs>
</svg>
