<svg width="28" height="28" viewBox="0 0 28 28" fill="none" xmlns="http://www.w3.org/2000/svg">
<g clipPath="url(#clip0_2586_13596)">
<path fillRule="evenodd" clipRule="evenodd" d="M6.13479 3.87592C6.04115 3.88809 5.94393 3.91666 5.91873 3.9395C5.89353 3.96227 5.81374 4.00071 5.74145 4.02483C5.66915 4.04895 5.58848 4.09104 5.5622 4.11827C5.53592 4.14556 5.49849 4.16786 5.4791 4.16786C5.45964 4.16786 5.391 4.20988 5.32641 4.26116C5.26189 4.31251 5.1996 4.3546 5.18798 4.35474C5.16034 4.35507 4.9284 4.59404 4.9284 4.62222C4.9284 4.63417 4.88928 4.69316 4.84152 4.75322C4.65856 4.98327 4.63849 5.01556 4.60802 5.12859C4.5908 5.19257 4.5537 5.27622 4.5256 5.31452C4.42446 5.45215 4.42142 5.6924 4.42094 13.5391C4.42047 21.6149 4.42148 21.6845 4.53972 21.8637C4.57363 21.9151 4.60964 21.9925 4.61964 22.0356C4.62964 22.0787 4.66707 22.1488 4.70288 22.1913C4.73869 22.2339 4.76801 22.2842 4.76801 22.3031C4.76801 22.3703 5.40546 22.9863 5.47491 22.9863C5.49336 22.9863 5.56132 23.0222 5.62605 23.0661C5.69071 23.1099 5.77259 23.146 5.80793 23.1463C5.84326 23.1465 5.93947 23.1798 6.02176 23.2202L6.17134 23.2937H14.1371H22.1029L22.1997 23.2335C22.2529 23.2005 22.3593 23.1615 22.4362 23.1469C22.5131 23.1323 22.6105 23.0913 22.6528 23.0557C22.6952 23.0201 22.7653 22.9831 22.8087 22.9736C22.8521 22.964 22.9067 22.9269 22.9303 22.8911C22.9537 22.8553 22.988 22.8259 23.0063 22.8259C23.0247 22.8259 23.1176 22.7395 23.2129 22.6338C23.3081 22.5281 23.4166 22.4108 23.454 22.3731C23.4914 22.3355 23.543 22.2486 23.5689 22.1801C23.5947 22.1115 23.6316 22.0495 23.6508 22.0421C23.6701 22.0347 23.6938 21.9784 23.7037 21.9169C23.7135 21.8555 23.7543 21.7311 23.7944 21.6406L23.8671 21.4761V13.5637V5.65146L23.7974 5.51775C23.759 5.44424 23.7209 5.33182 23.7127 5.26791C23.7045 5.20392 23.6743 5.12576 23.6454 5.09414C23.6166 5.06252 23.5783 4.9907 23.5603 4.93449C23.5424 4.87834 23.5103 4.82578 23.4893 4.81767C23.4681 4.80956 23.4344 4.77132 23.4143 4.73268C23.3509 4.61086 22.9103 4.19461 22.8447 4.19461C22.8304 4.19461 22.7743 4.15935 22.72 4.11624C22.6658 4.07314 22.5829 4.02983 22.5359 4.0201C22.4889 4.0103 22.4086 3.97821 22.3575 3.94876C22.297 3.91389 22.1805 3.88714 22.0234 3.87194C21.7176 3.84228 6.36423 3.8462 6.13479 3.87592ZM15.0568 8.24192L15.1132 8.293L15.1063 13.9446L15.0995 19.5961L15.0245 19.6607L14.9494 19.7252L14.0087 19.7246C12.8749 19.7239 12.9522 19.7477 12.9186 19.3884C12.8937 19.1221 12.8884 8.35725 12.9132 8.2928C12.9627 8.16375 14.9191 8.11734 15.0568 8.24192ZM10.9733 9.8324L11.0364 9.88355L11.0443 14.6239C11.0526 19.6404 11.0539 19.563 10.9553 19.6617L10.8918 19.7252H9.94759C8.9195 19.7252 8.92436 19.7259 8.86113 19.5726C8.83829 19.5171 8.83221 18.2676 8.83741 14.6907L8.84444 9.88355L8.90754 9.8324C9.00517 9.75342 10.8756 9.75342 10.9733 9.8324ZM19.1585 13.1193C19.2137 13.1652 19.2278 19.4803 19.1729 19.6007C19.119 19.7191 19.0662 19.7252 18.0894 19.7252H17.1658L17.0882 19.6421C17.0382 19.5886 17.0101 19.5293 17.009 19.4751C17.0071 19.3766 17.0074 13.6613 17.0094 13.3575C17.0113 13.0532 16.9481 13.069 18.136 13.0765C18.919 13.0814 19.1231 13.0899 19.1585 13.1193Z" fill="#D0021B"/>
<path fillRule="evenodd" clipRule="evenodd" d="M6.47904 3.76185C6.26027 3.77915 5.87456 3.85523 5.83754 3.88826C5.81545 3.90799 5.72822 3.94995 5.6437 3.98157C5.55918 4.01312 5.49 4.04791 5.49 4.05886C5.49 4.06974 5.44588 4.09973 5.3919 4.12547C5.11388 4.2581 4.66601 4.7459 4.56838 5.02243C4.54805 5.08013 4.51048 5.15924 4.48488 5.19829C4.3209 5.44861 4.33003 4.95966 4.32854 13.538C4.32712 22.0247 4.32158 21.7008 4.47123 21.918C4.49657 21.9548 4.53359 22.027 4.55352 22.0784C4.67912 22.4026 5.12388 22.892 5.44135 23.0555C5.51013 23.0909 5.57344 23.1312 5.58202 23.1451C5.59053 23.1589 5.63654 23.1786 5.68411 23.1887C5.73174 23.1989 5.83085 23.2351 5.90436 23.2692C6.16028 23.388 6.17677 23.3882 14.1202 23.3882C21.9177 23.3882 22.1337 23.3854 22.3347 23.2817C22.3886 23.2539 22.4848 23.2173 22.5486 23.2003C22.6123 23.1833 22.6826 23.1537 22.7046 23.1345C22.7267 23.1154 22.7894 23.0748 22.8439 23.0445C23.0332 22.9393 23.6135 22.3658 23.6135 22.2839C23.6135 22.2659 23.6429 22.2079 23.6789 22.1549C23.7149 22.1019 23.7526 22.024 23.7627 21.9816C23.7728 21.9393 23.8125 21.8385 23.8509 21.7576L23.9209 21.6106V13.578V5.54543L23.8606 5.43077C23.8275 5.36767 23.7878 5.26011 23.7725 5.19167C23.7174 4.94622 23.2853 4.3691 23.0751 4.2604C23.033 4.23864 22.9987 4.2106 22.9987 4.1981C22.9987 4.18554 22.9634 4.16067 22.9204 4.14284C22.8774 4.125 22.8214 4.08744 22.7959 4.05933C22.7704 4.03116 22.7016 3.99528 22.6431 3.97947C22.5844 3.96373 22.5052 3.92806 22.4669 3.90029C22.2699 3.75726 22.46 3.76057 14.1909 3.7574C10.0009 3.75577 6.53052 3.7578 6.47904 3.76185ZM22.0237 3.87286C22.1808 3.88806 22.2973 3.91482 22.3578 3.94968C22.4089 3.97913 22.4892 4.01123 22.5362 4.02102C22.5832 4.03075 22.666 4.07406 22.7203 4.11716C22.7745 4.16027 22.8307 4.19554 22.845 4.19554C22.9105 4.19554 23.3512 4.61179 23.4146 4.7336C23.4347 4.77225 23.4684 4.81049 23.4896 4.81859C23.5106 4.8267 23.5427 4.87926 23.5606 4.93541C23.5786 4.99162 23.6169 5.06344 23.6457 5.09506C23.6745 5.12668 23.7048 5.20485 23.713 5.26883C23.7212 5.33274 23.7593 5.44516 23.7977 5.51867L23.8674 5.65238V13.5646V21.477L23.7947 21.6416C23.7546 21.732 23.7138 21.8564 23.704 21.9178C23.6941 21.9793 23.6704 22.0356 23.6511 22.043C23.6318 22.0504 23.595 22.1125 23.5691 22.181C23.5433 22.2495 23.4917 22.3364 23.4543 22.3741C23.4169 22.4117 23.3084 22.529 23.2132 22.6347C23.1179 22.7404 23.025 22.8269 23.0066 22.8269C22.9882 22.8269 22.954 22.8562 22.9305 22.892C22.907 22.9279 22.8524 22.965 22.809 22.9745C22.7656 22.984 22.6955 23.021 22.6531 23.0566C22.6108 23.0922 22.5134 23.1333 22.4365 23.1479C22.3596 23.1624 22.2532 23.2014 22.2 23.2345L22.1032 23.2947H14.1374H6.17163L6.02205 23.2212C5.93976 23.1808 5.84355 23.1474 5.80822 23.1472C5.77288 23.1469 5.691 23.1108 5.62634 23.067C5.56161 23.0231 5.49365 22.9873 5.4752 22.9873C5.40575 22.9873 4.7683 22.3712 4.7683 22.3041C4.7683 22.2852 4.73898 22.2348 4.70317 22.1923C4.66736 22.1498 4.62993 22.0796 4.61993 22.0365C4.60994 21.9934 4.57392 21.9161 4.54001 21.8646C4.42177 21.6855 4.42076 21.6158 4.42123 13.54C4.42171 5.69332 4.42475 5.45307 4.52589 5.31545C4.55399 5.27714 4.59109 5.1935 4.60831 5.12951C4.63878 5.01648 4.65885 4.98419 4.84181 4.75414C4.88957 4.69408 4.92869 4.63509 4.92869 4.62314C4.92869 4.59496 5.16063 4.356 5.18827 4.35566C5.19989 4.35552 5.26218 4.31343 5.3267 4.26208C5.39129 4.2108 5.45993 4.16878 5.47939 4.16878C5.49878 4.16878 5.53621 4.14649 5.56249 4.11919C5.58877 4.09196 5.66944 4.04987 5.74174 4.02575C5.81403 4.00163 5.89382 3.96319 5.91902 3.94042C5.94422 3.91759 6.04144 3.88901 6.13508 3.87685C6.36452 3.84712 21.7179 3.8432 22.0237 3.87286ZM13.012 8.21609C12.9665 8.23622 12.9221 8.27115 12.9135 8.29372C12.8887 8.35817 12.894 19.123 12.9189 19.3893C12.9525 19.7487 12.8751 19.7248 14.009 19.7255L14.9497 19.7261L15.0248 19.6616L15.0998 19.5971L15.1066 13.9455L15.1135 8.29392L15.0571 8.24284C14.9825 8.17542 13.1584 8.1515 13.012 8.21609ZM14.9462 8.28075C14.9793 8.30176 14.9821 9.09027 14.9798 17.8483C14.9794 19.4763 14.9783 19.5134 14.926 19.5657C14.8747 19.617 14.8369 19.6192 14.0057 19.6192H13.1389L13.0835 19.5488L13.0281 19.4784V13.9006C13.0281 9.59794 13.0355 8.3154 13.0602 8.29068C13.0973 8.25359 14.8885 8.24413 14.9462 8.28075ZM8.90783 9.83332L8.84473 9.88447L8.8377 14.6916C8.8325 18.2685 8.83858 19.518 8.86142 19.5735C8.92465 19.7268 8.91979 19.7261 9.94788 19.7261H10.8921L10.9556 19.6627C11.0542 19.564 11.0529 19.6413 11.0446 14.6248L11.0366 9.88447L10.9735 9.83332C10.8759 9.75434 9.00546 9.75434 8.90783 9.83332ZM10.8715 9.88703C10.8954 9.91102 10.9047 11.0694 10.9099 14.7068L10.9168 19.495L10.8585 19.5571L10.8001 19.6192H9.92417C9.04931 19.6192 9.04822 19.6192 9.00661 19.5598C8.95026 19.4793 8.94222 9.98304 8.99843 9.90859C9.04005 9.85352 9.14714 9.84805 10.1096 9.85224C10.6315 9.85454 10.8489 9.86447 10.8715 9.88703ZM17.0845 13.1116C17.0143 13.1502 17.011 13.1615 17.0097 13.3584C17.0076 13.6622 17.0074 19.3775 17.0093 19.4761C17.0104 19.5302 17.0385 19.5895 17.0885 19.6431L17.1661 19.7261H18.0897C19.0665 19.7261 19.1193 19.72 19.1732 19.6017C19.2281 19.4813 19.214 13.1661 19.1588 13.1202C19.0895 13.0627 17.1879 13.0548 17.0845 13.1116ZM19.0279 13.1546L19.096 13.1856V16.3368V19.4879L19.0304 19.5535L18.9648 19.6192H18.0968H17.2287L17.1733 19.5488C17.0931 19.4468 17.0847 13.2215 17.1647 13.1608C17.2278 13.1129 18.924 13.1073 19.0279 13.1546Z" fill="#D0021B"/>
<path fillRule="evenodd" clipRule="evenodd" d="M6.27306 3.72732C6.24137 3.74948 6.13949 3.77515 6.04652 3.78441C5.8914 3.79981 5.7306 3.86041 5.7306 3.90345C5.7306 3.91325 5.67716 3.93467 5.61189 3.95115C5.54663 3.96757 5.48569 3.99324 5.47643 4.00817C5.46724 4.02304 5.40934 4.06047 5.34786 4.09121C5.28638 4.12195 5.21206 4.16911 5.1826 4.19593C4.83148 4.51611 4.57117 4.83263 4.53941 4.97816C4.52921 5.02519 4.49313 5.0966 4.45942 5.13687C4.41821 5.18605 4.39246 5.26077 4.38111 5.36408C4.37186 5.4488 4.33787 5.57224 4.30565 5.63838L4.24707 5.75864V13.564C4.24707 21.0735 4.24889 21.374 4.29612 21.4897C4.32308 21.5559 4.35652 21.6762 4.37044 21.757C4.38436 21.8379 4.4201 21.9376 4.44989 21.9785C4.47969 22.0196 4.51995 22.0977 4.53934 22.1523C4.58468 22.2797 4.74723 22.5258 4.81946 22.5764C4.85013 22.5979 4.8752 22.6324 4.8752 22.6531C4.8752 22.6738 4.89965 22.7038 4.92952 22.7198C4.95938 22.7358 5.04653 22.8096 5.12328 22.8837C5.20003 22.958 5.31111 23.0399 5.37009 23.0658C5.42914 23.0918 5.49386 23.1328 5.51393 23.157C5.53399 23.1811 5.59777 23.2086 5.65567 23.2178C5.71357 23.2271 5.77539 23.2491 5.79309 23.2668C5.85958 23.3333 5.94126 23.3583 6.14698 23.3753C6.26346 23.3849 6.40277 23.4038 6.45655 23.4173C6.51472 23.4319 9.60542 23.4418 14.0796 23.4418C22.3032 23.4418 22.1316 23.4448 22.4507 23.2945C22.5242 23.2599 22.6254 23.2185 22.6754 23.2026C22.7256 23.1866 22.7834 23.1496 22.8039 23.1202C22.8246 23.0909 22.8588 23.0668 22.8802 23.0668C22.9015 23.0668 22.9554 23.0338 22.9999 22.9933C23.0444 22.9529 23.1341 22.8777 23.1993 22.8262C23.2644 22.7748 23.3251 22.7068 23.3342 22.6751C23.3433 22.6434 23.3736 22.6115 23.4016 22.6042C23.4296 22.5969 23.4638 22.5613 23.4775 22.5251C23.4913 22.4889 23.5216 22.452 23.5449 22.443C23.5681 22.4341 23.6017 22.3934 23.6194 22.3526C23.6371 22.3117 23.6776 22.2461 23.7094 22.2067C23.7412 22.1673 23.7756 22.0891 23.7858 22.0329C23.796 21.9768 23.8366 21.8837 23.876 21.8261L23.9476 21.7215V13.5931V5.46461L23.8866 5.36124C23.8529 5.30435 23.8126 5.19781 23.7968 5.1245C23.7811 5.0512 23.7458 4.9687 23.7182 4.94114C23.6907 4.91364 23.6505 4.84878 23.6289 4.79696C23.6072 4.74514 23.5772 4.70278 23.5621 4.70278C23.547 4.70278 23.5145 4.66366 23.4898 4.61589C23.4309 4.50185 23.113 4.19451 22.9846 4.12742C22.929 4.09837 22.8577 4.04932 22.826 4.01838C22.7944 3.9875 22.7222 3.95352 22.6657 3.94291C22.6092 3.93237 22.5434 3.8994 22.5193 3.86967C22.4851 3.82744 22.4238 3.81001 22.2378 3.78961C22.107 3.77522 21.9754 3.74623 21.9454 3.72522C21.8604 3.66577 6.35798 3.6678 6.27306 3.72732ZM22.1032 3.80441C22.2905 3.83285 22.4226 3.86744 22.4669 3.89967C22.5052 3.92744 22.5844 3.96311 22.6431 3.97885C22.7017 3.99466 22.7704 4.03054 22.7959 4.05871C22.8214 4.08682 22.8774 4.12438 22.9204 4.14222C22.9635 4.16005 22.9987 4.18492 22.9987 4.19748C22.9987 4.20998 23.0331 4.23802 23.0751 4.25977C23.2853 4.36848 23.7175 4.9456 23.7725 5.19105C23.7879 5.25949 23.8275 5.36705 23.8606 5.43015L23.9209 5.54481V13.5774V21.61L23.851 21.757C23.8125 21.8379 23.7728 21.9387 23.7627 21.981C23.7527 22.0233 23.715 22.1013 23.6789 22.1543C23.6429 22.2072 23.6135 22.2653 23.6135 22.2832C23.6135 22.3651 23.0333 22.9387 22.8439 23.0439C22.7894 23.0742 22.7267 23.1147 22.7046 23.1339C22.6826 23.1531 22.6123 23.1827 22.5486 23.1997C22.4848 23.2167 22.3886 23.2533 22.3347 23.2811C22.1337 23.3848 21.9177 23.3876 14.1202 23.3876C6.17678 23.3876 6.16029 23.3873 5.90437 23.2686C5.83086 23.2345 5.73175 23.1982 5.68412 23.1881C5.63655 23.178 5.59054 23.1583 5.58203 23.1445C5.57345 23.1306 5.51014 23.0903 5.44137 23.0549C5.12389 22.8914 4.67913 22.402 4.55353 22.0778C4.5336 22.0264 4.49658 21.9542 4.47124 21.9174C4.32159 21.7002 4.32713 22.0241 4.32855 13.5373C4.33004 4.95904 4.32092 5.44799 4.48489 5.19767C4.5105 5.15862 4.54806 5.07951 4.5684 5.02181C4.66602 4.74528 5.11389 4.25748 5.39191 4.12485C5.44589 4.09911 5.49001 4.06911 5.49001 4.05824C5.49001 4.04729 5.55919 4.0125 5.64371 3.98095C5.72823 3.94933 5.81546 3.90737 5.83755 3.88764C5.87457 3.8546 6.26029 3.77853 6.47905 3.76123C6.9555 3.72353 21.8419 3.76468 22.1032 3.80441ZM13.0602 8.29006C13.0355 8.31478 13.0281 9.59732 13.0281 13.8999V19.4777L13.0835 19.5481L13.1389 19.6186H14.0057C14.8369 19.6186 14.8747 19.6164 14.926 19.5651C14.9783 19.5128 14.9794 19.4757 14.9799 17.8477C14.9821 9.08965 14.9793 8.30114 14.9462 8.28013C14.8885 8.24351 13.0973 8.25296 13.0602 8.29006ZM14.9194 13.8968C14.9236 17.3891 14.9166 19.505 14.9009 19.5208C14.8584 19.5633 13.1321 19.55 13.1048 19.5069C13.0782 19.465 13.0732 8.3287 13.0997 8.30215C13.1097 8.29222 13.5217 8.28715 14.0153 8.29107L14.9126 8.2981L14.9194 13.8968ZM9.20559 9.85608C9.08181 9.86155 9.02223 9.87648 8.99844 9.90797C8.94223 9.98242 8.95027 19.4787 9.00662 19.5591C9.04824 19.6185 9.04932 19.6186 9.92418 19.6186H10.8001L10.8585 19.5564L10.9168 19.4944L10.9099 14.7062C10.9047 11.0688 10.8955 9.9104 10.8715 9.88641C10.8415 9.85642 9.68008 9.83527 9.20559 9.85608ZM10.8308 9.97735C10.8786 10.1095 10.8773 19.4664 10.8295 19.506C10.7741 19.5518 9.04979 19.5621 9.03236 19.5166C9.01277 19.4656 9.01574 10.0219 9.03533 9.94871L9.05148 9.88858H9.92506H10.7987L10.8308 9.97735ZM17.1647 13.1602C17.0847 13.2209 17.0931 19.4462 17.1733 19.5481L17.2287 19.6186H18.0968H18.9648L19.0304 19.5529L19.096 19.4873V16.3362V13.185L19.0279 13.154C18.9241 13.1067 17.2278 13.1123 17.1647 13.1602ZM18.9735 13.1659C19.0228 13.1848 19.0401 19.4935 18.9909 19.5239C18.9326 19.5599 17.2183 19.5442 17.1949 19.5075C17.1556 19.4454 17.1654 13.1833 17.2048 13.1674C17.253 13.148 18.9231 13.1466 18.9735 13.1659Z" fill="#D0021B"/>
<path fillRule="evenodd" clipRule="evenodd" d="M0.651367 13.8986V27.264H14.1638H27.6762V13.8986V0.533203H14.1638H0.651367V13.8986ZM22.0405 3.7043C22.0883 3.74794 22.1484 3.76429 22.2983 3.77429C22.4628 3.78537 22.5053 3.79855 22.567 3.85773C22.6074 3.89638 22.6711 3.928 22.7088 3.928C22.7463 3.928 22.8205 3.96245 22.8735 4.00461C22.9265 4.04677 23.006 4.09616 23.05 4.1144C23.0941 4.13264 23.137 4.16919 23.1454 4.19554C23.1538 4.22189 23.1907 4.25101 23.2274 4.26027C23.2642 4.26945 23.3051 4.30574 23.3185 4.3408C23.3318 4.37587 23.3669 4.41228 23.3964 4.4216C23.4259 4.431 23.457 4.46066 23.4655 4.48761C23.4741 4.51457 23.5172 4.57436 23.5613 4.62051C23.6053 4.66658 23.6485 4.73982 23.6572 4.7832C23.6659 4.82657 23.695 4.869 23.7219 4.87751C23.772 4.89346 23.7825 4.91589 23.815 5.07642C23.8252 5.12729 23.8587 5.20283 23.8894 5.24424C23.9343 5.30505 23.9481 5.37376 23.9606 5.59928C23.9697 5.76204 23.9897 5.89236 24.0085 5.91121C24.0624 5.96506 24.0548 21.1632 24.0009 21.2666C23.9756 21.315 23.9609 21.4186 23.9608 21.5485C23.9606 21.7741 23.9373 21.861 23.8548 21.9435C23.8236 21.9746 23.8002 22.0332 23.8002 22.08C23.8002 22.1821 23.7575 22.2654 23.705 22.2654C23.683 22.2654 23.6587 22.2981 23.6505 22.3389C23.6332 22.4253 23.2901 22.8221 23.1368 22.9332C23.0783 22.9756 23.0225 23.0231 23.0128 23.0387C23.0031 23.0544 22.9726 23.0673 22.9451 23.0673C22.9175 23.0673 22.8704 23.1018 22.8405 23.1439C22.8013 23.199 22.7546 23.2256 22.6752 23.2383C22.613 23.2483 22.5452 23.2798 22.5205 23.3103C22.4855 23.3535 22.4296 23.369 22.2484 23.3855C22.0976 23.3993 21.994 23.4236 21.9425 23.4573C21.819 23.5382 6.46292 23.5374 6.37354 23.4565C6.32895 23.4161 6.26024 23.4009 6.0637 23.388C5.85892 23.3745 5.79973 23.3607 5.75068 23.3153C5.71738 23.2844 5.6409 23.2461 5.58077 23.2302C5.52064 23.2142 5.44943 23.1768 5.42254 23.1472C5.39571 23.1175 5.33666 23.0836 5.29133 23.0719C5.24532 23.06 5.19485 23.0223 5.17701 22.9865C5.15945 22.9513 5.11918 22.9129 5.08763 22.9013C5.05601 22.8896 5.02412 22.8567 5.01662 22.8283C5.00919 22.7998 4.96825 22.7644 4.92562 22.7496C4.87366 22.7315 4.84812 22.7042 4.84812 22.667C4.84812 22.6323 4.82285 22.602 4.78056 22.5859C4.74347 22.5718 4.70536 22.5389 4.6959 22.513C4.68645 22.487 4.64463 22.4263 4.60301 22.378C4.55909 22.327 4.52734 22.259 4.52734 22.2158C4.52734 22.1699 4.50193 22.1193 4.46119 22.0838C4.39275 22.0243 4.38113 21.9913 4.35343 21.7775C4.34438 21.7077 4.32708 21.6506 4.31512 21.6506C4.21905 21.6506 4.21993 21.7253 4.21993 13.5601V5.64326L4.28114 5.56043C4.32168 5.50564 4.34958 5.41754 4.36377 5.29978C4.3814 5.15337 4.39775 5.11195 4.45626 5.06527C4.50714 5.02466 4.52734 4.98379 4.52734 4.92123C4.52734 4.85934 4.54984 4.81279 4.60443 4.76185C4.64685 4.72226 4.68962 4.66341 4.69935 4.63105C4.70915 4.59875 4.73941 4.56524 4.76664 4.55659C4.7938 4.54795 4.82319 4.51261 4.83184 4.47802C4.8411 4.44127 4.87434 4.40836 4.91177 4.39897C4.9496 4.38951 4.98244 4.35668 4.99196 4.31878C5.00142 4.28101 5.03426 4.24811 5.07189 4.23865C5.10702 4.22986 5.14161 4.20014 5.14884 4.17264C5.156 4.14514 5.19593 4.11413 5.23755 4.10373C5.27917 4.09325 5.33957 4.05623 5.3718 4.0215C5.40402 3.98671 5.47679 3.94962 5.53354 3.93908C5.59022 3.92854 5.65204 3.89813 5.67089 3.87151C5.71184 3.81355 5.8627 3.76801 6.01431 3.76781C6.08302 3.76767 6.13815 3.75139 6.16038 3.72457C6.18004 3.70085 6.22065 3.67153 6.25051 3.65937C6.28044 3.64721 9.83144 3.63951 14.1416 3.64228L21.9782 3.64734L22.0405 3.7043ZM13.1145 13.9053L13.1213 19.4987H14.0034H14.8855L14.8922 13.9053L14.899 8.3119H14.0034H13.1078L13.1145 13.9053ZM9.04481 14.7402V19.5121H9.92704H10.8092L10.8024 14.7473L10.7957 9.98257L9.92028 9.97548L9.04481 9.96845V14.7402ZM17.2043 16.3378L17.2111 19.4987H18.0932H18.9754L18.9821 16.3378L18.9889 13.1768H18.0932H17.1975L17.2043 16.3378Z" fill="#FCFCFC"/>
<path fillRule="evenodd" clipRule="evenodd" d="M6.25128 3.66024C6.22142 3.6724 6.18082 3.70172 6.16115 3.72543C6.11319 3.7832 6.20169 3.78482 6.27743 3.72753C6.35607 3.66807 21.8662 3.66807 21.9448 3.72753C22.0371 3.79739 22.1155 3.78191 22.042 3.70834L21.9818 3.64821L14.1438 3.64314C9.83282 3.64037 6.28121 3.64807 6.25128 3.66024ZM5.79233 3.79806C5.74524 3.81171 5.69106 3.84488 5.67207 3.87184C5.65302 3.89873 5.591 3.9294 5.53431 3.93994C5.47756 3.95048 5.4048 3.98757 5.37257 4.02237C5.34034 4.0571 5.27994 4.09412 5.23832 4.10459C5.19671 4.115 5.15678 4.14601 5.14961 4.1735C5.14239 4.201 5.10779 4.23073 5.07266 4.23951C5.03503 4.24897 5.00219 4.28187 4.99274 4.31964C4.98321 4.35754 4.95037 4.39038 4.91254 4.39984C4.87511 4.40923 4.84187 4.44213 4.83261 4.47889C4.82397 4.51348 4.79458 4.54881 4.76742 4.55746C4.74019 4.56611 4.70992 4.59962 4.70012 4.63191C4.6904 4.66428 4.64763 4.72312 4.6052 4.76271C4.55412 4.81041 4.52865 4.86007 4.5298 4.90973C4.53149 4.98398 4.53176 4.98412 4.55689 4.92142C4.58034 4.86264 4.60804 4.82345 4.77424 4.61327C4.83032 4.54239 5.05266 4.31606 5.18299 4.19722C5.21245 4.1704 5.28677 4.12324 5.34825 4.0925C5.40973 4.06176 5.46763 4.02433 5.47682 4.00946C5.48607 3.99453 5.54702 3.96886 5.61228 3.95244C5.67755 3.93596 5.73099 3.91481 5.73099 3.90542C5.73099 3.86644 5.85996 3.80955 5.98495 3.79333L6.11859 3.77604L5.99833 3.77469C5.93212 3.77394 5.83949 3.78448 5.79233 3.79806ZM22.3022 3.7932C22.4284 3.80894 22.4865 3.82995 22.5204 3.87177C22.5458 3.90319 22.5825 3.92886 22.6018 3.92886C22.7508 3.92886 22.4786 3.78867 22.314 3.78063L22.1303 3.77165L22.3022 3.7932ZM22.7239 3.95845C22.771 3.9721 22.8251 4.00413 22.8442 4.0296C22.8632 4.05507 22.9254 4.09966 22.9824 4.12871C23.1117 4.19458 23.4301 4.50091 23.4902 4.61719C23.5149 4.66495 23.5474 4.70407 23.5625 4.70407C23.5776 4.70407 23.6076 4.74643 23.6293 4.79825C23.6509 4.85007 23.6911 4.91493 23.7186 4.94243C23.7462 4.96999 23.7819 5.05424 23.7981 5.12971C23.8143 5.20518 23.848 5.29821 23.8731 5.33645C23.8981 5.37469 23.9276 5.45556 23.9386 5.51617C23.9563 5.61359 23.9577 5.60846 23.9511 5.47178C23.9459 5.36733 23.9258 5.29335 23.889 5.24349C23.859 5.20295 23.826 5.12816 23.8157 5.07728C23.7832 4.91676 23.7728 4.89432 23.7226 4.87838C23.6957 4.86987 23.6666 4.82744 23.658 4.78406C23.6493 4.74069 23.6061 4.66745 23.562 4.62137C23.5179 4.57523 23.4749 4.51544 23.4663 4.48848C23.4578 4.46152 23.4267 4.43186 23.3971 4.42247C23.3677 4.41315 23.3326 4.37673 23.3193 4.34167C23.3059 4.3066 23.265 4.27032 23.2282 4.26113C23.1915 4.25188 23.1546 4.22276 23.1462 4.19641C23.1378 4.17006 23.0949 4.13351 23.0508 4.11527C23.0068 4.09702 22.9273 4.04764 22.8743 4.00548C22.8197 3.96217 22.7476 3.92994 22.7081 3.93129C22.6426 3.93352 22.6436 3.93528 22.7239 3.95845ZM4.43616 5.08762C4.38522 5.13856 4.36839 5.182 4.37049 5.25754L4.37319 5.35895L4.3942 5.27038C4.40569 5.2216 4.44264 5.15248 4.47616 5.11674C4.55905 5.02857 4.52217 5.00168 4.43616 5.08762ZM4.34461 5.43354C4.34265 5.45989 4.31394 5.51806 4.28083 5.56278L4.2207 5.64413V13.5609C4.2207 21.7233 4.21989 21.6514 4.31563 21.6514C4.32752 21.6514 4.34252 21.6724 4.34894 21.6982C4.35542 21.7239 4.35738 21.7149 4.3534 21.6781C4.34934 21.6413 4.32387 21.5572 4.29678 21.491C4.24921 21.375 4.24746 21.0909 4.24746 13.5653V5.75993L4.31002 5.63751C4.34569 5.56785 4.36738 5.48725 4.36042 5.45043C4.35285 5.41016 4.34691 5.40381 4.34461 5.43354ZM23.9617 13.5787C23.9617 20.4833 23.9661 21.3355 24.0017 21.2675C24.0623 21.1511 24.0623 6.00626 24.0017 5.88999C23.9661 5.82189 23.9617 6.67411 23.9617 13.5787ZM13.1001 8.30344C13.0736 8.32999 13.0786 19.4663 13.1052 19.5082C13.1325 19.5512 14.8588 19.5646 14.9013 19.5221C14.917 19.5063 14.924 17.3904 14.9198 13.8981L14.913 8.29939L14.0157 8.29236C13.5221 8.28844 13.1101 8.29351 13.1001 8.30344ZM14.893 13.9062L14.8863 19.4996H14.0042H13.1221L13.1153 13.9062L13.1086 8.31276H14.0042H14.8998L14.893 13.9062ZM9.03572 9.95C9.01613 10.0232 9.01315 19.4669 9.03275 19.5179C9.05018 19.5633 10.7745 19.5531 10.8299 19.5073C10.8777 19.4677 10.879 10.1108 10.8312 9.97864L10.7991 9.88987H9.92544H9.05187L9.03572 9.95ZM10.8032 14.7482L10.81 19.5129H9.92781H9.04558V14.7411V9.96932L9.92105 9.97635L10.7965 9.98344L10.8032 14.7482ZM17.6613 13.171C17.9085 13.1754 18.3054 13.1754 18.5434 13.171C18.7814 13.1666 18.5791 13.163 18.094 13.163C17.6088 13.163 17.4141 13.1666 17.6613 13.171ZM17.1787 16.3186C17.1753 18.0535 17.1828 19.489 17.1953 19.5087C17.2186 19.5455 18.933 19.5612 18.9913 19.5252C19.0065 19.5158 19.0136 18.272 19.0097 16.337L19.0032 13.1644L18.9896 16.332L18.9761 19.4996H18.094H17.2119L17.1984 16.332L17.1848 13.1644L17.1787 16.3186ZM23.939 21.6261C23.936 21.7092 23.9134 21.7768 23.8678 21.8385C23.7808 21.9565 23.7803 22.024 23.8672 21.9302C23.9409 21.8507 23.9712 21.7346 23.9544 21.5961C23.9446 21.5163 23.9427 21.5201 23.939 21.6261ZM4.37002 21.8707C4.36704 21.9642 4.4115 22.0602 4.47656 22.1008C4.54412 22.143 4.54216 22.1041 4.47217 22.0152C4.44136 21.9761 4.4063 21.9113 4.39427 21.8712L4.37231 21.7984L4.37002 21.8707ZM23.7783 22.0704C23.7761 22.1023 23.7427 22.166 23.7041 22.2118C23.6655 22.2576 23.6415 22.3027 23.6507 22.3119C23.6599 22.3211 23.6674 22.3145 23.6674 22.2974C23.6674 22.2802 23.685 22.2662 23.7065 22.2662C23.7609 22.2662 23.8065 22.1708 23.7933 22.0845C23.7848 22.0285 23.7814 22.0254 23.7783 22.0704ZM4.5298 22.2185C4.52879 22.2616 4.55892 22.3268 4.60378 22.3789C4.6454 22.4272 4.68722 22.4879 4.69668 22.5138C4.70614 22.5398 4.74424 22.5726 4.78133 22.5867C4.82363 22.6028 4.8489 22.6332 4.8489 22.6679C4.8489 22.7051 4.87443 22.7323 4.92639 22.7504C4.96902 22.7653 5.00996 22.8007 5.0174 22.8292C5.0249 22.8576 5.05678 22.8904 5.0884 22.9021C5.11996 22.9138 5.16022 22.9522 5.17779 22.9874C5.19562 23.0231 5.24609 23.0608 5.2921 23.0727C5.33744 23.0845 5.39649 23.1183 5.42331 23.148C5.4502 23.1777 5.52141 23.2151 5.58154 23.231C5.64167 23.247 5.71788 23.285 5.75085 23.3155C5.79436 23.3559 5.85294 23.3731 5.96468 23.3783C6.04934 23.3822 6.08853 23.3799 6.05177 23.373C5.89881 23.3445 5.87179 23.3346 5.81591 23.2861C5.78369 23.2582 5.71085 23.2278 5.6541 23.2188C5.59728 23.2097 5.53438 23.1824 5.51432 23.1583C5.49425 23.1341 5.42952 23.0931 5.37048 23.0671C5.31149 23.0412 5.20042 22.9593 5.12367 22.885C5.04692 22.8108 4.95977 22.7371 4.9299 22.7211C4.90004 22.7051 4.87558 22.6751 4.87558 22.6544C4.87558 22.6337 4.85052 22.5992 4.81984 22.5777C4.76316 22.538 4.59338 22.2969 4.55338 22.1994C4.53412 22.1523 4.53129 22.1546 4.5298 22.2185ZM23.5604 22.4263C23.5237 22.4629 23.4846 22.5152 23.4735 22.5424C23.4625 22.5697 23.4304 22.598 23.4023 22.6054C23.3742 22.6128 23.3437 22.6447 23.3346 22.6764C23.3255 22.7081 23.2648 22.7761 23.1996 22.8275C23.0183 22.9708 22.9164 23.0681 22.9477 23.0681C23.0121 23.0681 23.2488 22.8535 23.4998 22.5678C23.6441 22.4033 23.6893 22.2979 23.5604 22.4263ZM22.8031 23.1233C22.7818 23.1537 22.7098 23.1949 22.6431 23.2151C22.5763 23.2351 22.4923 23.2708 22.4565 23.2943C22.4206 23.3178 22.3386 23.3484 22.2742 23.3623C22.162 23.3864 22.1638 23.387 22.3175 23.3761C22.4369 23.3676 22.489 23.3509 22.5216 23.3108C22.546 23.2807 22.6142 23.2491 22.676 23.2392C22.7768 23.223 22.9514 23.0681 22.8688 23.0681C22.8539 23.0681 22.8243 23.093 22.8031 23.1233ZM6.31905 23.4282C6.3558 23.4494 6.41411 23.4795 6.44863 23.495C6.49221 23.5146 8.84742 23.5211 14.1872 23.5162L21.8631 23.5092L21.9695 23.449C22.0882 23.382 22.0731 23.3786 21.8229 23.4158C21.5794 23.452 6.57842 23.4521 6.45289 23.4159C6.3054 23.3733 6.23507 23.3798 6.31905 23.4282Z" fill="#EBF4F4"/>
</g>
<defs>
<clipPath id="clip0_2586_13596">
<rect width="27.0248" height="26.7106" fill="white" transform="translate(0.652344 0.532227)"/>
</clipPath>
</defs>
</svg>
