<svg width="28" height="28" viewBox="0 0 28 28" fill="none" xmlns="http://www.w3.org/2000/svg">
<g clipPath="url(#clip0_2586_13636)">
<mask id="mask0_2586_13636" style="mask-type:luminance" maskUnits="userSpaceOnUse" x="0" y="0" width="28" height="28">
<path d="M27.6762 0.624023H0.651367V27.6489H27.6762V0.624023Z" fill="white"/>
</mask>
<g mask="url(#mask0_2586_13636)">
<path d="M22.1014 9.17557C21.2025 8.89517 20.2446 8.86284 19.3288 9.082C18.4131 9.30115 17.5736 9.76365 16.8991 10.4206L14.1677 12.8434L12.7005 14.1368H12.7102L10.114 16.4434C9.7255 16.8302 9.24666 17.114 8.72083 17.2691C8.19499 17.4241 7.63878 17.4456 7.10258 17.3314C6.50438 17.2059 5.95394 16.9135 5.51495 16.4882C5.07597 16.0629 4.76636 15.522 4.62197 14.9281C4.45081 14.2297 4.51429 13.4944 4.80261 12.8356C5.09093 12.1769 5.58805 11.6314 6.21724 11.2833C6.84643 10.9352 7.57271 10.8039 8.28396 10.9096C8.9952 11.0154 9.65187 11.3523 10.1526 11.8683L10.6063 12.264C10.7012 12.3498 10.812 12.416 10.9326 12.4588C11.0532 12.5015 11.181 12.5199 11.3087 12.5129C11.4364 12.5059 11.5615 12.4736 11.6767 12.418C11.7918 12.3624 11.8948 12.2844 11.9797 12.1887C12.0645 12.093 12.1296 11.9814 12.171 11.8604C12.2125 11.7394 12.2296 11.6114 12.2212 11.4838C12.2129 11.3561 12.1793 11.2314 12.1225 11.1168C12.0656 11.0023 11.9866 10.9001 11.89 10.8162L11.4847 10.4687C10.761 9.74356 9.83893 9.24871 8.83461 9.04644C7.83029 8.84417 6.78858 8.94352 5.84061 9.332C4.89263 9.72047 4.08077 10.3807 3.5072 11.2296C2.93364 12.0785 2.62401 13.078 2.6173 14.1025C2.61059 15.127 2.90709 16.1305 3.46948 16.9868C4.03187 17.8432 4.83502 18.514 5.77782 18.9148C6.72063 19.3157 7.76094 19.4287 8.76783 19.2396C9.77471 19.0505 10.7032 18.5678 11.4363 17.8522L14.1677 15.4391L14.1774 15.4488L15.6349 14.1362H15.6251L18.2214 11.8302C18.6098 11.4433 19.0887 11.1595 19.6145 11.0044C20.1403 10.8492 20.6966 10.8278 21.2328 10.9419C21.831 11.0674 22.3814 11.3598 22.8204 11.7851C23.2594 12.2104 23.569 12.7513 23.7134 13.3452C23.8845 14.0436 23.8209 14.7789 23.5326 15.4375C23.2442 16.0962 22.7471 16.6417 22.1179 16.9897C21.4888 17.3378 20.7625 17.469 20.0513 17.3633C19.3401 17.2576 18.6835 16.9207 18.1828 16.4047L17.7196 15.9993C17.6247 15.9135 17.5139 15.8473 17.3933 15.8045C17.2727 15.7618 17.1449 15.7434 17.0172 15.7504C16.8895 15.7574 16.7644 15.7897 16.6492 15.8453C16.5341 15.901 16.4311 15.9789 16.3462 16.0746C16.2614 16.1703 16.1963 16.2819 16.1549 16.4029C16.1134 16.5239 16.0963 16.6519 16.1047 16.7795C16.113 16.9072 16.1466 17.0319 16.2034 17.1465C16.2603 17.261 16.3393 17.3632 16.4359 17.4471L16.8412 17.8041C17.622 18.5792 18.6278 19.0878 19.7149 19.2571C20.802 19.4265 21.9148 19.2479 22.8943 18.7469C23.8738 18.2459 24.67 17.4481 25.1689 16.4676C25.6679 15.4871 25.8442 14.3739 25.6727 13.2871C25.5235 12.3356 25.1094 11.4454 24.4778 10.7182C23.8462 9.9911 23.0226 9.45648 22.1014 9.17557Z" fill="#D0021B"/>
</g>
</g>
<defs>
<clipPath id="clip0_2586_13636">
<rect width="27.0248" height="27.0248" fill="white" transform="translate(0.652344 0.625)"/>
</clipPath>
</defs>
</svg>
