<svg width="19" height="19" viewBox="0 0 19 19" fill="none" xmlns="http://www.w3.org/2000/svg">
<g clipPath="url(#clip0_2041_41257)">
<mask id="mask0_2041_41257" style="mask-type:luminance" maskUnits="userSpaceOnUse" x="0" y="0" width="19" height="19">
<path d="M18.75 0.65332H0.75V18.6533H18.75V0.65332Z" fill="white"/>
</mask>
<g mask="url(#mask0_2041_41257)">
<path d="M14.8918 4.50977H4.60605C4.26603 4.511 3.94038 4.64707 3.70056 4.88811C3.46073 5.12915 3.32631 5.45548 3.32679 5.79551L3.32031 13.5098C3.32131 13.8505 3.45709 14.1769 3.698 14.4178C3.93891 14.6587 4.26536 14.7945 4.60605 14.7955H14.8918C15.2325 14.7945 15.5589 14.6587 15.7998 14.4178C16.0408 14.1769 16.1765 13.8505 16.1775 13.5098V5.79551C16.1765 5.45481 16.0408 5.12836 15.7998 4.88745C15.5589 4.64654 15.2325 4.51076 14.8918 4.50977ZM4.60605 7.72403H11.3561V9.97403H4.60605V7.72403ZM4.60605 11.2598H11.3561V13.5098H5.24883C5.07852 13.5092 4.91533 13.4414 4.7949 13.3209C4.67446 13.2005 4.60657 13.0373 4.60605 12.867V11.2598ZM14.2488 13.5098H12.6418V7.72403H14.8918V12.867C14.8913 13.0373 14.8234 13.2005 14.7029 13.321C14.5824 13.4414 14.4192 13.5093 14.2488 13.5098Z" fill="#D0021B"/>
</g>
</g>
<defs>
<clipPath id="clip0_2041_41257">
<rect width="18" height="18" fill="white" transform="translate(0.75 0.652344)"/>
</clipPath>
</defs>
</svg>
