<svg width="19" height="19" viewBox="0 0 19 19" fill="none" xmlns="http://www.w3.org/2000/svg">
<g clipPath="url(#clip0_2041_41236)">
<mask id="mask0_2041_41236" style="mask-type:luminance" maskUnits="userSpaceOnUse" x="0" y="0" width="19" height="19">
<path d="M18.25 0.652344H0.25V18.6523H18.25V0.652344Z" fill="white"/>
</mask>
<g mask="url(#mask0_2041_41236)">
<path d="M9.66864 14.1651C9.54703 14.2591 9.39765 14.3101 9.24393 14.3101C9.09022 14.3101 8.94084 14.2591 8.81922 14.1651L4.57176 10.8631C4.42797 10.7514 4.24569 10.7014 4.065 10.724C3.88432 10.7467 3.72005 10.8402 3.60831 10.984C3.49658 11.1278 3.44654 11.3101 3.46921 11.4908C3.49188 11.6714 3.58539 11.8357 3.72918 11.9475L8.39784 15.5808C8.64109 15.7688 8.93988 15.8709 9.24735 15.8709C9.55483 15.8709 9.85361 15.7688 10.0969 15.5808L14.7659 11.9482C14.8482 11.8838 14.9148 11.8015 14.9605 11.7076C15.0063 11.6136 15.0301 11.5105 15.0301 11.406C15.0301 11.3015 15.0063 11.1984 14.9605 11.1045C14.9148 11.0105 14.8482 10.9282 14.7659 10.8639L14.759 10.857C14.6388 10.763 14.4904 10.7119 14.3378 10.7119C14.1851 10.7119 14.0368 10.763 13.9165 10.857L9.66864 14.1651ZM10.1039 12.0794L14.7724 8.44664C14.8547 8.38153 14.9212 8.29862 14.967 8.20413C15.0127 8.10965 15.0365 8.00603 15.0365 7.90106C15.0365 7.79608 15.0127 7.69246 14.967 7.59798C14.9212 7.50349 14.8547 7.42059 14.7724 7.35548L10.1039 3.72272C9.86063 3.53465 9.56185 3.43262 9.25437 3.43262C8.9469 3.43262 8.64811 3.53465 8.40486 3.72272L3.73602 7.36232C3.65368 7.42743 3.58714 7.51033 3.54139 7.60482C3.49565 7.6993 3.47188 7.80292 3.47188 7.9079C3.47188 8.01287 3.49565 8.11649 3.54139 8.21097C3.58714 8.30546 3.65368 8.38837 3.73602 8.45348L8.40468 12.0871C8.64812 12.2757 8.94767 12.3774 9.25562 12.376C9.56356 12.3746 9.86217 12.2702 10.1039 12.0794Z" fill="#D0021B"/>
</g>
</g>
<defs>
<clipPath id="clip0_2041_41236">
<rect width="18" height="18" fill="white" transform="translate(0.25 0.652344)"/>
</clipPath>
</defs>
</svg>
