<svg width="28" height="28" viewBox="0 0 28 28" fill="none" xmlns="http://www.w3.org/2000/svg">
<g clipPath="url(#clip0_2586_13587)">
<path fillRule="evenodd" clipRule="evenodd" d="M12.3058 3.54176C12.2712 3.56893 12.2348 3.59115 12.2249 3.59115C12.1788 3.59115 11.9846 3.77906 11.9534 3.85391C11.9289 3.91239 11.9116 4.11551 11.8958 4.52753C11.8678 5.25884 11.861 5.32733 11.8 5.48161C11.7729 5.54986 11.7393 5.65248 11.7251 5.70956C11.7086 5.77605 11.6646 5.84772 11.6026 5.90907C11.5494 5.96176 11.5058 6.01646 11.5058 6.03056C11.5058 6.04472 11.4701 6.07433 11.4265 6.09631C11.3828 6.11835 11.3178 6.16377 11.282 6.19723C11.2436 6.23312 11.1445 6.2775 11.0399 6.30553C10.9425 6.33166 10.833 6.37811 10.7965 6.40882C10.7601 6.43953 10.6495 6.48428 10.5508 6.50827C10.4522 6.5322 10.3383 6.57695 10.2977 6.60766C10.1748 6.70064 10.031 6.72738 9.64993 6.72817C9.2511 6.72896 9.23571 6.72432 8.99365 6.52756C8.84433 6.40626 8.83492 6.39759 8.52156 6.0932C8.40465 5.97958 8.29781 5.88661 8.2842 5.88661C8.27058 5.88661 8.23444 5.85254 8.2038 5.81091C8.17315 5.76927 8.10416 5.7131 8.05044 5.68606C7.99672 5.65901 7.92749 5.61372 7.89666 5.58545C7.79104 5.48863 7.53091 5.49577 7.37334 5.59986C7.30253 5.64656 7.22133 5.69204 7.19288 5.70083C7.16449 5.70969 7.09667 5.76054 7.04221 5.81396C6.98775 5.86732 6.92609 5.91103 6.90528 5.91103C6.8844 5.91103 6.85039 5.94381 6.8297 5.98386C6.80894 6.02397 6.75943 6.0736 6.71957 6.09417C6.6797 6.11475 6.63019 6.16438 6.60943 6.20449C6.58874 6.24454 6.56041 6.27732 6.54655 6.27732C6.53269 6.27732 6.40095 6.40095 6.25376 6.55204C6.10663 6.70314 5.96994 6.84325 5.94998 6.86339C5.93001 6.88354 5.89448 6.92017 5.87098 6.94477C5.84748 6.96938 5.78154 7.03574 5.72446 7.09227C5.66738 7.1488 5.62068 7.20735 5.62068 7.22243C5.62068 7.23744 5.58734 7.27786 5.54656 7.31211C5.50578 7.34642 5.43936 7.43805 5.39889 7.51577C5.35841 7.59348 5.30658 7.67126 5.28375 7.68866C5.19999 7.7524 5.22538 8.10599 5.32154 8.21552C5.36519 8.26521 5.4009 8.32235 5.4009 8.34256C5.4009 8.36271 5.4476 8.42687 5.50468 8.48511C5.60694 8.58938 5.92739 8.92912 6.07446 9.08913C6.16701 9.1898 6.35254 9.43485 6.40211 9.52191C6.49545 9.68577 6.4402 10.4144 6.32482 10.5412C6.29906 10.5696 6.25797 10.6766 6.23355 10.779C6.20913 10.8815 6.16048 11.0088 6.12537 11.0618C6.09027 11.1149 6.04314 11.2314 6.02067 11.3208C5.99821 11.4103 5.95553 11.5126 5.9258 11.5483C5.89607 11.5838 5.85358 11.6484 5.83142 11.6917C5.80926 11.7349 5.76652 11.7831 5.73643 11.7988C5.70633 11.8145 5.65236 11.8622 5.61646 11.905C5.57739 11.9514 5.50865 11.9951 5.44553 12.0136C5.38741 12.0307 5.31519 12.0603 5.28497 12.0796C5.20267 12.1322 4.91831 12.1605 4.23596 12.1841C3.51844 12.2091 3.53346 12.2044 3.33218 12.4667L3.20312 12.6349V14.0584V15.4818L3.27309 15.5621C3.31155 15.6062 3.35038 15.6658 3.35935 15.6946C3.36832 15.7234 3.41106 15.7608 3.45422 15.7779C3.49744 15.7949 3.5704 15.8365 3.61637 15.8704C3.70965 15.9392 4.0022 15.9655 4.74157 15.9718C5.16659 15.9755 5.3092 15.9961 5.39632 16.0666C5.4324 16.0959 5.49632 16.1356 5.53838 16.1549C5.64803 16.2052 5.75608 16.302 5.81921 16.4064C5.84931 16.4563 5.89839 16.5269 5.92837 16.5635C5.95828 16.6001 6.00089 16.71 6.02305 16.8077C6.04839 16.9196 6.08465 17.008 6.12098 17.0464C6.15755 17.0851 6.19717 17.1821 6.22909 17.3112C6.25901 17.4323 6.30321 17.5431 6.33801 17.5845C6.50125 17.7785 6.49411 18.5642 6.32806 18.687C6.28935 18.7156 6.24674 18.7705 6.23331 18.809C6.21994 18.8474 6.17555 18.8979 6.13471 18.9211C6.09393 18.9444 6.06048 18.9762 6.06042 18.992C6.06017 19.0321 5.93984 19.1709 5.90529 19.1709C5.8896 19.1709 5.86329 19.2015 5.8468 19.2387C5.83032 19.276 5.78368 19.3261 5.74314 19.35C5.70267 19.3739 5.66952 19.4027 5.66952 19.4138C5.66952 19.4251 5.62196 19.4877 5.56384 19.5529C5.50578 19.6182 5.4371 19.71 5.41122 19.757C5.38539 19.804 5.33277 19.8801 5.29425 19.926C5.2042 20.0333 5.20585 20.3658 5.29675 20.4378C5.32428 20.4596 5.36543 20.5145 5.38826 20.5598C5.45536 20.6931 5.66994 20.9557 5.95645 21.2549C6.01353 21.3146 6.06023 21.3752 6.06023 21.3898C6.06023 21.4044 6.09369 21.4336 6.13453 21.4547C6.17543 21.4759 6.2211 21.5201 6.23612 21.5529C6.25107 21.5857 6.3001 21.6343 6.34515 21.6609C6.39014 21.6874 6.43837 21.7343 6.45241 21.7651C6.46645 21.7959 6.51029 21.8396 6.54991 21.8624C6.58953 21.8851 6.63458 21.9315 6.65003 21.9654C6.66548 21.9993 6.69917 22.0338 6.72488 22.042C6.75058 22.0501 6.82597 22.105 6.8924 22.164C6.95882 22.223 7.04325 22.2873 7.08 22.3067C7.11681 22.3263 7.17621 22.374 7.21211 22.4128C7.38628 22.6015 7.89629 22.5705 8.13707 22.3567C8.20447 22.2968 8.27303 22.2478 8.28933 22.2476C8.30569 22.2476 8.33804 22.2141 8.3613 22.1733C8.3845 22.1325 8.43566 22.0879 8.47498 22.0742C8.51777 22.0593 8.55837 22.0205 8.57614 21.9776C8.59244 21.9382 8.61496 21.9059 8.62607 21.9059C8.64494 21.9059 8.80373 21.7636 8.98034 21.5885C9.25213 21.319 9.67942 21.2329 9.99181 21.3849C10.0791 21.4273 10.2 21.4698 10.2604 21.4793C10.3822 21.4983 10.4439 21.5246 10.5168 21.5885C10.5437 21.6121 10.6261 21.6451 10.7 21.6621C10.839 21.6939 11.0036 21.7661 11.0283 21.8061C11.0361 21.8186 11.1 21.848 11.1704 21.8713C11.4096 21.9506 11.6803 22.2051 11.7386 22.4054C11.76 22.4792 11.7948 22.5741 11.8159 22.6164C11.8446 22.6739 11.8598 22.824 11.876 23.2093C11.888 23.493 11.9064 23.8474 11.917 23.9966L11.9362 24.2681L12.0573 24.3911C12.2365 24.5732 12.2276 24.5723 13.8501 24.5632C15.505 24.554 15.3782 24.577 15.5489 24.2537L15.6603 24.0427L15.6822 23.3711C15.71 22.5155 15.7165 22.4609 15.8022 22.3625C15.8396 22.3196 15.8884 22.2489 15.9106 22.2055C15.9329 22.162 15.981 22.1106 16.0178 22.0911C16.0545 22.0716 16.1155 22.0222 16.1533 21.9813C16.1938 21.9375 16.2723 21.892 16.3441 21.8706C16.4113 21.8507 16.4984 21.8073 16.5377 21.7742C16.5821 21.7369 16.679 21.6985 16.7926 21.6732C16.8935 21.6508 16.9822 21.6224 16.9898 21.6101C17.0155 21.5685 17.1828 21.4967 17.3299 21.4642C17.4105 21.4464 17.5123 21.4075 17.5561 21.3779C17.7058 21.2768 18.0579 21.2735 18.1832 21.3719C18.2163 21.398 18.2832 21.4331 18.3318 21.4499C18.4359 21.486 18.635 21.6451 18.9264 21.9252C19.0422 22.0365 19.1788 22.1629 19.2298 22.206C19.2808 22.2492 19.365 22.3251 19.4169 22.3748C19.6243 22.5735 20.2972 22.5858 20.3587 22.3921C20.3669 22.3662 20.4086 22.3275 20.4513 22.3062C20.494 22.2849 20.5619 22.2359 20.6022 22.1973C20.6425 22.1588 20.7727 22.0362 20.8915 21.9251C21.3042 21.5387 21.7661 21.0685 21.826 20.9735C21.8592 20.921 21.9028 20.8716 21.9229 20.864C21.9431 20.8562 21.9804 20.8089 22.0059 20.7589C22.0315 20.709 22.0788 20.6507 22.1111 20.6295C22.3024 20.5041 22.2899 19.908 22.0919 19.7157C22.0448 19.67 22.0063 19.6204 22.0063 19.6055C22.0063 19.5907 21.9651 19.5384 21.9147 19.4892C21.487 19.072 21.1939 18.7223 21.1439 18.5696C21.1357 18.5444 21.1072 18.4963 21.0805 18.4628C21.0483 18.4222 21.0308 18.3607 21.0285 18.2796C21.0206 17.9929 21.0291 17.9329 21.0906 17.8424C21.1241 17.7929 21.1698 17.6787 21.1919 17.5887C21.214 17.4986 21.269 17.3546 21.3139 17.2686C21.359 17.1827 21.3959 17.1003 21.3959 17.0855C21.3964 17.009 21.4553 16.8633 21.5044 16.8175C21.535 16.789 21.5789 16.7005 21.6019 16.621C21.6265 16.5363 21.671 16.4503 21.7095 16.4134C21.7456 16.3788 21.7944 16.3204 21.8179 16.2836C21.8413 16.2469 21.9043 16.1944 21.9578 16.1671C22.0114 16.1398 22.0551 16.1061 22.0551 16.0923C22.0551 16.012 22.2334 15.9889 23.0184 15.9672L23.7986 15.9458L23.9078 15.8734C23.9678 15.8336 24.0582 15.7818 24.1086 15.7583C24.2745 15.6809 24.2775 15.6505 24.2763 14.0534C24.2752 12.6299 24.2666 12.47 24.1882 12.4139C24.1634 12.396 24.103 12.3442 24.0541 12.2987C23.9476 12.1993 23.9401 12.1983 23.0171 12.1675C22.4435 12.1484 22.3724 12.1415 22.3089 12.0982C22.27 12.0717 22.1763 12.0312 22.1004 12.0081C21.9096 11.9501 21.6729 11.7016 21.6059 11.4887C21.581 11.4094 21.5348 11.3137 21.5033 11.2762C21.4718 11.2386 21.4342 11.1617 21.4197 11.1052C21.3752 10.9315 21.356 10.8836 21.2928 10.7906C21.2594 10.7412 21.2185 10.6314 21.2022 10.5464C21.1856 10.4602 21.1436 10.3499 21.1071 10.2966C21.0173 10.1654 20.9988 9.78332 21.0755 9.64724C21.102 9.60024 21.1503 9.5064 21.1829 9.43876C21.2154 9.37112 21.2709 9.29682 21.3062 9.27368C21.3415 9.25055 21.3873 9.19896 21.4079 9.15903C21.4286 9.11911 21.4782 9.06947 21.5183 9.04872C21.5584 9.02802 21.5912 8.99676 21.5912 8.9793C21.5912 8.94365 21.6918 8.84145 21.7271 8.84133C21.7396 8.84127 21.7719 8.80006 21.7987 8.74976C21.8256 8.69945 21.872 8.6475 21.9019 8.63444C21.9317 8.62131 21.9683 8.5812 21.9832 8.5453C21.9981 8.50935 22.0379 8.4541 22.0717 8.42259C22.2888 8.21991 22.3131 7.68469 22.1142 7.48573C22.0683 7.43982 22.0307 7.39275 22.0307 7.38109C22.0307 7.36943 21.9854 7.31138 21.9299 7.2521C21.8744 7.19276 21.8113 7.11614 21.7895 7.08183C21.7489 7.01785 21.6663 6.92615 21.463 6.71901C21.3992 6.654 21.347 6.58849 21.347 6.57341C21.347 6.55827 21.3332 6.54606 21.3165 6.54624C21.2997 6.54637 21.242 6.50229 21.1882 6.4482C20.9353 6.19362 20.6873 5.97085 20.5594 5.88325C20.4822 5.83038 20.419 5.77635 20.419 5.76323C20.419 5.75004 20.3778 5.72049 20.3275 5.69754C20.2771 5.67452 20.1998 5.62525 20.1557 5.58801C20.0326 5.48417 19.7527 5.48722 19.6414 5.59357C19.5993 5.63386 19.5501 5.66683 19.5322 5.66683C19.5143 5.66683 19.4298 5.72727 19.3446 5.80114C19.2593 5.87501 19.1755 5.93545 19.1585 5.93545C19.1414 5.93545 19.1086 5.96756 19.0854 6.00681C19.0622 6.04601 19.0183 6.09149 18.9877 6.10785C18.9571 6.12421 18.898 6.18001 18.8563 6.2319C18.8147 6.28373 18.7665 6.32616 18.7492 6.32616C18.7319 6.32616 18.6825 6.37012 18.6393 6.42384C18.5962 6.47756 18.5484 6.52152 18.5332 6.52152C18.518 6.52152 18.4717 6.55852 18.4302 6.60369C18.26 6.78959 17.528 6.79172 17.249 6.60711C17.1956 6.5717 17.0842 6.52701 17.0015 6.50772C16.8398 6.46999 16.7072 6.41114 16.7072 6.37702C16.7072 6.36536 16.6295 6.33678 16.5345 6.31352C16.4395 6.29026 16.3324 6.24716 16.2964 6.2178C16.2605 6.18843 16.1792 6.13465 16.1158 6.0982C16.0489 6.05974 15.9677 5.98355 15.9223 5.91658C15.8793 5.85309 15.8191 5.77086 15.7887 5.73386C15.7165 5.64595 15.7099 5.58588 15.6837 4.7633L15.6615 4.06734L15.5865 3.93303C15.5453 3.85916 15.5113 3.779 15.5111 3.75483C15.5108 3.73071 15.4763 3.69225 15.4344 3.66936C15.3924 3.64652 15.3243 3.60031 15.2831 3.56673L15.2083 3.50568L13.7884 3.49903C12.3949 3.49244 12.3674 3.49323 12.3058 3.54176ZM14.2195 9.50042C14.3488 9.513 14.5027 9.54144 14.5614 9.56361C14.6585 9.60023 14.7963 9.63149 15.1629 9.70005C15.2336 9.71324 15.3215 9.74938 15.3583 9.78027C15.3951 9.81116 15.4905 9.85109 15.5704 9.86891C15.6568 9.88821 15.7458 9.92764 15.7902 9.9661C15.8312 10.0018 15.9223 10.0498 15.9927 10.0729C16.063 10.096 16.1415 10.1417 16.1673 10.1743C16.193 10.2071 16.2563 10.2514 16.308 10.2729C16.3597 10.2944 16.4514 10.3557 16.5119 10.409C16.7085 10.5826 17.1025 10.9519 17.1682 11.0242C17.2034 11.063 17.2718 11.1364 17.32 11.1872C17.3684 11.2379 17.4229 11.3161 17.4412 11.3608C17.4596 11.4055 17.4995 11.4619 17.5299 11.4862C17.5603 11.5104 17.6075 11.5763 17.6347 11.6327C17.6619 11.689 17.7116 11.7725 17.7452 11.8182C17.7788 11.8639 17.8181 11.9463 17.8328 12.0013C17.8474 12.0564 17.879 12.1234 17.9029 12.1503C17.9706 12.2261 17.9959 12.2872 18.0401 12.4815C18.0626 12.5804 18.1021 12.6899 18.1279 12.7247C18.3343 13.004 18.3329 14.9063 18.1258 15.3492C18.0882 15.4298 18.043 15.5657 18.0255 15.6512C18.0068 15.7422 17.9694 15.8353 17.9353 15.8759C17.9032 15.9141 17.8545 16.0117 17.8271 16.0929C17.7996 16.1741 17.7525 16.26 17.7221 16.2839C17.6918 16.3077 17.6531 16.3696 17.636 16.4214C17.6189 16.4732 17.5692 16.5553 17.5257 16.6039C17.4821 16.6526 17.4291 16.7264 17.4078 16.7681C17.3865 16.8097 17.3412 16.862 17.3073 16.8843C17.2733 16.9066 17.2289 16.9569 17.2086 16.9961C17.1884 17.0353 17.1489 17.0746 17.121 17.0835C17.093 17.0924 17.05 17.1327 17.0254 17.1732C17.0009 17.2136 16.9464 17.2675 16.9045 17.293C16.8626 17.3185 16.8161 17.3661 16.8012 17.3988C16.7864 17.4315 16.7421 17.4715 16.7029 17.4877C16.6637 17.504 16.6158 17.5479 16.5965 17.5854C16.5771 17.6228 16.5397 17.6603 16.5132 17.6687C16.4868 17.6771 16.4127 17.7273 16.3486 17.7803C16.2845 17.8332 16.1934 17.8889 16.1461 17.904C16.0988 17.919 16.0271 17.9621 15.9868 17.9997C15.9466 18.0373 15.8517 18.0858 15.7762 18.1076C15.7006 18.1292 15.619 18.1689 15.5949 18.1955C15.5502 18.2449 15.3868 18.3001 15.2 18.3288C15.1433 18.3376 15.0715 18.3647 15.0405 18.3892C14.8049 18.5745 12.8832 18.5899 12.5803 18.4089C12.5333 18.3808 12.3989 18.3383 12.2816 18.3145C12.1326 18.2841 12.037 18.2489 11.9641 18.1976C11.9068 18.1571 11.8137 18.1121 11.7572 18.0974C11.7008 18.0828 11.622 18.0434 11.5822 18.0098C11.5424 17.9764 11.4622 17.9279 11.4039 17.9021C11.3458 17.8764 11.2658 17.8217 11.2265 17.7805C11.187 17.7394 11.1396 17.7057 11.121 17.7057C11.0847 17.7057 11.0484 17.6732 10.6475 17.2812C10.5044 17.1414 10.3806 17.0055 10.3723 16.9793C10.364 16.9531 10.3296 16.9192 10.2959 16.9038C10.2622 16.8884 10.2124 16.8383 10.1853 16.7924C10.1582 16.7465 10.1206 16.703 10.1017 16.6957C10.0828 16.6884 10.0433 16.6353 10.014 16.5775C9.98479 16.5198 9.92978 16.437 9.89187 16.3935C9.85396 16.35 9.81037 16.2678 9.79498 16.2108C9.77966 16.1538 9.73674 16.0725 9.69963 16.0303C9.65659 15.9812 9.61684 15.8906 9.58955 15.7793C9.56611 15.6836 9.53705 15.5991 9.52496 15.5917C9.47106 15.5583 9.42576 15.4133 9.38272 15.1359C9.35714 14.9712 9.31795 14.7933 9.29554 14.7405C9.19157 14.4952 9.19206 13.6112 9.29633 13.3346C9.33278 13.2379 9.36715 13.0606 9.41819 12.7059C9.42637 12.6489 9.45836 12.572 9.48925 12.535C9.52008 12.498 9.56288 12.3982 9.58424 12.3133C9.60567 12.2283 9.64554 12.1239 9.67295 12.0813C9.7003 12.0386 9.75408 11.9378 9.79242 11.8572C9.83082 11.7766 9.88051 11.6955 9.90286 11.6769C9.92526 11.6584 9.9658 11.5925 9.99303 11.5304C10.0203 11.4684 10.0778 11.3823 10.1209 11.3392C10.1641 11.296 10.246 11.2081 10.3031 11.1438C10.5263 10.8923 10.7199 10.6973 10.7463 10.6973C10.7615 10.6973 10.7947 10.6632 10.82 10.6216C10.8453 10.58 10.9028 10.5235 10.9478 10.4961C10.9928 10.4688 11.0442 10.4257 11.0619 10.4004C11.0797 10.3751 11.1587 10.3218 11.2376 10.282C11.3164 10.2422 11.3898 10.1938 11.4006 10.1744C11.4115 10.155 11.473 10.1165 11.5375 10.0889C11.6019 10.0613 11.6898 10.0121 11.7328 9.97947C11.7759 9.94687 11.877 9.9017 11.9576 9.87905C12.0382 9.85646 12.1448 9.81165 12.1946 9.77954C12.2935 9.7158 12.4099 9.68522 12.6536 9.65897C12.7409 9.64956 12.871 9.61434 12.9426 9.5807C13.1284 9.49358 13.7484 9.45457 14.2195 9.50042Z" fill="#D0021B"/>
<path fillRule="evenodd" clipRule="evenodd" d="M12.2325 3.42046C12.1678 3.43994 11.9283 3.63676 11.8913 3.70092C11.818 3.8279 11.7434 4.36215 11.7019 5.05652C11.6718 5.56054 11.6348 5.72721 11.5338 5.81353C11.4944 5.84711 11.4493 5.90022 11.4335 5.9316C11.4176 5.96292 11.3643 6.00523 11.315 6.02556C11.2658 6.04589 11.1924 6.08697 11.1521 6.11689C11.0672 6.17983 11.028 6.19637 10.8529 6.24289C10.7824 6.26157 10.6835 6.30382 10.6332 6.33666C10.5828 6.36945 10.4717 6.4142 10.3862 6.43599C10.3006 6.45785 10.169 6.51047 10.0937 6.55302C9.90118 6.66163 9.36572 6.6689 9.25522 6.56438C9.23751 6.54765 9.16255 6.48856 9.08868 6.43318C8.97903 6.35089 8.6305 6.03838 8.30969 5.73466C7.98423 5.42654 7.50829 5.31336 7.28839 5.49174C7.25109 5.52196 7.18809 5.56555 7.14835 5.58857C7.1086 5.61158 7.034 5.67159 6.98254 5.72196C6.93113 5.77232 6.87802 5.81353 6.86459 5.81353C6.8511 5.81353 6.79798 5.85474 6.74646 5.90511C6.69493 5.95547 6.62674 6.01933 6.59481 6.04705C6.56294 6.07482 6.52033 6.11469 6.50019 6.13575C6.48004 6.15681 6.33718 6.29955 6.18273 6.45302C5.77052 6.8626 5.32804 7.35326 5.32804 7.40075C5.32804 7.41327 5.29678 7.45961 5.25863 7.50374C5.09294 7.69532 5.08354 8.15551 5.24184 8.32876C5.27255 8.36234 5.31174 8.41729 5.32895 8.45086C5.35924 8.5099 5.3875 8.54268 5.63457 8.80495C6.01155 9.20513 6.29378 9.542 6.32845 9.63314C6.39884 9.81818 6.34659 10.2909 6.24311 10.4052C6.22363 10.4267 6.1848 10.5364 6.15678 10.6488C6.12754 10.7665 6.08188 10.882 6.0494 10.9206C6.01832 10.9574 5.97913 11.046 5.96222 11.1173C5.81942 11.7196 5.527 11.9401 4.80302 11.9917C3.49815 12.0847 3.3998 12.1124 3.16006 12.4546C3.11738 12.5155 3.07874 15.3127 3.11763 15.5251C3.13661 15.6284 3.30535 15.8254 3.47214 15.9389L3.60645 16.0303L3.96053 16.0484C4.15528 16.0583 4.45198 16.0673 4.61987 16.0683C4.96168 16.0704 5.22346 16.1049 5.27889 16.155C5.29922 16.1734 5.36528 16.21 5.42572 16.2365C5.53768 16.2856 5.76759 16.4934 5.76759 16.5455C5.76759 16.5613 5.80013 16.6233 5.83988 16.6834C5.87962 16.7434 5.92815 16.8539 5.94769 16.929C5.9853 17.0732 6.04488 17.2049 6.08334 17.2287C6.09598 17.2365 6.12467 17.3252 6.14708 17.4259C6.16942 17.5265 6.21222 17.6449 6.24219 17.689C6.41356 17.9416 6.39982 18.4333 6.21557 18.6401C6.17064 18.6905 6.13389 18.741 6.13389 18.7523C6.13389 18.7637 6.05422 18.8568 5.95685 18.9593C5.4013 19.5442 5.31339 19.6484 5.18207 19.8774C5.09312 20.0323 5.14538 20.5875 5.24886 20.5875C5.26058 20.5875 5.28756 20.624 5.30887 20.6686C5.3582 20.772 5.68438 21.1644 5.8262 21.2909C5.85172 21.3136 5.89018 21.3516 5.91167 21.3753C6.04311 21.5201 6.69341 22.1556 6.79988 22.2432C7.14096 22.524 7.19535 22.5655 7.2227 22.5655C7.23894 22.5655 7.31489 22.5984 7.39151 22.6387C7.55371 22.7241 7.697 22.7339 7.80664 22.6673C7.84693 22.6428 7.93356 22.6045 7.99919 22.5822C8.12159 22.5407 8.19644 22.4811 8.56493 22.132C8.6819 22.0212 8.78691 21.9305 8.7982 21.9305C8.80956 21.9305 8.83544 21.8984 8.85577 21.859C8.87616 21.8197 8.91414 21.7807 8.9402 21.7724C8.96621 21.7642 9.02445 21.7194 9.06951 21.673C9.3051 21.4305 9.94813 21.4181 10.3463 21.6485C10.4 21.6796 10.5253 21.7279 10.6246 21.7559C10.724 21.7838 10.8284 21.8277 10.8566 21.8534C10.8849 21.879 10.9684 21.9195 11.0423 21.9433C11.1824 21.9884 11.2485 22.0332 11.473 22.2352C11.667 22.4098 11.6653 22.4019 11.7268 23.3546C11.7883 24.3068 11.8667 24.5018 12.251 24.6574L12.422 24.7266H13.7773H15.1326L15.3251 24.6411C15.4814 24.5718 15.5291 24.5372 15.5785 24.458C15.6119 24.4043 15.6583 24.3383 15.6816 24.3115C15.7493 24.2336 15.7551 24.1807 15.7805 23.3965L15.8045 22.6526L15.8786 22.5174C15.9194 22.4431 15.9703 22.3413 15.9918 22.2913C16.0133 22.2412 16.0495 22.1943 16.0724 22.1871C16.0952 22.1798 16.172 22.1305 16.243 22.0776C16.314 22.0246 16.4284 21.9625 16.4972 21.9398C16.5659 21.9171 16.6606 21.8734 16.7076 21.8428C16.7546 21.8123 16.8645 21.7693 16.9518 21.7473C17.0391 21.7254 17.1493 21.6809 17.1967 21.6485C17.2921 21.5832 17.7267 21.4666 17.8742 21.4666C18.1695 21.4666 18.375 21.5758 18.7215 21.9166C18.8524 22.0454 18.96 22.1396 19.3378 22.4565C19.3943 22.5039 19.4823 22.5599 19.5332 22.5809C19.5842 22.602 19.6462 22.6373 19.6711 22.6595C19.7946 22.7694 20.3468 22.6258 20.459 22.4545C20.4788 22.4243 20.5278 22.3859 20.568 22.3692C20.6081 22.3526 20.6629 22.3111 20.6898 22.2768C20.7167 22.2426 20.7686 22.1964 20.805 22.1741C20.9058 22.1125 21.7982 21.232 21.8767 21.1168C21.9146 21.061 21.9814 20.9792 22.025 20.935C22.0687 20.8907 22.1044 20.8391 22.1044 20.8203C22.1044 20.8015 22.1361 20.7635 22.175 20.7359C22.3341 20.6226 22.4717 20.114 22.3764 19.9916C22.3649 19.9768 22.3352 19.9107 22.3105 19.8446C22.256 19.699 22.1037 19.5087 21.6757 19.0516C21.3346 18.6872 21.2569 18.5898 21.2411 18.5068C21.2328 18.4625 21.21 18.3691 21.1906 18.2992C21.1499 18.1525 21.2647 17.6122 21.3672 17.4683C21.3952 17.4288 21.4406 17.3159 21.4679 17.2173C21.4952 17.1188 21.5449 16.9987 21.5783 16.9505C21.6117 16.9022 21.6611 16.7987 21.688 16.7204C21.715 16.6422 21.7693 16.5414 21.8087 16.4965C21.848 16.4516 21.8872 16.3931 21.8957 16.3666C21.905 16.3371 21.9977 16.2739 22.1332 16.2046L22.3554 16.0908L23.0419 16.069C23.9282 16.0408 23.9609 16.0367 24.0787 15.9399C24.1306 15.8972 24.2022 15.8403 24.2379 15.8134C24.2798 15.7819 24.3264 15.6996 24.3696 15.5814L24.4365 15.3983L24.4436 14.1341C24.4509 12.8421 24.4456 12.746 24.3533 12.5046C24.2391 12.2059 24.0638 12.1092 23.5574 12.0653C22.0875 11.9379 22.1486 11.949 21.9701 11.7763C21.8008 11.6127 21.7186 11.4911 21.6745 11.3394C21.6537 11.2681 21.609 11.1767 21.575 11.1363C21.5402 11.095 21.4935 10.9864 21.4682 10.8879C21.4435 10.7917 21.4002 10.6818 21.3722 10.6439C21.1333 10.3208 21.1447 9.60726 21.3929 9.34658C21.4418 9.2953 21.5311 9.19963 21.5916 9.13407C21.652 9.06844 21.7208 8.995 21.7443 8.97088C21.7889 8.92522 21.8132 8.89866 21.9618 8.73346C22.2083 8.45935 22.2729 8.37309 22.3134 8.26417C22.3377 8.19897 22.372 8.12394 22.3897 8.09745C22.4328 8.0328 22.4305 7.82682 22.3857 7.74648C22.3658 7.71082 22.322 7.6212 22.2882 7.54733C22.2545 7.47346 22.1875 7.36357 22.1395 7.30314C21.9411 7.05375 21.7175 6.79679 21.616 6.70149C21.5494 6.63898 21.4615 6.55217 21.4141 6.50217C21.2964 6.37793 20.7818 5.89363 20.7125 5.84186C20.6655 5.80676 20.5788 5.73655 20.5198 5.68588C20.4608 5.63521 20.3983 5.59376 20.3808 5.59376C20.3634 5.59376 20.3131 5.56085 20.2691 5.52062C20.0417 5.31293 19.5531 5.41769 19.2056 5.74858C19.1752 5.77757 19.0924 5.85352 19.0217 5.91732C18.951 5.98111 18.8058 6.11664 18.6989 6.21841C18.5922 6.32024 18.4746 6.41902 18.438 6.43807C18.4012 6.45705 18.3541 6.49692 18.3332 6.52671C18.2245 6.68196 17.6254 6.68605 17.4001 6.53312C17.3567 6.50363 17.2463 6.46096 17.1548 6.43813C17.0633 6.41536 16.95 6.37055 16.903 6.33856C16.856 6.30651 16.7374 6.25828 16.6394 6.23135C16.5414 6.20437 16.428 6.15431 16.3872 6.12006C16.3465 6.08575 16.2987 6.05773 16.2811 6.05773C16.2232 6.05773 15.9982 5.83368 15.931 5.70908C15.8948 5.64205 15.8512 5.56189 15.834 5.53094C15.812 5.49125 15.7968 5.2484 15.7821 4.70518C15.7634 4.01679 15.7564 3.92809 15.7155 3.86423C15.5815 3.65483 15.5294 3.58859 15.4684 3.54976C15.4315 3.52626 15.3957 3.50062 15.389 3.49281C15.3045 3.39464 15.3252 3.39586 13.7779 3.39806C12.965 3.39922 12.2695 3.40929 12.2325 3.42046ZM15.4073 3.55037C15.4912 3.61509 15.5599 3.67675 15.5599 3.68737C15.5599 3.69793 15.589 3.74933 15.6245 3.80159C15.7236 3.94726 15.73 3.99732 15.7524 4.78467L15.7732 5.51982L15.8924 5.71824C15.9641 5.83753 16.0506 5.94522 16.1093 5.98838C16.3245 6.14637 16.4344 6.20651 16.5977 6.25577C16.6918 6.28416 16.8126 6.33251 16.8664 6.36322C16.9201 6.39387 17.0282 6.43721 17.1066 6.45943C17.185 6.48172 17.3157 6.53477 17.3971 6.57744C17.6358 6.70253 18.2554 6.70088 18.3497 6.57494C18.3666 6.55235 18.4298 6.49399 18.4903 6.44521C18.5507 6.39637 18.6716 6.28886 18.7589 6.20626C19.2019 5.78704 19.4009 5.62642 19.6466 5.49003C19.7899 5.41042 20.1062 5.43924 20.2427 5.54431C20.2794 5.57263 20.3606 5.63106 20.423 5.67416C20.6327 5.81897 20.7968 5.95321 20.9704 6.12202C21.0652 6.21426 21.2026 6.34607 21.2756 6.41493C21.3487 6.48379 21.4314 6.56621 21.4594 6.59808C21.4875 6.62995 21.5369 6.67927 21.5693 6.70766C21.6413 6.77079 21.7849 6.93214 21.9392 7.12328C22.0028 7.20204 22.0993 7.32145 22.1535 7.38861C22.3474 7.62841 22.4049 7.91137 22.312 8.16759C22.2784 8.26021 22.2509 8.33945 22.2509 8.34372C22.2509 8.36497 21.8146 8.84909 21.4647 9.21618C21.0664 9.63406 21.0345 10.0392 21.3492 10.6853C21.3885 10.7659 21.4374 10.8932 21.4578 10.9682C21.4783 11.0433 21.522 11.1412 21.5548 11.1857C21.5877 11.2303 21.6328 11.3227 21.655 11.3911C21.7155 11.5774 21.9145 11.8178 22.1002 11.9287C22.2099 11.9943 22.5783 12.0418 23.3498 12.09C23.922 12.1256 24.0097 12.1459 24.155 12.2766C24.3809 12.4798 24.3785 12.459 24.3702 14.107L24.3632 15.5204L24.2974 15.6608C24.2612 15.738 24.2216 15.8012 24.2094 15.8012C24.1971 15.8012 24.1367 15.8397 24.075 15.8868C23.9201 16.0051 23.8312 16.018 23.0201 16.0405L22.312 16.06L22.0983 16.1768C21.9808 16.241 21.8846 16.3028 21.8846 16.3141C21.8846 16.3254 21.8441 16.3878 21.7946 16.4525C21.745 16.5174 21.6838 16.6254 21.6586 16.6925C21.6333 16.7597 21.5869 16.8531 21.5553 16.9001C21.5237 16.9471 21.4745 17.0655 21.4458 17.1633C21.4172 17.2611 21.3708 17.38 21.3427 17.4276C21.297 17.505 21.2465 17.6548 21.1382 18.0335C21.058 18.3138 21.2132 18.639 21.6282 19.0603C22.133 19.5728 22.3747 19.9402 22.3727 20.1919C22.3719 20.2905 22.2261 20.6468 22.1609 20.7093C22.1231 20.7456 22.0427 20.8389 21.9823 20.9165C21.7499 21.215 20.9568 22.0195 20.743 22.1735C20.6859 22.2147 20.6392 22.2569 20.6392 22.2673C20.6392 22.2777 20.6035 22.3068 20.5598 22.3318C20.5162 22.3568 20.4523 22.407 20.418 22.4434C20.1854 22.6893 19.5937 22.6964 19.3938 22.4556C19.3737 22.4313 19.2986 22.3682 19.227 22.3153C19.1554 22.2624 18.9851 22.113 18.8485 21.9832C18.1657 21.3346 17.8773 21.2737 17.1594 21.6268C17.0654 21.673 16.9751 21.7108 16.9588 21.7108C16.9064 21.7108 16.6974 21.7884 16.6344 21.8314C16.6008 21.8542 16.5184 21.8931 16.4512 21.9177C16.2152 22.0042 16.0133 22.181 15.8878 22.4113L15.7756 22.617L15.7534 23.3422C15.7288 24.143 15.7258 24.1621 15.5923 24.3715C15.4087 24.6596 15.3794 24.6642 13.7411 24.6649L12.3986 24.6656L12.237 24.6038C11.9175 24.4817 11.8483 24.3322 11.7993 23.6582C11.7134 22.4773 11.7045 22.4218 11.5768 22.2785C11.4534 22.14 11.217 21.9691 11.0789 21.9184C11.0117 21.8937 10.9183 21.8486 10.8713 21.818C10.8243 21.7874 10.7309 21.7495 10.6637 21.7336C10.5966 21.7177 10.4922 21.6765 10.4318 21.6421C10.1015 21.4539 9.63739 21.376 9.38171 21.4658C9.12927 21.5546 9.11993 21.5613 8.72238 21.9409C8.15682 22.4809 7.88179 22.6633 7.63363 22.6631C7.53931 22.663 7.21214 22.5285 7.1351 22.4581C7.10152 22.4275 7.03559 22.3766 6.98858 22.3452C6.62094 22.0992 5.59739 21.039 5.30331 20.5997L5.17255 20.4043L5.1709 20.1833L5.16931 19.9623L5.30716 19.7559C5.38298 19.6425 5.52034 19.4708 5.61241 19.3745C5.91179 19.0612 6.15434 18.7933 6.21722 18.7066C6.2511 18.6599 6.29543 18.5992 6.31576 18.5717C6.42754 18.4207 6.40977 17.9209 6.28413 17.6812C6.24463 17.6058 6.19421 17.4734 6.17211 17.387C6.15001 17.3005 6.10581 17.1913 6.07394 17.1443C6.04207 17.0973 5.99696 16.9874 5.97364 16.9001C5.95031 16.8128 5.90697 16.7084 5.87736 16.6681C5.84769 16.6278 5.81594 16.5711 5.80679 16.542C5.77168 16.4309 5.4944 16.2052 5.25478 16.0925C5.21699 16.0747 4.89972 16.0524 4.42164 16.0339L3.64955 16.0039L3.4907 15.9011C3.38435 15.8324 3.30053 15.753 3.23716 15.661L3.14247 15.5235L3.13521 14.1178C3.12709 12.5407 3.12428 12.5715 3.29595 12.3565C3.46439 12.1454 3.51323 12.134 4.5344 12.0642C4.98922 12.0332 5.2259 12.0023 5.37071 11.9552C5.48603 11.9177 5.75972 11.6907 5.78237 11.6138C5.79037 11.5866 5.82425 11.524 5.85764 11.4746C5.89104 11.4251 5.9439 11.3017 5.97522 11.2004C6.00648 11.099 6.05367 10.9856 6.08004 10.9483C6.10642 10.9111 6.15172 10.7938 6.18071 10.6878C6.20971 10.5817 6.25342 10.4663 6.27797 10.4314C6.38462 10.2791 6.4345 9.74889 6.35587 9.6025C6.2964 9.49181 5.93707 9.04982 5.81668 8.93926C5.6944 8.82699 5.36345 8.44024 5.26705 8.29702C5.14501 8.1157 5.12358 7.77718 5.22426 7.62059C5.25441 7.57358 5.29837 7.50326 5.32193 7.46437C5.52712 7.12481 6.83467 5.81726 7.17423 5.61207C7.21312 5.58851 7.27966 5.54693 7.32197 5.51958C7.57575 5.35585 7.92605 5.44034 8.26042 5.74583C8.30859 5.78978 8.45144 5.92061 8.57788 6.03655C9.26584 6.66725 9.29759 6.68416 9.75637 6.66407C9.95545 6.65534 10.0051 6.6435 10.1647 6.56633C10.2645 6.51798 10.4012 6.4656 10.4684 6.44985C10.5355 6.4341 10.63 6.39533 10.6783 6.36371C10.7266 6.33209 10.8432 6.28325 10.9376 6.25516C11.0319 6.22708 11.1353 6.18367 11.1673 6.15871C11.1993 6.13374 11.271 6.09015 11.3267 6.06182C11.3825 6.03355 11.452 5.97159 11.4813 5.92415C11.5106 5.87678 11.5444 5.83795 11.5565 5.83795C11.6379 5.83795 11.711 5.54687 11.7496 5.06873C11.8549 3.76441 11.8596 3.74207 12.0649 3.58542C12.2883 3.41497 12.2008 3.4229 13.8017 3.42797L15.2547 3.43261L15.4073 3.55037ZM13.3499 9.59676C12.9914 9.66819 12.7181 9.72002 12.5836 9.74212C12.4979 9.75622 12.3764 9.79462 12.3135 9.82752C12.2507 9.86037 12.1505 9.89993 12.0908 9.91544C12.0312 9.93094 11.922 9.97996 11.8481 10.0243C11.7742 10.0687 11.6739 10.1179 11.6252 10.1336C11.5764 10.1493 11.516 10.1848 11.4908 10.2126C11.4658 10.2405 11.3943 10.289 11.3321 10.3206C11.1463 10.4148 10.6542 10.8635 10.3667 11.2009C10.3108 11.2665 10.2271 11.3641 10.1808 11.4179C10.1345 11.4716 10.0773 11.554 10.0538 11.601C10.0303 11.648 9.98561 11.7139 9.95454 11.7475C9.92346 11.7811 9.87542 11.8663 9.84782 11.9367C9.82017 12.0072 9.77078 12.1061 9.738 12.1565C9.70521 12.2069 9.66559 12.2976 9.64996 12.358C9.63427 12.4185 9.58983 12.5404 9.55113 12.6291C9.50045 12.7453 9.46297 12.9059 9.41724 13.203C9.28587 14.0565 9.28587 14.0068 9.41798 14.8715C9.46352 15.1699 9.50009 15.3308 9.5402 15.4101C9.5717 15.4722 9.61327 15.5836 9.63263 15.6576C9.65192 15.7316 9.68549 15.8244 9.70717 15.8638C9.7289 15.9033 9.78104 16.0069 9.82304 16.0942C9.8651 16.1815 9.9242 16.2859 9.95448 16.3262C9.9847 16.3665 10.0305 16.4407 10.0563 16.491C10.1426 16.6597 11.036 17.5791 11.1898 17.6576C11.238 17.6822 11.2929 17.7209 11.3117 17.7435C11.3305 17.7661 11.4115 17.8165 11.4918 17.8554C11.5721 17.8943 11.6604 17.9467 11.688 17.9717C11.7156 17.9968 11.7987 18.0369 11.8725 18.0608C11.9464 18.0847 12.0457 18.13 12.0933 18.1614C12.1408 18.1928 12.2803 18.2399 12.4036 18.2662C12.5267 18.2926 12.6582 18.3296 12.6957 18.3485C13.0116 18.5077 14.4817 18.5112 14.8588 18.3537C14.908 18.3331 15.044 18.2939 15.161 18.2667C15.278 18.2394 15.4294 18.1858 15.4974 18.1476C15.5653 18.1094 15.6778 18.0597 15.7473 18.0372C15.8167 18.0147 15.8876 17.9795 15.9045 17.959C15.9216 17.9385 15.9966 17.889 16.0713 17.849C16.3495 17.7002 16.6013 17.4935 17.0104 17.0785C17.3009 16.7837 17.3925 16.6693 17.5312 16.4281C17.5684 16.3632 17.6285 16.2718 17.6646 16.2251C17.7008 16.1783 17.7487 16.083 17.7711 16.0133C17.7935 15.9437 17.8386 15.8469 17.8714 15.7982C17.9041 15.7495 17.9623 15.5957 18.0005 15.4563C18.0387 15.317 18.0872 15.1574 18.1082 15.1017C18.2639 14.6892 18.2364 13.3299 18.0623 12.8315C18.0159 12.6987 17.978 12.568 17.9781 12.5412C17.9781 12.5143 17.9403 12.4154 17.8939 12.3214C17.8475 12.2274 17.781 12.09 17.746 12.0161C17.6558 11.8258 17.5329 11.6132 17.4749 11.5473C17.4477 11.5165 17.3938 11.4417 17.3554 11.3812C17.2739 11.2533 16.62 10.5988 16.4832 10.5083C16.4321 10.4745 16.3902 10.4375 16.3902 10.4261C16.3902 10.4146 16.338 10.3788 16.2742 10.3464C16.2104 10.3141 16.1375 10.2647 16.1122 10.2367C16.0868 10.2086 16.0061 10.1632 15.9328 10.1358C15.8595 10.1084 15.7648 10.0597 15.7224 10.0276C15.68 9.99547 15.581 9.95066 15.5024 9.92795C15.4238 9.90524 15.292 9.85542 15.2094 9.81721C15.1098 9.77105 14.9689 9.73455 14.7907 9.70866C14.6429 9.68723 14.4616 9.65274 14.3878 9.63204C14.2356 9.58943 13.5104 9.56477 13.3499 9.59676ZM14.2439 9.66019C14.3374 9.67985 14.5536 9.713 14.7244 9.73388C14.9702 9.76391 15.0632 9.78644 15.1707 9.84205C15.2454 9.8807 15.3773 9.93058 15.4637 9.9528C15.5502 9.97502 15.6435 10.0142 15.6711 10.0399C15.6987 10.0656 15.792 10.1152 15.8783 10.1504C15.9648 10.1855 16.0717 10.246 16.116 10.2849C16.1603 10.3238 16.2117 10.3556 16.2302 10.3556C16.2488 10.3556 16.2951 10.3893 16.3332 10.4304C16.3712 10.4717 16.4299 10.5202 16.4634 10.5383C16.5534 10.5869 17.2999 11.3357 17.3419 11.4194C17.3617 11.4589 17.4138 11.5324 17.4579 11.5828C17.5019 11.6332 17.5379 11.6896 17.5379 11.7082C17.5379 11.7268 17.582 11.8081 17.6361 11.8889C17.69 11.9697 17.7497 12.0875 17.7687 12.1505C17.7877 12.2135 17.8306 12.3052 17.8642 12.3543C17.8996 12.4061 17.9417 12.5245 17.9646 12.6367C17.9862 12.743 18.0252 12.8804 18.0511 12.942C18.2098 13.3186 18.2188 14.7212 18.0649 15.0894C18.0331 15.1652 17.9942 15.2933 17.9785 15.3739C17.9387 15.5771 17.904 15.6811 17.8519 15.7524C17.8274 15.7859 17.7855 15.8774 17.7588 15.9555C17.7321 16.0337 17.6821 16.1312 17.6476 16.1721C17.6131 16.2132 17.5682 16.2865 17.5479 16.3353C17.5275 16.384 17.4853 16.4514 17.4539 16.485C17.4226 16.5185 17.3781 16.5845 17.3551 16.6315C17.332 16.6785 17.2751 16.7554 17.2287 16.8024C17.1822 16.8494 17.0707 16.9616 16.9809 17.0517C16.891 17.1418 16.7926 17.2407 16.7621 17.2715C16.7317 17.3023 16.6896 17.3439 16.6686 17.3641C16.6477 17.3842 16.5891 17.4406 16.5385 17.4893C16.4879 17.5381 16.4086 17.596 16.3623 17.618C16.3159 17.6399 16.2443 17.6888 16.203 17.7265C16.1617 17.7642 16.0908 17.8097 16.0454 17.8277C15.9999 17.8456 15.9354 17.8851 15.9018 17.9155C15.8682 17.9459 15.7693 17.9943 15.682 18.0231C15.5947 18.052 15.4846 18.1021 15.4374 18.1344C15.3851 18.1702 15.2604 18.2119 15.1186 18.241C14.9906 18.2673 14.8304 18.3108 14.7626 18.3375C14.4085 18.4771 13.1156 18.4778 12.8023 18.3385C12.7408 18.3112 12.5807 18.2668 12.4464 18.2398C12.2786 18.2061 12.1695 18.1691 12.0976 18.1215C12.0401 18.0835 11.9394 18.0394 11.8737 18.0237C11.8081 18.0079 11.7343 17.9725 11.7097 17.9448C11.6851 17.9172 11.599 17.8648 11.5184 17.8285C11.4379 17.7921 11.3562 17.7434 11.3371 17.7203C11.3179 17.6972 11.2684 17.6612 11.2272 17.6405C11.1859 17.6197 11.1192 17.572 11.0789 17.5345C10.9437 17.4087 10.4695 16.9276 10.3585 16.8036C10.2981 16.736 10.2129 16.6425 10.1692 16.5958C10.1256 16.5492 10.0899 16.495 10.0899 16.4754C10.0899 16.4558 10.0504 16.3882 10.0023 16.3251C9.95405 16.2619 9.8988 16.1654 9.87945 16.1105C9.8601 16.0557 9.81248 15.9609 9.77359 15.8999C9.7347 15.8389 9.68488 15.7188 9.66284 15.6329C9.64081 15.5471 9.5963 15.4262 9.56395 15.3643C9.44362 15.1342 9.34337 14.0011 9.40638 13.5837C9.41993 13.4938 9.44685 13.291 9.46614 13.1331C9.48995 12.9384 9.52139 12.8009 9.56388 12.7058C9.59832 12.6286 9.64801 12.4896 9.67438 12.3969C9.70076 12.3041 9.7438 12.2052 9.77005 12.1771C9.7963 12.149 9.84184 12.0601 9.87127 11.9795C9.90069 11.8989 9.94373 11.8165 9.96693 11.7964C9.99013 11.7762 10.0371 11.7082 10.0713 11.6453C10.1864 11.4337 10.8901 10.6676 11.0736 10.5542C11.1186 10.5264 11.1766 10.4802 11.2026 10.4514C11.2286 10.4227 11.2993 10.374 11.3597 10.3434C11.4201 10.3127 11.4906 10.2644 11.5162 10.2361C11.5418 10.2077 11.6029 10.1737 11.652 10.1604C11.701 10.1472 11.7927 10.1023 11.8557 10.0605C11.9187 10.0188 12.0335 9.96837 12.1107 9.94846C12.1878 9.92856 12.2959 9.88632 12.3507 9.85451C12.4056 9.8227 12.521 9.78528 12.6071 9.77136C12.6933 9.75744 12.9122 9.72191 13.0935 9.69248C13.7202 9.59065 13.8906 9.58589 14.2439 9.66019Z" fill="#D0021B"/>
<path fillRule="evenodd" clipRule="evenodd" d="M12.2744 3.45205C11.8839 3.60583 11.8617 3.67421 11.7491 5.06839C11.7105 5.54653 11.6374 5.83761 11.556 5.83761C11.544 5.83761 11.5101 5.87644 11.4808 5.92381C11.4515 5.97125 11.382 6.03321 11.3263 6.06148C11.2705 6.08981 11.1988 6.13339 11.1668 6.15836C11.1348 6.18333 11.0315 6.22674 10.9371 6.25482C10.8428 6.2829 10.7261 6.33174 10.6778 6.36337C10.6295 6.39499 10.5351 6.43376 10.4679 6.44951C10.4008 6.46526 10.2641 6.51764 10.1642 6.56599C10.0046 6.64316 9.95497 6.655 9.75589 6.66373C9.29711 6.68382 9.26536 6.6669 8.5774 6.0362C8.45096 5.92027 8.30811 5.78944 8.25994 5.74549C7.92557 5.44 7.57527 5.3555 7.32149 5.51924C7.27918 5.54659 7.21264 5.58816 7.17375 5.61173C6.83419 5.81691 5.52664 7.12447 5.32145 7.46403C5.29789 7.50291 5.25393 7.57324 5.22377 7.62025C5.02964 7.92232 5.25485 8.42354 5.8162 8.93892C5.93659 9.04948 6.29592 9.49147 6.35538 9.60216C6.43402 9.74855 6.38414 10.2788 6.27749 10.431C6.25294 10.4659 6.20923 10.5813 6.18023 10.6874C6.15124 10.7935 6.10594 10.9107 6.07956 10.948C6.05319 10.9852 6.006 11.0987 5.97474 11.2001C5.94342 11.3014 5.89056 11.4248 5.85716 11.4742C5.82377 11.5236 5.78988 11.5863 5.78189 11.6134C5.75924 11.6903 5.48555 11.9173 5.37023 11.9549C5.22542 12.002 4.98873 12.0329 4.53392 12.0639C3.51275 12.1336 3.46391 12.1451 3.29547 12.3562C3.1238 12.5712 3.12661 12.5404 3.13473 14.1175L3.14199 15.5232L3.23668 15.6606C3.30005 15.7526 3.38387 15.8321 3.49022 15.9008L3.64907 16.0035L4.42116 16.0335C4.89924 16.0521 5.21651 16.0744 5.2543 16.0922C5.49392 16.2048 5.7712 16.4306 5.80631 16.5417C5.81546 16.5707 5.84721 16.6275 5.87688 16.6678C5.90649 16.708 5.94983 16.8124 5.97315 16.8997C5.99648 16.987 6.04159 17.0969 6.07346 17.1439C6.10533 17.191 6.14953 17.3002 6.17163 17.3866C6.19373 17.4731 6.24415 17.6055 6.28365 17.6808C6.40929 17.9206 6.42706 18.4204 6.31527 18.5713C6.29495 18.5989 6.25062 18.6596 6.21674 18.7063C6.15386 18.793 5.91131 19.0608 5.61193 19.3741C5.51986 19.4705 5.3825 19.6421 5.30668 19.7556L5.16883 19.9619L5.17042 20.1829L5.17207 20.404L5.30283 20.5993C5.59691 21.0387 6.62046 22.0989 6.9881 22.3449C7.03511 22.3763 7.10104 22.4271 7.13462 22.4578C7.21166 22.5281 7.53883 22.6626 7.63315 22.6627C7.88131 22.663 8.15634 22.4806 8.7219 21.9406C9.11945 21.561 9.12879 21.5543 9.38123 21.4655C9.63691 21.3756 10.101 21.4535 10.4313 21.6418C10.4917 21.6762 10.5961 21.7174 10.6633 21.7333C10.7304 21.7491 10.8238 21.7871 10.8708 21.8177C10.9178 21.8482 11.0112 21.8934 11.0784 21.9181C11.2166 21.9687 11.4529 22.1397 11.5763 22.2782C11.704 22.4214 11.7129 22.477 11.7988 23.6579C11.8478 24.3319 11.917 24.4814 12.2365 24.6034L12.3981 24.6652L13.7406 24.6646C15.379 24.6639 15.4082 24.6592 15.5918 24.3712C15.7253 24.1618 15.7283 24.1427 15.7529 23.3419L15.7751 22.6167L15.8873 22.411C16.0128 22.1807 16.2147 22.0038 16.4507 21.9174C16.5179 21.8928 16.6003 21.8539 16.6339 21.8311C16.697 21.7881 16.9059 21.7104 16.9583 21.7104C16.9746 21.7104 17.0649 21.6726 17.1589 21.6264C17.8768 21.2734 18.1652 21.3342 18.848 21.9829C18.9846 22.1126 19.1549 22.2621 19.2265 22.315C19.2981 22.3679 19.3732 22.431 19.3933 22.4553C19.5932 22.6961 20.1849 22.689 20.4175 22.443C20.4518 22.4066 20.5157 22.3565 20.5594 22.3314C20.603 22.3065 20.6387 22.2774 20.6387 22.267C20.6387 22.2565 20.6854 22.2143 20.7425 22.1732C20.9564 22.0192 21.7495 21.2147 21.9818 20.9162C22.0422 20.8385 22.1226 20.7453 22.1604 20.709C22.2256 20.6465 22.3714 20.2901 22.3722 20.1916C22.3742 19.9398 22.1325 19.5725 21.6277 19.06C21.2127 18.6387 21.0575 18.3135 21.1377 18.0331C21.246 17.6544 21.2965 17.5047 21.3422 17.4273C21.3703 17.3797 21.4167 17.2607 21.4454 17.163C21.474 17.0652 21.5233 16.9468 21.5548 16.8997C21.5864 16.8527 21.6328 16.7593 21.6581 16.6922C21.6833 16.625 21.7445 16.517 21.7941 16.4522C21.8436 16.3874 21.8841 16.3251 21.8841 16.3138C21.8841 16.3024 21.9803 16.2407 22.0978 16.1765L22.3115 16.0597L23.0196 16.0401C23.8307 16.0177 23.9196 16.0048 24.0745 15.8864C24.1362 15.8394 24.1966 15.8009 24.2089 15.8009C24.2211 15.8009 24.2607 15.7377 24.2969 15.6604L24.3627 15.52L24.3697 14.1066C24.378 12.4587 24.3804 12.4794 24.1546 12.2763C24.0092 12.1456 23.9215 12.1253 23.3493 12.0896C22.5778 12.0415 22.2095 11.9939 22.0997 11.9284C21.914 11.8175 21.715 11.5771 21.6545 11.3908C21.6323 11.3223 21.5872 11.2299 21.5543 11.1853C21.5215 11.1408 21.4778 11.043 21.4573 10.9679C21.4369 10.8929 21.388 10.7655 21.3487 10.6849C21.034 10.0389 21.0659 9.63372 21.4642 9.21583C21.8142 8.84875 22.2504 8.36462 22.2504 8.34338C22.2504 8.33911 22.2779 8.25986 22.3115 8.16725C22.4045 7.91103 22.3469 7.62807 22.153 7.38826C22.0988 7.32111 22.0023 7.2017 21.9387 7.12294C21.7844 6.9318 21.6408 6.77044 21.5688 6.70732C21.5365 6.67893 21.487 6.6296 21.4589 6.59774C21.4309 6.56587 21.3482 6.48345 21.2752 6.41459C21.2021 6.34572 21.0647 6.21392 20.9699 6.12167C20.7964 5.95287 20.6322 5.81862 20.4225 5.67382C20.3601 5.63071 20.279 5.57229 20.2422 5.54396C20.1057 5.4389 19.7894 5.41008 19.6461 5.48969C19.4005 5.62607 19.2014 5.7867 18.7584 6.20592C18.6711 6.28852 18.5502 6.39603 18.4898 6.44487C18.4293 6.49365 18.3661 6.55201 18.3492 6.5746C18.2549 6.70054 17.6353 6.70219 17.3966 6.5771C17.3152 6.53443 17.1845 6.48138 17.1061 6.45909C17.0277 6.43687 16.9196 6.39353 16.8659 6.36288C16.8122 6.33217 16.6913 6.28382 16.5973 6.25543C16.4339 6.20617 16.3241 6.14603 16.1089 5.98804C16.0501 5.94487 15.9636 5.83718 15.892 5.71789L15.7727 5.51948L15.7519 4.78433C15.7296 3.99697 15.7231 3.94691 15.624 3.80125C15.5885 3.74899 15.5594 3.69759 15.5594 3.68703C15.5594 3.6764 15.4907 3.61474 15.4068 3.55003L15.2542 3.43227L13.8012 3.42763C12.7262 3.42421 12.3291 3.43056 12.2744 3.45205ZM15.2831 3.56658C15.3243 3.60015 15.3923 3.64637 15.4343 3.6692C15.4762 3.69209 15.5108 3.73055 15.511 3.75467C15.5113 3.77884 15.5452 3.859 15.5865 3.93287L15.6614 4.06718L15.6837 4.76314C15.7098 5.58572 15.7164 5.64579 15.7886 5.7337C15.8191 5.7707 15.8792 5.85293 15.9222 5.91643C15.9677 5.9834 16.0489 6.05959 16.1158 6.09805C16.1791 6.13449 16.2604 6.18828 16.2963 6.21764C16.3323 6.24701 16.4394 6.29011 16.5344 6.31337C16.6294 6.33663 16.7071 6.3652 16.7071 6.37686C16.7071 6.41099 16.8397 6.46984 17.0015 6.50757C17.0841 6.52686 17.1955 6.57155 17.249 6.60695C17.5279 6.79157 18.2599 6.78943 18.4301 6.60354C18.4716 6.55836 18.5179 6.52136 18.5331 6.52136C18.5483 6.52136 18.5961 6.47741 18.6392 6.42368C18.6824 6.36996 18.7318 6.32601 18.7491 6.32601C18.7664 6.32601 18.8146 6.28358 18.8563 6.23175C18.898 6.17985 18.9571 6.12405 18.9876 6.10769C19.0182 6.09133 19.0621 6.04585 19.0853 6.00666C19.1085 5.9674 19.1414 5.93529 19.1584 5.93529C19.1754 5.93529 19.2592 5.87485 19.3445 5.80098C19.4298 5.72711 19.5142 5.66667 19.5321 5.66667C19.55 5.66667 19.5992 5.63371 19.6414 5.59341C19.7527 5.48707 20.0326 5.48401 20.1556 5.58786C20.1997 5.6251 20.277 5.67436 20.3274 5.69738C20.3777 5.72033 20.4189 5.74988 20.4189 5.76307C20.4189 5.7762 20.4821 5.83022 20.5594 5.88309C20.6873 5.9707 20.9352 6.19347 21.1882 6.44804C21.2419 6.50213 21.2996 6.54621 21.3164 6.54609C21.3332 6.5459 21.3469 6.55811 21.3469 6.57325C21.3469 6.58833 21.3991 6.65384 21.4629 6.71886C21.6662 6.926 21.7488 7.01769 21.7894 7.08167C21.8112 7.11598 21.8744 7.1926 21.9299 7.25194C21.9853 7.31122 22.0306 7.36928 22.0306 7.38094C22.0306 7.3926 22.0682 7.43967 22.1142 7.48558C22.3131 7.68454 22.2888 8.21976 22.0716 8.42244C22.0378 8.45394 21.998 8.50919 21.9831 8.54515C21.9682 8.58104 21.9316 8.62115 21.9018 8.63428C21.8719 8.64734 21.8255 8.6993 21.7987 8.7496C21.7718 8.79991 21.7396 8.84111 21.727 8.84118C21.6918 8.8413 21.5911 8.94349 21.5911 8.97915C21.5911 8.99661 21.5583 9.02786 21.5183 9.04856C21.4781 9.06932 21.4285 9.11895 21.4078 9.15888C21.3872 9.1988 21.3414 9.25039 21.3061 9.27353C21.2708 9.29666 21.2153 9.37096 21.1828 9.4386C21.1503 9.50625 21.1019 9.60008 21.0754 9.64709C20.9987 9.78317 21.0172 10.1652 21.107 10.2964C21.1435 10.3497 21.1855 10.4601 21.2021 10.5463C21.2184 10.6313 21.2593 10.7411 21.2927 10.7905C21.3559 10.8835 21.3752 10.9314 21.4196 11.1051C21.4341 11.1615 21.4717 11.2385 21.5032 11.276C21.5347 11.3135 21.5809 11.4092 21.6059 11.4885C21.6728 11.7014 21.9095 11.95 22.1004 12.008C22.1762 12.031 22.27 12.0715 22.3088 12.098C22.3723 12.1413 22.4434 12.1483 23.017 12.1674C23.94 12.1982 23.9475 12.1991 24.0541 12.2985C24.103 12.3441 24.1633 12.3959 24.1881 12.4137C24.2665 12.4698 24.2751 12.6297 24.2762 14.0533C24.2774 15.6504 24.2745 15.6807 24.1085 15.7582C24.0582 15.7817 23.9677 15.8335 23.9077 15.8733L23.7985 15.9456L23.0184 15.9671C22.2333 15.9887 22.0551 16.0118 22.0551 16.0921C22.0551 16.106 22.0113 16.1397 21.9578 16.167C21.9042 16.1943 21.8412 16.2467 21.8178 16.2835C21.7943 16.3202 21.7455 16.3786 21.7094 16.4132C21.6709 16.4502 21.6264 16.5361 21.6018 16.6208C21.5788 16.7004 21.5349 16.7888 21.5043 16.8174C21.4552 16.8631 21.3963 17.0088 21.3959 17.0853C21.3958 17.1001 21.3589 17.1825 21.3139 17.2685C21.2689 17.3544 21.2139 17.4985 21.1918 17.5885C21.1697 17.6785 21.1241 17.7928 21.0905 17.8422C21.029 17.9328 21.0205 17.9928 21.0285 18.2795C21.0307 18.3605 21.0482 18.4221 21.0804 18.4626C21.1071 18.4962 21.1357 18.5443 21.1438 18.5694C21.1938 18.7222 21.4869 19.0719 21.9147 19.4891C21.965 19.5382 22.0062 19.5906 22.0062 19.6054C22.0062 19.6203 22.0447 19.6698 22.0918 19.7155C22.2898 19.9078 22.3023 20.504 22.111 20.6294C22.0787 20.6506 22.0314 20.7088 22.0059 20.7588C21.9803 20.8088 21.943 20.856 21.9228 20.8638C21.9027 20.8715 21.8591 20.9208 21.8259 20.9733C21.766 21.0683 21.3042 21.5385 20.8914 21.9249C20.7726 22.0361 20.6424 22.1587 20.6021 22.1972C20.5618 22.2357 20.4939 22.2847 20.4512 22.306C20.4085 22.3273 20.3668 22.366 20.3586 22.392C20.2971 22.5857 19.6242 22.5733 19.4168 22.3746C19.3649 22.325 19.2807 22.249 19.2297 22.2058C19.1787 22.1627 19.0422 22.0364 18.9263 21.925C18.6349 21.6449 18.4358 21.4858 18.3317 21.4498C18.2831 21.433 18.2162 21.3979 18.1831 21.3718C18.0579 21.2733 17.7057 21.2766 17.556 21.3778C17.5122 21.4074 17.4104 21.4462 17.3299 21.464C17.1827 21.4966 17.0154 21.5683 16.9897 21.6099C16.9821 21.6222 16.8934 21.6506 16.7926 21.673C16.6789 21.6983 16.582 21.7367 16.5376 21.774C16.4983 21.8071 16.4112 21.8505 16.344 21.8704C16.2722 21.8918 16.1937 21.9374 16.1532 21.9811C16.1154 22.022 16.0544 22.0715 16.0177 22.091C15.981 22.1104 15.9328 22.1619 15.9105 22.2054C15.8883 22.2488 15.8395 22.3194 15.8022 22.3623C15.7164 22.4608 15.7099 22.5154 15.6821 23.371L15.6602 24.0425L15.5488 24.2535C15.3781 24.5769 15.5049 24.5538 13.85 24.5631C12.2275 24.5722 12.2364 24.573 12.0573 24.391L11.9361 24.2679L11.9169 23.9965C11.9064 23.8472 11.8879 23.4929 11.876 23.2091C11.8597 22.8238 11.8445 22.6737 11.8158 22.6163C11.7947 22.574 11.7599 22.479 11.7385 22.4053C11.6802 22.205 11.4095 21.9505 11.1703 21.8712C11.0999 21.8479 11.036 21.8185 11.0282 21.8059C11.0035 21.7659 10.8389 21.6937 10.6999 21.6619C10.626 21.645 10.5436 21.6119 10.5167 21.5883C10.4438 21.5245 10.3821 21.4982 10.2603 21.4791C10.1999 21.4697 10.079 21.4272 9.99172 21.3847C9.67934 21.2328 9.25205 21.3188 8.98026 21.5884C8.80364 21.7635 8.64486 21.9058 8.62599 21.9058C8.61488 21.9058 8.59235 21.938 8.57605 21.9775C8.55829 22.0204 8.51769 22.0591 8.47489 22.074C8.43558 22.0878 8.38442 22.1323 8.36122 22.1732C8.33796 22.214 8.3056 22.2474 8.28924 22.2475C8.27294 22.2476 8.20438 22.2966 8.13699 22.3565C7.89621 22.5704 7.3862 22.6013 7.21203 22.4127C7.17613 22.3739 7.11673 22.3261 7.07992 22.3066C7.04317 22.2871 6.95873 22.2228 6.89231 22.1638C6.82589 22.1049 6.7505 22.0499 6.72479 22.0418C6.69909 22.0336 6.66539 21.9992 6.64995 21.9653C6.6345 21.9313 6.58945 21.8849 6.54983 21.8622C6.51021 21.8395 6.46637 21.7957 6.45233 21.7649C6.43829 21.7342 6.39006 21.6873 6.34507 21.6607C6.30001 21.6342 6.25099 21.5856 6.23603 21.5527C6.22101 21.5199 6.17535 21.4757 6.13445 21.4546C6.09361 21.4335 6.06015 21.4042 6.06015 21.3897C6.06015 21.3751 6.01345 21.3144 5.95637 21.2548C5.66986 20.9555 5.45527 20.6929 5.38818 20.5597C5.36535 20.5144 5.3242 20.4594 5.29667 20.4376C5.20576 20.3656 5.20412 20.0332 5.29416 19.9258C5.33269 19.8799 5.38531 19.8039 5.41113 19.7569C5.43702 19.7098 5.5057 19.618 5.56376 19.5528C5.62188 19.4875 5.66943 19.4249 5.66943 19.4137C5.66943 19.4025 5.70258 19.3738 5.74306 19.3498C5.7836 19.3259 5.83024 19.2758 5.84672 19.2385C5.8632 19.2013 5.88952 19.1708 5.90521 19.1708C5.93976 19.1708 6.06009 19.032 6.06033 18.9918C6.06039 18.9761 6.09385 18.9442 6.13463 18.921C6.17547 18.8978 6.21985 18.8473 6.23322 18.8088C6.24666 18.7703 6.28927 18.7154 6.32797 18.6868C6.49403 18.5641 6.50117 17.7783 6.33792 17.5844C6.30313 17.543 6.25893 17.4322 6.22901 17.311C6.19708 17.182 6.15746 17.085 6.12089 17.0463C6.08457 17.0078 6.04831 16.9194 6.02297 16.8076C6.00081 16.7098 5.9582 16.5999 5.92828 16.5634C5.89831 16.5267 5.84922 16.4561 5.81913 16.4063C5.756 16.3018 5.64794 16.205 5.5383 16.1547C5.49624 16.1354 5.43232 16.0957 5.39624 16.0665C5.30912 15.996 5.16651 15.9753 4.74149 15.9717C4.00212 15.9654 3.70957 15.939 3.61629 15.8703C3.57032 15.8364 3.49736 15.7948 3.45414 15.7777C3.41098 15.7607 3.36824 15.7232 3.35927 15.6944C3.35029 15.6657 3.31147 15.606 3.27301 15.5619L3.20304 15.4817V14.0582V12.6347L3.3321 12.4665C3.53338 12.2042 3.51836 12.2089 4.23587 12.184C4.91822 12.1604 5.20259 12.132 5.28488 12.0795C5.3151 12.0602 5.38733 12.0305 5.44544 12.0135C5.50857 11.995 5.57731 11.9513 5.61638 11.9048C5.65228 11.8621 5.70625 11.8143 5.73634 11.7986C5.76644 11.783 5.80918 11.7348 5.83134 11.6915C5.8535 11.6483 5.89599 11.5837 5.92572 11.5481C5.95545 11.5124 5.99812 11.4101 6.02059 11.3207C6.04306 11.2313 6.09019 11.1147 6.12529 11.0617C6.16039 11.0086 6.20905 10.8814 6.23347 10.7789C6.25789 10.6764 6.29897 10.5694 6.32474 10.5411C6.44012 10.4142 6.49537 9.68561 6.40203 9.52175C6.35245 9.4347 6.16693 9.18965 6.07437 9.08897C5.92731 8.92897 5.60686 8.58923 5.5046 8.48495C5.44752 8.42671 5.40082 8.36255 5.40082 8.3424C5.40082 8.3222 5.3651 8.26505 5.32145 8.21536C5.2253 8.10584 5.1999 7.75224 5.28366 7.6885C5.3065 7.6711 5.35833 7.59333 5.3988 7.51561C5.43928 7.4379 5.5057 7.34626 5.54648 7.31195C5.58726 7.2777 5.62059 7.23729 5.62059 7.22227C5.62059 7.20719 5.6673 7.14864 5.72438 7.09211C5.78146 7.03558 5.84739 6.96922 5.8709 6.94462C5.8944 6.92001 5.92993 6.88339 5.94989 6.86324C5.96986 6.84309 6.10655 6.70298 6.25368 6.55189C6.40087 6.40079 6.53261 6.27717 6.54647 6.27717C6.56033 6.27717 6.58865 6.24438 6.60935 6.20433C6.63011 6.16422 6.67962 6.11459 6.71948 6.09402C6.75935 6.07344 6.80886 6.02381 6.82961 5.9837C6.85031 5.94365 6.88432 5.91087 6.90519 5.91087C6.92601 5.91087 6.98767 5.86716 7.04213 5.8138C7.09658 5.76038 7.16441 5.70953 7.1928 5.70068C7.22125 5.69189 7.30244 5.6464 7.37326 5.5997C7.53083 5.49561 7.79096 5.48847 7.89657 5.58529C7.9274 5.61356 7.99663 5.65886 8.05036 5.6859C8.10408 5.71295 8.17307 5.76911 8.20371 5.81075C8.23436 5.85238 8.2705 5.88645 8.28411 5.88645C8.29773 5.88645 8.40457 5.97943 8.52147 6.09304C9.17116 6.72417 9.17977 6.72899 9.64985 6.72801C10.0309 6.72722 10.1747 6.70048 10.2976 6.6075C10.3382 6.5768 10.4522 6.53205 10.5508 6.50812C10.6494 6.48412 10.76 6.43937 10.7964 6.40867C10.8329 6.37796 10.9424 6.3315 11.0398 6.30537C11.1444 6.27735 11.2435 6.23297 11.2819 6.19707C11.3177 6.16361 11.3827 6.11819 11.4264 6.09615C11.47 6.07418 11.5057 6.04457 11.5057 6.0304C11.5057 6.0163 11.5493 5.9616 11.6025 5.90892C11.6645 5.84756 11.7085 5.77589 11.725 5.70941C11.7392 5.65233 11.7728 5.5497 11.7999 5.48145C11.8609 5.32718 11.8677 5.25868 11.8957 4.52737C11.9115 4.11535 11.9288 3.91224 11.9533 3.85375C11.9846 3.77891 12.1788 3.591 12.2248 3.591C12.2347 3.591 12.2711 3.56877 12.3057 3.54161C12.3673 3.49307 12.3948 3.49228 13.7883 3.49887L15.2082 3.50553L15.2831 3.56658ZM13.3577 9.50142C13.13 9.51583 13.0468 9.5317 12.9425 9.58054C12.8709 9.61418 12.7408 9.64941 12.6535 9.65881C12.4098 9.68506 12.2935 9.71565 12.1946 9.77938C12.1448 9.81149 12.0381 9.8563 11.9575 9.87889C11.8769 9.90154 11.7758 9.94672 11.7327 9.97932C11.6897 10.0119 11.6018 10.0612 11.5374 10.0888C11.473 10.1164 11.4114 10.1548 11.4006 10.1742C11.3897 10.1936 11.3163 10.242 11.2375 10.2818C11.1586 10.3216 11.0796 10.3749 11.0619 10.4003C11.0441 10.4255 10.9928 10.4686 10.9478 10.496C10.9028 10.5233 10.8453 10.5798 10.8199 10.6214C10.7946 10.6631 10.7614 10.6971 10.7462 10.6971C10.7198 10.6971 10.5262 10.8922 10.303 11.1437C10.2459 11.2079 10.164 11.2958 10.1208 11.339C10.0777 11.3822 10.0202 11.4682 9.99295 11.5303C9.96572 11.5923 9.92518 11.6582 9.90278 11.6768C9.88043 11.6954 9.83074 11.7765 9.79234 11.8571C9.754 11.9377 9.70021 12.0384 9.67286 12.0811C9.64545 12.1237 9.60559 12.2281 9.58416 12.3131C9.56279 12.398 9.52 12.4978 9.48917 12.5348C9.45828 12.5718 9.42629 12.6488 9.41811 12.7058C9.36707 13.0604 9.3327 13.2377 9.29625 13.3345C9.19198 13.6111 9.19149 14.495 9.29546 14.7403C9.31786 14.7931 9.35706 14.971 9.38264 15.1357C9.42568 15.4131 9.47097 15.5582 9.52488 15.5915C9.53697 15.599 9.56603 15.6834 9.58947 15.7792C9.61676 15.8905 9.6565 15.9811 9.69954 16.0301C9.73666 16.0723 9.77958 16.1536 9.7949 16.2106C9.81029 16.2676 9.85388 16.3499 9.89179 16.3933C9.9297 16.4368 9.9847 16.5197 10.0139 16.5773C10.0433 16.6351 10.0827 16.6883 10.1016 16.6955C10.1205 16.7028 10.1581 16.7463 10.1853 16.7922C10.2124 16.8381 10.2621 16.8883 10.2958 16.9037C10.3295 16.919 10.3639 16.953 10.3722 16.9792C10.3805 17.0053 10.5043 17.1412 10.6474 17.2811C11.0483 17.6731 11.0846 17.7056 11.1209 17.7056C11.1395 17.7056 11.1869 17.7392 11.2264 17.7804C11.2658 17.8215 11.3457 17.8762 11.4039 17.902C11.4621 17.9278 11.5423 17.9762 11.5821 18.0097C11.6219 18.0432 11.7007 18.0826 11.7571 18.0973C11.8136 18.1119 11.9067 18.157 11.964 18.1974C12.0369 18.2488 12.1325 18.284 12.2815 18.3143C12.3988 18.3382 12.5332 18.3807 12.5802 18.4088C12.8831 18.5898 14.8048 18.5743 15.0404 18.389C15.0715 18.3646 15.1432 18.3374 15.2 18.3287C15.3867 18.2999 15.5501 18.2447 15.5948 18.1954C15.6189 18.1687 15.7005 18.1291 15.7761 18.1074C15.8517 18.0857 15.9465 18.0372 15.9868 17.9995C16.0271 17.9619 16.0987 17.9188 16.146 17.9038C16.1933 17.8887 16.2844 17.8331 16.3485 17.7801C16.4126 17.7271 16.4867 17.6769 16.5131 17.6685C16.5396 17.6602 16.577 17.6226 16.5964 17.5852C16.6158 17.5478 16.6636 17.5038 16.7028 17.4876C16.742 17.4713 16.7863 17.4314 16.8012 17.3986C16.8161 17.3659 16.8625 17.3184 16.9045 17.2928C16.9463 17.2674 17.0008 17.2134 17.0253 17.173C17.0499 17.1325 17.0929 17.0922 17.1209 17.0833C17.1488 17.0745 17.1883 17.0352 17.2085 16.9959C17.2288 16.9567 17.2732 16.9064 17.3072 16.8841C17.3411 16.8619 17.3864 16.8096 17.4077 16.7679C17.429 16.7262 17.482 16.6524 17.5256 16.6038C17.5692 16.5552 17.6188 16.473 17.6359 16.4212C17.653 16.3695 17.6917 16.3076 17.722 16.2838C17.7524 16.2599 17.7996 16.1739 17.827 16.0927C17.8544 16.0115 17.9031 15.9139 17.9352 15.8758C17.9693 15.8352 18.0068 15.7421 18.0254 15.651C18.0429 15.5656 18.0881 15.4297 18.1257 15.3491C18.3328 14.9061 18.3342 13.0038 18.1278 12.7246C18.1021 12.6897 18.0626 12.5803 18.04 12.4813C17.9958 12.287 17.9705 12.2259 17.9029 12.1501C17.8789 12.1232 17.8473 12.0562 17.8327 12.0011C17.8181 11.9461 17.7787 11.8637 17.7451 11.818C17.7115 11.7723 17.6618 11.6889 17.6346 11.6325C17.6074 11.5762 17.5603 11.5103 17.5298 11.486C17.4994 11.4618 17.4595 11.4054 17.4411 11.3607C17.4228 11.3159 17.3683 11.2378 17.32 11.187C17.2717 11.1362 17.2034 11.0629 17.1681 11.0241C17.1024 10.9518 16.7084 10.5824 16.5118 10.4089C16.4514 10.3556 16.3596 10.2943 16.3079 10.2728C16.2562 10.2512 16.1929 10.2069 16.1672 10.1742C16.1415 10.1415 16.0629 10.0959 15.9926 10.0727C15.9222 10.0496 15.8311 10.0016 15.7901 9.96595C15.7457 9.92749 15.6567 9.88805 15.5703 9.86876C15.4904 9.85093 15.395 9.81101 15.3582 9.78011C15.3214 9.74922 15.2335 9.71308 15.1628 9.69989C14.7962 9.63134 14.6584 9.60008 14.5613 9.56345C14.3575 9.48659 13.9365 9.46486 13.3577 9.50142ZM14.3873 9.6317C14.4611 9.6524 14.6425 9.68689 14.7902 9.70832C14.9684 9.7342 15.1093 9.77071 15.2089 9.81687C15.2915 9.85508 15.4233 9.9049 15.5019 9.92761C15.5805 9.95032 15.6796 9.99513 15.7219 10.0272C15.7643 10.0594 15.859 10.108 15.9323 10.1355C16.0056 10.1629 16.0863 10.2083 16.1117 10.2363C16.137 10.2644 16.2099 10.3137 16.2737 10.3461C16.3375 10.3785 16.3897 10.4143 16.3897 10.4257C16.3897 10.4371 16.4316 10.4742 16.4827 10.508C16.6195 10.5985 17.2734 11.253 17.3549 11.3809C17.3933 11.4413 17.4472 11.5161 17.4744 11.547C17.5324 11.6129 17.6554 11.8254 17.7455 12.0158C17.7805 12.0897 17.8471 12.227 17.8934 12.321C17.9398 12.4151 17.9776 12.514 17.9776 12.5408C17.9775 12.5677 18.0154 12.6983 18.0618 12.8312C18.2359 13.3296 18.2634 14.6889 18.1077 15.1014C18.0867 15.157 18.0382 15.3166 18 15.456C17.9618 15.5954 17.9037 15.7492 17.8709 15.7979C17.8381 15.8465 17.793 15.9433 17.7706 16.013C17.7482 16.0827 17.7003 16.178 17.6642 16.2247C17.628 16.2714 17.5679 16.3628 17.5307 16.4277C17.392 16.669 17.3004 16.7834 17.0099 17.0782C16.6009 17.4932 16.349 17.6999 16.0708 17.8487C15.9961 17.8887 15.9211 17.9382 15.904 17.9586C15.8871 17.9792 15.8163 18.0144 15.7468 18.0368C15.6773 18.0594 15.5649 18.109 15.4969 18.1472C15.429 18.1854 15.2776 18.239 15.1605 18.2663C15.0435 18.2936 14.9075 18.3328 14.8583 18.3533C14.4812 18.5108 13.0111 18.5074 12.6952 18.3481C12.6577 18.3292 12.5262 18.2922 12.4031 18.2659C12.2799 18.2396 12.1404 18.1925 12.0928 18.1611C12.0452 18.1297 11.9459 18.0844 11.872 18.0605C11.7982 18.0365 11.7151 17.9964 11.6876 17.9713C11.66 17.9463 11.5716 17.8939 11.4913 17.855C11.4111 17.8162 11.33 17.7658 11.3112 17.7432C11.2924 17.7206 11.2376 17.6819 11.1893 17.6573C11.0355 17.5788 10.1421 16.6593 10.0558 16.4907C10.0301 16.4403 9.98422 16.3662 9.954 16.3259C9.92372 16.2856 9.86462 16.1812 9.82256 16.0939C9.78056 16.0066 9.72842 15.9029 9.70669 15.8635C9.68501 15.8241 9.65144 15.7313 9.63214 15.6573C9.61279 15.5832 9.57122 15.4719 9.53972 15.4097C9.49961 15.3305 9.46304 15.1695 9.4175 14.8711C9.28538 14.0065 9.28538 14.0561 9.41676 13.2027C9.46249 12.9055 9.49997 12.7449 9.55064 12.6288C9.58935 12.5401 9.63379 12.4181 9.64948 12.3577C9.66511 12.2972 9.70473 12.2066 9.73751 12.1562C9.7703 12.1058 9.81969 12.0069 9.84734 11.9364C9.87494 11.8659 9.92298 11.7808 9.95406 11.7472C9.98513 11.7136 10.0298 11.6477 10.0533 11.6007C10.0768 11.5537 10.134 11.4712 10.1803 11.4175C10.2266 11.3638 10.3103 11.2662 10.3663 11.2005C10.6537 10.8632 11.1459 10.4144 11.3316 10.3202C11.3938 10.2887 11.4653 10.2401 11.4904 10.2123C11.5155 10.1845 11.576 10.1489 11.6247 10.1332C11.6734 10.1175 11.7738 10.0684 11.8476 10.024C11.9215 9.97962 12.0307 9.9306 12.0904 9.91509C12.15 9.89959 12.2502 9.86003 12.3131 9.82718C12.3759 9.79428 12.4974 9.75588 12.5831 9.74178C12.7176 9.71968 12.991 9.66784 13.3494 9.59642C13.5099 9.56443 14.2351 9.58909 14.3873 9.6317Z" fill="#BCDCD4"/>
<path fillRule="evenodd" clipRule="evenodd" d="M1.90918 13.7868V27.01H14.119H26.3289V13.7868V0.563477H14.119H1.90918V13.7868ZM15.38 3.38719C15.4788 3.43408 15.7204 3.69238 15.769 3.80306C15.7937 3.85947 15.8085 4.08071 15.8235 4.62112L15.844 5.36195L15.9182 5.50847C15.9589 5.58906 15.9995 5.68502 16.0084 5.72171C16.0176 5.75981 16.0537 5.80352 16.0926 5.82367C16.1301 5.84302 16.173 5.88563 16.1879 5.91835C16.2067 5.95962 16.2475 5.986 16.3214 6.00462C16.3799 6.01933 16.465 6.06469 16.5106 6.10535C16.5561 6.14601 16.6329 6.18538 16.681 6.19283C16.8534 6.21951 16.9583 6.25785 17.0095 6.31279C17.0463 6.35217 17.1119 6.37726 17.2326 6.3982C17.4014 6.42738 17.5495 6.49576 17.5686 6.55333C17.5753 6.57347 17.6639 6.58544 17.8451 6.59081L18.1117 6.59869L18.255 6.48703C18.3339 6.42561 18.417 6.37537 18.4397 6.37537C18.4631 6.37537 18.4991 6.33776 18.5222 6.28929C18.5507 6.2294 18.5841 6.19906 18.632 6.18948C18.6792 6.18007 18.7093 6.15321 18.7278 6.10419C18.7449 6.0592 18.7856 6.01982 18.8377 5.99809C18.8831 5.97904 18.9335 5.93472 18.9496 5.89955C18.9656 5.86439 19.015 5.82043 19.0595 5.80187C19.1038 5.78331 19.1528 5.74046 19.1682 5.70664C19.1836 5.67281 19.2323 5.62648 19.2764 5.60371C19.3204 5.58094 19.3847 5.53203 19.4192 5.4951C19.5892 5.31311 20.1458 5.32361 20.4036 5.51366C20.4727 5.56457 20.5512 5.61811 20.5781 5.63264C20.6049 5.64711 20.6372 5.68167 20.6499 5.70932C20.6625 5.73704 20.7202 5.7827 20.7781 5.81079C20.8359 5.83893 20.8833 5.87892 20.8833 5.89967C20.8833 5.92049 20.9222 5.96042 20.9697 5.98844C21.0172 6.01646 21.0728 6.07183 21.0933 6.11152C21.1138 6.1512 21.1619 6.19454 21.2 6.20785C21.2412 6.2222 21.2816 6.26164 21.2995 6.3048C21.3179 6.34894 21.3616 6.39094 21.4109 6.41151C21.4634 6.43343 21.4977 6.4678 21.508 6.50895C21.5185 6.55058 21.5528 6.58453 21.6075 6.60742C21.6619 6.63007 21.6999 6.66749 21.7161 6.71419C21.732 6.75968 21.7639 6.79173 21.803 6.80156C21.8454 6.81218 21.8765 6.84655 21.9017 6.91096C21.922 6.9626 21.9645 7.01663 21.996 7.03098C22.0276 7.04539 22.075 7.0988 22.1012 7.14972C22.1275 7.20063 22.1717 7.25595 22.1993 7.27267C22.2493 7.30277 22.3485 7.47072 22.3485 7.52499C22.3485 7.54056 22.3825 7.59196 22.424 7.63927C22.53 7.76009 22.5261 8.13371 22.4175 8.248C22.3816 8.28585 22.3341 8.36246 22.312 8.41826C22.2849 8.4867 22.2489 8.52931 22.2016 8.54885C22.1545 8.56838 22.1263 8.60166 22.1156 8.65025C22.1048 8.69964 22.0746 8.73462 22.0205 8.76038C21.9703 8.78431 21.9306 8.8276 21.9123 8.87833C21.8946 8.92717 21.8569 8.96935 21.8156 8.98645C21.7771 9.00244 21.736 9.04615 21.7201 9.0884C21.7028 9.13443 21.6646 9.17271 21.6189 9.18999C21.5766 9.20598 21.5396 9.24096 21.5317 9.27277C21.5241 9.30305 21.4787 9.36953 21.4309 9.42057C21.3831 9.47155 21.3334 9.53943 21.3206 9.57136C21.2444 9.76104 21.2842 10.4554 21.374 10.5035C21.4398 10.5387 21.4653 10.5984 21.5058 10.8124C21.5343 10.9629 21.5551 11.0137 21.6053 11.0542C21.6492 11.0898 21.6816 11.1552 21.7106 11.2666C21.7401 11.3799 21.7714 11.4425 21.8166 11.4781C21.8519 11.5058 21.8882 11.5624 21.8973 11.6038C21.9094 11.659 21.936 11.6882 21.9977 11.714C22.0438 11.7333 22.0934 11.775 22.1078 11.8067C22.1429 11.8837 22.1936 11.8906 22.9223 11.9183C23.6488 11.946 23.7721 11.9592 23.8458 12.0172C23.8765 12.0414 23.9451 12.0689 23.9981 12.0784C24.183 12.1113 24.3753 12.2873 24.3753 12.4235C24.3753 12.4533 24.3955 12.4919 24.4203 12.5094C24.5209 12.5808 24.5218 12.5958 24.5218 14.0672C24.5218 15.5249 24.5154 15.6304 24.4256 15.6304C24.4136 15.6304 24.3886 15.6771 24.3699 15.7342C24.3439 15.8139 24.3151 15.8484 24.2458 15.8828C24.1961 15.9074 24.1555 15.9428 24.1555 15.9616C24.1555 16.06 24.0565 16.077 23.3051 16.108C22.5611 16.1387 22.548 16.1406 22.1653 16.2711C21.9996 16.3276 21.992 16.3338 21.9169 16.474C21.8742 16.5534 21.8176 16.636 21.7912 16.6575C21.7638 16.6796 21.7259 16.7644 21.7036 16.8533C21.6771 16.9587 21.6432 17.0287 21.6004 17.0666C21.5503 17.1108 21.5296 17.1629 21.5044 17.3079C21.4802 17.4476 21.4541 17.5156 21.3975 17.5859C21.2406 17.7812 21.2299 18.6341 21.3845 18.6341C21.404 18.6341 21.4474 18.6775 21.4809 18.7307C21.5145 18.7838 21.5622 18.8382 21.5871 18.8515C21.6119 18.8648 21.6587 18.9147 21.6912 18.9623C21.7236 19.0099 21.7637 19.049 21.7802 19.049C21.7967 19.0491 21.8294 19.0794 21.853 19.1164C21.8766 19.1533 21.9852 19.2831 22.0944 19.4049C22.2134 19.5377 22.3054 19.6648 22.3242 19.7224C22.3414 19.7752 22.3869 19.8545 22.4252 19.8986C22.5429 20.0339 22.5156 20.4477 22.3841 20.5213C22.3653 20.5318 22.3382 20.584 22.3238 20.6373C22.3085 20.6944 22.2724 20.7509 22.2362 20.7746C22.2024 20.7967 22.1544 20.8544 22.1296 20.9027C22.1048 20.951 22.0398 21.0389 21.9851 21.0978C21.9304 21.1568 21.8791 21.2256 21.8711 21.2507C21.8631 21.2758 21.8246 21.3129 21.7855 21.3331C21.7464 21.3533 21.6975 21.4025 21.6769 21.4423C21.6564 21.4822 21.6075 21.5313 21.5684 21.5516C21.5293 21.5718 21.4901 21.6108 21.4814 21.6384C21.4727 21.6658 21.4233 21.715 21.3717 21.7476C21.3201 21.7801 21.2707 21.8293 21.262 21.8568C21.2533 21.8843 21.2141 21.9234 21.175 21.9436C21.1359 21.9638 21.0873 22.0124 21.0671 22.0515C21.0469 22.0906 21.0088 22.1294 20.9824 22.1378C20.9561 22.1462 20.8763 22.2077 20.8052 22.2746C20.734 22.3415 20.6455 22.4027 20.6085 22.4108C20.569 22.4192 20.5285 22.4515 20.5108 22.4887C20.4918 22.5283 20.4413 22.5665 20.3763 22.5905C20.319 22.6117 20.2555 22.6528 20.2351 22.6818C20.1318 22.8293 19.6776 22.8247 19.5598 22.6749C19.5364 22.6452 19.4867 22.6144 19.4494 22.6065C19.412 22.5987 19.3435 22.556 19.2971 22.5117C19.2506 22.4675 19.1651 22.4012 19.1071 22.3642C19.049 22.3274 18.9952 22.2807 18.9875 22.2606C18.9797 22.2405 18.9306 22.2 18.8783 22.1705C18.826 22.1412 18.7832 22.1076 18.7832 22.0959C18.7832 22.0634 18.4755 21.7662 18.425 21.7499C18.4004 21.742 18.3624 21.7039 18.3405 21.6654C18.2598 21.5231 17.4816 21.5199 17.3311 21.6613C17.262 21.7263 17.1347 21.7755 16.9837 21.7958C16.8902 21.8084 16.8473 21.8274 16.8203 21.8686C16.795 21.9074 16.7328 21.9378 16.6174 21.968C16.52 21.9936 16.4208 22.0384 16.3779 22.0763C16.3376 22.1119 16.2623 22.1624 16.2105 22.1885C16.0936 22.2475 16.0317 22.3236 15.9975 22.4503C15.983 22.5042 15.9492 22.5779 15.9225 22.6141C15.8467 22.7166 15.8298 22.8382 15.827 23.2982C15.8221 24.1232 15.8019 24.3188 15.714 24.3974C15.6724 24.4345 15.6232 24.4965 15.6049 24.5349C15.5829 24.5807 15.5397 24.6151 15.4792 24.6348C15.4285 24.6515 15.361 24.6954 15.329 24.7325L15.271 24.8H13.7933H12.3156L12.2467 24.7466C12.2087 24.7171 12.1191 24.6637 12.0474 24.6278C11.907 24.5573 11.8332 24.4634 11.8088 24.3239C11.8006 24.2769 11.7663 24.1974 11.7325 24.1473C11.6642 24.0459 11.6323 23.7032 11.6296 23.0393C11.6275 22.5384 11.6102 22.4236 11.5304 22.3824C11.494 22.3636 11.4504 22.3149 11.4335 22.2741C11.4114 22.2209 11.3783 22.1933 11.3155 22.176C11.2675 22.1627 11.2056 22.124 11.1779 22.0898C11.1439 22.0479 11.0735 22.013 10.9609 21.982C10.8636 21.9553 10.767 21.9103 10.7289 21.874C10.6825 21.8298 10.616 21.8036 10.4987 21.7833C10.4005 21.7663 10.3016 21.7313 10.2545 21.6969C10.116 21.5957 10.0605 21.5826 9.71775 21.5702C9.33546 21.5565 9.2832 21.5695 9.13656 21.7147C9.08436 21.7663 9.02435 21.8086 9.00323 21.8086C8.98211 21.8086 8.94285 21.8459 8.91593 21.8915C8.88907 21.9371 8.83705 21.9868 8.80036 22.002C8.76367 22.0172 8.71947 22.0617 8.70213 22.1009C8.68235 22.1456 8.64133 22.1818 8.59188 22.1981C8.53901 22.2155 8.50397 22.2482 8.48541 22.2974C8.46532 22.3507 8.43694 22.3749 8.38144 22.386C8.32528 22.3972 8.29628 22.4223 8.27186 22.4807C8.2453 22.5443 8.21392 22.5683 8.11417 22.6015C8.04573 22.6242 7.98969 22.6536 7.98969 22.6667C7.98969 22.7907 7.46088 22.8232 7.33542 22.7069C7.2991 22.6732 7.20722 22.6177 7.13134 22.5836C7.04977 22.547 6.98696 22.5017 6.9778 22.4727C6.96925 22.4457 6.9184 22.4062 6.86486 22.3848C6.80491 22.3608 6.75863 22.3225 6.74453 22.2854C6.73134 22.2508 6.68415 22.2095 6.6333 22.1882C6.57506 22.1639 6.53556 22.1263 6.51718 22.0777C6.50119 22.0353 6.47164 22.004 6.44765 22.004C6.40448 22.004 6.30516 21.896 6.30418 21.8481C6.30394 21.8331 6.26822 21.8044 6.22494 21.7842C6.18165 21.7641 6.133 21.7201 6.11676 21.6865C6.10058 21.653 6.05656 21.6084 6.01902 21.5875C5.98141 21.5666 5.93514 21.5149 5.91615 21.4726C5.89552 21.4265 5.85339 21.3857 5.81139 21.371C5.76652 21.3553 5.7319 21.3199 5.71542 21.2726C5.7012 21.2319 5.66048 21.1846 5.62488 21.1676C5.58923 21.1505 5.54241 21.099 5.52073 21.0531C5.49912 21.0073 5.45834 20.9613 5.4302 20.9508C5.40205 20.9405 5.35492 20.8847 5.32556 20.827C5.29613 20.7692 5.25163 20.7075 5.2266 20.69C5.03832 20.5574 5.04131 19.7319 5.23032 19.6719C5.25462 19.6642 5.29204 19.614 5.31347 19.5605C5.33661 19.5027 5.3758 19.4542 5.40987 19.4413C5.44149 19.4292 5.49119 19.379 5.52037 19.3295C5.54949 19.2801 5.59558 19.2339 5.62269 19.2268C5.64985 19.2197 5.69363 19.1715 5.72006 19.1197C5.74875 19.0635 5.79137 19.0197 5.82586 19.011C5.86401 19.0015 5.89637 18.9643 5.92091 18.9018C5.94686 18.8357 5.97726 18.8023 6.02152 18.7912C6.05638 18.7825 6.08495 18.7626 6.08495 18.7471C6.08495 18.699 6.18428 18.5271 6.24606 18.4683C6.3482 18.3709 6.33818 17.9583 6.23068 17.8358C6.16645 17.7627 6.14429 17.6912 6.0982 17.4094C6.0902 17.3603 6.0681 17.3142 6.04905 17.3069C5.98801 17.2834 5.94185 17.185 5.91584 17.0228C5.89918 16.9187 5.87451 16.8519 5.84381 16.8274C5.78557 16.7812 5.71866 16.6506 5.71866 16.5832C5.71866 16.5507 5.68703 16.5136 5.63123 16.4807C5.58313 16.4524 5.53435 16.4042 5.52275 16.3738C5.5073 16.3332 5.46396 16.3078 5.35987 16.2786C5.28185 16.2567 5.16311 16.2151 5.09595 16.1862C4.98674 16.1392 4.90701 16.1315 4.33894 16.1129C3.46911 16.0845 3.52796 16.0961 3.31576 15.911C3.04982 15.6791 3.06912 15.8252 3.06912 14.0432C3.06912 12.4145 3.07119 12.378 3.16551 12.3283C3.19805 12.3112 3.25043 12.2587 3.28187 12.2117C3.3301 12.1397 3.36209 12.1211 3.48492 12.0942C3.56514 12.0766 3.64725 12.0519 3.6674 12.0392C3.77173 11.9738 3.86215 11.9586 4.26568 11.9392C4.50744 11.9276 4.85829 11.9088 5.04534 11.8975L5.38539 11.8768L5.45852 11.794C5.49876 11.7484 5.5642 11.6946 5.60407 11.6744C5.66164 11.6453 5.68587 11.6069 5.72244 11.4866C5.7493 11.3983 5.79179 11.317 5.82464 11.2912C5.86469 11.2597 5.88959 11.2013 5.91114 11.0883C5.93056 10.9864 5.97061 10.886 6.02305 10.8075C6.07848 10.7246 6.11023 10.6424 6.12201 10.5511C6.14283 10.3906 6.16712 10.3362 6.24875 10.2672C6.35601 10.1765 6.34124 9.62038 6.2308 9.59151C6.20296 9.58424 6.16273 9.53192 6.13477 9.46678C6.10699 9.40195 6.07061 9.35458 6.04857 9.35458C6.02763 9.35458 5.98056 9.305 5.94393 9.24438C5.90736 9.18382 5.85803 9.12808 5.83441 9.12057C5.81072 9.11307 5.77482 9.07491 5.75461 9.03578C5.73441 8.99671 5.68581 8.94811 5.64674 8.9279C5.60761 8.90769 5.56872 8.86954 5.56035 8.8431C5.55199 8.81667 5.50999 8.76569 5.46707 8.72974C5.39864 8.67247 5.35205 8.61496 5.16616 8.3585C5.02801 8.16778 5.06195 7.55503 5.21726 7.43659C5.26408 7.40088 5.30376 7.34477 5.31225 7.3024C5.32153 7.25601 5.34986 7.21901 5.39033 7.20057C5.42525 7.1847 5.46671 7.14178 5.48246 7.10521C5.55651 6.9333 6.66547 5.82776 6.81205 5.77965C6.84868 5.76769 6.90057 5.7241 6.92743 5.68289C6.95527 5.64009 7.01009 5.59821 7.05509 5.58533C7.09837 5.57294 7.14043 5.54205 7.14849 5.51665C7.20661 5.33344 7.91668 5.31073 8.11057 5.48582C8.16148 5.53185 8.2113 5.56952 8.22125 5.56952C8.24768 5.56952 8.50079 5.79583 8.73345 6.02739C8.84475 6.13819 8.94768 6.22885 8.96214 6.22885C8.97661 6.22885 9.01788 6.26744 9.05384 6.31463C9.08986 6.36182 9.14535 6.40699 9.17728 6.41499C9.20915 6.42299 9.26428 6.46407 9.29975 6.50626L9.36434 6.58294H9.65548C9.90743 6.58294 9.94992 6.5772 9.97062 6.5402C10.0058 6.47726 10.1131 6.4294 10.2785 6.40278C10.3751 6.38721 10.4613 6.35351 10.532 6.30364C10.6031 6.25358 10.6928 6.2186 10.798 6.19998C10.9132 6.17952 10.9734 6.15443 11.0177 6.1084C11.0513 6.07354 11.1433 6.02318 11.2221 5.99656C11.3273 5.96103 11.3715 5.93234 11.3881 5.8885C11.4006 5.85572 11.4531 5.78295 11.5049 5.72672C11.6162 5.60597 11.6185 5.5893 11.6409 4.71483C11.6546 4.17863 11.6736 4.03358 11.7404 3.95684C11.7583 3.93615 11.7852 3.8624 11.8001 3.79298C11.829 3.65868 11.9026 3.54268 11.9591 3.54268C11.9779 3.54268 12.0102 3.51002 12.0308 3.47003C12.0544 3.42455 12.0979 3.3889 12.1475 3.37455C12.3026 3.32974 15.2835 3.34134 15.38 3.38719ZM13.1178 9.76116C12.6931 9.79212 12.6079 9.80488 12.5562 9.84541C12.4608 9.92001 12.3631 9.95695 12.1719 9.99053C12.0351 10.0146 11.9868 10.0343 11.9585 10.0775C11.9357 10.1123 11.8688 10.1493 11.7812 10.1756C11.6901 10.203 11.6128 10.2466 11.5623 10.2991C11.5144 10.3489 11.4604 10.3802 11.4226 10.3802C11.3824 10.3802 11.3421 10.4058 11.3064 10.4541C11.2764 10.4948 11.2074 10.555 11.1531 10.5879C11.0594 10.6447 10.6447 11.0579 10.4072 11.3311C10.3468 11.4006 10.2602 11.498 10.2148 11.5473C10.1693 11.5966 10.1209 11.6702 10.1071 11.7107C10.0934 11.7512 10.0456 11.8254 10.0008 11.8756C9.94943 11.9334 9.9136 12.0039 9.9034 12.0677C9.89425 12.1249 9.85212 12.2146 9.80597 12.2751C9.74577 12.3539 9.718 12.4229 9.69925 12.5403C9.66848 12.7329 9.63765 12.8183 9.57471 12.8855C9.43534 13.0343 9.44779 14.9971 9.58943 15.2058C9.65487 15.3022 9.68637 15.4016 9.7125 15.5938C9.72416 15.6794 9.7498 15.7378 9.79834 15.7892C9.83985 15.8331 9.8824 15.9194 9.90456 16.0048C9.92849 16.0968 9.9628 16.1638 10.0016 16.1943C10.0345 16.2202 10.0809 16.2936 10.1047 16.3572C10.1284 16.4208 10.1897 16.5124 10.2409 16.5608C10.2921 16.6091 10.334 16.6698 10.334 16.6958C10.334 16.726 10.3607 16.7531 10.4079 16.7709C10.456 16.7891 10.4909 16.8253 10.5082 16.8747C10.5229 16.9168 10.5659 16.9668 10.6049 16.9869C10.6434 17.0069 10.6917 17.0553 10.712 17.0947C10.7323 17.134 10.7791 17.1806 10.816 17.1982C10.8528 17.216 10.8975 17.2606 10.9152 17.2976C10.9329 17.3346 10.9848 17.3804 11.0306 17.3995C11.0825 17.4213 11.1193 17.4566 11.1285 17.4936C11.1391 17.5355 11.1702 17.561 11.2343 17.5802C11.2843 17.5951 11.3715 17.647 11.428 17.6954C11.4845 17.7438 11.5719 17.7945 11.6222 17.8081C11.6726 17.8217 11.7416 17.8629 11.7757 17.8996C11.8205 17.9479 11.8796 17.9746 11.99 17.9963C12.0974 18.0175 12.1677 18.0485 12.2279 18.1014C12.301 18.1655 12.3407 18.1791 12.5019 18.1954C12.7896 18.2244 12.8752 18.2445 13.0079 18.3139C13.1291 18.3772 13.1351 18.3777 13.7599 18.3853L14.3898 18.3929L14.545 18.3173C14.6647 18.259 14.7645 18.2337 14.9806 18.2068C15.237 18.175 15.2673 18.1659 15.334 18.0991C15.3885 18.0446 15.4392 18.0218 15.534 18.0092C15.6267 17.997 15.6873 17.9703 15.7586 17.9108C15.8124 17.8659 15.9023 17.8163 15.9584 17.8005C16.0148 17.7847 16.0881 17.7401 16.1222 17.7006C16.1563 17.6614 16.225 17.6109 16.2749 17.5884C16.4677 17.5014 17.2263 16.7391 17.3302 16.5279C17.3571 16.4733 17.401 16.4166 17.4279 16.4019C17.4931 16.3663 17.5126 16.3369 17.513 16.2734C17.5132 16.2441 17.553 16.1684 17.6014 16.105C17.6529 16.0374 17.7074 15.9247 17.7329 15.8326C17.7569 15.7462 17.8039 15.6461 17.8372 15.6102C17.8871 15.5566 17.903 15.5035 17.926 15.313C17.947 15.1386 17.9735 15.0419 18.0328 14.9236L18.1117 14.766V14.02C18.1117 13.2855 18.1108 13.2728 18.057 13.2007C17.9988 13.1227 17.9399 12.9011 17.9152 12.6682C17.9038 12.5598 17.8836 12.5075 17.8294 12.4458C17.7847 12.3948 17.7457 12.3098 17.7235 12.2147C17.699 12.1093 17.6672 12.0442 17.6177 11.9975C17.5772 11.9594 17.533 11.8804 17.5142 11.8128C17.4927 11.7353 17.4575 11.6771 17.4116 11.6431C17.3713 11.6133 17.3313 11.5528 17.3171 11.5001C17.302 11.4439 17.2736 11.4028 17.2435 11.3933C17.2166 11.3847 17.1757 11.3483 17.1525 11.3124C17.1028 11.2353 16.8135 10.9419 16.787 10.9417C16.7768 10.9416 16.7498 10.9085 16.7269 10.8682C16.7039 10.8279 16.6578 10.7845 16.6244 10.7718C16.591 10.7591 16.549 10.7205 16.5309 10.686C16.5128 10.6515 16.46 10.6043 16.4135 10.5811C16.3671 10.5579 16.3147 10.5087 16.2972 10.4718C16.2782 10.4318 16.2457 10.4046 16.2168 10.4046C16.1465 10.4046 15.9807 10.3145 15.9519 10.2606C15.9369 10.2327 15.8774 10.2024 15.8019 10.1844C15.7325 10.1677 15.6411 10.1231 15.5969 10.0843C15.5372 10.0319 15.4687 10.005 15.3248 9.97752C15.2157 9.95671 15.106 9.91959 15.0714 9.89169C14.9698 9.80988 14.9247 9.79993 14.5205 9.77038C13.89 9.72423 13.6468 9.72264 13.1178 9.76116Z" fill="#FCFCFC"/>
<path fillRule="evenodd" clipRule="evenodd" d="M12.148 3.37486C12.0985 3.3892 12.0549 3.42486 12.0314 3.47034C12.0107 3.51033 11.9784 3.54299 11.9596 3.54299C11.9031 3.54299 11.8295 3.65898 11.8007 3.79329C11.7858 3.8627 11.7589 3.93645 11.7409 3.95715C11.6742 4.03388 11.6551 4.17894 11.6414 4.71513C11.619 5.5896 11.6167 5.60627 11.5054 5.72703C11.4537 5.78325 11.4011 5.85602 11.3886 5.88881C11.372 5.93264 11.3278 5.96133 11.2227 5.99686C11.1438 6.02348 11.0518 6.07385 11.0183 6.10871C10.9739 6.15474 10.9137 6.17983 10.7985 6.20028C10.6933 6.2189 10.6036 6.25388 10.5326 6.30394C10.4618 6.35382 10.3756 6.38752 10.279 6.40309C10.1136 6.4297 10.0064 6.47757 9.97115 6.54051C9.95045 6.5775 9.90796 6.58324 9.65601 6.58324H9.36487L9.30028 6.50656C9.26481 6.46438 9.20968 6.42329 9.17781 6.4153C9.14588 6.4073 9.09039 6.36212 9.05437 6.31493C9.01841 6.26774 8.97714 6.22916 8.96267 6.22916C8.94821 6.22916 8.84528 6.1385 8.73398 6.02769C8.50132 5.79613 8.24821 5.56982 8.22178 5.56982C8.21183 5.56982 8.16201 5.53216 8.1111 5.48613C7.9172 5.31104 7.20714 5.33375 7.14902 5.51696C7.14096 5.54235 7.0989 5.57324 7.05562 5.58564C7.01062 5.59852 6.9558 5.6404 6.92796 5.68319C6.9011 5.7244 6.84921 5.76799 6.81258 5.77996C6.666 5.82806 5.55704 6.9336 5.48299 7.10552C5.46724 7.14209 5.42578 7.18501 5.39086 7.20088C5.35039 7.21932 5.32206 7.25631 5.31278 7.30271C5.30429 7.34508 5.26461 7.40118 5.21779 7.43689C5.06248 7.55533 5.02853 8.16808 5.16669 8.3588C5.35258 8.61527 5.39917 8.67278 5.4676 8.73004C5.51052 8.766 5.55252 8.81698 5.56088 8.84341C5.56925 8.86984 5.60814 8.908 5.64727 8.92821C5.68634 8.94841 5.73494 8.99701 5.75514 9.03608C5.77535 9.07521 5.81125 9.11337 5.83493 9.12088C5.85856 9.12839 5.90789 9.18413 5.94446 9.24469C5.98109 9.30531 6.02816 9.35488 6.0491 9.35488C6.07114 9.35488 6.10752 9.40226 6.1353 9.46709C6.16326 9.53223 6.20349 9.58455 6.23133 9.59181C6.34177 9.62069 6.35654 10.1768 6.24928 10.2675C6.16765 10.3365 6.14336 10.3909 6.12254 10.5514C6.11076 10.6427 6.07901 10.7249 6.02358 10.8079C5.97114 10.8863 5.93109 10.9867 5.91167 11.0886C5.89012 11.2016 5.86522 11.26 5.82517 11.2915C5.79232 11.3173 5.74983 11.3986 5.72297 11.4869C5.6864 11.6072 5.66217 11.6456 5.6046 11.6748C5.56473 11.6949 5.49929 11.7487 5.45905 11.7943L5.38592 11.8771L5.04587 11.8978C4.85882 11.9091 4.50797 11.9279 4.26621 11.9395C3.86268 11.9589 3.77226 11.9741 3.66793 12.0395C3.64778 12.0522 3.56567 12.0769 3.48545 12.0945C3.36262 12.1215 3.33063 12.14 3.2824 12.212C3.25096 12.259 3.19858 12.3115 3.16604 12.3286C3.07172 12.3783 3.06965 12.4148 3.06965 14.0435C3.06965 15.8255 3.05035 15.6794 3.31628 15.9113C3.52849 16.0964 3.46964 16.0848 4.33947 16.1132C4.90754 16.1318 4.98727 16.1395 5.09648 16.1865C5.16364 16.2154 5.28238 16.257 5.3604 16.2789C5.46449 16.3082 5.50783 16.3335 5.52328 16.3741C5.53488 16.4045 5.58366 16.4527 5.63176 16.481C5.68756 16.5139 5.71919 16.551 5.71919 16.5835C5.71919 16.6509 5.7861 16.7815 5.84434 16.8277C5.87504 16.8522 5.89971 16.919 5.91637 17.0231C5.94238 17.1853 5.98853 17.2837 6.04958 17.3072C6.06863 17.3145 6.09073 17.3606 6.09873 17.4097C6.14482 17.6915 6.16698 17.763 6.23121 17.8361C6.33871 17.9586 6.34873 18.3712 6.24659 18.4686C6.18481 18.5274 6.08548 18.6993 6.08548 18.7474C6.08548 18.7629 6.05691 18.7828 6.02205 18.7915C5.97779 18.8026 5.94739 18.836 5.92144 18.9021C5.8969 18.9646 5.86454 19.0018 5.82639 19.0114C5.7919 19.02 5.74928 19.0638 5.72059 19.12C5.69416 19.1718 5.65038 19.22 5.62322 19.2271C5.59611 19.2342 5.55002 19.2804 5.5209 19.3298C5.49172 19.3793 5.44202 19.4295 5.4104 19.4416C5.37633 19.4545 5.33714 19.503 5.314 19.5608C5.29257 19.6143 5.25515 19.6645 5.23085 19.6722C5.04184 19.7322 5.03885 20.5577 5.22713 20.6903C5.25216 20.7079 5.29666 20.7695 5.32609 20.8273C5.35545 20.885 5.40258 20.9408 5.43073 20.9511C5.45887 20.9616 5.49965 21.0076 5.52126 21.0535C5.54294 21.0993 5.58976 21.1508 5.62541 21.1679C5.66101 21.185 5.70173 21.2322 5.71595 21.2729C5.73243 21.3202 5.76705 21.3556 5.81192 21.3713C5.85392 21.386 5.89605 21.4268 5.91668 21.4729C5.93567 21.5152 5.98194 21.5669 6.01955 21.5878C6.05709 21.6087 6.10111 21.6533 6.11729 21.6868C6.13353 21.7204 6.18218 21.7644 6.22547 21.7845C6.26875 21.8047 6.30447 21.8334 6.30471 21.8484C6.30569 21.8963 6.40501 22.0043 6.44818 22.0043C6.47217 22.0043 6.50172 22.0356 6.51771 22.078C6.53609 22.1266 6.57559 22.1642 6.63383 22.1885C6.68468 22.2098 6.73187 22.2511 6.74506 22.2857C6.75916 22.3229 6.80544 22.3611 6.86539 22.3851C6.91893 22.4065 6.96978 22.446 6.97833 22.473C6.98749 22.502 7.0503 22.5473 7.13187 22.5839C7.20775 22.618 7.29963 22.6735 7.33595 22.7072C7.46141 22.8235 7.99022 22.791 7.99022 22.667C7.99022 22.6539 8.04626 22.6245 8.1147 22.6018C8.21445 22.5686 8.24583 22.5446 8.27239 22.481C8.29681 22.4226 8.32581 22.3975 8.38197 22.3863C8.43747 22.3752 8.46586 22.351 8.48594 22.2977C8.5045 22.2485 8.53954 22.2158 8.59241 22.1984C8.64186 22.1821 8.68289 22.1459 8.70267 22.1012C8.72 22.062 8.7642 22.0175 8.80089 22.0023C8.83758 21.9871 8.8896 21.9374 8.91646 21.8918C8.94338 21.8462 8.98264 21.8089 9.00376 21.8089C9.02488 21.8089 9.0849 21.7666 9.13709 21.715C9.28373 21.5698 9.33599 21.5568 9.71828 21.5705C10.061 21.5829 10.1166 21.596 10.255 21.6972C10.3021 21.7316 10.4011 21.7666 10.4992 21.7836C10.6165 21.8039 10.683 21.8301 10.7294 21.8743C10.7675 21.9106 10.8641 21.9556 10.9614 21.9823C11.0741 22.0133 11.1445 22.0483 11.1785 22.0901C11.2061 22.1243 11.2681 22.163 11.3161 22.1763C11.3788 22.1936 11.412 22.2212 11.434 22.2744C11.4509 22.3152 11.4945 22.3639 11.5309 22.3827C11.6107 22.4239 11.628 22.5387 11.6301 23.0396C11.6328 23.7035 11.6647 24.0462 11.733 24.1476C11.7668 24.1977 11.8011 24.2772 11.8093 24.3242C11.8337 24.4637 11.9075 24.5576 12.0479 24.6281C12.1196 24.664 12.2092 24.7174 12.2472 24.7469L12.3161 24.8004H13.7938H15.2715L15.3296 24.7328C15.3615 24.6957 15.4291 24.6518 15.4797 24.6352C15.5402 24.6154 15.5834 24.581 15.6054 24.5352C15.6238 24.4968 15.6729 24.4349 15.7145 24.3977C15.8025 24.3191 15.8226 24.1235 15.8275 23.2985C15.8303 22.8385 15.8473 22.7169 15.923 22.6144C15.9498 22.5782 15.9835 22.5045 15.9981 22.4506C16.0322 22.324 16.0941 22.2478 16.2111 22.1888C16.2628 22.1627 16.3381 22.1122 16.3784 22.0766C16.4213 22.0387 16.5205 21.9939 16.618 21.9683C16.7333 21.9381 16.7955 21.9077 16.8209 21.8689C16.8479 21.8277 16.8907 21.8087 16.9842 21.7961C17.1352 21.7759 17.2625 21.7266 17.3317 21.6616C17.4821 21.5202 18.2604 21.5234 18.3411 21.6657C18.3629 21.7042 18.4009 21.7423 18.4255 21.7502C18.476 21.7665 18.7837 22.0637 18.7837 22.0962C18.7837 22.1079 18.8265 22.1415 18.8789 22.1708C18.9312 22.2003 18.9803 22.2408 18.988 22.2609C18.9957 22.281 19.0495 22.3277 19.1076 22.3645C19.1657 22.4015 19.2511 22.4678 19.2976 22.512C19.344 22.5563 19.4125 22.599 19.4499 22.6069C19.4873 22.6147 19.5369 22.6455 19.5603 22.6752C19.6781 22.825 20.1323 22.8296 20.2357 22.6821C20.2561 22.6531 20.3196 22.612 20.3768 22.5908C20.4418 22.5668 20.4923 22.5286 20.5113 22.489C20.5291 22.4518 20.5696 22.4196 20.609 22.4111C20.646 22.403 20.7345 22.3418 20.8057 22.2749C20.8769 22.208 20.9567 22.1465 20.983 22.1381C21.0094 22.1298 21.0474 22.0909 21.0677 22.0518C21.0879 22.0127 21.1365 21.9641 21.1755 21.9439C21.2147 21.9237 21.2538 21.8846 21.2625 21.8571C21.2713 21.8296 21.3206 21.7804 21.3722 21.7479C21.4238 21.7154 21.4732 21.6661 21.4819 21.6387C21.4907 21.6111 21.5298 21.5721 21.5689 21.5519C21.608 21.5317 21.6569 21.4825 21.6775 21.4426C21.698 21.4028 21.7469 21.3536 21.786 21.3334C21.8252 21.3132 21.8637 21.2761 21.8717 21.251C21.8796 21.2259 21.9309 21.1571 21.9856 21.0981C22.0403 21.0392 22.1054 20.9513 22.1302 20.903C22.1549 20.8547 22.2029 20.797 22.2367 20.7749C22.2729 20.7512 22.309 20.6947 22.3244 20.6376C22.3387 20.5844 22.3659 20.5321 22.3847 20.5216C22.5161 20.448 22.5434 20.0342 22.4258 19.899C22.3874 19.8548 22.3419 19.7755 22.3247 19.7227C22.306 19.6651 22.2139 19.538 22.0949 19.4052C21.9857 19.2835 21.8771 19.1536 21.8535 19.1167C21.8299 19.0797 21.7972 19.0494 21.7807 19.0493C21.7642 19.0493 21.7242 19.0102 21.6918 18.9626C21.6593 18.915 21.6125 18.8651 21.5876 18.8518C21.5628 18.8385 21.515 18.7841 21.4814 18.731C21.4479 18.6778 21.4045 18.6344 21.385 18.6344C21.2305 18.6344 21.2411 17.7815 21.3981 17.5862C21.4546 17.516 21.4807 17.4479 21.5049 17.3082C21.5302 17.1632 21.5509 17.1111 21.6009 17.0669C21.6438 17.029 21.6777 16.959 21.7041 16.8536C21.7264 16.7647 21.7643 16.6799 21.7917 16.6578C21.8181 16.6364 21.8747 16.5538 21.9174 16.4743C21.9925 16.3341 22.0002 16.3279 22.1659 16.2714C22.5485 16.1409 22.5616 16.139 23.3056 16.1083C24.057 16.0773 24.1561 16.0603 24.1561 15.9619C24.1561 15.9431 24.1967 15.9077 24.2463 15.8831C24.3156 15.8487 24.3444 15.8142 24.3705 15.7345C24.3891 15.6775 24.4141 15.6307 24.4261 15.6307C24.5159 15.6307 24.5224 15.5252 24.5224 14.0675C24.5224 12.5961 24.5214 12.5811 24.4208 12.5097C24.3961 12.4922 24.3759 12.4536 24.3759 12.4238C24.3759 12.2876 24.1835 12.1116 23.9986 12.0787C23.9456 12.0692 23.8771 12.0417 23.8464 12.0175C23.7726 11.9595 23.6494 11.9463 22.9229 11.9186C22.1941 11.8909 22.1434 11.884 22.1083 11.807C22.0939 11.7753 22.0443 11.7336 21.9982 11.7143C21.9366 11.6886 21.91 11.6593 21.8978 11.6041C21.8887 11.5627 21.8524 11.5061 21.8172 11.4784C21.772 11.4428 21.7406 11.3803 21.7111 11.2669C21.6821 11.1555 21.6497 11.0901 21.6058 11.0546C21.5557 11.014 21.5348 10.9632 21.5063 10.8127C21.4658 10.5987 21.4404 10.5391 21.3745 10.5038C21.2847 10.4557 21.2449 9.76135 21.3211 9.57167C21.334 9.53974 21.3836 9.47185 21.4314 9.42087C21.4792 9.36984 21.5246 9.30336 21.5322 9.27308C21.5402 9.24127 21.5771 9.20629 21.6194 9.19029C21.6651 9.17302 21.7033 9.13474 21.7206 9.08871C21.7366 9.04646 21.7776 9.00275 21.8162 8.98675C21.8574 8.96966 21.8951 8.92747 21.9128 8.87864C21.9311 8.8279 21.9709 8.78462 22.0211 8.76069C22.0751 8.73493 22.1054 8.69994 22.1162 8.65056C22.1269 8.60196 22.1551 8.56869 22.2021 8.54915C22.2494 8.52962 22.2854 8.487 22.3125 8.41857C22.3347 8.36277 22.3822 8.28615 22.4181 8.2483C22.5266 8.13402 22.5306 7.7604 22.4245 7.63958C22.383 7.59227 22.349 7.54086 22.349 7.52529C22.349 7.47102 22.2498 7.30308 22.1999 7.27298C22.1722 7.25625 22.1281 7.20094 22.1018 7.15002C22.0755 7.09911 22.0281 7.04569 21.9966 7.03128C21.965 7.01694 21.9225 6.96291 21.9023 6.91126C21.877 6.84685 21.846 6.81248 21.8035 6.80186C21.7644 6.79203 21.7325 6.75998 21.7167 6.7145C21.7004 6.6678 21.6624 6.63037 21.6081 6.60772C21.5533 6.58483 21.519 6.55089 21.5086 6.50925C21.4982 6.4681 21.4639 6.43373 21.4114 6.41182C21.3622 6.39124 21.3184 6.34924 21.3001 6.3051C21.2822 6.26194 21.2417 6.2225 21.2006 6.20816C21.1624 6.19485 21.1144 6.1515 21.0938 6.11182C21.0733 6.07214 21.0177 6.01677 20.9702 5.98874C20.9227 5.96072 20.8838 5.9208 20.8838 5.89998C20.8838 5.87922 20.8365 5.83923 20.7786 5.81109C20.7208 5.78301 20.6631 5.73734 20.6504 5.70963C20.6377 5.68197 20.6054 5.64742 20.5786 5.63295C20.5517 5.61842 20.4732 5.56488 20.4042 5.51396C20.1464 5.32392 19.5897 5.31342 19.4197 5.4954C19.3853 5.53234 19.3209 5.58124 19.2769 5.60401C19.2328 5.62678 19.1842 5.67312 19.1687 5.70694C19.1533 5.74076 19.1044 5.78362 19.06 5.80218C19.0155 5.82074 18.9661 5.86469 18.9501 5.89986C18.934 5.93502 18.8837 5.97934 18.8382 5.99839C18.7861 6.02012 18.7454 6.0595 18.7284 6.10449C18.7099 6.15352 18.6798 6.18038 18.6326 6.18978C18.5847 6.19936 18.5513 6.22971 18.5227 6.2896C18.4996 6.33807 18.4636 6.37567 18.4403 6.37567C18.4175 6.37567 18.3344 6.42592 18.2555 6.48733L18.1122 6.59899L17.8456 6.59112C17.6645 6.58575 17.5758 6.57378 17.5692 6.55363C17.55 6.49606 17.4019 6.42769 17.2331 6.39851C17.1125 6.37757 17.0468 6.35248 17.0101 6.3131C16.9588 6.25816 16.8539 6.21982 16.6816 6.19314C16.6334 6.18569 16.5567 6.14631 16.5111 6.10565C16.4656 6.06499 16.3804 6.01964 16.3219 6.00492C16.248 5.9863 16.2072 5.95993 16.1884 5.91866C16.1735 5.88594 16.1307 5.84332 16.0932 5.82397C16.0542 5.80383 16.0181 5.76011 16.0089 5.72202C16.0001 5.68533 15.9595 5.58936 15.9188 5.50877L15.8446 5.36226L15.824 4.62142C15.8007 3.78279 15.805 3.80251 15.6001 3.57675C15.3762 3.33005 15.5163 3.34732 13.7618 3.34983C12.8896 3.35111 12.1929 3.36192 12.148 3.37486ZM15.3168 3.4378C15.35 3.46051 15.3827 3.48548 15.3894 3.49329C15.3961 3.50111 15.4319 3.52675 15.4688 3.55025C15.5299 3.58908 15.5819 3.65532 15.7159 3.86472C15.7568 3.92857 15.7638 4.01728 15.7825 4.70567C15.7972 5.24889 15.8125 5.49174 15.8344 5.53142C15.8516 5.56238 15.8952 5.64253 15.9314 5.70957C15.9986 5.83417 16.2236 6.05822 16.2815 6.05822C16.2992 6.05822 16.3469 6.08624 16.3876 6.12055C16.4284 6.1548 16.5418 6.20486 16.6398 6.23184C16.7378 6.25877 16.8564 6.30699 16.9034 6.33905C16.9504 6.37103 17.0637 6.41585 17.1552 6.43862C17.2468 6.46145 17.3571 6.50412 17.4005 6.53361C17.6259 6.68654 18.2249 6.68245 18.3336 6.5272C18.3545 6.49741 18.4016 6.45754 18.4384 6.43856C18.4751 6.41951 18.5926 6.32073 18.6994 6.2189C18.8062 6.11713 18.9514 5.9816 19.0221 5.9178C19.0928 5.85401 19.1756 5.77806 19.206 5.74906C19.5536 5.41818 20.0421 5.31342 20.2695 5.52111C20.3136 5.56134 20.3639 5.59424 20.3813 5.59424C20.3987 5.59424 20.4613 5.6357 20.5202 5.68637C20.5792 5.73704 20.6659 5.80724 20.7129 5.84235C20.7822 5.89412 21.2968 6.37842 21.4145 6.50266C21.4619 6.55266 21.5498 6.63947 21.6164 6.70198C21.7179 6.79728 21.9415 7.05424 22.1399 7.30362C22.188 7.36406 22.2549 7.47395 22.2886 7.54782C22.3224 7.62169 22.3662 7.71131 22.3861 7.74696C22.4309 7.82731 22.4333 8.03329 22.3901 8.09794C22.3724 8.12443 22.3381 8.19946 22.3139 8.26466C22.2733 8.37357 22.2087 8.45984 21.9623 8.73395C21.8137 8.89915 21.7893 8.9257 21.7448 8.97137C21.7212 8.99548 21.6524 9.06893 21.592 9.13455C21.5316 9.20012 21.4422 9.29578 21.3934 9.34707C21.1451 9.60775 21.1337 10.3213 21.3726 10.6444C21.4007 10.6823 21.4439 10.7922 21.4686 10.8884C21.494 10.9869 21.5407 11.0955 21.5754 11.1368C21.6094 11.1771 21.6542 11.2686 21.6749 11.3399C21.719 11.4916 21.8012 11.6132 21.9705 11.7768C22.1491 11.9495 22.0879 11.9384 23.5578 12.0658C24.0643 12.1097 24.2395 12.2064 24.3538 12.5051C24.446 12.7465 24.4513 12.8426 24.444 14.1346L24.4369 15.3988L24.3701 15.5819C24.3268 15.7001 24.2802 15.7824 24.2383 15.8139C24.2027 15.8408 24.131 15.8977 24.0791 15.9404C23.9613 16.0372 23.9286 16.0412 23.0423 16.0694L22.3558 16.0912L22.1336 16.205C21.9981 16.2744 21.9054 16.3376 21.8961 16.3671C21.8876 16.3936 21.8485 16.4521 21.8091 16.497C21.7697 16.5418 21.7154 16.6426 21.6885 16.7209C21.6615 16.7992 21.6122 16.9027 21.5788 16.9509C21.5453 16.9992 21.4957 17.1193 21.4683 17.2178C21.441 17.3164 21.3957 17.4293 21.3676 17.4688C21.2651 17.6127 21.1503 18.1529 21.191 18.2996C21.2104 18.3696 21.2332 18.463 21.2416 18.5073C21.2573 18.5903 21.3351 18.6877 21.6761 19.0521C22.1041 19.5092 22.2564 19.6995 22.3109 19.845C22.3356 19.9112 22.3653 19.9773 22.3769 19.9921C22.4722 20.1145 22.3345 20.6231 22.1755 20.7364C22.1366 20.764 22.1048 20.802 22.1048 20.8208C22.1048 20.8396 22.0691 20.8912 22.0255 20.9354C21.9818 20.9797 21.9151 21.0615 21.8771 21.1173C21.7987 21.2325 20.9062 22.113 20.8054 22.1746C20.769 22.1968 20.7172 22.2431 20.6902 22.2773C20.6633 22.3116 20.6085 22.3531 20.5684 22.3697C20.5283 22.3863 20.4793 22.4247 20.4594 22.455C20.3472 22.6263 19.7951 22.7699 19.6715 22.66C19.6466 22.6378 19.5846 22.6025 19.5336 22.5814C19.4827 22.5604 19.3948 22.5044 19.3382 22.457C18.9604 22.1401 18.8528 22.0459 18.722 21.9171C18.3754 21.5763 18.1699 21.4671 17.8747 21.4671C17.7271 21.4671 17.2925 21.5837 17.1971 21.649C17.1498 21.6813 17.0396 21.7259 16.9523 21.7478C16.865 21.7698 16.7551 21.8128 16.7081 21.8433C16.6611 21.8739 16.5664 21.9175 16.4976 21.9403C16.4288 21.963 16.3145 22.0251 16.2435 22.078C16.1724 22.131 16.0956 22.1803 16.0728 22.1876C16.0499 22.1948 16.0137 22.2417 15.9923 22.2918C15.9708 22.3418 15.9199 22.4436 15.8791 22.5179L15.805 22.6531L15.7809 23.397C15.7555 24.1812 15.7498 24.2341 15.6821 24.312C15.6587 24.3388 15.6123 24.4048 15.5789 24.4585C15.5296 24.5377 15.4818 24.5723 15.3255 24.6416L15.133 24.7271H13.7777H12.4224L12.2515 24.6579C11.8672 24.5023 11.7887 24.3073 11.7272 23.3551C11.6657 22.4024 11.6675 22.4103 11.4734 22.2357C11.249 22.0337 11.1829 21.9889 11.0427 21.9438C10.9688 21.92 10.8853 21.8795 10.857 21.8539C10.8288 21.8282 10.7244 21.7843 10.625 21.7564C10.5257 21.7284 10.4004 21.6801 10.3467 21.649C9.94856 21.4186 9.30553 21.431 9.06994 21.6735C9.02488 21.7199 8.96664 21.7647 8.94064 21.7729C8.91457 21.7812 8.8766 21.8202 8.8562 21.8595C8.83588 21.8989 8.80999 21.931 8.79864 21.931C8.78734 21.931 8.68234 22.0217 8.56537 22.1325C8.19687 22.4816 8.12203 22.5412 7.99962 22.5827C7.93399 22.605 7.84736 22.6433 7.80707 22.6678C7.69743 22.7344 7.55414 22.7246 7.39194 22.6392C7.31532 22.5989 7.23937 22.566 7.22314 22.566C7.19579 22.566 7.14139 22.5245 6.80031 22.2437C6.69384 22.1561 6.04354 21.5206 5.9121 21.3758C5.89061 21.3521 5.85215 21.3141 5.82663 21.2914C5.68482 21.1649 5.35863 20.7725 5.3093 20.6691C5.28799 20.6245 5.26101 20.588 5.24929 20.588C5.14581 20.588 5.09355 20.0328 5.1825 19.8779C5.31382 19.6489 5.40173 19.5447 5.95728 18.9598C6.05465 18.8573 6.13432 18.7642 6.13432 18.7528C6.13432 18.7415 6.17107 18.691 6.21601 18.6405C6.40025 18.4338 6.41399 17.9421 6.24262 17.6895C6.21265 17.6454 6.16985 17.527 6.14751 17.4264C6.1251 17.3257 6.09641 17.237 6.08377 17.2291C6.04531 17.2054 5.98573 17.0737 5.94812 16.9295C5.92858 16.8544 5.88005 16.7439 5.84031 16.6838C5.80056 16.6238 5.76803 16.5618 5.76803 16.546C5.76803 16.4939 5.53811 16.2861 5.42615 16.237C5.36571 16.2105 5.29965 16.1739 5.27933 16.1555C5.22389 16.1053 4.96211 16.0709 4.6203 16.0688C4.45241 16.0678 4.15571 16.0588 3.96097 16.0489L3.60688 16.0308L3.47257 15.9394C3.30578 15.8259 3.13704 15.6289 3.11806 15.5256C3.07917 15.3132 3.11781 12.516 3.16049 12.4551C3.40023 12.1129 3.49858 12.0852 4.80345 11.9922C5.52743 11.9406 5.81986 11.7201 5.96265 11.1178C5.97956 11.0465 6.01875 10.9579 6.04983 10.921C6.08231 10.8825 6.12797 10.767 6.15721 10.6493C6.18524 10.5369 6.22406 10.4272 6.24354 10.4057C6.34702 10.2914 6.39928 9.81867 6.32889 9.63363C6.29421 9.54249 6.01198 9.20562 5.635 8.80544C5.38793 8.54317 5.35967 8.51039 5.32939 8.45135C5.31217 8.41777 5.27298 8.36283 5.24227 8.32925C5.08397 8.15599 5.09337 7.69581 5.25906 7.50423C5.29721 7.46009 5.32847 7.41376 5.32847 7.40124C5.32847 7.35375 5.77096 6.86309 6.18316 6.45351C6.33762 6.30003 6.48047 6.1573 6.50062 6.13624C6.52076 6.11518 6.56338 6.07531 6.59524 6.04753C6.62717 6.01982 6.69536 5.95596 6.74689 5.9056C6.79842 5.85523 6.85153 5.81402 6.86502 5.81402C6.87845 5.81402 6.93156 5.77281 6.98297 5.72245C7.03443 5.67208 7.10903 5.61207 7.14878 5.58905C7.18852 5.56604 7.25152 5.52245 7.28882 5.49223C7.50872 5.31384 7.98466 5.42703 8.31012 5.73515C8.63093 6.03887 8.97946 6.35138 9.08911 6.43367C9.16298 6.48904 9.23795 6.54814 9.25565 6.56487C9.36615 6.66938 9.90161 6.66212 10.0941 6.55351C10.1694 6.51096 10.3011 6.45834 10.3866 6.43648C10.4721 6.41469 10.5832 6.36994 10.6336 6.33715C10.6839 6.30431 10.7828 6.26206 10.8534 6.24338C11.0284 6.19686 11.0677 6.18032 11.1526 6.11738C11.1929 6.08746 11.2662 6.04637 11.3155 6.02605C11.3647 6.00572 11.418 5.96341 11.4339 5.93209C11.4498 5.90071 11.4949 5.8476 11.5342 5.81402C11.6352 5.7277 11.6722 5.56103 11.7023 5.05701C11.7438 4.36264 11.8184 3.82839 11.8918 3.70141C11.9288 3.63725 12.1683 3.44042 12.2329 3.42095C12.38 3.37669 15.2504 3.39238 15.3168 3.4378ZM13.5579 9.62136C13.484 9.63125 13.2753 9.66348 13.0939 9.69297C12.9126 9.7224 12.6938 9.75793 12.6076 9.77185C12.5214 9.78577 12.406 9.82319 12.3512 9.855C12.2963 9.8868 12.1883 9.92905 12.1111 9.94895C12.0339 9.96885 11.9192 10.0193 11.8561 10.061C11.7931 10.1028 11.7014 10.1477 11.6524 10.1609C11.6034 10.1742 11.5423 10.2082 11.5167 10.2366C11.491 10.2649 11.4206 10.3132 11.3601 10.3439C11.2997 10.3745 11.229 10.4232 11.203 10.4519C11.1771 10.4807 11.119 10.5269 11.0741 10.5547C10.8906 10.6681 10.1868 11.4342 10.0718 11.6458C10.0375 11.7087 9.99056 11.7767 9.96736 11.7969C9.94416 11.817 9.90112 11.8994 9.8717 11.98C9.84227 12.0606 9.79673 12.1495 9.77048 12.1776C9.74423 12.2057 9.70119 12.3046 9.67481 12.3974C9.64844 12.4901 9.59875 12.6291 9.56432 12.7062C9.52183 12.8014 9.49038 12.9388 9.46658 13.1336C9.44728 13.2915 9.42036 13.4943 9.40681 13.5842C9.34381 14.0016 9.44405 15.1347 9.56438 15.3648C9.59673 15.4267 9.64124 15.5476 9.66328 15.6334C9.68531 15.7193 9.73513 15.8394 9.77402 15.9004C9.81291 15.9614 9.86053 16.0562 9.87988 16.111C9.89923 16.1659 9.95448 16.2624 10.0027 16.3256C10.0509 16.3887 10.0903 16.4563 10.0903 16.4759C10.0903 16.4955 10.126 16.5497 10.1697 16.5963C10.2133 16.643 10.2985 16.7365 10.3589 16.8041C10.4699 16.9281 10.9441 17.4092 11.0793 17.535C11.1196 17.5725 11.1863 17.6202 11.2276 17.641C11.2689 17.6617 11.3183 17.6977 11.3375 17.7208C11.3567 17.7439 11.4383 17.7926 11.5189 17.829C11.5995 17.8653 11.6855 17.9177 11.7101 17.9453C11.7347 17.973 11.8085 18.0084 11.8742 18.0242C11.9398 18.0399 12.0405 18.084 12.098 18.122C12.1699 18.1695 12.2791 18.2065 12.4468 18.2403C12.5811 18.2673 12.7413 18.3117 12.8027 18.339C13.116 18.4783 14.4089 18.4776 14.763 18.338C14.8308 18.3112 14.991 18.2678 15.1191 18.2415C15.2608 18.2123 15.3855 18.1706 15.4378 18.1349C15.4851 18.1026 15.5951 18.0525 15.6824 18.0236C15.7697 17.9948 15.8686 17.9463 15.9022 17.9159C15.9358 17.8856 16.0004 17.846 16.0458 17.8282C16.0912 17.8102 16.1621 17.7647 16.2034 17.727C16.2447 17.6893 16.3164 17.6404 16.3627 17.6185C16.409 17.5965 16.4883 17.5385 16.539 17.4898C16.5896 17.441 16.6481 17.3847 16.6691 17.3645C16.6901 17.3444 16.7321 17.3028 16.7626 17.272C16.793 17.2412 16.8915 17.1423 16.9813 17.0522C17.0711 16.9621 17.1827 16.8499 17.2291 16.8029C17.2756 16.7559 17.3324 16.679 17.3555 16.632C17.3785 16.5849 17.423 16.519 17.4543 16.4854C17.4857 16.4519 17.528 16.3845 17.5483 16.3357C17.5687 16.287 17.6135 16.2136 17.648 16.1726C17.6825 16.1317 17.7325 16.0342 17.7593 15.956C17.7859 15.8779 17.8278 15.7864 17.8524 15.7528C17.9044 15.6815 17.9391 15.5776 17.9789 15.3743C17.9947 15.2938 18.0336 15.1657 18.0653 15.0899C18.2192 14.7217 18.2102 13.3191 18.0516 12.9424C18.0256 12.8808 17.9867 12.7435 17.965 12.6372C17.9422 12.525 17.9 12.4066 17.8646 12.3548C17.8311 12.3057 17.7881 12.214 17.7691 12.151C17.7502 12.088 17.6905 11.9702 17.6365 11.8894C17.5825 11.8086 17.5383 11.7273 17.5383 11.7087C17.5383 11.6901 17.5023 11.6337 17.4583 11.5832C17.4143 11.5329 17.3621 11.4594 17.3423 11.4199C17.3003 11.3362 16.5538 10.5874 16.4639 10.5388C16.4303 10.5207 16.3717 10.4721 16.3336 10.4309C16.2955 10.3898 16.2492 10.3561 16.2307 10.3561C16.2121 10.3561 16.1607 10.3243 16.1164 10.2854C16.0721 10.2465 15.9652 10.1859 15.8788 10.1508C15.7924 10.1157 15.6992 10.066 15.6716 10.0404C15.644 10.0147 15.5506 9.97551 15.4642 9.95329C15.3777 9.93106 15.2459 9.88119 15.1711 9.84254C15.0636 9.78693 14.9706 9.7644 14.7248 9.73436C14.5541 9.71348 14.3378 9.68034 14.2444 9.66068C14.0281 9.6152 13.7304 9.59816 13.5579 9.62136ZM14.521 9.77069C14.9252 9.80024 14.9703 9.81019 15.0719 9.89199C15.1066 9.91989 15.2162 9.95701 15.3254 9.97783C15.4692 10.0053 15.5377 10.0322 15.5974 10.0846C15.6416 10.1234 15.733 10.168 15.8024 10.1847C15.878 10.2027 15.9374 10.233 15.9524 10.2609C15.9812 10.3148 16.1471 10.4049 16.2173 10.4049C16.2462 10.4049 16.2788 10.4321 16.2977 10.4721C16.3153 10.509 16.3676 10.5582 16.414 10.5814C16.4605 10.6046 16.5133 10.6518 16.5314 10.6863C16.5495 10.7208 16.5916 10.7594 16.625 10.7721C16.6584 10.7848 16.7045 10.8282 16.7274 10.8685C16.7503 10.9088 16.7774 10.9419 16.7875 10.942C16.814 10.9422 17.1034 11.2356 17.153 11.3127C17.1762 11.3486 17.2172 11.385 17.2441 11.3936C17.2742 11.4031 17.3025 11.4442 17.3176 11.5004C17.3319 11.5531 17.3718 11.6136 17.4121 11.6434C17.4581 11.6774 17.4932 11.7356 17.5148 11.8132C17.5335 11.8807 17.5777 11.9597 17.6182 11.9978C17.6678 12.0445 17.6995 12.1096 17.724 12.215C17.7463 12.3101 17.7852 12.3951 17.83 12.4461C17.8841 12.5078 17.9043 12.5601 17.9157 12.6685C17.9404 12.9014 17.9994 13.123 18.0576 13.201C18.1113 13.2731 18.1122 13.2858 18.1122 14.0203V14.7664L18.0333 14.9239C17.974 15.0422 17.9475 15.1389 17.9265 15.3133C17.9035 15.5038 17.8877 15.5569 17.8378 15.6105C17.8044 15.6464 17.7574 15.7465 17.7334 15.8329C17.7079 15.925 17.6535 16.0377 17.6019 16.1053C17.5535 16.1687 17.5137 16.2444 17.5135 16.2737C17.5131 16.3372 17.4936 16.3666 17.4284 16.4022C17.4016 16.4169 17.3576 16.4736 17.3308 16.5282C17.2268 16.7394 16.4683 17.5017 16.2755 17.5887C16.2255 17.6112 16.1568 17.6617 16.1228 17.7009C16.0886 17.7404 16.0153 17.785 15.9589 17.8008C15.9028 17.8166 15.813 17.8662 15.7592 17.9111C15.6879 17.9706 15.6272 17.9973 15.5345 18.0095C15.4398 18.0221 15.389 18.0449 15.3346 18.0994C15.2678 18.1662 15.2376 18.1753 14.9812 18.2072C14.765 18.234 14.6652 18.2593 14.5456 18.3176L14.3903 18.3932L13.7605 18.3856C13.1356 18.378 13.1296 18.3775 13.0085 18.3142C12.8757 18.2448 12.7902 18.2247 12.5024 18.1957C12.3413 18.1794 12.3015 18.1658 12.2284 18.1017C12.1683 18.0488 12.0979 18.0178 11.9905 17.9967C11.8801 17.9749 11.821 17.9482 11.7762 17.8999C11.7421 17.8632 11.6731 17.822 11.6228 17.8084C11.5725 17.7948 11.485 17.7441 11.4285 17.6957C11.372 17.6473 11.2848 17.5954 11.2349 17.5805C11.1708 17.5613 11.1396 17.5358 11.1291 17.4939C11.1198 17.4569 11.083 17.4216 11.0311 17.3998C10.9854 17.3807 10.9335 17.3349 10.9157 17.2979C10.898 17.2609 10.8534 17.2163 10.8165 17.1986C10.7796 17.1809 10.7329 17.1343 10.7125 17.095C10.6922 17.0556 10.644 17.0072 10.6054 16.9872C10.5664 16.9671 10.5234 16.9171 10.5087 16.875C10.4915 16.8256 10.4565 16.7894 10.4084 16.7712C10.3613 16.7534 10.3345 16.7263 10.3345 16.6961C10.3345 16.6701 10.2926 16.6094 10.2414 16.5611C10.1902 16.5127 10.1289 16.4212 10.1052 16.3575C10.0815 16.2939 10.0351 16.2205 10.0021 16.1946C9.96333 16.1641 9.92902 16.0971 9.90509 16.0051C9.88293 15.9197 9.84038 15.8334 9.79887 15.7895C9.75033 15.7381 9.72469 15.6797 9.71303 15.5941C9.6869 15.4019 9.6554 15.3025 9.58996 15.2061C9.44832 14.9974 9.43587 13.0346 9.57524 12.8858C9.63819 12.8186 9.66901 12.7332 9.69978 12.5406C9.71853 12.4232 9.7463 12.3542 9.8065 12.2754C9.85265 12.2149 9.89478 12.1252 9.90393 12.068C9.91413 12.0042 9.94996 11.9337 10.0014 11.8759C10.0461 11.8257 10.0939 11.7515 10.1077 11.711C10.1214 11.6705 10.1698 11.5969 10.2153 11.5476C10.2607 11.4983 10.3473 11.4009 10.4078 11.3314C10.6453 11.0582 11.06 10.645 11.1536 10.5882C11.2079 10.5553 11.2769 10.4951 11.307 10.4544C11.3426 10.4061 11.383 10.3805 11.4231 10.3805C11.4609 10.3805 11.5149 10.3492 11.5628 10.2994C11.6134 10.2469 11.6907 10.2033 11.7817 10.1759C11.8694 10.1496 11.9363 10.1126 11.959 10.0778C11.9873 10.0346 12.0357 10.0149 12.1724 9.99083C12.3636 9.95725 12.4613 9.92032 12.5567 9.84572C12.685 9.74535 13.6639 9.70799 14.521 9.77069Z" fill="#DDECEC"/>
</g>
<defs>
<clipPath id="clip0_2586_13587">
<rect width="24.4197" height="26.4547" fill="white" transform="translate(1.90918 0.564453)"/>
</clipPath>
</defs>
</svg>
