<svg width="28" height="28" viewBox="0 0 28 28" fill="none" xmlns="http://www.w3.org/2000/svg">
<g clipPath="url(#clip0_2586_13606)">
<mask id="mask0_2586_13606" style="mask-type:luminance" maskUnits="userSpaceOnUse" x="0" y="0" width="28" height="28">
<path d="M27.9272 0.624023H0.902344V27.6489H27.9272V0.624023Z" fill="white"/>
</mask>
<g mask="url(#mask0_2586_13606)">
<path d="M19.2402 3.52926L9.58859 3.51953C9.07708 3.52103 8.58695 3.72489 8.22525 4.08658C7.86356 4.44827 7.6597 4.93841 7.6582 5.44992V22.8231C7.6597 23.3346 7.86356 23.8247 8.22525 24.1864C8.58695 24.5481 9.07708 24.752 9.58859 24.7535H19.2402C19.7517 24.752 20.2419 24.5481 20.6036 24.1864C20.9653 23.8247 21.1691 23.3346 21.1706 22.8231V5.44992C21.1688 4.93941 20.9645 4.45049 20.6026 4.09042C20.2407 3.73035 19.7507 3.52854 19.2402 3.52926ZM19.2402 20.8927H9.58859V7.3803H19.2402V20.8927Z" fill="#D0021B"/>
</g>
</g>
<defs>
<clipPath id="clip0_2586_13606">
<rect width="27.0248" height="27.0248" fill="white" transform="translate(0.90332 0.625)"/>
</clipPath>
</defs>
</svg>
