<svg width="28" height="28" viewBox="0 0 28 28" fill="none" xmlns="http://www.w3.org/2000/svg">
<g clipPath="url(#clip0_2586_14847)">
<path fillRule="evenodd" clipRule="evenodd" d="M12.9077 2.96672C12.163 3.02013 11.9489 3.04761 11.8231 3.10591C11.7549 3.13746 11.611 3.17304 11.423 3.20478C11.0859 3.26169 11.0544 3.27152 10.9688 3.3467C10.9078 3.40031 10.8737 3.41091 10.5913 3.46403C10.5228 3.47693 10.4641 3.50133 10.4378 3.5279C10.3734 3.59306 10.3063 3.6295 10.1864 3.66431C10.1115 3.68612 10.0651 3.71297 10.0372 3.75076C9.99393 3.80925 9.86625 3.87273 9.74724 3.89489C9.69594 3.90443 9.65969 3.92792 9.62397 3.97477C9.59611 4.01125 9.53819 4.05767 9.49523 4.07785C9.45232 4.09809 9.3756 4.15332 9.32483 4.20069C9.27156 4.25032 9.19139 4.30109 9.13534 4.32066C9.0627 4.34597 9.02664 4.37263 8.99274 4.42609C8.96776 4.46541 8.91387 4.5147 8.87297 4.53556C8.83207 4.55641 8.78086 4.60355 8.75919 4.64027C8.73752 4.67705 8.68765 4.72361 8.64839 4.74374C8.60638 4.76527 8.56438 4.80694 8.54635 4.84491C8.52952 4.88039 8.47851 4.93443 8.43296 4.96497C8.38741 4.99552 8.34152 5.04327 8.33093 5.07108C8.30619 5.13624 8.25819 5.18908 8.20545 5.20922C8.18234 5.21809 8.14676 5.2633 8.12605 5.31019C8.10313 5.36198 8.06439 5.40916 8.0268 5.43102C7.98451 5.45567 7.94663 5.50601 7.90611 5.59126C7.87365 5.65963 7.81142 5.75179 7.76774 5.79609C7.72386 5.84054 7.67803 5.91107 7.66527 5.95365C7.6517 5.99891 7.6155 6.05285 7.57743 6.08445C7.52551 6.12755 7.50259 6.17128 7.46193 6.30505C7.42357 6.43139 7.3972 6.4837 7.35328 6.52062C7.28989 6.57399 7.27287 6.61844 7.22867 6.84652C7.19721 7.00882 7.14428 7.13373 7.09959 7.15084C7.07327 7.16096 7.03064 7.35448 6.99953 7.60538C6.98404 7.73038 6.92214 7.94264 6.88354 8.00315C6.80078 8.1329 6.79508 9.1303 6.87649 9.24043C6.93983 9.32607 7.0048 9.46531 7.02048 9.54897C7.02916 9.5952 7.06248 9.64842 7.11786 9.70461C7.16413 9.75155 7.20201 9.79835 7.20201 9.80861C7.20201 9.84328 7.47751 10.1035 7.5433 10.131C7.57926 10.1461 7.63588 10.1873 7.66906 10.2227C7.80701 10.3698 8.40994 10.4256 8.92811 10.3393C9.28915 10.2791 9.27405 10.2841 9.32156 10.2084C9.34367 10.1732 9.39929 10.1283 9.45145 10.1036C9.50161 10.0798 9.55186 10.0401 9.56308 10.0155C9.5743 9.99086 9.61078 9.95461 9.64415 9.9349C9.71564 9.89276 9.77045 9.83162 9.77136 9.79312C9.77169 9.77802 9.81034 9.72998 9.85723 9.6863C9.93783 9.61126 9.94464 9.59663 9.98175 9.41885C10.0051 9.30718 10.0449 9.18692 10.0798 9.12291C10.1366 9.01849 10.1764 8.85537 10.2037 8.61477C10.2192 8.47798 10.2519 8.38112 10.3158 8.28331C10.3423 8.24275 10.3774 8.14345 10.3938 8.06266C10.434 7.86511 10.4535 7.81841 10.5291 7.73964C10.5657 7.70152 10.6033 7.63535 10.6162 7.58654C10.6448 7.47847 10.7219 7.32475 10.7577 7.30437C10.7727 7.29588 10.8067 7.23955 10.8334 7.17913C10.8648 7.10788 10.9024 7.05682 10.9406 7.03361C10.9767 7.0117 11.0221 6.95244 11.058 6.88056C11.1257 6.74506 11.4888 6.39663 11.6009 6.35962C11.6379 6.34744 11.6743 6.31805 11.687 6.29028C11.7016 6.25826 11.7514 6.22311 11.8358 6.18518C11.9056 6.15387 11.9798 6.1066 12.0006 6.08008C12.053 6.01348 12.1232 5.98088 12.2955 5.943C12.3794 5.92459 12.465 5.89247 12.4934 5.86883C12.5806 5.79604 12.6623 5.76459 12.8158 5.74455C13.1087 5.70638 13.23 5.68274 13.3081 5.64875C13.5324 5.55094 14.2662 5.54264 14.5314 5.63494C14.6123 5.66309 14.8064 5.70442 14.9629 5.7269C15.2709 5.77111 15.3311 5.78938 15.4221 5.86609C15.4548 5.89371 15.5239 5.92651 15.5756 5.93902C15.6272 5.95159 15.7035 5.9699 15.7451 5.97978C15.789 5.99028 15.8489 6.02605 15.8882 6.06541C15.9254 6.10257 15.9997 6.15378 16.0533 6.17914C16.1118 6.20686 16.1647 6.24886 16.1857 6.28434C16.2048 6.3168 16.2489 6.35525 16.2837 6.36978C16.3491 6.39711 16.4169 6.46918 16.4371 6.5329C16.4436 6.55308 16.4697 6.5749 16.4952 6.58128C16.5208 6.5877 16.5676 6.62443 16.5992 6.66283C16.6681 6.74669 16.6965 6.77724 16.7559 6.83113C16.7808 6.85362 16.816 6.91475 16.8342 6.96696C16.857 7.03198 16.883 7.069 16.9169 7.08439C16.973 7.10999 17.0321 7.22837 17.0588 7.36886C17.08 7.48043 17.1038 7.53739 17.1635 7.61895C17.2971 7.80163 17.2856 8.87244 17.1481 9.05277C17.1193 9.0905 17.0846 9.18395 17.0592 9.29222C17.0226 9.44795 17.0082 9.47878 16.9425 9.54255C16.9013 9.58259 16.8577 9.64425 16.8457 9.67958C16.8173 9.76344 16.7636 9.84088 16.6678 9.93625C16.625 9.97878 16.5639 10.0435 16.5319 10.0801C16.4337 10.1922 16.2117 10.3893 16.1103 10.4543C16.0573 10.4883 16.0023 10.5381 15.9879 10.5649C15.9735 10.5918 15.924 10.6338 15.8779 10.6583C15.8318 10.6827 15.7942 10.7089 15.7942 10.7164C15.7942 10.7514 15.6717 10.8644 15.622 10.8753C15.5839 10.8837 15.5551 10.9094 15.5302 10.9574C15.5074 11.0013 15.4646 11.0421 15.4147 11.0672C15.3711 11.0891 15.3154 11.1369 15.2908 11.1734C15.2656 11.2108 15.207 11.2583 15.1566 11.2824C15.1073 11.3058 15.0524 11.3473 15.0345 11.3746C15.0166 11.4018 14.9623 11.451 14.9138 11.4837C14.8653 11.5165 14.782 11.584 14.7286 11.6337C14.6753 11.6834 14.6055 11.7376 14.5735 11.7541C14.5416 11.7706 14.4926 11.8141 14.4647 11.8507C14.435 11.8896 14.3786 11.9307 14.3288 11.9497C14.2701 11.9721 14.2367 11.9989 14.2214 12.0359C14.1949 12.0999 14.1319 12.1608 14.074 12.1783C14.0509 12.1853 14.0164 12.2229 13.9973 12.262C13.977 12.3035 13.934 12.3483 13.8936 12.3699C13.8525 12.3919 13.8075 12.4393 13.7819 12.4875C13.7524 12.543 13.7157 12.5788 13.6641 12.6021C13.6152 12.6241 13.5773 12.6595 13.5553 12.7038C13.5351 12.7442 13.4924 12.7865 13.4496 12.8083C13.3991 12.8341 13.3668 12.8697 13.3408 12.9285C13.3144 12.9882 13.2835 13.022 13.2329 13.0466C13.1776 13.0733 13.1543 13.1013 13.1274 13.1732C13.1083 13.2238 13.059 13.302 13.0176 13.347C12.9762 13.3919 12.9191 13.4683 12.8906 13.5169C12.8621 13.5655 12.8098 13.6274 12.7743 13.6545C12.7246 13.6923 12.7048 13.7262 12.6888 13.8008C12.6632 13.9205 12.6252 13.9959 12.5606 14.0558C12.5238 14.09 12.4974 14.154 12.4576 14.3062C12.4282 14.4186 12.3822 14.5428 12.3553 14.5821C12.2969 14.6677 12.2754 14.7477 12.2457 14.9893C12.2168 15.2239 12.1766 15.3981 12.1289 15.4962C12.0522 15.6537 12.0066 16.8864 12.051 17.6039L12.0709 17.9267L12.1492 18.0585C12.1922 18.131 12.2329 18.2187 12.2395 18.2535C12.2571 18.346 12.2977 18.4176 12.3825 18.5059C12.4239 18.5489 12.4752 18.6202 12.4965 18.6644C12.5269 18.7271 12.5579 18.7557 12.6389 18.7953C12.6959 18.8232 12.7855 18.8846 12.838 18.9318C12.9164 19.0023 12.9602 19.0245 13.0836 19.0559C13.1662 19.0769 13.2738 19.1189 13.3226 19.1492C13.4896 19.2526 13.9347 19.2472 14.0897 19.1398C14.1284 19.1129 14.2365 19.07 14.3299 19.0443C14.4691 19.006 14.5099 18.9858 14.5571 18.9319C14.5888 18.8957 14.6511 18.8482 14.6958 18.8263C14.7415 18.8038 14.7898 18.7614 14.8064 18.7293C14.8226 18.6979 14.8604 18.6596 14.8903 18.6441C14.9236 18.6269 14.966 18.574 14.9994 18.508C15.0317 18.4443 15.0754 18.389 15.1062 18.3731C15.163 18.3437 15.1624 18.3458 15.2402 17.9236C15.2691 17.7673 15.2855 17.5718 15.2965 17.2524C15.3051 17.0045 15.3215 16.7672 15.333 16.725C15.3572 16.6359 15.3798 16.4477 15.4192 16.0055C15.449 15.6718 15.4768 15.5592 15.5548 15.4569C15.581 15.4227 15.6024 15.39 15.6024 15.3844C15.6024 15.3148 15.6925 15.1539 15.7528 15.1158C15.806 15.0823 15.8287 15.0509 15.8459 14.9872C15.8777 14.8698 16.6633 14.0775 16.8355 13.9891C16.8746 13.9691 16.9065 13.9449 16.9065 13.9354C16.9065 13.8978 17.0066 13.8023 17.0579 13.7911C17.092 13.7835 17.1294 13.7526 17.1581 13.7081C17.1832 13.6691 17.2367 13.6211 17.2768 13.6015C17.317 13.5819 17.3709 13.5325 17.3966 13.4918C17.4223 13.451 17.4715 13.4036 17.5058 13.3863C17.5664 13.3558 17.6054 13.3214 17.8271 13.103C17.8851 13.0459 17.9758 12.972 18.0285 12.9388C18.0812 12.9057 18.1676 12.836 18.2203 12.784C18.273 12.7319 18.368 12.6383 18.4313 12.576C18.4946 12.5136 18.5653 12.4567 18.5885 12.4495C18.6117 12.4424 18.6359 12.4202 18.6422 12.4003C18.6565 12.3553 18.778 12.2467 18.8141 12.2467C18.8287 12.2467 18.8608 12.2103 18.8853 12.1659C18.9099 12.1215 18.9596 12.0651 18.996 12.0406C19.0324 12.0162 19.0798 11.9648 19.1015 11.9265C19.1231 11.8882 19.1735 11.84 19.2135 11.8194C19.2598 11.7955 19.296 11.7582 19.3135 11.7163C19.3286 11.6802 19.3823 11.6086 19.4327 11.5572C19.5396 11.4485 19.7186 11.2342 19.7738 11.1488C19.7949 11.1162 19.8448 11.0551 19.8848 11.013C19.9248 10.9709 19.9755 10.8948 19.9974 10.8437C20.0223 10.786 20.0604 10.7367 20.0985 10.7132C20.1496 10.6816 20.1689 10.6472 20.2146 10.5069C20.2499 10.3984 20.2886 10.3192 20.3235 10.2843C20.374 10.2339 20.3962 10.1755 20.4727 9.89213C20.4848 9.84716 20.5212 9.78013 20.5537 9.74321C20.691 9.58681 20.7445 8.62067 20.67 7.64374C20.633 7.15779 20.6306 7.14701 20.5263 6.9977C20.4904 6.94635 20.4601 6.86023 20.4326 6.73135C20.3974 6.5666 20.3823 6.53045 20.3208 6.46309C20.2671 6.40435 20.2415 6.35233 20.2168 6.25159C20.1795 6.09917 20.1752 6.09106 20.1084 6.04863C20.0782 6.02945 20.0384 5.96712 20.0048 5.88609C19.9719 5.80669 19.917 5.71995 19.8663 5.66707C19.8201 5.61893 19.7739 5.54936 19.7637 5.51244C19.7502 5.46367 19.727 5.43668 19.6786 5.41362C19.6325 5.39161 19.5971 5.35234 19.5634 5.28593C19.5367 5.23319 19.4926 5.17839 19.4654 5.16415C19.4383 5.14995 19.3972 5.1046 19.3741 5.06346C19.351 5.02227 19.3036 4.96938 19.2687 4.94584C19.2338 4.92235 19.181 4.86965 19.1513 4.82866C19.1217 4.78771 19.07 4.74288 19.0364 4.72898C19.0028 4.71507 18.9546 4.67307 18.9291 4.63562C18.9037 4.59818 18.846 4.54985 18.8009 4.52817C18.7486 4.50305 18.7073 4.46555 18.6868 4.42451C18.6651 4.38098 18.6249 4.34602 18.5622 4.31625C18.5113 4.29203 18.4465 4.24687 18.4183 4.21589C18.39 4.18492 18.3093 4.13007 18.2389 4.09401C18.1684 4.058 18.0939 4.00488 18.0733 3.97596C18.0475 3.93991 18.0016 3.91358 17.9267 3.89206C17.7831 3.85077 17.7213 3.81803 17.6623 3.75181C17.6338 3.71973 17.5765 3.68708 17.5238 3.67284C17.4106 3.64216 17.3113 3.59315 17.2387 3.53207C17.1983 3.49807 17.1331 3.47535 17.0108 3.45252C16.8175 3.41647 16.7425 3.38928 16.6524 3.32273C16.5669 3.25949 16.5552 3.25632 16.2403 3.21212C15.9668 3.17371 15.8222 3.13785 15.7459 3.08947C15.5681 2.97674 13.8211 2.90118 12.9077 2.96672ZM13.3776 20.6681C13.226 20.6819 13.1644 20.6957 13.1283 20.7242C13.0452 20.7896 12.9398 20.839 12.8293 20.8641C12.744 20.8834 12.6994 20.9094 12.6074 20.993C12.4297 21.1547 12.2077 21.3788 12.2077 21.3965C12.2077 21.4052 12.1689 21.4507 12.1214 21.4975C12.0724 21.5458 12.0351 21.6004 12.0351 21.6237C12.0351 21.6876 11.9605 21.896 11.9111 21.9704C11.7993 22.1384 11.7899 22.8762 11.8981 22.9947C11.9509 23.0526 11.9882 23.1349 12.016 23.2554C12.0475 23.392 12.0935 23.4812 12.1694 23.5527C12.203 23.5843 12.2514 23.6512 12.2769 23.7013C12.3025 23.7514 12.334 23.7924 12.3471 23.7925C12.3838 23.7926 12.4721 23.8728 12.503 23.9339C12.5241 23.9758 12.5647 24.0025 12.6713 24.0447C12.7516 24.0765 12.8345 24.125 12.8648 24.1579C13.0558 24.3655 14.3583 24.3557 14.5342 24.1453C14.5669 24.1062 14.6176 24.073 14.6639 24.0606C14.7992 24.0241 15.155 23.6784 15.2287 23.5117C15.253 23.4569 15.2948 23.3976 15.3216 23.38C15.4474 23.2976 15.5452 22.6143 15.4875 22.2214C15.417 21.7407 15.3935 21.6572 15.3091 21.5868C15.2775 21.5604 15.2277 21.4857 15.1985 21.4208C15.1647 21.3458 15.1305 21.298 15.1046 21.2898C15.0822 21.2827 15.0432 21.244 15.0178 21.2038C14.9924 21.1636 14.9388 21.1147 14.8987 21.0951C14.8585 21.0755 14.8046 21.0268 14.7789 20.9869C14.7514 20.9443 14.712 20.9102 14.683 20.904C14.5098 20.8669 14.372 20.8138 14.3235 20.7654C14.2306 20.6726 13.8073 20.629 13.3776 20.6681Z" fill="#D0021B"/>
<path fillRule="evenodd" clipRule="evenodd" d="M4.5752 13.6365V27.1481H14.1647H23.7541V13.6365V0.125H14.1647H4.5752V13.6365ZM14.6729 2.73434C14.8967 2.75294 15.0084 2.77581 15.1761 2.83738C15.2208 2.85382 15.4409 2.88461 15.6652 2.90585C16.1365 2.95053 16.2218 2.96732 16.3069 3.03224C16.3417 3.0587 16.4158 3.08781 16.4751 3.09826C16.5334 3.10852 16.6301 3.12554 16.6898 3.13604C16.7966 3.15489 16.9648 3.23664 16.9648 3.26967C16.9648 3.29168 17.0648 3.3227 17.1853 3.338C17.3399 3.35761 17.3967 3.3822 17.4663 3.45964C17.5146 3.51353 17.5525 3.53592 17.611 3.54527C17.7375 3.56551 17.8639 3.62798 17.8888 3.68255C17.9066 3.72158 17.9404 3.74008 18.0543 3.77321C18.1688 3.80644 18.2146 3.83161 18.2826 3.89869C18.3294 3.94482 18.4047 3.99842 18.45 4.01784C18.4953 4.03721 18.5512 4.0796 18.5742 4.11196C18.5972 4.14433 18.653 4.18714 18.698 4.20704C18.7554 4.23245 18.7897 4.26376 18.8124 4.31161C18.8347 4.35865 18.8647 4.38646 18.9089 4.40104C18.9441 4.41269 18.9936 4.44467 19.0189 4.47219C19.0442 4.49966 19.1263 4.57101 19.2015 4.63066C19.2767 4.69035 19.3722 4.77766 19.4139 4.82465C19.4555 4.87169 19.5259 4.94855 19.5703 4.99544C19.6146 5.04238 19.6649 5.12005 19.682 5.1681C19.7043 5.23096 19.7297 5.26346 19.7725 5.28418C19.8096 5.30206 19.8501 5.34766 19.88 5.4051C19.9063 5.45583 19.9547 5.51413 19.9874 5.53465C20.0282 5.56021 20.0634 5.61075 20.0992 5.69504C20.128 5.76269 20.1832 5.85139 20.2219 5.8921C20.2646 5.93703 20.3055 6.00785 20.3257 6.07219C20.3441 6.13054 20.3851 6.2074 20.417 6.24308C20.4488 6.27875 20.4877 6.35374 20.5035 6.40974C20.5192 6.46574 20.5459 6.56121 20.5627 6.62186C20.5797 6.68266 20.6174 6.75793 20.6467 6.78968C20.7129 6.86097 20.736 6.93376 20.7625 7.15407C20.7879 7.36418 20.7956 7.39659 20.8492 7.51847C20.995 7.84984 20.9836 8.90741 20.8293 9.36262C20.8037 9.43809 20.7697 9.58721 20.7537 9.69389C20.7226 9.90241 20.7069 9.94533 20.6334 10.0243C20.6043 10.0555 20.5675 10.1405 20.5384 10.2438C20.5037 10.3673 20.4707 10.4378 20.4156 10.5071C20.3742 10.5591 20.3403 10.6098 20.3403 10.6196C20.3403 10.6824 20.2523 10.8297 20.1944 10.8639C20.1586 10.885 20.1292 10.9133 20.1291 10.9269C20.1287 10.9806 20.0335 11.1478 19.9581 11.2272C19.9143 11.2734 19.8667 11.3338 19.8524 11.3615C19.8381 11.3892 19.7909 11.4403 19.7475 11.4752C19.7042 11.51 19.6563 11.5681 19.6412 11.6042C19.6261 11.6403 19.5852 11.687 19.5503 11.708C19.5154 11.729 19.4695 11.7785 19.4484 11.8181C19.4262 11.8598 19.3777 11.9081 19.3334 11.9328C19.2884 11.9578 19.2408 12.0055 19.2182 12.0483C19.1954 12.0914 19.1499 12.1369 19.1067 12.1597C19.0572 12.1857 19.0225 12.2234 18.9989 12.2763C18.9755 12.3291 18.9446 12.3626 18.9039 12.3795C18.8707 12.3932 18.8197 12.4401 18.7905 12.4835C18.7614 12.527 18.7043 12.5799 18.6636 12.6011C18.6229 12.6223 18.5832 12.6568 18.5754 12.6778C18.5578 12.725 18.5073 12.7697 18.432 12.8048C18.3988 12.8202 18.3603 12.8616 18.341 12.9028C18.3191 12.9491 18.2809 12.9876 18.2316 13.0127C18.19 13.0339 18.1182 13.0881 18.0721 13.133C17.8584 13.3412 17.7234 13.4579 17.6573 13.4917C17.6177 13.5118 17.554 13.5666 17.5157 13.6133C17.4775 13.66 17.4201 13.709 17.3883 13.7222C17.3566 13.7353 17.3131 13.7756 17.2918 13.8117C17.2668 13.8542 17.2225 13.8905 17.1662 13.9146C17.115 13.9366 17.0725 13.9698 17.0626 13.9956C17.0415 14.0506 16.9895 14.098 16.9216 14.1238C16.8926 14.1348 16.852 14.1721 16.8313 14.2066C16.8107 14.2412 16.7567 14.2916 16.7115 14.3186C16.6662 14.3457 16.6092 14.3972 16.585 14.4332C16.5607 14.4692 16.512 14.5152 16.4768 14.5353C16.4416 14.5554 16.3935 14.6062 16.3699 14.6481C16.3464 14.69 16.2976 14.7417 16.2615 14.7629C16.2255 14.7842 16.1795 14.834 16.1593 14.8736C16.1391 14.9131 16.0925 14.9633 16.0558 14.9849C16.0075 15.0134 15.9823 15.0465 15.965 15.1044C15.9493 15.157 15.9157 15.2048 15.8674 15.2437C15.7929 15.3035 15.7418 15.4271 15.709 15.6268C15.7024 15.6666 15.6678 15.7554 15.6319 15.8242C15.5428 15.9952 15.5284 16.1464 15.5102 17.1079C15.4943 17.9465 15.4879 17.9976 15.3834 18.1141C15.3689 18.1303 15.343 18.1997 15.3258 18.2683C15.2816 18.4454 15.2602 18.4925 15.2084 18.5264C15.1833 18.5429 15.1483 18.5843 15.1307 18.6185C15.0789 18.7185 14.9899 18.8194 14.8766 18.9063C14.8185 18.951 14.7402 19.0157 14.7027 19.0502C14.6647 19.0852 14.5898 19.1262 14.5334 19.1428C14.4778 19.1592 14.4047 19.1978 14.3711 19.2285C14.1749 19.4077 13.175 19.4128 13.0354 19.2353C13.0124 19.2061 12.95 19.1738 12.8673 19.1484C12.7663 19.1173 12.7184 19.0895 12.6606 19.0285C12.6192 18.9848 12.5465 18.9275 12.4989 18.9012C12.4463 18.872 12.3966 18.8246 12.3718 18.7799C12.3495 18.7396 12.3045 18.6897 12.2719 18.6691C12.2126 18.6316 12.1427 18.5007 12.1192 18.3831C12.1127 18.3504 12.084 18.3081 12.054 18.2867C11.9319 18.1998 11.9015 17.9263 11.9015 16.9151C11.9015 15.7234 11.9392 15.2261 12.0449 15.0217C12.0994 14.9163 12.1195 14.8438 12.1508 14.6394C12.1893 14.3879 12.212 14.3272 12.2978 14.2464C12.3225 14.2232 12.3427 14.1874 12.3427 14.1669C12.3427 14.0739 12.4217 13.8777 12.4784 13.83C12.5164 13.7981 12.551 13.7389 12.5773 13.6609C12.6054 13.5777 12.6455 13.5115 12.708 13.4449C12.7576 13.3921 12.8166 13.3123 12.8392 13.2676C12.8617 13.223 12.9023 13.1719 12.9292 13.1542C12.9562 13.1366 12.9954 13.0858 13.0162 13.0414C13.0435 12.9833 13.0749 12.9513 13.1281 12.9273C13.1861 12.9012 13.2092 12.8754 13.2349 12.8081C13.2547 12.7563 13.2895 12.709 13.3227 12.6888C13.353 12.6704 13.4033 12.6201 13.4345 12.577C13.4686 12.53 13.5189 12.4886 13.5604 12.4736C13.6132 12.4546 13.6381 12.4292 13.6658 12.3668C13.6903 12.3114 13.7227 12.275 13.7662 12.2543C13.8023 12.2371 13.8469 12.1929 13.8681 12.1534C13.8928 12.1073 13.9336 12.0701 13.9866 12.0455C14.0374 12.0219 14.0758 11.9878 14.0899 11.9537C14.1163 11.8899 14.1939 11.8241 14.2427 11.8241C14.262 11.8241 14.3011 11.7882 14.3314 11.7426C14.3613 11.6978 14.4181 11.6452 14.4578 11.6258C14.4975 11.6063 14.5429 11.5654 14.5586 11.5349C14.5745 11.5043 14.6238 11.4607 14.6683 11.438C14.7128 11.4153 14.7838 11.3594 14.8261 11.3138C14.8684 11.2681 14.9526 11.206 15.0132 11.1757C15.0799 11.1423 15.1404 11.0948 15.1667 11.0552C15.1905 11.0192 15.2462 10.9726 15.2904 10.9515C15.3378 10.9289 15.3799 10.8919 15.393 10.8613C15.4178 10.8035 15.4774 10.7583 15.5546 10.739C15.5878 10.7306 15.6174 10.7023 15.638 10.6589C15.66 10.6128 15.697 10.579 15.7564 10.5509C15.8183 10.5215 15.8524 10.4894 15.8768 10.4376C15.8962 10.3964 15.9333 10.3559 15.9631 10.3432C15.9919 10.3311 16.0604 10.2774 16.1154 10.224C16.2797 10.0644 16.3514 9.99395 16.3758 9.96786C16.3886 9.95429 16.4274 9.92092 16.4621 9.89369C16.4967 9.86641 16.5372 9.81496 16.5521 9.77933C16.567 9.74371 16.6003 9.70497 16.626 9.69322C16.6738 9.67145 16.693 9.64163 16.7357 9.52267C16.749 9.48575 16.7876 9.42534 16.8217 9.38842C16.9127 9.28969 16.927 9.25172 16.9582 9.02685C16.9738 8.91456 17.0044 8.75791 17.0262 8.6788C17.1126 8.36489 17.1127 8.33521 17.0298 7.99339C16.9922 7.83847 16.9585 7.63873 16.9268 7.3812C16.9266 7.37952 16.8881 7.33877 16.8413 7.29063C16.7883 7.23606 16.7408 7.16127 16.7153 7.09227C16.6863 7.01397 16.6565 6.9702 16.6139 6.94311C16.5808 6.92201 16.5357 6.87267 16.5136 6.83345C16.4917 6.79423 16.4439 6.74216 16.4076 6.71771C16.3712 6.6933 16.3241 6.63994 16.3028 6.59913C16.2815 6.55833 16.2513 6.51892 16.2357 6.51148C16.22 6.5041 16.177 6.48358 16.1401 6.46598C16.1032 6.44834 16.0582 6.40821 16.0403 6.37685C16.0223 6.34544 15.9964 6.31979 15.9828 6.31979C15.9304 6.31974 15.7254 6.2074 15.6769 6.15212C15.6354 6.10494 15.6018 6.09012 15.4947 6.072C15.315 6.0416 15.1923 5.9995 15.1513 5.95415C14.9788 5.76365 13.0362 5.7637 12.7558 5.95415C12.657 6.02127 12.5829 6.0462 12.4336 6.06246C12.2962 6.07742 12.2528 6.09602 12.2007 6.16214C12.1637 6.20927 11.9562 6.31907 11.9015 6.32051C11.8857 6.32094 11.8555 6.34899 11.8344 6.38284C11.8126 6.41784 11.7572 6.46301 11.7062 6.48742C11.6539 6.5124 11.6017 6.55536 11.5815 6.58993C11.5624 6.62267 11.5144 6.66611 11.4748 6.6864C11.4353 6.70673 11.381 6.75803 11.3542 6.80037C11.3275 6.84275 11.2853 6.88667 11.2605 6.89799C11.2357 6.9093 11.1907 6.96684 11.1605 7.02582C11.1274 7.0905 11.0833 7.1452 11.0494 7.16362C11.0102 7.18486 10.9851 7.22 10.9666 7.27955C10.9168 7.4395 10.8794 7.50865 10.8167 7.55645C10.7692 7.5927 10.7491 7.6276 10.7334 7.70101C10.7085 7.81671 10.6462 7.94482 10.5886 7.99857C10.5563 8.02873 10.539 8.08502 10.5126 8.24641C10.4729 8.48792 10.4394 8.59355 10.3838 8.65281C10.3416 8.69774 10.2906 8.91691 10.2905 9.05356C10.2905 9.16925 10.2395 9.34292 10.1792 9.43315C10.1497 9.47712 10.11 9.56429 10.091 9.62681C10.0665 9.70684 10.0363 9.75805 9.98931 9.79942C9.95253 9.83184 9.90607 9.89019 9.88608 9.92917C9.83947 10.02 9.68595 10.1733 9.59216 10.2227C9.55213 10.2438 9.48778 10.2924 9.44923 10.3306C9.39069 10.3887 9.35372 10.4057 9.22589 10.4332C9.12913 10.454 9.04355 10.4864 8.99373 10.5211C8.79389 10.6605 8.12258 10.6541 7.91233 10.5108C7.87541 10.4857 7.78949 10.4508 7.7214 10.4334C7.57056 10.3949 7.51446 10.3668 7.45203 10.2987C7.42566 10.2698 7.35892 10.217 7.30368 10.1813C7.24845 10.1456 7.19043 10.0916 7.17471 10.0612C7.15903 10.0308 7.11228 9.97697 7.07085 9.94154C6.99255 9.87451 6.89584 9.71566 6.89584 9.65409C6.89584 9.63458 6.86185 9.58356 6.82023 9.5407C6.69706 9.41374 6.66977 9.12178 6.70209 8.27604C6.72208 7.75337 6.74563 7.60665 6.82675 7.50006C6.85677 7.4606 6.88156 7.38293 6.90361 7.25956C6.94916 7.00419 6.9879 6.87598 7.04031 6.80674C7.06515 6.77395 7.107 6.67038 7.13333 6.5766C7.17125 6.44153 7.1935 6.39574 7.24063 6.35614C7.2847 6.31912 7.31347 6.26465 7.35206 6.14526C7.39454 6.01379 7.41516 5.97726 7.4644 5.94585C7.50382 5.92077 7.53287 5.88079 7.54807 5.83073C7.58614 5.70539 7.63922 5.61607 7.70222 5.57119C7.73483 5.54798 7.78268 5.48426 7.80857 5.42965C7.83681 5.36991 7.87886 5.31654 7.91396 5.29578C7.94608 5.27684 7.98204 5.23839 7.99389 5.21039C8.02222 5.14355 8.1044 5.05398 8.13744 5.05398C8.15182 5.05398 8.1758 5.02483 8.19071 4.98916C8.21905 4.92126 8.31978 4.82384 8.36159 4.82384C8.37502 4.82384 8.40177 4.78879 8.4211 4.74592C8.44483 4.69327 8.48314 4.65218 8.53909 4.61944C8.58469 4.59273 8.62195 4.56022 8.62195 4.54728C8.62195 4.51309 8.69818 4.44668 8.77394 4.4148C8.81489 4.39763 8.85075 4.36311 8.86969 4.32269C8.88973 4.28002 8.93111 4.24176 8.99138 4.21011C9.04163 4.18374 9.09619 4.1426 9.11259 4.11867C9.12904 4.09475 9.18413 4.05404 9.2351 4.0282C9.28607 4.0024 9.3681 3.9463 9.41744 3.90363C9.52034 3.81459 9.5831 3.77935 9.67348 3.75988C9.70863 3.75231 9.76041 3.72018 9.78855 3.68844C9.84671 3.623 9.93465 3.57395 10.0604 3.53679C10.1078 3.52279 10.1625 3.49143 10.1819 3.46717C10.2342 3.40167 10.309 3.36964 10.4661 3.34543C10.6234 3.32122 10.6564 3.30755 10.7458 3.22997C10.8157 3.16922 10.8825 3.14837 11.1114 3.11571C11.2446 3.09673 11.2828 3.08287 11.3448 3.03104C11.4335 2.95696 11.53 2.93562 11.9111 2.90575C12.258 2.87857 12.3858 2.858 12.5153 2.80847C12.7737 2.7097 13.908 2.67071 14.6729 2.73434ZM14.0055 20.5214C14.4322 20.5808 14.4935 20.5975 14.5822 20.6788C14.6229 20.7161 14.6907 20.7535 14.74 20.7658C14.7998 20.7808 14.8534 20.8144 14.9145 20.8752C14.963 20.9234 15.0437 20.9878 15.0937 21.0183C15.2029 21.0848 15.2899 21.1988 15.3187 21.3133C15.3351 21.3787 15.3561 21.4075 15.4133 21.4436C15.4787 21.4849 15.492 21.5075 15.5356 21.6505C15.5626 21.7388 15.6013 21.8262 15.6218 21.8447C15.7746 21.983 15.7695 22.976 15.6151 23.1595C15.588 23.1916 15.5478 23.2786 15.5257 23.3527C15.5005 23.4376 15.4625 23.5136 15.423 23.5581C15.3885 23.597 15.3321 23.6789 15.2975 23.7401C15.2592 23.808 15.2066 23.869 15.1628 23.8967C15.1232 23.9217 15.0728 23.9727 15.0508 24.01C15.0224 24.0581 14.9727 24.0971 14.8802 24.1437C14.8084 24.1799 14.7324 24.2286 14.7113 24.2519C14.6589 24.31 14.6018 24.3367 14.4306 24.3834C14.3501 24.4054 14.2551 24.4404 14.2197 24.4613C14.0174 24.5803 13.2536 24.5699 13.1222 24.4465C13.0972 24.423 13.0197 24.393 12.9363 24.3745C12.7639 24.3362 12.6984 24.3051 12.657 24.2419C12.6397 24.2156 12.5747 24.1708 12.5123 24.1421C12.4352 24.1067 12.3871 24.07 12.3618 24.0273C12.3415 23.9927 12.2948 23.9501 12.258 23.9326C12.2165 23.9128 12.1754 23.8708 12.149 23.8211C12.1258 23.7773 12.0794 23.7235 12.0458 23.7015C12.001 23.6721 11.9732 23.6291 11.9412 23.5396C11.9172 23.4727 11.8682 23.3745 11.8324 23.3217C11.6448 23.0451 11.6422 21.8618 11.8287 21.6753C11.8605 21.6435 11.8993 21.5744 11.915 21.5218C11.9609 21.3672 11.9966 21.3234 12.398 20.9304C12.4945 20.836 12.6497 20.7423 12.7097 20.7423C12.7292 20.7423 12.7677 20.717 12.7953 20.686C12.8662 20.6064 12.9504 20.5788 13.2345 20.5421C13.3716 20.5243 13.5097 20.5026 13.5413 20.4938C13.628 20.4696 13.6383 20.4702 14.0055 20.5214Z" fill="#FCFCFC"/>
<path fillRule="evenodd" clipRule="evenodd" d="M13.1007 2.81093C13.0269 2.82004 12.8974 2.84065 12.813 2.85676C12.651 2.88764 12.5565 2.90054 12.0188 2.96498C11.7533 2.99682 11.6474 3.01863 11.501 3.07152C11.3998 3.1081 11.2363 3.15495 11.1377 3.17561C11.014 3.20155 10.925 3.23363 10.85 3.27937C10.7826 3.32056 10.6697 3.36362 10.5511 3.39334C10.4464 3.41962 10.3385 3.45917 10.3114 3.48128C10.2843 3.50338 10.1974 3.5521 10.1183 3.5895C10.0392 3.62694 9.9471 3.67829 9.91369 3.70366C9.88031 3.72907 9.78969 3.7787 9.71231 3.81403C9.63497 3.84932 9.55873 3.89391 9.54291 3.91314C9.5163 3.94546 9.32902 4.07606 9.09638 4.22456C9.04306 4.25865 8.95814 4.32769 8.9077 4.37799C8.85726 4.42833 8.75873 4.5213 8.68873 4.58459C8.61872 4.64788 8.54278 4.72052 8.51995 4.74608C8.49713 4.77159 8.4267 4.84591 8.3634 4.91121C8.30011 4.97651 8.20518 5.07869 8.15244 5.13829C8.09969 5.19784 8.0154 5.29028 7.96511 5.3437C7.91486 5.39711 7.86216 5.46841 7.84812 5.50211C7.83402 5.53582 7.78526 5.6064 7.73975 5.65895C7.69425 5.7115 7.64002 5.79334 7.61921 5.84081C7.59845 5.88828 7.54873 5.96293 7.50874 6.00671C7.45869 6.06147 7.42364 6.12725 7.39645 6.21768C7.37329 6.29454 7.32894 6.38401 7.28958 6.43325C7.2341 6.50268 7.14554 6.72228 7.14554 6.79046C7.14554 6.79894 7.11169 6.87997 7.07036 6.97059C7.02342 7.07349 6.9795 7.21398 6.95347 7.34473C6.9305 7.45985 6.88725 7.6152 6.85733 7.68995C6.70644 8.06701 6.70639 9.2269 6.85728 9.43839C6.88797 9.48145 6.92786 9.55481 6.94589 9.60142C7.06883 9.91907 7.51493 10.3075 7.86691 10.4036C7.98174 10.4349 8.11024 10.4751 8.15244 10.493C8.31747 10.5629 8.69779 10.5478 8.88124 10.4641C8.92343 10.4449 9.027 10.414 9.11138 10.3956C9.28534 10.3575 9.34431 10.3319 9.39911 10.2706C9.42016 10.2471 9.47171 10.206 9.51356 10.1795C9.61938 10.1122 9.78495 9.95234 9.8339 9.87006C9.85644 9.83223 9.90822 9.76626 9.94897 9.72349C10.0047 9.66495 10.0307 9.61508 10.0541 9.52211C10.0711 9.45412 10.1107 9.3472 10.1422 9.28448C10.1832 9.20264 10.2124 9.09442 10.2456 8.90091C10.2777 8.71406 10.3099 8.59308 10.3503 8.50668C10.3825 8.43812 10.4299 8.29269 10.4558 8.18357C10.5041 7.97969 10.5335 7.90672 10.6078 7.80665C10.6313 7.77501 10.6646 7.70596 10.6818 7.65322C10.6991 7.60048 10.7434 7.51926 10.7804 7.47275C10.8174 7.42619 10.8627 7.34444 10.8809 7.29108C10.9023 7.22865 10.9456 7.16296 11.0021 7.10715C11.0505 7.05939 11.1131 6.97994 11.1412 6.93061C11.1944 6.83716 11.5674 6.47985 11.6644 6.42941C11.6948 6.41359 11.7413 6.37739 11.7677 6.34896C11.794 6.32048 11.8717 6.26879 11.9403 6.23403C12.0088 6.19927 12.0979 6.14451 12.1382 6.11234C12.2169 6.04948 12.2722 6.02805 12.4425 5.99439C12.5025 5.98254 12.5888 5.9475 12.6343 5.91647C12.8705 5.75547 13.8038 5.67328 14.4911 5.75293C15.064 5.81933 15.1326 5.83309 15.2677 5.90842C15.3311 5.94371 15.4445 5.98959 15.5198 6.0104C15.6769 6.05375 15.714 6.0712 15.8351 6.15913C15.8834 6.19418 15.9478 6.2323 15.9782 6.24386C16.0382 6.26668 16.1709 6.37586 16.3041 6.51207C16.3505 6.55954 16.4077 6.61564 16.4312 6.63674C16.4546 6.65784 16.5002 6.70473 16.5325 6.74093C16.5647 6.77713 16.6182 6.83323 16.6512 6.86559C16.6842 6.89795 16.7339 6.9694 16.7614 7.02439C16.789 7.07939 16.8364 7.15275 16.8666 7.18741C16.9425 7.27463 16.976 7.34636 17.0035 7.48061C17.0165 7.5439 17.0521 7.67091 17.0829 7.76288C17.2075 8.13629 17.2069 8.50208 17.0808 8.89985C17.0507 8.99479 17.0074 9.1415 16.9846 9.22589C16.9609 9.31344 16.921 9.40685 16.8917 9.44343C16.8636 9.47872 16.8103 9.55826 16.7734 9.62021C16.6866 9.76587 16.4772 9.99487 16.2308 10.2136C15.9918 10.4258 15.8298 10.5745 15.6929 10.7075C15.6359 10.7628 15.5804 10.8082 15.5696 10.8082C15.5508 10.8082 15.4197 10.9249 15.239 11.1025C15.1916 11.1491 15.1229 11.2024 15.0864 11.2209C15.0498 11.2393 14.9592 11.3054 14.885 11.3677C14.8107 11.43 14.6951 11.5259 14.6281 11.5809C14.3143 11.8381 14.1339 12.0012 13.8747 12.2621C13.6563 12.4818 13.6235 12.514 13.4634 12.665C13.3887 12.7355 13.3046 12.8296 13.2765 12.8742C13.2485 12.9186 13.2008 12.9679 13.1706 12.9835C13.1403 12.9991 13.0799 13.0663 13.0363 13.1327C12.9461 13.2702 12.78 13.4968 12.7044 13.5855C12.6763 13.6185 12.6396 13.6867 12.6227 13.7372C12.6058 13.7875 12.5617 13.867 12.5246 13.9136C12.4845 13.9641 12.4407 14.0532 12.4165 14.1342C12.3941 14.2088 12.3468 14.326 12.3114 14.3946C12.2655 14.4836 12.2305 14.5999 12.1893 14.8006C12.1575 14.9554 12.111 15.1366 12.0859 15.2034C11.9858 15.4702 11.9507 16.0208 11.9655 17.0892C11.9772 17.9322 11.9911 18.0622 12.0821 18.1815C12.1109 18.2193 12.1602 18.3126 12.1917 18.389C12.2232 18.4655 12.2812 18.562 12.3211 18.6044C12.3608 18.6466 12.417 18.7135 12.4459 18.753C12.4748 18.7926 12.5228 18.8376 12.5525 18.8529C12.5822 18.8683 12.6515 18.9193 12.7065 18.9662C12.7636 19.015 12.8573 19.07 12.9248 19.0945C12.9898 19.118 13.0819 19.1612 13.1294 19.1905C13.2711 19.2778 13.3592 19.2932 13.7177 19.2935L14.0472 19.2938L14.2068 19.2132C14.2946 19.1689 14.4122 19.1158 14.4683 19.0952C14.5243 19.0747 14.6088 19.0249 14.6561 18.9846C14.8483 18.8205 15.0333 18.6398 15.0584 18.5915C15.0731 18.5633 15.1194 18.5005 15.1614 18.452C15.2052 18.4014 15.2462 18.3291 15.2574 18.2827C15.2883 18.1548 15.3475 17.9602 15.384 17.866C15.4118 17.7946 15.4202 17.6804 15.4329 17.2043C15.4574 16.285 15.4992 15.8447 15.5761 15.696C15.5909 15.6674 15.6332 15.5597 15.6699 15.4567C15.7198 15.3172 15.756 15.2498 15.812 15.1917C15.8533 15.1489 15.9047 15.0785 15.9263 15.0353C15.9647 14.9585 16.5276 14.3789 16.7721 14.1645C16.8382 14.1064 16.9281 14.0235 16.9719 13.9801C17.0156 13.9366 17.08 13.8838 17.1149 13.8626C17.1498 13.8414 17.2102 13.7929 17.2491 13.7548C17.4739 13.5348 17.561 13.4548 17.576 13.4548C17.5852 13.4548 17.6953 13.3632 17.8207 13.2512C17.9462 13.1393 18.0848 13.0242 18.1288 12.9957C18.1728 12.9671 18.2547 12.8968 18.311 12.8395C18.3672 12.7822 18.5116 12.6447 18.632 12.5341C18.7524 12.4234 18.8776 12.3041 18.9101 12.2688C18.9427 12.2336 19.0643 12.1068 19.1803 11.987C19.4148 11.7449 19.5322 11.6154 19.6544 11.4638C19.6995 11.4077 19.7946 11.2912 19.8656 11.2049C19.9366 11.1186 20.0174 11.0047 20.0451 10.952C20.0729 10.8993 20.127 10.8252 20.1654 10.7873C20.2075 10.7458 20.2535 10.6698 20.2815 10.5956C20.307 10.5279 20.3567 10.4305 20.3919 10.3792C20.4271 10.3278 20.4773 10.2156 20.5035 10.1298C20.5297 10.0441 20.5731 9.94141 20.6001 9.90171C20.6569 9.81819 20.7096 9.6251 20.7427 9.37932C20.7555 9.28439 20.7868 9.09663 20.8122 8.96204C20.862 8.69881 20.8749 8.28622 20.8405 8.05598C20.81 7.851 20.7259 7.3116 20.7034 7.17605C20.6897 7.09353 20.6544 6.99294 20.6091 6.90754C20.5694 6.83246 20.5177 6.69979 20.4942 6.61276C20.4686 6.51802 20.43 6.42745 20.3979 6.38708C20.3684 6.34997 20.321 6.2558 20.2926 6.17783C20.2617 6.09302 20.2178 6.01419 20.1836 5.98159C20.152 5.95162 20.1007 5.87102 20.0695 5.80245C20.0383 5.73389 19.984 5.64759 19.9488 5.61067C19.9136 5.57375 19.8623 5.5072 19.8348 5.46275C19.8074 5.41835 19.7588 5.36268 19.7268 5.33904C19.6948 5.31541 19.6438 5.2525 19.6134 5.19923C19.5291 5.05136 19.0558 4.5855 18.8614 4.45897C18.8231 4.43404 18.7765 4.39098 18.7579 4.36336C18.7393 4.3357 18.693 4.29269 18.655 4.26781C18.6169 4.24292 18.5556 4.19531 18.5186 4.16203C18.4817 4.12871 18.417 4.08153 18.3748 4.05708C18.3326 4.03267 18.2538 3.97931 18.1998 3.93855C18.1457 3.89775 18.0505 3.84443 17.9882 3.82003C17.9259 3.79557 17.8346 3.74489 17.7854 3.7073C17.7362 3.66971 17.6501 3.62421 17.5942 3.60618C17.5383 3.5882 17.4624 3.54989 17.4254 3.52112C17.3295 3.44637 17.2881 3.42715 17.1728 3.40384C17.0113 3.37114 16.8904 3.32799 16.7947 3.26882C16.7395 3.23459 16.6378 3.19954 16.524 3.17547C16.4238 3.15423 16.2814 3.11937 16.2076 3.09794C15.8856 3.00454 15.7782 2.98325 15.4372 2.94528C15.2385 2.92312 14.9423 2.88275 14.7788 2.85552C14.4556 2.80172 13.402 2.77372 13.1007 2.81093ZM14.8363 2.89603C15.7632 3.00861 15.8551 3.0219 15.9666 3.05925C16.1035 3.10513 16.2558 3.14383 16.4936 3.19311C16.6244 3.22021 16.7121 3.2507 16.7746 3.29078C16.8309 3.32689 16.9405 3.3676 17.0632 3.39785C17.2694 3.44877 17.345 3.47907 17.3845 3.52668C17.3974 3.54222 17.4659 3.57895 17.5366 3.60829C17.6073 3.63763 17.7059 3.69076 17.7557 3.72634C17.8054 3.76191 17.8992 3.81183 17.9639 3.83719C18.0287 3.86256 18.1184 3.91343 18.1633 3.95025C18.2082 3.98703 18.2861 4.039 18.3362 4.06566C18.3864 4.09237 18.4651 4.14885 18.511 4.19119C18.5569 4.23352 18.6029 4.26814 18.6133 4.26814C18.6236 4.26814 18.6836 4.31777 18.7465 4.37842C18.8094 4.43907 18.9192 4.53617 18.9905 4.59418C19.1736 4.7432 19.5512 5.12798 19.5929 5.20791C19.612 5.24483 19.6634 5.30956 19.7071 5.35175C19.7507 5.39394 19.8078 5.465 19.834 5.50964C19.8601 5.55428 19.8989 5.60007 19.9201 5.61143C19.9414 5.6228 19.9927 5.70148 20.0341 5.7863C20.0756 5.87112 20.1399 5.9742 20.1771 6.01539C20.2143 6.05658 20.2447 6.09853 20.2447 6.10865C20.2447 6.15592 20.3285 6.34311 20.377 6.40405C20.4109 6.44677 20.45 6.54051 20.482 6.65601C20.5101 6.75713 20.5551 6.87321 20.582 6.91387C20.6536 7.02204 20.681 7.13208 20.7247 7.4879C20.7463 7.66319 20.778 7.88001 20.795 7.96967C20.841 8.21099 20.8371 8.65167 20.7867 8.91903C20.7648 9.03506 20.7409 9.19041 20.7335 9.26425C20.7082 9.51804 20.6524 9.74957 20.5908 9.85741C20.5581 9.91441 20.5069 10.0348 20.4768 10.1248C20.4467 10.2149 20.3956 10.3286 20.3632 10.3775C20.3308 10.4265 20.2815 10.5261 20.2537 10.5989C20.2227 10.68 20.1822 10.7479 20.1489 10.7745C20.1192 10.7983 20.0695 10.8612 20.0384 10.9144C19.9872 11.0021 19.8789 11.1455 19.6407 11.4411C19.5276 11.5813 19.443 11.6743 19.175 11.9528C19.0513 12.0813 18.9235 12.2151 18.891 12.2501C18.8584 12.2851 18.7333 12.4043 18.6129 12.5151C18.4925 12.6258 18.3422 12.7667 18.2789 12.8281C18.2156 12.8895 18.1152 12.9758 18.0558 13.0199C17.9208 13.12 17.6044 13.3943 17.475 13.5234C17.4214 13.5769 17.3473 13.639 17.3104 13.6613C17.2735 13.6837 17.2325 13.7197 17.2193 13.7412C17.206 13.7628 17.1629 13.8011 17.1234 13.8263C17.0838 13.8516 17.004 13.9165 16.946 13.9706C16.888 14.0247 16.794 14.1099 16.7372 14.1599C16.5052 14.364 15.943 14.9443 15.9067 15.0171C15.8854 15.0597 15.8348 15.1292 15.7943 15.1714C15.7442 15.2235 15.7022 15.2985 15.6628 15.4056C15.6309 15.4923 15.5886 15.5959 15.5686 15.6358C15.4819 15.8094 15.4368 16.2344 15.4121 17.1116C15.3955 17.697 15.3922 17.7357 15.3463 17.8692C15.3197 17.9465 15.2805 18.0831 15.2592 18.1726C15.2379 18.2622 15.2029 18.3571 15.1814 18.3836C15.1598 18.4101 15.1187 18.4648 15.0899 18.5051C14.9918 18.6428 14.8329 18.8153 14.7566 18.867C14.7146 18.8954 14.6476 18.9483 14.6075 18.9845C14.5674 19.0207 14.4881 19.0654 14.4313 19.084C14.3746 19.1026 14.2699 19.1476 14.1989 19.184C13.9381 19.3177 13.3427 19.3084 13.1449 19.1676C13.1161 19.1471 13.0456 19.1141 12.9882 19.0944C12.8504 19.0469 12.8216 19.0305 12.7163 18.9394C12.6673 18.897 12.5957 18.8461 12.5571 18.8263C12.5185 18.8064 12.4703 18.7614 12.45 18.7261C12.4297 18.6908 12.377 18.6213 12.3328 18.5717C12.2882 18.5217 12.2331 18.4296 12.2088 18.3648C12.1849 18.3006 12.1395 18.2127 12.1082 18.1695C11.926 17.918 11.9303 15.6984 12.1139 15.2201C12.136 15.1625 12.1783 14.993 12.2079 14.8434C12.2473 14.6439 12.2828 14.5254 12.3407 14.3996C12.3842 14.3053 12.4198 14.2159 12.4199 14.201C12.4202 14.1621 12.5064 13.9826 12.5597 13.91C12.5847 13.8759 12.6204 13.807 12.6388 13.7568C12.6573 13.7066 12.703 13.6289 12.7404 13.5842C12.7778 13.5394 12.8408 13.455 12.8805 13.3965C12.9202 13.3381 12.9672 13.2783 12.9849 13.2636C13.0026 13.2489 13.0346 13.2017 13.056 13.1589C13.0774 13.116 13.142 13.0334 13.1997 12.9754C13.2572 12.9174 13.3794 12.7948 13.471 12.703C13.6766 12.497 13.6936 12.4797 13.9016 12.2659C13.9941 12.1709 14.0781 12.0931 14.0884 12.0931C14.0986 12.0931 14.1285 12.0606 14.1549 12.0207C14.1812 11.9809 14.231 11.9321 14.2654 11.9122C14.2999 11.8924 14.3723 11.8365 14.4264 11.7881C14.4805 11.7396 14.5797 11.6549 14.6469 11.5998C14.7142 11.5447 14.824 11.4541 14.8911 11.3984C14.9582 11.3428 15.0541 11.2713 15.1042 11.2397C15.1543 11.208 15.2306 11.1476 15.2737 11.1054C15.4692 10.914 15.5365 10.8537 15.5919 10.8202C15.6473 10.7868 15.6891 10.7491 15.9259 10.5197C15.9753 10.4717 16.0503 10.4076 16.0925 10.3772C16.2526 10.2618 16.7233 9.76655 16.7868 9.64668C16.8206 9.58291 16.8669 9.51391 16.8895 9.49344C16.9506 9.4382 16.9804 9.36993 17.0241 9.18619C17.0457 9.09528 17.0903 8.95053 17.1233 8.86447C17.1831 8.70868 17.1833 8.70657 17.1835 8.33407C17.1838 7.93899 17.1865 7.95567 17.0722 7.62512C17.045 7.54639 17.0227 7.47121 17.0227 7.45803C17.0227 7.40188 16.9418 7.22606 16.8875 7.16416C16.8551 7.12724 16.8073 7.05594 16.7813 7.00569C16.7553 6.95544 16.708 6.8911 16.6761 6.86267C16.6442 6.83428 16.6005 6.7824 16.5788 6.7474C16.5572 6.7124 16.5144 6.67078 16.4837 6.65491C16.453 6.63904 16.4063 6.59186 16.38 6.55005C16.3535 6.50824 16.2972 6.45209 16.2547 6.42524C16.2123 6.39844 16.1433 6.34229 16.1014 6.30044C16.0596 6.25863 16.0141 6.22439 16.0004 6.22439C15.9866 6.22439 15.9197 6.18517 15.8517 6.13727C15.7757 6.08367 15.6764 6.035 15.5939 6.01083C15.52 5.98921 15.3819 5.93383 15.287 5.88771C15.1069 5.8003 14.9689 5.77508 14.1746 5.68436C13.8153 5.64332 12.8143 5.77412 12.6323 5.88588C12.5668 5.92616 12.4672 5.96447 12.3755 5.9847C12.2737 6.00719 12.197 6.03821 12.1358 6.08165C12.0863 6.11675 11.9897 6.17534 11.9211 6.21178C11.8525 6.24822 11.7749 6.3013 11.7485 6.32978C11.7221 6.35821 11.6757 6.39441 11.6453 6.41024C11.548 6.46077 11.1752 6.81798 11.1221 6.91143C11.0941 6.96077 11.0344 7.03997 10.9893 7.08744C10.9443 7.13491 10.8858 7.22318 10.8593 7.2836C10.8328 7.34401 10.7861 7.426 10.7555 7.4658C10.725 7.50559 10.6761 7.59602 10.647 7.66674C10.6179 7.73746 10.5815 7.80584 10.5661 7.81864C10.5255 7.85235 10.4857 7.95634 10.4423 8.14228C10.4214 8.23194 10.3821 8.35277 10.3552 8.41079C10.2886 8.55405 10.2785 8.59117 10.2228 8.89659C10.189 9.08243 10.1583 9.19233 10.1202 9.26363C10.0904 9.31958 10.0506 9.42799 10.0318 9.50447C10.0048 9.61484 9.98326 9.65785 9.92754 9.7128C9.8889 9.75092 9.8385 9.81306 9.81554 9.85089C9.76903 9.92755 9.60255 10.0911 9.51414 10.1471C9.48249 10.1671 9.41638 10.2189 9.36718 10.2623C9.29138 10.3291 9.25657 10.3449 9.13847 10.366C9.06185 10.3797 8.93892 10.412 8.86527 10.4377C8.60875 10.5273 8.3484 10.5326 8.13844 10.4525C8.09907 10.4375 7.97906 10.4034 7.87166 10.3769C7.73937 10.3442 7.65503 10.3116 7.60996 10.2759C7.57338 10.2469 7.48937 10.1844 7.42335 10.1369C7.27409 10.0296 7.00424 9.70258 6.96291 9.57888C6.94671 9.53041 6.91175 9.46136 6.88524 9.42545C6.72461 9.20791 6.72145 8.18208 6.87996 7.72457C6.91156 7.63332 6.95404 7.46776 6.97428 7.35667C6.99945 7.21858 7.03152 7.11511 7.07554 7.02991C7.11097 6.96134 7.14602 6.87935 7.15341 6.84771C7.19982 6.64988 7.24873 6.52617 7.309 6.45401C7.35009 6.40482 7.39156 6.32196 7.41702 6.2381C7.44565 6.14379 7.48036 6.07806 7.52994 6.02416C7.5693 5.98135 7.61591 5.91177 7.63346 5.86963C7.651 5.82744 7.69833 5.75388 7.73856 5.70618C7.77883 5.65842 7.83455 5.57442 7.86236 5.51947C7.89021 5.46452 7.935 5.40516 7.96189 5.38752C7.98874 5.36992 8.03535 5.32015 8.06541 5.2769C8.09543 5.2337 8.20714 5.10904 8.31364 4.99996C8.42013 4.89088 8.50729 4.79595 8.50739 4.78899C8.50744 4.78204 8.58626 4.70734 8.68254 4.62295C8.77882 4.53856 8.89313 4.43198 8.93657 4.38614C8.97996 4.34025 9.05586 4.28214 9.10525 4.25702C9.15458 4.23189 9.20095 4.20169 9.20819 4.18994C9.21548 4.17814 9.28299 4.12909 9.35822 4.08091C9.4334 4.03272 9.52598 3.96574 9.56396 3.93203C9.60188 3.89837 9.67524 3.85517 9.72698 3.83609C9.77867 3.81701 9.86286 3.77198 9.91407 3.73612C9.96528 3.70021 10.0688 3.64123 10.1442 3.60503C10.2196 3.56888 10.3095 3.51844 10.3441 3.49298C10.3811 3.46565 10.4789 3.43007 10.583 3.4061C10.6891 3.38169 10.8083 3.33806 10.8827 3.29654C10.9614 3.25247 11.0762 3.21148 11.1999 3.18324C11.3065 3.15893 11.4592 3.11745 11.5392 3.09104C11.7297 3.02827 11.9402 2.99049 12.3047 2.95371C12.4682 2.93717 12.7185 2.90586 12.8609 2.88409C13.475 2.79026 13.991 2.79338 14.8363 2.89603ZM13.247 20.601C13.0959 20.6264 12.9907 20.6638 12.88 20.7316C12.8537 20.7477 12.776 20.7868 12.7074 20.8185C12.4556 20.935 12.0503 21.3579 11.9604 21.5981C11.9391 21.6551 11.8998 21.7348 11.8731 21.7751C11.7135 22.0163 11.7063 22.8486 11.8611 23.169C11.9019 23.2534 11.9552 23.3742 11.9797 23.4375C12.0487 23.6164 12.4157 24.0192 12.5901 24.1076C12.6449 24.1354 12.727 24.1865 12.7724 24.2212C13.1307 24.4947 14.2823 24.4944 14.6098 24.2207C14.6529 24.1847 14.7336 24.133 14.7892 24.1058C14.9256 24.039 15.1817 23.7889 15.2695 23.6366C15.3084 23.5693 15.3615 23.4912 15.3875 23.4631C15.4338 23.4132 15.5862 23.0102 15.6257 22.8333C15.6555 22.6997 15.6492 22.248 15.6156 22.1141C15.5459 21.836 15.4343 21.5626 15.3618 21.4923C15.323 21.4546 15.2755 21.3872 15.2565 21.3427C15.213 21.2414 15.0912 21.108 14.9731 21.0322C14.9234 21.0003 14.864 20.9487 14.8409 20.9176C14.8151 20.8827 14.7581 20.8457 14.6918 20.8209C14.6327 20.7988 14.5224 20.7469 14.4466 20.7055C14.2161 20.5796 13.6626 20.5313 13.247 20.601ZM14.1998 20.6352C14.2663 20.6499 14.3644 20.6889 14.4176 20.722C14.4708 20.7551 14.5674 20.7999 14.6322 20.8215C14.721 20.8512 14.7723 20.8841 14.8407 20.9553C14.8905 21.0072 14.9407 21.0497 14.9521 21.0497C14.9938 21.0497 15.187 21.2537 15.2335 21.3469C15.2599 21.3997 15.3101 21.4731 15.3453 21.51C15.4081 21.576 15.434 21.6356 15.5326 21.9415C15.6585 22.3321 15.6545 22.6497 15.5181 23.0827C15.4699 23.2356 15.4135 23.3823 15.3928 23.4087C15.3721 23.4351 15.3154 23.5205 15.267 23.5986C15.1585 23.7733 14.9204 24.0076 14.7777 24.0801C14.7191 24.1099 14.6358 24.1638 14.5925 24.2C14.2935 24.4498 13.1394 24.4596 12.8146 24.2151C12.7715 24.1826 12.6853 24.1295 12.623 24.0971C12.4068 23.9844 12.0685 23.6007 11.9784 23.3659C11.9449 23.2787 11.9019 23.1814 11.8828 23.1498C11.7187 22.8782 11.7361 22.0341 11.9114 21.7609C11.9356 21.7231 11.9663 21.6577 11.9795 21.6155C12.0181 21.4927 12.2137 21.2406 12.3791 21.1003C12.4173 21.068 12.4898 21.0039 12.5402 20.9579C12.5907 20.912 12.6727 20.8573 12.7224 20.8363C12.7722 20.8154 12.8832 20.7632 12.9691 20.7202C13.2221 20.5934 13.8218 20.5521 14.1998 20.6352Z" fill="#BCDCD4"/>
<path fillRule="evenodd" clipRule="evenodd" d="M13.3123 2.8284C13.2069 2.83699 13.004 2.86178 12.8616 2.88354C12.7192 2.90531 12.4689 2.93662 12.3054 2.95316C11.941 2.98994 11.7305 3.02772 11.54 3.09048C11.4599 3.1169 11.3072 3.15838 11.2006 3.18269C11.077 3.21093 10.9622 3.25192 10.8834 3.29599C10.8091 3.33751 10.6899 3.38114 10.5838 3.40555C10.4797 3.42952 10.3819 3.4651 10.3448 3.49243C10.3103 3.51789 10.2204 3.56833 10.145 3.60448C10.0696 3.64068 9.96604 3.69966 9.91484 3.73557C9.86363 3.77143 9.77943 3.81645 9.72775 3.83554C9.67601 3.85462 9.60265 3.89782 9.56473 3.93148C9.52675 3.96519 9.43417 4.03217 9.35898 4.08036C9.28375 4.12854 9.21625 4.17759 9.20896 4.18939C9.20172 4.20114 9.15535 4.23134 9.10601 4.25647C9.05663 4.28159 8.98073 4.3397 8.93734 4.38559C8.8939 4.43143 8.77959 4.53801 8.68331 4.6224C8.58703 4.70679 8.50821 4.78149 8.50816 4.78844C8.50806 4.7954 8.4209 4.89033 8.3144 4.99941C8.20791 5.10849 8.0962 5.23315 8.06618 5.27635C8.03612 5.3196 7.98951 5.36937 7.96266 5.38697C7.93576 5.40461 7.89098 5.46397 7.86312 5.51892C7.83532 5.57387 7.7796 5.65787 7.73932 5.70563C7.6991 5.75333 7.65177 5.82689 7.63422 5.86908C7.61668 5.91122 7.57007 5.9808 7.53071 6.02361C7.48113 6.07751 7.44641 6.14324 7.41779 6.23755C7.39233 6.32141 7.35086 6.40427 7.30976 6.45346C7.24949 6.52562 7.20059 6.64932 7.15418 6.84716C7.14679 6.8788 7.11174 6.96079 7.07631 7.02936C7.03229 7.11456 7.00022 7.21803 6.97504 7.35612C6.95481 7.46721 6.91233 7.63277 6.88073 7.72402C6.72222 8.18153 6.72538 9.20736 6.88601 9.4249C6.91252 9.46081 6.94747 9.52986 6.96368 9.57833C7.00501 9.70203 7.27486 10.0291 7.42412 10.1363C7.49014 10.1838 7.57415 10.2464 7.61073 10.2753C7.6558 10.3111 7.74014 10.3436 7.87243 10.3763C7.97983 10.4029 8.09984 10.4369 8.1392 10.4519C8.34917 10.532 8.60952 10.5268 8.86604 10.4372C8.93969 10.4114 9.06262 10.3791 9.13924 10.3655C9.25734 10.3443 9.29215 10.3286 9.36795 10.2617C9.41714 10.2184 9.48326 10.1665 9.51491 10.1465C9.60332 10.0906 9.7698 9.927 9.81631 9.85034C9.83927 9.8125 9.88966 9.75036 9.92831 9.71225C9.98403 9.6573 10.0056 9.61429 10.0326 9.50392C10.0513 9.42744 10.0911 9.31903 10.121 9.26308C10.1591 9.19178 10.1898 9.08188 10.2236 8.89604C10.2792 8.59062 10.2894 8.5535 10.356 8.41024C10.3829 8.35222 10.4221 8.23139 10.4431 8.14173C10.4865 7.95579 10.5263 7.8518 10.5669 7.81809C10.5823 7.80529 10.6187 7.73691 10.6478 7.66619C10.6769 7.59547 10.7257 7.50504 10.7563 7.46524C10.7869 7.42545 10.8336 7.34346 10.8601 7.28304C10.8865 7.22263 10.945 7.13436 10.9901 7.08689C11.0351 7.03942 11.0949 6.96022 11.1229 6.91088C11.176 6.81743 11.5488 6.46022 11.646 6.40968C11.6764 6.39386 11.7229 6.35766 11.7493 6.32923C11.7756 6.30075 11.8533 6.24767 11.9219 6.21123C11.9904 6.17479 12.087 6.1162 12.1366 6.0811C12.1978 6.03766 12.2745 6.00664 12.3763 5.98415C12.468 5.96392 12.5675 5.92561 12.6331 5.88533C12.8151 5.77357 13.8161 5.64277 14.1754 5.68381C14.9697 5.77453 15.1077 5.79975 15.2878 5.88715C15.3827 5.93328 15.5208 5.98866 15.5946 6.01028C15.6772 6.03445 15.7764 6.08312 15.8525 6.13672C15.9205 6.18462 15.9874 6.22384 16.0011 6.22384C16.0149 6.22384 16.0604 6.25807 16.1022 6.29988C16.1441 6.34174 16.213 6.39789 16.2555 6.42469C16.298 6.45154 16.3543 6.50769 16.3807 6.5495C16.4071 6.59131 16.4538 6.63849 16.4845 6.65436C16.5152 6.67023 16.558 6.71185 16.5796 6.74685C16.6012 6.78185 16.645 6.83373 16.6769 6.86211C16.7088 6.89055 16.7561 6.95489 16.7821 7.00514C16.8081 7.05539 16.8558 7.12669 16.8882 7.16361C16.9426 7.22551 17.0235 7.40133 17.0235 7.45748C17.0235 7.47066 17.0458 7.54584 17.0729 7.62457C17.1872 7.95512 17.1846 7.93844 17.1843 8.33352C17.1841 8.70602 17.1838 8.70813 17.1241 8.86391C17.0911 8.94998 17.0464 9.09473 17.0248 9.18564C16.9812 9.36938 16.9513 9.43765 16.8903 9.49289C16.8676 9.51336 16.8214 9.58236 16.7876 9.64613C16.7241 9.766 16.2534 10.2612 16.0933 10.3767C16.0511 10.4071 15.9761 10.4712 15.9267 10.5191C15.6899 10.7486 15.648 10.7862 15.5927 10.8196C15.5372 10.8531 15.47 10.9134 15.2744 11.1049C15.2314 11.1471 15.1551 11.2075 15.1049 11.2391C15.0548 11.2708 14.9589 11.3422 14.8919 11.3979C14.8248 11.4535 14.7149 11.5442 14.6477 11.5993C14.5805 11.6544 14.4812 11.7391 14.4272 11.7875C14.3731 11.8359 14.3006 11.8918 14.2662 11.9117C14.2317 11.9315 14.182 11.9804 14.1556 12.0202C14.1293 12.06 14.0993 12.0926 14.0891 12.0926C14.0789 12.0926 13.9949 12.1704 13.9024 12.2654C13.6944 12.4792 13.6774 12.4965 13.4718 12.7024C13.3801 12.7943 13.258 12.9168 13.2004 12.9748C13.1428 13.0328 13.0782 13.1154 13.0568 13.1583C13.0353 13.2012 13.0034 13.2483 12.9857 13.263C12.968 13.2777 12.921 13.3375 12.8813 13.396C12.8416 13.4544 12.7785 13.5389 12.7411 13.5836C12.7037 13.6283 12.658 13.706 12.6396 13.7562C12.6211 13.8064 12.5855 13.8754 12.5605 13.9095C12.5072 13.9821 12.421 14.1616 12.4207 14.2005C12.4206 14.2154 12.3849 14.3047 12.3415 14.3991C12.2835 14.5249 12.2481 14.6433 12.2087 14.8428C12.1791 14.9924 12.1368 15.162 12.1147 15.2196C12.0091 15.4946 11.9691 16.0814 11.9867 17.0983C12.0004 17.8906 12.0178 18.043 12.109 18.1689C12.1403 18.2122 12.1856 18.3001 12.2096 18.3643C12.2339 18.4291 12.289 18.5211 12.3335 18.5712C12.3777 18.6208 12.4304 18.6902 12.4508 18.7255C12.4711 18.7608 12.5192 18.8059 12.5578 18.8257C12.5964 18.8455 12.6681 18.8965 12.7171 18.9388C12.8224 19.03 12.8512 19.0464 12.9889 19.0938C13.0463 19.1136 13.1169 19.1465 13.1457 19.167C13.3435 19.3078 13.9389 19.3171 14.1996 19.1835C14.2707 19.1471 14.3753 19.1021 14.4321 19.0835C14.4889 19.0649 14.5682 19.0201 14.6083 18.9839C14.6483 18.9477 14.7154 18.8949 14.7573 18.8664C14.8337 18.8148 14.9926 18.6422 15.0907 18.5045C15.1194 18.4642 15.1606 18.4096 15.1821 18.383C15.2037 18.3566 15.2387 18.2616 15.26 18.1721C15.2813 18.0826 15.3205 17.946 15.3471 17.8687C15.393 17.7352 15.3963 17.6965 15.4129 17.1111C15.4376 16.2338 15.4827 15.8088 15.5694 15.6352C15.5894 15.5953 15.6317 15.4918 15.6636 15.4051C15.7029 15.2979 15.745 15.223 15.7951 15.1708C15.8356 15.1286 15.8861 15.0592 15.9074 15.0166C15.9438 14.9437 16.506 14.3635 16.738 14.1594C16.7948 14.1093 16.8887 14.0242 16.9467 13.9701C17.0048 13.916 17.0846 13.8511 17.1241 13.8258C17.1637 13.8005 17.2068 13.7622 17.22 13.7407C17.2332 13.7191 17.2742 13.6831 17.3111 13.6608C17.3481 13.6384 17.4221 13.5763 17.4758 13.5228C17.6052 13.3937 17.9216 13.1194 18.0565 13.0193C18.116 12.9752 18.2164 12.8889 18.2797 12.8275C18.343 12.7662 18.4932 12.6253 18.6136 12.5145C18.734 12.4038 18.8592 12.2845 18.8917 12.2495C18.9243 12.2145 19.0521 12.0807 19.1758 11.9522C19.4437 11.6738 19.5284 11.5808 19.6414 11.4405C19.8797 11.145 19.988 11.0016 20.0391 10.9139C20.0702 10.8607 20.1199 10.7977 20.1497 10.7739C20.1829 10.7474 20.2235 10.6795 20.2545 10.5983C20.2823 10.5255 20.3315 10.4259 20.3639 10.377C20.3964 10.3281 20.4475 10.2144 20.4775 10.1243C20.5076 10.0342 20.5589 9.91386 20.5915 9.85685C20.6532 9.74902 20.709 9.51748 20.7343 9.2637C20.7417 9.18986 20.7656 9.03451 20.7875 8.91848C20.8379 8.65112 20.8417 8.21044 20.7958 7.96912C20.7787 7.87946 20.7471 7.66264 20.7255 7.48735C20.6817 7.13153 20.6544 7.02149 20.5828 6.91332C20.5559 6.87266 20.5109 6.75658 20.4828 6.65546C20.4508 6.53996 20.4117 6.44622 20.3778 6.4035C20.3293 6.34256 20.2455 6.15537 20.2455 6.1081C20.2455 6.09798 20.2151 6.05603 20.1779 6.01484C20.1407 5.97365 20.0764 5.87057 20.0349 5.78575C19.9935 5.70093 19.9422 5.62225 19.9209 5.61088C19.8997 5.59952 19.8609 5.55373 19.8347 5.50909C19.8086 5.46445 19.7515 5.39339 19.7078 5.3512C19.6642 5.30901 19.6128 5.24428 19.5936 5.20736C19.552 5.12743 19.1744 4.74265 18.9913 4.59363C18.92 4.53562 18.8102 4.43852 18.7473 4.37787C18.6844 4.31722 18.6244 4.26759 18.6141 4.26759C18.6037 4.26759 18.5577 4.23297 18.5117 4.19064C18.4659 4.1483 18.3872 4.09182 18.337 4.06511C18.2868 4.03845 18.209 3.98648 18.1641 3.9497C18.1192 3.91288 18.0294 3.862 17.9647 3.83664C17.8999 3.81128 17.8062 3.76136 17.7564 3.72579C17.7067 3.69021 17.6081 3.63708 17.5374 3.60774C17.4666 3.5784 17.3982 3.54167 17.3853 3.52613C17.3458 3.47852 17.2701 3.44822 17.064 3.3973C16.9413 3.36704 16.8316 3.32634 16.7753 3.29023C16.7129 3.25015 16.6252 3.21965 16.4944 3.19256C16.2565 3.14327 16.1043 3.10458 15.9674 3.0587C15.8558 3.02134 15.7639 3.00806 14.8371 2.89548C14.2293 2.82164 13.6887 2.79786 13.3123 2.8284ZM14.697 2.97273C15.4602 3.02163 15.6801 3.04594 15.7477 3.08881C15.824 3.13719 15.9687 3.17305 16.2421 3.21146C16.5571 3.25566 16.5687 3.25883 16.6543 3.32207C16.7443 3.38862 16.8194 3.41581 17.0126 3.45186C17.135 3.47469 17.2002 3.49741 17.2405 3.53141C17.3131 3.59249 17.4124 3.6415 17.5257 3.67218C17.5784 3.68642 17.6356 3.71907 17.6641 3.75115C17.7232 3.81737 17.7849 3.85011 17.9285 3.8914C18.0034 3.91292 18.0494 3.93925 18.0751 3.9753C18.0957 4.00422 18.1703 4.05734 18.2407 4.09335C18.3111 4.12941 18.3919 4.18426 18.4201 4.21523C18.4484 4.24621 18.5131 4.29137 18.564 4.31559C18.6267 4.34536 18.6669 4.38032 18.6887 4.42385C18.7092 4.46489 18.7504 4.50239 18.8027 4.52751C18.8479 4.54919 18.9055 4.59752 18.931 4.63496C18.9564 4.67241 19.0047 4.71441 19.0382 4.72832C19.0718 4.74222 19.1235 4.78705 19.1532 4.828C19.1829 4.86899 19.2356 4.92169 19.2705 4.94518C19.3054 4.96872 19.3528 5.02161 19.3759 5.0628C19.399 5.10394 19.4401 5.14929 19.4673 5.16349C19.4945 5.17773 19.5385 5.23253 19.5653 5.28527C19.5989 5.35168 19.6344 5.39095 19.6805 5.41296C19.7289 5.43602 19.7521 5.46301 19.7656 5.51178C19.7758 5.54869 19.8219 5.61827 19.8681 5.66641C19.9188 5.71929 19.9737 5.80603 20.0066 5.88543C20.0403 5.96646 20.08 6.02879 20.1102 6.04797C20.177 6.0904 20.1813 6.09851 20.2187 6.25093C20.2434 6.35167 20.269 6.40369 20.3226 6.46243C20.3842 6.52979 20.3992 6.56594 20.4344 6.73069C20.4619 6.85957 20.4923 6.94569 20.5281 6.99704C20.6324 7.14635 20.6348 7.15714 20.6719 7.64308C20.7464 8.62001 20.6928 9.58615 20.5555 9.74255C20.5231 9.77947 20.4866 9.8465 20.4745 9.89147C20.398 10.1749 20.3759 10.2332 20.3253 10.2837C20.2905 10.3186 20.2517 10.3977 20.2164 10.5063C20.1708 10.6465 20.1514 10.681 20.1004 10.7125C20.0623 10.7361 20.0241 10.7854 19.9993 10.8431C19.9773 10.8941 19.9267 10.9702 19.8867 11.0123C19.8467 11.0544 19.7967 11.1156 19.7756 11.1482C19.7204 11.2335 19.5414 11.4478 19.4345 11.5566C19.3841 11.6079 19.3304 11.6795 19.3153 11.7156C19.2978 11.7575 19.2617 11.7948 19.2153 11.8188C19.1754 11.8394 19.125 11.8876 19.1034 11.9258C19.0817 11.9641 19.0342 12.0155 18.9979 12.0399C18.9615 12.0644 18.9117 12.1208 18.8872 12.1652C18.8627 12.2097 18.8306 12.246 18.8159 12.246C18.7799 12.246 18.6583 12.3547 18.644 12.3996C18.6377 12.4195 18.6135 12.4417 18.5904 12.4489C18.5672 12.4561 18.4964 12.5129 18.4331 12.5753C18.3698 12.6377 18.2749 12.7312 18.2221 12.7833C18.1694 12.8353 18.0831 12.9051 18.0303 12.9382C17.9776 12.9714 17.887 13.0453 17.829 13.1024C17.6073 13.3208 17.5682 13.3552 17.5076 13.3856C17.4733 13.4029 17.4242 13.4504 17.3984 13.4911C17.3727 13.5318 17.3188 13.5812 17.2787 13.6008C17.2385 13.6204 17.1851 13.6684 17.1599 13.7075C17.1312 13.752 17.0939 13.7829 17.0598 13.7904C17.0084 13.8016 16.9084 13.8971 16.9084 13.9348C16.9084 13.9443 16.8764 13.9684 16.8374 13.9884C16.6651 14.0768 15.8796 14.8691 15.8477 14.9865C15.8305 15.0502 15.8078 15.0816 15.7546 15.1152C15.6943 15.1533 15.6042 15.3141 15.6042 15.3838C15.6042 15.3894 15.5828 15.422 15.5567 15.4563C15.4786 15.5585 15.4508 15.6712 15.4211 16.0048C15.3816 16.447 15.359 16.6352 15.3348 16.7243C15.3234 16.7665 15.3069 17.0038 15.2984 17.2517C15.2873 17.5711 15.2709 17.7667 15.2421 17.923C15.1642 18.3452 15.1648 18.343 15.1081 18.3724C15.0772 18.3884 15.0335 18.4436 15.0012 18.5074C14.9679 18.5733 14.9254 18.6262 14.8921 18.6434C14.8622 18.6589 14.8244 18.6973 14.8082 18.7286C14.7916 18.7608 14.7433 18.8031 14.6976 18.8256C14.653 18.8475 14.5906 18.8951 14.559 18.9312C14.5117 18.9852 14.4709 19.0053 14.3317 19.0437C14.2384 19.0693 14.1303 19.1123 14.0915 19.1391C13.9366 19.2466 13.4915 19.252 13.3245 19.1485C13.2756 19.1183 13.1681 19.0763 13.0854 19.0552C12.9621 19.0238 12.9182 19.0017 12.8398 18.9311C12.7873 18.8839 12.6977 18.8225 12.6408 18.7946C12.5598 18.755 12.5288 18.7265 12.4984 18.6637C12.477 18.6196 12.4257 18.5483 12.3844 18.5053C12.2995 18.417 12.2589 18.3453 12.2413 18.2529C12.2347 18.218 12.1941 18.1303 12.1511 18.0578L12.0728 17.9261L12.0528 17.6033C12.0084 16.8858 12.054 15.6531 12.1307 15.4955C12.1785 15.3975 12.2186 15.2232 12.2475 14.9886C12.2772 14.747 12.2988 14.6671 12.3572 14.5814C12.384 14.5421 12.4301 14.4179 12.4594 14.3055C12.4992 14.1534 12.5256 14.0893 12.5624 14.0552C12.6271 13.9952 12.665 13.9198 12.6906 13.8002C12.7067 13.7255 12.7265 13.6916 12.7761 13.6538C12.8116 13.6267 12.864 13.5648 12.8924 13.5162C12.9209 13.4677 12.978 13.3912 13.0194 13.3463C13.0608 13.3014 13.1102 13.2232 13.1292 13.1725C13.1561 13.1007 13.1795 13.0727 13.2347 13.0459C13.2853 13.0214 13.3162 12.9875 13.3426 12.9279C13.3687 12.869 13.4009 12.8334 13.4515 12.8076C13.4942 12.7859 13.537 12.7435 13.5571 12.7031C13.5792 12.6588 13.617 12.6234 13.6659 12.6014C13.7175 12.5781 13.7543 12.5424 13.7838 12.4869C13.8093 12.4387 13.8543 12.3913 13.8955 12.3692C13.9358 12.3477 13.9789 12.3028 13.9991 12.2613C14.0182 12.2223 14.0527 12.1846 14.0758 12.1776C14.1338 12.1601 14.1968 12.0992 14.2233 12.0352C14.2386 11.9982 14.2719 11.9715 14.3306 11.9491C14.3805 11.93 14.4368 11.889 14.4665 11.85C14.4945 11.8134 14.5434 11.77 14.5754 11.7534C14.6073 11.7369 14.6771 11.6827 14.7305 11.6331C14.7838 11.5833 14.8672 11.5159 14.9156 11.4831C14.9642 11.4503 15.0184 11.4012 15.0363 11.3739C15.0542 11.3466 15.1092 11.3051 15.1584 11.2817C15.2089 11.2577 15.2674 11.2102 15.2927 11.1728C15.3172 11.1362 15.373 11.0884 15.4165 11.0665C15.4664 11.0414 15.5092 11.0007 15.5321 10.9567C15.5569 10.9087 15.5857 10.883 15.6238 10.8746C15.6735 10.8637 15.796 10.7507 15.796 10.7158C15.796 10.7083 15.8337 10.6821 15.8798 10.6576C15.9258 10.6332 15.9753 10.5912 15.9897 10.5643C16.0041 10.5374 16.0592 10.4876 16.1121 10.4537C16.2136 10.3886 16.4355 10.1915 16.5337 10.0794C16.5658 10.0428 16.6269 9.97811 16.6697 9.93559C16.7655 9.84022 16.8192 9.76278 16.8476 9.67892C16.8596 9.64359 16.9031 9.58193 16.9443 9.54189C17.0101 9.47812 17.0244 9.44729 17.061 9.29156C17.0864 9.18329 17.1211 9.08984 17.1499 9.05211C17.2875 8.87178 17.299 7.80097 17.1653 7.61829C17.1057 7.53673 17.0818 7.47977 17.0606 7.3682C17.034 7.22771 16.9749 7.10933 16.9187 7.08373C16.8849 7.06834 16.8589 7.03132 16.8361 6.9663C16.8179 6.91409 16.7826 6.85296 16.7578 6.83047C16.6983 6.77658 16.6699 6.74603 16.601 6.66217C16.5694 6.62377 16.5226 6.58704 16.4971 6.58062C16.4715 6.57424 16.4454 6.55242 16.439 6.53224C16.4187 6.46852 16.3509 6.39645 16.2855 6.36912C16.2508 6.35459 16.2067 6.31614 16.1875 6.28368C16.1665 6.2482 16.1137 6.2062 16.0551 6.17848C16.0015 6.15312 15.9272 6.10191 15.8901 6.06475C15.8507 6.02539 15.7909 5.98962 15.7469 5.97912C15.7053 5.96924 15.6291 5.95092 15.5774 5.93836C15.5257 5.92585 15.4567 5.89305 15.424 5.86543C15.333 5.78872 15.2727 5.77045 14.9648 5.72624C14.8082 5.70376 14.6142 5.66243 14.5333 5.63428C14.268 5.54198 13.5343 5.55028 13.3099 5.64809C13.2319 5.68208 13.1105 5.70572 12.8177 5.74389C12.6641 5.76393 12.5824 5.79538 12.4952 5.86817C12.4669 5.89181 12.3812 5.92393 12.2974 5.94234C12.125 5.98022 12.0548 6.01282 12.0025 6.07942C11.9816 6.10594 11.9075 6.15321 11.8377 6.18452C11.7532 6.22245 11.7035 6.2576 11.6888 6.28962C11.6762 6.31739 11.6397 6.34678 11.6027 6.35896C11.4907 6.39597 11.1276 6.7444 11.0599 6.8799C11.0239 6.95178 10.9785 7.01104 10.9424 7.03295C10.9043 7.05616 10.8666 7.10722 10.8352 7.17847C10.8086 7.23888 10.7745 7.29522 10.7596 7.30371C10.7237 7.32409 10.6466 7.47781 10.618 7.58588C10.6051 7.63469 10.5675 7.70086 10.531 7.73898C10.4553 7.81775 10.4358 7.86445 10.3957 8.062C10.3793 8.14279 10.3441 8.24209 10.3176 8.28265C10.2538 8.38046 10.221 8.47732 10.2055 8.61411C10.1783 8.85471 10.1385 9.01783 10.0816 9.12225C10.0467 9.18626 10.0069 9.30652 9.98359 9.41819C9.94648 9.59597 9.93967 9.6106 9.85907 9.68564C9.81218 9.72932 9.77354 9.77736 9.7732 9.79246C9.77229 9.83096 9.71749 9.8921 9.646 9.93424C9.61263 9.95395 9.57614 9.9902 9.56492 10.0148C9.5537 10.0394 9.50345 10.0791 9.4533 10.1029C9.40113 10.1277 9.34551 10.1726 9.32341 10.2078C9.27589 10.2834 9.291 10.2785 8.92995 10.3386C8.41179 10.425 7.80885 10.3692 7.6709 10.2221C7.63772 10.1866 7.5811 10.1454 7.54514 10.1303C7.47935 10.1029 7.20385 9.84262 7.20385 9.80795C7.20385 9.79769 7.16597 9.75089 7.1197 9.70395C7.06432 9.64776 7.031 9.59454 7.02232 9.54831C7.00664 9.46465 6.94167 9.32541 6.87833 9.23977C6.79692 9.12964 6.80263 8.13224 6.88538 8.00249C6.92398 7.94198 6.98588 7.72972 7.00137 7.60472C7.03249 7.35381 7.07511 7.1603 7.10143 7.15018C7.14612 7.13307 7.19905 7.00816 7.23051 6.84586C7.27472 6.61778 7.29174 6.57333 7.35512 6.51996C7.39904 6.48304 7.42541 6.43073 7.46377 6.30439C7.50443 6.17062 7.52735 6.12689 7.57928 6.08379C7.61735 6.05219 7.65355 5.99825 7.66712 5.95299C7.67987 5.91041 7.72571 5.83988 7.76958 5.79543C7.81326 5.75113 7.87549 5.65897 7.90796 5.5906C7.94847 5.50535 7.98635 5.45501 8.02864 5.43036C8.06623 5.4085 8.10497 5.36132 8.12789 5.30953C8.1486 5.26264 8.18418 5.21743 8.20729 5.20856C8.26003 5.18842 8.30803 5.13558 8.33277 5.07042C8.34336 5.04261 8.38925 4.99486 8.4348 4.96431C8.48035 4.93377 8.53137 4.87973 8.5482 4.84425C8.56622 4.80628 8.60823 4.76461 8.65023 4.74308C8.6895 4.72295 8.73936 4.67639 8.76103 4.63961C8.78271 4.60289 8.83391 4.55575 8.87481 4.5349C8.91571 4.51404 8.9696 4.46475 8.99458 4.42543C9.02848 4.37197 9.06454 4.34531 9.13718 4.32C9.19323 4.30043 9.2734 4.24966 9.32667 4.20003C9.37744 4.15266 9.45416 4.09743 9.49707 4.07719C9.54003 4.05701 9.59795 4.01059 9.62581 3.97411C9.66153 3.92726 9.69778 3.90377 9.74908 3.89423C9.86809 3.87207 9.99577 3.80859 10.0391 3.7501C10.067 3.71231 10.1133 3.68546 10.1883 3.66365C10.3081 3.62884 10.3752 3.5924 10.4397 3.52724C10.466 3.50067 10.5246 3.47627 10.5931 3.46337C10.8756 3.41025 10.9096 3.39965 10.9707 3.34604C11.0563 3.27086 11.0877 3.26103 11.4248 3.20412C11.6128 3.17238 11.7568 3.1368 11.825 3.10525C12.1339 2.96213 13.5277 2.89783 14.697 2.97273ZM13.3055 20.6158C13.1668 20.6356 13.0905 20.6592 12.9698 20.7196C12.8839 20.7626 12.773 20.8149 12.7232 20.8358C12.6734 20.8567 12.5914 20.9114 12.541 20.9574C12.4906 21.0034 12.4181 21.0674 12.3799 21.0998C12.2144 21.24 12.0189 21.4922 11.9803 21.6149C11.967 21.6571 11.9364 21.7226 11.9121 21.7603C11.7368 22.0335 11.7195 22.8776 11.8836 23.1492C11.9027 23.1809 11.9457 23.2781 11.9792 23.3653C12.0693 23.6002 12.4075 23.9839 12.6238 24.0965C12.686 24.129 12.7723 24.1821 12.8154 24.2145C13.1402 24.4591 14.2942 24.4493 14.5933 24.1994C14.6365 24.1633 14.7199 24.1093 14.7785 24.0796C14.9212 24.007 15.1593 23.7727 15.2677 23.5981C15.3162 23.52 15.3728 23.4345 15.3936 23.4082C15.4143 23.3818 15.4707 23.2351 15.5189 23.0821C15.6553 22.6491 15.6593 22.3315 15.5333 21.941C15.4347 21.6351 15.4088 21.5754 15.346 21.5094C15.3109 21.4725 15.2606 21.3992 15.2343 21.3464C15.1878 21.2532 14.9946 21.0491 14.9529 21.0491C14.9414 21.0491 14.8913 21.0067 14.8414 20.9547C14.773 20.8835 14.7218 20.8506 14.6329 20.821C14.5682 20.7993 14.4716 20.7546 14.4184 20.7215C14.2384 20.6096 13.7038 20.5588 13.3055 20.6158ZM14.1562 20.6885C14.2377 20.7043 14.2871 20.7265 14.3254 20.7647C14.3738 20.8131 14.5117 20.8663 14.6849 20.9033C14.7138 20.9095 14.7532 20.9436 14.7808 20.9863C14.8065 21.0261 14.8603 21.0748 14.9005 21.0944C14.9406 21.114 14.9942 21.163 15.0196 21.2032C15.045 21.2434 15.0841 21.2821 15.1065 21.2892C15.1323 21.2974 15.1666 21.3451 15.2003 21.4202C15.2295 21.4851 15.2793 21.5598 15.3109 21.5862C15.3954 21.6565 15.4189 21.74 15.4894 22.2208C15.5471 22.6136 15.4492 23.297 15.3235 23.3793C15.2966 23.3969 15.2548 23.4562 15.2306 23.511C15.1569 23.6777 14.8011 24.0235 14.6657 24.0599C14.6195 24.0724 14.5687 24.1055 14.536 24.1447C14.3602 24.355 13.0576 24.3648 12.8667 24.1572C12.8364 24.1243 12.7535 24.0758 12.6731 24.0441C12.5666 24.0019 12.526 23.9752 12.5048 23.9333C12.4739 23.8721 12.3857 23.792 12.3489 23.7918C12.3359 23.7918 12.3043 23.7507 12.2788 23.7006C12.2532 23.6505 12.2048 23.5836 12.1712 23.552C12.0954 23.4806 12.0494 23.3913 12.0178 23.2547C11.99 23.1343 11.9527 23.0519 11.8999 22.994C11.7918 22.8755 11.8011 22.1377 11.9129 21.9697C11.9624 21.8953 12.0369 21.6869 12.0369 21.623C12.0369 21.5997 12.0743 21.5451 12.1232 21.4968C12.1707 21.45 12.2095 21.4046 12.2095 21.3958C12.2095 21.3781 12.4316 21.154 12.6093 20.9924C12.7012 20.9088 12.7459 20.8828 12.8312 20.8634C12.9416 20.8383 13.047 20.789 13.1301 20.7235C13.2209 20.652 13.8548 20.6305 14.1562 20.6885Z" fill="#D0021B"/>
<path fillRule="evenodd" clipRule="evenodd" d="M13.243 2.71652C12.7963 2.7311 12.6762 2.7462 12.5142 2.8081C12.3846 2.85763 12.2569 2.8782 11.91 2.90539C11.5288 2.93526 11.4324 2.95659 11.3437 3.03067C11.2817 3.0825 11.2435 3.09636 11.1103 3.11535C10.8814 3.148 10.8146 3.16886 10.7447 3.22961C10.6553 3.30718 10.6223 3.32085 10.465 3.34506C10.3079 3.36928 10.2331 3.4013 10.1808 3.4668C10.1614 3.49106 10.1067 3.52242 10.0592 3.53642C9.93353 3.57358 9.8456 3.62263 9.78744 3.68808C9.75929 3.71982 9.70751 3.75194 9.67236 3.75952C9.58198 3.77899 9.51922 3.81423 9.41632 3.90327C9.36699 3.94594 9.28495 4.00204 9.23398 4.02783C9.18301 4.05368 9.12792 4.09438 9.11148 4.11831C9.09508 4.14223 9.04051 4.18337 8.99026 4.20974C8.93 4.24139 8.88862 4.27965 8.86857 4.32232C8.84964 4.36274 8.81377 4.39727 8.77282 4.41443C8.69707 4.44632 8.62083 4.51272 8.62083 4.54691C8.62083 4.55986 8.58358 4.59236 8.53798 4.61907C8.48202 4.65182 8.44371 4.69291 8.41998 4.74556C8.40066 4.78842 8.3739 4.82347 8.36048 4.82347C8.31867 4.82347 8.21793 4.9209 8.18959 4.98879C8.17468 5.02446 8.15071 5.05362 8.13632 5.05362C8.10329 5.05362 8.02111 5.14318 7.99277 5.21002C7.98093 5.23802 7.94497 5.27648 7.91284 5.29542C7.87774 5.31618 7.83569 5.36954 7.80745 5.42928C7.78156 5.4839 7.73371 5.54762 7.70111 5.57082C7.6381 5.6157 7.58503 5.70503 7.54695 5.83036C7.53176 5.88042 7.5027 5.92041 7.46329 5.94548C7.41404 5.97689 7.39343 6.01343 7.35095 6.1449C7.31235 6.26429 7.28358 6.31875 7.23952 6.35577C7.19238 6.39537 7.17014 6.44116 7.13221 6.57623C7.10589 6.67002 7.06403 6.77358 7.03919 6.80638C6.98679 6.87561 6.94805 7.00383 6.9025 7.25919C6.88044 7.38256 6.85565 7.46024 6.82564 7.4997C6.74451 7.60628 6.72097 7.753 6.70097 8.27568C6.66866 9.12142 6.69594 9.41337 6.81911 9.54033C6.86073 9.5832 6.89473 9.63421 6.89473 9.65373C6.89473 9.71529 6.99144 9.87414 7.06974 9.94117C7.11116 9.97661 7.15791 10.0305 7.17359 10.0608C7.18932 10.0912 7.24733 10.1452 7.30257 10.181C7.3578 10.2167 7.42455 10.2695 7.45092 10.2983C7.51334 10.3665 7.56944 10.3945 7.72028 10.4331C7.78837 10.4505 7.87429 10.4853 7.91121 10.5105C8.12146 10.6537 8.79277 10.6601 8.99261 10.5208C9.04243 10.486 9.12802 10.4536 9.22478 10.4328C9.3526 10.4054 9.38957 10.3884 9.44811 10.3303C9.48666 10.292 9.55101 10.2434 9.59104 10.2223C9.68483 10.173 9.83836 10.0196 9.88496 9.9288C9.90496 9.88982 9.95142 9.83147 9.98819 9.79906C10.0352 9.75768 10.0654 9.70647 10.0898 9.62645C10.1089 9.56392 10.1486 9.47676 10.1781 9.43279C10.2384 9.34255 10.2894 9.16889 10.2894 9.05319C10.2894 8.91654 10.3405 8.69737 10.3827 8.65245C10.4383 8.59318 10.4718 8.48755 10.5114 8.24604C10.5379 8.08465 10.5552 8.02836 10.5875 7.9982C10.6451 7.94446 10.7074 7.81634 10.7322 7.70064C10.748 7.62724 10.7681 7.59233 10.8156 7.55608C10.8783 7.50828 10.9157 7.43914 10.9655 7.27919C10.984 7.21964 11.0091 7.18449 11.0483 7.16325C11.0822 7.14484 11.1263 7.09013 11.1594 7.02545C11.1896 6.96647 11.2345 6.90894 11.2594 6.89762C11.2842 6.88631 11.3264 6.84239 11.3531 6.8C11.3799 6.75766 11.4341 6.70636 11.4737 6.68603C11.5133 6.66575 11.5612 6.62231 11.5804 6.58956C11.6006 6.55499 11.6528 6.51203 11.705 6.48705C11.7561 6.46264 11.8115 6.41748 11.8333 6.38248C11.8544 6.34863 11.8846 6.32058 11.9004 6.32014C11.9551 6.31871 12.1626 6.20891 12.1996 6.16178C12.2516 6.09566 12.2951 6.07705 12.4324 6.06209C12.5818 6.04584 12.6559 6.02091 12.7547 5.95378C13.0351 5.76333 14.9777 5.76328 15.1502 5.95378C15.1911 5.99914 15.3139 6.04124 15.4936 6.07163C15.6007 6.08976 15.6343 6.10457 15.6758 6.15175C15.7243 6.20704 15.9293 6.31938 15.9817 6.31943C15.9953 6.31943 16.0212 6.34508 16.0392 6.37648C16.0571 6.40784 16.102 6.44797 16.139 6.46562C16.1759 6.48321 16.2189 6.50374 16.2346 6.51112C16.2502 6.51855 16.2804 6.55796 16.3017 6.59877C16.3229 6.63957 16.3701 6.69293 16.4065 6.71734C16.4428 6.74179 16.4906 6.79386 16.5125 6.83308C16.5345 6.87231 16.5797 6.92164 16.6128 6.94274C16.6554 6.96983 16.6852 7.01361 16.7141 7.0919C16.7397 7.1609 16.7872 7.2357 16.8402 7.29026C16.887 7.3384 16.9255 7.37916 16.9257 7.38084C16.9574 7.63836 16.991 7.83811 17.0287 7.99303C17.1116 8.33484 17.1115 8.36452 17.025 8.67843C17.0033 8.75755 16.9727 8.91419 16.9571 9.02648C16.9259 9.25135 16.9115 9.28933 16.8205 9.38805C16.7865 9.42497 16.7479 9.48539 16.7346 9.52231C16.6918 9.64126 16.6727 9.67109 16.6249 9.69285C16.5992 9.7046 16.5659 9.74334 16.551 9.77897C16.5361 9.81459 16.4956 9.86604 16.4609 9.89332C16.4263 9.92056 16.3875 9.95393 16.3747 9.9675C16.3503 9.99358 16.2786 10.0641 16.1143 10.2236C16.0593 10.277 15.9908 10.3307 15.962 10.3429C15.9322 10.3555 15.8951 10.396 15.8757 10.4372C15.8513 10.489 15.8172 10.5211 15.7553 10.5505C15.6959 10.5787 15.6589 10.6124 15.6369 10.6586C15.6162 10.7019 15.5867 10.7302 15.5535 10.7386C15.4762 10.758 15.4166 10.8031 15.3919 10.8609C15.3788 10.8915 15.3367 10.9285 15.2892 10.9511C15.245 10.9722 15.1894 11.0189 15.1655 11.0548C15.1393 11.0944 15.0788 11.142 15.0121 11.1753C14.9515 11.2056 14.8673 11.2678 14.825 11.3134C14.7827 11.359 14.7117 11.415 14.6672 11.4377C14.6227 11.4603 14.5733 11.5039 14.5575 11.5345C14.5417 11.5651 14.4963 11.606 14.4567 11.6254C14.417 11.6448 14.3602 11.6974 14.3303 11.7423C14.3 11.7879 14.2609 11.8238 14.2416 11.8238C14.1927 11.8238 14.1152 11.8896 14.0887 11.9534C14.0746 11.9874 14.0362 12.0215 13.9855 12.0451C13.9325 12.0697 13.8917 12.1069 13.867 12.153C13.8458 12.1925 13.8012 12.2367 13.7651 12.254C13.7216 12.2747 13.6891 12.311 13.6646 12.3664C13.637 12.4289 13.612 12.4542 13.5593 12.4733C13.5178 12.4883 13.4675 12.5296 13.4334 12.5766C13.4022 12.6197 13.3519 12.67 13.3216 12.6885C13.2884 12.7086 13.2535 12.756 13.2337 12.8077C13.2081 12.875 13.185 12.9008 13.127 12.9269C13.0738 12.9509 13.0424 12.9829 13.0151 13.041C12.9942 13.0854 12.9551 13.1362 12.9281 13.1539C12.9011 13.1716 12.8606 13.2226 12.838 13.2673C12.8155 13.312 12.7565 13.3917 12.7069 13.4445C12.6444 13.5111 12.6043 13.5773 12.5762 13.6605C12.5499 13.7385 12.5153 13.7977 12.4773 13.8296C12.4206 13.8774 12.3415 14.0736 12.3415 14.1665C12.3415 14.187 12.3214 14.2228 12.2967 14.246C12.2109 14.3268 12.1882 14.3876 12.1497 14.639C12.1183 14.8434 12.0983 14.9159 12.0437 15.0213C11.9381 15.2257 11.9004 15.723 11.9004 16.9147C11.9004 17.9259 11.9308 18.1995 12.0529 18.2864C12.0829 18.3077 12.1115 18.3501 12.1181 18.3827C12.1416 18.5003 12.2115 18.6312 12.2708 18.6687C12.3034 18.6894 12.3483 18.7392 12.3707 18.7795C12.3955 18.8242 12.4452 18.8716 12.4978 18.9008C12.5454 18.9272 12.6181 18.9845 12.6595 19.0281C12.7173 19.0891 12.7652 19.1169 12.8662 19.148C12.9489 19.1735 13.0113 19.2057 13.0342 19.2349C13.1739 19.4124 14.1738 19.4074 14.37 19.2281C14.4036 19.1974 14.4766 19.1588 14.5323 19.1425C14.5886 19.1259 14.6636 19.0849 14.7016 19.0499C14.7391 19.0153 14.8174 18.9506 14.8755 18.906C14.9888 18.819 15.0778 18.7182 15.1295 18.6181C15.1472 18.5839 15.1822 18.5425 15.2073 18.526C15.259 18.4921 15.2805 18.4451 15.3247 18.2679C15.3418 18.1993 15.3677 18.1299 15.3823 18.1137C15.4867 17.9972 15.4932 17.9461 15.5091 17.1076C15.5273 16.146 15.5416 15.9949 15.6308 15.8238C15.6666 15.755 15.7013 15.6662 15.7079 15.6264C15.7407 15.4268 15.7918 15.3032 15.8662 15.2433C15.9146 15.2044 15.9481 15.1566 15.9639 15.104C15.9812 15.0462 16.0064 15.013 16.0547 14.9846C16.0914 14.9629 16.138 14.9128 16.1581 14.8732C16.1783 14.8337 16.2244 14.7838 16.2604 14.7626C16.2965 14.7413 16.3453 14.6896 16.3688 14.6477C16.3924 14.6058 16.4405 14.555 16.4757 14.5349C16.5109 14.5148 16.5596 14.4689 16.5839 14.4329C16.6081 14.3969 16.6651 14.3453 16.7104 14.3183C16.7556 14.2912 16.8096 14.2408 16.8302 14.2063C16.8509 14.1718 16.8915 14.1345 16.9205 14.1234C16.9884 14.0976 17.0404 14.0503 17.0615 13.9952C17.0714 13.9694 17.1138 13.9362 17.1651 13.9142C17.2214 13.8901 17.2656 13.8539 17.2907 13.8114C17.312 13.7753 17.3554 13.735 17.3872 13.7218C17.419 13.7086 17.4764 13.6596 17.5146 13.6129C17.5529 13.5662 17.6166 13.5115 17.6562 13.4913C17.7223 13.4575 17.8573 13.3408 18.071 13.1326C18.1171 13.0877 18.1889 13.0336 18.2305 13.0123C18.2798 12.9872 18.318 12.9487 18.3398 12.9024C18.3592 12.8613 18.3977 12.8198 18.4309 12.8044C18.5062 12.7693 18.5567 12.7247 18.5743 12.6774C18.5821 12.6564 18.6218 12.6219 18.6625 12.6007C18.7031 12.5795 18.7603 12.5266 18.7894 12.4831C18.8186 12.4397 18.8696 12.3929 18.9027 12.3791C18.9435 12.3622 18.9744 12.3287 18.9978 12.2759C19.0214 12.223 19.0561 12.1853 19.1056 12.1593C19.1488 12.1365 19.1943 12.0911 19.2171 12.0479C19.2397 12.0052 19.2872 11.9575 19.3323 11.9324C19.3766 11.9078 19.4251 11.8594 19.4473 11.8178C19.4684 11.7782 19.5143 11.7286 19.5492 11.7076C19.5841 11.6866 19.625 11.6399 19.6401 11.6038C19.6552 11.5677 19.703 11.5097 19.7464 11.4748C19.7898 11.44 19.837 11.3888 19.8513 11.3611C19.8656 11.3334 19.9132 11.273 19.957 11.2269C20.0323 11.1475 20.1276 10.9802 20.128 10.9265C20.1281 10.913 20.1575 10.8846 20.1932 10.8635C20.2512 10.8293 20.3392 10.6821 20.3392 10.6192C20.3392 10.6094 20.373 10.5588 20.4145 10.5067C20.4696 10.4375 20.5026 10.3669 20.5373 10.2435C20.5664 10.1401 20.6031 10.0551 20.6323 10.0239C20.7058 9.94496 20.7214 9.90205 20.7526 9.69352C20.7686 9.58684 20.8026 9.43773 20.8282 9.36226C20.9825 8.90705 20.9939 7.84947 20.8481 7.51811C20.7945 7.39623 20.7868 7.36381 20.7614 7.15371C20.7349 6.93339 20.7117 6.86061 20.6456 6.78931C20.6162 6.75757 20.5786 6.68229 20.5616 6.62149C20.5447 6.56084 20.5181 6.46538 20.5024 6.40937C20.4866 6.35337 20.4477 6.27838 20.4159 6.24271C20.384 6.20704 20.343 6.13018 20.3246 6.07183C20.3043 6.00748 20.2635 5.93666 20.2208 5.89174C20.1821 5.85103 20.1268 5.76233 20.0981 5.69467C20.0623 5.61038 20.0271 5.55984 19.9863 5.53429C19.9536 5.51377 19.9052 5.45546 19.8789 5.40473C19.849 5.34729 19.8085 5.3017 19.7714 5.28381C19.7285 5.2631 19.7032 5.23059 19.6808 5.16773C19.6638 5.11969 19.6135 5.04201 19.5692 4.99507C19.5248 4.94818 19.4544 4.87132 19.4128 4.82428C19.3711 4.7773 19.2755 4.68998 19.2004 4.63029C19.1252 4.57064 19.0431 4.4993 19.0178 4.47182C18.9925 4.4443 18.943 4.41232 18.9077 4.40067C18.8636 4.38609 18.8336 4.35829 18.8113 4.31125C18.7885 4.2634 18.7543 4.23209 18.6969 4.20668C18.6518 4.18678 18.5961 4.14396 18.5731 4.1116C18.55 4.07923 18.4941 4.03685 18.4489 4.01748C18.4036 3.99806 18.3283 3.94445 18.2815 3.89833C18.2135 3.83125 18.1677 3.80608 18.0532 3.77285C17.9392 3.73972 17.9054 3.72121 17.8877 3.68218C17.8628 3.62762 17.7364 3.56514 17.6098 3.54491C17.5514 3.53556 17.5135 3.51317 17.4651 3.45927C17.3956 3.38184 17.3388 3.35724 17.1842 3.33763C17.0637 3.32234 16.9637 3.29131 16.9637 3.26931C16.9637 3.23627 16.7955 3.15452 16.6886 3.13568C16.6289 3.12518 16.5323 3.10816 16.474 3.09789C16.4147 3.08744 16.3405 3.05834 16.3058 3.03187C16.2207 2.96695 16.1354 2.95017 15.6641 2.90548C15.4398 2.88424 15.2197 2.85346 15.175 2.83701C14.8597 2.72132 14.2541 2.68353 13.243 2.71652ZM14.7773 2.85466C14.9408 2.88189 15.237 2.92226 15.4357 2.94442C15.7767 2.98239 15.8841 3.00368 16.2061 3.09708C16.2799 3.11851 16.4223 3.15337 16.5225 3.17461C16.6363 3.19868 16.738 3.23373 16.7933 3.26796C16.8889 3.32713 17.0098 3.37028 17.1713 3.40298C17.2866 3.42629 17.328 3.44551 17.424 3.52026C17.4609 3.54903 17.5368 3.58734 17.5927 3.60532C17.6486 3.62335 17.7347 3.66885 17.7839 3.70644C17.8331 3.74403 17.9244 3.79471 17.9867 3.81917C18.049 3.84357 18.1442 3.89689 18.1983 3.93769C18.2523 3.97845 18.3311 4.03181 18.3733 4.05622C18.4155 4.08067 18.4802 4.12785 18.5172 4.16117C18.5541 4.19445 18.6154 4.24206 18.6535 4.26695C18.6915 4.29183 18.7379 4.33484 18.7564 4.3625C18.775 4.39012 18.8216 4.43318 18.8599 4.45811C19.0543 4.58464 19.5276 5.0505 19.6119 5.19837C19.6423 5.25164 19.6933 5.31455 19.7253 5.33818C19.7573 5.36182 19.8059 5.41749 19.8334 5.46189C19.8608 5.50634 19.9121 5.57289 19.9473 5.60981C19.9825 5.64672 20.0368 5.73303 20.068 5.80159C20.0992 5.87016 20.1505 5.95076 20.1821 5.98073C20.2164 6.01333 20.2602 6.09216 20.2911 6.17697C20.3195 6.25494 20.3669 6.34911 20.3964 6.38622C20.4285 6.42659 20.4671 6.51716 20.4927 6.6119C20.5162 6.69893 20.5679 6.8316 20.6077 6.90668C20.6529 6.99208 20.6882 7.09267 20.7019 7.17519C20.7244 7.31074 20.8085 7.85014 20.8391 8.05512C20.8734 8.28536 20.8605 8.69795 20.8107 8.96118C20.7853 9.09577 20.754 9.28353 20.7412 9.37846C20.7082 9.62424 20.6555 9.81733 20.5986 9.90085C20.5716 9.94055 20.5282 10.0432 20.502 10.129C20.4758 10.2148 20.4256 10.327 20.3904 10.3783C20.3552 10.4297 20.3055 10.527 20.28 10.5947C20.252 10.669 20.206 10.745 20.1639 10.7865C20.1255 10.8243 20.0714 10.8984 20.0437 10.9511C20.0159 11.0039 19.9351 11.1177 19.8641 11.204C19.7931 11.2904 19.698 11.4069 19.6529 11.4629C19.5307 11.6145 19.4133 11.744 19.1788 11.9861C19.0628 12.1059 18.9412 12.2327 18.9086 12.268C18.8761 12.3032 18.7509 12.4225 18.6305 12.5332C18.5102 12.6439 18.3657 12.7813 18.3095 12.8386C18.2533 12.8959 18.1713 12.9662 18.1273 12.9948C18.0833 13.0234 17.9447 13.1384 17.8192 13.2504C17.6938 13.3624 17.5837 13.454 17.5745 13.454C17.5596 13.454 17.4724 13.5339 17.2477 13.7539C17.2087 13.792 17.1483 13.8405 17.1134 13.8617C17.0785 13.8829 17.0141 13.9358 16.9704 13.9792C16.9266 14.0226 16.8367 14.1056 16.7706 14.1636C16.5261 14.3781 15.9632 14.9577 15.9248 15.0345C15.9033 15.0776 15.8518 15.148 15.8105 15.1908C15.7545 15.2489 15.7183 15.3164 15.6685 15.4559C15.6317 15.5588 15.5894 15.6665 15.5746 15.6952C15.4977 15.8438 15.456 16.2841 15.4314 17.2035C15.4188 17.6795 15.4103 17.7937 15.3826 17.8651C15.346 17.9593 15.2868 18.1539 15.2559 18.2818C15.2447 18.3283 15.2037 18.4006 15.1599 18.4511C15.1179 18.4997 15.0716 18.5624 15.0569 18.5906C15.0318 18.6389 14.8468 18.8197 14.6546 18.9837C14.6073 19.024 14.5229 19.0738 14.4668 19.0944C14.4108 19.1149 14.2931 19.168 14.2053 19.2123L14.0457 19.2929L13.7162 19.2926C13.3577 19.2923 13.2696 19.2769 13.1279 19.1896C13.0804 19.1604 12.9884 19.1172 12.9233 19.0936C12.8558 19.0691 12.7621 19.0141 12.705 18.9654C12.65 18.9184 12.5807 18.8674 12.551 18.8521C12.5213 18.8367 12.4733 18.7918 12.4444 18.7522C12.4155 18.7126 12.3593 18.6457 12.3196 18.6035C12.2797 18.5612 12.2217 18.4647 12.1902 18.3881C12.1587 18.3118 12.1094 18.2184 12.0806 18.1806C11.9068 17.9527 11.9097 15.6681 12.0844 15.2025C12.1095 15.1358 12.156 14.9545 12.1878 14.7998C12.2291 14.5991 12.2641 14.4827 12.3099 14.3938C12.3453 14.3252 12.3926 14.208 12.415 14.1333C12.4393 14.0524 12.483 13.9632 12.5231 13.9127C12.5602 13.8661 12.6043 13.7867 12.6212 13.7363C12.6381 13.6859 12.6748 13.6176 12.7029 13.5847C12.7785 13.4959 12.9446 13.2693 13.0348 13.1318C13.0784 13.0654 13.1389 12.9982 13.1691 12.9827C13.1993 12.967 13.247 12.9178 13.275 12.8733C13.3031 12.8288 13.3872 12.7346 13.4619 12.6641C13.622 12.5132 13.6548 12.4809 13.8732 12.2612C14.1324 12.0004 14.3128 11.8372 14.6266 11.58C14.6936 11.525 14.8092 11.4291 14.8835 11.3668C14.9577 11.3046 15.0484 11.2385 15.0849 11.22C15.1214 11.2016 15.1901 11.1482 15.2376 11.1016C15.4182 10.924 15.5493 10.8073 15.5682 10.8073C15.5789 10.8073 15.6344 10.762 15.6914 10.7066C15.8283 10.5736 15.9903 10.4249 16.2293 10.2127C16.4757 9.99401 16.6851 9.76501 16.7719 9.61935C16.8088 9.5574 16.8621 9.47786 16.8903 9.44257C16.9195 9.40599 16.9594 9.31258 16.9831 9.22503C17.006 9.14065 17.0492 8.99393 17.0793 8.89899C17.2054 8.50122 17.206 8.13543 17.0814 7.76202C17.0506 7.67005 17.015 7.54304 17.002 7.47975C16.9745 7.3455 16.941 7.27377 16.8651 7.18655C16.8349 7.15189 16.7876 7.07853 16.7599 7.02353C16.7324 6.96854 16.6827 6.89709 16.6497 6.86473C16.6167 6.83237 16.5633 6.77627 16.531 6.74007C16.4987 6.70387 16.4531 6.65697 16.4297 6.63588C16.4062 6.61478 16.349 6.55868 16.3026 6.51121C16.1694 6.375 16.0367 6.26582 15.9767 6.243C15.9463 6.23144 15.8819 6.19332 15.8336 6.15827C15.7125 6.07034 15.6754 6.05289 15.5183 6.00954C15.443 5.98873 15.3296 5.94285 15.2662 5.90756C15.1311 5.83223 15.0626 5.81847 14.4896 5.75206C13.8023 5.67242 12.8691 5.75461 12.6328 5.91561C12.5873 5.94664 12.501 5.98168 12.441 5.99353C12.2707 6.02719 12.2154 6.04862 12.1367 6.11148C12.0964 6.14365 12.0073 6.19841 11.9388 6.23317C11.8702 6.26793 11.7925 6.31962 11.7662 6.3481C11.7398 6.37653 11.6933 6.41273 11.6629 6.42855C11.5659 6.47899 11.1929 6.8363 11.1397 6.92975C11.1116 6.97908 11.049 7.05853 11.0006 7.10629C10.9441 7.1621 10.9008 7.22779 10.8794 7.29022C10.8612 7.34358 10.816 7.42533 10.7789 7.47189C10.7419 7.5184 10.6976 7.59962 10.6803 7.65236C10.6631 7.7051 10.6298 7.77415 10.6063 7.80579C10.5321 7.90586 10.5026 7.97883 10.4543 8.18271C10.4284 8.29183 10.381 8.43726 10.3489 8.50582C10.3084 8.59222 10.2763 8.71319 10.2441 8.90005C10.2109 9.09356 10.1817 9.20178 10.1407 9.28362C10.1093 9.34634 10.0696 9.45326 10.0526 9.52125C10.0292 9.61422 10.0032 9.66408 9.94748 9.72263C9.90673 9.7654 9.85495 9.83137 9.83241 9.8692C9.78346 9.95148 9.61789 10.1114 9.51208 10.1786C9.47022 10.2052 9.41867 10.2462 9.39762 10.2698C9.34282 10.331 9.28385 10.3566 9.10989 10.3947C9.02551 10.4132 8.92194 10.444 8.87975 10.4633C8.6963 10.5469 8.31598 10.562 8.15095 10.4921C8.10875 10.4743 7.98025 10.434 7.86542 10.4027C7.51344 10.3067 7.06734 9.91821 6.9444 9.60056C6.92637 9.55395 6.88648 9.48059 6.85579 9.43753C6.7049 9.22604 6.70495 8.06615 6.85584 7.68909C6.88576 7.61434 6.92901 7.45899 6.95198 7.34387C6.97801 7.21312 7.02193 7.07263 7.06887 6.96973C7.1102 6.87911 7.14405 6.79808 7.14405 6.7896C7.14405 6.72142 7.23261 6.50182 7.28809 6.43239C7.32745 6.38315 7.3718 6.29368 7.39496 6.21682C7.42215 6.12639 7.4572 6.06061 7.50725 6.00585C7.54724 5.96207 7.59696 5.88742 7.61773 5.83995C7.63853 5.79248 7.69276 5.71064 7.73826 5.65809C7.78377 5.60554 7.83253 5.53496 7.84663 5.50125C7.86067 5.46755 7.91337 5.39625 7.96362 5.34283C8.01391 5.28942 8.0982 5.19698 8.15095 5.13743C8.20369 5.07783 8.29862 4.97565 8.36192 4.91035C8.42521 4.84505 8.49564 4.77073 8.51846 4.74522C8.54129 4.71966 8.61723 4.64702 8.68724 4.58373C8.75724 4.52044 8.85577 4.42747 8.90621 4.37713C8.95665 4.32683 9.04157 4.25779 9.09489 4.2237C9.32753 4.0752 9.51481 3.9446 9.54142 3.91228C9.55724 3.89305 9.63348 3.84846 9.71082 3.81317C9.7882 3.77784 9.87882 3.72821 9.9122 3.7028C9.94561 3.67743 10.0377 3.62608 10.1168 3.58864C10.1959 3.55124 10.2828 3.50252 10.3099 3.48042C10.337 3.45831 10.4449 3.41876 10.5497 3.39248C10.6682 3.36276 10.7811 3.3197 10.8486 3.27851C10.9235 3.23277 11.0125 3.20069 11.1362 3.17475C11.2348 3.15409 11.3983 3.10724 11.4995 3.07066C11.6459 3.01777 11.7518 2.99596 12.0173 2.96412C12.5551 2.89968 12.6496 2.88678 12.8115 2.8559C13.1006 2.80072 13.2342 2.79348 13.8567 2.79933C14.4205 2.80465 14.5083 2.80992 14.7773 2.85466ZM13.5402 20.4934C13.5086 20.5022 13.3705 20.524 13.2334 20.5417C12.9493 20.5784 12.8651 20.606 12.7942 20.6857C12.7665 20.7167 12.7281 20.742 12.7086 20.742C12.6486 20.742 12.4933 20.8357 12.3969 20.9301C11.9955 21.323 11.9597 21.3668 11.9139 21.5215C11.8982 21.5741 11.8594 21.6431 11.8276 21.6749C11.7487 21.7538 11.7306 21.832 11.7063 22.1982C11.6693 22.7564 11.7127 23.1465 11.8313 23.3213C11.8671 23.3742 11.9161 23.4723 11.9401 23.5393C11.9721 23.6287 11.9999 23.6717 12.0447 23.7011C12.0783 23.7231 12.1247 23.7769 12.1479 23.8207C12.1743 23.8704 12.2153 23.9124 12.2569 23.9322C12.2936 23.9497 12.3403 23.9923 12.3607 24.0269C12.3859 24.0696 12.4341 24.1063 12.5112 24.1418C12.5736 24.1704 12.6386 24.2153 12.6558 24.2416C12.6973 24.3047 12.7628 24.3358 12.9352 24.3741C13.0186 24.3926 13.0961 24.4226 13.1211 24.4461C13.2525 24.5696 14.0162 24.5799 14.2185 24.461C14.254 24.4401 14.349 24.405 14.4295 24.383C14.6007 24.3363 14.6578 24.3096 14.7102 24.2516C14.7312 24.2282 14.8073 24.1795 14.8791 24.1433C14.9715 24.0967 15.0213 24.0577 15.0497 24.0096C15.0717 23.9723 15.1221 23.9214 15.1617 23.8964C15.2055 23.8687 15.2581 23.8076 15.2964 23.7397C15.331 23.6785 15.3874 23.5966 15.4219 23.5577C15.4614 23.5132 15.4994 23.4373 15.5246 23.3524C15.5467 23.2782 15.5869 23.1913 15.614 23.1591C15.7684 22.9756 15.7735 21.9826 15.6207 21.8444C15.6002 21.8258 15.5614 21.7384 15.5345 21.6501C15.4909 21.5071 15.4775 21.4845 15.4121 21.4433C15.355 21.4071 15.334 21.3783 15.3176 21.313C15.2888 21.1985 15.2018 21.0844 15.0926 21.018C15.0426 20.9875 14.9619 20.9231 14.9134 20.8748C14.8523 20.814 14.7987 20.7804 14.7389 20.7655C14.6896 20.7531 14.6218 20.7157 14.5811 20.6784C14.4924 20.5972 14.4311 20.5804 14.0044 20.521C13.6372 20.4699 13.6269 20.4692 13.5402 20.4934ZM14.1036 20.5994C14.2714 20.6241 14.3317 20.6426 14.4451 20.7046C14.5209 20.746 14.6312 20.798 14.6903 20.8201C14.7566 20.8449 14.8137 20.8819 14.8395 20.9168C14.8625 20.9479 14.9219 20.9994 14.9716 21.0313C15.0897 21.1071 15.2115 21.2406 15.255 21.3419C15.274 21.3864 15.3215 21.4537 15.3603 21.4914C15.4328 21.5618 15.5444 21.8352 15.6141 22.1133C15.6477 22.2472 15.654 22.6988 15.6242 22.8325C15.5847 23.0093 15.4323 23.4123 15.386 23.4623C15.36 23.4904 15.3069 23.5684 15.2681 23.6357C15.1802 23.788 14.9241 24.0382 14.7877 24.1049C14.7321 24.1321 14.6515 24.1838 14.6083 24.2198C14.2808 24.4935 13.1292 24.4938 12.771 24.2203C12.7255 24.1856 12.6434 24.1345 12.5886 24.1067C12.4142 24.0183 12.0472 23.6156 11.9782 23.4366C11.9537 23.3733 11.9004 23.2525 11.8596 23.1681C11.7048 22.8477 11.712 22.0155 11.8717 21.7742C11.8983 21.7339 11.9376 21.6543 11.9589 21.5972C12.0488 21.357 12.4541 20.9341 12.7059 20.8177C12.7745 20.786 12.8522 20.7469 12.8786 20.7307C13.1228 20.5811 13.6182 20.5279 14.1036 20.5994Z" fill="#CAE5DE"/>
</g>
<defs>
<clipPath id="clip0_2586_14847">
<rect width="21.5763" height="27.0248" fill="white" transform="translate(3.37598 0.125977)"/>
</clipPath>
</defs>
</svg>
