<svg width="27" height="27" viewBox="0 0 27 27" fill="none" xmlns="http://www.w3.org/2000/svg">
<g clipPath="url(#clip0_2586_13658)">
<path fillRule="evenodd" clipRule="evenodd" d="M3.78784 3.76075C3.66293 3.76902 3.60067 3.78404 3.57181 3.81304C3.51322 3.87176 3.47183 3.89006 3.30322 3.93205C3.19032 3.96012 3.13725 3.98742 3.091 4.04134C3.05636 4.08169 2.99594 4.12007 2.95329 4.12879C2.89287 4.14113 2.87345 4.1593 2.85836 4.21755C2.84793 4.25783 2.81047 4.31137 2.77518 4.33649C2.73227 4.367 2.69304 4.433 2.65689 4.53534C2.62718 4.61957 2.58257 4.70269 2.55777 4.72008C2.46973 4.78168 2.46861 4.89688 2.47491 13.3051L2.48101 21.5408L2.55501 21.6251C2.62081 21.7 2.67736 21.8326 2.67776 21.9127C2.67782 21.9283 2.708 21.9566 2.7448 21.9756C2.7818 21.9948 2.82294 22.0422 2.83658 22.0814C2.85312 22.1288 2.88506 22.1607 2.93243 22.1772C2.97153 22.1909 3.01837 22.2308 3.03654 22.2659C3.05695 22.3054 3.09506 22.3349 3.13626 22.3431C3.173 22.3504 3.24648 22.3928 3.29968 22.4372C3.44519 22.5588 2.97855 22.5534 13.4362 22.5543C23.563 22.5553 23.543 22.5555 23.593 22.4622C23.6101 22.4301 23.6679 22.3895 23.7292 22.3664C23.7877 22.3444 23.8795 22.2816 23.9331 22.2269C23.9868 22.1723 24.0494 22.1275 24.0724 22.1275C24.1018 22.1275 24.1268 22.0918 24.157 22.0069C24.1805 21.9407 24.2289 21.8593 24.2643 21.8261C24.3286 21.766 24.3401 21.7269 24.4272 21.2705C24.4382 21.2133 24.4474 17.5705 24.4476 13.1757L24.4481 5.18521L24.3825 4.86264C24.326 4.58454 24.3099 4.53757 24.2667 4.52156C24.2382 4.511 24.1974 4.45838 24.1722 4.39987C24.148 4.34312 24.1072 4.28558 24.0818 4.27194C24.0563 4.25836 24.0292 4.22733 24.0216 4.20312C24.0138 4.17885 23.972 4.14211 23.9287 4.12158C23.8852 4.10098 23.8257 4.05472 23.7963 4.01884C23.7575 3.97147 23.7068 3.94589 23.6109 3.92529C23.5382 3.90968 23.4444 3.87359 23.4025 3.84512C23.3604 3.81658 23.3052 3.78418 23.2796 3.77302C23.2316 3.75209 4.10215 3.74002 3.78784 3.76075ZM23.052 5.22497L23.1149 5.28788L23.1134 13.1479C23.1122 19.5059 23.1061 21.0185 23.082 21.0639C23.0471 21.1298 22.9842 21.179 22.8867 21.2167C22.8333 21.2373 20.5537 21.2443 13.4216 21.2456L4.0267 21.2474L3.96025 21.1605L3.89379 21.0737V13.1563V5.239L3.9487 5.19459C4.00256 5.15096 4.16932 5.15024 13.4963 5.15608L22.9891 5.16199L23.052 5.22497ZM5.683 8.58204L5.6193 8.60533V9.18205V9.75884L5.70616 9.81618L5.79302 9.87352L8.67657 9.87391C11.2259 9.87424 11.5729 9.87011 11.6701 9.83816L11.7802 9.80207V9.19308V8.58408L11.7078 8.56958C11.5818 8.54438 5.75313 8.55639 5.683 8.58204ZM19.8529 10.6338C19.8454 10.6561 19.8032 10.7004 19.7591 10.7323C19.7151 10.7641 19.6731 10.8079 19.6658 10.8296C19.6584 10.8513 19.6166 10.8821 19.5726 10.898C19.5287 10.9139 19.4928 10.9405 19.4928 10.9572C19.4928 11.0134 19.0651 11.459 18.9874 11.4837C18.9594 11.4926 18.9199 11.5318 18.8998 11.5708C18.8796 11.6097 18.8102 11.6898 18.7454 11.7486C18.6807 11.8075 18.5784 11.9051 18.5181 11.9656C18.4578 12.0261 18.3973 12.0756 18.3838 12.0756C18.3701 12.0756 18.3405 12.1099 18.318 12.1518C18.2684 12.2438 18.0656 12.434 17.9932 12.4563C17.9645 12.4652 17.941 12.4884 17.941 12.5077C17.941 12.5271 17.8967 12.5878 17.8426 12.6426C17.7885 12.6974 17.6907 12.7998 17.6254 12.8701C17.56 12.9404 17.474 13.0148 17.4343 13.0354C17.3945 13.0559 17.362 13.0841 17.362 13.0981C17.362 13.1361 16.8908 13.5963 16.8331 13.6146C16.8055 13.6234 16.783 13.6438 16.783 13.6601C16.783 13.7054 16.7069 13.7642 16.6279 13.78C16.511 13.8034 16.5398 13.827 15.8276 13.1252C15.5072 12.8095 15.4403 12.773 15.3835 12.8828C15.3635 12.9215 15.3186 12.9668 15.2836 12.9836C15.2486 13.0003 15.2063 13.0426 15.1896 13.0776C15.1728 13.1126 15.128 13.1572 15.0899 13.1769C15.0519 13.1966 15.0087 13.2391 14.9941 13.2713C14.9794 13.3034 14.9388 13.3445 14.9038 13.3627C14.8688 13.3808 14.8229 13.4243 14.8019 13.4594C14.7807 13.4945 14.7306 13.5442 14.6905 13.57C14.5458 13.6626 14.5614 13.7859 14.7394 13.9583C14.821 14.0375 14.9625 14.1796 15.0537 14.2742C15.145 14.3688 15.428 14.6575 15.6828 14.9158C15.9376 15.1742 16.1835 15.4251 16.2294 15.4735C16.3773 15.6293 16.5554 15.7814 16.5902 15.7814C16.6293 15.7814 16.6863 15.7279 17.2286 15.1823C17.4484 14.9612 17.868 14.542 18.161 14.2509C18.454 13.9599 18.7226 13.6927 18.7578 13.6572C19.3545 13.0558 20.3164 12.0941 20.535 11.8802C20.9467 11.4775 20.9399 11.5019 20.7004 11.2847C20.6252 11.2165 20.5222 11.1086 20.4715 11.0449C20.4208 10.9812 20.3386 10.8989 20.2887 10.862C20.2388 10.825 20.1632 10.7495 20.1206 10.6941C20.0338 10.5809 19.8822 10.5468 19.8529 10.6338ZM5.70937 12.4694C5.63426 12.5133 5.61733 12.6698 5.62422 13.2566L5.63091 13.8238L5.70039 13.8387C5.79131 13.8581 11.5326 13.8635 11.6727 13.8443L11.7802 13.8296V13.1523V12.4751L11.7078 12.4607C11.5875 12.4366 5.7509 12.4451 5.70937 12.4694ZM5.68877 16.4969L5.63091 16.513L5.62474 17.0917L5.61858 17.6704L5.69041 17.7681L5.76232 17.8659H8.69047H11.6187L11.6991 17.8137L11.7796 17.7617L11.7799 17.1336L11.7802 16.5054L11.6933 16.4911C11.5736 16.4713 5.76068 16.4769 5.68877 16.4969Z" fill="#D0021B"/>
<path fillRule="evenodd" clipRule="evenodd" d="M3.63941 3.71699C3.56325 3.72807 3.46517 3.76133 3.41938 3.79151C3.37391 3.82156 3.27938 3.86486 3.20931 3.88782C3.13518 3.91203 3.05062 3.96129 3.00719 4.00551C2.96612 4.0473 2.91141 4.08824 2.88562 4.09644C2.85984 4.10457 2.83872 4.11901 2.83872 4.12852C2.83872 4.13796 2.79181 4.20062 2.73447 4.26779C2.67713 4.33497 2.63029 4.39959 2.63029 4.41153C2.63029 4.42341 2.59421 4.4877 2.55006 4.55435C2.40134 4.77931 2.41026 4.23079 2.41026 13.1873C2.41026 21.9688 2.4054 21.6093 2.52566 21.7523C2.55478 21.7869 2.59539 21.8553 2.61586 21.9043C2.6692 22.0319 2.86214 22.2455 3.01782 22.3494C3.09129 22.3984 3.17743 22.4616 3.20931 22.4899C3.24782 22.524 3.34866 22.5592 3.51037 22.5949L3.75356 22.6486L13.3191 22.6554C23.401 22.6624 23.2082 22.6641 23.5434 22.568C23.6386 22.5406 23.881 22.3883 23.9719 22.2987C24.012 22.2592 24.0677 22.2146 24.0957 22.1996C24.1236 22.1847 24.1634 22.1389 24.1841 22.0979C24.2048 22.0568 24.247 21.9962 24.278 21.963C24.3275 21.91 24.3854 21.7807 24.5101 21.4442C24.5462 21.347 24.5627 5.05576 24.5268 4.95145C24.4483 4.72322 24.3403 4.47976 24.2965 4.43246C24.267 4.40058 24.2184 4.33117 24.1884 4.27823C24.0685 4.06587 23.5599 3.75969 23.2536 3.71541C23.0523 3.68628 3.83917 3.68786 3.63941 3.71699ZM23.2784 3.77301C23.3039 3.78416 23.3591 3.81657 23.4012 3.84511C23.4432 3.87358 23.537 3.90966 23.6096 3.92528C23.7055 3.94588 23.7562 3.97146 23.7951 4.01883C23.8244 4.05471 23.884 4.10096 23.9274 4.12156C23.9707 4.1421 24.0125 4.17884 24.0203 4.20311C24.028 4.22732 24.055 4.25835 24.0805 4.27193C24.106 4.28557 24.1467 4.34311 24.171 4.39985C24.1961 4.45837 24.2369 4.51099 24.2654 4.52155C24.3087 4.53756 24.3247 4.58453 24.3812 4.86262L24.4468 5.1852L24.4464 13.1757C24.4461 17.5705 24.4369 21.2133 24.426 21.2705C24.3388 21.7269 24.3274 21.766 24.263 21.8261C24.2276 21.8593 24.1792 21.9407 24.1557 22.0069C24.1256 22.0918 24.1005 22.1275 24.0711 22.1275C24.0482 22.1275 23.9855 22.1722 23.9318 22.2269C23.8782 22.2816 23.7864 22.3444 23.7279 22.3664C23.6666 22.3895 23.6088 22.4301 23.5917 22.4622C23.5418 22.5555 23.5618 22.5553 13.4349 22.5543C2.97727 22.5534 3.44391 22.5588 3.2984 22.4372C3.2452 22.3928 3.17172 22.3504 3.13498 22.3431C3.09378 22.3349 3.05567 22.3054 3.03527 22.2659C3.01709 22.2308 2.97025 22.1909 2.93115 22.1772C2.88379 22.1607 2.85184 22.1287 2.83531 22.0814C2.82166 22.0422 2.78053 21.9948 2.74353 21.9756C2.70672 21.9566 2.67654 21.9283 2.67648 21.9127C2.67609 21.8326 2.61953 21.7 2.55373 21.625L2.47973 21.5407L2.47363 13.305C2.46733 4.89687 2.46845 4.78167 2.55649 4.72007C2.58129 4.70268 2.6259 4.61956 2.65562 4.53533C2.69176 4.43298 2.731 4.36699 2.7739 4.33648C2.8092 4.31136 2.84666 4.25782 2.85709 4.21754C2.87217 4.15929 2.89159 4.14111 2.95201 4.12878C2.99466 4.12005 3.05508 4.08168 3.08972 4.04133C3.13597 3.9874 3.18904 3.96011 3.30195 3.93203C3.47055 3.89005 3.51194 3.87174 3.57053 3.81303C3.59939 3.78403 3.66165 3.76901 3.78656 3.76074C4.10087 3.74001 23.2303 3.75208 23.2784 3.77301ZM3.94742 5.19458L3.89251 5.23899V13.1563V21.0736L3.95897 21.1605L4.02542 21.2474L13.4203 21.2456C20.5525 21.2443 22.8321 21.2373 22.8855 21.2167C22.9829 21.1789 23.0458 21.1298 23.0808 21.0639C23.1048 21.0185 23.1109 19.5058 23.1121 13.1479L23.1136 5.28787L23.0507 5.22495L22.9878 5.16197L13.495 5.15607C4.16805 5.15023 4.00128 5.15095 3.94742 5.19458ZM22.8233 5.22856C22.8935 5.23512 22.9664 5.25743 22.9913 5.27999C23.0423 5.32611 23.0625 20.9216 23.0116 21.0165C22.9464 21.1383 23.5128 21.1316 13.398 21.1316H4.0472L3.98718 21.0602L3.92708 20.9888L3.93299 13.1531C3.9387 5.50279 3.93988 5.31627 3.98272 5.26897C4.02516 5.22207 4.0493 5.22036 4.75861 5.21446C6.06655 5.2035 22.6956 5.21649 22.8233 5.22856ZM5.66526 8.47943C5.55419 8.50029 5.55006 8.52495 5.5494 9.18047C5.54868 9.92402 5.55484 9.95617 5.70258 9.97637C5.84803 9.99632 11.6597 9.99061 11.7321 9.97047C11.8966 9.92468 11.9069 8.53972 11.7431 8.47687C11.7005 8.46047 5.7529 8.46303 5.66526 8.47943ZM11.7065 8.56957L11.7789 8.58406V9.19306V9.80206L11.6689 9.83815C11.5716 9.87009 11.2247 9.87423 8.67529 9.8739L5.79174 9.87351L5.70488 9.81617L5.61802 9.75883V9.18204V8.60532L5.68172 8.58203C5.75185 8.55638 11.5805 8.54437 11.7065 8.56957ZM19.8147 10.549C19.8005 10.5755 19.726 10.6563 19.6492 10.7285C19.5102 10.8589 19.4346 10.9345 19.3708 11.007C19.3524 11.0279 19.315 11.0658 19.2876 11.0912C19.2603 11.1167 19.1701 11.2053 19.0873 11.2881C19.0045 11.3709 18.9183 11.4566 18.8957 11.4784C18.8731 11.5003 18.8285 11.5446 18.7967 11.5767C18.5843 11.7912 18.4081 11.9674 18.3103 12.0632C18.2785 12.0944 18.1907 12.1803 18.1153 12.2541C18.0399 12.3279 17.868 12.5017 17.7331 12.6405C17.5984 12.7792 17.469 12.9095 17.4456 12.93C17.4222 12.9505 17.2309 13.1366 17.0204 13.3437C16.8033 13.5572 16.6192 13.7201 16.5948 13.7201C16.5518 13.7201 16.4622 13.6445 16.2436 13.4239C15.8649 13.0416 15.5994 12.7985 15.5235 12.7645L15.4312 12.7232L14.9746 13.1774C14.625 13.5251 14.5119 13.652 14.4919 13.7185L14.4659 13.8053L15.0043 14.3525C15.3004 14.6534 15.5696 14.9287 15.6026 14.9642C15.6357 14.9996 15.6877 15.0527 15.7184 15.082C15.7491 15.1113 15.7927 15.153 15.8153 15.1746C15.8379 15.1963 15.9235 15.2817 16.0055 15.3645C16.0875 15.4473 16.1785 15.539 16.2076 15.5683C16.5056 15.8679 16.561 15.8969 16.6855 15.8183C16.7508 15.7771 17.5798 14.9652 17.8416 14.6861C17.851 14.6761 18.5376 13.991 19.3674 13.1637C20.1972 12.3363 20.8967 11.6247 20.9218 11.5821C20.9841 11.4765 20.9414 11.3954 20.6891 11.1408C20.5846 11.0352 20.4886 10.9373 20.4759 10.9233C20.4632 10.9092 20.3839 10.8318 20.2998 10.7513C20.2156 10.6707 20.1346 10.5814 20.1195 10.5528C20.0803 10.4782 19.8541 10.4754 19.8147 10.549ZM20.1193 10.6941C20.1619 10.7495 20.2375 10.825 20.2874 10.862C20.3373 10.8989 20.4195 10.9812 20.4703 11.0449C20.5209 11.1086 20.6239 11.2165 20.6991 11.2846C20.9386 11.5019 20.9454 11.4775 20.5337 11.8802C20.3151 12.0941 19.3532 13.0558 18.7565 13.6572C18.7213 13.6927 18.4527 13.9599 18.1598 14.2509C17.8668 14.542 17.4472 14.9611 17.2273 15.1823C16.6851 15.7279 16.628 15.7814 16.5889 15.7814C16.5541 15.7814 16.376 15.6293 16.2281 15.4734C16.1823 15.4251 15.9363 15.1742 15.6815 14.9158C15.4268 14.6575 15.1437 14.3687 15.0524 14.2741C14.9612 14.1795 14.8197 14.0374 14.7381 13.9583C14.5601 13.7859 14.5445 13.6626 14.6892 13.57C14.7293 13.5442 14.7795 13.4944 14.8006 13.4593C14.8216 13.4242 14.8676 13.3807 14.9025 13.3626C14.9375 13.3445 14.9781 13.3034 14.9928 13.2713C15.0074 13.239 15.0506 13.1966 15.0886 13.1769C15.1267 13.1572 15.1715 13.1126 15.1883 13.0776C15.205 13.0426 15.2473 13.0003 15.2823 12.9836C15.3173 12.9668 15.3622 12.9215 15.3822 12.8828C15.439 12.773 15.5059 12.8095 15.8264 13.1252C16.5386 13.827 16.5097 13.8034 16.6267 13.78C16.7056 13.7642 16.7817 13.7054 16.7817 13.6601C16.7817 13.6438 16.8043 13.6234 16.8318 13.6146C16.8895 13.5963 17.3607 13.1361 17.3607 13.0981C17.3607 13.0841 17.3932 13.0559 17.433 13.0353C17.4728 13.0147 17.5588 12.9404 17.6241 12.8701C17.6894 12.7998 17.7872 12.6974 17.8413 12.6426C17.8954 12.5878 17.9397 12.5271 17.9397 12.5077C17.9397 12.4883 17.9632 12.4652 17.9919 12.4563C18.0643 12.434 18.2671 12.2438 18.3167 12.1518C18.3392 12.1099 18.3688 12.0756 18.3825 12.0756C18.3961 12.0756 18.4565 12.0261 18.5168 11.9655C18.5771 11.9051 18.6794 11.8074 18.7442 11.7486C18.8089 11.6897 18.8783 11.6097 18.8985 11.5707C18.9187 11.5318 18.9581 11.4925 18.9862 11.4837C19.0638 11.459 19.4915 11.0134 19.4915 10.9571C19.4915 10.9405 19.5275 10.9139 19.5714 10.898C19.6153 10.8821 19.6572 10.8513 19.6645 10.8296C19.6718 10.8079 19.7138 10.7641 19.7579 10.7323C19.802 10.7004 19.8441 10.6561 19.8516 10.6338C19.8809 10.5468 20.0325 10.5809 20.1193 10.6941ZM5.62963 12.4202L5.56016 12.435L5.55399 13.1334C5.54697 13.9365 5.53543 13.8932 5.76261 13.9163C5.84232 13.9244 7.22433 13.9279 8.83372 13.924L11.7598 13.9169L11.8062 13.8597C11.8762 13.7731 11.8633 12.4849 11.7919 12.4327C11.7446 12.3981 5.78931 12.3861 5.62963 12.4202ZM11.7065 12.4607L11.7789 12.4751V13.1523V13.8295L11.6714 13.8442C11.5313 13.8635 5.79003 13.8581 5.69911 13.8387L5.62963 13.8238L5.62294 13.2566C5.61605 12.6698 5.63298 12.5133 5.70809 12.4694C5.74962 12.4451 11.5863 12.4366 11.7065 12.4607ZM5.64695 16.4231C5.61828 16.4286 5.58391 16.4534 5.57065 16.4782C5.5332 16.5482 5.5513 17.8547 5.59027 17.8937C5.64459 17.948 11.741 17.9369 11.7954 17.8824C11.8328 17.8451 11.8376 17.7775 11.8447 17.1829L11.8526 16.5247L11.7936 16.4657L11.7347 16.4067L8.71688 16.4099C7.05711 16.4116 5.67562 16.4175 5.64695 16.4231ZM11.692 16.4911L11.7789 16.5054L11.7786 17.1335L11.7783 17.7616L11.6979 17.8137L11.6174 17.8659H8.6892H5.76104L5.68914 17.7681L5.6173 17.6704L5.62347 17.0917L5.62963 16.513L5.6875 16.4969C5.7594 16.4769 11.5723 16.4713 11.692 16.4911Z" fill="#D0021B"/>
<path fillRule="evenodd" clipRule="evenodd" d="M3.68594 3.65622C3.67321 3.66062 3.6139 3.67085 3.5542 3.67886C3.4945 3.68693 3.41053 3.7173 3.36756 3.74649C3.32452 3.77569 3.23931 3.81662 3.1781 3.83742C3.0028 3.89719 2.69158 4.18059 2.58852 4.37432C2.56142 4.4253 2.51655 4.49549 2.48873 4.53039C2.36185 4.68955 2.36855 4.24344 2.36067 13.0713C2.3528 21.889 2.34952 21.6307 2.47076 21.7799C2.49661 21.8117 2.53879 21.8821 2.56444 21.9361C2.63404 22.0829 2.84476 22.3191 2.98398 22.406C3.05161 22.4484 3.12962 22.503 3.15737 22.5276C3.18584 22.5528 3.34211 22.6073 3.51635 22.6528L3.82488 22.7333L13.479 22.7335C20.3032 22.7337 23.1512 22.7264 23.1951 22.7088C23.2292 22.6952 23.3499 22.6627 23.4634 22.6366C23.7281 22.5758 24.2413 22.229 24.2414 22.111C24.2414 22.1008 24.2777 22.0519 24.3219 22.0022C24.3661 21.9525 24.4141 21.8744 24.4286 21.8285C24.4432 21.7827 24.4799 21.6996 24.5103 21.6439C24.5407 21.5882 24.576 21.4787 24.5886 21.4007C24.619 21.2135 24.6193 5.20428 24.5889 4.9765C24.5543 4.71697 24.2714 4.21254 24.0745 4.05923C24.0198 4.01665 23.9698 3.97578 23.9635 3.9685C23.9338 3.93445 23.8071 3.85749 23.7551 3.84195C23.7232 3.83243 23.6654 3.80088 23.6265 3.77182C23.4627 3.64927 24.1117 3.65694 13.541 3.65242C8.13348 3.65006 3.69866 3.65183 3.68594 3.65622ZM23.2555 3.7152C23.5617 3.75948 24.0703 4.06566 24.1903 4.27802C24.2202 4.33096 24.2689 4.40037 24.2983 4.43225C24.3421 4.47955 24.4502 4.72301 24.5287 4.95124C24.5645 5.05555 24.548 21.3467 24.5119 21.444C24.3872 21.7804 24.3293 21.9098 24.2799 21.9628C24.2489 21.996 24.2066 22.0566 24.1859 22.0976C24.1652 22.1387 24.1255 22.1845 24.0975 22.1994C24.0696 22.2143 24.0139 22.259 23.9738 22.2985C23.8828 22.3881 23.6404 22.5404 23.5453 22.5678C23.2101 22.6639 23.4029 22.6622 13.321 22.6551L3.75541 22.6484L3.51222 22.5947C3.3505 22.559 3.24967 22.5238 3.21116 22.4897C3.17928 22.4614 3.09314 22.3982 3.01966 22.3492C2.86399 22.2453 2.67105 22.0316 2.61771 21.9041C2.59724 21.8551 2.55663 21.7867 2.5275 21.752C2.40725 21.6091 2.41211 21.9686 2.41211 13.1871C2.41211 4.23058 2.40319 4.7791 2.55191 4.55414C2.59606 4.48749 2.63214 4.4232 2.63214 4.41132C2.63214 4.39938 2.67898 4.33476 2.73632 4.26758C2.79366 4.20041 2.84057 4.13775 2.84057 4.12831C2.84057 4.11879 2.86169 4.10436 2.88747 4.09623C2.91325 4.08803 2.96797 4.04709 3.00904 4.0053C3.05247 3.96108 3.13703 3.91182 3.21116 3.88761C3.28123 3.86465 3.37576 3.82135 3.42122 3.7913C3.46702 3.76112 3.56509 3.72786 3.64126 3.71678C3.84102 3.68765 23.0541 3.68607 23.2555 3.7152ZM4.76046 5.21425C4.05115 5.22015 4.02701 5.22186 3.98456 5.26876C3.94173 5.31606 3.94054 5.50258 3.93484 13.1529L3.92893 20.9886L3.98903 21.06L4.04905 21.1314H13.3999C23.5146 21.1314 22.9483 21.1381 23.0135 21.0163C23.0643 20.9214 23.0441 5.3259 22.9931 5.27978C22.9682 5.25722 22.8954 5.23491 22.8252 5.22835C22.6975 5.21628 6.0684 5.20329 4.76046 5.21425ZM22.8661 5.29336C22.979 5.33417 22.9736 4.93484 22.973 13.2447L22.9725 20.9804L22.8832 21.0206C22.7989 21.0584 22.2613 21.0607 13.4199 21.0613L4.04604 21.0619L4.01061 21.0078C3.95983 20.9303 3.96797 5.36559 4.01881 5.30432C4.05988 5.25486 22.7297 5.24403 22.8661 5.29336ZM5.66619 8.38645C5.49614 8.41742 5.47508 8.52107 5.48466 9.27932C5.49207 9.8628 5.49503 9.89836 5.54134 9.96029L5.59015 10.0256L8.68278 10.0315C11.6993 10.0372 11.7767 10.0363 11.8302 9.99302L11.885 9.94867L11.8926 9.28332C11.9012 8.54679 11.8855 8.43703 11.7652 8.39124C11.7086 8.36972 5.78362 8.36507 5.66619 8.38645ZM11.745 8.47666C11.8383 8.51241 11.8503 8.59632 11.8484 9.19646C11.8465 9.83157 11.8299 9.94356 11.7339 9.97026C11.6616 9.9904 5.84988 9.99611 5.70443 9.97616C5.55669 9.95596 5.55053 9.92381 5.55125 9.18026C5.5519 8.52474 5.55604 8.50008 5.6671 8.47922C5.75475 8.46282 11.7023 8.46026 11.745 8.47666ZM18.8867 11.4046C18.3478 11.9401 17.8964 12.3889 17.8837 12.4018C17.818 12.4684 16.7597 13.524 16.6859 13.5964L16.5998 13.6809L16.489 13.5798C16.4281 13.5241 16.2161 13.3155 16.018 13.116C15.7555 12.8517 15.6277 12.7399 15.5469 12.7042L15.4361 12.6552L15.3629 12.7126C15.0992 12.9192 14.4222 13.6424 14.4091 13.7314L14.3954 13.824L15.4009 14.8352C16.0476 15.4855 16.4411 15.8641 16.5036 15.8959L16.6008 15.9455L16.6864 15.894C16.7334 15.8657 17.6422 14.9735 18.7059 13.9114C19.7696 12.8493 20.7002 11.9209 20.774 11.8483C20.8477 11.7757 20.9393 11.6678 20.9777 11.6084L21.0473 11.5005L20.9782 11.3884C20.8207 11.1328 20.0799 10.4309 19.9676 10.4309H19.8666L18.8867 11.4046ZM20.1213 10.5526C20.1364 10.5812 20.2175 10.6705 20.3016 10.7511C20.3858 10.8316 20.465 10.909 20.4777 10.9231C20.4905 10.9371 20.5865 11.035 20.691 11.1406C20.9432 11.3952 20.986 11.4763 20.9237 11.5819C20.8985 11.6245 20.1991 12.3361 19.3692 13.1635C18.5395 13.9908 17.8528 14.6759 17.8434 14.6859C17.5816 14.965 16.7526 15.7769 16.6874 15.8181C16.5628 15.8967 16.5074 15.8677 16.2094 15.5681C16.1803 15.5388 16.0894 15.4471 16.0074 15.3643C15.9254 15.2815 15.8398 15.1961 15.8171 15.1744C15.7946 15.1528 15.7509 15.1111 15.7203 15.0818C15.6896 15.0525 15.6375 14.9994 15.6044 14.964C15.5714 14.9285 15.3022 14.6532 15.0061 14.3523L14.4678 13.8051L14.4938 13.7183C14.5137 13.6517 14.6269 13.5249 14.9765 13.1772L15.4331 12.723L15.5253 12.7643C15.6012 12.7982 15.8668 13.0414 16.2455 13.4236C16.464 13.6443 16.5537 13.7198 16.5967 13.7198C16.621 13.7198 16.8052 13.557 17.0223 13.3435C17.2327 13.1364 17.424 12.9503 17.4474 12.9298C17.4708 12.9092 17.6002 12.779 17.735 12.6403C17.8698 12.5015 18.0417 12.3277 18.1172 12.2539C18.1926 12.1801 18.2804 12.0942 18.3122 12.063C18.41 11.9672 18.5862 11.791 18.7986 11.5765C18.8304 11.5444 18.875 11.5001 18.8976 11.4782C18.9202 11.4564 19.0064 11.3707 19.0892 11.2879C19.172 11.2051 19.2621 11.1165 19.2895 11.091C19.3168 11.0656 19.3543 11.0277 19.3727 11.0068C19.4365 10.9343 19.5121 10.8587 19.651 10.7282C19.7278 10.6561 19.8024 10.5753 19.8166 10.5488C19.856 10.4751 20.0822 10.478 20.1213 10.5526ZM5.59087 12.3803C5.49778 12.4143 5.49253 12.4577 5.49253 13.1924V13.8577L5.55669 13.922L5.62092 13.9862H8.66034C10.332 13.9862 11.7282 13.9782 11.7629 13.9685C11.8879 13.9335 11.8966 13.8801 11.8966 13.1409V12.467L11.8397 12.4102L11.7828 12.3533L8.71873 12.3552C6.72805 12.3563 5.63233 12.3651 5.59087 12.3803ZM11.7937 12.4325C11.8652 12.4847 11.8781 13.7729 11.808 13.8594L11.7617 13.9167L8.83557 13.9238C7.22618 13.9277 5.84417 13.9242 5.76446 13.9161C5.53727 13.893 5.54882 13.9363 5.55584 13.1332L5.56201 12.4348L5.63148 12.42C5.79116 12.3859 11.7464 12.3979 11.7937 12.4325ZM5.6015 16.3612C5.4882 16.4068 5.47561 16.4982 5.4844 17.2097C5.4924 17.8549 5.49325 17.8651 5.54528 17.9171L5.59802 17.9699H8.68875H11.7795L11.8322 17.9172C11.8844 17.865 11.885 17.8566 11.892 17.1871L11.8991 16.5097L11.8448 16.4291L11.7905 16.3486L8.72254 16.3443C6.89114 16.3416 5.63319 16.3485 5.6015 16.3612ZM11.7955 16.4655L11.8545 16.5245L11.8466 17.1827C11.8394 17.7773 11.8346 17.8449 11.7973 17.8822C11.7428 17.9367 5.64644 17.9477 5.59212 17.8935C5.55315 17.8545 5.53504 16.548 5.5725 16.478C5.60865 16.4105 5.49076 16.413 8.71873 16.4097L11.7365 16.4065L11.7955 16.4655Z" fill="#BCDCD4"/>
<path fillRule="evenodd" clipRule="evenodd" d="M3.75237 3.60215C3.41602 3.62071 3.31375 3.64571 3.19855 3.73723C3.15052 3.77541 3.09745 3.80663 3.08072 3.80663C3.01951 3.80663 2.93672 3.85951 2.9116 3.91468C2.89743 3.94578 2.85459 3.98212 2.8164 3.99544C2.77822 4.00876 2.747 4.02693 2.747 4.03585C2.747 4.04478 2.71085 4.08807 2.66663 4.13203C2.62241 4.17598 2.574 4.24848 2.55898 4.29302C2.54395 4.33763 2.49672 4.4054 2.45401 4.44358C2.3804 4.50945 2.37502 4.52519 2.35062 4.7447C2.33422 4.89244 2.30902 5.00253 2.28101 5.04878C2.23817 5.1195 2.23712 5.31113 2.23732 13.1551C2.23752 21.0074 2.24021 21.3331 2.30594 21.3738C2.31723 21.3807 2.33336 21.4567 2.34189 21.5425C2.36348 21.7613 2.39162 21.858 2.4485 21.9091C2.47553 21.9335 2.52079 22.0056 2.54907 22.0693C2.57859 22.1359 2.63593 22.2124 2.68375 22.2488C2.72955 22.2837 2.77317 22.3317 2.78065 22.3554C2.7882 22.3791 2.83504 22.4168 2.88476 22.4392C2.93449 22.4617 3.00377 22.5098 3.0386 22.5462C3.10605 22.6165 3.1809 22.6469 3.34917 22.6722C3.40651 22.6808 3.47421 22.7069 3.49973 22.7302C3.52519 22.7535 3.57551 22.7836 3.61159 22.7974C3.70094 22.8312 23.1726 22.8322 23.294 22.7983C23.3403 22.7855 23.4028 22.7556 23.4329 22.7319C23.4631 22.7082 23.5346 22.6811 23.5919 22.6715C23.7419 22.6467 23.8661 22.5923 23.8811 22.5451C23.8882 22.5227 23.9353 22.4881 23.9858 22.4683C24.0365 22.4483 24.0886 22.4079 24.1023 22.3778C24.1159 22.3479 24.158 22.3057 24.1958 22.284C24.2393 22.2589 24.2696 22.2191 24.2784 22.1749C24.2874 22.1298 24.3182 22.0899 24.3659 22.0618C24.418 22.031 24.4483 21.9888 24.4699 21.9167C24.4867 21.8607 24.5249 21.7859 24.5548 21.7503C24.6602 21.6251 24.6571 21.879 24.6567 13.1753C24.6562 4.55918 24.6577 4.68809 24.5564 4.60569C24.5249 4.5801 24.487 4.51299 24.4718 4.45572C24.4548 4.39143 24.414 4.32353 24.3646 4.27688C24.3207 4.23549 24.2743 4.17159 24.2616 4.13485C24.2487 4.09811 24.2101 4.05376 24.1757 4.03631C24.1412 4.0188 24.0766 3.96631 24.032 3.9196C23.9809 3.86607 23.9127 3.82441 23.8473 3.80683C23.7903 3.79148 23.7298 3.7592 23.7129 3.73506C23.6683 3.67136 23.6178 3.64984 23.439 3.61842C23.2639 3.58771 4.29721 3.57197 3.75237 3.60215ZM23.4634 3.68756C23.5138 3.70475 23.5868 3.74254 23.6256 3.7716C23.6644 3.80066 23.7222 3.83222 23.7541 3.84173C23.8061 3.85728 23.9329 3.93423 23.9625 3.96828C23.9689 3.97556 24.0189 4.01643 24.0736 4.05901C24.2705 4.21233 24.5534 4.71676 24.588 4.97628C24.6184 5.20406 24.618 21.2133 24.5877 21.4005C24.575 21.4785 24.5398 21.5879 24.5093 21.6436C24.479 21.6993 24.4422 21.7825 24.4277 21.8283C24.4132 21.8742 24.3651 21.9523 24.3209 22.002C24.2767 22.0517 24.2405 22.1006 24.2405 22.1107C24.2404 22.2288 23.7271 22.5756 23.4624 22.6364C23.3489 22.6625 23.2282 22.6949 23.1941 22.7086C23.1503 22.7262 20.3022 22.7335 13.4781 22.7333L3.82395 22.7331L3.51541 22.6526C3.34117 22.6071 3.1849 22.5526 3.15643 22.5274C3.12868 22.5028 3.05068 22.4481 2.98304 22.4058C2.84383 22.3188 2.63311 22.0827 2.5635 21.9359C2.53785 21.8819 2.49567 21.8115 2.46982 21.7796C2.34858 21.6305 2.35186 21.8888 2.35974 13.0711C2.36761 4.24323 2.36092 4.68933 2.4878 4.53018C2.51561 4.49528 2.56048 4.42508 2.58758 4.37411C2.69064 4.18038 3.00187 3.89697 3.17716 3.83721C3.23837 3.81641 3.32359 3.77547 3.36662 3.74628C3.40959 3.71708 3.49357 3.68671 3.55327 3.67864C3.61297 3.67064 3.67227 3.6604 3.685 3.65601C3.76654 3.62767 23.3796 3.65896 23.4634 3.68756ZM4.01787 5.30411C3.96703 5.36538 3.95889 20.9301 4.00967 21.0076L4.0451 21.0617L13.419 21.0611C22.2603 21.0605 22.798 21.0582 22.8822 21.0203L22.9715 20.9802L22.972 13.2445C22.9726 4.93462 22.978 5.33396 22.8652 5.29315C22.7287 5.24382 4.05894 5.25464 4.01787 5.30411ZM22.8151 5.41714C22.847 5.50059 22.8508 6.33513 22.8508 13.2393V20.9681L22.7987 20.9807C22.7701 20.9876 18.5359 20.9904 13.3895 20.987L4.03244 20.9806L4.02555 13.2911C4.02181 9.06189 4.02496 5.5391 4.03257 5.46267L4.04648 5.32372H13.4129H22.7794L22.8151 5.41714ZM5.55995 8.30292C5.44902 8.35685 5.44567 8.38073 5.43826 9.17814C5.43078 9.97903 5.43688 10.0331 5.54054 10.0803C5.58233 10.0993 6.44725 10.1065 8.71314 10.1065H11.8283L11.8851 10.0496L11.942 9.99274L11.9418 9.25634C11.9417 8.4851 11.9299 8.37292 11.8432 8.31217C11.782 8.26927 5.64773 8.26028 5.55995 8.30292ZM11.7642 8.39103C11.8846 8.43682 11.9002 8.54657 11.8917 9.28311L11.884 9.94846L11.8292 9.99281C11.7758 10.036 11.6984 10.037 8.68184 10.0313L5.58921 10.0254L5.5404 9.96007C5.49409 9.89814 5.49114 9.86258 5.48372 9.2791C5.47414 8.52086 5.4952 8.4172 5.66525 8.38624C5.78268 8.36485 11.7077 8.36951 11.7642 8.39103ZM19.8001 10.3941C19.7552 10.4144 19.7199 10.4508 19.7111 10.4856C19.7022 10.5215 19.6714 10.5523 19.6303 10.5666C19.5877 10.5815 19.5519 10.6183 19.5306 10.6692C19.5085 10.7223 19.4768 10.7539 19.4355 10.7642C19.3944 10.7745 19.3625 10.8062 19.3407 10.8583C19.3223 10.9025 19.2849 10.9439 19.2555 10.9529C19.1835 10.9748 19.1219 11.0324 19.1219 11.0778C19.1219 11.0985 19.0904 11.1273 19.052 11.1418C19.0068 11.1588 18.9702 11.1965 18.9486 11.2484C18.9267 11.3007 18.8944 11.3337 18.8557 11.3435C18.82 11.3524 18.7819 11.3882 18.7604 11.4331C18.7406 11.4741 18.6915 11.5233 18.6511 11.5424C18.6108 11.5616 18.5658 11.6017 18.5512 11.6317C18.5365 11.6618 18.5 11.6985 18.47 11.7135C18.44 11.7284 18.3977 11.7782 18.376 11.8242C18.3512 11.8766 18.3116 11.9164 18.2698 11.931C18.2306 11.9447 18.1917 11.9819 18.1753 12.0215C18.1589 12.0612 18.1186 12.0997 18.0774 12.1153C18.0345 12.1314 17.9973 12.1679 17.9818 12.209C17.9669 12.2487 17.9293 12.2865 17.8903 12.3012C17.8488 12.3169 17.8115 12.3562 17.7905 12.4064C17.7686 12.4588 17.7364 12.4918 17.6976 12.5016C17.6649 12.5098 17.6186 12.5486 17.5947 12.5879C17.5708 12.6272 17.5268 12.6713 17.497 12.6858C17.4671 12.7004 17.4271 12.7448 17.4079 12.7845C17.3888 12.8242 17.3444 12.8676 17.3092 12.8809C17.2717 12.8951 17.2322 12.936 17.2139 12.9797C17.1945 13.0257 17.1541 13.0661 17.1081 13.0854C17.0619 13.1049 17.0236 13.1433 17.0072 13.1866C16.9927 13.225 16.9641 13.2564 16.9437 13.2564C16.8971 13.2564 16.8058 13.3514 16.8058 13.3997C16.8058 13.4213 16.7781 13.4414 16.7373 13.4495C16.6997 13.4571 16.6524 13.4884 16.6322 13.5193L16.5955 13.5752L16.5287 13.5084C16.492 13.4717 16.4478 13.4417 16.4304 13.4417C16.4132 13.4417 16.3869 13.4097 16.3722 13.3707C16.3556 13.3266 16.3196 13.29 16.2769 13.2739C16.2368 13.2588 16.1954 13.2185 16.177 13.177C16.1596 13.1373 16.1142 13.0919 16.0746 13.0745C16.0329 13.0562 15.9927 13.0147 15.9776 12.9746C15.962 12.9333 15.925 12.896 15.8845 12.8807C15.8451 12.8658 15.807 12.8281 15.7926 12.79C15.779 12.7541 15.7382 12.7118 15.702 12.6961C15.6658 12.6805 15.6019 12.6385 15.5601 12.603C15.4581 12.5165 15.4235 12.5211 15.3089 12.6368C15.2553 12.691 15.1947 12.7509 15.1742 12.77C15.1537 12.7891 15.0766 12.8685 15.003 12.9464C14.9293 13.0242 14.8463 13.1001 14.8186 13.115C14.7908 13.1298 14.7524 13.1723 14.7331 13.2094C14.714 13.2466 14.6696 13.2906 14.6347 13.3074C14.5998 13.3242 14.5574 13.3665 14.5407 13.4014C14.5239 13.4364 14.4791 13.4811 14.4411 13.5008C14.2794 13.5844 14.2813 13.9114 14.4439 13.963C14.4695 13.9711 14.5052 14.0131 14.5233 14.0563C14.5447 14.1076 14.577 14.1401 14.6164 14.15C14.655 14.1597 14.6931 14.197 14.7218 14.2534C14.7466 14.3019 14.7879 14.3483 14.8138 14.3565C14.8396 14.3647 14.8765 14.4019 14.8958 14.4392C14.9151 14.4764 14.9656 14.5214 15.0082 14.5393C15.0593 14.5606 15.0909 14.5927 15.1011 14.6335C15.1114 14.6744 15.143 14.7064 15.1944 14.7279C15.2452 14.7491 15.2805 14.7846 15.2965 14.8305C15.31 14.8691 15.3476 14.9128 15.38 14.9276C15.4125 14.9423 15.4594 14.9889 15.4842 15.0311C15.5094 15.0738 15.556 15.1144 15.5894 15.1228C15.6282 15.1325 15.6608 15.1652 15.6818 15.2154C15.7028 15.2658 15.7353 15.2982 15.7745 15.308C15.8129 15.3177 15.851 15.3549 15.8793 15.4104C15.9063 15.4632 15.946 15.5031 15.9803 15.5117C16.0156 15.5206 16.0459 15.5519 16.061 15.5952C16.0764 15.6394 16.1152 15.6789 16.1676 15.7039C16.2154 15.7267 16.2499 15.7601 16.2499 15.7835C16.2499 15.8217 16.3509 15.9199 16.3902 15.9199C16.4003 15.9199 16.4398 15.9512 16.4779 15.9894C16.5662 16.0776 16.6229 16.0772 16.7054 15.9875C16.7415 15.9483 16.7945 15.9069 16.8231 15.8955C16.8518 15.8841 16.895 15.8422 16.9192 15.8024C16.9435 15.7625 16.9958 15.7102 17.0356 15.686C17.0755 15.6618 17.1176 15.6168 17.1293 15.5859C17.141 15.5552 17.1798 15.516 17.2154 15.4989C17.251 15.4818 17.2938 15.4392 17.3106 15.4043C17.3274 15.3693 17.3716 15.325 17.4088 15.3057C17.4461 15.2864 17.492 15.241 17.5107 15.2048C17.5294 15.1686 17.5758 15.1261 17.6138 15.1104C17.6545 15.0935 17.6922 15.055 17.7056 15.0167C17.718 14.9809 17.7577 14.9374 17.7937 14.9202C17.8297 14.9029 17.8724 14.8612 17.8885 14.8275C17.9047 14.7938 17.9545 14.7446 17.9992 14.7182C18.0438 14.6919 18.0898 14.6454 18.1014 14.6148C18.1132 14.5838 18.1492 14.5526 18.1828 14.5441C18.2197 14.5349 18.257 14.4998 18.279 14.4537C18.2987 14.4123 18.3454 14.3609 18.3827 14.3395C18.4201 14.3181 18.4605 14.2746 18.4725 14.2428C18.4846 14.211 18.5267 14.1684 18.566 14.1481C18.6053 14.1277 18.6491 14.0856 18.6633 14.0545C18.6775 14.0233 18.7241 13.9771 18.7669 13.9519C18.8097 13.9267 18.8544 13.8806 18.8662 13.8495C18.878 13.8183 18.9168 13.7789 18.9524 13.7618C18.9881 13.7448 19.0309 13.7022 19.0477 13.6672C19.0644 13.6322 19.1093 13.5876 19.1473 13.5679C19.1854 13.5482 19.2281 13.5066 19.2423 13.4754C19.2565 13.4443 19.3032 13.3981 19.3459 13.3729C19.3887 13.3477 19.4339 13.3002 19.4464 13.2674C19.4593 13.2332 19.4983 13.1976 19.5375 13.1838C19.5768 13.1702 19.6184 13.132 19.635 13.0944C19.6511 13.0583 19.6982 13.0125 19.7398 12.9927C19.7857 12.9708 19.8214 12.9333 19.8304 12.8972C19.8398 12.8598 19.8727 12.8264 19.9196 12.8068C19.9644 12.7881 20.0056 12.7477 20.0232 12.7053C20.0398 12.6652 20.0815 12.6229 20.1201 12.6069C20.1597 12.5905 20.1938 12.5554 20.2021 12.5224C20.2099 12.4913 20.2558 12.4409 20.3041 12.4103C20.3525 12.3798 20.3985 12.3343 20.4065 12.3093C20.4144 12.2843 20.4571 12.2425 20.5013 12.2164C20.5456 12.1903 20.5919 12.1421 20.6044 12.1093C20.6173 12.0755 20.6563 12.0395 20.6945 12.0262C20.7354 12.0119 20.7733 11.9752 20.7909 11.9328C20.8068 11.8943 20.8447 11.8534 20.8751 11.8418C20.9055 11.8302 20.9482 11.7881 20.97 11.7481C20.9917 11.7081 21.0434 11.6438 21.0848 11.6052C21.1779 11.5184 21.1786 11.488 21.0898 11.3992C21.0512 11.3606 21.005 11.294 20.9871 11.2512C20.966 11.2008 20.9335 11.1682 20.8944 11.1584C20.856 11.1487 20.8229 11.1163 20.8031 11.0689C20.7849 11.0253 20.7441 10.983 20.7045 10.9666C20.6649 10.9502 20.6261 10.9099 20.6108 10.8695C20.594 10.8252 20.5561 10.7885 20.5046 10.767C20.4542 10.7459 20.4191 10.7126 20.4103 10.6775C20.402 10.6443 20.3642 10.6063 20.3175 10.5842C20.2698 10.5616 20.233 10.5241 20.2243 10.4894C20.1979 10.3843 19.9466 10.3278 19.8001 10.3941ZM20.488 10.8534C20.7191 11.0859 20.9393 11.3265 20.9773 11.3882L21.0464 11.5003L20.9767 11.6082C20.9384 11.6676 20.8467 11.7755 20.773 11.8481C20.6993 11.9206 19.7686 12.8491 18.705 13.9112C17.6413 14.9733 16.7325 15.8655 16.6854 15.8938L16.5998 15.9453L16.5027 15.8957C16.4402 15.8639 16.0467 15.4853 15.4 14.835L14.3945 13.8238L14.4081 13.7312C14.4213 13.6421 15.0983 12.919 15.3619 12.7123L15.4352 12.655L15.546 12.704C15.6267 12.7397 15.7546 12.8515 16.0171 13.1157C16.2152 13.3152 16.4272 13.5239 16.4881 13.5796L16.5989 13.6807L16.685 13.5962C16.7587 13.5238 17.8171 12.4682 17.8828 12.4016C17.8955 12.3887 18.3469 11.9399 18.8858 11.4044L19.8656 10.4307H19.9667C20.0669 10.4307 20.0711 10.4341 20.488 10.8534ZM5.49055 12.3636L5.43367 12.4205V13.1403C5.43367 13.9067 5.44023 13.9587 5.54874 14.0555C5.6001 14.1012 5.63343 14.1018 8.69201 14.1018H11.7834L11.8626 14.0152L11.942 13.9287V13.1657V12.4028L11.8809 12.3548L11.8199 12.3068H8.68361H5.54736L5.49055 12.3636ZM11.8388 12.41L11.8956 12.4668V13.1407C11.8956 13.8799 11.887 13.9333 11.762 13.9683C11.7272 13.978 10.3311 13.986 8.65941 13.986H5.61998L5.55576 13.9218L5.4916 13.8575V13.1922C5.4916 12.4575 5.49684 12.414 5.58994 12.3801C5.6314 12.3649 6.72711 12.3561 8.71779 12.3549L11.7819 12.3531L11.8388 12.41ZM5.53188 16.2731C5.44023 16.371 5.43367 16.4315 5.43367 17.1811C5.43367 17.8609 5.43649 17.9101 5.47795 17.9613L5.52223 18.016L8.67495 18.022L11.8277 18.028L11.8848 17.9709L11.942 17.9139V17.1707C11.942 16.378 11.9284 16.2795 11.8136 16.2355C11.793 16.2275 10.3821 16.221 8.67836 16.221H5.58069L5.53188 16.2731ZM11.8438 16.4289L11.8981 16.5095L11.891 17.1869C11.8841 17.8564 11.8834 17.8648 11.8313 17.917L11.7785 17.9696H8.68781H5.59709L5.54434 17.9169C5.47408 17.8467 5.44626 16.6244 5.51141 16.4686C5.5675 16.3343 5.43839 16.3393 8.7216 16.344L11.7896 16.3484L11.8438 16.4289Z" fill="#DCECE9"/>
<path fillRule="evenodd" clipRule="evenodd" d="M0.291992 13.1411V24.7216H13.4127H26.5335V13.1411V1.56055H13.4127H0.291992V13.1411ZM23.439 3.61893C23.6179 3.65036 23.6684 3.67187 23.713 3.73557C23.7299 3.75972 23.7903 3.79199 23.8474 3.80735C23.9128 3.82493 23.981 3.86659 24.0321 3.92012C24.0767 3.96683 24.1413 4.01931 24.1758 4.03683C24.2101 4.05428 24.2488 4.09863 24.2616 4.13536C24.2744 4.1721 24.3208 4.236 24.3646 4.2774C24.4141 4.32404 24.4548 4.39194 24.4719 4.45623C24.4871 4.5135 24.525 4.58062 24.5565 4.6062C24.6578 4.6886 24.6563 4.55969 24.6568 13.1758C24.6572 21.8795 24.6603 21.6257 24.5549 21.7508C24.525 21.7864 24.4868 21.8612 24.47 21.9172C24.4484 21.9893 24.4181 22.0316 24.366 22.0623C24.3183 22.0905 24.2875 22.1303 24.2784 22.1754C24.2696 22.2196 24.2394 22.2595 24.1958 22.2845C24.1581 22.3062 24.116 22.3484 24.1024 22.3783C24.0886 22.4084 24.0366 22.4489 23.9858 22.4688C23.9354 22.4886 23.8883 22.5232 23.8812 22.5456C23.8662 22.5929 23.742 22.6472 23.592 22.672C23.5347 22.6816 23.4632 22.7087 23.433 22.7324C23.4029 22.7561 23.3404 22.786 23.2941 22.7989C23.1727 22.8327 3.70103 22.8317 3.61167 22.7979C3.57559 22.7842 3.52527 22.754 3.49982 22.7307C3.4743 22.7074 3.4066 22.6813 3.34926 22.6727C3.18099 22.6474 3.10613 22.6171 3.03869 22.5467C3.00386 22.5103 2.93458 22.4622 2.88485 22.4397C2.83512 22.4173 2.78828 22.3796 2.78074 22.3559C2.77326 22.3322 2.72963 22.2843 2.68384 22.2494C2.63602 22.2129 2.57868 22.1365 2.54916 22.0699C2.52088 22.0061 2.47561 21.934 2.44859 21.9097C2.39171 21.8585 2.36356 21.7619 2.34198 21.543C2.33345 21.4572 2.31731 21.3812 2.30603 21.3743C2.24029 21.3337 2.2376 21.0079 2.23741 13.1556C2.23721 5.31164 2.23826 5.12001 2.2811 5.04929C2.30911 5.00304 2.3343 4.89296 2.3507 4.74522C2.37511 4.52571 2.38049 4.50996 2.4541 4.4441C2.4968 4.40591 2.54404 4.33815 2.55906 4.29353C2.57409 4.24899 2.6225 4.1765 2.66672 4.13254C2.71093 4.08859 2.74708 4.04529 2.74708 4.03637C2.74708 4.02745 2.77831 4.00927 2.81649 3.99596C2.85467 3.98264 2.89751 3.94629 2.91168 3.9152C2.93681 3.86002 3.0196 3.80715 3.08081 3.80715C3.09754 3.80715 3.15061 3.77592 3.19863 3.73774C3.31383 3.64622 3.41611 3.62123 3.75246 3.60266C4.2973 3.57248 23.264 3.58823 23.439 3.61893ZM4.03265 5.46318C4.02504 5.53961 4.02189 9.06241 4.02563 13.2916L4.03252 20.9811L13.3896 20.9875C18.536 20.9909 22.7701 20.9881 22.7987 20.9812L22.8509 20.9686V13.2399C22.8509 6.33565 22.8471 5.5011 22.8152 5.41766L22.7795 5.32424H13.413H4.04656L4.03265 5.46318ZM11.8433 8.31269C11.93 8.37343 11.9418 8.48562 11.9419 9.25686L11.942 9.99326L11.8852 10.0501L11.8284 10.107H8.71322C6.44733 10.107 5.58241 10.0999 5.54062 10.0808C5.43697 10.0336 5.43087 9.97955 5.43835 9.17866C5.44576 8.38124 5.44911 8.35736 5.56004 8.30343C5.64782 8.26079 11.7821 8.26978 11.8433 8.31269ZM20.1664 10.4093C20.1903 10.4221 20.2164 10.4584 20.2244 10.4899C20.233 10.5246 20.2699 10.5621 20.3175 10.5847C20.3643 10.6068 20.402 10.6448 20.4104 10.678C20.4192 10.7131 20.4543 10.7465 20.5046 10.7675C20.5561 10.789 20.5941 10.8257 20.6109 10.8701C20.6261 10.9105 20.665 10.9507 20.7045 10.9671C20.7442 10.9835 20.785 11.0259 20.8031 11.0694C20.823 11.1169 20.8561 11.1493 20.8945 11.1589C20.9336 11.1687 20.9661 11.2013 20.9872 11.2517C21.0051 11.2945 21.0513 11.3611 21.0899 11.3997C21.1787 11.4886 21.178 11.5189 21.0848 11.6057C21.0435 11.6443 20.9918 11.7087 20.97 11.7486C20.9483 11.7886 20.9056 11.8308 20.8752 11.8423C20.8448 11.8539 20.8069 11.8948 20.791 11.9333C20.7734 11.9757 20.7355 12.0124 20.6946 12.0267C20.6564 12.04 20.6174 12.076 20.6045 12.1098C20.592 12.1426 20.5457 12.1908 20.5014 12.2169C20.4572 12.243 20.4145 12.2848 20.4066 12.3099C20.3986 12.3349 20.3526 12.3803 20.3042 12.4108C20.2559 12.4414 20.21 12.4918 20.2021 12.5229C20.1939 12.5559 20.1598 12.591 20.1201 12.6074C20.0816 12.6234 20.0398 12.6658 20.0232 12.7058C20.0057 12.7482 19.9645 12.7886 19.9197 12.8073C19.8728 12.8269 19.8399 12.8603 19.8305 12.8977C19.8214 12.9338 19.7858 12.9713 19.7399 12.9933C19.6982 13.0131 19.6511 13.0589 19.6351 13.0949C19.6185 13.1325 19.5769 13.1707 19.5376 13.1844C19.4984 13.1981 19.4594 13.2338 19.4465 13.2679C19.434 13.3007 19.3888 13.3482 19.346 13.3734C19.3032 13.3986 19.2566 13.4448 19.2424 13.476C19.2282 13.5071 19.1855 13.5487 19.1474 13.5684C19.1094 13.5881 19.0645 13.6328 19.0478 13.6677C19.031 13.7027 18.9881 13.7453 18.9525 13.7623C18.9169 13.7794 18.8781 13.8188 18.8663 13.85C18.8545 13.8811 18.8098 13.9272 18.767 13.9524C18.7242 13.9776 18.6776 14.0238 18.6634 14.055C18.6492 14.0861 18.6054 14.1283 18.5661 14.1486C18.5268 14.1689 18.4847 14.2115 18.4726 14.2433C18.4606 14.2751 18.4202 14.3186 18.3828 14.34C18.3455 14.3614 18.2988 14.4129 18.279 14.4542C18.2571 14.5003 18.2198 14.5354 18.1829 14.5447C18.1493 14.5531 18.1133 14.5843 18.1015 14.6153C18.0899 14.6459 18.0439 14.6924 17.9992 14.7188C17.9546 14.7451 17.9048 14.7943 17.8886 14.828C17.8725 14.8617 17.8298 14.9034 17.7938 14.9207C17.7578 14.9379 17.7181 14.9814 17.7057 15.0172C17.6923 15.0555 17.6546 15.094 17.6139 15.1109C17.5759 15.1266 17.5295 15.1691 17.5108 15.2053C17.4921 15.2415 17.4462 15.2869 17.4089 15.3062C17.3717 15.3255 17.3275 15.3698 17.3107 15.4048C17.2939 15.4397 17.2511 15.4823 17.2155 15.4994C17.1798 15.5165 17.1411 15.5557 17.1294 15.5864C17.1177 15.6173 17.0755 15.6623 17.0357 15.6865C16.9959 15.7107 16.9435 15.763 16.9193 15.8029C16.8951 15.8427 16.8519 15.8846 16.8232 15.896C16.7946 15.9074 16.7415 15.9488 16.7055 15.9881C16.623 16.0777 16.5663 16.0781 16.478 15.9899C16.4398 15.9517 16.4003 15.9204 16.3903 15.9204C16.351 15.9204 16.25 15.8222 16.25 15.784C16.25 15.7606 16.2155 15.7272 16.1676 15.7045C16.1153 15.6795 16.0765 15.6399 16.0611 15.5958C16.046 15.5525 16.0157 15.5211 15.9804 15.5122C15.9461 15.5036 15.9063 15.4637 15.8794 15.4109C15.8511 15.3554 15.813 15.3182 15.7745 15.3085C15.7354 15.2987 15.7029 15.2663 15.6819 15.2159C15.6609 15.1657 15.6283 15.1331 15.5895 15.1233C15.5561 15.1149 15.5095 15.0743 15.4843 15.0316C15.4595 14.9894 15.4125 14.9429 15.3801 14.9281C15.3477 14.9133 15.3101 14.8697 15.2966 14.831C15.2806 14.7851 15.2453 14.7497 15.1945 14.7284C15.1431 14.707 15.1115 14.6749 15.1012 14.634C15.091 14.5932 15.0593 14.5611 15.0083 14.5398C14.9657 14.522 14.9151 14.4769 14.8959 14.4397C14.8766 14.4024 14.8397 14.3652 14.8138 14.357C14.788 14.3488 14.7467 14.3024 14.7219 14.2539C14.6931 14.1975 14.6551 14.1602 14.6165 14.1505C14.5771 14.1406 14.5448 14.1081 14.5234 14.0568C14.5053 14.0136 14.4696 13.9716 14.444 13.9635C14.2814 13.9119 14.2794 13.5849 14.4412 13.5013C14.4791 13.4816 14.524 13.4369 14.5407 13.402C14.5575 13.367 14.5998 13.3247 14.6348 13.3079C14.6697 13.2912 14.7141 13.2471 14.7332 13.2099C14.7524 13.1728 14.7909 13.1303 14.8186 13.1155C14.8464 13.1006 14.9294 13.0247 15.003 12.9469C15.0767 12.869 15.1537 12.7896 15.1743 12.7705C15.1947 12.7514 15.2554 12.6915 15.309 12.6374C15.4236 12.5216 15.4582 12.517 15.5602 12.6035C15.6019 12.6391 15.6658 12.681 15.7021 12.6967C15.7383 12.7123 15.7791 12.7546 15.7927 12.7905C15.8071 12.8287 15.8452 12.8663 15.8846 12.8812C15.9251 12.8965 15.9621 12.9338 15.9777 12.9751C15.9928 13.0152 16.033 13.0567 16.0747 13.075C16.1142 13.0924 16.1596 13.1378 16.1771 13.1775C16.1955 13.2191 16.2369 13.2593 16.277 13.2744C16.3197 13.2905 16.3557 13.3271 16.3723 13.3713C16.387 13.4102 16.4133 13.4422 16.4305 13.4422C16.4478 13.4422 16.4921 13.4722 16.5288 13.509L16.5956 13.5757L16.6323 13.5198C16.6525 13.489 16.6998 13.4576 16.7374 13.4501C16.7782 13.4419 16.8058 13.4218 16.8058 13.4003C16.8058 13.3519 16.8972 13.2569 16.9438 13.2569C16.9642 13.2569 16.9928 13.2255 17.0073 13.1871C17.0236 13.1438 17.062 13.1054 17.1081 13.086C17.1542 13.0666 17.1946 13.0262 17.214 12.9802C17.2323 12.9365 17.2718 12.8956 17.3093 12.8815C17.3445 12.8681 17.3889 12.8247 17.408 12.785C17.4272 12.7453 17.4672 12.7009 17.497 12.6864C17.5269 12.6718 17.5708 12.6277 17.5948 12.5884C17.6187 12.5491 17.665 12.5103 17.6977 12.5021C17.7365 12.4923 17.7687 12.4593 17.7906 12.407C17.8116 12.3568 17.8489 12.3174 17.8903 12.3017C17.9294 12.287 17.967 12.2492 17.9819 12.2095C17.9974 12.1684 18.0346 12.1319 18.0774 12.1158C18.1187 12.1002 18.159 12.0617 18.1754 12.0221C18.1918 11.9824 18.2307 11.9452 18.2699 11.9315C18.3117 11.917 18.3513 11.8771 18.3761 11.8247C18.3978 11.7787 18.4401 11.7289 18.4701 11.714C18.5001 11.699 18.5366 11.6623 18.5513 11.6322C18.5659 11.6023 18.6109 11.5621 18.6512 11.543C18.6916 11.5239 18.7407 11.4747 18.7604 11.4336C18.782 11.3887 18.8201 11.353 18.8558 11.344C18.8945 11.3343 18.9268 11.3012 18.9487 11.2489C18.9703 11.197 19.0068 11.1594 19.052 11.1423C19.0905 11.1278 19.122 11.099 19.122 11.0783C19.122 11.0329 19.1836 10.9753 19.2556 10.9534C19.285 10.9444 19.3224 10.903 19.3408 10.8588C19.3626 10.8067 19.3945 10.7751 19.4356 10.7648C19.4769 10.7544 19.5086 10.7228 19.5307 10.6698C19.552 10.6189 19.5878 10.582 19.6303 10.5672C19.6715 10.5528 19.7022 10.522 19.7112 10.4861C19.7392 10.3745 20.0146 10.328 20.1664 10.4093ZM11.881 12.3553L11.942 12.4033V13.1663V13.9292L11.8627 14.0158L11.7835 14.1023H8.6921C5.63352 14.1023 5.60019 14.1018 5.54882 14.056C5.44031 13.9592 5.43375 13.9072 5.43375 13.1408V12.421L5.49063 12.3641L5.54745 12.3073H8.6837H11.82L11.881 12.3553ZM11.8137 16.236C11.9285 16.28 11.942 16.3785 11.942 17.1712V17.9144L11.8849 17.9715L11.8278 18.0285L8.67504 18.0225L5.52232 18.0165L5.47804 17.9618C5.43657 17.9106 5.43375 17.8614 5.43375 17.1817C5.43375 16.432 5.44031 16.3715 5.53196 16.2736L5.58077 16.2215H8.67845C10.3822 16.2215 11.7931 16.228 11.8137 16.236Z" fill="#FCFCFC"/>
</g>
<defs>
<clipPath id="clip0_2586_13658">
<rect width="26.2415" height="23.1543" fill="white" transform="translate(0.291992 1.56055)"/>
</clipPath>
</defs>
</svg>
