<svg width="92" height="85" viewBox="0 0 92 85" fill="none" xmlns="http://www.w3.org/2000/svg">
<path d="M35.6652 63.4472L35.6652 63.4471L35.6696 63.4436L58.7613 45.1155L58.7623 45.1146C59.5221 44.5148 59.918 43.6658 59.918 42.4967C59.918 41.3275 59.5221 40.4785 58.7623 39.8787L58.7613 39.8779L35.6696 21.5498L35.6696 21.5498L35.6652 21.5462C35.2533 21.2115 34.877 21.0646 34.5312 21.0484C34.1872 21.0323 33.8129 21.1425 33.3975 21.4329C32.5912 21.9999 32.1596 22.8782 32.1596 24.1685V38.955V39.455H31.6596H8.99297C8.35565 39.455 7.82211 39.7138 7.36607 40.2838C6.90356 40.8619 6.65964 41.5886 6.65964 42.4967C6.65964 43.4048 6.90357 44.1299 7.36554 44.7053L7.3666 44.7067C7.8229 45.279 8.35635 45.5383 8.99297 45.5383H31.6596H32.1596V46.0383V60.8248C32.1596 62.1154 32.5914 62.9921 33.3972 63.5568L33.3975 63.557C33.8133 63.8488 34.1879 63.9597 34.5318 63.944C34.8774 63.9282 35.2534 63.7818 35.6652 63.4472Z" stroke="white"/>
</svg>
