<svg width="92" height="85" viewBox="0 0 92 85" fill="none" xmlns="http://www.w3.org/2000/svg">
<path d="M56.3348 63.4472L56.3348 63.4471L56.3304 63.4436L33.2387 45.1155L33.2377 45.1146C32.4779 44.5148 32.082 43.6658 32.082 42.4967C32.082 41.3275 32.4779 40.4785 33.2377 39.8787L33.2387 39.8779L56.3304 21.5498L56.3304 21.5498L56.3348 21.5462C56.7467 21.2115 57.123 21.0646 57.4688 21.0484C57.8128 21.0323 58.1871 21.1425 58.6025 21.4329C59.4088 21.9999 59.8404 22.8782 59.8404 24.1685V38.955V39.455H60.3404H83.007C83.6443 39.455 84.1779 39.7138 84.6339 40.2838C85.0964 40.8619 85.3404 41.5886 85.3404 42.4967C85.3404 43.4048 85.0964 44.1299 84.6345 44.7053L84.6334 44.7067C84.1771 45.279 83.6437 45.5383 83.007 45.5383H60.3404H59.8404V46.0383V60.8248C59.8404 62.1154 59.4086 62.9921 58.6028 63.5568L58.6025 63.557C58.1867 63.8488 57.8121 63.9597 57.4682 63.944C57.1226 63.9282 56.7466 63.7818 56.3348 63.4472Z" stroke="white"/>
</svg>
