<svg width="38" height="38" viewBox="0 0 38 38" fill="none" xmlns="http://www.w3.org/2000/svg">
<g id="Group">
<path id="Vector" d="M28.127 3.50195C28.5097 3.502 28.8791 3.64252 29.1652 3.89685C29.4512 4.15118 29.6339 4.50164 29.6787 4.88175L29.6896 5.06458V11.3151C29.6896 11.6978 29.549 12.0672 29.2947 12.3532C29.0404 12.6393 28.6899 12.822 28.3098 12.8668L28.127 12.8777H23.4391V14.4403H28.127C28.3494 14.4404 28.5693 14.488 28.7719 14.5799C28.9745 14.6718 29.1551 14.8058 29.3017 14.9732C29.4483 15.1405 29.5575 15.3371 29.6219 15.55C29.6864 15.7629 29.7047 15.9871 29.6756 16.2077L29.6443 16.3827L28.0817 22.6332C28.0041 22.9418 27.8342 23.2194 27.5946 23.4288C27.355 23.6383 27.0572 23.7696 26.7409 23.8051L26.5644 23.8161H23.4391V33.1918C23.4391 33.5746 23.2985 33.944 23.0442 34.23C22.7899 34.516 22.4394 34.6987 22.0593 34.7435L21.8765 34.7545H15.626C15.2433 34.7544 14.8738 34.6139 14.5878 34.3596C14.3018 34.1052 14.1191 33.7548 14.0743 33.3747L14.0634 33.1918V23.8161H10.9381C10.5554 23.816 10.186 23.6755 9.89995 23.4212C9.61393 23.1669 9.43121 22.8164 9.38643 22.4363L9.37549 22.2535V16.003C9.37554 15.6202 9.51606 15.2508 9.77039 14.9648C10.0247 14.6788 10.3752 14.496 10.7553 14.4513L10.9381 14.4403H14.0634V12.8777C14.0633 10.4519 15.0034 8.12051 16.6862 6.37332C18.369 4.62613 20.6634 3.59917 23.0875 3.5082L23.4391 3.50195H28.127Z" fill="white"/>
</g>
</svg>
