<svg width="38" height="38" viewBox="0 0 38 38" fill="none" xmlns="http://www.w3.org/2000/svg">
<g id="ri:instagram-fill">
<path id="Vector" d="M18.7508 3.50195C22.9964 3.50195 23.5261 3.51758 25.1919 3.59571C26.8561 3.67384 27.989 3.9348 28.986 4.32233C30.0173 4.71924 30.8861 5.25678 31.7549 6.12404C32.5495 6.90519 33.1643 7.8501 33.5566 8.89301C33.9426 9.8884 34.2051 11.0229 34.2833 12.6871C34.3567 14.3528 34.377 14.8826 34.377 19.1282C34.377 23.3739 34.3614 23.9036 34.2833 25.5693C34.2051 27.2335 33.9426 28.3664 33.5566 29.3634C33.1655 30.4069 32.5505 31.352 31.7549 32.1324C30.9736 32.9267 30.0287 33.5415 28.986 33.9341C27.9906 34.32 26.8561 34.5826 25.1919 34.6607C23.5261 34.7341 22.9964 34.7545 18.7508 34.7545C14.5051 34.7545 13.9754 34.7388 12.3096 34.6607C10.6454 34.5826 9.51252 34.32 8.51557 33.9341C7.47224 33.5426 6.52717 32.9277 5.7466 32.1324C4.95186 31.3514 4.337 30.4064 3.94489 29.3634C3.55736 28.368 3.2964 27.2335 3.21827 25.5693C3.14483 23.9036 3.12451 23.3739 3.12451 19.1282C3.12451 14.8826 3.14014 14.3528 3.21827 12.6871C3.2964 11.0213 3.55736 9.88997 3.94489 8.89301C4.33592 7.84946 4.95091 6.90429 5.7466 6.12404C6.5274 5.32902 7.4724 4.71413 8.51557 4.32233C9.51252 3.9348 10.6439 3.67384 12.3096 3.59571C13.9754 3.52227 14.5051 3.50195 18.7508 3.50195ZM18.7508 11.3151C16.6786 11.3151 14.6913 12.1382 13.2261 13.6035C11.7608 15.0687 10.9376 17.056 10.9376 19.1282C10.9376 21.2004 11.7608 23.1877 13.2261 24.6529C14.6913 26.1182 16.6786 26.9413 18.7508 26.9413C20.8229 26.9413 22.8102 26.1182 24.2755 24.6529C25.7407 23.1877 26.5639 21.2004 26.5639 19.1282C26.5639 17.056 25.7407 15.0687 24.2755 13.6035C22.8102 12.1382 20.8229 11.3151 18.7508 11.3151ZM28.9078 10.9244C28.9078 10.4064 28.702 9.90956 28.3357 9.54324C27.9694 9.17693 27.4726 8.97114 26.9545 8.97114C26.4365 8.97114 25.9397 9.17693 25.5734 9.54324C25.2071 9.90956 25.0013 10.4064 25.0013 10.9244C25.0013 11.4425 25.2071 11.9393 25.5734 12.3056C25.9397 12.6719 26.4365 12.8777 26.9545 12.8777C27.4726 12.8777 27.9694 12.6719 28.3357 12.3056C28.702 11.9393 28.9078 11.4425 28.9078 10.9244ZM18.7508 14.4403C19.9941 14.4403 21.1864 14.9342 22.0656 15.8134C22.9447 16.6925 23.4386 17.8849 23.4386 19.1282C23.4386 20.3715 22.9447 21.5639 22.0656 22.443C21.1864 23.3222 19.9941 23.8161 18.7508 23.8161C17.5075 23.8161 16.3151 23.3222 15.4359 22.443C14.5568 21.5639 14.0629 20.3715 14.0629 19.1282C14.0629 17.8849 14.5568 16.6925 15.4359 15.8134C16.3151 14.9342 17.5075 14.4403 18.7508 14.4403Z" fill="white"/>
</g>
</svg>
