<svg width="38" height="38" viewBox="0 0 38 38" fill="none" xmlns="http://www.w3.org/2000/svg">
<g id="ri:linkedin-fill">
<path id="Vector" d="M10.8443 8.18931C10.8438 9.01818 10.5142 9.81294 9.92778 10.3987C9.34139 10.9845 8.54631 11.3134 7.71744 11.313C6.88857 11.3126 6.09382 10.9829 5.50801 10.3965C4.9222 9.81014 4.59334 9.01506 4.59375 8.18619C4.59416 7.35732 4.92383 6.56257 5.51022 5.97676C6.09661 5.39095 6.8917 5.06209 7.72056 5.0625C8.54943 5.06291 9.34419 5.39258 9.92999 5.97897C10.5158 6.56536 10.8447 7.36045 10.8443 8.18931ZM10.938 13.6272H4.68751V33.1913H10.938V13.6272ZM20.8138 13.6272H14.5946V33.1913H20.7513V22.9249C20.7513 17.2057 28.205 16.6744 28.205 22.9249V33.1913H34.3774V20.7997C34.3774 11.1583 23.3453 11.5177 20.7513 16.2525L20.8138 13.6272Z" fill="white"/>
</g>
</svg>
