<svg width="38" height="38" viewBox="0 0 38 38" fill="none" xmlns="http://www.w3.org/2000/svg">
<g id="Group">
<path id="Vector" d="M21.967 5.70405C19.1434 6.90259 17.287 9.53717 17.1916 12.5484L17.1885 12.8327L16.8088 12.7968C13.071 12.3765 9.78011 10.4341 7.52055 7.27918C7.36755 7.06536 7.16306 6.8936 6.92604 6.77981C6.68901 6.66602 6.4271 6.61388 6.16457 6.62822C5.90204 6.64255 5.64736 6.7229 5.42414 6.86182C5.20091 7.00073 5.01634 7.19373 4.88753 7.42294L4.73595 7.71359L4.65938 7.86829C3.53585 10.1888 2.79986 13.0093 3.07019 15.9986L3.11707 16.4252C3.55929 19.9614 5.46101 23.0117 9.02223 25.2994L9.29257 25.4666L9.16599 25.5338C7.11114 26.5698 5.2313 27.0214 3.18583 26.9401C1.53569 26.8776 0.926271 29.0841 2.37639 29.8747C7.99871 32.939 14.0351 33.8844 19.2402 32.3749C25.5845 30.531 30.4161 25.776 32.2647 19.1973L32.4632 18.4238C32.8351 16.8721 33.0445 15.2892 33.0898 13.6984L33.0945 13.1797L33.7086 11.9624L34.3961 10.6154L34.7305 9.9372L34.9149 9.55124C35.329 8.66835 35.6275 7.93704 35.8119 7.31668L35.8338 7.22918L35.8463 7.20105C36.19 6.27441 35.5869 5.079 34.3758 5.079L34.1852 5.08994C34.0617 5.10512 33.9406 5.13502 33.8242 5.17901L33.6898 5.23839C33.2439 5.45495 32.7846 5.64285 32.3147 5.80094L31.7584 5.98064L31.335 6.10565L30.1286 6.44005C28.0409 4.69303 25.2157 4.48052 22.2967 5.57435L21.967 5.70405Z" fill="white"/>
</g>
</svg>
