<svg width="92" height="68" viewBox="0 0 92 68" fill="none" xmlns="http://www.w3.org/2000/svg">
<path d="M28.0195 51.0682L4.92787 36.4057C4.03064 35.839 3.58203 35.0362 3.58203 33.9973C3.58203 32.9584 4.03064 32.1557 4.92787 31.589L28.0195 16.9265C28.964 16.3126 29.9207 16.2767 30.8897 16.8188C31.8568 17.3628 32.3404 18.2015 32.3404 19.3348V31.164H83.007C83.8098 31.164 84.4822 31.4351 85.0244 31.9772C85.5684 32.5212 85.8404 33.1946 85.8404 33.9973C85.8404 34.8001 85.5684 35.4726 85.0244 36.0147C84.4822 36.5587 83.8098 36.8307 83.007 36.8307H32.3404V48.6598C32.3404 49.7932 31.8568 50.6309 30.8897 51.173C29.9207 51.717 28.964 51.6821 28.0195 51.0682Z" fill="#FCEFE6"/>
</svg>
