<svg width="92" height="68" viewBox="0 0 92 68" fill="none" xmlns="http://www.w3.org/2000/svg">
<path d="M63.9805 51.0682L87.0721 36.4057C87.9694 35.839 88.418 35.0362 88.418 33.9973C88.418 32.9584 87.9694 32.1557 87.0721 31.589L63.9805 16.9265C63.036 16.3126 62.0793 16.2767 61.1103 16.8188C60.1432 17.3628 59.6596 18.2015 59.6596 19.3348V31.164H8.99297C8.19019 31.164 7.51775 31.4351 6.97564 31.9772C6.43164 32.5212 6.15964 33.1946 6.15964 33.9973C6.15964 34.8001 6.43164 35.4726 6.97564 36.0147C7.51775 36.5587 8.19019 36.8307 8.99297 36.8307H59.6596V48.6598C59.6596 49.7932 60.1432 50.6309 61.1103 51.173C62.0793 51.717 63.036 51.6821 63.9805 51.0682Z" fill="#FCEFE6"/>
</svg>
