<svg width="38" height="38" viewBox="0 0 38 38" fill="none" xmlns="http://www.w3.org/2000/svg">
<g id="ic:baseline-whatsapp">
<path id="Vector" d="M29.7678 8.04929C28.3351 6.60218 26.6287 5.45481 24.748 4.67409C22.8673 3.89338 20.85 3.49495 18.8138 3.50205C10.2818 3.50205 3.32814 10.4557 3.32814 18.9877C3.32814 21.7223 4.04694 24.3787 5.3908 26.7227L3.20312 34.7546L11.4069 32.5981C13.6727 33.8326 16.2198 34.4889 18.8138 34.4889C27.3457 34.4889 34.2994 27.5352 34.2994 19.0033C34.2994 14.8623 32.6899 10.9714 29.7678 8.04929ZM18.8138 31.8637C16.5011 31.8637 14.2353 31.2386 12.2507 30.0667L11.7819 29.7854L6.90655 31.0668L8.20353 26.3164L7.891 25.832C6.60613 23.7802 5.92387 21.4085 5.92209 18.9877C5.92209 11.8933 11.7038 6.11163 18.7981 6.11163C22.2359 6.11163 25.4705 7.45549 27.8926 9.89318C29.0919 11.087 30.0423 12.5069 30.6888 14.0707C31.3352 15.6346 31.6648 17.3111 31.6585 19.0033C31.6898 26.0976 25.9081 31.8637 18.8138 31.8637ZM25.8768 22.2379C25.4862 22.0504 23.5798 21.1128 23.236 20.9722C22.8766 20.8472 22.6266 20.7847 22.3609 21.1597C22.0953 21.5504 21.3608 22.4254 21.1421 22.6755C20.9233 22.9411 20.6889 22.9724 20.2982 22.7692C19.9076 22.5817 18.6575 22.1598 17.1886 20.8472C16.0323 19.8159 15.2666 18.5501 15.0322 18.1595C14.8134 17.7688 15.0009 17.5657 15.2041 17.3625C15.376 17.1906 15.5947 16.9094 15.7823 16.6906C15.9698 16.4718 16.0479 16.2999 16.1729 16.0499C16.2979 15.7843 16.2354 15.5655 16.1417 15.378C16.0479 15.1905 15.2666 13.2841 14.9541 12.5028C14.6415 11.7527 14.3134 11.8465 14.079 11.8308H13.3289C13.0633 11.8308 12.657 11.9246 12.2976 12.3153C11.9538 12.7059 10.9537 13.6435 10.9537 15.5499C10.9537 17.4563 12.3445 19.3002 12.532 19.5502C12.7195 19.8159 15.2666 23.7224 19.1419 25.3944C20.0639 25.8007 20.7827 26.0351 21.3452 26.207C22.2672 26.5039 23.111 26.457 23.7829 26.3633C24.533 26.2539 26.08 25.4257 26.3925 24.5194C26.7206 23.613 26.7206 22.8473 26.6113 22.6755C26.5019 22.5036 26.2675 22.4254 25.8768 22.2379Z" fill="white"/>
</g>
</svg>
