<svg width="38" height="39" viewBox="0 0 38 39" fill="none" xmlns="http://www.w3.org/2000/svg">
<ellipse cx="18.9337" cy="19.2575" rx="18.6759" ry="18.7673" fill="#D0021B"/>
<path d="M20.443 26.9993C20.8317 26.9993 21.1468 26.6843 21.1468 26.2956C21.1468 25.9069 20.8317 25.5918 20.443 25.5918C20.0543 25.5918 19.7393 25.9069 19.7393 26.2956C19.7393 26.6843 20.0543 26.9993 20.443 26.9993Z" fill="white"/>
<path d="M27.4807 22.0722C28.2569 22.0722 28.8882 21.4409 28.8882 20.6646V17.8496C28.8882 17.0733 28.2569 16.442 27.4807 16.442H26.7769V12.9232C26.7769 12.1469 26.1456 11.5156 25.3694 11.5156H21.8505V10.8118C21.8505 10.0356 21.2192 9.4043 20.443 9.4043H17.6279C16.8516 9.4043 16.2203 10.0356 16.2203 10.8118V11.5156H12.7015C11.9252 11.5156 11.2939 12.1469 11.2939 12.9232V16.542C10.0834 16.8565 9.18262 17.9495 9.18262 19.2571C9.18262 20.5647 10.0834 21.657 11.2939 21.9723V25.5911C11.2939 26.3673 11.9252 26.9986 12.7015 26.9986H17.6279V27.7024C17.6279 28.4786 18.2592 29.1099 19.0354 29.1099H27.4807C28.2569 29.1099 28.8882 28.4786 28.8882 27.7024V24.8873C28.8882 24.111 28.2569 23.4797 27.4807 23.4797H26.7769V22.0722H27.4807ZM27.4807 20.6646H24.6656V17.8496H27.4807V20.6646ZM17.6279 10.8118H20.443V13.6269H17.6279V10.8118ZM16.2203 12.9232V13.6269C16.2203 14.4032 16.8516 15.0345 17.6279 15.0345H20.443C21.2192 15.0345 21.8505 14.4032 21.8505 13.6269V12.9232H25.3694V16.442H24.6656C23.8893 16.442 23.2581 17.0733 23.2581 17.8496V18.5533H14.7129C14.5868 18.0695 14.3339 17.628 13.9804 17.2744C13.6268 16.9209 13.1853 16.668 12.7015 16.542V12.9232H16.2203ZM10.5902 19.2571C10.5902 18.4808 11.2214 17.8496 11.9977 17.8496C12.774 17.8496 13.4052 18.4808 13.4052 19.2571C13.4052 20.0334 12.774 20.6646 11.9977 20.6646C11.2214 20.6646 10.5902 20.0334 10.5902 19.2571ZM27.4807 27.7024H19.0354V24.8873H27.4807V27.7024ZM25.3694 23.4797H19.0354C18.2592 23.4797 17.6279 24.111 17.6279 24.8873V25.5911H12.7015V21.9723C13.1853 21.8462 13.6268 21.5933 13.9804 21.2398C14.3339 20.8862 14.5868 20.4447 14.7129 19.9609H23.2581V20.6646C23.2581 21.4409 23.8893 22.0722 24.6656 22.0722H25.3694V23.4797Z" fill="white"/>
</svg>
