<svg width="39" height="39" viewBox="0 0 39 39" fill="none" xmlns="http://www.w3.org/2000/svg">
<ellipse cx="19.4982" cy="19.7497" rx="18.6759" ry="18.7673" fill="#D0021B"/>
<g clipPath="url(#clip0_4048_14663)">
<path d="M11.9214 14.1199V23.5035H16.6132V19.7501C16.6132 19.2523 16.811 18.775 17.1629 18.423C17.5149 18.0711 17.9922 17.8733 18.49 17.8733H23.1818C23.6795 17.8733 24.1569 18.0711 24.5088 18.423C24.8608 18.775 25.0585 19.2523 25.0585 19.7501V23.5035H26.9352V14.1199H11.9214ZM8.16797 27.257V25.3802H11.9214C11.4237 25.3802 10.9463 25.1825 10.5944 24.8306C10.2424 24.4786 10.0447 24.0013 10.0447 23.5035V14.1199C10.0447 13.6222 10.2424 13.1448 10.5944 12.7928C10.9463 12.4409 11.4237 12.2432 11.9214 12.2432H26.9352C27.433 12.2432 27.9103 12.4409 28.2623 12.7928C28.6142 13.1448 28.8119 13.6222 28.8119 14.1199V23.5035C28.8119 24.0013 28.6142 24.4786 28.2623 24.8306C27.9103 25.1825 27.433 25.3802 26.9352 25.3802H30.6887V27.257H25.0585C25.0585 27.7547 24.8608 28.2321 24.5088 28.584C24.1569 28.936 23.6795 29.1337 23.1818 29.1337H18.49C17.9922 29.1337 17.5149 28.936 17.1629 28.584C16.811 28.2321 16.6132 27.7547 16.6132 27.257H8.16797ZM18.9591 27.257C18.8347 27.257 18.7154 27.3064 18.6274 27.3944C18.5394 27.4824 18.49 27.6017 18.49 27.7261C18.49 27.8506 18.5394 27.9699 18.6274 28.0579C18.7154 28.1459 18.8347 28.1953 18.9591 28.1953C19.0836 28.1953 19.2029 28.1459 19.2909 28.0579C19.3789 27.9699 19.4283 27.8506 19.4283 27.7261C19.4283 27.6017 19.3789 27.4824 19.2909 27.3944C19.2029 27.3064 19.0836 27.257 18.9591 27.257ZM22.7126 27.257C22.5882 27.257 22.4688 27.3064 22.3808 27.3944C22.2928 27.4824 22.2434 27.6017 22.2434 27.7261C22.2434 27.8506 22.2928 27.9699 22.3808 28.0579C22.4688 28.1459 22.5882 28.1953 22.7126 28.1953C22.837 28.1953 22.9564 28.1459 23.0443 28.0579C23.1323 27.9699 23.1818 27.8506 23.1818 27.7261C23.1818 27.6017 23.1323 27.4824 23.0443 27.3944C22.9564 27.3064 22.837 27.257 22.7126 27.257ZM20.3667 27.257V28.1953H21.305V27.257H20.3667ZM18.49 19.7501V26.3186H23.1818V19.7501H18.49Z" fill="white"/>
</g>
<defs>
<clipPath id="clip0_4048_14663">
<rect width="22.5207" height="22.5207" fill="white" transform="translate(8.16797 8.48926)"/>
</clipPath>
</defs>
</svg>
