<svg width="39" height="39" viewBox="0 0 39 39" fill="none" xmlns="http://www.w3.org/2000/svg">
<ellipse cx="19.4435" cy="19.7497" rx="18.6759" ry="18.7673" fill="#D0021B"/>
<path d="M10.5264 25.004V18.2478C10.5264 17.4514 10.8427 16.6877 11.4059 16.1246C11.969 15.5614 12.7327 15.2451 13.5291 15.2451C14.3255 15.2451 15.0893 15.5614 15.6524 16.1246C16.2155 16.6877 16.5319 17.4514 16.5319 18.2478V25.004M10.5264 21.2506H16.5319M26.2909 19.7492H22.5374M26.2909 19.7492C26.8881 19.7492 27.461 19.5119 27.8833 19.0896C28.3057 18.6672 28.5429 18.0944 28.5429 17.4971C28.5429 16.8998 28.3057 16.327 27.8833 15.9047C27.461 15.4823 26.8881 15.2451 26.2909 15.2451H22.5374V19.7492M26.2909 19.7492C26.8881 19.7492 27.461 19.9865 27.8833 20.4088C28.3057 20.8312 28.5429 21.404 28.5429 22.0013C28.5429 22.5986 28.3057 23.1714 27.8833 23.5937C27.461 24.0161 26.8881 24.2533 26.2909 24.2533H22.5374V19.7492M19.5346 9.99023V29.5082" stroke="white" strokeWidth="0.75069"/>
</svg>
