<svg width="38" height="39" viewBox="0 0 38 39" fill="none" xmlns="http://www.w3.org/2000/svg">
<ellipse cx="18.9914" cy="19.2575" rx="18.6759" ry="18.7673" fill="#D0021B"/>
<g clip-path="url(#clip0_3374_8124)">
<path d="M21.0698 21.3955C21.6217 20.8255 21.9274 20.0614 21.921 19.2681C21.9145 18.4747 21.5965 17.7156 21.0355 17.1546C20.4745 16.5936 19.7155 16.2756 18.9221 16.2692C18.1287 16.2628 17.3646 16.5685 16.7946 17.1203M13.8501 14.1758L24.0144 24.3401M11.6168 16.6343L20.9929 26.0104M7.67188 19.2579C8.86923 19.2579 10.0178 20.1963 10.9561 21.1347L13.4015 23.9C14.1106 24.6563 14.9672 25.2592 15.9185 25.6714C16.8698 26.0835 17.8955 26.2961 18.9322 26.2961C19.969 26.2961 20.9947 26.0835 21.9459 25.6714C22.8972 25.2592 23.7539 24.6563 24.4629 23.9L26.9083 21.1347C27.8467 20.1963 28.9952 19.2579 30.1926 19.2579C28.9952 19.2579 27.8467 18.3196 26.9083 17.3812L24.4629 14.6158C23.7539 13.8595 22.8972 13.2566 21.9459 12.8445C20.9947 12.4324 19.969 12.2197 18.9322 12.2197C17.8955 12.2197 16.8698 12.4324 15.9185 12.8445C14.9672 13.2566 14.1106 13.8595 13.4015 14.6158L10.9561 17.3812C10.0178 18.3196 8.86923 19.2579 7.67188 19.2579Z" stroke="white" stroke-width="0.788568"/>
</g>
<defs>
<clipPath id="clip0_3374_8124">
<rect width="22.5207" height="22.5207" fill="white" transform="translate(7.67285 7.99707)"/>
</clipPath>
</defs>
</svg>
