<svg width="39" height="39" viewBox="0 0 39 39" fill="none" xmlns="http://www.w3.org/2000/svg">
<ellipse cx="19.547" cy="19.7497" rx="18.6759" ry="18.7673" fill="#D0021B"/>
<path d="M12.7488 28.195C12.2327 28.195 11.7907 28.0111 11.4229 27.6432C11.0551 27.2754 10.8714 26.8337 10.8721 26.3183V13.1812C10.8721 12.6651 11.056 12.2231 11.4238 11.8553C11.7917 11.4874 12.2333 11.3038 12.7488 11.3045H16.6665C16.8385 10.7571 17.1747 10.3073 17.6752 9.9551C18.1757 9.6029 18.723 9.42711 19.3173 9.42774C19.9429 9.42774 20.5022 9.60384 20.9951 9.95603C21.4881 10.3082 21.8203 10.7577 21.9917 11.3045H25.8859C26.402 11.3045 26.8439 11.4884 27.2118 11.8562C27.5796 12.2241 27.7632 12.6657 27.7626 13.1812V26.3183C27.7626 26.8344 27.5787 27.2763 27.2108 27.6442C26.843 28.012 26.4013 28.1956 25.8859 28.195H12.7488ZM12.7488 26.3183H25.8859V13.1812H24.0091V15.9963H14.6255V13.1812H12.7488V26.3183ZM19.3173 13.1812C19.5832 13.1812 19.8062 13.0911 19.9864 12.9109C20.1666 12.7308 20.2563 12.5081 20.2557 12.2428C20.2557 11.977 20.1656 11.7539 19.9854 11.5738C19.8053 11.3936 19.5826 11.3038 19.3173 11.3045C19.0515 11.3045 18.8284 11.3945 18.6483 11.5747C18.4681 11.7549 18.3783 11.9776 18.379 12.2428C18.379 12.5087 18.4691 12.7317 18.6492 12.9119C18.8294 13.092 19.0521 13.1818 19.3173 13.1812Z" fill="white"/>
</svg>
