<svg width="38" height="39" viewBox="0 0 38 39" fill="none" xmlns="http://www.w3.org/2000/svg">
<ellipse cx="19.0421" cy="19.2575" rx="18.6759" ry="18.7673" fill="#D0021B"/>
<path fillRule="evenodd" clipRule="evenodd" d="M16.0072 19.2568H13.879C13.6724 19.6146 13.3536 19.8942 12.9719 20.0523C12.5902 20.2104 12.167 20.2381 11.7679 20.1312C11.3689 20.0243 11.0163 19.7887 10.7648 19.4609C10.5133 19.1331 10.377 18.7316 10.377 18.3184C10.377 17.9053 10.5133 17.5037 10.7648 17.1759C11.0163 16.8482 11.3689 16.6126 11.7679 16.5056C12.167 16.3987 12.5902 16.4265 12.9719 16.5846C13.3536 16.7427 13.6724 17.0223 13.879 17.3801H16.0072V12.6882C16.0072 12.1905 16.2049 11.7132 16.5569 11.3612C16.9088 11.0092 17.3862 10.8115 17.8839 10.8115H25.3908C25.8885 10.8115 26.3659 11.0092 26.7178 11.3612C27.0698 11.7132 27.2675 12.1905 27.2675 12.6882V25.8253C27.2675 26.3231 27.0698 26.8004 26.7178 27.1524C26.3659 27.5043 25.8885 27.702 25.3908 27.702H17.8839C17.3862 27.702 16.9088 27.5043 16.5569 27.1524C16.2049 26.8004 16.0072 26.3231 16.0072 25.8253V19.2568ZM17.8839 19.2568V25.8253H25.3908V12.6882H17.8839V17.3801H20.0121C20.2187 17.0223 20.5375 16.7427 20.9192 16.5846C21.3009 16.4265 21.7241 16.3987 22.1231 16.5056C22.5222 16.6126 22.8748 16.8482 23.1263 17.1759C23.3778 17.5037 23.5141 17.9053 23.5141 18.3184C23.5141 18.7316 23.3778 19.1331 23.1263 19.4609C22.8748 19.7887 22.5222 20.0243 22.1231 20.1312C21.7241 20.2381 21.3009 20.2104 20.9192 20.0523C20.5375 19.8942 20.2187 19.6146 20.0121 19.2568H17.8839Z" fill="white"/>
</svg>
