<svg width="282" height="83" viewBox="0 0 282 83" fill="none" xmlns="http://www.w3.org/2000/svg">
<g clipPath="url(#clip0_2520_17809)">
<path d="M14.7856 2.4311C14.7856 3.17042 13.4126 7.07829 11.7227 11.0918C4.54068 28.0963 0.210346 40.2423 1.37214 39.8199C2.00585 39.6086 3.59012 36.8626 4.85754 33.694L7.18113 27.9907L15.1025 27.6738L22.9182 27.3569L25.3474 33.7996C27.1429 38.5524 28.1991 40.1367 29.7834 40.1367C30.9452 40.1367 31.6845 39.8199 31.4733 39.2918C31.262 38.8693 27.7766 30.103 23.7632 19.8581C17.1092 2.95919 14.7856 -1.58239 14.7856 2.4311ZM18.9047 17.4289C20.7002 22.076 22.1789 25.9839 22.1789 26.0895C22.1789 26.3008 19.116 26.4064 15.3137 26.4064C11.5115 26.4064 8.44855 26.0895 8.44855 25.5614C8.44855 24.9277 9.39911 22.3929 13.6238 11.1974C14.3632 9.5075 14.9969 8.34571 15.3137 8.55694C15.525 8.8738 17.2148 12.7817 18.9047 17.4289Z" fill="white"/>
<path d="M55.9766 20.4918V40.1367H64.9541C70.235 40.1367 73.9316 39.7142 73.9316 39.0805C73.9316 38.4468 70.7631 38.0244 66.5384 38.0244H59.0395L59.2507 19.7524C59.3563 3.90975 59.1451 1.58616 57.6665 1.2693C56.1878 0.952449 55.9766 3.17043 55.9766 20.4918Z" fill="white"/>
<path d="M98.2245 1.58495C98.2245 1.9018 98.1189 10.5625 98.1189 20.8074V39.6074H107.096C114.49 39.6074 116.496 39.1849 118.926 37.3894C124.735 33.0591 124.207 24.7153 117.975 21.4411L114.701 19.8569L117.553 17.7445C119.771 16.1602 120.404 14.7872 120.404 11.6187C120.404 6.86585 118.081 3.90855 113.117 2.21866C109.526 1.05686 98.2245 0.52877 98.2245 1.58495ZM115.335 6.33776C116.391 7.60517 117.236 9.71753 117.236 11.0906C117.236 15.6321 113.962 18.2726 107.413 18.8007L101.393 19.2232V11.0906V2.95798L107.413 3.38046C111.955 3.80293 113.856 4.43664 115.335 6.33776ZM116.708 23.7647C120.193 27.1445 120.193 32.0029 116.708 35.3827C114.595 37.6007 113.117 38.0232 107.73 38.0232H101.393V29.5737V21.1243H107.73C113.117 21.1243 114.595 21.5467 116.708 23.7647Z" fill="white"/>
<path d="M152.3 19.7524C144.378 39.3974 144.167 40.1367 145.646 40.1367C146.174 40.1367 147.652 37.285 148.92 33.7996L151.349 27.3569L159.165 27.6738L167.086 27.9907L169.41 33.7996C170.783 37.1794 172.473 39.7142 173.529 39.9255C174.479 40.1367 175.324 40.0311 175.324 39.8199C175.324 39.0805 161.594 4.01537 160.643 2.32548C160.115 1.48054 156.841 8.34571 152.3 19.7524ZM162.439 15.6333C163.812 19.5412 165.185 23.5547 165.502 24.5053C166.03 26.1951 165.291 26.4064 158.953 26.4064C155.046 26.4064 152.088 25.9839 152.3 25.5614C152.511 25.139 153.989 21.1255 155.679 16.5839C157.369 12.148 158.953 8.45132 159.376 8.45132C159.693 8.45132 161.171 11.7255 162.439 15.6333Z" fill="white"/>
<path d="M199.617 20.5972C199.617 44.995 201.519 47.4242 201.941 23.5545L202.258 6.86689L214.298 22.7096C220.952 31.4759 226.761 38.9748 227.184 39.5028C227.712 40.1366 228.134 31.7927 228.134 20.8085C228.134 8.34554 227.712 1.0579 227.078 1.0579C226.444 1.0579 226.022 6.65566 226.022 15.8444C226.022 23.977 225.705 30.6309 225.283 30.5253C224.755 30.5253 219.579 23.8714 213.665 15.7388C207.644 7.71183 202.047 1.0579 201.202 1.0579C199.829 1.0579 199.617 3.90959 199.617 20.5972Z" fill="white"/>
<path d="M251.369 1.48188C251.369 1.69312 254.432 6.02345 258.234 11.0931L265.099 20.3875V30.3156C265.099 38.9763 265.311 40.2437 266.789 39.9268C268.268 39.61 268.585 38.2369 268.374 30.1044C268.162 22.0774 268.479 20.0706 270.169 17.9583C276.189 10.0369 282.104 1.05941 281.259 1.05941C280.731 1.05941 277.562 4.86166 274.183 9.50885C270.908 14.156 268.057 17.9583 267.846 17.9583C267.74 17.9583 264.783 14.156 261.403 9.50885C257.601 4.33357 254.432 1.05941 253.27 1.05941C252.214 1.05941 251.369 1.27065 251.369 1.48188Z" fill="white"/>
<path d="M83.6487 55.6629C114.806 55.8741 166.136 55.8741 197.716 55.6629C229.296 55.5572 203.736 55.4516 140.999 55.4516C78.2622 55.4516 52.4914 55.5572 83.6487 55.6629Z" fill="white"/>
<path d="M88.9295 75.7313C89.2463 81.4346 89.4576 81.8571 91.9924 82.1739C95.2666 82.5964 97.6958 79.956 96.6396 77.4211C96.1115 76.365 95.9003 74.6751 96.0059 73.5133C96.3227 71.1897 94.4216 69.711 91.0418 69.711C88.7182 69.711 88.6126 70.0279 88.9295 75.7313ZM93.8935 71.7178C95.5834 72.7739 94.5272 74.9919 92.3093 74.9919C91.4643 74.9919 90.8306 74.0414 90.8306 72.8796C90.8306 70.556 91.5699 70.2391 93.8935 71.7178ZM94.5272 78.6886C94.5272 79.8504 93.6823 80.9065 92.7317 81.1178C91.2531 81.4346 90.8306 80.8009 90.8306 78.6886C90.8306 76.5762 91.2531 75.9425 92.7317 76.2593C93.6823 76.4706 94.5272 77.5268 94.5272 78.6886Z" fill="white"/>
<path d="M104.666 75.0971C102.343 80.6948 101.709 84.2858 103.61 81.0117C104.983 78.6881 110.475 78.5825 111.32 80.906C111.743 81.8566 112.271 82.4903 112.587 82.1735C113.116 81.5398 108.152 69.7105 107.412 69.7105C107.201 69.7105 105.934 72.1398 104.666 75.0971Z" fill="white"/>
<path d="M118.291 76.0457C118.291 79.5311 118.713 82.3828 119.347 82.3828C119.98 82.3828 120.403 81.0098 120.403 79.2143C120.403 76.3626 120.72 76.0457 123.571 76.0457C126.423 76.0457 126.74 76.3626 126.74 79.2143C126.74 81.0098 127.268 82.3828 127.796 82.3828C128.43 82.3828 128.852 79.5311 128.852 76.0457C128.852 72.5603 128.43 69.7087 127.796 69.7087C127.268 69.7087 126.74 70.8705 126.74 72.3491C126.74 74.5671 126.212 74.9896 123.571 74.9896C120.931 74.9896 120.403 74.5671 120.403 72.3491C120.403 70.8705 119.98 69.7087 119.347 69.7087C118.713 69.7087 118.291 72.5603 118.291 76.0457Z" fill="white"/>
<path d="M136.88 75.4142C135.401 78.8996 134.345 81.9625 134.767 82.2793C135.084 82.5962 135.823 82.0681 136.351 81.0119C137.725 78.6883 142.16 78.6883 143.534 81.0119C144.062 82.0681 144.695 82.7018 145.012 82.385C145.223 82.0681 144.167 79.0052 142.583 75.5198L139.731 69.1827L136.88 75.4142Z" fill="white"/>
<path d="M151.244 76.2582C151.35 82.0672 151.455 82.2784 151.878 78.1593L152.3 73.4065L154.729 78.1593L157.159 82.9121L159.377 78.1593L161.595 73.4065V78.0537C161.595 80.5885 161.911 82.384 162.228 82.0672C162.862 81.5391 163.073 72.8784 162.651 69.9211C162.651 69.4986 161.278 71.5054 159.799 74.4627L157.053 79.638L154.624 74.6739C153.145 71.9278 151.772 69.7099 151.561 69.7099C151.244 69.7099 151.138 72.6672 151.244 76.2582Z" fill="white"/>
<path d="M171.733 75.4139C170.255 78.8993 169.199 81.8566 169.515 82.1734C169.727 82.4903 170.255 81.8566 170.677 80.906C171.522 78.688 176.275 78.688 178.07 81.0116C180.288 83.9689 179.76 81.1173 177.014 74.8858L174.479 69.1824L171.733 75.4139Z" fill="white"/>
<path d="M185.886 71.8227C184.936 73.7238 185.147 74.2519 187.999 75.8362C192.012 78.1598 191.801 80.9058 187.47 80.589C184.408 80.3777 184.408 80.3777 186.731 81.5395C188.527 82.3845 189.794 82.4901 190.956 81.6451C194.019 79.8496 193.596 77.3148 190.217 75.5193C186.309 73.5126 185.992 71.8227 189.583 71.8227C191.061 71.8227 192.223 71.2946 192.223 70.7665C192.223 68.7598 187.048 69.7103 185.886 71.8227Z" fill="white"/>
</g>
<defs>
<clipPath id="clip0_2520_17809">
<rect width="282" height="82.382" fill="white"/>
</clipPath>
</defs>
</svg>
