<svg width="183" height="45" viewBox="0 0 183 45" fill="none" xmlns="http://www.w3.org/2000/svg">
<path d="M10.7978 3.35119C6.83282 4.69319 3.23382 8.29219 3.59982 10.4882C3.59982 10.7932 3.41682 10.9762 3.17282 10.9762C2.62382 10.9762 2.56282 11.4032 2.25782 17.0762C2.13582 19.2722 2.25782 21.2852 2.50182 21.6512C2.68482 21.9562 3.23382 23.2372 3.59982 24.3962C3.96582 25.5552 5.97882 28.3002 7.93082 30.4352C9.94382 32.5702 11.5908 34.6442 11.5908 35.0712C11.5908 36.2912 13.4818 36.7182 14.8848 35.8032C16.7758 34.5832 18.3008 34.0952 18.3008 34.7052C18.3008 35.0102 17.3248 35.8642 16.1658 36.5962C13.9088 37.9992 12.9938 40.8052 15.1288 39.9512C17.9958 38.7922 19.5208 38.5482 19.5208 39.2192C19.5208 39.6462 18.9718 40.3782 18.3008 40.8662C16.7758 41.9642 16.6538 43.6112 18.1178 43.0012C18.7278 42.7572 20.1308 42.4522 21.2288 42.2692C22.2658 42.0862 23.1808 41.6592 23.1808 41.3542C23.1808 41.0492 22.3268 40.9272 21.2288 41.1712L19.2158 41.5372L21.6558 39.4022C23.5468 37.7552 23.9128 37.0842 23.3638 36.5352C22.8148 35.9862 22.0828 36.0472 20.0698 36.8402C16.4098 38.3042 16.4098 37.5722 20.0088 35.3152C23.6078 33.1192 23.5468 32.0212 19.8868 32.5092C16.4708 32.8752 15.7388 33.1192 14.7628 34.0342C13.7868 34.9492 12.8108 35.0102 12.8108 34.1562C12.8108 33.7902 11.2248 31.7772 9.21182 29.6422C4.27082 24.3352 3.53882 22.7492 3.53882 17.0762C3.53882 13.2332 4.08782 11.0372 5.79582 8.53619C8.23582 4.99819 11.7738 3.53419 15.5558 4.51019C16.2268 4.63219 16.8978 4.81519 17.0808 4.81519C18.1178 4.99819 20.7408 8.04819 21.9608 10.3662C23.8518 14.0872 23.8518 17.1982 21.9608 26.0432C21.2288 29.3982 20.9238 29.8862 19.7038 29.8862C18.2398 29.8862 18.1178 29.6422 17.9958 25.0062C17.7518 15.3072 17.6908 14.6362 16.7758 14.6362C16.2878 14.6362 15.8608 14.8802 15.8608 15.1242C15.8608 15.4292 14.8238 16.4052 13.6038 17.2592C11.5298 18.7232 11.3468 18.7842 10.6148 17.8082C9.88282 16.8322 9.76082 16.8322 8.90682 17.9912C7.56482 19.7602 7.68682 20.3092 9.45582 20.0042C10.7368 19.6992 11.1028 20.0652 12.0178 22.4442C12.5668 23.9692 13.1768 24.8842 13.2988 24.5182C13.4208 24.1522 13.0548 22.9932 12.5058 21.9562C11.6518 20.2482 11.6518 20.0042 12.5058 19.1502C12.9938 18.6622 13.4208 18.3572 13.4208 18.6012C13.4208 18.7842 14.0308 18.4182 14.7628 17.6862C15.4948 17.0152 16.1658 16.5272 16.2268 16.6492C16.2878 16.7102 16.5318 19.3942 16.6538 22.5662C17.0808 30.4962 17.3248 31.1062 20.0698 31.1062C22.2658 31.1062 22.2658 31.1062 22.9978 27.5682C23.3638 25.6772 24.0348 22.5662 24.4618 20.6752C25.0718 17.9302 25.0718 16.5272 24.4618 13.8432C23.6688 10.1832 20.8018 5.30319 18.5448 3.90019C16.6538 2.61919 13.4818 2.43619 10.7978 3.35119Z" fill="white"/>
<path d="M86.0108 18.5403V24.3353L83.7538 24.5183C82.1678 24.6403 81.4358 25.0063 81.4358 25.6163C81.4358 26.2873 81.9848 26.4703 83.7538 26.3483L86.0108 26.1043L86.1328 29.0933C86.1938 30.6793 86.3158 32.9363 86.3158 34.0343C86.4378 36.4133 87.1698 37.3893 88.4508 36.5963C89.1218 36.1693 89.1828 35.8033 88.5728 34.6443C88.2068 33.8513 87.9018 32.2653 87.9018 31.1063C87.9018 29.9473 87.7798 28.3003 87.7188 27.4463C87.5358 26.1043 87.7188 25.9213 89.5488 25.9823C90.5858 26.0433 91.5008 25.7993 91.5008 25.4943C91.5008 25.1283 92.3548 25.0063 93.5748 25.1893C94.9778 25.4333 95.7708 25.2503 95.9538 24.7013C96.5638 23.2983 95.2218 22.7493 92.2328 23.2373C86.9258 24.0913 87.2308 24.4573 87.2308 18.2963C87.2308 15.0633 86.9868 12.8063 86.6208 12.8063C86.2548 12.8063 86.0108 15.1243 86.0108 18.5403Z" fill="white"/>
<path d="M124.746 13.4171C124.563 13.7831 124.441 16.2841 124.502 19.0901L124.624 24.0921L122.733 24.2751C121.33 24.3971 120.781 24.7631 120.781 25.6171C120.781 26.4711 121.208 26.7151 122.733 26.5931L124.624 26.5321L124.868 30.7411C125.112 35.1331 125.966 37.7561 126.942 36.7801C127.247 36.4751 127.247 34.2181 126.881 31.4121C126.637 28.7281 126.515 26.3491 126.759 26.1661C127.003 25.9221 128.833 25.5561 130.785 25.3121C134.14 24.9461 134.323 25.0071 133.896 26.0441C132.737 28.7891 132.859 30.4361 134.384 31.9611C136.153 33.7301 137.739 33.9131 141.826 32.8761C144.876 32.0831 146.34 30.8021 145.364 29.8261C144.876 29.3381 144.144 29.4601 142.924 30.0701C139.935 31.6561 136.946 31.9611 135.848 30.8021C134.323 29.2771 134.567 28.0571 136.336 28.0571C138.349 28.0571 141.338 26.5321 142.07 25.0681C142.863 23.6041 141.338 21.3471 139.447 21.3471C138.654 21.3471 137.312 21.8961 136.458 22.5671C135.543 23.2991 134.75 23.5431 134.506 23.2381C134.323 22.8721 133.835 22.7501 133.408 22.8721C132.981 22.9941 131.212 23.2381 129.504 23.4821L126.271 23.8481V18.6631C126.271 13.9051 125.722 11.8921 124.746 13.4171ZM140.301 24.3971C140.301 24.9461 137.861 26.2271 136.885 26.2271C136.275 26.2271 136.702 24.4581 137.434 24.2141C138.776 23.6651 140.301 23.7871 140.301 24.3971Z" fill="white"/>
<path d="M155.857 14.64C155.613 15.006 155.552 17.385 155.613 19.947L155.857 24.583L154.088 24.827C151.404 25.193 147.744 27.267 147.317 28.67C147.073 29.402 147.317 30.561 147.866 31.415C148.72 32.696 149.025 32.818 150.672 32.269C151.648 31.903 153.295 30.683 154.332 29.524C155.491 28.182 156.284 27.694 156.406 28.182C156.528 28.609 156.955 30.561 157.382 32.452C158.053 35.746 158.846 37.149 159.639 36.417C159.822 36.234 159.456 34.221 158.846 31.903C158.114 29.158 157.809 25.864 157.87 21.96C157.931 18.788 157.809 15.677 157.626 15.067C157.26 13.908 156.406 13.725 155.857 14.64ZM152.807 28.426C150.672 30.073 149.574 30.561 149.147 29.951C148.781 29.28 151.648 27.511 153.112 27.511C153.783 27.511 153.722 27.755 152.807 28.426Z" fill="white"/>
<path d="M72.4086 15.6145C71.8596 16.1635 71.9206 27.6315 72.4696 30.7425C73.1406 34.4635 74.2386 34.1585 75.3976 29.9495C76.0076 27.8755 76.6176 26.2285 76.8006 26.2285C77.0446 26.2285 78.0206 27.7535 78.9966 29.5835C80.0336 31.4135 81.1926 32.9385 81.6196 32.9385C82.5346 32.9385 82.5956 31.5965 81.6196 30.6205C81.1926 30.1935 81.0706 29.8885 81.3146 29.8885C81.5586 29.8885 81.4976 29.5225 81.1316 29.0955C80.7656 28.7295 79.8506 27.3875 79.1186 26.2285C77.2276 23.3005 75.9466 23.1785 75.0316 25.9235C73.8726 29.3395 72.9576 27.6925 73.4456 23.0565C74.1166 16.3465 74.1166 15.6755 73.4456 15.4315C73.1406 15.3095 72.6526 15.4315 72.4086 15.6145Z" fill="white"/>
<path d="M97.8444 16.0997C97.4784 17.0757 98.6374 33.6067 99.1254 34.0947C99.6744 34.5827 101.199 33.5457 100.955 32.8137C100.833 32.3867 100.406 28.4827 100.04 24.0907C99.4304 16.4657 98.6984 13.8427 97.8444 16.0997Z" fill="white"/>
<path d="M30.8069 16.8342C30.3799 17.0172 30.3799 19.3962 30.7459 23.8492C31.2949 29.9492 31.2339 30.6812 30.3189 31.2302C28.4889 32.2062 29.1599 33.2432 31.6609 33.2432C33.0029 33.2432 34.2839 32.9992 34.5279 32.7552C34.7719 32.5112 35.4429 32.3282 36.0529 32.3282C37.5779 32.3282 39.6519 29.9492 39.6519 28.2412C39.6519 25.8622 38.5539 25.1912 35.5039 25.6182C32.3319 26.1062 32.2709 25.9842 32.4539 20.7992C32.6369 17.0782 32.2709 16.2242 30.8069 16.8342ZM38.1269 28.0582C38.4929 28.6682 36.8459 29.5222 33.8569 30.2542C32.0879 30.6812 31.8439 29.8272 33.3079 28.4242C34.3449 27.3262 37.5169 27.0822 38.1269 28.0582Z" fill="white"/>
<path d="M54.5968 20.127C54.1088 20.981 54.7798 21.957 55.8778 21.957C56.3658 21.957 56.7318 21.408 56.7318 20.737C56.7318 19.456 55.2678 19.029 54.5968 20.127Z" fill="white"/>
<path d="M104.065 20.4305C103.882 20.9795 104.126 21.5285 104.675 21.7725C105.834 22.1995 106.383 21.6505 105.956 20.4305C105.468 19.2715 104.553 19.2715 104.065 20.4305Z" fill="white"/>
<path d="M65.5143 21.773C65.0873 21.895 64.9043 22.505 65.0873 23.115C65.2703 23.969 64.7213 24.64 62.8913 25.677C60.3903 27.08 59.4753 28.666 59.9023 30.923C60.2073 32.692 63.0743 32.692 64.5383 30.862C65.9413 29.032 67.2223 28.788 67.0393 30.313C66.9783 30.923 67.2223 32.204 67.6493 33.18C68.4423 35.071 68.2593 35.559 66.6123 35.681C63.2573 35.986 56.1203 38.06 55.0223 39.036C52.2773 41.598 55.9983 43.916 62.7083 43.916C67.9543 43.916 70.1503 42.574 70.1503 39.28C70.1503 37.45 70.3333 37.206 71.6753 37.206C72.8343 37.206 73.2003 36.901 73.2003 35.925C73.2003 34.888 72.8953 34.766 71.4923 34.949C69.8453 35.254 69.7843 35.132 68.4423 29.886C67.6493 26.958 67.2223 24.152 67.4053 23.664C67.8323 22.627 66.5513 21.407 65.5143 21.773ZM64.9043 27.751C64.4773 28.849 62.2813 30.13 61.7933 29.642C61.2443 29.154 63.4403 26.836 64.4163 26.836C64.9043 26.836 65.0873 27.202 64.9043 27.751ZM68.6253 39.158C67.9543 41.354 67.2833 41.72 63.8673 41.903C59.5973 42.147 56.7303 41.598 56.7303 40.622C56.7303 39.768 58.0723 39.402 63.7453 38.67C65.4533 38.487 66.9173 38.182 67.0393 38.06C67.1613 37.938 67.7103 37.816 68.1373 37.816C68.7473 37.816 68.8693 38.243 68.6253 39.158Z" fill="white"/>
<path d="M111.203 23.1735C110.105 23.8445 109.19 24.5765 109.19 24.8815C109.19 25.8575 112.545 28.6025 114.924 29.5785C116.754 30.3715 117.12 30.7375 116.449 31.1645C114.985 32.0795 112.911 31.7745 111.813 30.4935C110.349 28.7855 109.312 28.9685 109.617 30.7985C110.105 33.1775 112.057 33.9705 115.717 33.3605C118.035 32.9945 119.011 32.5065 119.255 31.7135C119.804 29.9445 118.584 28.2365 116.388 27.8095C115.351 27.6265 113.765 26.9555 112.911 26.4065C111.508 25.4915 111.447 25.4305 112.545 24.6375C114.07 23.5395 115.229 23.5395 116.632 24.7595C117.608 25.7355 117.73 25.7355 118.096 24.7595C119.194 21.8925 114.924 20.8555 111.203 23.1735Z" fill="white"/>
<path d="M42.3349 26.8354C42.5179 29.2754 43.0059 31.7154 43.3719 32.3864C44.0429 33.7284 45.8729 33.9724 45.3849 32.6914C45.2019 32.2034 45.3239 31.6544 45.6899 31.4714C46.0559 31.2274 46.1169 30.6174 45.9339 30.1294C45.5679 29.1534 48.5569 25.5544 49.6549 25.6764C51.1799 25.8594 51.7289 25.5544 52.0339 24.3954C52.2169 23.6024 52.0339 23.1754 51.4239 23.1754C49.7159 23.1754 46.5439 25.0664 45.7509 26.5304C44.5309 28.7874 43.8599 28.3604 44.0429 25.4934C44.2259 23.3584 44.0429 22.8704 43.0669 22.6874C41.9689 22.4434 41.9079 22.7484 42.3349 26.8354Z" fill="white"/>
<path d="M55.326 24.2115C54.655 24.8215 54.838 31.8975 55.509 32.9345C56.058 33.7275 56.18 33.7275 56.729 32.9345C57.095 32.4465 57.217 31.2265 57.034 30.2505C56.851 29.2745 56.729 27.4445 56.729 26.1635C56.729 23.9065 56.241 23.2355 55.326 24.2115Z" fill="white"/>
<path d="M104.312 27.2648C104.312 32.5108 105.349 35.2558 106.386 32.6328C106.996 30.9248 106.02 23.7878 105.166 23.7878C104.556 23.7878 104.312 24.7638 104.312 27.2648Z" fill="white"/>
</svg>
