<svg width="223" height="78" viewBox="0 0 223 78" fill="none" xmlns="http://www.w3.org/2000/svg">
<g clipPath="url(#clip0_2520_17719)">
<path d="M100.746 0.890522C99.7589 1.58123 99.3642 3.25866 99.4629 5.82415L99.7589 9.86973H95.9107C90.4837 9.86973 89.793 11.0538 89.793 20.7237C89.793 30.3936 90.4837 31.5777 95.9107 31.5777H99.7589L99.4629 35.5246C99.3642 37.6954 99.7589 39.9649 100.252 40.4582C100.943 41.1489 104.989 41.4449 110.12 41.2476L118.901 40.9516L119.197 36.2153L119.493 31.5777H126.302C132.025 31.5777 133.012 31.2817 132.617 30.0976C132.124 29.0122 130.249 28.6175 124.723 28.6175H117.421V33.5511V38.4848H109.527H101.634V33.5511V28.6175H96.7H91.7664V20.7237V12.8299H96.7H101.634V7.89627V2.96265H109.527H117.421V7.89627V12.8299H121.467C126.006 12.8299 126.499 10.5604 122.059 10.0671C119.691 9.77105 119.395 9.27769 119.395 6.0215C119.395 4.04804 118.901 1.87725 118.211 1.18654C116.829 -0.194876 102.818 -0.392221 100.746 0.890522Z" fill="white"/>
<path d="M118.407 15.9887C118.407 16.8768 119.789 17.2715 122.354 17.2715C127.288 17.2715 126.992 15.3967 122.058 15.002C119.592 14.8047 118.407 15.1007 118.407 15.9887Z" fill="white"/>
<path d="M118.407 20.7242C118.407 21.3162 121.368 21.7109 125.315 21.7109C129.261 21.7109 132.222 21.3162 132.222 20.7242C132.222 20.1322 129.261 19.7375 125.315 19.7375C121.368 19.7375 118.407 20.1322 118.407 20.7242Z" fill="white"/>
<path d="M118.407 25.3598C118.407 26.2479 120.381 26.6426 124.92 26.6426C133.307 26.6426 133.011 24.5705 124.525 24.3731C120.184 24.1758 118.407 24.5705 118.407 25.3598Z" fill="white"/>
<path d="M6.11831 54.5684C2.5661 56.6406 0.789993 59.9954 0.691321 65.2251C0.592648 71.2441 3.05946 74.9937 8.38778 76.7698C12.532 78.1512 17.5643 77.0658 19.8338 74.4016C21.8072 72.0335 19.3404 70.2574 16.9723 72.3295C14.2095 74.7963 9.27583 74.5003 6.41433 71.5401C2.86212 68.0866 3.05946 62.8569 6.80902 59.1074C10.1639 55.7525 12.6307 55.5552 15.9856 58.1206C17.663 59.5021 18.8471 59.7981 19.8338 59.1074C20.9192 58.318 20.7219 57.726 18.4524 55.7525C15.3935 52.9897 9.96654 52.4963 6.11831 54.5684Z" fill="white"/>
<path d="M24.6692 61.5728C24.6692 66.2104 25.0639 71.0454 25.6559 72.5255C27.728 77.8538 38.0887 79.3339 42.1342 74.7949C43.5157 73.2162 44.009 70.7494 44.2064 63.0529C44.601 53.679 44.5024 53.2843 42.5289 53.2843C40.5555 53.2843 40.4568 53.7777 40.4568 61.7701C40.4568 72.0321 39.5687 74.0055 35.0298 74.0055C29.6028 74.0055 28.6161 72.1308 28.6161 62.0662C28.6161 53.975 28.5174 53.2843 26.6426 53.2843C24.8665 53.2843 24.6692 53.975 24.6692 61.5728Z" fill="white"/>
<path d="M50.3235 53.9751C50.4222 56.3433 52.2969 57.2313 56.6385 57.034C61.6708 56.9353 63.3483 58.1194 62.9536 61.6716C62.7562 62.9543 61.4735 63.941 59.5 64.5331L56.3425 65.5198L59.5 71.2428C61.8682 75.6831 63.1509 76.9658 64.927 76.9658H67.1965L64.335 72.7229L61.3748 68.5787L64.2363 66.0132C67.7885 62.757 67.9859 59.0074 64.631 55.7512C62.6576 53.6791 61.2761 53.2844 56.2438 53.2844C52.9876 53.2844 50.3235 53.5804 50.3235 53.9751Z" fill="white"/>
<path d="M76.8664 55.9486C76.373 57.5273 75.6823 59.4021 75.3863 60.1915C75.0903 60.9809 73.5115 65.1251 71.9328 69.368L69.1699 76.9658H71.4394C73.0182 76.9658 74.0049 76.2751 74.3009 74.6964C74.8929 72.7229 75.3863 72.5256 80.5173 72.8216C84.9575 73.1176 86.1416 73.611 86.5363 75.091C86.8323 76.2751 87.9177 76.9658 89.2991 76.9658C91.5686 76.9658 91.4699 76.7685 87.1283 65.1251C83.0828 54.5671 82.392 53.2844 80.2212 53.2844C78.5438 53.2844 77.6558 54.0738 76.8664 55.9486ZM80.7146 68.8747C78.5438 69.072 76.5704 69.072 76.373 68.8747C76.1757 68.6773 76.9651 65.9145 78.1491 62.757L80.2212 57.034L82.392 62.8556L84.5628 68.5787L80.7146 68.8747Z" fill="white"/>
<path d="M95.7124 55.2591C93.3443 57.6272 93.1469 62.3635 95.3177 64.2383C96.2058 65.0276 98.9686 66.3104 101.534 67.0998C105.284 68.3825 106.073 68.9745 106.073 71.0467C106.073 73.2175 105.58 73.5135 102.323 73.8095C99.8567 74.0068 97.8832 73.6122 96.6991 72.5268C95.219 71.1453 94.923 71.1453 93.739 72.5268C92.6536 73.8095 92.7522 74.3029 94.331 75.4869C98.3766 78.3484 105.284 78.2498 108.836 75.1909C109.823 74.3029 110.513 72.3294 110.513 70.356C110.513 67.6918 109.921 66.7051 107.356 65.1263C105.58 64.0409 103.409 63.1529 102.521 63.1529C101.633 63.1529 99.8567 62.3635 98.6726 61.3768C96.6005 59.6993 96.6005 59.502 98.1792 57.9232C100.153 55.8511 102.225 55.8511 105.876 57.7259C108.342 59.0086 108.737 59.0086 109.231 57.5285C110.809 53.3843 99.462 51.5095 95.7124 55.2591Z" fill="white"/>
<path d="M112.685 54.9618C112.882 56.2446 113.968 56.7379 116.434 56.7379H119.888V66.9012C119.888 75.7817 120.085 76.9658 121.565 76.9658C123.045 76.9658 123.341 75.6831 123.539 66.8025L123.835 56.7379L127.091 57.034C129.755 57.33 130.249 57.034 130.249 55.3565C130.249 53.3831 129.656 53.2844 121.269 53.2844C113.277 53.2844 112.389 53.4818 112.685 54.9618Z" fill="white"/>
<path d="M135.182 55.2579C136.07 56.9353 137.155 57.2313 141.201 57.1326C146.135 56.9353 147.911 57.922 148.009 60.8822C148.009 62.6583 145.148 65.1251 142.878 65.1251C141.793 65.1251 141.102 65.4211 141.3 65.8158C144.358 72.7229 147.319 76.9658 148.996 76.9658C151.463 76.9658 151.364 76.3738 148.601 72.0322L146.332 68.5787L149.292 65.8158C151.759 63.5464 152.055 62.6583 151.562 59.8955C150.575 54.9618 147.812 53.2844 140.51 53.2844C134.393 53.2844 134.195 53.3831 135.182 55.2579Z" fill="white"/>
<path d="M155.903 65.1251V76.9658H163.796C170.111 76.9658 171.69 76.6698 171.69 75.4857C171.69 74.3017 170.407 74.0056 165.77 74.0056H159.849V70.5521V67.0986H165.77C170.999 67.0986 171.69 66.9012 171.69 65.1251C171.69 63.349 170.999 63.1517 165.77 63.1517H159.849V59.7968V56.4419L165.77 56.9353C171.296 57.4287 171.69 57.33 171.69 55.3565C171.69 53.3831 171.197 53.2844 163.796 53.2844H155.903V65.1251Z" fill="white"/>
<path d="M182.052 54.4685C180.967 57.5273 175.737 71.7362 174.75 74.3017C173.763 76.7685 173.862 76.9658 176.033 76.9658C177.513 76.9658 178.598 76.2751 178.894 74.9924C179.289 73.3149 180.276 73.0189 185.012 73.0189C189.748 73.0189 190.735 73.3149 191.13 74.9924C191.426 76.2751 192.511 76.9658 193.893 76.9658C196.162 76.9658 196.063 76.7685 191.722 65.1251C187.676 54.5671 186.986 53.2844 184.815 53.2844C183.532 53.2844 182.249 53.8764 182.052 54.4685ZM187.282 63.1517L189.354 69.072H184.815C180.967 69.072 180.473 68.8747 181.065 67.2959C181.46 66.4079 182.447 63.7437 183.236 61.3756C184.025 59.1061 184.815 57.2313 185.012 57.2313C185.209 57.2313 186.196 59.8955 187.282 63.1517Z" fill="white"/>
<path d="M199.32 65.1251C199.32 76.5711 199.418 76.9658 201.392 76.9658C203.464 76.9658 203.464 76.5711 203.069 68.5787C202.872 63.941 202.872 60.1915 203.266 60.1915C203.563 60.1915 205.141 63.8424 206.819 68.2826C208.496 72.7229 210.272 76.4725 210.864 76.6698C211.456 76.8671 213.43 73.3149 215.107 68.6773C216.883 63.941 218.561 60.1915 218.955 60.1915C219.251 60.1915 219.449 63.941 219.251 68.5787C218.955 76.4725 219.054 76.9658 220.929 76.9658C222.804 76.9658 223.001 76.3738 223.001 70.0587C223.001 65.8158 222.409 61.9676 221.521 60.1915C220.238 57.7247 220.238 57.33 221.521 56.8366C224.185 55.8499 223.198 53.2844 220.139 53.2844C217.377 53.2844 217.081 53.7778 214.416 61.1782C212.936 65.5198 211.456 69.072 211.16 69.072C210.864 69.072 209.286 65.5198 207.707 61.1782C204.944 53.9751 204.549 53.2844 202.082 53.2844H199.32V65.1251Z" fill="white"/>
</g>
<defs>
<clipPath id="clip0_2520_17719">
<rect width="223" height="77.9513" fill="white"/>
</clipPath>
</defs>
</svg>
