<svg width="158" height="134" viewBox="0 0 158 134" fill="none" xmlns="http://www.w3.org/2000/svg">
<path d="M102.167 4.36021C100.131 6.58966 91.698 9.6915 84.1372 11.0486C80.8415 11.6302 80.4538 11.5332 80.4538 9.6915C80.4538 8.62524 80.2599 7.75285 79.9691 7.75285C77.5458 7.75285 72.4084 11.1455 69.1127 14.9259C64.7507 19.8694 63.9753 20.2571 63.9753 17.4461C63.9753 16.3798 63.5875 15.5075 63.1998 15.5075C61.8427 15.5075 59.4194 18.6093 58.2562 21.6142C57.2869 24.1344 55.2513 25.2976 55.2513 23.1651C55.2513 22.6805 54.8636 22.4866 54.282 22.7774C53.0219 23.5529 53.0219 33.343 54.282 37.8989C54.7667 39.7406 56.5115 42.5516 58.0624 44.0056L60.9704 46.7197L64.1691 43.1332C68.3372 38.3835 68.4342 38.1897 69.1127 32.2768C69.4035 29.4657 70.5667 25.2007 71.6329 22.7774C72.6992 20.3541 73.2808 18.4154 72.8931 18.4154C70.1789 18.5124 67.7556 23.2621 65.9139 32.2768C65.0415 36.4449 64.1691 38.2866 62.3274 39.4498C60.001 41.0007 59.8072 41.0007 58.547 39.3529C57.8685 38.3835 56.9961 35.6694 56.6084 33.343C56.0268 29.4657 56.3176 28.7872 59.2256 25.4915C61.1642 23.1651 63.2967 21.8081 64.7507 21.8081C66.2047 21.7111 68.3372 20.3541 70.1789 18.4154C75.6072 12.5025 76.0918 12.3087 79.7753 13.6657C82.3924 14.5381 84.1372 14.5381 87.7237 13.6657C93.4427 12.2117 94.4121 12.9872 90.8256 16.089C88.9838 17.64 87.336 18.3185 86.0759 17.8338C83.8464 17.1553 81.1323 19.3848 79.4845 23.359C78.0305 26.7516 75.6072 27.1394 75.6072 23.8436C75.6072 22.4866 75.2194 21.2265 74.8317 20.9357C74.0562 20.451 72.7961 24.716 71.1483 32.8584L70.5667 36.251L75.7041 31.6952C78.6121 29.1749 81.2292 27.1394 81.617 27.1394C82.1016 27.1394 82.3924 26.17 82.3924 24.9099C82.4894 23.7467 83.1679 21.7111 83.9434 20.3541C85.3973 17.9308 85.3973 18.0277 84.8158 21.6142C84.2342 25.0068 84.428 25.2007 85.9789 24.4252C90.147 22.1958 100.616 11.4363 103.039 6.88046C105.947 1.6461 105.559 0.676775 102.167 4.36021Z" fill="white"/>
<path d="M83.8461 29.9501C79.0964 33.5366 72.3112 39.6434 68.8216 43.6176C65.332 47.4949 60.1946 53.0201 57.3835 55.8311C54.2817 59.0299 52.7308 61.1624 53.4093 61.5501C55.4449 62.9072 59.2253 59.6115 66.0105 50.5967C70.4694 44.7808 73.2805 41.679 74.1529 42.0667C75.6069 42.6483 85.7848 39.9342 85.0093 39.1587C84.8154 38.8679 82.4891 39.1587 79.9688 39.7403C77.4486 40.3219 75.1222 40.5158 74.7345 40.128C73.6682 39.0618 83.7492 31.0164 86.1725 31.0164C87.4326 31.0164 88.2081 30.7256 87.8204 30.3378C87.5296 29.9501 88.5958 28.2053 90.3406 26.4605C91.9885 24.7158 93.2486 23.2618 92.9578 23.3587C92.7639 23.3587 88.6927 26.2667 83.8461 29.9501Z" fill="white"/>
<path d="M95.1867 38.1916C94.6051 39.5487 92.5696 41.4873 90.6309 42.3597C88.0137 43.6198 87.5291 44.2014 88.3045 45.2677C90.534 47.8849 83.1671 52.1499 78.0297 51.0836C76.6726 50.8898 75.8972 51.0836 76.188 51.4714C76.4788 51.956 78.999 52.3438 81.7131 52.3438C88.0137 52.3438 94.5082 48.5634 93.7328 45.3646C93.345 44.2014 94.0236 42.2628 95.1867 40.7118C96.253 39.1609 97.0285 37.5131 96.7377 36.8345C96.5438 36.156 95.8653 36.8345 95.1867 38.1916Z" fill="white"/>
<path d="M28.1101 75.1213V81.4219H31.4058H34.7015L35.0892 75.9937C35.38 69.9838 34.7015 68.8206 30.8242 68.8206C28.1101 68.8206 28.1101 68.8206 28.1101 75.1213ZM32.9567 75.1213C32.9567 77.5446 32.569 79.4832 31.9874 79.4832C31.5027 79.4832 31.0181 77.5446 31.0181 75.1213C31.0181 72.6979 31.5027 70.7593 31.9874 70.7593C32.569 70.7593 32.9567 72.6979 32.9567 75.1213Z" fill="white"/>
<path d="M45.5576 75.1213C45.5576 80.0648 45.8484 81.4219 47.0116 81.4219C48.1748 81.4219 48.4656 80.0648 48.4656 75.1213C48.4656 70.1777 48.1748 68.8206 47.0116 68.8206C45.8484 68.8206 45.5576 70.1777 45.5576 75.1213Z" fill="white"/>
<path d="M50.4041 75.1213C50.4041 80.2587 50.6949 81.4219 51.955 81.4219C53.1182 81.4219 53.409 80.5495 53.2151 77.3507C53.0212 74.8305 53.312 73.1826 54.0875 72.8918C54.8629 72.6979 55.2507 73.8611 55.2507 76.963C55.2507 79.4832 55.7353 81.4219 56.3169 81.4219C56.8985 81.4219 57.1893 79.3863 56.9955 76.2845C56.8016 72.1164 56.4139 71.3409 55.0568 71.5348C53.9906 71.7286 53.312 71.244 53.312 70.2746C53.312 69.4992 52.6335 68.8206 51.858 68.8206C50.6949 68.8206 50.4041 70.1777 50.4041 75.1213Z" fill="white"/>
<path d="M66.4951 70.2735C65.7196 72.3091 66.6889 74.2478 69.403 75.9926C70.857 77.0588 71.4386 78.1251 71.0509 79.0944C70.4693 80.6453 70.3724 80.6453 69.3061 79.0944C67.7552 77.0588 66.8828 77.1558 66.8828 79.3852C66.8828 81.5177 69.3061 82.6809 71.8263 81.9054C74.6374 80.9361 74.1527 76.5742 71.0509 74.0539C69.5 72.8907 68.6276 71.5337 69.0153 71.1459C69.403 70.7582 70.3724 71.049 71.2448 71.7275C72.9895 73.1815 74.1527 72.4061 73.3773 70.2735C72.6018 68.3349 67.2705 68.3349 66.4951 70.2735Z" fill="white"/>
<path d="M83.3625 75.1213C83.3625 80.0648 83.6533 81.4219 84.8165 81.4219C85.8828 81.4219 86.2705 80.2587 86.2705 77.0599C86.2705 74.6366 86.7552 72.6979 87.2398 72.6979C87.8214 72.6979 88.2092 74.6366 88.2092 77.0599C88.2092 79.9679 88.5969 81.4219 89.4693 81.4219C90.3417 81.4219 90.7294 79.9679 90.7294 76.5752C90.7294 71.9225 90.3417 71.244 87.3368 71.7286C86.4644 71.8256 86.1736 71.3409 86.5613 70.3716C87.046 69.3053 86.5613 68.8206 85.3012 68.8206C83.5564 68.8206 83.3625 69.4992 83.3625 75.1213Z" fill="white"/>
<path d="M109.533 75.1213C109.533 80.0648 109.824 81.4219 110.987 81.4219C112.15 81.4219 112.441 80.0648 112.441 75.1213C112.441 70.1777 112.15 68.8206 110.987 68.8206C109.824 68.8206 109.533 70.1777 109.533 75.1213Z" fill="white"/>
<path d="M117.967 69.498C116.803 70.5643 117.191 79.9668 118.451 81.2269C121.65 84.4257 125.043 81.033 124.558 75.1201C124.364 72.6968 123.88 70.3704 123.589 69.7888C122.91 68.7226 118.936 68.4318 117.967 69.498ZM122.135 75.0232C122.135 77.4465 121.747 79.676 121.165 79.9668C120.584 80.3545 120.196 78.7066 120.196 75.7017C120.196 72.9876 120.681 70.7582 121.165 70.7582C121.747 70.7582 122.135 72.6968 122.135 75.0232Z" fill="white"/>
<path d="M126.786 69.9838C126.107 72.1164 127.077 81.4219 128.046 81.4219C128.531 81.4219 129.015 79.5802 129.112 77.2538C129.306 71.8256 129.306 71.4378 130.178 69.9838C130.76 69.2084 130.372 68.8206 129.112 68.8206C128.046 68.8206 126.98 69.4022 126.786 69.9838Z" fill="white"/>
<path d="M37.9974 71.9225C35.0894 74.8305 37.9004 83.2636 41.39 82.0035C42.1655 81.7127 43.0378 81.4219 43.2317 81.4219C43.4256 81.4219 43.6194 80.5495 43.6194 79.4832C43.6194 78.417 43.2317 77.5446 42.6501 77.5446C42.1655 77.5446 41.6808 78.2231 41.6808 78.9986C41.6808 79.774 41.2931 80.4525 40.7115 80.4525C40.2268 80.4525 39.7421 79.5801 39.7421 78.5139C39.7421 77.2538 40.4207 76.5752 41.6808 76.5752C43.0378 76.5752 43.6194 75.8967 43.6194 74.2489C43.6194 71.147 40.2268 69.693 37.9974 71.9225Z" fill="white"/>
<path d="M94.3141 71.4368C92.4723 72.1153 92.6662 81.0331 94.5079 81.8085C97.5128 82.9717 98.8699 81.3239 98.8699 76.5742C98.8699 73.2785 98.4822 71.7276 97.319 71.3398C96.4466 71.049 95.768 70.7582 95.6711 70.8552C95.5742 70.8552 94.8956 71.146 94.3141 71.4368ZM96.9312 76.5742C96.9312 78.7067 96.5435 80.4515 95.9619 80.4515C95.4772 80.4515 94.9926 78.7067 94.9926 76.5742C94.9926 74.4417 95.4772 72.6969 95.9619 72.6969C96.5435 72.6969 96.9312 74.4417 96.9312 76.5742Z" fill="white"/>
<path d="M102.554 71.8258C100.034 73.2798 100.131 80.065 102.651 81.4221C106.044 83.1669 107.595 81.616 107.595 76.5755C107.595 73.2798 107.207 71.7288 106.044 71.3411C104.202 70.6626 104.59 70.5657 102.554 71.8258ZM105.656 76.5755C105.656 78.708 105.268 80.4528 104.687 80.4528C104.202 80.4528 103.718 78.708 103.718 76.5755C103.718 74.443 104.202 72.6982 104.687 72.6982C105.268 72.6982 105.656 74.443 105.656 76.5755Z" fill="white"/>
<path d="M59.1287 76.5752C59.1287 80.2587 59.5164 81.4219 60.5826 81.4219C61.6489 81.4219 62.0366 80.2587 62.0366 76.5752C62.0366 72.8918 61.6489 71.7286 60.5826 71.7286C59.5164 71.7286 59.1287 72.8918 59.1287 76.5752Z" fill="white"/>
<path d="M75.4128 72.8921C74.5404 75.2184 75.8005 81.3252 77.1576 81.8099C79.1932 82.5853 81.1318 81.5191 81.7134 79.3865C82.0042 78.2234 81.7134 77.5448 80.841 77.5448C80.0656 77.5448 79.484 78.2234 79.484 78.9988C79.484 79.7743 79.0962 80.4528 78.5146 80.4528C78.03 80.4528 77.5453 78.708 77.5453 76.5755C77.5453 74.443 78.03 72.6982 78.5146 72.6982C79.0962 72.6982 79.484 73.0859 79.484 73.6675C79.484 74.1522 80.1625 74.6368 80.938 74.6368C81.8103 74.6368 82.1011 74.0553 81.8103 73.1829C81.1318 71.4381 75.9944 71.2442 75.4128 72.8921Z" fill="white"/>
<path d="M14.8298 95.4767C14.8298 100.226 15.1206 101.777 16.09 101.777C17.0593 101.777 17.447 100.42 17.447 97.0277C17.447 94.4105 17.7378 91.5994 18.0286 90.727C18.4163 89.6608 18.0286 89.1761 16.7685 89.1761C15.1206 89.1761 14.9268 89.9516 14.8298 95.4767Z" fill="white"/>
<path d="M73.668 95.4767C73.668 100.614 73.9588 101.777 75.2189 101.777C76.479 101.777 76.6729 101.099 76.2851 98.8694C75.8974 97.3184 76.0913 95.7675 76.5759 95.4767C77.1575 95.089 77.5453 96.1553 77.5453 97.8031C77.5453 102.262 79.1931 102.262 79.9686 97.8031C80.744 93.1503 81.9072 93.635 81.6164 98.3847C81.4226 100.614 81.8103 101.777 82.5858 101.777C83.4582 101.777 83.8459 99.9356 83.8459 95.4767C83.8459 89.5638 83.652 89.1761 81.7134 89.1761C80.1624 89.1761 79.5809 89.6608 79.7747 90.824C79.8717 91.7933 79.5809 92.7626 78.9993 93.0534C78.5146 93.3442 77.933 92.5688 77.7391 91.3086C77.5453 89.9516 76.7698 89.1761 75.5097 89.1761C73.8618 89.1761 73.668 89.8546 73.668 95.4767Z" fill="white"/>
<path d="M100.323 95.4767C100.323 99.8387 100.711 101.777 101.584 101.777C102.165 101.777 102.747 101.099 102.747 100.323C102.747 99.5479 103.231 98.8694 103.716 98.8694C104.298 98.8694 104.685 99.5479 104.685 100.323C104.685 101.099 105.364 101.777 106.139 101.777C107.303 101.777 107.4 101.293 106.527 99.1602C106.043 97.8031 105.849 95.3798 106.139 93.8289C106.527 92.181 106.333 91.1148 105.752 91.1148C105.17 91.1148 104.685 91.7933 104.685 92.5688C104.685 93.3442 104.298 94.0227 103.716 94.0227C103.231 94.0227 102.747 92.9565 102.747 91.5994C102.747 90.2424 102.165 89.1761 101.584 89.1761C100.711 89.1761 100.323 91.1148 100.323 95.4767Z" fill="white"/>
<path d="M28.7875 90.824C28.5936 91.3086 28.5936 93.9258 28.8844 96.6399C29.1752 101.002 29.5629 101.777 31.2108 101.777C32.8586 101.777 32.9556 101.487 31.9862 100.323C31.2108 99.354 31.0169 97.4154 31.4046 94.5074C31.9862 91.0178 31.7924 90.1454 30.6292 90.1454C29.8537 90.1454 28.9813 90.4362 28.7875 90.824Z" fill="white"/>
<path d="M65.6235 90.8235C64.6541 92.5683 66.3989 101.292 67.8529 101.583C69.0161 101.777 69.3069 100.711 69.21 96.2517C69.21 91.9867 68.8222 90.5327 67.659 90.3388C66.7866 90.145 65.9142 90.4358 65.6235 90.8235Z" fill="white"/>
<path d="M116.996 90.824C116.803 91.3086 116.803 93.9258 117.093 96.6399C117.384 100.614 117.869 101.777 119.129 101.777C120.68 101.777 120.777 100.129 120.195 90.824C120.195 90.4362 119.614 90.1454 118.838 90.1454C118.063 90.1454 117.19 90.4362 116.996 90.824Z" fill="white"/>
<path d="M19.3855 96.543C19.3855 100.517 19.7732 101.777 20.8395 101.777C21.9057 101.777 22.2935 100.614 22.2935 97.4154C22.2935 94.9921 22.7781 93.0534 23.2628 93.0534C23.8444 93.0534 24.2321 94.9921 24.2321 97.4154C24.2321 100.614 24.6199 101.777 25.6861 101.777C26.7524 101.777 26.9462 100.808 26.6554 97.1246C26.4616 94.6043 26.2677 92.278 26.1708 91.8902C26.1708 91.5994 24.6199 91.3086 22.7781 91.3086H19.3855V96.543Z" fill="white"/>
<path d="M34.3128 92.4702C34.022 93.2456 33.9251 95.4751 34.1189 97.5106C34.4097 101 34.6036 101.291 37.3177 101.291C39.2564 101.291 40.3226 100.806 40.5165 99.5462C40.9042 97.6076 38.1901 97.2198 37.5116 99.0616C37.3177 99.7401 36.7361 100.031 36.3484 99.6432C35.0883 98.48 36.7361 95.9597 38.7717 95.9597C40.9042 95.9597 41.2919 94.0211 39.5471 92.2763C37.9962 90.7254 34.9913 90.8223 34.3128 92.4702Z" fill="white"/>
<path d="M42.6494 96.3491C42.6494 100.711 42.9402 101.777 44.2003 101.777C45.3635 101.777 45.6543 101.196 45.1697 99.2571C44.685 97.5123 44.9758 96.1553 46.139 94.8951C47.9807 92.8596 47.8838 92.5688 44.8789 91.6964C42.7463 91.0178 42.6494 91.2117 42.6494 96.3491Z" fill="white"/>
<path d="M48.4658 96.4461C48.4658 100.323 48.8536 101.777 49.8229 101.777C50.7922 101.777 50.9861 100.711 50.5983 97.4154C50.3075 94.5074 50.5014 93.0534 51.2769 93.0534C51.8585 93.0534 52.3431 94.7982 52.3431 97.4154C52.3431 100.711 52.7309 101.777 53.894 101.777C55.0572 101.777 55.2511 100.808 55.0572 96.7369C54.7664 91.7933 54.6695 91.5994 51.6646 91.4056L48.4658 91.1148V96.4461Z" fill="white"/>
<path d="M57.5767 92.4709C57.2859 93.2464 57.189 95.4758 57.3828 97.5114C57.6736 100.807 57.9644 101.292 60.3878 101.583C63.0049 101.873 65.0405 99.547 63.4896 98.093C63.1019 97.7053 62.5203 97.9961 62.3264 98.5776C61.6479 100.516 60.097 100.032 60.097 97.8991C60.097 96.639 60.7755 95.9605 62.0356 95.9605C64.1681 95.9605 64.5558 94.0218 62.8111 92.277C61.2601 90.7261 58.2552 90.823 57.5767 92.4709Z" fill="white"/>
<path d="M86.3665 92.4718C85.4941 93.5381 85.4941 94.0227 86.3665 94.5074C86.948 94.8951 87.8204 94.6043 88.3051 93.9258C88.6928 93.2473 89.4683 92.9565 89.856 93.4411C90.2438 93.8289 89.3714 95.1859 87.9174 96.3491C84.4278 99.1602 85.2033 101.777 89.6622 101.777C92.8609 101.777 92.8609 101.777 92.3763 97.6092C92.1824 95.3798 91.7947 92.9565 91.5039 92.278C91.0192 90.727 87.7235 90.824 86.3665 92.4718Z" fill="white"/>
<path d="M94.3145 96.4461C94.3145 100.42 94.6053 101.777 95.5746 101.777C96.447 101.777 96.9316 100.614 96.9316 98.5786C96.9316 96.8338 97.5132 94.7982 98.0948 94.2166C99.0641 93.2473 99.0641 92.7626 97.901 92.0841C95.0899 90.2424 94.4114 91.1148 94.3145 96.4461Z" fill="white"/>
<path d="M108.951 92.4702C108.66 93.2456 108.563 95.4751 108.757 97.5106C109.048 101 109.242 101.291 111.956 101.291C113.894 101.291 114.961 100.806 115.154 99.5462C115.542 97.6076 112.828 97.2198 112.15 99.0616C111.956 99.7401 111.374 100.031 110.986 99.6432C109.726 98.48 111.374 95.9597 113.41 95.9597C115.542 95.9597 115.93 94.0211 114.185 92.2763C112.634 90.7254 109.629 90.8223 108.951 92.4702Z" fill="white"/>
<path d="M122.134 96.4461C122.134 100.517 122.425 101.777 123.588 101.777C124.751 101.777 125.042 100.517 125.042 96.4461C125.042 92.3749 124.751 91.1148 123.588 91.1148C122.425 91.1148 122.134 92.3749 122.134 96.4461Z" fill="white"/>
<path d="M126.982 96.543C126.982 99.451 127.467 101.777 127.951 101.777C128.533 101.777 128.921 99.8387 128.921 97.4154C128.921 94.9921 129.405 93.0534 129.89 93.0534C130.472 93.0534 130.859 94.9921 130.859 97.4154C130.859 100.711 131.247 101.777 132.41 101.777C133.573 101.777 133.767 100.808 133.573 96.7369C133.283 91.6964 133.186 91.5994 130.181 91.5025L126.982 91.3086V96.543Z" fill="white"/>
<path d="M135.898 95.7657C136.092 99.4491 136.576 100.321 137.933 100.225C138.806 100.128 139.581 100.418 139.581 100.903C139.581 101.388 138.709 101.775 137.643 101.775C136.576 101.775 135.704 102.26 135.704 102.842C135.704 103.423 137.061 103.714 138.903 103.52C142.004 103.229 142.004 103.229 142.295 97.2197L142.586 91.3068H139.097H135.607L135.898 95.7657ZM139.581 95.9595C139.581 97.5105 139.193 98.8675 138.612 98.8675C138.127 98.8675 137.643 97.5105 137.643 95.9595C137.643 94.3117 138.127 93.0516 138.612 93.0516C139.193 93.0516 139.581 94.3117 139.581 95.9595Z" fill="white"/>
<path d="M17.5443 111.569C16.2841 115.349 16.1872 117.288 17.4473 115.349C18.2228 114.186 18.7075 114.089 20.3553 115.155C21.4216 115.834 22.294 116.124 22.294 115.834C22.294 114.864 19.4829 108.564 18.9983 108.564C18.8044 108.564 18.1259 109.921 17.5443 111.569Z" fill="white"/>
<path d="M26.2686 112.635C26.3656 114.962 26.5594 116.028 26.8502 115.059C27.0441 114.186 27.8196 113.411 28.595 113.411C30.3398 113.411 31.1153 110.987 29.7582 109.63C27.4318 107.304 26.1717 108.467 26.2686 112.635Z" fill="white"/>
<path d="M32.6646 109.239C32.2769 109.53 32.083 111.372 32.083 113.311C32.1799 115.249 32.3738 116.025 32.6646 115.055C33.2462 113.02 33.8278 112.923 35.3787 114.958C36.348 116.315 36.5419 116.025 36.5419 113.311C36.5419 109.53 34.5063 107.398 32.6646 109.239Z" fill="white"/>
<path d="M38.7729 112.437C38.7729 115.83 39.0637 116.314 41.0024 116.217C42.5533 116.121 42.7472 116.024 41.4871 115.636C39.4515 115.151 39.0637 110.014 41.0024 109.238C41.6809 108.948 41.4871 108.657 40.5177 108.657C39.1607 108.56 38.7729 109.335 38.7729 112.437Z" fill="white"/>
<path d="M44.2972 109.143C43.2309 110.209 43.4248 115.347 44.588 115.347C45.0726 115.347 45.2665 114.571 44.9757 113.602C44.491 112.148 44.6849 112.245 45.945 113.796C46.8174 114.862 47.7867 115.347 48.1745 114.959C48.5622 114.571 48.4653 113.99 47.8837 113.602C47.399 113.214 46.5266 111.954 46.0419 110.694C45.4603 109.434 44.6849 108.755 44.2972 109.143Z" fill="white"/>
<path d="M49.1447 110.501C48.8539 111.567 49.0477 112.246 49.4354 111.955C49.9201 111.664 50.5017 112.633 50.6956 114.087C50.9864 116.317 51.0833 116.22 51.2772 113.215C51.3741 109.338 49.9201 107.399 49.1447 110.501Z" fill="white"/>
<path d="M56.2205 112.44C56.2205 115.833 56.5113 116.317 58.4499 116.317C60.0978 116.317 60.2916 116.124 59.2254 115.445C57.2867 114.185 57.1898 110.598 59.0315 109.532C60.2916 108.757 60.1947 108.66 58.4499 108.563C56.5113 108.563 56.2205 109.047 56.2205 112.44Z" fill="white"/>
<path d="M62.1321 112.634C62.1321 115.736 62.326 116.317 63.0045 114.863C63.683 113.119 63.78 113.022 64.4585 114.573C64.8462 115.542 65.5248 116.317 66.1064 116.317C66.591 116.317 66.688 115.833 66.3002 115.251C65.9125 114.573 65.6217 112.925 65.5248 111.568C65.4278 110.017 64.7493 108.951 63.78 108.757C62.326 108.466 62.0352 109.144 62.1321 112.634Z" fill="white"/>
<path d="M71.3407 110.113C69.499 111.858 69.499 112.052 70.7591 114.475C71.7285 116.22 74.6364 116.995 75.8966 115.735C76.672 114.96 75.6058 112.439 74.5395 112.439C74.1518 112.439 73.9579 113.118 74.3456 113.99C74.7334 115.154 74.5395 115.444 73.5702 115.154C72.7947 114.96 72.1162 113.797 71.9223 112.633C71.6315 110.985 72.1162 110.501 73.5702 110.501C74.7334 110.501 75.6058 110.016 75.6058 109.531C75.6058 108.077 72.9886 108.368 71.3407 110.113Z" fill="white"/>
<path d="M106.722 112.636C106.722 114.962 107.013 116.125 107.304 115.35C107.692 114.574 108.564 113.411 109.34 112.829C111.084 111.569 110.212 108.564 108.079 108.564C107.013 108.564 106.625 109.631 106.722 112.636Z" fill="white"/>
<path d="M122.329 112.632C122.523 114.28 123.201 115.831 123.88 116.122C124.946 116.412 124.946 116.218 123.88 114.474C122.814 112.729 122.814 112.244 123.88 111.566C124.946 110.887 124.849 110.693 123.589 110.112C122.329 109.627 122.038 110.112 122.329 112.632Z" fill="white"/>
<path d="M77.9324 111.955C77.1569 113.991 78.1262 116.317 79.871 116.317C81.5189 116.317 82.5851 113.991 81.8097 111.955C81.4219 111.18 80.5495 110.501 79.871 110.501C79.0956 110.501 78.2232 111.18 77.9324 111.955Z" fill="white"/>
<path d="M83.7497 111.855C82.8773 114.182 84.1375 116.508 85.9792 116.12C87.1424 115.927 87.724 114.957 87.724 113.406C87.724 110.595 84.6221 109.432 83.7497 111.855Z" fill="white"/>
<path d="M90.1458 112.826C90.1458 114.086 89.855 115.831 89.5642 116.703C89.0795 117.866 89.5642 118.254 91.5029 118.254C93.0538 118.254 94.0231 117.672 94.0231 116.8C94.0231 116.024 93.3446 115.346 92.5691 115.346C91.2121 115.346 91.309 115.055 92.6661 112.923C94.217 110.596 94.12 110.499 92.1814 110.499C90.6305 110.499 90.1458 111.081 90.1458 112.826Z" fill="white"/>
<path d="M98.2874 111.955C97.415 114.088 98.5782 116.317 100.517 116.317C102.165 116.22 102.165 116.22 100.614 115.251C98.7721 114.185 98.1905 111.471 99.8383 111.471C100.42 111.471 100.808 111.858 100.808 112.44C100.808 112.925 101.195 113.409 101.777 113.409C102.262 113.409 102.456 112.731 102.165 111.955C101.777 111.18 100.905 110.501 100.226 110.501C99.4506 110.501 98.5782 111.18 98.2874 111.955Z" fill="white"/>
<path d="M126.012 113.507C126.012 115.252 126.303 116.318 126.788 115.93C127.466 115.252 127.563 114.767 127.854 112.247C127.951 110.696 129.599 112.344 130.18 114.864C130.471 116.027 130.665 115.639 130.568 113.895C130.374 111.665 129.89 110.89 128.242 110.696C126.303 110.405 126.012 110.793 126.012 113.507Z" fill="white"/>
<path d="M132.409 112.055C131.634 113.993 133.476 116.32 135.608 116.223C136.868 116.126 136.868 116.029 135.511 115.641C133.669 115.156 133.088 111.473 134.833 111.473C135.317 111.473 135.511 111.861 135.22 112.442C134.93 112.927 135.123 113.412 135.705 113.412C137.353 113.412 136.287 111.085 134.542 110.698C133.669 110.504 132.797 111.182 132.409 112.055Z" fill="white"/>
<path d="M138.322 111.179C137.256 112.148 137.547 115.347 138.613 115.347C139.194 115.347 139.582 114.474 139.582 113.505C139.582 112.439 140.164 111.372 140.842 111.179C141.618 110.791 141.424 110.597 140.455 110.597C139.582 110.5 138.613 110.791 138.322 111.179Z" fill="white"/>
<path d="M58.74 124.75C59.6124 129.79 60.097 129.984 60.097 125.235C60.097 123.005 59.6124 121.163 59.1277 121.163C58.4492 121.163 58.3522 122.52 58.74 124.75Z" fill="white"/>
<path d="M63.0051 121.941C63.0051 123.686 65.1376 128.92 65.9131 128.92C66.3008 128.92 66.9794 127.854 67.2702 126.594C67.561 125.333 68.1426 123.492 68.5303 122.522C68.918 121.359 68.8211 121.068 68.0456 121.553C67.3671 121.941 66.8824 123.104 66.8824 124.17C66.8824 125.14 66.4947 126.012 65.9131 126.012C65.4284 126.012 64.9438 125.14 64.9438 124.17C64.9438 123.104 64.556 121.941 63.9745 121.65C63.4898 121.359 63.0051 121.456 63.0051 121.941Z" fill="white"/>
<path d="M76.3818 122.812C76.3818 123.781 76.2849 125.138 76.2849 125.72C76.3818 126.398 76.091 126.786 75.7033 126.592C75.3155 126.301 74.4432 126.495 73.6677 126.98C72.5045 127.658 72.5045 127.949 73.9585 128.531C76.8665 129.597 78.5143 128.24 78.5143 124.557C78.5143 121.164 76.6726 119.71 76.3818 122.812Z" fill="white"/>
<path d="M19.4833 125.138C18.1262 129.113 18.1262 129.113 20.3557 127.756C22.0035 126.689 22.4882 126.786 23.2636 127.949C24.6207 129.985 24.5238 127.562 23.0698 124.557C21.6158 121.358 20.7434 121.455 19.4833 125.138Z" fill="white"/>
<path d="M29.0784 125.524C29.0784 128.82 29.2722 129.014 31.7925 128.723C34.0219 128.432 34.4097 127.947 34.4097 125.524C34.4097 123.101 34.0219 122.616 31.7925 122.325C29.2722 122.035 29.0784 122.228 29.0784 125.524ZM33.3434 123.973C34.1189 125.136 33.0526 127.947 31.8894 127.947C31.4047 127.947 31.017 126.881 31.017 125.524C31.017 123.101 32.3741 122.228 33.3434 123.973Z" fill="white"/>
<path d="M48.6602 125.137C49.048 129.208 50.8897 129.887 50.7928 125.816C50.7928 124.071 50.2112 122.52 49.5326 122.326C48.6602 122.035 48.4664 122.908 48.6602 125.137Z" fill="white"/>
<path d="M94.509 124.073C93.7336 126.593 95.5753 128.919 98.2894 128.822C100.325 128.822 100.325 128.822 98.1925 127.95C96.9323 127.465 95.963 126.205 95.963 125.139C95.963 123.976 96.7385 123.103 98.1925 122.812C100.034 122.425 100.034 122.425 97.7078 122.231C95.8661 122.134 94.8968 122.716 94.509 124.073Z" fill="white"/>
<path d="M39.4507 123.779C39.2568 124.264 39.1599 126.105 39.1599 127.947C39.2568 130.661 39.6446 131.34 41.1955 131.34C42.2618 131.34 43.2311 130.564 43.4249 129.595C43.6188 128.529 43.1341 127.947 41.971 127.947C40.3231 127.85 40.3231 127.85 41.971 126.881C44.2004 125.621 44.1035 123.101 41.7771 123.101C40.7108 123.101 39.6446 123.391 39.4507 123.779Z" fill="white"/>
<path d="M54.0862 123.686C54.6677 123.976 55.2493 125.14 55.2493 126.303C55.2493 128.048 55.0555 128.144 54.28 126.981C53.7954 126.206 53.1168 125.915 52.826 126.206C51.7598 127.272 53.3107 128.92 55.3463 128.92C58.1573 128.92 57.5757 123.686 54.7647 123.395C53.6984 123.201 53.4076 123.395 54.0862 123.686Z" fill="white"/>
<path d="M73.1824 124.073C72.8916 124.558 72.0192 124.752 71.2438 124.364C70.1775 123.976 69.7898 124.558 69.7898 126.4C69.7898 127.757 70.2745 128.92 70.7591 128.92C71.3407 128.92 71.7284 128.532 71.7284 128.144C71.7284 127.66 72.6008 126.4 73.6671 125.236C74.8303 124.073 75.218 123.104 74.7334 123.104C74.2487 123.104 73.5702 123.492 73.1824 124.073Z" fill="white"/>
<path d="M79.4844 124.071C79.4844 124.847 79.8721 126.204 80.4537 126.979C80.9384 127.852 80.9384 128.821 80.2598 129.596C79.5813 130.469 79.5813 130.856 80.3568 130.856C80.9384 130.856 82.1016 129.306 82.877 127.367C84.6218 123.005 84.7187 122.036 82.9739 124.362C81.6169 126.107 81.52 126.107 80.5506 124.362C79.7752 123.005 79.5813 123.005 79.4844 124.071Z" fill="white"/>
<path d="M86.5606 123.782C88.3053 124.267 88.8869 127.951 87.1422 127.951C86.6575 127.951 86.4636 127.466 86.8514 126.884C87.2391 126.206 87.0452 125.915 86.3667 126.109C84.3311 126.787 84.7188 128.435 87.0452 128.726C88.8869 129.017 89.1777 128.629 89.1777 126.109C89.1777 123.589 88.79 123.104 87.0452 123.201C85.3974 123.298 85.2035 123.395 86.5606 123.782Z" fill="white"/>
<path d="M108.369 123.878C106.527 124.266 105.849 128.919 107.593 128.919C108.175 128.919 108.563 128.046 108.563 126.98C108.563 124.363 110.308 124.557 110.792 127.174L111.18 129.403L111.374 127.174C111.471 124.557 113.409 124.266 113.409 126.98C113.409 128.046 113.894 128.919 114.379 128.919C115.736 128.919 115.542 125.332 114.185 124.46C112.731 123.587 110.695 123.394 108.369 123.878Z" fill="white"/>
<path d="M118.062 123.78C116.802 124.071 116.318 125.137 116.318 127.754C116.318 129.693 116.705 130.856 117.093 130.275C117.481 129.693 118.547 129.014 119.516 128.627C120.389 128.336 121.164 127.173 121.164 126.106C121.164 123.877 120.389 123.295 118.062 123.78Z" fill="white"/>
<path d="M129.695 123.782C127.853 124.267 127.174 128.92 128.919 128.92C129.501 128.92 129.889 128.048 129.889 126.981C129.889 124.364 131.633 124.558 132.118 127.175C132.506 129.114 132.506 129.114 132.7 126.787C132.796 123.879 132.118 123.298 129.695 123.782Z" fill="white"/>
<path d="M101.003 126.202C101.39 129.11 105.171 129.401 105.171 126.493C105.171 125.233 104.395 124.458 102.941 124.264C101.003 123.973 100.712 124.264 101.003 126.202Z" fill="white"/>
<path d="M123.879 124.752C124.46 124.946 125.042 125.915 124.945 126.787C124.945 127.854 124.751 127.951 124.363 127.175C124.17 126.594 123.491 126.206 123.006 126.594C121.262 127.563 122.134 128.92 124.557 128.92C126.496 128.92 126.981 128.435 126.981 126.497C126.981 124.655 126.496 124.073 124.848 124.17C123.588 124.17 123.2 124.461 123.879 124.752Z" fill="white"/>
<path d="M135.026 126.689C135.898 128.724 135.898 129.306 134.929 129.694C133.572 130.081 133.378 131.826 134.735 131.826C135.801 131.826 138.612 126.786 138.612 124.944C138.612 124.265 137.934 124.556 137.158 125.622C135.898 127.27 135.801 127.27 135.704 125.719C135.704 124.847 135.317 124.072 134.735 124.072C134.154 124.072 134.25 125.138 135.026 126.689Z" fill="white"/>
</svg>
