<svg width="221" height="63" viewBox="0 0 221 63" fill="none" xmlns="http://www.w3.org/2000/svg">
<g clipPath="url(#clip0_2520_17736)">
<path d="M11.5572 0.780639C0.0777315 2.81103 -4.13923 20.2255 4.68515 29.0499C7.18409 31.5488 7.80883 32.8764 8.58975 37.3276C9.68303 43.7312 11.8696 50.369 14.8371 56.2259C17.6484 61.7704 18.8979 62.8637 21.0064 61.7704C22.4901 60.9895 22.6463 60.0524 22.8025 50.9937C23.0367 42.6379 23.271 41.076 24.4424 40.2951C25.3795 39.6704 26.1604 39.6704 27.1756 40.2951C28.2689 41.076 28.5032 42.6379 28.7374 50.9937C28.8936 60.0524 29.0498 60.9895 30.5336 61.7704C32.642 62.8637 33.8915 61.7704 36.6247 56.304C39.3579 50.8375 41.8569 43.2626 42.9502 36.8591C43.653 32.7202 44.2777 31.4707 46.4643 29.5965C50.1346 26.3167 51.7746 21.5531 51.3841 15.3838C50.7594 4.9976 43.4187 -1.01547 33.9696 1.01491C32.2516 1.32728 29.7526 2.73294 28.347 4.0605L25.848 6.48135L23.0367 4.0605C21.553 2.65484 19.2883 1.40537 18.117 1.09301C16.9456 0.858731 15.6961 0.546363 15.2276 0.468271C14.8371 0.390179 13.1972 0.546363 11.5572 0.780639ZM18.976 3.20149C19.9131 3.67004 21.8654 5.15378 23.271 6.48135L25.77 8.90219L28.347 6.48135C31.7049 3.27958 33.7353 2.34248 37.0933 2.34248C44.1215 2.34248 49.9784 9.21456 49.9784 17.6485C49.9784 20.9283 46.5424 27.4881 43.7311 29.5184C42.0131 30.846 41.3883 31.9393 41.3883 33.8135C41.3102 40.6075 33.6572 61.0676 31.4707 60.2866C31.0802 60.2086 30.924 56.1478 31.0802 51.3061C31.3926 40.217 30.6897 38.6552 25.77 38.6552C20.9283 38.6552 20.2254 40.217 20.3816 51.3842C20.4597 56.2259 20.3035 60.3647 20.0693 60.599C19.4445 61.3018 15.9304 54.8202 13.6657 48.9633C12.5724 46.0739 11.2449 40.9199 10.6201 37.4838C9.68303 31.9393 9.21448 30.9241 6.48126 28.1909C1.79575 23.4273 0.312007 16.9457 2.81095 11.0888C4.13851 7.80891 7.41837 4.0605 9.76112 3.12339C12.0258 2.1082 17.0237 2.18629 18.976 3.20149Z" fill="white"/>
<path d="M23.0367 12.4934C21.7091 13.9771 21.7091 16.6322 22.9586 19.6778C23.5053 20.8492 23.1929 20.9273 20.772 20.5368C18.3512 20.1464 17.8826 20.3806 17.1017 22.1767C16.3208 23.8948 16.3989 24.4414 17.5703 25.769C18.9759 27.3308 18.9759 27.4089 17.336 28.5803C13.4314 31.3135 16.2427 35.9209 21.7091 35.9209C24.13 35.9209 24.989 36.2333 24.989 37.0923C24.989 37.717 25.3795 38.2637 25.7699 38.2637C26.2385 38.2637 26.5508 37.6389 26.5508 36.858C26.5508 35.6866 27.0194 35.5305 29.2841 35.7647C33.1106 36.2333 36.078 34.2029 35.7657 31.3916C35.6095 30.1421 34.8286 28.9707 33.8134 28.5022C31.7049 27.6432 31.5487 26.8623 33.1886 26.2375C34.9067 25.6128 34.5943 22.0987 32.642 20.7711C31.3925 19.9121 30.6116 19.834 29.4402 20.4587C28.1127 21.1616 27.9565 21.0835 28.425 19.834C29.9088 16.0856 29.8307 14.2114 28.1908 12.5714C26.1604 10.5411 24.8328 10.463 23.0367 12.4934ZM27.2537 13.9771C28.1908 15.617 26.9413 21.0835 25.6918 21.0835C23.8176 21.0835 22.6462 13.7428 24.4424 13.04C26.0823 12.3372 26.4727 12.4934 27.2537 13.9771ZM32.7982 23.5043C32.7982 25.0661 29.9869 27.3308 27.9565 27.3308C26.0042 27.3308 26.2385 25.2223 28.425 23.0358C30.5335 20.9273 32.7982 21.1616 32.7982 23.5043ZM23.3491 23.8948C24.2862 25.0661 24.989 26.3156 24.989 26.628C24.989 28.346 19.1321 26.3937 18.4293 24.4414C17.1798 21.3177 21.0063 20.9273 23.3491 23.8948ZM23.271 31.4697C25.6918 33.6563 25.4576 34.3591 22.3339 34.3591C18.5074 34.3591 17.1798 33.6563 17.1798 31.6259C17.1798 28.5803 19.913 28.5022 23.271 31.4697ZM33.8915 30.6107C35.1409 32.6411 33.1106 34.3591 29.5964 34.3591C25.6137 34.3591 25.6137 32.9534 29.6745 30.2202C31.8611 28.7365 32.7201 28.8146 33.8915 30.6107Z" fill="white"/>
<path d="M145.016 5.93396C144.157 6.79297 144.392 10.7757 145.329 11.3223C145.719 11.6347 146.969 11.6347 148.062 11.4004C149.702 10.9318 150.014 10.4633 149.78 8.35481C149.624 6.32442 149.155 5.77777 147.593 5.62159C146.5 5.46541 145.329 5.62159 145.016 5.93396Z" fill="white"/>
<path d="M78.8726 21.2396V35.9209H81.6058H84.339V21.2396V6.63645H81.6058H78.8726V21.2396Z" fill="white"/>
<path d="M170.083 6.94882C170.005 7.18309 169.927 13.8209 169.927 21.6301L169.849 35.9209H172.426H174.925V29.6735C174.925 23.9728 175.159 23.1919 176.877 21.4739C179.142 19.1311 181.25 18.975 182.968 20.9273C183.984 22.0205 184.296 23.9728 184.296 29.1269V35.9209H187.029H189.762V28.1117C189.762 19.9121 188.747 16.3198 186.248 15.3046C183.515 14.2895 178.829 14.8361 177.268 16.3979C176.409 17.2569 175.471 17.9598 175.237 17.9598C175.003 17.9598 174.925 15.3827 175.003 12.3372L175.159 6.71454L172.738 6.55836C171.333 6.48026 170.161 6.63645 170.083 6.94882Z" fill="white"/>
<path d="M58.5681 22.0205V35.9209H61.3013H64.0345V30.4545V24.988H70.2819H76.5292V22.6453V20.3025H70.2819H64.0345V16.7884V13.2743H70.6724H77.3102V10.6972V8.19828H67.9391H58.5681V22.0205Z" fill="white"/>
<path d="M89.4151 17.4144C86.2133 20.6161 85.3543 24.5207 86.76 28.972C88.0875 33.0327 90.8988 35.2193 95.4281 35.6879C102.066 36.4688 106.986 32.1737 106.986 25.614C106.986 18.3515 103.394 14.8373 95.9748 14.8373C92.5387 14.8373 91.6797 15.1497 89.4151 17.4144ZM100.348 21.0847C103.628 24.6769 101.207 31.2366 96.7557 31.2366C92.2264 31.2366 89.8055 25.3017 92.6168 21.2409C94.1787 18.9762 98.3956 18.8981 100.348 21.0847Z" fill="white"/>
<path d="M108.547 23.1138C108.547 31.1573 108.625 31.3916 110.812 33.6562C114.014 36.858 118.777 36.5456 121.588 32.8753C122.447 31.782 122.526 31.9382 122.604 33.7343C122.604 35.6866 122.916 35.9209 125.337 35.9209H128.07V25.3785V14.8361H125.337H122.604V20.9273C122.604 27.9555 121.432 30.4545 117.996 30.4545C114.56 30.4545 114.014 29.205 114.014 21.7082V14.8361H111.28H108.547V23.1138Z" fill="white"/>
<path d="M131.193 25.3785V35.9209H133.927H136.66V29.8297C136.66 22.9576 137.675 20.693 141.267 19.9121C143.063 19.5216 143.454 19.0531 143.532 17.1788C143.61 14.3675 141.423 13.9771 139.003 16.3979C138.144 17.2569 137.285 17.9598 137.05 17.9598C136.816 17.9598 136.66 17.2569 136.66 16.3979C136.66 15.1485 136.113 14.8361 133.927 14.8361H131.193V25.3785Z" fill="white"/>
<path d="M144.47 25.3785V35.9209H147.203H149.936V25.3785V14.8361H147.203H144.47V25.3785Z" fill="white"/>
<path d="M154.231 16.7895C151.966 18.9761 151.654 22.7245 153.528 24.2864C154.231 24.9111 156.574 26.2387 158.76 27.3319C162.899 29.3623 163.446 30.2994 161.337 31.627C160.478 32.1736 159.073 32.0175 156.417 31.0804C154.387 30.3775 152.669 29.8309 152.591 29.909C152.513 29.9871 152.201 30.8461 151.966 31.8613C151.498 33.345 151.81 33.8136 154.153 34.7507C158.76 36.703 162.977 36.3125 165.632 33.6574C169.771 29.5185 168.366 25.7701 161.572 23.115C156.417 21.0065 155.871 19.1323 160.478 19.2104C162.196 19.2104 164.149 19.5228 164.851 19.8351C165.71 20.2256 166.335 19.8351 166.882 18.5076C167.663 16.7895 167.507 16.4772 165.867 15.6963C164.773 15.2277 162.196 14.8372 160.01 14.8372C156.886 14.8372 155.715 15.2277 154.231 16.7895Z" fill="white"/>
<path d="M194.449 42.0903C194.449 44.7455 194.136 46.8539 193.668 46.8539C193.277 46.8539 192.887 46.5416 192.887 46.1511C192.887 44.9797 188.279 43.7303 186.405 44.4331C182.032 46.1511 180.314 52.3985 183.047 56.5373C184.921 59.4267 189.216 60.0515 192.184 57.8649C194.449 56.225 194.449 56.225 194.449 57.7868C194.449 58.6458 194.839 59.3486 195.23 59.3486C195.698 59.3486 196.01 55.3659 196.01 48.8843C196.01 42.7151 195.698 38.1857 195.23 37.8734C194.761 37.561 194.449 39.2009 194.449 42.0903ZM190.856 46.1511C193.433 47.3225 194.917 51.0709 193.98 53.726C192.34 58.4896 185.858 59.0363 183.984 54.585C182.657 51.4614 183.281 48.7281 185.702 46.8539C187.967 45.0578 188.279 44.9797 190.856 46.1511Z" fill="white"/>
<path d="M132.21 48.8062C132.132 57.2402 132.366 59.3486 133.225 59.3486C134.084 59.3486 134.318 57.2402 134.318 48.8062C134.318 40.4504 134.084 38.2638 133.225 38.2638C132.444 38.2638 132.21 40.4504 132.21 48.8062Z" fill="white"/>
<path d="M59.3494 49.1967V59.3486H64.0349C72.0002 59.3486 76.5296 55.7564 76.5296 49.431C76.5296 42.4808 72.3907 39.0447 64.113 39.0447H59.3494V49.1967ZM72.3126 43.2617C75.9048 46.8539 76.061 51.149 72.7031 54.8193C70.6727 57.084 70.048 57.3182 65.9091 57.3963H61.3017L61.0674 50.0557C60.9893 45.9949 60.9893 42.2465 61.2236 41.6218C61.5359 40.997 63.0197 40.6066 65.6748 40.6066C69.1889 40.6066 69.9699 40.919 72.3126 43.2617Z" fill="white"/>
<path d="M145.407 39.9818C143.377 40.997 142.361 44.1988 143.455 45.9949C143.845 46.6977 146.266 48.2596 148.843 49.5871C154.075 52.2423 155.09 54.4288 152.123 56.5373C149.78 58.1773 147.75 58.0992 144.704 56.225C142.518 54.8974 142.127 54.8974 142.127 55.9126C142.127 57.1621 146.5 59.3486 149.077 59.3486C151.732 59.3486 154.622 57.6306 155.09 55.6783C156.028 52.008 154.856 50.29 150.327 48.4158C147.906 47.4787 145.641 45.9949 145.251 45.214C143.455 41.9341 147.125 39.7476 151.967 41.2313C155.169 42.1684 156.418 40.997 153.451 39.8257C150.873 38.8105 147.672 38.8886 145.407 39.9818Z" fill="white"/>
<path d="M110.109 42.5585C110.109 43.808 109.64 44.5108 108.937 44.5108C108.313 44.5108 107.766 44.8231 107.766 45.2917C107.766 45.6822 108.313 46.0726 108.937 46.0726C109.874 46.0726 110.109 47.1659 110.109 51.461C110.109 58.0988 111.592 60.2072 115.107 58.8797C117.137 58.0988 116.512 57.0836 114.247 57.2398C112.061 57.3959 112.061 57.3959 111.827 51.6952L111.592 46.0726H114.013C115.263 46.0726 116.356 45.6822 116.356 45.2917C116.356 44.8231 115.341 44.5108 114.013 44.5108C112.061 44.5108 111.67 44.1984 111.67 42.5585C111.67 41.4652 111.358 40.6062 110.89 40.6062C110.499 40.6062 110.109 41.4652 110.109 42.5585Z" fill="white"/>
<path d="M158.838 42.561C159.229 43.9667 158.994 44.5133 158.135 44.5133C157.511 44.5133 156.964 44.8257 156.964 45.2943C156.964 45.6847 157.432 46.0752 157.979 46.0752C158.76 46.0752 158.994 47.4808 158.994 51.5416C158.916 57.8671 160.166 59.8974 163.524 59.0384C164.617 58.8042 165.554 58.1794 165.554 57.789C165.554 57.3204 164.695 57.1642 163.602 57.4766C161.259 58.0232 161.103 57.5547 160.712 50.9169L160.4 46.0752H162.977C164.383 46.0752 165.554 45.6847 165.554 45.2943C165.554 44.8257 164.383 44.5133 162.899 44.5133C160.556 44.5133 160.322 44.3572 160.712 42.561C160.947 41.0773 160.712 40.6088 159.697 40.6088C158.682 40.6088 158.448 41.0773 158.838 42.561Z" fill="white"/>
<path d="M79.7315 46.5432C78.0916 48.5736 77.545 53.1029 78.5601 55.8362C79.3411 57.8666 83.4018 59.5846 86.2912 59.0379C89.1026 58.4913 91.7577 56.2266 89.5711 56.2266C88.8683 56.2266 88.0874 56.539 87.8531 57.0075C87.3064 57.8666 84.3389 58.0227 82.3867 57.3199C81.7619 57.0075 80.6686 55.8362 79.9658 54.5867L78.7944 52.322H85.198H91.6015L91.0548 49.8231C90.2739 45.9966 88.4778 44.5128 84.6513 44.5128C81.9962 44.5128 80.981 44.9033 79.7315 46.5432ZM87.775 46.9337C91.3672 49.745 90.5082 50.7602 84.3389 50.7602H78.8725L79.7315 48.886C80.5905 47.0899 82.9333 45.4499 84.8075 45.3719C85.2761 45.2938 86.6036 45.9966 87.775 46.9337Z" fill="white"/>
<path d="M93.7095 51.9299C93.7095 56.3811 94.0218 59.3486 94.4904 59.3486C94.9589 59.3486 95.2713 57.084 95.2713 54.0384C95.2713 47.8691 96.4427 46.073 100.582 46.073C103.783 46.073 104.642 47.791 104.642 54.1946C104.642 57.084 104.955 59.3486 105.423 59.3486C106.751 59.3486 106.36 48.2596 104.955 46.2292C103.471 44.1207 98.8635 43.8864 96.677 45.8387C95.3494 47.0101 95.2713 47.0101 95.2713 45.8387C95.2713 45.0578 94.9589 44.5112 94.4904 44.5112C94.0218 44.5112 93.7095 47.4787 93.7095 51.9299Z" fill="white"/>
<path d="M119.011 45.7606C117.606 46.932 117.606 46.932 119.48 46.3854C124.4 45.0578 127.211 46.073 127.289 49.3529C127.289 50.5243 126.586 50.7585 123.462 50.7585C119.167 50.7585 117.137 52.0861 117.137 55.0536C117.137 57.1621 119.792 59.3486 122.213 59.3486C123.072 59.3486 124.634 58.802 125.571 58.0992C127.133 57.0059 127.289 57.0059 127.289 58.0992C127.289 58.802 127.679 59.3486 128.07 59.3486C128.538 59.3486 128.851 56.7716 128.851 53.2575C128.851 48.2596 128.538 46.8539 127.445 45.8387C125.649 44.1988 121.042 44.1207 119.011 45.7606ZM127.289 53.4137C127.289 56.9278 121.666 59.1924 119.48 56.6154C117.684 54.4288 118.855 52.7108 122.603 52.2423C124.556 52.008 126.352 51.6956 126.742 51.6956C127.055 51.6175 127.289 52.3985 127.289 53.4137Z" fill="white"/>
<path d="M166.491 50.4475C166.725 55.5235 167.038 56.6168 168.6 57.8662C170.942 59.8185 173.754 59.7404 175.706 57.7881C177.58 55.9139 178.205 55.8358 177.892 57.4758C177.736 58.2567 178.049 58.9595 178.517 59.1157C179.142 59.35 179.454 57.0853 179.532 51.9312C179.611 45.762 179.376 44.5125 178.439 44.5125C177.502 44.5125 177.268 45.4496 177.424 48.9638C177.502 51.4627 177.112 54.274 176.643 55.2111C175.472 57.3977 172.504 58.2567 170.318 57.0072C168.6 56.1482 168.443 55.3673 168.678 48.5733C168.756 45.2153 168.521 44.5125 167.506 44.5125C166.335 44.5125 166.179 45.2934 166.491 50.4475Z" fill="white"/>
<path d="M199.915 51.9299C199.915 56.3811 200.227 59.3486 200.696 59.3486C201.164 59.3486 201.477 56.3811 201.477 51.9299C201.477 47.4787 201.164 44.5112 200.696 44.5112C200.227 44.5112 199.915 47.4787 199.915 51.9299Z" fill="white"/>
<path d="M205.772 46.4635C201.399 50.7585 204.835 59.3486 210.848 59.3486C214.206 59.3486 217.876 55.6783 217.876 52.3204C217.876 49.431 216.08 45.6826 214.362 44.9797C211.473 43.8864 207.646 44.5112 205.772 46.4635ZM214.987 47.791C216.783 49.8995 216.705 53.1794 214.675 55.7564C210.38 61.2228 202.883 54.585 206.241 48.3377C207.959 45.0578 212.41 44.8235 214.987 47.791Z" fill="white"/>
</g>
<defs>
<clipPath id="clip0_2520_17736">
<rect width="221" height="62.4735" fill="white"/>
</clipPath>
</defs>
</svg>
