<svg width="356" height="104" viewBox="0 0 356 104" fill="none" xmlns="http://www.w3.org/2000/svg">
<path d="M49.3652 27.7699C42.2452 33.2285 36.0745 38.3312 35.5999 39.2805C35.1252 40.2299 34.4132 44.3832 34.0572 48.6552L33.3452 56.3685L49.0092 72.3885C57.6719 81.1699 65.1479 88.7645 65.8599 89.2392C68.1145 90.9005 68.8265 88.6459 68.8265 80.3392C68.8265 72.8632 68.4705 71.5579 65.7412 68.7099L62.7745 65.5059L69.3012 64.7939C73.2172 64.2005 75.9465 63.3699 75.9465 62.5392C75.9465 61.7085 73.3359 58.5045 70.1319 55.3005L64.3172 49.6045L57.4345 50.7912C51.3825 51.8592 50.1959 51.7405 48.2972 49.9605C46.3985 48.0619 46.6359 47.7059 53.7559 42.3659C57.9092 39.3992 61.9439 36.1952 62.5372 35.3645C64.4359 32.8725 65.5039 17.8019 63.7239 17.9205C62.8932 17.9205 56.4852 22.4299 49.3652 27.7699ZM62.4185 27.7699C61.5879 34.0592 61.3505 34.4152 53.2812 40.4672C48.7719 43.9085 45.0932 47.3499 45.0932 48.1805C45.0932 49.0112 46.0425 50.5539 47.1105 51.6219C48.7719 53.2832 50.4332 53.5205 56.9599 52.9272L64.7919 52.0965L68.5892 56.8432C70.7252 59.4539 72.3865 61.8272 72.3865 62.0645C72.3865 62.4205 70.0132 63.0139 67.0465 63.3699C60.9945 64.3192 60.5199 65.6245 64.6732 70.0152C67.4025 72.8632 67.6399 73.8125 66.9279 79.9832L66.0972 86.7472L50.7892 71.5579L35.4812 56.3685L36.0745 48.1805C36.4305 43.7899 36.7865 39.8739 37.0239 39.7552C42.7199 34.8899 62.2999 20.4125 62.6559 20.7685C62.8932 21.0059 62.7745 24.2099 62.4185 27.7699Z" fill="white"/>
<path d="M92.2032 25.753C92.5592 30.2624 93.3898 34.5344 94.1018 35.365C94.6952 36.1957 98.6112 39.3997 102.765 42.3664C106.918 45.4517 110.359 48.181 110.359 48.6557C110.359 49.0117 109.41 49.8424 108.223 50.5544C106.681 51.5037 104.07 51.6224 99.2045 50.7917L92.3218 49.605L86.5072 55.301C83.3032 58.505 80.6925 61.709 80.6925 62.421C80.6925 63.3704 83.3032 64.201 87.3378 64.7944L93.8645 65.5064L90.7792 68.829C87.9312 71.7957 87.6938 72.745 88.0498 80.8144C88.2872 85.6797 88.8805 89.5957 89.5925 89.5957C90.3045 89.5957 98.1365 82.001 107.155 72.745L123.531 56.013L122.819 49.605C122.463 46.1637 121.87 42.2477 121.633 40.8237C121.039 38.4504 95.2885 17.8024 92.6778 17.8024C91.8472 17.8024 91.7285 20.5317 92.2032 25.753ZM109.766 32.0424C119.734 39.7557 120.683 41.1797 120.921 51.029C121.039 56.369 121.039 56.4877 105.731 71.677L90.5418 86.8664L89.8298 79.865C89.1178 73.3384 89.3552 72.745 92.6778 69.3037C96.7125 65.1504 96.3565 64.557 89.2365 63.3704C86.5072 62.8957 84.2525 62.3024 84.2525 61.8277C84.3712 61.4717 85.9138 59.217 87.9312 56.9624C91.3725 52.9277 91.6098 52.809 100.51 52.809C108.342 52.809 109.647 52.453 111.19 50.1984C112.851 47.7064 112.495 47.3504 103.951 40.9424C97.6618 36.1957 94.9325 33.3477 94.9325 31.5677C94.9325 30.2624 94.5765 26.9397 94.1018 24.4477L93.3898 19.701L96.8312 22.193C98.7298 23.617 104.545 28.0077 109.766 32.0424Z" fill="white"/>
<path d="M144.298 35.3629C143.823 36.1936 143.23 49.0096 143.467 53.0442C143.586 53.8749 144.654 54.5869 145.841 54.5869C147.621 54.5869 148.214 53.6376 148.57 50.1962L148.926 45.9242L155.453 45.8056C161.386 45.6869 161.979 45.4496 161.861 42.9576C161.861 41.1776 162.454 40.3469 163.997 40.3469C165.539 40.3469 166.133 39.5162 166.133 37.3802C166.133 34.4136 166.014 34.4136 155.571 34.4136C149.638 34.4136 144.654 34.8882 144.298 35.3629ZM164.946 37.9736C164.946 38.6856 161.149 39.1602 156.046 39.1602C150.943 39.1602 147.146 39.6349 147.146 40.3469C147.146 41.6522 148.095 41.8896 154.978 41.5336C157.707 41.4149 160.318 41.8896 160.793 42.6016C161.267 43.4322 159.131 43.9069 154.385 43.9069H147.146V48.0602C147.146 50.3149 146.671 52.2136 145.959 52.2136C145.247 52.2136 144.773 48.8909 144.773 44.5002V36.7869H154.859C160.793 36.7869 164.946 37.2616 164.946 37.9736Z" fill="white"/>
<path d="M169.93 36.3122C167.794 37.7362 167.32 39.2789 167.32 44.5002C167.32 53.1629 168.981 54.5869 179.186 54.5869C189.392 54.5869 191.053 53.1629 191.053 44.5002C191.053 36.4309 188.68 34.4136 179.186 34.4136C175.152 34.4136 171.592 35.1256 169.93 36.3122ZM188.442 38.2109C190.104 39.8722 190.341 48.5349 188.68 51.0269C187.849 52.3322 185.357 52.8069 179.186 52.8069C173.016 52.8069 170.524 52.3322 169.693 51.0269C168.032 48.5349 168.269 39.8722 169.93 38.2109C170.761 37.3802 174.677 36.7869 179.186 36.7869C183.696 36.7869 187.612 37.3802 188.442 38.2109Z" fill="white"/>
<path d="M171.71 39.8727C170.405 41.2967 170.761 48.0607 172.303 49.6034C174.321 51.6207 184.526 51.3834 186.187 49.366C187.018 48.4167 187.493 45.806 187.255 43.67L186.899 39.754L179.779 39.398C175.745 39.1607 172.185 39.398 171.71 39.8727ZM185.119 44.5007V48.654H179.305C173.727 48.654 173.49 48.5354 173.015 45.094C172.659 43.0767 172.778 41.2967 173.015 40.9407C173.371 40.5847 176.219 40.3474 179.423 40.3474H185.119V44.5007Z" fill="white"/>
<path d="M194.02 35.3654C193.664 35.7214 193.427 40.2307 193.427 45.3334C193.427 53.7587 193.664 54.5894 195.8 54.5894C197.58 54.5894 198.174 53.7587 198.174 51.6227C198.174 49.6054 198.886 48.656 200.191 48.656C201.259 48.656 203.87 49.9614 206.006 51.6227C209.803 54.4707 214.668 55.5387 216.448 53.7587C216.923 53.284 216.092 51.9787 214.55 50.792L211.82 48.7747L214.55 46.876C217.516 44.74 217.991 40.7054 215.499 37.264C214.075 35.3654 212.295 35.0094 204.226 34.8907C199.004 34.8907 194.376 35.0094 194.02 35.3654ZM214.787 39.1627C216.448 42.248 214.431 46.2827 211.227 46.2827C208.142 46.2827 208.26 48.8934 211.346 50.792C212.77 51.6227 213.482 52.6907 213.126 53.0467C212.77 53.4027 209.803 51.9787 206.48 49.8427C200.191 45.808 196.987 45.808 196.987 49.8427C196.987 51.148 196.512 52.216 195.8 52.216C195.088 52.216 194.614 48.8934 194.614 44.5027V36.7894H204.107C212.295 36.7894 213.719 37.1454 214.787 39.1627Z" fill="white"/>
<path d="M197.224 41.7726C197.58 44.2646 198.173 44.502 204.7 44.502C211.226 44.502 211.82 44.2646 212.176 41.7726C212.532 39.2806 212.176 39.162 204.7 39.162C197.224 39.162 196.868 39.2806 197.224 41.7726ZM211.226 41.5353C211.226 42.1286 208.26 42.722 204.7 42.722C201.14 42.722 198.173 42.1286 198.173 41.5353C198.173 40.8233 201.14 40.3486 204.7 40.3486C208.26 40.3486 211.226 40.8233 211.226 41.5353Z" fill="white"/>
<path d="M218.109 35.7189C215.38 37.3802 218.228 40.3469 222.5 40.3469H226.653V47.4669C226.653 53.7562 226.891 54.5869 229.027 54.5869C231.163 54.5869 231.4 53.7562 231.4 47.4669V40.3469H235.553C239.588 40.3469 242.317 37.8549 240.419 35.8376C239.351 34.8882 219.771 34.7696 218.109 35.7189ZM239.113 37.9736C238.757 38.5669 236.503 39.1602 234.248 39.1602H230.213V46.2802C230.213 50.1962 229.739 53.4002 229.027 53.4002C228.315 53.4002 227.84 50.1962 227.84 46.2802V39.1602H223.805C221.551 39.1602 219.296 38.5669 218.94 37.9736C218.465 37.2616 222.144 36.7869 229.027 36.7869C235.909 36.7869 239.588 37.2616 239.113 37.9736Z" fill="white"/>
<path d="M243.267 35.3643C242.555 35.6017 242.08 39.9923 242.08 45.3323C242.08 54.4697 242.199 54.707 244.809 54.351C246.708 54.1137 247.42 53.283 247.301 51.2657C247.183 47.8243 249.793 47.943 254.659 51.6217C258.575 54.5883 263.915 55.5377 265.22 53.4017C265.576 52.8083 264.508 51.6217 262.728 50.6723L259.643 49.011L262.728 47.1123C266.169 44.8577 267 39.2803 264.152 36.907C262.728 35.7203 245.996 34.5337 243.267 35.3643ZM263.44 39.1617C265.22 42.3657 263.796 46.2817 261.067 46.2817C257.507 46.2817 257.032 48.5363 260.117 51.0283C264.508 54.707 260.355 53.7577 254.659 49.723C248.725 45.5697 245.64 45.807 245.64 50.435C245.64 52.0963 245.165 53.4017 244.453 53.4017C243.741 53.4017 243.267 49.8417 243.267 45.095V36.7883H252.76C261.067 36.7883 262.372 37.0257 263.44 39.1617Z" fill="white"/>
<path d="M245.877 41.7723C246.233 44.1456 247.064 44.5016 252.522 44.8576C259.168 45.2136 262.609 43.671 261.422 40.823C260.948 39.6363 258.693 39.1616 253.116 39.1616C245.877 39.1616 245.521 39.2803 245.877 41.7723ZM259.642 41.6536C259.168 42.959 249.437 44.2643 247.776 43.1963C247.182 42.8403 247.064 42.0096 247.42 41.4163C248.488 39.8736 260.236 39.9923 259.642 41.6536Z" fill="white"/>
<path d="M267.475 37.2618C267.119 38.0925 267.001 42.2458 267.238 46.3992L267.594 53.9938L279.223 54.3498C290.853 54.7058 290.853 54.7058 290.497 51.9765C290.141 49.3658 289.785 49.2472 281.597 49.6032C274.239 49.9592 272.934 49.7218 272.934 48.1792C272.934 46.6365 274.358 46.2805 280.054 46.2805C286.343 46.2805 287.174 46.0432 287.174 43.9072C287.174 42.0085 286.225 41.5338 279.817 41.1778C272.459 40.8218 272.459 40.8218 281.597 40.5845C289.903 40.3472 290.734 40.1098 290.734 37.9738C290.734 35.7192 289.903 35.6005 279.461 35.6005C271.035 35.6005 267.95 35.9565 267.475 37.2618ZM289.547 37.9738C289.547 38.6858 285.75 39.1605 280.647 39.1605C273.527 39.1605 271.747 39.5165 271.747 40.9405C271.747 42.3645 273.29 42.7205 278.867 42.7205C282.783 42.7205 285.987 43.1952 285.987 43.9072C285.987 44.6192 282.546 45.0938 278.155 45.0938C270.798 45.0938 270.442 45.2125 270.798 47.7045C271.154 50.1965 271.866 50.4338 280.41 50.7898C292.87 51.2645 292.158 53.4005 279.461 53.4005H269.374V45.0938V36.7872H279.461C285.394 36.7872 289.547 37.2618 289.547 37.9738Z" fill="white"/>
<path d="M293.582 37.2616C293.226 38.2109 293.107 40.4656 293.344 42.3642C293.7 45.5682 293.938 45.6869 301.77 46.2802C312.568 47.1109 312.568 49.1282 301.77 49.6029C294.056 49.9589 293.107 50.1962 293.107 52.2136C293.107 54.3496 293.938 54.5869 302.956 54.5869C313.992 54.5869 315.654 53.6376 315.654 47.9416C315.654 42.9576 313.874 41.7709 305.567 41.1776L298.447 40.8216L306.516 40.5842C313.636 40.3469 314.467 40.1096 314.467 37.9736C314.467 35.8376 313.636 35.6002 304.38 35.6002C296.667 35.6002 294.056 35.9562 293.582 37.2616ZM313.28 37.9736C313.28 38.5669 309.839 39.1602 305.567 39.3976C296.074 39.8722 295.362 42.0082 304.618 42.4829C312.331 42.9576 314.467 44.1442 314.467 48.1789C314.467 51.9762 311.144 53.4002 302.126 53.4002C291.446 53.4002 292.158 51.2642 302.956 50.7896C310.551 50.4336 311.5 50.1962 311.5 48.0602C311.5 45.9242 310.551 45.5682 303.194 45.0936C296.43 44.6189 294.887 44.1442 294.531 42.3642C293.582 37.6176 295.006 36.7869 304.38 36.7869C309.246 36.7869 313.28 37.2616 313.28 37.9736Z" fill="white"/>
<path d="M318.502 38.6856C317.196 43.9069 319.214 45.5682 327.402 46.2802C337.607 47.1109 337.132 49.1282 326.69 49.6029C318.976 49.9589 318.027 50.1962 318.027 52.2136C318.027 54.3496 318.858 54.5869 327.876 54.5869C338.794 54.5869 340.574 53.6376 340.574 48.0602C340.574 42.8389 338.675 41.5336 330.606 41.2962L323.367 41.0589L331.674 40.4656C337.963 39.8722 339.98 39.2789 339.98 37.9736C339.98 36.5496 337.844 36.0749 329.656 35.8376L319.332 35.4816L318.502 38.6856ZM338.2 37.9736C338.2 38.5669 334.759 39.1602 330.487 39.3976C320.994 39.8722 320.282 42.0082 329.538 42.4829C337.132 42.8389 339.387 44.1442 339.387 47.9416C339.387 52.3322 337.132 53.4002 327.876 53.4002C316.603 53.4002 316.603 51.2642 327.876 50.7896C335.471 50.4336 336.42 50.1962 336.42 48.0602C336.42 46.0429 335.471 45.6869 329.3 45.3309C325.503 45.0936 321.587 44.3816 320.756 43.6696C318.739 42.1269 318.739 38.3296 320.756 37.6176C323.367 36.4309 338.2 36.7869 338.2 37.9736Z" fill="white"/>
<path d="M143.23 60.1651C142.399 61.9451 143.23 68.8278 144.298 69.1838C144.891 69.3024 145.485 67.1664 145.722 64.3184C146.078 59.9278 144.654 57.5544 143.23 60.1651Z" fill="white"/>
<path d="M155.453 64.6756C155.453 67.6423 155.809 70.0156 156.402 70.0156C156.877 70.0156 157.826 67.6423 158.538 64.6756C159.606 59.8103 159.606 59.3356 157.589 59.3356C155.809 59.3356 155.453 60.285 155.453 64.6756Z" fill="white"/>
<path d="M194.138 61.1156C193.189 63.7263 193.189 64.3196 194.375 63.6076C194.969 63.2516 195.087 64.557 194.85 66.5743C194.494 69.0663 194.85 70.0156 196.037 70.0156C197.223 70.0156 197.698 68.829 197.698 65.8623C197.461 60.997 195.325 58.149 194.138 61.1156Z" fill="white"/>
<path d="M224.518 60.761C222.382 62.897 222.738 63.8463 226.416 65.745L229.62 67.525L226.06 67.6437C222.619 67.7623 222.619 67.7623 224.755 69.4237C226.772 70.9663 227.366 70.9663 229.739 69.4237C231.994 67.9997 232.587 67.9997 233.774 69.4237C234.486 70.2543 235.91 70.729 236.859 70.373C239.114 69.5423 238.995 67.881 236.503 67.2877C234.486 66.813 234.486 66.6943 236.503 66.5757C237.571 66.5757 239.588 67.525 240.894 68.8303C242.199 70.1357 243.979 70.8477 245.047 70.4917C247.658 69.4237 247.183 67.6437 244.335 67.6437C241.131 67.6437 242.08 64.7957 245.403 64.321C247.539 63.965 248.014 64.5583 248.014 67.0503C248.014 69.7797 248.488 70.1357 251.336 69.7797C253.71 69.5423 254.659 68.7117 254.896 66.5757C255.134 65.033 254.778 63.253 254.066 62.541C253.116 61.5917 252.76 62.185 252.76 64.4397C252.76 68.237 250.743 68.7117 250.15 65.1517C249.794 62.185 243.86 60.8797 241.25 63.1343C240.182 63.965 239.232 63.965 237.927 62.897C235.791 61.117 232.112 62.3037 232.943 64.5583C233.536 65.8637 232.943 65.9823 230.095 64.9143C226.06 63.3717 225.586 61.7103 229.146 61.7103C230.451 61.7103 231.163 61.117 230.807 60.5237C229.858 58.8623 226.298 58.981 224.518 60.761Z" fill="white"/>
<path d="M264.627 64.4376C264.627 67.9976 265.22 68.9469 268.306 70.4896C272.696 72.6256 274.239 71.9136 276.494 66.3362C278.274 62.1829 276.968 60.1656 274.595 63.3696C273.29 65.2682 272.934 65.3869 272.34 63.8442C271.984 62.8949 271.035 62.0642 270.204 62.0642C269.374 62.0642 267.831 61.5896 266.763 61.1149C264.983 60.4029 264.627 60.8776 264.627 64.4376ZM271.747 69.0656C271.747 70.4896 270.56 70.2522 268.662 68.2349C267.594 67.2856 267.238 65.8616 267.712 65.1496C268.306 64.0816 269.018 64.4376 270.204 65.8616C271.035 67.1669 271.747 68.4722 271.747 69.0656Z" fill="white"/>
<path d="M147.976 62.5396C146.671 63.7263 147.027 70.0156 148.332 70.0156C149.044 70.0156 149.519 68.5916 149.519 66.9303C149.519 65.269 149.994 64.201 150.706 64.6756C151.418 65.0316 151.892 66.4556 151.892 67.761C151.892 68.9476 152.486 70.0156 153.079 70.0156C154.384 70.0156 154.622 66.4556 153.554 63.6076C152.842 61.709 149.4 60.997 147.976 62.5396Z" fill="white"/>
<path d="M160.082 64.1988C159.014 66.3348 159.251 67.1654 161.269 69.1828C163.523 71.5561 163.879 71.5561 165.659 69.7761C168.27 67.1654 166.965 61.7068 163.761 61.7068C162.455 61.7068 160.913 62.8934 160.082 64.1988Z" fill="white"/>
<path d="M169.219 62.5396C168.033 63.7263 168.389 70.0156 169.694 70.0156C170.406 70.0156 170.881 68.9476 170.881 67.761C170.881 66.4556 171.474 65.0316 172.067 64.6756C172.779 64.201 173.254 65.269 173.254 67.049C173.254 69.0663 173.847 70.0156 174.797 69.6596C175.509 69.4223 176.102 68.3543 175.865 67.2863C175.746 66.337 176.102 65.1503 176.814 64.6756C177.526 64.201 178.001 65.1503 178.001 66.9303C178.001 68.5916 178.594 70.0156 179.306 70.0156C180.018 70.0156 180.374 68.829 180.137 67.2863C179.781 65.5063 180.137 64.4383 181.205 64.4383C182.035 64.4383 182.747 65.3876 182.747 66.5743C182.747 67.761 183.341 69.0663 184.053 69.4223C184.883 70.0156 185.121 68.829 184.883 66.337L184.527 62.3023L177.17 62.065C173.135 61.9463 169.575 62.1836 169.219 62.5396Z" fill="white"/>
<path d="M187.018 64.7954C186.069 68.5927 187.968 71.2034 191.053 70.3727C195.088 69.3047 193.426 61.7101 189.154 61.7101C188.442 61.7101 187.374 63.1341 187.018 64.7954Z" fill="white"/>
<path d="M203.394 64.7937C202.92 66.811 203.276 68.4724 204.462 69.7777C206.242 71.439 206.598 71.439 208.853 69.4217C210.158 68.235 211.226 67.879 211.226 68.591C211.226 69.4217 211.82 70.015 212.413 70.015C213.125 70.015 213.6 68.947 213.6 67.7604C213.6 66.455 214.193 65.031 214.786 64.675C215.498 64.319 215.973 65.031 215.973 66.3364C215.973 69.303 218.109 70.727 219.058 68.3537C220.72 63.963 214.905 59.691 211.582 63.0137C210.633 63.963 210.04 63.963 209.565 63.0137C208.022 60.5217 204.225 61.5897 203.394 64.7937Z" fill="white"/>
<path d="M257.151 62.421C255.846 63.7263 256.202 70.0156 257.507 70.0156C258.219 70.0156 258.694 68.7103 258.694 67.049C258.694 65.3876 259.287 64.0823 259.88 64.0823C260.592 64.0823 261.067 65.3876 261.067 67.049C261.067 68.7103 261.66 70.0156 262.254 70.0156C262.966 70.0156 263.44 68.3543 263.44 66.4556C263.44 64.4383 262.966 62.8956 262.372 62.8956C261.779 62.8956 260.474 62.6583 259.643 62.3023C258.694 61.9463 257.626 62.065 257.151 62.421Z" fill="white"/>
<path d="M199.36 66.4556C199.36 68.3543 199.953 70.0156 200.546 70.0156C201.258 70.0156 201.733 68.3543 201.733 66.4556C201.733 64.4383 201.258 62.8956 200.546 62.8956C199.953 62.8956 199.36 64.4383 199.36 66.4556Z" fill="white"/>
</svg>
