<svg width="336" height="88" viewBox="0 0 336 88" fill="none" xmlns="http://www.w3.org/2000/svg">
<path d="M35.0667 27.6C33.3334 28.6667 32 30.5333 32 31.4667C32 34 35.8667 33.8667 38.8 31.2C41.6 28.6667 44 29.7333 44 33.3333C44 34.8 41.8667 36.9333 38.4 38.9333C33.8667 41.3333 32.5334 42.9333 32.2667 46L31.8667 50L40.2667 49.7333C46.9334 49.6 48.8 49.0667 49.0667 47.3333C49.4667 45.4667 48.6667 45.2 43.8667 45.6C37.0667 46.1333 34.9334 43.0667 41.2 41.8667C43.6 41.3333 46.6667 39.4667 48 37.6C54.2667 29.7333 43.6 21.4667 35.0667 27.6Z" fill="white"/>
<path d="M60.6667 31.6005C57.7334 35.2005 54.9334 38.1338 54.4 38.4005C53.8667 38.6672 53.3334 40.2672 53.3334 42.0005C53.3334 44.8005 53.7334 44.9338 59.2 44.4005C64.6667 43.7338 65.2 44.0005 65.6 46.8005C66 50.0005 70.6667 52.2672 70.6667 49.2005C70.6667 48.2672 71.7334 46.4005 72.9334 44.9338C75.2 42.5338 75.2 42.4005 72.9334 40.6672C71.3334 39.4672 70.6667 37.2005 70.6667 32.1338C70.6667 23.2005 67.8667 23.0672 60.6667 31.6005ZM66.4 36.9338C66.1334 39.3338 65.0667 40.8005 63.4667 41.0672C59.4667 41.8672 58.4 39.4672 61.3334 36.2672C65.0667 32.2672 66.9334 32.5338 66.4 36.9338Z" fill="white"/>
<path d="M78.6667 38.267C78.6667 49.7337 78.8001 50.667 81.3334 50.667C83.4667 50.667 84.0001 49.7337 84.0001 46.0003C84.0001 41.6003 84.2667 41.3337 88.6667 41.3337C92.5334 41.3337 93.3334 40.8003 93.3334 38.5337C93.3334 36.267 92.6667 35.867 89.0667 36.267C85.3334 36.5337 84.5334 36.1337 84.2667 33.6003C83.8667 30.9337 84.4001 30.667 89.2001 30.667C93.7334 30.667 94.6667 30.267 94.6667 28.0003C94.6667 25.6003 93.8667 25.3337 86.6667 25.6003L78.6667 25.867V38.267Z" fill="white"/>
<path d="M99.8667 25.5997C99.8667 25.8664 99.4667 29.8664 99.2 34.6664C98.5334 42.133 98.9334 43.8664 101.333 47.0664C104.8 51.333 111.467 51.9997 115.733 48.2664C118 46.3997 118.533 44.133 118.933 35.9997C119.333 26.7997 119.067 25.9997 116.667 25.9997C114.267 25.9997 114 26.7997 114.4 32.933C115.067 42.6664 114 45.333 109.333 45.333H105.467L105.067 35.733C104.8 27.733 104.267 25.9997 102.4 25.5997C101.067 25.333 100 25.333 99.8667 25.5997Z" fill="white"/>
<path d="M124 38.0002C124 49.7335 124.133 50.6668 126.667 50.6668C128.933 50.6668 129.333 49.7335 129.333 43.8668C129.333 36.0002 131.2 35.7335 135.067 42.8002C141.733 54.9335 144.667 53.4668 144.533 37.8668C144.4 27.0668 144.267 26.0002 141.867 26.0002C139.733 26.0002 139.333 26.8002 139.733 31.6002C140.267 38.6668 137.2 39.6002 134.667 33.2002C132.4 27.8668 129.733 25.3335 126.533 25.3335C124.267 25.3335 124 26.4002 124 38.0002Z" fill="white"/>
<path d="M150.4 26.1331C150 26.7997 149.733 32.3997 150 38.6664L150.267 49.9997L155.467 50.1331C161.2 50.3997 166.8 48.6664 168.267 46.2664C170.267 43.1997 169.467 29.7331 167.2 27.8664C164.8 25.8664 151.333 24.5331 150.4 26.1331ZM163.2 32.7997C165.6 38.9331 163.467 45.3331 159.2 45.3331C156.267 45.3331 156 44.7997 156 37.9997C156 31.1997 156.267 30.6664 159.2 30.6664C160.933 30.6664 162.8 31.5997 163.2 32.7997Z" fill="white"/>
<path d="M174.667 38.0003C174.667 49.7337 174.8 50.667 177.333 50.667C179.467 50.667 180 49.7337 180 46.0003C180 42.9337 180.667 41.3337 181.867 41.3337C182.933 41.3337 184.933 43.467 186.533 46.0003C188 48.5337 190.133 50.667 191.333 50.667C193.733 50.667 194 46.5337 191.867 44.4003C190.667 43.2003 190.8 41.6003 192.533 38.1337C196.267 30.1337 191.867 25.3337 180.8 25.3337H174.667V38.0003ZM187.733 33.6003C187.467 35.867 186.267 36.8003 183.733 37.067C180.533 37.467 180 37.067 180 34.1337C180 31.2003 180.533 30.667 184.133 30.667C187.6 30.667 188.133 31.067 187.733 33.6003Z" fill="white"/>
<path d="M204.8 26.9337C204.533 27.867 202.667 33.067 200.8 38.4003C196.533 50.4003 196.533 50.667 200.667 50.667C204.4 50.667 206.933 46.9337 205.333 43.867C203.867 41.467 206.533 31.7337 208.4 32.4003C210.533 33.067 212.933 42.0003 211.6 44.267C209.467 47.6003 211.467 50.667 216 50.667C218.133 50.667 220 50.267 219.867 49.6003C219.867 49.067 217.867 43.6003 215.6 37.3337C212.133 28.267 210.667 25.867 208.267 25.6003C206.667 25.3337 205.067 26.0003 204.8 26.9337Z" fill="white"/>
<path d="M223.733 26.267C223.467 26.9337 223.467 32.5337 223.733 38.9337C224.133 49.467 224.4 50.667 226.8 50.667C229.2 50.667 229.333 49.7337 229.2 38.0003C229.067 26.667 228.8 25.3337 226.667 25.3337C225.2 25.3337 224 25.7337 223.733 26.267Z" fill="white"/>
<path d="M236.267 27.467C230.133 31.7337 234.533 40.0003 243.067 40.0003C247.2 40.0003 249.467 43.6003 246.533 45.467C243.867 47.2003 241.733 46.9337 239.467 44.667C237.6 42.667 233.333 43.2003 233.333 45.467C233.333 47.467 239.333 50.667 243.333 50.667C249.067 50.667 253.333 47.3337 253.333 42.8003C253.333 38.4003 251.2 36.0003 246.933 36.0003C243.333 36.0003 238.667 33.7337 238.667 32.0003C238.667 29.867 243.6 29.2003 247.2 30.8003C251.867 32.9337 254.533 30.667 251.333 27.467C248.533 24.8003 240.133 24.667 236.267 27.467Z" fill="white"/>
<path d="M257.6 37.4668L258.133 49.7335L266.4 49.8668C273.6 50.1335 274.667 49.8668 274.667 47.7335C274.667 45.7335 273.6 45.3335 268.667 45.3335C263.6 45.3335 262.667 44.9335 262.667 42.6668C262.667 40.4001 263.6 40.0001 268 40.0001C271.867 40.0001 273.333 39.4668 273.333 38.0001C273.333 36.5335 271.867 36.0001 268 36.0001C263.6 36.0001 262.667 35.6001 262.667 33.3335C262.667 31.0668 263.6 30.6668 268.667 30.6668C273.733 30.6668 274.667 30.2668 274.667 28.0001C274.667 25.6001 273.733 25.3335 266 25.3335H257.2L257.6 37.4668Z" fill="white"/>
<path d="M279.2 27.067C278.8 28.1337 278.667 33.6003 278.933 39.467C279.333 48.9337 279.6 50.0003 282 50.0003C284.133 50.0003 284.667 49.2003 284.267 45.6003C283.867 39.467 288.133 39.7337 291.067 46.0003C292.533 49.067 294.267 50.667 296 50.667C299.2 50.667 299.333 48.9337 296.533 44.5337C294.533 41.467 294.533 41.067 296.533 38.8003C299.6 35.467 299.2 29.867 295.733 27.467C292 24.8003 280.267 24.5337 279.2 27.067ZM292.667 34.0003C292.667 36.1337 291.733 36.667 288.667 36.667C285.467 36.667 284.533 36.0003 284.267 33.6003C283.867 30.8003 284.267 30.5337 288.267 30.9337C291.6 31.2003 292.667 32.0003 292.667 34.0003Z" fill="white"/>
</svg>
