<svg width="219" height="75" viewBox="0 0 219 75" fill="none" xmlns="http://www.w3.org/2000/svg">
<g clipPath="url(#clip0_2520_17660)">
<path d="M4.7327 7.79393C1.67042 18.0944 0.742449 25.7965 1.11364 37.86C1.48482 52.3363 3.52635 56.7905 14.198 66.9982C18.3738 70.9884 22.0857 74.2363 22.4569 74.2363C22.9208 74.2363 20.7865 71.174 17.7242 67.3694C11.5069 59.4816 5.56787 49.0884 3.24796 41.9431C1.67042 37.0249 1.94881 33.9626 3.61914 38.1384C7.88779 49.1812 9.83652 53.3571 13.0844 58.2753C18.4666 66.4414 25.7975 74.2363 28.1174 74.2363C29.7878 74.2363 29.1382 73.2155 24.4984 68.4829C21.4361 65.235 17.6314 60.9664 16.0539 58.9249C11.7852 53.3571 6.68143 42.4999 5.10389 36.0041C3.61914 29.6939 3.24796 14.8465 4.54711 14.8465C5.01109 14.8465 5.38228 17.9088 5.38228 21.5278C5.66067 39.1592 11.878 53.4499 25.2408 66.8126L32.3861 74.0507L39.8098 74.1435C46.3056 74.2363 47.6975 73.9579 50.667 71.9164C52.523 70.6172 54.4717 69.5965 54.8429 69.5965C56.4204 69.5965 55.678 71.3596 53.6365 72.7516L51.595 74.2363H54.0077C55.7708 74.2363 57.3484 73.1227 59.7611 70.3388C63.5658 65.699 65.1433 66.163 62.2666 70.9884L60.3179 74.3291L62.3594 74.0507C64.3081 73.7723 64.9577 72.6588 66.4425 66.9982C66.628 66.3486 68.3912 65.8846 71.0823 65.8846C74.7941 65.8846 75.2581 65.699 74.7013 64.3071C73.2166 60.688 73.2166 59.5744 74.7013 58.0897C78.042 54.8418 84.3522 57.1617 83.053 61.2448C82.4035 63.4719 84.5378 63.7503 88.8064 62.0799C90.1984 61.5232 94.931 60.688 99.1069 60.224C103.375 59.76 108.665 58.6465 110.706 57.7185C115.068 55.7698 120.914 50.1092 122.492 46.3973L123.512 43.8918L144.577 43.2422C156.177 42.9638 166.756 42.4071 168.055 42.1287C170.282 41.6647 170.375 41.2935 170.189 36.0969C170.096 33.1274 170.375 30.4363 170.839 30.1579C171.303 29.7867 171.674 30.6219 171.674 31.921C171.674 34.6121 171.674 34.6121 176.499 33.4986C178.355 33.0346 180.025 32.9418 180.211 33.313C180.397 33.5914 183.645 33.777 187.542 33.5914C193.945 33.313 194.78 33.0346 195.801 30.9931C196.543 29.7867 197.842 28.766 198.77 28.766C201.09 28.766 200.905 29.6939 197.935 32.385C196.172 33.8698 195.894 34.4266 197.007 34.0554C197.935 33.6842 199.049 33.4058 199.42 33.4058C199.791 33.4058 200.812 32.1994 201.647 30.6219C202.575 29.1371 203.689 27.838 204.245 27.838C205.545 27.838 205.266 31.3643 203.967 31.8283C203.317 32.1066 203.689 32.385 204.802 32.385C206.287 32.4778 207.029 31.8283 207.493 30.0651C207.864 28.6732 208.607 27.838 209.535 28.0236C211.855 28.4876 211.948 30.5291 209.628 31.3643C208.143 31.921 207.864 32.385 208.7 32.849C210.277 33.8698 213.618 30.6219 213.154 28.5804C212.875 27.6524 213.154 26.91 213.896 26.91C214.546 26.91 215.01 27.5596 214.917 28.3948C214.917 29.2299 215.381 30.1579 216.123 30.4363C217.051 30.7147 217.237 30.4363 216.773 29.1371C216.216 27.7452 216.402 27.6524 217.237 28.4876C217.794 29.0444 218.072 30.1579 217.701 30.8075C215.752 34.6121 214.546 36.0969 213.989 35.5401C213.618 35.1689 213.803 36.0041 214.267 37.396C215.567 40.6439 215.567 41.7575 214.36 41.7575C213.803 41.7575 213.525 41.4791 213.525 41.1079C213.896 38.5096 213.154 37.1177 211.02 36.5609C209.442 36.1897 208.328 36.3753 207.772 37.2105C207.122 38.2312 206.751 38.1384 205.545 36.6537C204.709 35.6329 204.245 35.3545 204.617 35.9113C205.173 37.1177 203.874 37.4888 199.327 37.1177C197.842 37.0249 196.729 37.396 196.729 37.9528C196.729 38.5096 197.564 38.9736 198.585 38.9736C200.905 38.9736 201.09 41.4791 198.863 42.0359C197.657 42.3143 197.75 42.4999 199.327 42.5927C200.812 42.6855 201.74 42.0359 202.018 40.8295C202.297 39.8088 203.317 38.9736 204.245 38.9736C206.473 38.9736 206.565 40.4583 204.431 41.6647C202.946 42.4999 202.946 42.5927 204.802 42.6855C206.287 42.6855 207.122 41.9431 207.493 40.3655C208.236 37.4888 211.576 37.1177 211.576 39.9016C211.576 41.2007 210.927 41.7575 209.535 41.8503C207.957 41.9431 207.772 42.0359 209.071 42.4071C212.783 43.4278 210.092 44.0774 202.946 43.8918C193.017 43.7062 193.295 43.799 195.43 42.3143C196.822 41.2007 197.007 40.6439 196.172 39.252C195.059 37.396 191.161 36.3753 191.161 37.9528C191.161 38.5096 191.996 38.9736 193.017 38.9736C194.038 38.9736 194.873 39.6232 194.873 40.3655C194.873 41.1079 194.223 41.7575 193.481 41.7575C192.739 41.7575 192.089 42.4071 192.089 43.1494C192.089 44.6342 190.975 45.0054 189.955 43.8918C189.584 43.6134 189.769 42.7783 190.326 42.1287C191.996 40.0872 190.512 37.86 187.728 38.1384C186.243 38.324 184.573 38.1384 183.923 37.6744C182.531 36.8393 177.242 37.86 177.242 38.9736C177.242 39.4376 178.726 39.5304 180.489 39.252C183.366 38.788 183.737 38.9736 183.737 40.7367C183.737 41.8503 183.181 42.6855 182.345 42.6855C179.933 42.6855 173.53 39.716 174.087 38.8808C174.365 38.4168 173.901 38.0456 173.159 38.0456C172.323 38.0456 171.674 38.788 171.674 39.8088C171.674 41.0151 172.509 41.7575 174.365 42.2215C175.85 42.4999 177.613 43.4278 178.262 44.1702C178.819 44.9126 180.304 45.4694 181.417 45.4694C182.624 45.4694 183.83 46.2117 184.201 47.1397C184.758 48.6244 184.851 48.6244 185.964 47.0469C187.264 45.2838 189.305 44.9126 189.305 46.3973C189.305 46.8613 189.955 47.3253 190.697 47.3253C191.439 47.3253 192.089 46.8613 192.089 46.3973C192.089 45.8405 192.739 45.4694 193.481 45.4694C194.223 45.4694 194.78 46.0261 194.687 46.5829C194.502 47.2325 195.059 47.7893 195.801 47.7893C196.543 47.7893 197.1 47.2325 196.914 46.5829C196.822 46.0261 197.378 45.4694 198.121 45.4694C198.863 45.4694 199.513 46.1189 199.513 46.9541C199.513 47.7893 200.07 48.2533 200.626 47.9749C201.276 47.7893 201.74 47.0469 201.554 46.4901C201.462 45.9333 201.74 45.4694 202.297 45.4694C202.761 45.4694 203.503 45.4694 203.967 45.4694C204.338 45.4694 204.617 46.0261 204.617 46.5829C204.617 47.2325 205.359 47.8821 206.287 48.0677C208.05 48.4388 208.421 46.8613 206.751 46.0261C206.101 45.6549 206.937 45.6549 208.607 45.9333C210.277 46.1189 211.576 45.9333 211.576 45.4694C211.576 44.9126 212.597 44.0774 213.896 43.6134C215.752 42.871 216.216 42.1287 216.216 39.252C216.309 37.3033 216.866 34.7049 217.608 33.4058C219.371 30.3435 219.278 29.2299 217.515 27.374C216.123 26.0749 209.628 25.6109 207.586 26.7244C206.937 27.0028 187.635 27.2812 184.016 27.0028C182.345 26.91 182.531 25.0541 184.109 25.0541C184.758 25.0541 185.872 24.4045 186.521 23.6621C188.748 20.971 183.552 22.7342 180.211 25.7965C177.984 27.838 175.014 29.1371 172.138 29.2299C170.653 29.3227 166.292 29.4155 162.673 29.5083L155.898 29.6939L157.012 32.0138C158.311 34.8905 159.61 34.9833 159.61 32.1994C159.61 30.6219 159.796 30.4363 160.445 31.5499C161.002 32.2922 161.095 33.2202 160.909 33.5914C160.631 33.9626 161.559 34.3338 163.044 34.241C165.364 34.241 165.456 34.1482 163.786 33.4058C162.301 32.7562 162.209 32.5706 163.508 32.5706C164.343 32.4778 165.271 31.921 165.456 31.2715C165.735 30.7147 166.013 31.0859 166.013 32.1994C166.106 33.313 166.848 34.4266 167.776 34.6121C169.261 34.9833 169.261 35.0761 167.684 35.1689C166.756 35.1689 166.292 35.7257 166.57 36.1897C166.941 36.7465 167.591 36.9321 168.055 36.6537C168.519 36.2825 168.89 36.5609 168.89 37.0249C168.89 37.5816 168.333 38.0456 167.591 38.0456C166.848 38.0456 166.013 38.788 165.828 39.6232C165.456 41.2007 165.364 41.2007 165.271 39.6232C165.178 38.4168 164.621 38.0456 163.137 38.2312C161.93 38.4168 161.095 39.0664 161.281 39.716C161.373 40.2727 161.095 40.8295 160.538 40.8295C160.074 40.8295 159.517 39.4376 159.517 37.7672C159.332 35.0761 159.332 35.0761 158.961 37.3033C158.682 39.1592 157.94 39.9016 156.084 40.2727C152.929 40.8295 145.041 40.4583 144.206 39.6232C143.835 39.3448 142.814 39.4376 141.886 39.9944C140.865 40.4583 135.854 40.9223 130.565 40.9223C124.626 41.0151 121.749 41.2935 122.956 41.7575C124.348 42.4071 123.791 42.5927 120.636 42.6855C118.316 42.7783 112.284 42.9638 107.18 43.1494C102.076 43.2422 91.4975 43.5206 83.7026 43.5206C75.2581 43.6134 69.6903 43.9846 70.0615 44.5414C70.9895 46.0261 76.7429 46.6757 78.7844 45.5622C80.0836 44.8198 81.2899 44.727 82.4035 45.3766C83.6098 46.0261 84.5378 45.9333 85.4658 45.191C86.1153 44.5414 85.9297 45.0054 85.0018 46.1189C83.6098 47.7893 82.9602 47.9749 81.9395 47.2325C80.9187 46.3045 80.8259 46.4901 81.2899 47.8821C81.8467 49.3668 81.7539 49.4596 80.6403 48.4388C78.97 46.8613 77.6708 47.0469 78.3204 48.7172C78.5988 49.4596 78.4132 50.1092 77.9492 50.1092C77.3925 50.1092 77.0213 49.6452 77.0213 48.9956C77.0213 48.1605 76.7429 48.1605 76.0005 48.9028C75.2581 49.6452 74.5158 49.4596 73.2166 48.1605C70.9895 45.9333 69.8759 45.9333 69.3191 47.9749C68.948 49.4596 68.8552 49.4596 68.7624 47.8821C68.6696 46.7685 68.2056 46.3973 67.2776 46.7685C66.5352 47.0469 65.8857 46.9541 65.8857 46.4901C65.8857 45.0054 67.1848 44.6342 68.5768 45.6549C69.7831 46.5829 69.8759 46.5829 68.8552 45.4694C67.7416 44.1702 63.1018 43.335 63.1018 44.5414C63.1018 44.8198 64.3081 46.3045 65.7929 47.6965C71.0823 52.8003 79.6196 52.6147 85.6513 47.3253L88.7136 44.6342L104.489 44.5414C113.119 44.4486 120.728 44.4486 121.378 44.4486C122.12 44.5414 121.842 45.4694 120.45 47.3253C118.594 49.9236 118.316 50.0164 116.274 48.7172C113.769 47.0469 113.49 47.6965 115.625 49.8308C117.017 51.2227 116.924 51.5011 114.882 53.0787C111.542 55.7698 108.758 56.6977 99.7564 57.9969C95.2094 58.6465 90.0128 59.5744 88.4352 60.1312C85.7441 60.9664 85.373 60.8736 85.373 59.4816C85.373 57.5329 82.9602 55.213 79.9908 54.3778C78.5988 53.9138 77.0213 54.3778 75.0725 55.7698C72.567 57.5329 72.2886 58.1825 72.7526 61.0592C73.2166 64.3999 72.0102 64.2143 71.1751 60.7808C70.8039 59.3888 70.7111 59.5744 70.6183 61.4304C70.5255 63.3791 70.0615 64.0287 68.7624 64.0287C67.7416 64.0287 61.8026 65.8846 55.5852 68.2045C40.645 73.6795 37.1187 73.9579 31.3653 69.8749C18.5594 60.688 9.83652 44.727 7.33101 25.7965L6.31025 18.5583L11.2285 13.4545C17.0747 7.32994 25.8903 2.59732 30.0662 3.43249C31.9221 3.80367 32.5717 3.61808 32.1077 2.87571C31.6437 2.13333 33.1285 1.85494 37.3043 1.94774C40.5522 2.04054 42.5009 2.22613 41.573 2.50452C40.7378 2.69011 39.8098 3.43249 39.5314 4.17486C39.1602 5.10283 39.8098 5.28842 42.2225 4.91723C45.2848 4.45325 56.3276 7.60833 57.534 9.37147C57.9052 9.83545 63.5658 10.5778 70.8039 11.0418C71.1751 11.1346 71.4535 11.6914 71.4535 12.4338C71.4535 13.0833 72.3814 14.8465 73.495 16.2384C74.7941 17.9088 75.0725 18.6511 74.1446 18.3727C73.4022 18.1871 72.103 16.5168 71.2679 14.7537C70.2471 12.8049 69.5975 12.2482 69.5975 13.2689C69.5975 15.6816 71.1751 18.3727 73.3094 19.4863C77.2069 21.6206 84.3522 17.7232 85.4658 12.8977C85.8369 11.6914 86.3009 11.6914 89.5488 12.7121C93.2607 13.9185 93.2607 13.9185 90.0128 13.4545C87.6929 13.1761 87.1361 13.2689 88.2497 13.9185C89.0848 14.3825 92.0543 15.0321 94.7454 15.3105C105.324 16.424 107.459 16.7952 110.985 18.6511L114.604 20.5071L111.82 18.0944L109.036 15.7744L111.913 16.7024C113.49 17.2592 115.996 18.9295 117.388 20.4143C119.708 22.827 120.357 23.0126 124.255 22.5486C128.431 22.0846 128.709 22.1774 132.05 25.8893C135.854 30.1579 136.133 31.5499 134.091 36.7465L132.606 40.3655L134.462 38.0456C135.483 36.7465 136.411 35.1689 136.411 34.5194C136.411 32.849 137.989 33.1274 139.473 35.2617C142.164 39.1592 149.031 39.5304 149.959 35.8185C150.238 34.7049 150.516 33.1274 150.609 32.385C150.98 29.7867 152.558 30.1579 154.878 33.4058C156.084 35.1689 156.826 35.8185 156.455 34.7977C156.084 33.777 155.527 31.6427 155.249 30.1579C154.228 24.5901 146.99 16.888 140.587 14.4753C133.442 11.7842 119.522 12.2482 115.439 15.3105C114.047 16.2384 113.119 16.1456 109.964 14.7537C107.83 13.8257 103.004 12.8049 99.1996 12.4338C95.395 12.1554 90.2912 11.3202 87.7857 10.5778C82.6819 9.09308 81.1971 9.55706 82.5891 12.0626C83.3314 13.4545 83.1458 14.2897 81.6611 15.7744C79.1556 18.2799 75.6293 18.1871 73.8662 15.5888C72.0102 12.9905 72.0102 12.5266 73.8662 10.6706C74.7013 9.83545 75.1653 8.90749 74.8869 8.6291C74.5158 8.35071 71.2679 7.79393 67.556 7.42274C63.3802 7.05155 58.4619 5.7524 54.7501 4.08206C49.1823 1.66935 47.7903 1.48376 37.1187 1.39096C26.1687 1.39096 25.2408 1.57655 20.5081 3.98927C17.817 5.47401 13.4556 8.6291 10.8573 10.949L6.21745 15.3105L6.86703 10.2066C7.23821 7.42274 7.79499 4.17486 8.07338 2.9685C8.35177 1.85494 8.16618 0.926978 7.70219 0.926978C7.14542 0.926978 5.84626 3.98927 4.7327 7.79393ZM58.3691 7.05155C64.8649 9.92825 61.8954 9.27867 53.8221 6.03079C50.4814 4.73164 48.9967 3.89647 50.4814 4.17486C52.059 4.54605 55.5852 5.8452 58.3691 7.05155ZM136.875 17.6304C138.917 18.6511 141.515 20.1359 142.721 20.971C143.928 21.899 144.763 22.0846 144.763 21.435C144.763 19.8575 148.939 22.827 150.887 25.7037L152.465 28.1164L149.217 26.1677C147.454 25.0541 143.742 23.5694 140.958 22.827C138.174 22.0846 134.277 20.7855 132.235 19.9503C129.451 18.7439 127.131 18.4655 122.77 18.9295C119.522 19.3007 116.924 19.3007 116.924 19.0223C116.924 18.7439 118.316 17.9088 119.986 17.1664C124.348 15.2177 132.421 15.496 136.875 17.6304ZM139.937 26.1677C139.566 28.6732 136.411 29.3227 136.411 26.91C136.411 25.3325 137.525 24.4045 139.473 24.2189C139.937 24.1261 140.123 25.0541 139.937 26.1677ZM147.547 28.9516C149.681 28.5804 149.959 29.6939 148.289 31.3643C147.454 32.1994 147.454 32.7562 148.289 33.5914C150.052 35.3545 149.588 36.2825 147.175 35.6329C145.969 35.3545 144.67 35.5401 144.392 36.0969C143.371 37.6744 141.979 37.3033 141.979 35.3545C141.979 34.4266 141.051 32.9418 139.937 32.1994C138.081 30.9003 138.081 30.7147 139.473 30.7147C140.401 30.6219 141.515 29.5083 142.072 28.0236C143 25.6109 143.092 25.5181 144.392 27.374C145.134 28.3948 146.619 29.1371 147.547 28.9516ZM183.737 30.2507C183.737 31.4571 183.088 31.6427 180.953 31.1787C179.098 30.8075 178.17 30.9931 178.17 31.8283C178.17 32.5706 177.798 32.4778 177.242 31.5499C176.592 30.5291 176.778 29.9723 177.984 29.5083C180.953 28.302 183.737 28.6732 183.737 30.2507ZM189.305 30.1579C189.305 30.9003 188.934 31.5499 188.47 31.5499C188.006 31.5499 186.985 31.8283 186.243 32.1066C185.129 32.4778 184.944 32.1066 185.315 30.7147C185.872 28.4876 189.305 28.0236 189.305 30.1579ZM194.873 29.6939C194.873 30.4363 191.996 32.4778 190.883 32.4778C190.604 32.4778 190.604 31.6427 190.883 30.6219C191.347 28.766 194.873 27.9308 194.873 29.6939ZM187.635 42.6855C184.944 45.191 183.366 45.0982 184.851 42.4071C186.428 39.716 187.728 38.8808 188.748 39.9016C189.305 40.4583 188.934 41.4791 187.635 42.6855Z" fill="white"/>
<path d="M34.7054 17.3514C32.9423 17.7226 32.6639 18.5578 32.0143 25.5175C31.6431 29.7862 31.6431 33.6836 31.8287 34.0548C32.1071 34.5188 32.3855 39.6226 32.5711 45.4688C32.6639 51.315 32.9423 56.6044 33.1278 57.254C33.5918 58.4603 41.2939 58.2747 42.5003 57.0684C43.1499 56.4188 42.7787 18.5578 42.0363 17.3514C41.6651 16.7019 38.1389 16.7019 34.7054 17.3514ZM41.9435 37.1171L42.2219 55.6764L39.1596 56.2332C37.4893 56.6044 35.9117 56.6044 35.6334 56.326C34.891 55.5836 33.7774 30.2502 34.1486 23.7544L34.5198 18.5578H38.1389H41.6651L41.9435 37.1171Z" fill="white"/>
<path d="M40.1809 45.9334C40.1809 49.4597 40.3665 50.8517 40.5521 48.9029C40.7377 47.047 40.7377 44.0775 40.5521 42.4072C40.3665 40.8296 40.1809 42.3144 40.1809 45.9334Z" fill="white"/>
<path d="M195.151 23.0119C194.873 24.1255 194.038 25.1462 193.11 25.3318C192.089 25.6102 192.275 25.7958 193.666 25.8886C195.986 25.9814 198.306 22.8263 196.636 21.8056C196.079 21.4344 195.43 21.9912 195.151 23.0119Z" fill="white"/>
<path d="M199.142 23.6635C198.306 24.9626 197.935 25.9834 198.399 25.9834C199.791 25.9834 203.225 22.6427 202.575 21.9003C201.554 20.8796 200.719 21.2508 199.142 23.6635Z" fill="white"/>
<path d="M205.544 22.085C204.059 23.1057 204.059 25.0545 205.451 25.0545C206.194 25.0545 207.029 24.4977 207.214 23.8481C207.586 22.9201 207.771 22.9201 207.771 23.8481C207.864 25.0545 210.648 25.6112 210.648 24.4977C210.648 23.8481 207.771 21.4354 206.936 21.3426C206.658 21.3426 206.101 21.7138 205.544 22.085Z" fill="white"/>
<path d="M68.3911 24.2186C65.0504 25.9817 60.7818 31.3639 61.8025 32.3847C62.0809 32.6631 62.6377 32.3847 63.0089 31.7351C63.3801 31.0855 64.6792 30.436 65.7 30.3432C68.0199 30.2504 68.2055 29.6936 66.628 27.8377C65.6072 26.7241 65.7 26.7241 66.9992 27.7449C68.2055 28.6728 68.8551 28.6728 70.3398 27.7449C71.3606 27.0953 72.103 26.1673 72.0102 25.6105C71.8246 25.0538 71.9174 24.8682 72.103 25.2394C72.7525 26.4457 76.8356 26.0745 77.2996 24.7754C77.578 24.1258 77.8564 24.3114 77.8564 25.2394C77.9492 27.0953 79.8051 27.5593 79.8979 25.7033C79.8979 25.1466 80.3619 25.6105 80.9187 26.9097C81.4754 28.2088 81.8466 29.508 81.8466 29.8792C81.7538 30.3432 82.0322 30.6216 82.589 30.6216C83.7953 30.6216 83.7953 29.4152 82.4962 28.116C81.7538 27.3737 81.7538 26.9097 82.4962 26.4457C83.053 26.1673 83.517 26.1673 83.4242 26.6313C83.1458 28.4872 83.6098 29.1368 84.5377 27.8377C85.2801 26.7241 85.3729 26.9097 84.9089 28.4872C84.3521 30.6216 84.4449 30.6216 92.2398 30.6216C96.9725 30.6216 100.22 30.9927 100.22 31.5495C100.22 32.0135 101.148 32.4775 102.355 32.3847C104.303 32.3847 104.303 32.2919 102.54 31.5495C101.334 31.0855 105.324 30.7144 113.119 30.7144C119.986 30.6216 125.368 30.3432 124.997 30.0648C124.719 29.6936 116.367 29.508 106.531 29.6008L88.528 29.7864L86.3009 27.2809C81.5682 22.1771 74.5157 20.9707 68.3911 24.2186Z" fill="white"/>
<path d="M189.305 23.5699C189.305 24.3123 188.749 25.1475 188.192 25.3331C187.357 25.7043 187.45 25.8899 188.47 25.8899C189.955 25.9826 192.089 24.3123 192.089 23.0132C192.089 22.642 191.44 22.2708 190.697 22.2708C189.955 22.2708 189.305 22.8276 189.305 23.5699Z" fill="white"/>
<path d="M121.564 25.8901C121.564 26.4469 122.584 27.3749 123.884 27.8389C126.204 28.674 128.245 32.2003 127.41 33.5922C127.224 34.0562 127.503 34.3346 127.967 34.3346C128.523 34.3346 128.987 33.685 128.987 32.9427C128.987 30.9011 130.379 31.2723 131.586 33.5922L132.607 35.7266V33.5922C132.699 31.1795 128.059 25.9829 125.925 25.9829C125.09 25.9829 123.884 25.7045 123.048 25.4261C122.213 25.1477 121.564 25.3333 121.564 25.8901Z" fill="white"/>
<path d="M18.0955 28.7655C19.8587 29.5079 29.5095 30.0647 28.6744 29.3223C28.4888 29.1367 25.6121 28.7655 22.2714 28.4871C18.3739 28.1159 16.8892 28.2087 18.0955 28.7655Z" fill="white"/>
<path d="M71.917 28.7663C70.8035 29.1375 69.4115 30.1582 68.7619 30.9934C67.6484 32.2926 68.2052 32.4782 74.7937 32.2926L82.1247 32.107L75.6289 31.5502L69.1331 30.9934L75.1649 30.715C80.7327 30.6222 81.0111 30.4366 79.4336 29.2303C77.392 27.7455 74.7937 27.5599 71.917 28.7663Z" fill="white"/>
<path d="M66.8142 34.5193C66.8142 34.9833 70.3405 35.2617 74.7019 35.2617C79.0634 35.2617 82.5896 34.9833 82.5896 34.5193C82.5896 34.1482 79.0634 33.8698 74.7019 33.8698C70.3405 33.8698 66.8142 34.1482 66.8142 34.5193Z" fill="white"/>
<path d="M174.272 35.9116C175.85 36.0972 178.634 36.0972 180.304 35.9116C181.882 35.726 180.583 35.5404 177.242 35.5404C173.901 35.5404 172.602 35.726 174.272 35.9116Z" fill="white"/>
<path d="M60.6894 37.6733C60.9678 38.5085 61.2462 39.3436 61.2462 39.5292C61.2462 39.7148 62.1741 39.8076 63.3805 39.8076C64.8652 39.7148 65.0508 39.622 63.8445 39.2508C62.9165 39.0652 62.1741 38.5085 62.1741 38.0445C62.1741 37.5805 62.9165 37.0237 63.8445 36.8381C64.7724 36.5597 64.3085 36.3741 62.7309 36.2813C60.6894 36.1885 60.2254 36.5597 60.6894 37.6733Z" fill="white"/>
<path d="M66.1645 36.7472C66.814 37.3967 81.8471 37.2112 82.4967 36.5616C82.6823 36.376 78.9704 36.1904 74.2378 36.1904C69.5051 36.1904 65.8861 36.4688 66.1645 36.7472Z" fill="white"/>
<path d="M98.1791 36.8383C100.313 37.0239 103.84 37.0239 106.067 36.8383C108.201 36.6528 106.438 36.4672 102.077 36.4672C97.7151 36.4672 95.952 36.6528 98.1791 36.8383Z" fill="white"/>
<path d="M70.8034 39.6225C73.2161 39.8081 77.0208 39.8081 79.1551 39.6225C81.2895 39.4369 79.3407 39.3441 74.7009 39.3441C70.1539 39.3441 68.3907 39.4369 70.8034 39.6225Z" fill="white"/>
<path d="M67.7412 41.9442C67.7412 42.4081 70.8963 42.6865 74.701 42.6865C78.5056 42.6865 81.6607 42.4081 81.6607 41.9442C81.6607 41.573 78.5056 41.2946 74.701 41.2946C70.8963 41.2946 67.7412 41.573 67.7412 41.9442Z" fill="white"/>
<path d="M20.6931 46.1181C21.0643 48.4381 22.1779 50.1084 23.3842 50.1084C24.0338 50.1084 23.941 49.5516 23.1986 48.7164C22.3635 47.6957 22.2707 47.3245 23.1058 47.3245C23.8482 47.3245 23.7554 46.8605 22.8275 45.9326C21.0643 44.0766 20.4147 44.1694 20.6931 46.1181Z" fill="white"/>
<path d="M135.854 45.5634C134.184 46.0273 131.215 48.0689 129.173 50.1104C127.132 52.1519 125.276 53.8223 124.904 53.8223C123.698 53.8223 124.44 51.224 126.296 48.8112C128.523 46.0273 127.039 45.5634 124.348 48.2545C122.306 50.296 121.935 52.8943 123.512 54.4718C124.255 55.2142 124.255 56.0494 123.512 57.3485C121.749 60.5964 122.213 64.7723 124.348 65.4218C126.946 66.257 131.215 65.1434 134.091 63.0091C136.04 61.4316 136.411 61.3388 136.411 62.5451C136.411 64.5867 137.71 64.4011 139.752 61.9884C141.144 60.2252 141.237 60.1324 139.937 61.1532C137.525 62.9163 137.896 61.6172 140.68 57.9053C143.371 54.4718 142.443 53.5439 139.566 56.7918C136.875 59.854 129.823 64.0299 127.41 64.0299C124.719 64.0299 123.976 62.3595 125.183 59.2045C125.925 57.2557 126.853 56.7918 130.565 56.235C135.947 55.5854 141.701 51.8735 142.536 48.6256C143.464 44.9138 141.422 43.9858 135.854 45.5634ZM140.773 48.6256C139.659 51.4095 128.895 56.6062 128.152 54.5646C127.688 53.1727 131.957 49.0896 135.947 47.2337C139.752 45.4706 141.701 46.0273 140.773 48.6256Z" fill="white"/>
<path d="M162.209 50.5728C160.724 51.7792 159.611 53.2639 159.611 53.8207C159.611 54.2847 157.847 56.419 155.806 58.4605C153.672 60.502 152.465 62.1724 153.022 62.1724C153.579 62.1724 154.043 61.7084 154.043 61.2444C154.043 60.6876 154.414 60.3165 154.878 60.3165C155.342 60.3165 155.528 61.1516 155.249 62.1724C154.414 65.1419 156.827 64.3995 160.631 60.3165C164.622 56.1406 166.292 55.3982 163.415 59.0173C161.374 61.5228 160.817 64.0283 162.302 64.0283C162.673 64.0283 164.25 63.1004 165.642 61.9868L168.148 60.0381L167.591 61.9868C167.22 63.1932 167.313 64.0283 167.87 64.0283C169.169 64.0283 174.644 59.2957 173.994 58.6461C173.716 58.3677 172.417 59.1101 171.025 60.4093C168.334 62.822 168.983 61.0588 171.953 57.8109C175.479 53.8207 172.602 54.3775 168.426 58.4605C163.879 62.9148 161.931 63.1004 165.642 58.6461C168.426 55.3054 168.519 54.7487 166.106 55.3982C164.529 55.7694 164.343 55.5838 164.9 54.1919C165.457 52.6143 165.364 52.6143 163.972 53.7279C163.137 54.3775 162.395 55.491 162.395 56.0478C162.395 56.6974 161.095 58.3677 159.425 59.9453L156.456 62.6364L158.404 59.3885C162.302 52.4287 162.766 51.9648 165.642 51.872C168.334 51.7792 168.334 51.7792 166.106 51.0368C164.807 50.6656 164.343 50.2944 164.993 50.2016C166.199 50.1088 166.57 48.2529 165.457 48.2529C164.993 48.2529 163.601 49.3665 162.209 50.5728Z" fill="white"/>
<path d="M185.315 51.5018C183.923 52.801 182.809 54.2857 182.809 54.7497C182.809 56.0489 178.448 58.74 177.056 58.276C176.314 57.9976 176.778 56.9768 178.541 55.3993C180.304 53.8217 180.768 52.8938 179.84 52.8938C177.984 52.8938 174.087 57.1624 174.829 58.3688C175.571 59.5751 174.365 62.0806 173.066 62.0806C172.602 62.0806 172.045 62.4518 171.859 63.0086C171.21 65.0501 174.087 63.9366 176.499 61.2455C177.798 59.6679 179.469 58.4616 180.118 58.4616C181.046 58.4616 181.046 58.74 180.211 59.5751C178.726 61.0599 178.726 64.3078 180.211 63.8438C180.861 63.5654 181.418 62.823 181.418 61.9878C181.418 61.2455 182.624 58.6472 184.109 56.3272C186.336 52.801 187.449 51.9658 189.676 51.873C191.904 51.7802 192.089 51.5946 190.419 51.3162C189.305 51.1306 188.563 50.4811 188.841 50.0171C189.955 48.3467 187.821 49.1819 185.315 51.5018Z" fill="white"/>
<path d="M93.2607 51.9646L89.5488 52.6142L94.467 52.7998C97.5293 52.7998 99.1997 52.5214 98.8285 51.9646C98.5501 51.4079 97.9933 51.1295 97.6221 51.1295C97.2509 51.2223 95.3022 51.5934 93.2607 51.9646Z" fill="white"/>
<path d="M194.223 57.5326C191.903 60.1309 189.769 61.9868 189.49 61.7084C189.212 61.43 189.769 60.4093 190.697 59.3885C192.553 57.347 191.439 56.883 189.119 58.6461C187.263 60.1309 186.057 64.0283 187.356 64.0283C187.913 64.0283 189.769 62.7292 191.625 61.1516C194.501 58.5533 194.873 58.4605 194.594 60.2237C194.409 61.2444 193.945 62.4508 193.481 62.822C193.11 63.2859 193.017 63.0076 193.481 62.2652C193.945 61.43 193.852 61.1516 193.202 61.6156C191.625 62.5436 191.81 64.0283 193.388 64.0283C194.13 64.0283 195.429 63.1004 196.172 62.0796C196.914 60.966 198.863 59.2957 200.44 58.2749C202.111 57.347 203.224 56.3262 202.946 56.0478C202.668 55.7694 201.368 56.2334 200.069 57.1614C196.914 59.1101 195.522 57.9037 198.399 55.6766C200.626 53.8207 200.997 52.8927 199.512 52.8927C198.956 52.8927 196.543 55.027 194.223 57.5326Z" fill="white"/>
<path d="M143.835 57.0697C141.608 59.3896 140.402 64.4006 142.072 63.8439C142.629 63.6583 143 63.1015 143 62.6375C143 62.0807 144.021 60.4104 145.32 58.7401C146.526 57.1625 147.547 55.585 147.547 55.3066C147.547 54.1002 145.877 54.9354 143.835 57.0697Z" fill="white"/>
<path d="M147.918 57.9965C146.062 59.9453 145.041 61.894 145.413 62.7292C145.784 63.7499 146.248 63.8427 147.176 63.0075C147.918 62.4508 148.196 61.6156 147.918 61.1516C147.176 59.9453 152.094 55.6766 153.671 56.3262C154.414 56.6046 154.971 56.3262 154.971 55.7694C154.971 53.6351 150.888 54.9342 147.918 57.9965Z" fill="white"/>
<path d="M185.593 58.1824C182.902 60.6879 182.159 62.0799 182.716 63.0078C183.737 64.5854 185.871 63.379 185.222 61.6159C184.665 60.2239 189.954 55.3985 191.253 56.2337C191.717 56.5121 192.088 56.2337 192.088 55.7697C192.088 53.7282 189.119 54.8417 185.593 58.1824Z" fill="white"/>
<path d="M151.444 58.6465C149.867 60.6881 149.031 64.3071 150.331 63.8431C150.887 63.6575 151.351 63.1008 151.351 62.6368C151.351 62.08 152.001 60.7809 152.743 59.5745C154.135 57.4402 153.115 56.6978 151.444 58.6465Z" fill="white"/>
<path d="M201.648 59.1099C200.998 59.3883 200.441 60.3163 200.441 61.2442C200.441 63.193 202.112 64.5849 203.039 63.5642C203.411 63.193 203.132 62.6362 202.575 62.4506C201.926 62.1722 201.369 61.6154 201.369 61.1514C201.369 59.6667 203.318 60.3163 204.988 62.3578C206.844 64.5849 208.793 63.9353 208.793 61.2442C208.793 59.0171 207.215 57.9964 205.638 59.2955C204.988 59.8523 204.06 59.9451 203.596 59.4811C203.132 59.0171 202.204 58.9243 201.648 59.1099Z" fill="white"/>
<path d="M210.742 59.2036C210.185 59.3892 209.814 60.6884 209.814 61.9875C209.999 64.2146 209.999 64.2146 210.371 62.3587C210.556 61.2451 211.206 60.3172 211.762 60.3172C212.226 60.3172 212.505 60.9668 212.226 61.7091C211.855 62.4515 212.041 63.2867 212.505 63.5651C213.062 63.9363 213.433 63.1939 213.526 61.9875C213.618 59.8532 213.618 59.8532 214.361 62.1731C214.918 64.2146 215.103 64.3074 215.753 62.8227C217.145 59.5748 214.825 57.8117 210.742 59.2036Z" fill="white"/>
</g>
<defs>
<clipPath id="clip0_2520_17660">
<rect width="219" height="74.2373" fill="white"/>
</clipPath>
</defs>
</svg>
