<svg width="229" height="110" viewBox="0 0 229 110" fill="none" xmlns="http://www.w3.org/2000/svg">
<path d="M132.433 13.277C125.847 17.1275 121.084 43.0673 125.441 51.6801C127.569 56.0372 132.028 56.9491 135.777 53.9093C138.107 52.0854 138.208 52.0854 140.032 53.9093C142.768 56.6452 147.531 56.2399 150.469 53.0987C151.888 51.5788 153.002 49.8562 153.002 49.1469C153.002 48.4376 153.914 47.627 155.029 47.323C156.751 46.9177 157.055 47.323 157.055 49.6536C157.055 55.1252 162.426 57.5571 166.479 54.0106C168.303 52.2881 168.404 52.2881 169.316 54.0106C170.431 56.0372 174.281 56.3412 176.105 54.5173C177.017 53.6053 177.625 53.6053 178.537 54.5173C180.867 56.8478 182.286 55.7332 183.806 50.2615C184.718 47.323 186.339 43.7766 187.454 42.4593L189.581 40.0275L188.872 46.4111C188.163 53.504 189.176 55.7332 193.229 55.7332C195.762 55.7332 200.626 51.4775 203.767 46.6137L205.389 44.0806L207.111 47.323C209.239 51.5788 209.239 51.5788 205.997 51.3761C203.565 51.1735 203.159 51.5788 203.159 53.7067C203.159 56.9491 206.098 57.4558 212.684 55.2266C217.548 53.6053 220.892 50.3629 220.892 47.1204C220.892 44.8912 219.574 45.1952 216.839 48.1337C214.103 51.0722 212.785 51.3761 212.785 49.0456C212.785 48.1337 211.874 45.8031 210.658 43.9792C209.138 41.446 208.834 39.7235 209.34 36.8863C209.948 33.6438 209.746 33.2385 208.124 33.6438C206.908 33.8465 204.882 36.481 202.957 40.4328C197.282 51.8828 191.405 55.2266 193.635 45.7018C194.141 43.6752 194.547 40.3314 194.547 38.2036C194.547 35.0624 194.243 34.4545 192.52 34.4545C189.885 34.4545 185.63 38.6089 184.211 42.5606C183.705 44.2832 182.793 45.6005 182.286 45.6005C181.374 45.6005 181.881 42.1553 183.502 37.6969C184.718 34.5558 184.718 34.4545 182.489 34.4545C179.955 34.4545 179.55 35.1637 178.233 42.2567C177.22 47.931 175.092 51.6801 172.964 51.6801C172.356 51.6801 172.255 48.8429 172.66 44.0806C173.268 36.8863 173.268 36.481 171.241 36.481C170.127 36.481 169.215 35.9744 169.215 35.4677C169.215 33.0359 164.554 34.7584 161.007 38.4062C156.042 43.7766 154.117 43.9792 152.597 39.5208C149.557 30.3 136.79 35.3664 136.79 45.8031C136.79 48.3363 134.054 51.6801 132.028 51.6801C131.42 51.6801 130.406 50.9708 129.697 50.1602C128.684 48.9443 129.292 46.9177 133.345 39.0142C137.499 30.8067 138.31 28.1721 138.614 22.3965C138.918 17.0261 138.715 15.2022 137.297 13.885C135.371 11.8584 134.865 11.8584 132.433 13.277ZM135.473 17.9381C135.878 18.85 135.574 22.0925 134.966 25.1323C133.75 31.0093 128.988 42.1553 128.076 41.3447C127.366 40.6354 129.393 28.1721 131.318 21.4845C132.838 16.1142 134.257 14.8983 135.473 17.9381ZM146.923 41.0407C146.923 42.4593 147.429 44.4859 148.139 45.4991C150.368 49.0456 146.517 53.3014 143.376 50.6668C141.35 48.9443 141.451 42.662 143.579 40.3314C145.808 37.7983 146.923 38.0009 146.923 41.0407ZM168.809 40.2301C168.607 41.2434 167.999 43.6752 167.695 45.6005C166.884 49.6536 165.466 51.6801 163.54 51.6801C160.399 51.6801 161.21 44.3845 164.858 40.3314C166.985 38.0009 169.519 38.0009 168.809 40.2301Z" fill="white"/>
<path d="M46.2043 24.32C37.0849 27.1571 32.9304 38.4045 37.4902 48.4359C41.0366 56.2381 51.5747 58.7713 58.3636 53.4009C66.1658 47.22 65.4565 31.0076 57.1477 26.1438C53.1959 23.8133 49.7508 23.3067 46.2043 24.32ZM54.6145 28.8797C57.1477 30.1969 58.2623 31.9195 60.1875 37.8978C61.0995 40.735 58.9716 47.5239 56.2357 50.2598C54.5132 51.9823 52.6893 52.6916 49.7508 52.6916C46.5083 52.6916 45.2924 52.0837 42.5565 48.9425C39.5167 45.4974 39.3141 44.8894 39.7194 39.2151C40.1247 33.9461 40.6313 32.7301 43.3672 30.2983C47.015 27.0558 50.3588 26.6505 54.6145 28.8797Z" fill="white"/>
<path d="M9.62445 25.5359C9.32047 26.3465 9.21914 33.3381 9.32047 41.039C9.62445 52.8943 9.92843 55.2248 11.1444 55.2248C12.3603 55.2248 12.7656 53.7049 12.9683 48.3345L13.2722 41.5456H21.2771H29.3833V48.6385C29.3833 54.3129 29.6873 55.7314 30.9032 55.7314C32.2205 55.7314 32.4231 53.2996 32.4231 40.0257C32.4231 26.9545 32.2205 24.3199 30.9032 24.3199C29.7886 24.3199 29.3833 25.9412 29.1806 31.1089C28.978 34.9593 28.5727 37.8978 28.1674 37.6952C27.6607 37.5938 24.2156 37.4925 20.2638 37.4925H13.2722L12.9683 31.2102C12.6643 25.2319 10.8404 22.1921 9.62445 25.5359Z" fill="white"/>
<path d="M66.8743 40.0257C66.8743 53.1983 67.0769 55.7314 68.3942 55.7314C69.6101 55.7314 69.9141 53.5022 70.1167 43.7748L70.4207 31.9195L74.8791 39.2151C77.311 43.2682 79.8442 46.612 80.6548 46.612C81.3641 46.612 83.8973 43.2682 86.3291 39.3164L90.6862 31.9195L90.9902 43.8761C91.1929 54.1102 91.4968 55.8328 92.8141 55.5288C94.2327 55.2248 94.4353 52.9956 94.4353 40.0257C94.4353 30.2983 94.03 24.7253 93.3207 24.5226C92.3075 24.2186 82.0734 38.8098 82.0734 40.6337C82.0734 43.1668 79.8442 40.735 74.9805 32.9328C72.042 28.1704 69.0021 24.3199 68.2929 24.3199C67.1782 24.3199 66.8743 27.4611 66.8743 40.0257Z" fill="white"/>
<path d="M99.2986 40.0257V55.7314H108.418C115.815 55.7314 117.538 55.4275 117.538 54.2115C117.538 52.9956 116.018 52.6916 109.938 52.6916H102.338V47.1186V41.5456H108.925C114.903 41.5456 115.511 41.3429 115.511 39.4177C115.511 37.4925 115.004 37.3912 109.229 37.5938L102.845 37.8978V32.8314V27.8664L109.938 27.7651C115.612 27.6637 117.132 27.2584 117.335 25.9412C117.639 24.5226 116.423 24.3199 108.519 24.3199H99.2986V40.0257Z" fill="white"/>
<path d="M46.3052 61.204C52.7902 66.0677 67.3813 70.5261 80.2499 71.5394C87.7482 72.2487 88.1535 72.1474 94.5371 68.4996C101.833 64.4465 103.049 64.2438 105.886 66.2704C107.71 67.5876 107.71 67.7903 105.075 70.9314C101.934 74.6806 101.731 75.2885 103.961 77.1124C105.379 78.227 106.088 78.1257 108.723 76.7071L111.763 74.8832L117.741 80.7602C120.984 83.9014 123.618 87.1438 123.618 87.8531C123.618 89.981 121.085 89.373 118.552 86.6372C117.234 85.2186 115.715 84.104 115.107 84.104C114.499 84.2053 115.816 85.7252 117.944 87.6505C121.288 90.6903 121.693 91.3996 120.578 92.7168C119.362 94.1354 118.856 93.9328 115.917 91.0956C113.992 89.2717 112.269 88.0558 111.965 88.2584C111.661 88.5624 112.877 90.0823 114.499 91.7036C117.64 94.7434 118.45 97.2766 116.323 97.2766C115.613 97.2766 113.789 96.0606 112.168 94.5407C109.838 92.2102 109.432 92.1089 110.04 93.7301C110.749 95.554 110.648 95.554 109.128 94.3381C108.216 93.6288 107.406 92.1089 107.406 91.0956C107.406 89.8797 106.696 89.1704 105.48 89.1704C104.366 89.1704 103.353 88.5624 103.049 87.8531C102.745 86.9412 102.137 86.9412 100.718 87.7518C99.2995 88.5624 98.2862 88.5624 96.969 87.7518C95.6517 86.9412 94.9424 86.9412 94.4358 87.8531C93.8278 88.8664 92.5106 88.7651 88.6601 87.6505C85.8229 86.8399 77.0075 84.5093 68.9013 82.5841C59.0725 80.2536 51.4729 77.7204 45.8999 74.9845C36.8818 70.5261 34.2473 69.8168 39.0097 73.0593C46.8119 78.3283 60.0858 83.1921 72.9544 85.5226C85.7216 87.7518 91.5986 89.5757 94.2331 92.1089C98.9955 96.5673 102.137 98.9991 104.062 99.9111C107.102 101.228 112.371 101.127 113.587 99.7084C114.195 98.8978 115.309 98.2899 115.917 98.2899C117.336 98.2899 122.605 93.4261 122.605 92.1089C122.605 89.677 125.746 88.3598 135.777 86.7385C154.219 83.8 170.431 78.227 177.828 72.5527C181.172 69.9182 178.031 70.7288 172.053 73.9713C163.845 78.4297 153.51 81.6722 138.716 84.6106L125.746 87.1438L119.261 80.5576C114.195 75.2885 113.08 73.6673 114.195 72.8567C114.904 72.1474 115.512 71.3368 115.512 70.8301C115.512 70.3235 113.384 71.5394 110.851 73.4646C103.555 79.0376 101.529 75.4912 108.318 68.8036C113.283 63.8385 115.816 63.8385 121.997 68.4996L126.658 72.2487L135.068 71.6407C139.628 71.2354 146.315 70.2222 149.963 69.3102C157.259 67.4863 171.85 61.1027 171.039 60.1907C170.634 59.8868 168.911 60.3934 167.088 61.4067C160.805 64.6491 149.457 67.993 139.83 69.4115C127.063 71.4381 127.469 71.4381 122.706 67.4863C117.234 62.9266 115.309 62.4199 111.459 64.3452C108.622 65.8651 108.115 65.7637 105.48 64.2438C102.643 62.5213 102.441 62.6226 95.9557 66.2704C90.3827 69.3102 88.3561 69.9182 83.2898 69.9182C75.1836 69.9182 64.5442 67.5876 54.9181 63.7372C43.7721 59.3801 43.8734 59.3801 46.3052 61.204ZM102.339 89.981C102.339 90.9943 101.731 92.7168 100.921 93.8314C99.6035 95.554 99.4008 95.554 98.7929 94.0341C98.0836 92.2102 99.8061 88.1571 101.326 88.1571C101.934 88.1571 102.339 88.9677 102.339 89.981ZM106.392 92.5142C106.392 95.858 103.859 99.1005 102.339 97.6819C101.427 96.7699 101.529 95.7567 102.745 93.3248C104.67 89.5757 106.392 89.2717 106.392 92.5142ZM109.128 96.8713C109.838 98.6952 108.014 100.823 106.595 99.9111C105.379 99.2018 106.19 95.25 107.507 95.25C108.115 95.25 108.723 95.9593 109.128 96.8713Z" fill="white"/>
</svg>
