<svg width="222" height="49" viewBox="0 0 222 49" fill="none" xmlns="http://www.w3.org/2000/svg">
<path d="M46.5626 1.31882C39.9779 2.72983 39.9779 2.72983 41.9533 4.14085C43.5525 5.36373 43.7406 6.96288 43.9288 21.8256C44.1169 37.4409 43.2703 45.1544 41.3889 45.1544C40.8245 45.1544 40.4482 45.4366 40.4482 45.8129C40.4482 46.2832 43.5525 46.5654 47.4093 46.5654C54.1821 46.5654 54.3703 46.4714 52.8652 44.7781C51.4542 43.3671 51.172 39.9807 50.7957 21.7315L50.3254 0.472205L46.5626 1.31882Z" fill="white"/>
<path d="M88.6114 1.8846C90.4928 6.96426 104.979 41.4871 106.39 44.2151C110.623 52.399 107.331 43.6507 94.3496 12.7024C91.9038 6.96426 89.5521 1.8846 89.0818 1.41426C88.4233 0.755786 88.3292 0.943922 88.6114 1.8846Z" fill="white"/>
<path d="M94.5372 2.72959C96.4186 8.74993 101.404 19.8499 101.874 19.0974C102.533 18.0626 109.118 1.78892 109.118 1.31858C109.118 1.13044 105.731 0.942306 101.498 0.942306C94.5372 0.942306 93.9728 1.03637 94.5372 2.72959ZM103.944 5.36349C103.756 6.30417 103.097 8.2796 102.533 9.87875L101.31 12.7008L100.463 9.87875C98.6762 3.95248 98.6762 3.76434 101.592 3.76434C103.662 3.76434 104.226 4.14061 103.944 5.36349Z" fill="white"/>
<path d="M193.027 2.3549C188.23 3.29558 188.136 3.38965 190.017 4.9888C191.804 6.49389 191.899 7.71677 191.899 23.332C191.899 42.0515 191.146 46.0964 187.571 46.0964C186.349 46.0964 184.937 45.2498 184.373 44.3091C183.903 43.2744 183.432 36.6897 183.432 29.7286V16.9354H186.254C187.854 16.9354 189.076 16.4651 189.076 15.9947C189.076 15.4303 187.854 15.0541 186.254 15.0541C183.432 15.0541 183.432 14.96 183.432 10.0685V5.17694L181.645 8.09304C180.704 9.69219 178.259 12.3261 176.283 13.9252C172.991 16.6532 172.803 16.9354 174.872 16.9354H177.036L176.377 30.0108C176.001 37.16 176.001 43.9329 176.377 45.0617C176.942 46.943 177.6 47.0371 189.641 47.0371H202.34L200.271 44.3091C198.483 41.8634 198.295 40.6405 198.671 32.0803C199.048 21.0744 200.835 17.4058 205.632 17.4058C209.96 17.4058 211.653 21.8269 211.653 33.5854C211.653 42.0515 211.371 43.5566 209.771 45.1558L207.89 47.0371H215.133C222 47.0371 222.282 46.943 220.307 45.532C218.332 44.2151 218.237 43.4625 218.237 32.8329C218.237 17.688 216.356 14.1134 208.454 14.1134C206.103 14.1134 204.221 14.96 201.87 17.0295L198.577 19.8515L198.295 10.6329L198.013 1.41422L193.027 2.3549Z" fill="white"/>
<path d="M3.10392 3.5752C3.95053 4.60995 4.13867 10.1599 4.0446 23.7998C3.85646 41.1083 3.76239 42.7074 1.97511 44.5888L0.09375 46.5642L8.08951 46.7523C12.4166 46.8464 15.9912 46.6583 15.9912 46.4701C15.9912 46.1879 15.3327 45.3413 14.5802 44.5888C13.4514 43.3659 13.1692 39.6972 13.1692 23.6116C13.1692 11.1006 13.5454 3.76334 14.2039 3.10486C14.8624 2.44639 13.2632 2.16418 8.55985 2.16418C2.82172 2.25825 2.06917 2.44639 3.10392 3.5752ZM9.12426 30.2905C9.03019 34.6176 8.84206 31.3252 8.84206 23.0472C8.84206 14.7693 9.03019 11.2888 9.12426 15.2396C9.31239 19.1905 9.31239 25.9633 9.12426 30.2905ZM9.40646 39.5091C9.40646 39.9794 8.84206 40.5438 8.27765 40.732C7.52511 41.0142 7.80731 41.2964 8.74799 41.2964C9.68867 41.3905 10.2531 41.7667 9.8768 42.3311C8.93612 43.9303 6.77256 42.2371 6.9607 40.0735C7.05477 38.0981 9.40646 37.6277 9.40646 39.5091Z" fill="white"/>
<path d="M22.9516 13.5488C18.9067 15.3361 16.9313 18.5344 16.9313 23.0496C16.9313 29.3522 19.1889 31.4217 28.8779 33.8674C33.205 34.9962 35.2745 37.442 34.3338 40.4522C31.794 48.3539 21.7287 46.0022 18.7186 36.8776L17.5898 33.3971L16.3669 38.5708C15.0499 44.3089 15.2381 44.4971 20.694 46.0962C28.5016 48.3539 37.5321 46.0962 39.9779 41.2988C41.5771 38.2886 41.8593 32.6445 40.4482 30.1988C39.5076 28.3174 36.6855 27.0005 30.2889 25.4013C25.0211 24.0844 22.8576 20.9801 24.6448 17.2174C27.1847 11.8556 35.7448 14.3013 37.4381 20.8861L38.1906 23.8022L39.2254 19.381C40.072 15.5242 39.9779 14.8657 38.4728 14.1132C35.3686 12.42 26.0559 12.0437 22.9516 13.5488ZM21.1643 25.6835C20.694 27.2827 20.7881 27.4708 21.5406 26.342C22.3872 25.1191 22.6694 25.2132 23.8923 26.8123C25.3974 28.9759 25.1152 29.9166 23.3279 28.4115C22.6694 27.8471 21.7287 27.4708 21.1643 27.5649C20.694 27.6589 20.1296 26.6242 20.0355 25.1191C19.9415 23.614 20.2237 22.7674 20.7881 23.1437C21.2584 23.4259 21.4465 24.5547 21.1643 25.6835ZM34.616 31.2335C34.8042 32.3623 34.3338 32.9267 33.205 32.8327C32.2643 32.8327 31.9821 32.5505 32.7347 32.2683C33.2991 32.0801 33.8635 31.4217 33.8635 30.9513C33.8635 30.575 33.2991 30.3869 32.5465 30.6691C31.794 30.9513 30.9474 30.6691 30.5711 30.1047C30.1008 29.3522 30.6652 29.07 32.0762 29.3522C33.2991 29.4462 34.4279 30.3869 34.616 31.2335Z" fill="white"/>
<path d="M61.5195 14.0172C59.3559 14.9579 56.628 17.2155 55.4051 18.9087C53.4297 21.6367 53.1475 23.2359 53.1475 29.7265C53.1475 36.2172 53.4297 37.8164 55.4992 40.7325C61.6136 49.6689 75.5356 49.1045 80.7093 39.7918C81.9322 37.5342 82.7788 34.9943 82.4966 34.1477C82.3085 32.9248 81.65 33.6774 80.5212 36.4994C78.4517 41.3909 74.1246 45.1536 70.6441 45.1536C64.9059 45.1536 61.1432 39.3214 61.1432 30.2909V26.3401H71.4907C83.1551 26.3401 83.4373 26.152 79.8627 19.7553C76.1941 13.2647 68.3864 10.8189 61.5195 14.0172ZM70.55 15.9926C71.5847 17.0274 72.4314 18.7206 72.4314 19.6613C72.4314 20.696 72.7136 22.107 72.9958 22.9537C73.4661 24.2706 72.6195 24.4587 67.2576 24.4587H60.861L61.4254 21.0723C62.4602 14.6757 66.7873 12.2299 70.55 15.9926ZM58.1331 24.1765C58.3212 26.0579 58.6975 28.0333 58.9797 28.5036C59.2619 29.0681 59.0737 29.1621 58.5093 28.7859C57.7568 28.3155 57.3805 28.974 57.3805 30.7613C57.3805 32.1723 57.0983 34.4299 56.8161 35.7469C56.4398 37.6282 56.5339 37.8164 57.2864 36.6875C57.8509 35.935 58.3212 35.7469 58.3212 36.3113C58.3212 36.8757 57.7568 37.8164 57.0983 38.3808C56.0636 39.2274 55.8754 38.0045 55.7814 31.4198C55.7814 26.4342 56.0636 23.8943 56.628 24.6469C57.2864 25.5875 57.3805 25.3994 57.2864 23.9884C57.0983 21.8248 57.2864 20.696 57.6627 20.696C57.8509 20.696 58.039 22.2011 58.1331 24.1765Z" fill="white"/>
<path d="M167.158 14.3015C166.311 14.96 164.9 17.2176 164.054 19.2871C162.361 23.4261 161.42 22.4854 161.984 17.3117C162.361 14.2074 162.267 14.1134 159.539 14.5837C157.939 14.96 155.682 15.2422 154.553 15.3363C152.013 15.5244 151.919 15.7125 153.8 17.4998C154.929 18.6286 155.211 21.5447 155.211 31.1397C155.211 42.0515 155.023 43.4625 153.33 45.1558L151.449 47.0371H158.598H165.653L164.242 44.9676C162.737 42.8041 162.078 29.2583 163.301 24.743C163.96 22.3913 167.628 20.6981 168.193 22.4854C168.945 24.649 170.074 23.4261 170.639 19.8515C170.921 17.782 171.485 15.5244 171.767 14.6778C172.52 12.7964 169.51 12.6083 167.158 14.3015Z" fill="white"/>
<path d="M80.71 16.2761C81.7448 17.4049 85.0372 24.6482 87.8592 32.3617C90.7753 40.0753 93.3151 46.566 93.5033 46.8482C94.0677 47.4126 97.8304 38.5702 97.8304 36.6888C97.8304 34.9956 90.5872 16.9346 89.5524 15.8999C89.1761 15.5236 86.6363 15.0532 83.8143 14.771L78.7346 14.2066L80.71 16.2761Z" fill="white"/>
<path d="M105.825 15.5232C105.355 16.558 104.508 18.8156 103.85 20.5088C102.627 23.4249 102.909 24.2715 107.424 35.2774C110.152 41.7681 112.598 46.6597 112.974 46.2834C113.257 45.9071 115.514 40.169 118.054 33.3961C120.5 26.6232 123.698 19.6622 125.109 17.8749L127.649 14.5825H122.193C119.277 14.5825 117.019 14.8647 117.208 15.241C117.49 15.7113 118.242 15.9935 118.901 15.9935C121.252 15.9935 121.158 19.4741 118.713 26.7173C117.49 30.6681 116.173 33.8664 115.796 33.8664C115.326 33.7724 113.069 29.163 108.271 17.8749C106.766 14.2063 106.39 13.9241 105.825 15.5232Z" fill="white"/>
<path d="M129.908 16.1816C125.204 19.3799 122.759 24.6477 122.759 31.5147C122.759 41.58 128.591 47.9766 137.715 47.9766C146.934 47.9766 152.39 41.674 152.39 31.0444C152.39 24.6477 151.073 21.5435 146.84 17.4986C144.488 15.241 142.889 14.6766 138.562 14.3003C134.047 14.0181 132.542 14.3003 129.908 16.1816ZM140.067 15.9935C142.983 17.4986 144.394 22.4842 144.394 31.5147C144.394 43.4613 140.914 49.0113 135.458 46.0952C132.259 44.402 130.754 39.4164 130.754 31.0444C130.754 22.9545 132.259 17.7808 135.175 16.0876C137.339 14.8647 137.998 14.8647 140.067 15.9935Z" fill="white"/>
</svg>
