<svg width="400" height="83" viewBox="0 0 400 83" fill="none" xmlns="http://www.w3.org/2000/svg">
<path d="M53.3333 7.86618C46.4 10.1328 41.4666 13.4662 36.8 18.9328C31.4666 25.0662 31.3333 26.1328 35.7333 29.0662C38.4 30.7995 38.6666 30.6662 39.8666 27.5995C40.5333 25.7328 42.8 22.6662 44.9333 20.6662C65.4666 1.33285 99.2 23.4662 86.6666 47.9995C78.2666 64.3995 51.8666 65.8662 41.7333 50.5328C38 44.9328 36 44.1328 33.3333 47.3328C32 48.9328 32.2666 50.1328 35.2 53.9995C44.5333 66.2662 59.7333 70.9328 74.9333 66.3995C81.6 64.3995 91.4666 55.7328 94.2666 49.4662C97.2 42.6662 97.2 29.3328 94.1333 24.5328C86.8 13.0662 78.1333 7.86618 65.3333 7.19951C60.5333 6.93285 55.2 7.19951 53.3333 7.86618Z" fill="white"/>
<path d="M48.9332 26.266C48.5332 27.5993 48.3998 33.466 48.5332 39.3327L48.6665 49.9993L53.0665 50.3993C56.9332 50.7993 57.3332 50.5327 57.4665 47.066L57.5998 43.3327L58.9332 46.9327C59.9998 49.9993 61.0665 50.666 64.5332 50.666C68.2665 50.666 69.1998 49.9993 70.3998 46.266L71.7332 41.9993L71.8665 46.266C71.9998 50.1327 72.3998 50.666 75.8665 50.666C80.6665 50.666 81.3332 48.9327 81.3332 36.9327C81.3332 25.066 80.5332 23.7327 73.8665 24.266C68.9332 24.666 68.6665 24.9327 66.7998 31.3327L64.9332 37.9993L62.6665 31.3327C60.5332 24.9327 60.2665 24.666 55.0665 24.266C50.6665 23.9993 49.4665 24.3993 48.9332 26.266ZM61.1998 33.5993C62.2665 37.1993 63.8665 39.9993 64.6665 39.9993C65.4665 39.9993 67.0665 37.1993 68.1332 33.5993C69.8665 27.9993 70.5332 27.3327 74.3998 26.9327L78.6665 26.5327V37.1993C78.6665 47.066 78.3998 47.9993 75.9998 47.9993C73.7332 47.9993 73.3332 47.066 73.3332 42.666C73.3332 39.7327 72.7998 37.3327 72.2665 37.3327C71.5998 37.3327 70.3998 39.7327 69.4665 42.666C68.1332 46.9327 67.3332 47.9993 64.6665 47.9993C61.9998 47.9993 61.1998 47.066 59.9998 42.666C59.1998 39.7327 57.9998 37.3327 57.3332 37.3327C56.5332 37.3327 55.9998 39.7327 55.9998 42.666C55.9998 47.066 55.5998 47.9993 53.3332 47.9993C50.9332 47.9993 50.6665 47.066 50.6665 37.1993V26.5327L54.9332 26.9327C58.7998 27.3327 59.4665 27.9993 61.1998 33.5993Z" fill="white"/>
<path d="M109.2 25.4657C108.4 25.8657 108 31.999 108.267 40.1324L108.667 53.999H112.667C116.133 53.999 116.8 53.4657 117.467 49.3324L118.267 44.6657L119.333 48.9324C120.933 56.1324 129.333 56.5324 131.867 49.599L133.067 45.999L133.2 49.599C133.333 52.399 134.133 53.4657 136.533 54.1324C138.4 54.5324 140.533 54.5324 141.2 53.999C142.133 53.4657 142.667 47.599 142.667 39.199C142.667 23.7324 142.267 23.0657 134.533 24.9324C130.667 25.999 129.733 27.0657 127.867 32.799C126.533 36.6657 125.333 38.5324 124.933 37.3324C124.533 36.2657 123.467 33.199 122.667 30.5324C121.333 26.1324 120.667 25.599 115.867 25.0657C112.933 24.799 110 24.9324 109.2 25.4657ZM121.733 35.0657C123.067 39.3324 124.933 42.5324 125.733 42.2657C126.533 41.999 128.267 38.399 129.733 34.1324C132.133 26.799 132.4 26.5324 136.533 26.9324L140.667 27.3324L141.067 39.7324C141.467 51.999 141.333 52.1324 138.533 51.7324C136 51.4657 135.467 50.399 135.467 45.999C135.333 38.6657 133.067 38.5324 130.8 45.999C129.067 51.3324 128.4 52.1324 125.467 51.7324C122.8 51.4657 121.733 50.1324 120.133 44.9324C119.067 41.4657 117.733 38.6657 117.067 38.6657C116.533 38.6657 116 41.7324 116 45.4657C116 51.4657 115.733 52.1324 113.2 51.7324C110.667 51.3324 110.4 50.399 110.4 39.999C110.4 33.7324 110.533 28.1324 110.533 27.599C110.667 26.9324 112.667 26.6657 115.067 26.9324C119.067 27.3324 119.467 27.8657 121.733 35.0657Z" fill="white"/>
<path d="M154.933 25.0663C152.933 25.7329 144.933 50.2663 145.867 52.6663C146.933 55.5996 152.933 55.0663 155.6 51.9996C156.933 50.5329 159.2 49.3329 160.667 49.3329C162.133 49.3329 164.133 50.5329 165.067 51.9996C166.8 54.7996 171.333 55.4663 174.4 53.4663C175.867 52.6663 175.333 49.7329 171.733 39.1996L167.333 25.9996L161.867 25.3329C158.8 24.9329 155.733 24.7996 154.933 25.0663ZM164.933 28.2663C166.267 29.9996 173.333 49.1996 173.333 50.9329C173.333 53.3329 166.8 51.8663 166 49.3329C164.8 45.5996 156.667 45.5996 154.667 49.3329C152.8 52.7996 145.867 53.1996 147.333 49.5996C147.867 48.3996 149.333 44.2663 150.667 40.6663C155.733 26.6663 155.733 26.6663 159.867 26.6663C161.867 26.6663 164.267 27.4663 164.933 28.2663Z" fill="white"/>
<path d="M158.666 34.9327C158.666 35.866 158.266 37.9993 157.866 39.5993C157.2 41.9993 157.6 42.666 159.6 42.666C163.2 42.666 163.866 41.7327 162.8 37.7327C161.866 33.9993 158.666 31.866 158.666 34.9327Z" fill="white"/>
<path d="M181.733 25.5994C180.133 26.3994 178.133 28.666 177.333 30.666C175.333 35.5994 177.2 39.066 183.733 42.666L188.667 45.3327L182.667 45.066C177.467 44.666 176.667 45.066 176.267 47.3327C175.733 51.5994 178 53.5994 184.133 54.2661C191.067 54.9327 196 52.6661 198.4 47.5994C200.667 42.9327 198.933 39.5994 192.267 35.9994L187.333 33.3327L191.333 33.5994C196.4 33.9994 198.667 32.5327 198.667 29.1994C198.667 24.666 188.267 22.3994 181.733 25.5994ZM195.6 27.7327C198.4 29.466 195.467 31.866 190.667 31.5994C184.267 31.1994 184.667 33.9994 191.333 37.7327C201.733 43.5994 197.6 52.666 185.067 51.7327C180.4 51.466 179.2 50.7994 178.933 48.3994C178.533 45.7327 178.8 45.5994 182.4 46.9327C186.4 48.5327 190.667 47.7327 190.667 45.466C190.667 44.666 188.267 42.7994 185.333 41.3327C178.533 37.866 176.8 32.666 181.333 29.066C184.4 26.666 192.667 25.866 195.6 27.7327Z" fill="white"/>
<path d="M205.733 25.3326C202.533 26.6659 200 30.5326 200 34.3993C200 37.1993 203.867 41.1993 209.067 43.5993C212.533 45.1993 212.4 45.1993 206.667 44.9326C201.067 44.6659 200.667 44.9326 200.267 48.2659C199.733 52.9326 203.867 55.1993 211.6 54.2659C219.467 53.4659 222.933 50.1326 222.4 44.1326C222.133 40.1326 221.2 38.9326 217.067 36.6659C211.2 33.5993 210.267 31.4659 215.6 33.4659C218.533 34.5326 219.6 34.3993 220.933 32.5326C223.6 28.9326 223.067 26.7993 219.2 25.3326C215.067 23.7326 209.733 23.7326 205.733 25.3326ZM217.867 27.4659C222.133 29.0659 220.267 31.8659 215.2 31.5993C208.4 31.1993 208 33.9993 214.4 37.1993C221.733 40.9326 223.2 44.7993 218.667 49.3326C216.667 51.3326 214.267 51.9993 209.333 51.9993C205.733 51.9993 202.667 51.7326 202.667 51.4659C202.667 51.1993 202.267 49.8659 201.867 48.7993C201.2 46.9326 202 46.6659 206.8 46.9326C214.533 47.4659 215.2 44.2659 208.4 40.6659C204.4 38.5326 203.2 37.0659 202.933 33.5993C202.533 30.1326 203.067 29.0659 205.6 28.1326C209.2 26.6659 214.933 26.3993 217.867 27.4659Z" fill="white"/>
<path d="M233.733 26.9326C234 27.8659 236.267 28.6659 238.8 28.7993H243.333L243.467 40.7993C243.467 50.7993 243.867 52.7993 245.733 53.0659C247.733 53.4659 248 51.9993 248 41.0659V28.6659H252.267C254.533 28.6659 256.667 27.8659 256.933 26.9326C257.467 25.7326 254.533 25.3326 245.333 25.3326C236.133 25.3326 233.2 25.7326 233.733 26.9326Z" fill="white"/>
<path d="M260 35.8664C260 41.7331 260.4 47.4664 260.8 48.6664C263.067 54.3998 277.067 55.1998 280.933 49.8664C282 48.3998 282.667 43.3331 282.667 36.3998C282.667 27.4664 282.267 25.3331 280.667 25.3331C279.067 25.3331 278.667 27.3331 278.667 35.5998C278.667 41.3331 278.133 46.9331 277.467 47.8664C276.667 49.0664 274.133 49.8664 271.333 49.8664C268.533 49.8664 266 49.0664 265.2 47.8664C264.533 46.9331 264 41.3331 264 35.5998C264 27.3331 263.6 25.3331 262 25.3331C260.4 25.3331 260 27.3331 260 35.8664Z" fill="white"/>
<path d="M289.333 39.333V53.333H297.067C306.4 53.333 310.667 50.7997 310.667 45.333C310.667 43.0663 309.733 40.933 308.4 40.133C306.133 38.933 306.133 38.7997 308.4 36.3997C311.467 32.933 311.333 31.333 307.2 28.133C304.533 26.133 301.733 25.333 296.533 25.333H289.333V39.333ZM305.067 32.533C305.733 35.733 303.2 37.333 297.733 37.333C293.733 37.333 293.333 36.933 293.333 33.5997C293.333 28.533 293.733 28.2663 299.6 29.1997C303.067 29.733 304.8 30.7997 305.067 32.533ZM302.267 40.7997C305.867 41.733 307.333 45.333 305.067 47.4663C304.133 48.2663 301.067 49.333 298.4 49.733L293.333 50.533V45.1997C293.333 40.6663 293.733 39.9997 296.4 39.9997C298 39.9997 300.667 40.3997 302.267 40.7997Z" fill="white"/>
<path d="M316 25.5997C315.867 25.8664 315.867 31.9997 315.733 39.3331L315.6 52.6664L324.533 53.3331C332.533 53.9997 333.333 53.7331 333.333 51.4664C333.333 49.3331 332.533 49.0664 326.667 49.5997C319.467 50.2664 319.733 50.6664 320 41.5997C320 41.0664 322.8 40.6664 326.267 40.6664C330 40.6664 332.667 39.9997 332.933 38.9331C333.333 37.8664 331.6 37.3331 326.8 37.3331C320.133 37.3331 320 37.1997 320 33.3331C320 29.4664 320.133 29.3331 326.667 29.3331C331.733 29.3331 333.333 28.7997 333.333 27.3331C333.333 25.7331 331.467 25.3331 324.667 25.3331C319.867 25.3331 316 25.4664 316 25.5997Z" fill="white"/>
<path d="M339.733 26.1327C339.067 26.666 338.667 33.066 338.667 40.266C338.667 50.7994 339.067 53.3327 340.533 53.3327C341.867 53.3327 342.667 51.466 342.933 47.7327C343.467 39.5994 346.933 39.3327 351.6 47.1994C355.333 53.466 358.667 55.9994 358.667 52.666C358.667 51.5994 357.467 48.666 355.867 46.1327L353.2 41.466L356 38.666C358.933 35.7327 358.933 30.3994 356 27.466C354.4 25.866 340.933 24.7994 339.733 26.1327ZM352.933 30.9327C353.867 31.7327 354.667 32.7994 354.667 33.466C354.667 35.7327 350.267 38.666 346.533 38.666C343.067 38.666 342.667 38.266 342.667 34.266C342.667 31.7327 343.067 29.3327 343.6 28.7994C344.8 27.5994 350.667 28.9327 352.933 30.9327Z" fill="white"/>
<path d="M28.7999 29.0658C27.4666 30.2658 27.8666 45.0658 29.3333 45.9991C31.1999 47.0658 46.9333 38.7991 46.3999 37.0658C45.7333 35.1991 29.8666 27.8658 28.7999 29.0658ZM37.9999 33.5991C41.1999 35.3325 43.9999 36.9325 43.9999 37.3325C43.9999 38.1325 33.1999 43.9991 31.7333 43.9991C31.0666 43.9991 30.6666 40.9325 30.6666 37.3325C30.6666 33.5991 30.9333 30.6658 31.3333 30.6658C31.7333 30.6658 34.6666 31.9991 37.9999 33.5991Z" fill="white"/>
</svg>
