<svg width="134" height="77" viewBox="0 0 134 77" fill="none" xmlns="http://www.w3.org/2000/svg">
<path d="M39.0761 5.18276C37.9967 6.62202 37.277 14.2501 38.2126 14.7538C38.6443 15.0416 38.7883 15.7613 38.5724 16.337C38.2845 16.9846 39.0041 18.3519 40.2995 19.6473C41.5228 20.9426 42.6742 22.7416 42.8901 23.7491C43.106 24.7566 43.8976 28.0669 44.6892 31.2332C45.4808 34.3276 45.9845 37.0622 45.7686 37.2781C45.5527 37.494 45.2649 37.494 45.121 37.3501C44.6172 36.6304 41.7387 26.8435 41.7387 25.836C41.7387 23.893 37.349 17.9201 36.0537 18.136C33.6789 18.5678 34.2546 33.8239 36.8453 40.5884C37.5649 42.3155 37.4929 42.7473 36.4855 43.323C35.8378 43.6828 35.2621 44.4024 35.2621 44.9781C35.2621 45.5538 34.6864 46.993 33.8948 48.2884C33.1752 49.5117 32.7434 51.0949 32.8873 51.8865C33.1752 53.0379 32.8873 53.2538 31.1602 53.2538C29.649 53.2538 28.5696 53.9015 27.4901 55.4127C26.1948 57.0678 25.3313 57.5716 23.3883 57.5716C20.2219 57.5716 18.7107 59.6585 18.7107 64.1202C18.7107 67.8622 16.7677 71.0286 14.249 71.3884C11.4425 71.8202 12.0901 73.1874 15.2565 73.6192C18.3509 74.051 28.2817 72.5398 31.664 71.1725C32.6714 70.8127 34.3266 69.3015 35.478 67.8622C36.7013 66.1351 37.421 65.7033 37.421 66.423C37.421 67.1426 36.7733 68.294 35.9817 69.0856C35.1901 69.8772 34.5425 70.7407 34.5425 70.9566C34.5425 71.7482 42.2425 70.5968 45.3369 69.3734C48.3593 68.1501 49.6546 66.5669 49.6546 64.1202C49.6546 63.2566 50.0144 62.6089 50.3742 62.6089C51.3098 62.6089 51.3098 55.7725 50.3742 52.3902C49.9425 50.879 48.5032 48.2164 47.1359 46.4173C44.1855 42.6033 44.1855 42.3874 46.0565 40.6603C47.7836 39.0772 47.8556 37.3501 46.3443 31.3052C45.6247 28.4987 45.4088 26.3398 45.8406 25.6201C46.2004 24.9725 46.3443 23.1734 46.2004 21.5902C45.9845 19.2155 45.5527 18.4958 44.1135 17.9201C42.6023 17.3444 42.3864 16.9846 42.8901 15.6173C43.7537 13.2426 43.4658 6.55005 42.4584 5.39865C41.3789 4.10332 40.0116 4.03136 39.0761 5.18276ZM42.4584 9.78837C42.8182 10.58 42.6023 12.451 42.0266 14.0342C40.9471 17.2005 41.163 17.8482 43.6098 18.7117C45.049 19.2874 45.3369 19.8631 45.3369 22.5977C45.3369 24.3968 45.049 26.0519 44.6172 26.2678C44.2574 26.4837 43.8976 26.0519 43.8976 25.1884C43.8976 23.3893 42.2425 20.0071 40.7313 18.7837C40.0836 18.208 39.5798 17.1286 39.5798 16.265C39.5798 15.4015 39.22 14.322 38.7883 13.8902C38.2845 13.3865 38.3565 12.379 39.1481 10.436C40.3714 7.62949 41.5948 7.4136 42.4584 9.78837ZM42.0985 30.8015C44.0415 36.8463 44.977 38.8613 45.6967 38.5734C46.3443 38.3575 46.5602 38.5734 46.3443 39.2211C46.1284 39.7248 45.4808 40.3725 44.9051 40.5884C43.3939 41.1641 43.6817 44.1865 45.4088 45.7697C47.7116 47.7846 49.6546 52.1024 50.0864 55.9164L50.4462 59.3706L48.935 55.7725C48.1434 53.7575 46.992 51.5267 46.4163 50.8071C44.4013 48.1445 44.6172 50.1594 46.7761 54.765C49.3668 60.2342 49.6546 64.7678 47.5677 66.8547C46.2004 68.222 43.3939 69.2295 38.0686 70.237C35.6939 70.7407 35.6219 70.7407 36.9172 69.3015C37.5649 68.5099 38.1406 67.0706 38.1406 66.0631C38.1406 65.0557 39.22 61.9613 40.5154 59.2987C43.106 53.6856 43.6817 47.7127 41.7387 45.7697C40.8032 44.7622 40.6593 45.2659 40.6593 50.3033C40.6593 55.4127 40.4434 56.3482 37.5649 62.1052C35.8378 65.5594 33.6789 68.8697 32.6714 69.5173C30.6565 70.8846 21.877 72.6837 17.2714 72.6837H14.0331L16.264 71.3164C18.8546 69.7332 20.1499 66.6388 20.1499 62.2491C20.1499 58.9388 20.8696 58.2912 24.5397 58.2912C25.9789 58.2912 27.0584 57.6435 28.1378 56.1323C29.3612 54.5491 30.1527 54.1173 31.3761 54.4052C33.2471 54.9089 34.1827 53.6856 33.9668 51.023C33.8948 49.9435 34.3266 48.7202 34.9023 48.2164C35.478 47.7127 35.9817 46.7772 35.9817 46.0575C35.9817 45.3379 36.7013 44.3304 37.4929 43.7547C38.8602 42.8912 38.9322 42.5314 38.2126 41.1641C36.1256 37.2781 34.3266 20.6547 35.7658 19.1435C36.9172 17.9921 39.6518 23.0295 42.0985 30.8015Z" fill="white"/>
<path d="M36.7009 28.8598C36.7009 32.6019 36.9168 33.8972 37.6364 33.6813C39.2196 33.1056 39.8673 29.7953 38.9318 26.7009C37.6364 22.2392 36.7009 23.1748 36.7009 28.8598ZM38.1402 31.5224C37.6364 32.386 37.4925 31.6663 37.4925 28.7878C37.5645 24.8299 37.5645 24.8299 38.2121 27.5645C38.6439 29.2916 38.572 30.8028 38.1402 31.5224Z" fill="white"/>
<path d="M38.5008 47.1376C38.141 47.9292 37.2775 49.5124 36.4859 50.6638L35.0466 52.6787L36.5578 51.8871C38.4289 50.8796 39.7962 48.5768 39.3644 46.9217C39.1485 45.8423 39.0046 45.9142 38.5008 47.1376Z" fill="white"/>
<path d="M112.119 6.98192C111.471 7.70154 110.463 9.21276 109.816 10.4361C109.168 11.5875 107.801 14.0343 106.865 15.7614C105.858 17.4885 105.066 19.4314 105.066 20.0791C105.066 20.7268 104.275 22.5978 103.267 24.3249C100.892 28.4987 100.317 31.881 101.756 33.0324C102.62 33.752 102.907 35.4071 102.907 40.0128C102.907 45.4819 103.051 46.0576 104.275 46.0576C105.426 46.0576 105.57 45.6978 105.282 43.1791C104.994 41.3081 105.138 40.3006 105.714 40.3006C106.146 40.3006 106.506 40.5885 106.506 40.9483C106.506 42.1716 110.176 46.0576 111.327 46.0576C112.119 46.0576 111.903 45.4819 110.535 43.8268C109.528 42.6034 108.664 41.2361 108.664 40.8043C108.664 40.3006 108.377 40.3726 107.945 41.0202C107.585 41.5959 107.225 41.7399 107.225 41.3081C107.225 40.8763 107.873 39.9408 108.664 39.2212C111.759 36.4146 109.816 33.1043 104.994 33.1043H102.692L104.131 31.4492C105.714 29.6501 107.945 24.3969 107.945 22.3819C107.945 21.1586 108.952 18.7838 110.967 15.1137C113.702 10.0043 115.141 7.12584 115.141 6.47818C115.141 5.32678 113.342 5.61463 112.119 6.98192ZM104.131 41.8838C103.987 43.6109 103.843 42.3875 103.843 39.2212C103.843 36.0548 103.987 34.6875 104.131 36.1268C104.275 37.638 104.275 40.2286 104.131 41.8838ZM107.801 36.6305C108.017 38.1417 107.009 39.509 105.642 39.581C105.282 39.581 105.066 38.4296 105.066 36.9903C105.066 34.9754 105.282 34.4716 106.362 34.6875C107.009 34.8314 107.729 35.695 107.801 36.6305Z" fill="white"/>
<path d="M52.8938 24.5406C52.8938 29.0023 53.1816 30.9453 53.7574 30.9453C54.3331 30.9453 54.477 29.7219 54.1891 26.7715C53.6854 22.0219 54.0452 22.0219 55.9882 26.9874C56.7798 29.0023 57.6433 30.5855 57.9312 30.5855C58.219 30.5855 59.0826 28.7864 59.8022 26.6276L61.0975 22.6696V26.7715C61.1695 30.5135 61.3134 30.9453 62.6807 30.9453C63.7602 30.9453 64.048 30.6575 63.7602 29.7939C63.5443 29.1462 63.3284 26.4117 63.3284 23.6771C63.3284 17.1285 61.8172 16.8406 59.9461 23.0294C59.2985 25.4042 58.5069 27.0593 58.219 26.7715C58.0031 26.4836 57.2116 24.6846 56.4919 22.8135C55.7723 20.9425 54.6929 19.0715 54.0452 18.7836C53.0377 18.2079 52.8938 18.9276 52.8938 24.5406ZM62.3929 27.4911C62.2489 29.2182 62.105 27.9948 62.105 24.8285C62.105 21.6621 62.2489 20.2948 62.3929 21.7341C62.5368 23.2453 62.5368 25.836 62.3929 27.4911Z" fill="white"/>
<path d="M73.1858 19.2905C71.3867 21.2335 71.6746 22.313 74.625 25.3354C77.1437 27.9261 77.2157 28.1419 76.0643 29.3653C74.8409 30.5167 74.697 30.5167 73.4017 28.7896C72.0344 26.9905 71.9624 26.9905 71.9624 28.5737C71.9624 30.6606 74.3372 31.956 76.2082 30.9485C79.1587 29.4373 78.9428 25.4793 75.9203 23.4644C73.9774 22.169 73.4736 19.4345 75.1288 19.4345C75.7045 19.4345 76.4241 19.7943 76.64 20.1541C76.9278 20.5859 77.4316 20.7298 77.7914 20.4419C78.7989 19.8662 77.1437 17.9952 75.5605 17.9952C74.9129 17.9952 73.8334 18.5709 73.1858 19.2905Z" fill="white"/>
<path d="M80.7426 18.8535C79.2314 20.3647 79.7351 23.5311 81.7501 25.1143C82.8295 25.9058 83.909 26.4815 84.1968 26.2657C85.0604 25.69 84.0529 29.0722 83.1893 29.6479C82.7576 29.9358 81.6781 29.504 80.8146 28.6404L79.1594 27.1292V28.6404C79.1594 30.9432 81.6781 32.0227 83.909 30.5834C86.3557 29.0002 86.2118 25.9058 83.4772 23.5311C82.3258 22.4516 81.3183 21.2283 81.3183 20.8685C81.3183 19.7171 83.6931 18.9974 84.0529 20.0049C84.4127 21.2283 85.6361 21.0844 85.6361 19.861C85.6361 18.0619 82.2538 17.3423 80.7426 18.8535Z" fill="white"/>
<path d="M66.927 24.8285C66.927 30.1537 67.0709 30.9453 68.2223 30.9453C69.3018 30.9453 69.4457 30.1537 69.4457 24.8285C69.4457 19.5033 69.3018 18.7117 68.2223 18.7117C67.0709 18.7117 66.927 19.5033 66.927 24.8285Z" fill="white"/>
<path d="M114.565 33.5365C113.701 34.1122 112.982 35.4075 112.982 36.343C112.982 38.5738 116.58 42.1 117.515 40.8047C117.875 40.3009 117.947 40.6607 117.659 41.7402C116.868 44.4748 116.004 45.0505 114.349 44.043C112.55 42.8916 111.686 43.4673 112.982 44.9785C114.349 46.6336 117.084 46.2738 118.379 44.3308C119.746 42.3159 119.242 40.9486 116.148 38.1421C114.421 36.5589 114.277 36.4869 114.709 37.7822C115.141 38.9336 115.069 39.0056 114.349 38.3579C113.701 37.7103 113.773 37.0626 114.709 35.5514C115.644 34.1841 116.22 33.8963 116.796 34.472C117.803 35.4794 118.739 35.4794 118.739 34.5439C118.739 33.0327 116.148 32.457 114.565 33.5365Z" fill="white"/>
<path d="M52.6776 38.0698C52.9655 43.8268 54.4047 46.0576 57.643 46.0576C60.4496 46.0576 61.6729 43.8268 62.0327 37.9258C62.2486 33.8959 62.1047 33.1043 61.1692 33.1043C60.2337 33.1043 60.0898 33.824 60.3056 37.7819C60.5215 40.8043 60.3056 42.8193 59.7299 43.5389C58.6505 44.9062 54.6926 44.6184 55.2683 43.2511C55.4841 42.6754 55.3402 42.3875 54.9084 42.6754C54.4767 42.9632 54.2608 42.4595 54.4047 41.524C54.5486 40.6604 54.7645 38.4296 54.9084 36.4866C55.1963 33.4642 55.0524 33.1043 53.829 33.1043C52.4617 33.1043 52.3898 33.4642 52.6776 38.0698Z" fill="white"/>
<path d="M64.2628 33.9679C64.4067 34.4716 64.9105 34.9034 65.3422 34.9034C65.774 34.9034 66.5656 35.4071 67.0693 35.9829C67.8609 36.8464 67.8609 36.8464 66.7815 36.0548C65.5581 35.1913 65.4862 35.4071 65.4862 38.9333C65.4862 41.0922 65.2703 43.5389 65.0544 44.4025C64.6946 45.6978 64.9105 46.0576 65.846 46.0576C66.9254 46.0576 67.0693 45.4819 66.7815 41.6679L66.4936 37.2062L67.9329 38.9333C68.7964 39.9408 70.3077 41.8118 71.3871 43.1791C72.4665 44.5464 73.474 45.4819 73.6179 45.338C73.8338 45.1221 74.1217 42.3156 74.2656 39.0053C74.4815 33.8959 74.3376 33.1043 73.2581 33.1043C72.2506 33.1043 72.1787 33.4642 72.7544 35.695C73.1862 37.0623 73.402 39.0772 73.2581 40.1567C73.0422 42.0277 72.8263 41.8838 69.5161 37.566C67.5731 35.1193 65.5581 33.1043 64.9824 33.1043C64.4067 33.1043 64.0469 33.5361 64.2628 33.9679Z" fill="white"/>
<path d="M77.3606 39.5822C77.3606 45.699 77.4326 46.1308 78.7998 45.9149C79.5914 45.771 80.1671 45.4832 80.0952 45.1233C79.9512 44.8355 79.8793 42.0289 79.8793 38.8626C79.8793 33.8252 79.7354 33.1056 78.6559 33.1056C77.5045 33.1056 77.3606 33.8972 77.3606 39.5822ZM78.9438 42.2448C78.7998 43.7561 78.6559 42.5327 78.6559 39.5822C78.6559 36.6318 78.7998 35.4084 78.9438 36.8476C79.0877 38.3589 79.0877 40.8056 78.9438 42.2448Z" fill="white"/>
<path d="M82.0391 33.7529C82.0391 34.1847 82.3269 34.6164 82.7587 34.9043C83.1185 35.1202 84.126 37.5669 84.9895 40.3015C85.925 43.108 87.0764 45.3389 87.5802 45.3389C88.0839 45.3389 88.5157 44.9071 88.5157 44.3314C88.5157 43.7557 89.5232 41.165 90.6746 38.5024C93.1933 32.9613 93.1213 33.1052 91.8979 33.1052C91.3222 33.1052 90.3148 34.9763 89.5951 37.423C88.8755 39.7977 88.012 41.5248 87.6521 41.165C87.3643 40.8772 86.6447 38.9342 86.2129 36.8473C85.4213 33.6809 85.0615 33.1052 83.6942 33.1052C82.7587 33.1052 82.0391 33.3931 82.0391 33.7529Z" fill="white"/>
<path d="M93.9124 39.5793V46.1279L97.0787 45.912C98.8778 45.7681 100.389 45.2644 100.605 44.8326C100.749 44.1849 100.245 44.041 98.6619 44.3289C96.503 44.7606 96.431 44.6887 96.431 42.17C96.431 39.7233 96.575 39.5793 98.3021 40.0111C99.7413 40.3709 100.101 40.227 99.8853 39.5074C99.6694 38.9317 98.8058 38.5719 98.0142 38.7158C96.6469 38.9317 96.431 38.5719 96.431 36.7008C96.431 34.6859 96.6469 34.47 98.374 34.6859C99.4535 34.8298 100.389 34.5419 100.533 33.9662C100.749 33.3905 99.8853 33.1027 97.3666 33.1027H93.9124V39.5793ZM95.4955 41.8821C95.3516 43.6092 95.2077 42.3859 95.2077 39.2195C95.2077 36.0532 95.3516 34.6859 95.4955 36.1251C95.6395 37.6363 95.6395 40.227 95.4955 41.8821Z" fill="white"/>
<path d="M120.537 39.4368V45.8415H123.919C126.15 45.9135 127.374 45.5537 127.661 44.906C127.949 44.1864 127.446 43.9705 125.718 44.1144C123.632 44.2583 123.416 44.0424 123.2 41.8836C122.984 39.6527 123.056 39.5808 124.783 40.0125C126.222 40.3723 126.654 40.1565 126.654 39.2929C126.654 38.4294 126.222 38.2135 124.855 38.5733C123.2 39.0051 123.056 38.7892 123.056 36.7023C123.056 34.4714 123.2 34.3994 125.215 34.7593C126.798 35.1191 127.374 34.9752 127.374 34.1836C127.374 33.392 126.51 33.1041 123.991 33.1041H120.537V39.4368ZM122.12 41.8836C121.976 43.6107 121.832 42.3873 121.832 39.2209C121.832 36.0546 121.976 34.6873 122.12 36.1266C122.264 37.6378 122.264 40.2284 122.12 41.8836Z" fill="white"/>
<path d="M54.1166 52.4611C54.1886 54.8358 54.1166 56.5629 53.9008 56.419C53.6129 56.2751 53.2531 56.6349 52.9652 57.2106C52.6774 58.0742 53.1811 58.29 55.0522 58.29C57.7148 58.29 58.7222 57.3545 58.4344 55.0517C58.2905 53.6125 58.2905 53.6125 58.9381 55.0517C59.226 55.8433 59.3699 56.9227 59.226 57.3545C59.0101 57.8583 59.3699 58.29 60.0176 58.29C60.6652 58.29 61.169 57.7143 61.169 56.9947C61.169 56.2751 61.4568 55.4115 61.8166 55.0517C62.1765 54.6199 62.6082 53.6844 62.7522 52.8928C62.968 52.0293 63.3279 52.8209 63.6157 54.8358C64.1914 58.29 64.2634 58.29 66.998 58.29C69.6606 58.29 69.8045 58.1461 69.8045 56.1312C69.8045 54.2601 70.0923 53.9723 71.6755 53.9723C73.3307 53.9723 73.4746 54.1882 73.0428 56.1312C72.611 58.2181 72.611 58.29 75.4895 58.29C78.0802 58.29 78.368 58.0742 78.5839 56.2751C78.7279 54.9078 79.1596 54.3321 80.0951 54.4041C80.7428 54.476 81.3185 54.1882 81.3185 53.7564C81.3185 53.3246 81.4624 53.1807 81.6783 53.3246C81.8223 53.5405 81.7503 54.7639 81.3905 55.9872L80.6708 58.29H83.6213C86.2839 58.29 86.4998 58.1461 86.14 56.6349C85.9241 55.7713 86.14 54.2601 86.6437 53.3246L87.5793 51.5975L88.3708 53.9003C88.8026 55.1956 88.8746 55.9872 88.5148 55.7713C88.083 55.4835 87.7951 54.8358 87.7951 54.1882C87.7951 53.5405 87.6512 53.1807 87.4353 53.3966C86.8596 53.9723 87.7951 57.5704 88.5148 57.5704C88.8026 57.5704 89.5942 56.347 90.2419 54.8358L91.4652 52.1732L91.1054 55.1956C90.8176 58.29 90.8176 58.29 93.1204 58.29C94.9914 58.29 95.5671 57.9302 96.2148 56.1312C97.4381 52.8209 99.0933 53.6125 98.6615 57.3545C98.5895 57.8583 99.8849 58.1461 102.188 58.1461C105.426 58.2181 105.93 58.0022 106.649 56.419C107.369 54.9798 107.225 54.4041 105.93 53.0368C103.627 50.59 104.059 48.2153 106.362 50.5181C107.009 51.1657 107.225 51.0218 107.225 49.7265C107.225 48.4312 106.865 48.1433 105.354 48.3592C102.332 48.719 101.54 50.59 103.483 53.1807C105.354 55.6994 105.498 56.8508 103.987 56.8508C103.411 56.8508 102.907 56.491 102.907 56.0592C102.907 55.6274 102.476 55.4115 101.9 55.6274C101.108 55.9872 100.604 55.0517 100.029 52.1013C99.597 50.0143 98.8774 48.2153 98.4456 48.2153C98.0858 48.2153 97.9419 48.719 98.1578 49.3667C98.3737 49.9424 98.3017 50.3022 97.9419 50.0863C97.5821 49.8704 96.6466 51.3097 95.855 53.2527C93.9839 57.7863 92.5447 58.0742 93.1923 53.7564C93.4082 52.1013 93.84 50.1583 93.9839 49.4386C94.7755 46.848 92.0409 48.2153 90.7456 51.1657L89.4503 54.0442L88.2269 51.1657C87.0036 47.9994 84.6288 46.9199 85.2765 49.7984C85.7802 52.2452 84.7008 56.347 83.4774 56.491C82.6858 56.6349 82.398 55.7713 82.254 53.0368C82.0381 47.4237 81.0307 47.4237 78.2241 52.9648L75.7054 57.9302L74.9138 55.9153C73.9064 53.3966 73.9064 51.8134 74.8419 53.2527C75.3456 54.0442 75.5615 53.8284 75.5615 52.1013C75.5615 50.9499 75.9213 49.5826 76.4251 49.0788C77.0727 48.4312 76.8568 48.2153 75.2737 48.2153C73.7624 48.2153 73.3307 48.5031 73.6905 49.2947C74.3381 51.0938 73.4026 52.533 71.5316 52.533C69.5886 52.533 69.5886 52.533 70.5241 50.0863C71.1718 48.3592 71.0279 48.2153 69.4447 48.2153C68.1494 48.2153 67.7895 48.5031 68.0774 49.2947C68.6531 50.8059 67.7176 56.8508 66.926 56.8508C66.5662 56.8508 65.9185 54.9078 65.4148 52.533C64.983 50.1583 64.3353 48.2153 63.9755 48.2153C63.6157 48.2153 62.6802 49.8704 61.8166 51.8134C60.3054 55.3396 60.2335 55.4115 59.226 53.9723C58.3624 52.8209 58.3624 52.2452 59.0101 51.4536C60.3054 49.9424 58.6503 48.2153 55.9877 48.2153H53.8288L54.1166 52.4611ZM57.355 53.0368C57.283 54.9798 56.8512 56.491 56.3475 56.7069C55.268 56.9947 55.0522 54.2601 56.0596 53.6844C56.3475 53.4685 56.4914 52.4611 56.2755 51.4536C56.1316 50.4461 56.2755 49.6545 56.7073 49.6545C57.1391 49.6545 57.355 51.1657 57.355 53.0368Z" fill="white"/>
</svg>
