<svg width="262" height="93" viewBox="0 0 262 93" fill="none" xmlns="http://www.w3.org/2000/svg">
<path d="M236.151 13.5361C236.675 15.1954 237.461 16.5928 237.81 16.5928C238.247 16.5928 238.247 15.8068 237.985 14.8461C237.723 13.8854 237.81 13.0994 238.247 13.0994C238.683 13.0994 239.033 12.4881 239.033 11.7894C239.033 11.0034 238.247 10.4794 237.111 10.4794C235.277 10.4794 235.277 10.6541 236.151 13.5361Z" fill="white"/>
<path d="M241.129 13.7111C241.129 16.4184 241.304 16.6804 241.915 15.2831C242.963 12.8377 242.963 10.4797 241.915 10.4797C241.478 10.4797 241.042 11.9644 241.129 13.7111Z" fill="white"/>
<path d="M245.408 11.0907C245.408 11.6147 244.797 12.75 244.011 13.536C242.875 14.584 242.788 15.1954 243.574 15.9814C244.273 16.68 244.535 16.68 244.535 15.8067C244.535 15.108 245.233 14.06 246.107 13.4487C247.329 12.5754 247.417 12.1387 246.543 11.2654C245.757 10.4794 245.408 10.4794 245.408 11.0907Z" fill="white"/>
<path d="M26.6379 12.3118C26.2886 12.8358 25.5026 13.0104 24.8913 12.7484C23.2319 12.1371 19.2146 16.7658 19.2146 19.3858C19.2146 21.3944 20.0879 21.8311 29.5199 25.3244C35.1093 27.4204 40.2619 29.5164 40.8733 29.9531C43.1439 31.7871 42.5326 29.8658 38.6899 23.5778C36.5066 19.9971 34.1486 15.7178 33.4499 14.1458C32.4893 11.8751 31.7906 11.3511 29.6946 11.3511C28.2973 11.3511 26.8999 11.7878 26.6379 12.3118ZM33.1879 18.9491C36.2446 23.7524 36.4193 24.4511 34.1486 24.4511C32.3146 24.4511 24.7166 21.3944 22.9699 19.9971C20.6993 18.0758 24.0179 15.0191 28.6466 14.9318C30.0439 14.8444 31.3539 15.9798 33.1879 18.9491Z" fill="white"/>
<path d="M62.8816 12.0517C62.8816 12.4884 61.921 13.2744 60.6983 13.7984C59.2136 14.497 58.515 15.545 58.515 17.0297C58.515 18.3397 58.1656 19.1257 57.6416 18.7764C57.205 18.5144 56.7683 18.689 56.7683 19.1257C56.7683 19.6497 57.205 20.0864 57.6416 20.0864C58.1656 20.0864 58.515 22.7064 58.515 26.1997C58.515 29.693 58.1656 32.313 57.6416 32.313C57.205 32.313 56.7683 32.837 56.7683 33.4484C56.7683 34.147 58.8643 35.0204 62.0083 35.6317C64.9776 36.243 67.8596 36.9417 68.5583 37.291C69.519 37.6404 69.8683 37.029 69.8683 35.1077C69.8683 33.623 69.519 32.1384 68.995 31.8764C68.5583 31.6144 68.1216 31.9637 68.1216 32.6624C68.1216 34.2344 65.7636 34.4964 62.5323 33.1864C60.349 32.4004 60.2616 32.051 60.2616 25.3264C60.2616 19.475 60.5236 18.0777 62.0083 16.593C64.4536 14.1477 69.257 14.235 70.567 16.7677C71.091 17.903 72.7503 20.6977 74.235 23.143C77.8156 28.9944 81.2216 35.6317 81.2216 36.4177C81.047 38.1644 76.1563 36.243 73.8856 33.5357C70.7416 29.693 70.1303 30.217 72.401 34.8457C73.5363 37.029 75.021 38.601 76.2436 38.7757C83.3176 40.2604 86.8983 40.8717 87.2476 40.5224C87.4223 40.3477 86.9856 39.4744 86.287 38.6884C84.2783 36.243 78.6016 26.1997 79.3003 26.1997C79.6496 26.1997 79.475 25.8504 78.951 25.501C78.5143 25.1517 76.331 21.833 74.1476 18.165C70.305 11.353 70.305 11.353 66.637 11.353C64.541 11.353 62.8816 11.7024 62.8816 12.0517Z" fill="white"/>
<path d="M101.308 12.1387C101.308 12.5753 100.61 13.1867 99.7364 13.536C96.8544 14.4093 96.0684 17.9027 96.0684 30.1293V41.832L100.26 42.356C102.531 42.618 105.238 42.9673 106.374 43.142C108.208 43.404 108.295 43.142 108.295 38.3387C108.295 33.3607 107.247 31.0027 106.199 33.71C105.937 34.496 105.675 36.2427 105.675 37.64C105.675 40.1727 105.5 40.26 102.444 39.998L99.125 39.736L98.863 28.9067C98.6884 19.7367 98.863 17.8153 100.086 16.5053C102.444 13.9727 106.898 14.322 108.994 17.204C112.749 22.5313 122.356 39.5613 122.094 40.6093C121.919 41.308 121.046 41.3953 119.212 40.9587C117.29 40.4347 115.98 39.1247 114.496 36.2427C113.36 34.0593 111.614 31.7887 110.653 31.352C109.343 30.566 109.692 31.7013 112.4 36.854L115.718 43.2293L122.268 43.4913C128.731 43.7533 128.818 43.7533 127.072 42.0067C126.111 41.1333 121.57 33.7973 117.028 25.85L108.732 11.44L105.064 11.3527C102.968 11.3527 101.308 11.702 101.308 12.1387Z" fill="white"/>
<path d="M139.735 12.226C139.735 12.6627 139.211 13.0993 138.599 13.0993C137.988 13.0993 136.94 13.798 136.241 14.584C135.193 15.894 135.019 18.8633 135.193 30.042C135.455 43.8407 135.455 43.8407 137.377 43.3167C138.425 43.0547 140.346 42.7927 141.743 42.7927H144.101V27.0727V11.3527H141.918C140.695 11.3527 139.735 11.702 139.735 12.226ZM141.569 27.946C141.569 39.5613 141.132 41.57 139.036 40.26C137.551 39.2993 137.464 17.8153 138.949 15.9813C140.957 13.6233 141.569 16.418 141.569 27.946Z" fill="white"/>
<path d="M147.595 27.073V42.793L150.04 42.3563C151.35 42.0943 155.367 41.5703 158.948 41.0463C162.529 40.5223 165.585 39.911 165.847 39.7363C166.895 38.6883 164.45 37.9896 159.734 37.9896H154.581V30.3043V22.7063H168.031H181.567L183.314 25.239C184.362 26.6363 185.148 28.121 185.148 28.5576C185.148 29.955 190.563 35.195 191.087 34.3216C191.436 33.7976 193.27 32.9243 195.191 32.313C199.645 30.9156 200.344 30.479 199.296 29.7803C198.859 29.5183 196.239 25.239 193.445 20.261L188.467 11.353H168.031H147.595V27.073ZM187.331 15.021C188.991 16.593 195.366 28.4703 195.017 29.3436C194.842 29.8676 193.619 30.5663 192.484 30.8283C190.737 31.0903 189.864 30.5663 188.03 28.0336C186.72 26.287 184.711 23.8416 183.489 22.4443L181.305 20.0863H168.817C152.66 20.0863 152.573 20.1736 153.009 31.527C153.271 38.4263 153.097 39.2996 151.787 39.2996C150.389 39.2996 150.215 38.1643 150.215 27.1603C150.215 16.5056 150.389 14.9336 151.699 14.6716C153.621 14.3223 186.895 14.5843 187.331 15.021Z" fill="white"/>
<path d="M217.024 12.3125C216.675 12.8365 215.889 13.0112 215.365 12.8365C214.229 12.3999 213.88 12.7492 209.601 20.5219C208.029 23.4039 206.195 26.2859 205.496 26.8972C204.099 28.2945 204.885 30.1285 206.369 28.9932C206.981 28.5565 210.911 26.6352 215.103 24.8885C221.915 21.9192 223.225 21.0459 226.281 16.9412C228.115 14.4085 229.687 12.0505 229.687 11.7885C229.687 10.9152 217.548 11.3519 217.024 12.3125ZM223.312 16.8539C222.002 19.0372 212.657 24.2772 211.784 23.4039C210.998 22.6179 213.88 17.2032 215.627 16.1552C217.199 15.1945 222.788 14.1465 223.836 14.6705C224.273 14.8452 224.011 15.8932 223.312 16.8539Z" fill="white"/>
<path d="M19.2146 49.9526V74.668H25.4153H31.6159L31.2666 53.446C31.0919 39.7346 31.3539 32.3113 31.8779 32.3113C32.4019 32.3113 34.4106 35.368 36.5066 39.1233C38.5153 42.7913 44.0173 52.3106 48.7333 60.0833L57.2046 74.406L63.5799 74.4933L69.8679 74.668L69.6933 57.7253L69.4313 40.7826L66.3746 40.5206C64.7153 40.346 62.1826 39.7346 60.7853 39.298C59.3879 38.774 58.0779 38.4246 57.8159 38.4246C57.6413 38.4246 57.5539 42.18 57.8159 46.7213C57.9906 51.2626 57.9033 55.018 57.5539 55.018C57.2919 55.018 54.5846 50.7386 51.6153 45.4986C48.6459 40.2586 45.7639 35.63 45.1526 35.106C44.5413 34.6693 40.7859 33.1846 36.6813 31.8746C32.5766 30.5646 27.1619 28.556 24.5419 27.4206C22.0093 26.2853 19.7386 25.3246 19.5639 25.3246C19.3893 25.3246 19.2146 36.416 19.2146 49.9526ZM27.2493 32.0493C28.3846 33.3593 28.5593 36.416 28.2099 51.9613C28.0353 62.0046 27.6859 70.476 27.4239 70.6506C26.2013 71.8733 23.4939 71.4366 22.7079 69.7773C21.8346 68.2053 21.6599 32.9226 22.4459 31.176C23.0573 30.0406 25.9393 30.5646 27.2493 32.0493ZM48.8206 46.2846C54.2353 55.28 55.8946 56.852 58.2526 55.3673C59.3879 54.6686 59.9119 52.8346 60.2613 49.0793C60.5233 46.1973 60.9599 43.5773 61.2219 43.228C61.5713 42.966 62.7939 42.966 64.1039 43.3153L66.3746 43.8393V57.2013C66.3746 68.5546 66.1999 70.6506 64.9773 71.0873C62.4446 72.048 59.6499 71.6113 58.3399 70.0393C55.8073 67.1573 39.3013 38.6866 39.3013 37.202C39.3013 35.892 39.5633 35.892 41.5719 36.94C42.9693 37.6386 45.9386 41.5686 48.8206 46.2846Z" fill="white"/>
<path d="M217.374 27.508C213.444 29.6913 197.724 35.63 194.493 36.2413C191.087 36.94 190.388 38.3373 192.571 40.1713C193.27 40.7826 193.881 41.656 193.881 42.0926C193.881 42.5293 191.611 46.634 188.903 51.1753C186.109 55.7166 183.314 60.4326 182.703 61.568C181.567 63.7513 181.48 63.7513 168.031 63.7513H154.581V55.804V47.944L160.957 48.1186L167.245 48.2933L166.983 45.7606C166.808 44.3633 166.546 43.1406 166.546 43.1406C166.459 43.0533 163.839 43.49 160.695 44.1886C157.551 44.8 153.359 45.4113 151.35 45.4113H147.595V59.996V74.668L168.205 74.4933L188.903 74.2313L194.318 64.7993C197.2 59.6466 199.907 54.6686 200.257 53.8826C200.519 53.0966 201.13 52.398 201.479 52.398C201.829 52.4853 204.973 57.376 208.291 63.402L214.405 74.3186L221.653 74.4933C225.583 74.5806 228.815 74.5806 228.815 74.406C228.815 74.2313 227.679 72.4846 226.369 70.476C223.225 65.8473 209.601 43.0533 209.601 42.442C209.601 41.8306 217.461 30.4773 219.47 28.1193C221.479 25.936 220.693 25.674 217.374 27.508ZM210.475 34.844C210.475 35.368 209.689 37.1146 208.641 38.774C206.457 42.5293 206.981 44.7126 212.134 52.8346C218.946 63.5766 222.614 70.214 222.177 70.9126C221.479 71.9606 217.985 71.786 216.326 70.476C215.54 69.952 212.833 65.76 210.213 61.2186C205.147 52.398 202.003 49.516 199.558 51.5246C198.772 52.136 195.977 56.4153 193.27 61.044C190.563 65.6726 187.768 69.8646 187.069 70.476C185.759 71.6113 154.319 72.1353 151.612 71.0873C150.477 70.6506 150.215 69.0786 150.302 61.6553C150.302 56.852 150.651 52.0486 151.088 51.088C151.612 49.8653 151.874 51.5246 151.874 56.066C151.961 66.1093 152.398 66.3713 168.467 66.3713C179.559 66.284 181.48 66.1093 183.139 64.712C186.458 61.9173 196.501 44.538 196.501 41.5686C196.501 39.036 196.851 38.774 202.877 36.5033C210.213 33.8833 210.475 33.796 210.475 34.844Z" fill="white"/>
<path d="M76.8545 42.3546C76.8545 42.5293 78.9505 46.1973 81.4832 50.3893C84.0158 54.5813 88.2078 61.83 90.8278 66.3713L95.4565 74.668H101.919H108.294V60.4326V46.2846H104.888C103.054 46.2846 100.26 46.0226 98.6878 45.6733L95.8058 45.1493L96.2425 50.1273C96.5045 52.8346 96.4172 55.28 96.1552 55.4546C95.8058 55.6293 94.3212 53.2713 92.6618 50.2146C89.8672 44.8 89.6925 44.6253 85.7625 44.1013C83.4918 43.752 80.6098 43.228 79.2998 42.7913C77.9025 42.3546 76.8545 42.18 76.8545 42.3546ZM86.8105 47.682C87.5965 47.944 89.6052 50.1273 91.2645 52.5726C95.3692 58.2493 97.7272 57.9 99.1245 51.2626C99.4738 49.516 100.085 48.9046 101.744 48.9046C102.88 48.9046 104.102 49.4286 104.539 49.9526C105.15 51.088 104.976 69.69 104.277 70.9126C103.578 71.9606 97.9018 71.1746 96.5918 69.8646C95.0198 68.118 83.8412 48.992 83.8412 47.944C83.8412 47.0706 84.8892 46.896 86.8105 47.682Z" fill="white"/>
<path d="M135.106 46.8086C134.844 47.0706 134.844 49.254 135.106 51.612C135.717 57.114 134.495 57.114 131.875 51.5246L129.866 47.158H123.753H117.727L119.823 50.3893C120.871 52.2233 124.626 58.3366 128.032 64.0133L134.233 74.406L139.123 74.4933L144.101 74.668V60.52V46.2846H139.909C137.551 46.2846 135.455 46.5466 135.106 46.8086ZM130.128 53.3586C133.796 57.4633 135.717 57.4633 137.202 53.5333C138.163 51.0006 139.647 49.6033 140.695 50.302C141.045 50.4766 141.394 54.9306 141.394 60.1706C141.481 68.5546 141.307 69.8646 139.997 70.5633C136.94 72.1353 134.757 70.1266 129.342 60.6946C126.46 55.542 124.277 51.0006 124.539 50.564C125.412 49.0793 126.809 49.778 130.128 53.3586Z" fill="white"/>
<path d="M96.0684 82.5298C96.0684 84.8005 96.505 86.4598 97.029 86.4598C97.6404 86.4598 97.815 85.5865 97.4657 84.2765C97.1164 83.0538 97.2037 82.0931 97.6404 82.0931C98.077 82.0931 98.9504 83.0538 99.5617 84.2765C101.396 87.6825 103.055 87.0711 103.055 83.0538C103.055 81.1325 102.706 79.2985 102.182 79.0365C101.658 78.6871 101.308 79.6478 101.308 81.1325C101.308 84.5385 100.086 84.6258 98.6884 81.2198C97.1164 77.4645 96.0684 77.9885 96.0684 82.5298Z" fill="white"/>
<path d="M105.675 82.5283C105.675 86.3709 105.675 86.4583 108.557 86.3709C111.177 86.1963 111.177 86.1963 108.993 85.8469C106.461 85.4976 105.587 83.8383 107.771 83.8383C108.469 83.8383 109.255 83.4889 109.517 83.0523C109.867 82.6156 109.255 82.4409 108.295 82.7029C105.937 83.3143 106.111 81.7423 108.557 80.0829L110.478 78.6856H108.12C105.762 78.5983 105.675 78.7729 105.675 82.5283Z" fill="white"/>
<path d="M112.486 79.646C113.097 80.2573 113.534 82.004 113.534 83.576C113.534 85.148 113.971 86.458 114.407 86.458C114.931 86.458 115.281 85.2353 115.281 83.838C115.281 82.3533 115.717 81.218 116.154 81.218C116.678 81.218 117.027 80.6067 117.027 79.908C117.027 79.0347 116.154 78.598 114.233 78.598C112.049 78.598 111.7 78.86 112.486 79.646Z" fill="white"/>
<path d="M124.015 82.4407C124.015 86.0213 124.189 86.458 126.023 86.458C127.595 86.458 127.683 86.2833 126.635 85.5847C125.849 85.0607 125.412 83.7507 125.587 82.1787C125.761 80.7813 125.499 79.384 124.975 79.0347C124.364 78.6853 124.015 79.908 124.015 82.4407Z" fill="white"/>
<path d="M130.478 79.7349C129.954 80.3463 129.517 82.0929 129.43 83.6649C129.342 86.2849 129.604 86.4596 132.137 86.3723C134.233 86.2849 134.408 86.1103 133.01 85.8483C131.875 85.6736 131.002 85.0623 131.002 84.6256C131.002 84.1889 131.875 83.8396 133.01 83.7523C134.844 83.7523 134.844 83.6649 132.748 82.7916L130.565 81.9183L132.574 80.9576C133.622 80.5209 134.495 79.7349 134.495 79.2983C134.495 78.2503 131.526 78.5123 130.478 79.7349Z" fill="white"/>
<path d="M138.512 82.0925C137.377 84.9745 137.289 86.0225 138.075 86.8085C138.861 87.5072 138.949 87.5072 138.512 86.6338C137.639 85.1492 140.346 84.2758 141.918 85.5858C144.101 87.3325 144.101 86.2845 142.005 82.1798L139.997 78.3372L138.512 82.0925Z" fill="white"/>
<path d="M146.984 79.2105C145.761 79.6472 145.412 83.9265 146.547 83.7519C148.119 83.4899 149.342 83.9265 149.342 84.7999C149.342 85.3239 148.556 85.5859 147.595 85.3239C146.634 85.0619 145.848 85.2365 145.848 85.6732C145.848 86.8085 150.04 86.6339 150.739 85.4985C151.088 84.8872 150.39 83.7519 149.254 82.8785C147.158 81.3065 147.158 81.3065 148.905 79.9965C150.215 79.0359 150.302 78.6865 149.342 78.6865C148.643 78.6865 147.508 78.9485 146.984 79.2105Z" fill="white"/>
<path d="M153.184 79.7349C152.66 80.3463 152.398 82.0929 152.66 83.6649C153.009 86.2849 153.271 86.4596 156.24 86.3723C157.987 86.2849 158.598 86.1103 157.638 85.8483C153.708 84.9749 153.184 84.4509 155.454 83.8396C156.852 83.4029 157.114 83.1409 156.153 83.0536C154.232 82.9663 154.057 80.3463 155.891 80.3463C156.59 80.3463 157.201 79.9096 157.201 79.4729C157.201 78.2503 154.319 78.4249 153.184 79.7349Z" fill="white"/>
<path d="M164.712 79.9973C164.45 80.7833 164.188 82.53 164.188 83.9273C164.188 86.198 164.45 86.46 167.07 86.3727C168.817 86.2853 169.166 86.1107 168.031 85.8487C166.721 85.5867 166.197 84.8007 166.11 82.9667C166.11 81.3073 166.459 80.3467 167.245 80.3467C167.944 80.3467 168.73 79.91 168.992 79.4733C169.254 78.9493 168.555 78.6 167.42 78.6C166.197 78.6 164.974 79.2113 164.712 79.9973Z" fill="white"/>
<path d="M171.524 79.9956C171.612 80.6942 172.31 81.7422 173.009 82.0916C173.97 82.7029 173.97 83.1396 173.096 84.0129C172.572 84.5369 172.048 85.6722 172.048 86.4582C172.136 87.5936 172.223 87.5936 173.184 86.2836C173.97 85.3229 174.756 85.0609 175.629 85.6722C177.725 86.9822 178.511 86.5456 177.026 84.8862C176.066 83.8382 175.891 82.9649 176.415 82.0916C176.852 81.3929 177.201 80.1702 177.201 79.4716C177.201 78.6856 176.764 78.9476 176.24 80.0829C175.018 82.5282 174.057 82.6156 173.358 80.3449C172.66 78.2489 171.262 77.9869 171.524 79.9956Z" fill="white"/>
<path d="M180.17 80.8688C179.122 82.5282 178.947 83.4888 179.646 84.5368C180.781 86.4582 185.759 87.5062 185.759 85.8468C185.759 85.1482 185.148 84.8862 184.362 85.1482C183.576 85.3228 182.44 85.2355 181.742 84.7988C180.17 83.7508 182.091 79.9955 183.925 80.6942C184.624 80.9562 185.148 80.6068 185.148 79.9082C185.148 77.7248 181.829 78.4235 180.17 80.8688Z" fill="white"/>
<path d="M187.768 82.528C187.768 84.7113 188.205 86.458 188.642 86.458C189.166 86.458 189.515 85.8467 189.515 85.148C189.515 83.314 192.834 83.4887 193.27 85.3227C193.532 86.196 193.707 84.886 193.707 82.528C193.707 79.384 193.532 78.7727 193.096 80.3447C192.31 83.052 190.039 83.2267 189.69 80.5193C189.166 77.026 187.768 78.5107 187.768 82.528Z" fill="white"/>
<path d="M205.321 82.528C205.234 84.7113 205.496 86.458 206.02 86.458C206.457 86.458 206.631 85.672 206.369 84.7113C206.107 83.7507 206.369 82.9647 206.893 82.9647C207.417 82.9647 208.291 83.7507 208.902 84.7113C210.561 87.3313 211.784 86.8073 211.697 83.576C211.435 78.7727 211.173 78.074 210.561 81.218L209.95 84.2747L208.203 81.48C207.33 79.908 206.282 78.598 206.02 78.598C205.758 78.598 205.496 80.3447 205.321 82.528Z" fill="white"/>
<path d="M216.588 79.5587C216.588 79.9953 216.239 80.2573 215.802 79.9953C214.58 79.2093 213.794 83.838 214.929 85.2353C215.453 85.934 217.025 86.458 218.422 86.458C220.344 86.458 220.955 86.0213 220.955 84.7113C220.955 83.576 220.431 82.9647 219.47 83.052C218.51 83.052 218.335 83.314 219.034 83.576C220.868 84.2747 220.169 85.7593 218.16 85.41C215.278 85.0607 215.278 80.7813 218.16 80.8687C219.208 80.8687 220.082 80.432 220.082 79.7333C220.082 79.122 219.296 78.598 218.335 78.598C217.374 78.598 216.588 79.0347 216.588 79.5587Z" fill="white"/>
<path d="M223.924 79.7333C223.4 80.3446 223.138 82.0913 223.4 83.6633C223.749 86.0213 224.098 86.458 226.107 86.3706H228.378L226.194 85.41L224.011 84.4493L226.194 83.838C227.592 83.4013 227.854 83.1393 226.893 83.052C226.02 82.9646 225.321 82.3533 225.321 81.5673C225.321 80.6066 225.845 80.2573 226.98 80.6066C228.203 80.8686 228.552 80.694 228.203 79.8206C227.679 78.336 225.234 78.2486 223.924 79.7333Z" fill="white"/>
<path d="M198.685 80.2573C198.947 80.694 198.51 81.6547 197.812 82.3533C196.327 83.9253 196.065 86.458 197.375 86.458C197.899 86.458 198.248 86.0213 198.248 85.5847C198.248 85.0607 198.86 84.7113 199.558 84.7113C200.257 84.7113 200.868 85.0607 200.868 85.5847C200.868 86.0213 201.48 86.458 202.178 86.458C202.877 86.458 203.488 86.0213 203.488 85.5847C203.488 85.0607 203.139 84.7113 202.702 84.7113C202.266 84.7113 201.742 83.4887 201.48 82.0913C201.13 80.5193 200.344 79.4713 199.558 79.4713C198.772 79.4713 198.336 79.8207 198.685 80.2573Z" fill="white"/>
</svg>
