<svg width="189" height="59" viewBox="0 0 189 59" fill="none" xmlns="http://www.w3.org/2000/svg">
<path d="M78.5608 6.73959C77.6158 7.62159 78.2458 7.93659 81.1438 7.81059C85.3018 7.62159 88.8298 9.7006 88.8298 12.3466C88.8298 13.7956 87.7588 14.4886 85.3018 14.4886C84.2308 14.4886 83.7898 14.1106 83.7898 13.2286C83.7898 11.8426 85.9948 11.4646 86.4988 12.7246C86.6878 13.2286 86.8768 13.1026 86.8768 12.4096C86.9398 11.6536 86.4358 11.3386 85.3648 11.3386C84.2938 11.3386 83.7898 10.9606 83.7898 10.2046C83.7268 9.1966 83.7268 9.1966 82.9078 10.2046C82.4668 10.8346 81.8368 11.3386 81.4588 11.3386C81.1438 11.3386 80.5768 11.6536 80.1988 12.0316C79.3798 12.8506 80.5768 14.4886 81.8368 14.4886C82.2148 14.4886 82.5298 14.8036 82.5298 15.1186C82.5298 16.3156 88.2628 15.6226 89.0818 14.3626C89.4598 13.7326 89.9638 13.2286 90.2788 13.2286C90.5308 13.2286 90.5938 13.4806 90.4048 13.8586C90.2158 14.1736 90.3418 14.4886 90.6568 14.4886C91.0348 14.4886 91.3498 13.7326 91.3498 12.7246C91.3498 11.5276 91.1608 11.2756 90.7828 11.9056C90.3418 12.5986 90.0898 12.4726 89.4598 11.2756C88.3258 9.0706 86.8768 7.87359 84.4828 7.05459C82.1518 6.23559 79.1908 6.04659 78.5608 6.73959Z" fill="white"/>
<path d="M90.5943 7.36952C89.3343 7.68452 89.0823 9.13352 90.1533 9.82652C91.1613 10.4565 93.8073 8.81852 93.4293 7.81052C93.1143 6.92852 92.5473 6.86552 90.5943 7.36952Z" fill="white"/>
<path d="M93.4287 10.7082C91.9167 11.3382 91.5387 12.2832 92.6097 12.9132C92.9877 13.1652 93.1137 13.5432 92.9247 13.8582C92.2317 14.9292 94.8777 14.8032 96.0747 13.7322C97.1457 12.7242 97.3347 12.7242 97.8387 13.5432C98.0907 14.1102 98.6577 14.2992 99.0357 14.1102C99.4137 13.8582 99.9177 14.1102 100.233 14.5512C100.611 15.2442 100.926 15.2442 101.556 14.6142C102.123 14.0472 102.123 13.8582 101.493 13.8582C100.863 13.8582 100.8 13.6692 101.367 13.0392C101.745 12.5352 101.871 11.9682 101.619 11.7792C101.43 11.5272 101.556 11.3382 101.934 11.3382C102.375 11.3382 102.69 11.0862 102.69 10.7082C102.69 9.6372 100.863 10.7712 100.422 12.1572C99.9807 13.4802 99.9177 13.4172 99.0987 11.6532L98.2167 9.7632L98.5947 11.6532C98.9727 13.4802 98.9727 13.4802 97.7127 12.3462C96.6417 11.3382 96.3897 11.3382 96.3897 12.0942C96.3897 12.7872 95.9487 12.9762 94.8147 12.7242C93.1137 12.4092 92.6097 11.3382 94.1847 11.3382C94.6887 11.3382 95.1297 11.0232 95.1297 10.7082C95.1297 10.3302 95.0667 10.0782 95.0037 10.1412C94.8777 10.1412 94.1847 10.3932 93.4287 10.7082Z" fill="white"/>
<path d="M105.021 12.2209C104.076 13.2919 103.95 13.3549 104.202 12.4099C104.391 11.7169 104.328 11.4649 103.95 11.6539C103.572 11.8429 103.32 12.7249 103.32 13.6069C103.32 14.4889 103.005 15.7489 102.69 16.3789C102.249 17.1979 102.249 17.7019 102.69 17.9539C103.068 18.2059 103.635 17.5129 104.013 16.5049C104.391 15.4339 105.21 14.4889 105.903 14.2999C106.596 14.1109 107.1 13.4179 107.1 12.7249C107.1 10.8349 106.344 10.6459 105.021 12.2209Z" fill="white"/>
<path d="M19.719 14.0477C13.986 16.5677 10.458 20.9777 9.63902 26.7737C9.19802 30.4277 9.70202 30.3647 10.962 26.7107C12.033 23.4347 14.49 19.9697 16.569 18.5837C17.325 18.0797 19.215 17.5127 20.727 17.3237C22.176 17.1347 23.688 16.8197 24.003 16.6307C24.318 16.4417 26.586 16.5047 28.98 16.7567C32.697 17.1347 33.831 17.5127 36.225 19.4027C39.312 21.7967 40.32 24.1277 40.32 29.0417C40.32 32.6327 38.682 34.9637 35.028 36.6017C31.374 38.2397 28.602 38.1137 26.775 36.2237C25.074 34.5857 24.696 31.6877 26.019 31.1207C26.46 30.9947 27.909 31.2467 29.169 31.8137C32.508 33.1997 34.335 33.0107 35.532 31.1837C36.855 29.1047 36.792 26.8997 35.28 23.9387C33.579 20.6627 30.87 19.2767 27.153 19.7177C20.979 20.5367 19.404 21.3557 14.679 26.0807C10.836 29.9867 10.143 31.0577 9.76502 33.5147C8.56802 41.2637 18.207 48.0677 28.98 47.0597C30.933 46.8707 33.39 46.3037 34.398 45.7997C36.54 44.6657 42.399 39.6257 41.958 39.2477C41.832 39.1217 40.005 39.8777 37.863 40.8857C32.76 43.5317 28.224 44.4767 25.263 43.5317C24.003 43.2167 21.735 41.5787 20.223 40.0667C17.64 37.4837 17.388 36.8537 17.136 33.5147C16.695 27.0257 19.719 22.8047 25.641 21.6707C28.413 21.1037 31.248 22.3637 32.76 24.8837C35.406 29.2307 33.453 31.8767 30.114 28.4117C29.043 27.3407 27.657 26.4587 26.964 26.4587C25.452 26.4587 22.05 29.7347 21.987 31.3097C21.672 35.9087 23.31 37.8617 28.728 39.4367C36.225 41.5787 43.974 37.1057 46.053 29.3567C46.683 27.0257 46.62 26.4587 45.108 23.6237C44.226 21.8597 42.21 19.1507 40.698 17.5757C38.304 14.9927 37.422 14.4887 33.516 13.6067C27.468 12.2207 23.625 12.3467 19.719 14.0477ZM28.98 14.4887C29.673 14.9297 29.358 15.1187 27.594 15.1187C26.334 15.1187 25.074 14.8037 24.885 14.4887C24.381 13.6697 27.72 13.6697 28.98 14.4887ZM40.761 20.2847C42.588 22.4267 44.73 26.1437 44.73 27.3407C44.73 27.9077 44.226 29.2937 43.659 30.4277L42.588 32.4437L41.832 27.2147C41.265 23.3087 40.698 21.5447 39.627 20.4107C38.871 19.5917 38.493 18.8987 38.871 18.8987C39.186 18.8987 40.068 19.5287 40.761 20.2847ZM15.183 31.2467C14.931 34.5857 16.128 38.7437 17.766 40.5707C18.963 41.8307 19.215 42.8387 18.459 42.8387C17.262 42.8387 13.23 39.3107 12.348 37.5467C11.151 35.0267 11.592 31.4987 13.356 29.6717C15.12 27.7187 15.498 28.0337 15.183 31.2467Z" fill="white"/>
<path d="M94.5625 18.2048C94.1215 18.5198 93.2395 18.6458 92.6725 18.4568C91.0345 18.0788 82.3405 19.9688 79.1905 21.4178C75.8515 22.9928 75.2215 24.2528 78.1825 23.6228L80.0725 23.1818L77.5525 28.2848C75.3475 32.6318 74.9695 33.9548 74.9695 37.3568C74.9695 42.0188 75.9145 43.6568 79.1905 44.7908C83.6005 46.2398 95.7595 44.2238 96.6415 41.8298C97.0195 40.7588 96.4525 40.6958 94.1215 41.5778C91.2865 42.6488 84.1045 42.5228 82.2775 41.3888C80.3875 40.1288 79.1275 36.2858 80.0725 34.5848C80.5765 33.5768 86.9395 29.7968 86.9395 30.4268C86.9395 31.0568 94.1215 29.1668 94.3735 28.4738C94.6885 27.5288 92.4205 27.8438 85.4905 29.7338C82.8445 30.4898 80.4505 30.8678 80.2615 30.6788C79.7575 30.1748 81.1435 26.1428 82.6555 23.6228C83.6005 21.9218 84.2935 21.4808 86.8765 21.1658C88.7665 20.9138 91.6645 21.1658 94.4995 21.7328C98.2165 22.4888 99.2245 22.5518 99.6655 21.9218C100.547 20.4728 100.169 19.7798 97.9645 18.7088C95.3815 17.4488 95.6965 17.5118 94.5625 18.2048ZM79.3795 31.9388C79.3795 32.2538 78.7495 33.2618 78.0565 34.3328C77.3005 35.3408 76.9225 35.7188 77.1115 35.0888C77.3005 34.4588 77.4895 33.3878 77.4895 32.6948C77.4895 32.0648 77.9305 31.4978 78.4345 31.4978C78.9385 31.4978 79.3795 31.6868 79.3795 31.9388Z" fill="white"/>
<path d="M141.876 18.7087C141.75 20.6617 141.624 27.4027 141.75 28.0327C142.128 29.7337 141.687 34.6477 141.183 34.6477C140.931 34.6477 139.671 33.1357 138.474 31.3087C133.119 23.3707 128.772 20.1577 123.354 20.1577H121.527L123.48 22.1737L125.433 24.2527L125.244 34.0177C125.181 39.3727 125.307 44.1607 125.559 44.6017C126.378 45.7987 127.386 44.7907 127.26 42.9637C127.197 42.0187 127.134 38.9317 127.197 36.0337C127.26 30.6787 127.701 29.9227 129.78 31.8127C130.41 32.3797 132.111 33.4507 133.623 34.2067C136.08 35.4037 138.663 38.1757 140.868 41.9557C141.309 42.5857 141.75 43.0267 141.939 42.8377C142.506 42.3337 143.64 29.1037 143.64 23.1817C143.64 18.9607 143.451 17.6377 142.821 17.6377C142.317 17.6377 141.939 18.1417 141.876 18.7087ZM131.733 25.6387C134.568 28.2847 138.033 33.3877 136.962 33.3877C136.773 33.3877 134.379 32.3167 131.607 30.9937L126.63 28.6627V25.6387C126.63 21.7957 127.575 21.7957 131.733 25.6387Z" fill="white"/>
<path d="M160.65 18.2048C160.65 18.5198 161.217 18.8978 161.847 19.0868C162.477 19.2128 163.359 19.9688 163.737 20.6618C164.304 21.7328 163.989 22.4888 161.658 25.6388C160.146 27.6548 158.319 30.4268 157.626 31.8128C156.303 34.4588 154.539 43.8458 155.232 44.5388C155.421 44.7908 156.429 44.6648 157.374 44.3498C158.697 43.9088 159.138 43.2158 159.39 41.5778C159.642 39.6878 160.335 38.9948 164.304 36.3488C166.824 34.7108 169.155 33.5138 169.47 33.7028C169.848 33.8918 170.1 34.8368 170.163 35.7818C170.163 37.7348 172.62 42.9638 173.628 43.2788C174.006 43.4048 175.077 42.9008 176.022 42.1448C177.534 40.9478 177.66 40.6958 176.841 39.4358C176.337 38.7428 175.455 36.5378 174.825 34.6478C171.927 25.6388 166.131 17.6378 162.54 17.6378C161.532 17.6378 160.65 17.8898 160.65 18.2048ZM168.21 25.0718C168.21 25.8278 167.958 25.8278 166.95 24.8828C166.257 24.2528 165.69 23.3078 165.69 22.8038C165.69 22.0478 165.942 22.0478 166.95 22.9928C167.643 23.6228 168.21 24.5678 168.21 25.0718ZM167.391 27.8438C168.462 29.7338 168.651 30.6158 168.147 31.2458C167.202 32.4428 160.902 36.5378 160.083 36.5378C159.075 36.5378 159.264 34.2068 160.461 31.6238C161.406 29.4188 164.871 25.1978 165.627 25.1978C165.879 25.1978 166.635 26.3948 167.391 27.8438ZM170.73 29.4188C170.73 30.0488 171.171 31.1198 171.675 31.7498C172.683 33.0728 172.935 35.2778 172.116 35.2778C171.801 35.2778 171.234 34.6478 170.856 33.8288C169.974 32.0018 169.533 28.3478 170.226 28.3478C170.478 28.3478 170.73 28.8518 170.73 29.4188Z" fill="white"/>
<path d="M56.1326 20.8524C50.7146 23.3724 48.8876 25.3254 48.1316 29.4834C46.8086 36.3504 55.0616 45.3594 62.6216 45.3594C68.6696 45.3594 74.6546 41.6424 72.3236 39.3114C71.4416 38.4294 71.2526 38.5554 70.0556 40.5714C68.4806 43.1544 65.7086 44.1624 62.4326 43.2804C58.9046 42.3354 57.2036 40.8864 55.6916 37.3584C53.9276 33.3894 53.8016 30.3654 55.1876 27.5304C56.5736 24.8214 60.9836 20.6004 62.1176 21.0414C62.5586 21.2304 63.1256 21.1674 63.2516 20.8524C64.3226 19.1514 71.8196 22.0494 71.8196 24.1914C71.8196 24.6954 72.2606 25.1994 72.7646 25.4514C73.9616 25.8924 73.9616 25.8294 72.3866 22.8054C70.8116 19.9074 69.1106 19.0884 63.8816 18.7104C61.9286 18.5844 59.9756 19.0884 56.1326 20.8524ZM54.0536 25.9554C52.9196 28.0974 52.6676 29.6094 52.7306 33.3264L52.7936 37.9884L51.5336 35.9724C50.7776 34.8384 50.0846 32.5704 49.9586 30.9954C49.7066 28.4124 49.8956 27.7194 51.6596 25.6404C54.4946 22.3014 55.8806 22.4904 54.0536 25.9554Z" fill="white"/>
<path d="M106.659 18.7734C106.155 19.0884 106.47 19.7184 107.793 20.7264C108.801 21.5454 109.62 22.5534 109.62 22.9314C109.62 23.3724 108.486 24.8214 107.037 26.1444C103.446 29.6724 100.926 33.4524 99.4771 37.6104C98.3431 40.9494 97.8391 45.3594 98.5951 45.3594C99.9181 45.3594 102.627 43.2804 102.942 42.0204C103.194 40.8864 104.58 39.9414 108.234 38.2404C113.589 35.7204 114.66 35.4684 114.66 36.7914C114.66 37.2954 115.29 39.2484 115.983 41.2014C117.495 45.1074 118.755 45.6744 121.464 43.5954L122.913 42.4614L121.464 38.9964C120.645 37.1064 119.574 34.3344 119.07 32.7594C117.873 28.7904 113.085 21.5454 110.88 20.2854C109.872 19.7184 108.99 19.0254 108.99 18.7104C108.99 18.1434 107.604 18.1434 106.659 18.7734ZM113.589 25.5144C114.219 26.3964 114.534 27.4044 114.282 27.8454C114.03 28.2864 114.093 28.3494 114.534 28.0974C114.912 27.9084 115.542 28.2864 115.92 28.9794C116.298 29.6724 116.424 30.2394 116.172 30.2394C115.983 30.2394 116.046 30.6174 116.424 30.9954C116.739 31.4364 117.243 32.8224 117.495 34.0194C117.747 35.2164 118.188 36.4764 118.44 36.8544C119.133 37.8624 119.763 40.9494 119.259 40.9494C118.503 40.9494 115.29 35.4054 115.29 34.0824C115.29 31.9404 113.274 27.0264 112.077 26.2704C111.384 25.8294 110.88 25.1994 110.88 24.7584C110.88 23.4354 112.392 23.8764 113.589 25.5144ZM111.51 26.7744C111.51 26.9004 112.077 28.4124 112.707 30.1764L113.967 33.2634L108.801 36.1614C105.777 37.8624 103.446 38.8074 103.131 38.4924C102.249 37.6104 104.832 32.4444 107.793 29.2944C110.124 26.7744 111.51 25.8294 111.51 26.7744Z" fill="white"/>
<path d="M145.467 19.7806C145.971 20.4106 146.286 24.5056 146.349 32.3806L146.475 44.0986H149.814C152.334 44.0986 153.027 43.9096 152.649 43.2796C152.397 42.9016 152.019 37.4836 151.83 31.3096C151.452 18.8986 151.515 18.8986 147.168 18.8986C145.152 18.8986 144.9 19.0246 145.467 19.7806ZM149.688 31.1206C149.436 35.6566 149.121 39.4996 148.932 39.6256C148.806 39.7516 148.68 39.1846 148.617 38.3656C148.617 37.5466 148.428 34.8376 148.239 32.4436C147.735 26.3326 147.735 23.1826 148.302 21.7336C148.743 20.5366 148.806 20.5366 149.436 21.6706C149.877 22.4266 149.94 25.6396 149.688 31.1206Z" fill="white"/>
</svg>
