<svg width="198" height="90" viewBox="0 0 198 90" fill="none" xmlns="http://www.w3.org/2000/svg">
<path d="M3.09375 44.8601V85.5944H35.0625C52.6969 85.5944 67.2375 85.6976 67.5469 85.8007C68.0625 86.1101 68.475 51.2538 68.1656 22.8944L68.0625 4.12569H35.5781H3.09375V44.8601ZM67.2375 25.9882C67.3406 36.9194 67.4438 54.5538 67.2375 65.1757L66.825 84.5632H36.0938H5.3625L4.74375 82.1913C3.7125 78.2726 4.02188 47.6444 5.15625 46.9226C5.87813 46.5101 6.1875 52.5944 6.1875 64.3507V82.5007H36.0938H66V67.5476V52.4913L63.9375 54.4507C62.7 55.5851 59.8125 57.3382 57.4406 58.3694C55.0688 59.4007 52.5938 60.9476 51.8719 61.8757C49.8094 64.5569 48.1594 61.5663 46.2 51.7694C43.8281 39.4976 43.8281 34.9601 46.5094 31.5569C47.6438 30.1132 49.2938 28.8757 50.1188 28.8757C50.9438 28.8757 51.5625 27.9476 51.5625 26.8132C51.5625 25.6788 52.0781 24.7507 52.5938 24.7507C53.2125 24.7507 53.625 25.8851 53.625 27.3288C53.625 28.7726 54.2438 29.9069 55.0688 29.9069C55.7906 29.9069 58.575 31.7632 61.2563 34.1351L66 38.3632V22.9976V7.73507H36.0938H6.1875V20.9351V34.0319L10.725 29.2882C17.1188 22.5851 18.8719 23.2038 19.6969 32.4851C20.0063 36.5069 20.3156 38.4663 20.4188 36.9194C20.5219 35.3726 21.1406 32.8976 21.7594 31.2476C22.7906 28.5663 22.8938 28.4632 24.2344 30.2163C24.9563 31.2476 25.8844 34.9601 26.2969 38.4663C27.225 47.7476 28.875 55.6882 29.9063 55.6882C30.3188 55.6882 31.9688 50.3257 33.5156 43.7257C36.4031 31.2476 38.4656 28.7726 38.8781 37.2288C39.3938 45.5819 41.4563 58.2663 42.7969 61.5663C44.0344 64.4538 44.7563 64.9694 47.85 64.9694C49.8094 64.9694 51.7688 64.4538 52.0781 63.9382C53.0063 62.3913 54.6563 62.7007 54.6563 64.3507C54.6563 66.5163 48.7781 68.5788 45.5813 67.4444C41.5594 66.1038 39.2906 60.5351 37.8469 48.7788L36.6094 38.6726L35.2688 45.7882C33.825 53.2132 31.5563 58.7819 29.9063 58.7819C27.9469 58.7819 25.7813 52.5944 24.4406 42.6944L23.1 32.4851L21.8625 39.7038C21.2438 43.6226 20.3156 50.1194 19.9031 53.9351C18.8719 62.5976 17.0156 62.5976 17.0156 53.8319V47.4382H13.6125C11.7563 47.4382 8.76563 46.7163 7.0125 45.7882C4.02188 44.2413 3.91875 43.9319 4.64062 39.9101C5.05313 37.5382 5.25938 35.0632 5.15625 34.5476C4.64063 31.1444 4.02188 8.97257 4.5375 7.63194C4.95 6.39444 10.0031 6.18819 35.9906 6.18819H66.825L67.2375 25.9882ZM61.6688 11.5507C63.1125 12.9944 63.4219 28.4632 62.0813 29.2882C61.5656 29.5976 59.4 28.2569 57.2344 26.2976C55.0687 24.3382 52.8 22.6882 52.1813 22.6882C51.4594 22.6882 48.8813 24.7507 46.4063 27.3288C42.1781 31.6601 41.7656 31.8663 39.6 30.5257C37.7438 29.1851 37.125 29.1851 35.3719 30.4226C34.2375 31.2476 32.6906 33.3101 31.9688 35.0632C30.525 38.5694 28.875 37.6413 28.875 33.4132C28.875 31.0413 23.2031 24.8538 18.975 22.5851C16.8094 21.4507 15.8813 21.5538 12.8906 22.9976L9.28125 24.7507V18.1507C9.28125 13.8194 9.69375 11.3444 10.6219 11.0351C11.2406 10.7257 22.7906 10.4163 36.1969 10.4163C53.7281 10.3132 60.7406 10.6226 61.6688 11.5507ZM12.8906 54.1413C13.2 55.5851 13.6125 57.8538 13.9219 59.2976C14.2313 60.6382 15.3656 62.2882 16.6031 62.9069C18.3563 63.8351 19.0781 63.5257 21.3469 60.9476L24.1313 57.7507L26.6063 60.1226C28.9781 62.2882 29.0813 62.2882 32.175 60.5351C35.475 58.6788 37.0219 59.2976 37.125 62.5976C37.125 63.3194 38.775 65.4851 40.7344 67.5476C45.5813 72.2913 50.325 72.4976 54.7594 68.1663C56.4094 66.5163 57.75 64.4538 57.75 63.6288C57.75 62.1851 59.8125 60.8444 61.9781 60.8444C62.5969 60.8444 62.9063 64.5569 62.7 69.8163L62.3906 78.8913H36.0938H9.79688L9.4875 65.1757C9.28125 53.6257 9.4875 51.5632 10.8281 51.5632C11.6531 51.5632 12.5813 52.6976 12.8906 54.1413Z" fill="white"/>
<path d="M12.6844 30.1117C9.59062 33.5148 6.1875 39.393 6.1875 41.4555C6.1875 43.7242 7.11562 44.2398 12.7875 44.9617L17.5312 45.6836V36.7117C17.5312 27.018 16.6031 25.8836 12.6844 30.1117Z" fill="white"/>
<path d="M48.7778 32.2781C48.1591 32.8969 47.4372 34.4437 47.0247 35.5781C46.0966 37.95 49.3966 57.75 50.7372 57.75C51.8716 57.75 51.7685 32.2781 50.6341 31.5562C50.1185 31.2469 49.2935 31.5562 48.7778 32.2781Z" fill="white"/>
<path d="M53.4191 44.8594C53.2128 51.975 53.2128 57.75 53.4191 57.75C54.5535 57.75 62.391 53.1094 63.9378 51.5625C67.1347 48.3656 66.6191 43.1062 62.8035 38.6719C60.9472 36.6094 58.1628 34.2375 56.616 33.5156L53.7285 31.9687L53.4191 44.8594ZM61.8753 45.375C61.8753 48.2625 60.2253 50.5312 58.0597 50.5312C56.616 50.5312 56.1003 41.25 57.441 39.9094C58.6785 38.6719 61.8753 42.5906 61.8753 45.375Z" fill="white"/>
<path d="M118.594 31.7622C116.325 32.381 114.469 35.1653 114.469 37.7435C114.469 38.981 116.325 42.4872 118.594 45.4778C123.131 51.5622 123.44 52.6966 121.069 55.1716C118.8 57.3372 116.428 56.8216 114.675 53.6247L113.334 51.0466L113.644 54.1403C113.953 56.8216 114.469 57.2341 117.15 57.5435C124.472 58.2653 126.122 50.4278 120.037 43.2091C117.562 40.2185 116.531 38.0528 116.737 36.1966C117.15 32.8966 120.45 31.9685 122.409 34.6497C123.647 36.4028 123.75 36.4028 123.75 34.3403C123.75 32.1747 121.275 30.9372 118.594 31.7622Z" fill="white"/>
<path d="M186.862 32.4836C183.356 35.0618 183.872 40.0118 188.203 45.0649C192.019 49.6024 192.844 53.5211 190.266 55.6868C188.306 57.3368 185.831 56.3055 184.594 53.418C183.666 51.2524 183.666 51.2524 183.872 54.1399C184.078 56.718 184.594 57.3368 186.966 57.543C190.987 58.0586 193.875 55.1711 193.875 50.943C193.875 48.468 192.741 46.3024 189.75 42.7961C185.109 37.4336 185.212 37.743 186.656 34.9586C187.997 32.4836 191.4 32.3805 192.741 34.7524C193.669 36.4024 193.772 36.4024 193.875 34.2368C193.875 32.9993 193.462 31.968 192.947 31.968C192.431 31.968 191.4 31.7618 190.575 31.4524C189.853 31.143 188.203 31.6586 186.862 32.4836Z" fill="white"/>
<path d="M78.1682 32.6899C78.9932 32.9993 79.4057 36.5055 79.4057 44.8586C79.4057 53.2118 78.9932 56.718 78.1682 57.0274C77.4463 57.3368 78.4776 57.543 80.437 57.543C82.3963 57.543 83.4276 57.3368 82.8088 57.0274C81.9838 56.718 81.4682 54.5524 81.4682 51.4586C81.4682 47.2305 81.7776 46.4055 83.3245 46.4055C84.4588 46.4055 86.1088 48.0555 87.5526 50.5305C90.6463 55.9961 92.5026 57.7493 95.1838 57.6461C97.4526 57.6461 97.4526 57.543 95.3901 56.6149C94.2557 55.9961 91.987 53.5211 90.337 50.943C87.5526 46.5086 87.4495 46.3024 89.0995 42.7961C91.0588 38.6711 90.4401 34.443 87.6557 32.9993C86.6245 32.3805 83.737 31.968 81.262 32.0711C78.787 32.0711 77.4463 32.3805 78.1682 32.6899ZM87.4495 36.4024C89.4088 40.5274 87.862 44.7555 84.2526 45.168C81.4682 45.4774 81.4682 45.4774 81.4682 39.1868C81.4682 33.2055 81.5713 32.8961 83.737 33.2055C85.0776 33.4118 86.7276 34.7524 87.4495 36.4024Z" fill="white"/>
<path d="M98.7934 33.2055C100.547 34.9586 100.443 54.8617 98.7934 56.6149C97.659 57.6461 98.5872 57.8524 103.125 57.543C107.868 57.3367 108.797 56.9242 109.106 55.1711C109.312 53.9336 109.106 53.5211 108.59 54.3461C107.765 55.4805 105.806 55.9961 103.434 55.7899C102.506 55.6867 102.093 53.8305 102.093 50.0149C102.093 45.2711 102.403 44.343 103.95 44.343C104.981 44.343 106.322 44.8586 107.043 45.5805C107.972 46.5086 108.281 46.3024 108.281 44.7555C108.281 43.0024 107.765 42.693 105.187 43.1055C102.093 43.518 102.093 43.518 102.093 38.2586C102.093 33.7211 102.403 32.9992 104.156 32.9992C105.187 32.9992 106.631 33.8242 107.147 34.7524C108.075 36.4024 108.178 36.4024 108.281 34.2367C108.281 32.1742 107.765 31.968 102.918 31.968C98.7934 31.968 97.8653 32.2774 98.7934 33.2055Z" fill="white"/>
<path d="M128.701 33.2062C129.423 33.9281 129.938 37.8469 129.938 43.4156C129.938 54.1406 131.898 57.75 137.569 57.75C143.344 57.75 144.788 54.9656 145.304 43.4156C145.51 37.5375 146.129 33.2062 146.851 32.7937C147.469 32.3812 146.335 32.0719 144.376 32.0719C142.416 32.0719 141.385 32.3812 142.107 32.6906C144.066 33.4125 143.757 51.4594 141.694 54.45C139.735 57.2344 136.744 57.3375 134.063 54.6562C132.31 52.9031 132.001 51.2531 132.001 42.9C132.001 36.0937 132.413 33 133.341 32.6906C133.96 32.3812 132.929 32.0719 131.073 32.0719C128.288 31.9687 127.773 32.2781 128.701 33.2062Z" fill="white"/>
<path d="M152.418 32.6895C153.243 32.9989 153.656 36.2989 153.656 44.2395C153.656 51.6645 153.243 55.6864 152.418 56.6145C151.284 57.6457 152.315 57.7489 157.265 57.5426C162.421 57.3364 163.453 56.9239 163.762 55.2739C164.175 53.4176 164.071 53.3145 162.421 54.9645C160.565 56.9239 159.843 57.027 157.368 56.0989C156.028 55.5832 155.718 53.5207 155.718 44.3426C155.718 36.402 156.131 32.9989 157.059 32.6895C157.678 32.3801 156.646 32.1739 154.687 32.1739C152.728 32.1739 151.696 32.3801 152.418 32.6895Z" fill="white"/>
<path d="M163.66 34.1346C163.247 35.5783 163.454 35.9908 164.279 35.2689C165 34.7533 166.754 34.0314 168.404 33.6189L171.188 33.0002V44.7564C171.188 53.2127 170.775 56.7189 169.95 57.0283C169.229 57.3377 170.26 57.6471 172.219 57.6471C174.9 57.7502 175.416 57.4408 174.488 56.5127C173.663 55.6877 173.25 51.4596 173.25 44.1377V33.0002L176.138 33.6189C177.685 34.0314 179.232 34.8564 179.644 35.4752C180.16 36.0939 180.469 35.5783 180.469 34.2377C180.469 32.0721 180.057 31.9689 172.322 31.9689C165 31.9689 164.175 32.1752 163.66 34.1346Z" fill="white"/>
<path d="M119.316 68.7856C117.254 69.6106 115.5 70.745 115.5 71.3637C115.5 71.8793 116.532 71.57 117.769 70.745C121.585 68.0637 122.719 68.5793 121.585 72.395C121.069 74.2512 120.76 76.7262 120.76 77.8606C120.863 78.995 121.482 77.6543 122.1 74.7668C122.925 71.2606 123.957 69.5075 125.194 69.3012C127.463 68.7856 129.938 70.8481 129.938 73.1168C129.938 77.2418 120.45 82.3981 118.491 79.3043C117.769 78.17 117.563 78.17 117.563 79.2012C117.563 82.6043 124.472 81.7793 128.288 78.0668C131.072 75.2825 133.032 75.4887 132.207 78.5825C131.794 80.4387 131.897 80.5418 133.857 79.5106C136.229 78.2731 137.775 76.3137 136.435 76.3137C135.919 76.3137 134.888 76.9325 134.166 77.5512C133.444 78.2731 132.929 78.3762 133.032 77.8606C133.547 75.695 133.032 74.1481 132 74.7668C131.485 75.0762 130.969 74.5606 130.969 73.5293C130.866 68.6825 125.297 66.4137 119.316 68.7856Z" fill="white"/>
<path d="M145.407 71.3622C143.757 73.631 142.313 76.106 142.313 76.7247C142.313 77.3435 142.932 76.931 143.551 75.7966C144.994 73.0122 149.738 68.0622 150.769 68.0622C151.182 68.0622 151.594 69.6091 151.594 71.4653C151.594 74.3528 151.079 75.1778 147.985 76.6216C145.923 77.5497 143.551 78.3747 142.623 78.3747C141.385 78.3747 141.179 78.6841 142.004 79.5091C142.726 80.231 144.169 79.9216 146.748 78.3747C151.698 75.4872 152.935 77.5497 148.604 81.4685C145.201 84.6653 144.169 88.3778 147.057 87.2435C147.985 86.9341 148.81 86.6247 149.119 86.6247C149.326 86.6247 150.46 84.7685 151.594 82.3966C153.348 79.0966 154.173 78.3747 155.823 78.8903C158.607 79.8185 163.763 74.2497 163.763 70.4341C163.763 67.856 163.66 67.7528 162.319 69.6091C161.494 70.6403 160.876 72.2903 160.876 73.2185C160.876 75.5903 157.163 78.9935 156.544 77.1372C156.132 76.106 155.719 76.106 154.276 77.2403C152.626 78.6841 152.419 78.4778 152.626 74.1466C152.935 67.3403 152.832 67.031 150.563 67.031C149.326 67.031 147.263 68.7841 145.407 71.3622Z" fill="white"/>
<path d="M166.135 72.394C165.413 74.5596 163.66 77.1378 162.319 78.2721C160.875 79.4065 160.256 80.5409 160.772 80.8503C161.288 81.2628 162.113 80.9534 162.422 80.3346C162.835 79.819 163.866 79.5096 164.691 79.819C165.516 80.1284 165.928 80.0253 165.619 79.5096C165.31 78.994 165.722 76.8284 166.65 74.7659C167.475 72.7034 167.991 70.4346 167.785 69.8159C167.578 69.094 166.856 70.3315 166.135 72.394Z" fill="white"/>
<path d="M103.537 75.7981C103.64 81.4699 105.703 82.8106 107.868 78.5824L109.003 76.2106L109.622 78.5824C110.034 79.8199 110.55 80.5418 110.859 80.2324C111.684 79.5106 109.622 75.2824 108.487 75.3856C105.806 75.7981 104.259 74.9731 103.847 72.9106C103.537 71.6731 103.434 72.9106 103.537 75.7981Z" fill="white"/>
</svg>
