<svg width="172" height="73" viewBox="0 0 172 73" fill="none" xmlns="http://www.w3.org/2000/svg">
<path d="M88.9537 6.49793C88.5108 6.79321 86.5915 9.08163 84.6722 11.5915C81.2027 16.1683 81.1289 16.2421 80.9812 22.5168C80.9074 25.9863 80.9812 28.7915 81.2765 28.7915C81.498 28.7915 83.4173 26.2816 85.558 23.255C87.625 20.2284 89.6919 17.7185 90.061 17.7185C90.4301 17.7185 92.6447 20.376 95.007 23.6241L99.2885 29.6035L99.51 23.255L99.7314 16.9803L96.2619 12.3297C91.6113 6.20266 90.504 5.31682 88.9537 6.49793ZM94.0473 13.5108C95.5237 15.6516 96.7048 18.1615 96.7048 19.1211C96.7048 20.819 96.7048 20.819 94.1211 18.5306C90.7992 15.6516 89.0276 15.6516 86.3701 18.4567C83.8602 21.1142 83.4173 21.1881 83.4173 18.9735C83.4173 16.3898 88.5108 9.59836 90.504 9.59836C90.9469 9.59836 92.5709 11.37 94.0473 13.5108Z" fill="white"/>
<path d="M71.6062 27.6106V33.8115L75.5186 38.8312C77.9547 42.0055 79.9478 43.9248 80.8337 43.9248C81.7195 43.9248 83.7126 42.0055 86.1487 38.8312L90.0611 33.8115V27.6106C90.0611 24.2149 89.9873 21.4098 89.8397 21.4098C89.7659 21.4098 87.8465 23.9197 85.7058 26.9463C83.4912 29.9729 81.3504 32.4827 80.8337 32.4827C80.3169 32.4827 78.1762 29.9729 75.9616 26.9463C73.8208 23.9197 71.9015 21.4098 71.8277 21.4098C71.68 21.4098 71.6062 24.2149 71.6062 27.6106ZM77.2903 32.4827C80.3908 35.2879 81.2766 35.2141 84.5247 32.4089C86.0011 31.0802 87.3298 30.2682 87.6251 30.4896C88.3633 31.2278 86.5178 34.845 83.7865 38.0192C81.7933 40.3815 81.0551 40.8244 80.0955 40.2338C77.5856 38.6836 72.6397 30.2682 74.2637 30.2682C74.4852 30.2682 75.8877 31.2278 77.2903 32.4827Z" fill="white"/>
<path d="M128.742 49.0197C128.151 50.5699 129.702 52.4154 131.104 51.8987C132.581 51.3081 132.064 48.4292 130.44 48.1339C129.775 47.9862 128.963 48.4292 128.742 49.0197Z" fill="white"/>
<path d="M139.519 48.5023C138.043 49.0929 137.305 50.274 137.305 52.2671C137.305 53.153 136.788 54.1126 136.197 54.3341C135.607 54.6294 135.09 55.2199 135.09 55.8105C135.09 56.401 135.607 56.8439 136.197 56.8439C137.083 56.8439 137.305 57.8774 137.305 62.0113C137.305 66.662 137.452 67.1787 138.781 67.1787C140.11 67.1787 140.257 66.662 140.257 62.0113C140.257 57.3607 140.405 56.8439 141.734 56.8439C142.694 56.8439 143.21 56.3272 143.21 55.3676C143.21 54.3341 142.767 53.8912 141.955 54.0388C141.069 54.1864 140.627 53.8173 140.627 52.7839C140.627 51.8242 141.217 51.2336 142.324 51.086C144.613 50.7169 144.613 47.9856 142.324 48.0594C141.365 48.0594 140.11 48.2809 139.519 48.5023Z" fill="white"/>
<path d="M20.4489 49.5355C18.4558 50.3475 17.3485 52.5621 17.8652 55.1458C18.0867 56.3269 19.3416 57.1389 25.7639 60.0917C28.6429 61.4204 29.3073 63.1183 27.6833 65.0376C26.4283 66.3664 25.6901 66.5878 21.9991 66.2187C16.9794 65.7758 16.2412 66.8831 20.9657 67.5475C25.1734 68.2119 28.1262 67.2522 29.5287 64.7423C30.4884 62.9706 30.4884 62.6754 29.0858 60.8299C28.2738 59.7226 26.133 58.2462 24.2875 57.6556C19.7845 56.0316 19.194 55.5887 19.194 53.5217C19.194 50.938 21.5562 49.9046 26.133 50.5689C28.5691 50.8642 29.6026 50.7904 29.1596 50.3475C27.9785 49.1664 22.7373 48.7234 20.4489 49.5355Z" fill="white"/>
<path d="M33.5891 57.9522C33.5891 65.2603 33.8106 67.1796 34.6226 67.1796C35.287 67.1796 35.4346 66.6629 35.1393 65.4079C34.844 64.3007 35.1393 63.2672 36.0252 62.529C37.2801 61.4217 37.4277 61.4217 38.535 63.341C39.9376 65.7032 42.8166 68.4346 42.8166 67.4011C42.8166 67.032 41.8569 65.4079 40.602 63.7839C39.4209 62.2337 38.3874 60.5358 38.3874 60.0929C38.3874 59.7238 39.4209 58.3951 40.602 57.214C42.8166 55.0732 43.4071 53.8921 42.1522 53.8921C41.7831 53.8921 40.1591 55.5161 38.6089 57.5831C37.0586 59.5762 35.5084 61.2002 35.1393 61.274C34.7702 61.274 34.6964 58.5427 34.9917 54.9994C35.4346 50.0534 35.287 48.7247 34.5488 48.7247C33.8106 48.7247 33.5891 50.8655 33.5891 57.9522Z" fill="white"/>
<path d="M52.4131 57.4346C52.4131 66.0715 52.856 67.917 55.1444 67.917C55.6612 67.917 56.1041 67.5479 56.1041 67.1788C56.1041 66.7359 55.5873 66.4406 54.923 66.4406C53.8895 66.4406 53.8157 65.2595 54.0371 57.5822C54.1848 50.8646 54.0371 48.7239 53.3727 48.7239C52.6345 48.7239 52.4131 50.9384 52.4131 57.4346Z" fill="white"/>
<path d="M59.9414 58.0985C60.1628 67.2522 60.2367 67.5474 61.8607 67.7689C62.7465 67.9165 63.4847 67.6951 63.4847 67.2522C63.4847 66.8092 62.968 66.4401 62.3774 66.4401C61.4916 66.4401 61.2701 64.9638 61.2701 57.5818C61.2701 51.9715 60.9749 48.7234 60.5319 48.7234C60.0152 48.7234 59.7937 52.0453 59.9414 58.0985Z" fill="white"/>
<path d="M92.423 52.415C92.7921 56.2537 92.3492 56.918 90.799 54.9987C89.3226 53.227 85.1148 53.5961 83.0479 55.7369C80.6857 58.0992 80.4642 63.488 82.6788 65.7026C84.6719 67.6957 87.5509 68.2863 89.9131 67.1052C91.0204 66.5884 92.1277 65.9979 92.4968 65.8502C92.7921 65.7026 93.0136 66.1455 93.0136 66.8837C93.0136 67.5481 93.235 67.991 93.4565 67.7695C93.6779 67.5481 93.8994 63.1189 93.9732 58.0253C94.1208 50.5695 93.8994 48.724 93.0874 48.724C92.3492 48.724 92.2015 49.6099 92.423 52.415ZM90.5037 56.4013C94.4899 59.797 92.4968 66.4408 87.4771 66.4408C81.7191 66.4408 80.3166 58.2468 85.6316 55.5893C88.0676 54.3343 88.2153 54.3343 90.5037 56.4013Z" fill="white"/>
<path d="M101.134 49.2412C97.0738 50.7914 96.1141 55.6635 99.2884 58.2472C100.322 59.0592 102.167 59.8712 103.348 60.1665C106.301 60.8309 107.482 62.3811 106.227 63.9313C105.415 64.891 104.456 65.0386 101.355 64.6695C97.8858 64.2266 97.4429 64.3742 97.4429 65.6292C97.4429 67.8437 104.234 68.7296 107.778 66.9579C111.469 65.1124 110.878 59.133 106.818 57.5828C101.577 55.6635 101.134 55.3682 101.134 53.8918C101.134 52.0463 104.013 51.2343 106.966 52.2678C108.811 52.9322 109.18 52.8583 109.476 51.6034C109.697 50.8652 109.623 50.0532 109.402 49.9055C108.368 49.315 102.241 48.7983 101.134 49.2412Z" fill="white"/>
<path d="M112.945 57.9512V67.1787H114.79C116.562 67.1787 116.636 67.0311 116.636 62.4542C116.636 57.5083 117.595 55.6628 119.884 56.5487C121.434 57.1392 122.025 59.5753 121.656 63.8568C121.434 66.8834 121.582 67.1787 123.058 67.1787C124.682 67.1787 124.756 66.8834 124.756 62.159C124.756 55.2937 123.501 53.5221 119.146 54.1864L115.898 54.6294L116.341 51.6766C116.783 48.8714 116.71 48.7238 114.864 48.7238H112.945V57.9512Z" fill="white"/>
<path d="M146.902 52.0465C146.902 53.08 146.385 54.1135 145.795 54.335C144.318 54.9255 144.392 56.8448 145.795 56.8448C146.754 56.8448 146.902 57.7307 146.828 61.274C146.68 66.5152 147.64 68.0654 150.888 67.7701C153.841 67.4749 154.653 64.965 151.774 64.965C149.929 64.965 149.855 64.7435 149.855 60.9049C149.855 57.0663 149.929 56.8448 151.7 56.8448C153.103 56.8448 153.546 56.4757 153.546 55.2946C153.546 53.9659 153.25 53.8182 151.7 54.1873C150.002 54.6302 149.855 54.4088 149.855 52.4156C149.855 50.7178 149.559 50.201 148.378 50.201C147.271 50.201 146.902 50.7178 146.902 52.0465Z" fill="white"/>
<path d="M45.0308 54.5555C45.0308 54.9985 45.3999 55.3676 45.769 55.3676C46.2119 55.3676 46.5072 57.8036 46.5072 61.2731C46.5072 64.8903 46.8024 67.1787 47.2454 67.1787C47.7621 67.1787 47.9836 64.8165 47.8359 60.7564C47.6145 55.2937 47.393 54.2603 46.3595 54.0388C45.6213 53.8912 45.0308 54.1126 45.0308 54.5555Z" fill="white"/>
<path d="M68.8009 54.408C68.2841 54.6295 67.3983 55.7368 66.8077 56.8441C63.6335 63.0449 67.8412 68.6552 74.7064 67.5479C78.6927 66.8836 78.176 65.7763 74.1897 66.293C71.3846 66.5883 70.4987 66.3668 69.0223 64.9643C65.8481 62.0115 66.5863 61.2733 72.7133 61.2733C78.0283 61.2733 78.2498 61.1994 78.2498 59.5016C78.2498 58.5419 77.5854 56.9179 76.6996 55.8106C75.5185 54.3342 74.5588 53.8913 72.4919 53.9651C71.0155 53.9651 69.3176 54.1866 68.8009 54.408ZM75.8876 56.6964C77.8069 59.1325 76.9949 59.7969 71.9751 59.7969C66.8816 59.7969 65.9219 58.911 68.5056 56.6964C71.0893 54.408 74.0421 54.408 75.8876 56.6964Z" fill="white"/>
<path d="M127.266 54.777C126.971 55.2199 127.266 55.9581 127.931 56.4748C128.89 57.1392 129.186 58.5418 129.186 62.3066C129.186 66.662 129.333 67.1787 130.662 67.1787C132.065 67.1787 132.138 66.662 132.138 60.5349V53.8912H129.998C128.743 53.8912 127.562 54.2603 127.266 54.777Z" fill="white"/>
</svg>
