<svg width="250" height="106" viewBox="0 0 250 106" fill="none" xmlns="http://www.w3.org/2000/svg">
<path d="M129.291 9.4417C128.647 9.87088 125.858 13.1971 123.068 16.8451C118.025 23.4975 117.918 23.6048 117.703 32.725C117.596 37.7679 117.703 41.8451 118.132 41.8451C118.454 41.8451 121.244 38.1971 124.356 33.7979C127.36 29.3988 130.364 25.7507 130.901 25.7507C131.437 25.7507 134.656 29.6134 138.09 34.3344L144.313 43.0254L144.635 33.7979L144.956 24.6777L139.914 17.9181C133.154 9.01251 131.544 7.72496 129.291 9.4417ZM136.695 19.6348C138.841 22.7464 140.557 26.3945 140.557 27.7893C140.557 30.2571 140.557 30.2571 136.802 26.931C131.974 22.7464 129.399 22.7464 125.536 26.8237C121.888 30.6863 121.244 30.7936 121.244 27.5747C121.244 23.8194 128.647 13.9481 131.544 13.9481C132.188 13.9481 134.549 16.5232 136.695 19.6348Z" fill="white"/>
<path d="M104.077 40.1294V49.1422L109.764 56.4384C113.304 61.0521 116.201 63.8418 117.489 63.8418C118.776 63.8418 121.673 61.0521 125.214 56.4384L130.901 49.1422V40.1294C130.901 35.1937 130.794 31.1165 130.579 31.1165C130.472 31.1165 127.682 34.7645 124.57 39.1637C121.352 43.5628 118.24 47.2109 117.489 47.2109C116.738 47.2109 113.626 43.5628 110.407 39.1637C107.296 34.7645 104.506 31.1165 104.399 31.1165C104.184 31.1165 104.077 35.1937 104.077 40.1294ZM112.339 47.2109C116.845 51.2881 118.133 51.1809 122.854 47.1036C125 45.1723 126.931 43.992 127.36 44.3139C128.433 45.3869 125.751 50.6444 121.781 55.2581C118.884 58.6916 117.811 59.3354 116.416 58.477C112.768 56.2238 105.579 43.992 107.94 43.992C108.261 43.992 110.3 45.3869 112.339 47.2109Z" fill="white"/>
<path d="M187.124 71.2443C186.266 73.4975 188.519 76.1799 190.557 75.4288C192.703 74.5704 191.952 70.3859 189.592 69.9567C188.626 69.7421 187.446 70.3859 187.124 71.2443Z" fill="white"/>
<path d="M202.789 70.4937C200.643 71.3521 199.57 73.0688 199.57 75.9658C199.57 77.2534 198.819 78.6482 197.961 78.9701C197.102 79.3993 196.351 80.2577 196.351 81.116C196.351 81.9744 197.102 82.6182 197.961 82.6182C199.248 82.6182 199.57 84.1203 199.57 90.1289C199.57 96.8886 199.785 97.6396 201.716 97.6396C203.647 97.6396 203.862 96.8886 203.862 90.1289C203.862 83.3693 204.076 82.6182 206.008 82.6182C207.403 82.6182 208.154 81.8671 208.154 80.4723C208.154 78.9701 207.51 78.3263 206.33 78.5409C205.042 78.7555 204.398 78.219 204.398 76.7169C204.398 75.3221 205.257 74.4637 206.866 74.2491C210.192 73.7126 210.192 69.7427 206.866 69.8499C205.471 69.8499 203.647 70.1718 202.789 70.4937Z" fill="white"/>
<path d="M29.7209 71.9952C26.8239 73.1754 25.2145 76.3943 25.9655 80.1497C26.2874 81.8664 28.1115 83.0467 37.4462 87.3385C41.6308 89.2699 42.5964 91.7377 40.2359 94.5274C38.4119 96.4587 37.3389 96.7806 31.9741 96.2441C24.678 95.6003 23.605 97.2098 30.472 98.1754C36.5879 99.1411 40.8797 97.7463 42.9183 94.0982C44.3132 91.5231 44.3132 91.0939 42.2746 88.4115C41.0943 86.8021 37.9827 84.6561 35.3003 83.7978C28.7552 81.4372 27.8969 80.7935 27.8969 77.7892C27.8969 74.0338 31.3304 72.5317 37.9827 73.4973C41.5235 73.9265 43.0256 73.8192 42.3819 73.1754C40.6651 71.4587 33.0471 70.8149 29.7209 71.9952Z" fill="white"/>
<path d="M48.8201 84.2263C48.8201 94.8486 49.142 97.6383 50.3222 97.6383C51.2879 97.6383 51.5025 96.8873 51.0733 95.0632C50.6441 93.4538 51.0733 91.9516 52.3608 90.8787C54.1849 89.2692 54.3995 89.2692 56.0089 92.0589C58.0475 95.4924 62.2321 99.4624 62.2321 97.9602C62.2321 97.4237 60.8372 95.0632 59.0132 92.7027C57.2965 90.4495 55.7943 87.9817 55.7943 87.3379C55.7943 86.8014 57.2965 84.8701 59.0132 83.1534C62.2321 80.0418 63.0905 78.325 61.2664 78.325C60.7299 78.325 58.3694 80.6855 56.1162 83.6898C53.863 86.5868 51.6098 88.9474 51.0733 89.0546C50.5368 89.0546 50.4295 85.0847 50.8587 79.9345C51.5025 72.7456 51.2879 70.8143 50.2149 70.8143C49.142 70.8143 48.8201 73.9259 48.8201 84.2263Z" fill="white"/>
<path d="M76.1804 83.4759C76.1804 96.0295 76.8242 98.7119 80.1504 98.7119C80.9015 98.7119 81.5452 98.1754 81.5452 97.639C81.5452 96.9952 80.7942 96.566 79.8285 96.566C78.3263 96.566 78.219 94.8493 78.5409 83.6905C78.7555 73.9265 78.5409 70.8149 77.5753 70.8149C76.5023 70.8149 76.1804 74.0338 76.1804 83.4759Z" fill="white"/>
<path d="M87.1236 84.4425C87.4455 97.7472 87.5528 98.1764 89.9133 98.4982C91.2009 98.7128 92.2738 98.391 92.2738 97.7472C92.2738 97.1034 91.5228 96.5669 90.6644 96.5669C89.3768 96.5669 89.0549 94.421 89.0549 83.6914C89.0549 75.5369 88.6258 70.8158 87.982 70.8158C87.2309 70.8158 86.909 75.6442 87.1236 84.4425Z" fill="white"/>
<path d="M134.335 76.1787C134.871 81.7581 134.227 82.7238 131.974 79.9341C129.828 77.359 123.712 77.8955 120.708 81.0071C117.275 84.4405 116.953 92.2732 120.172 95.4921C123.069 98.389 127.253 99.2474 130.687 97.5307C132.296 96.7796 133.905 95.9212 134.442 95.7066C134.871 95.4921 135.193 96.1358 135.193 97.2088C135.193 98.1745 135.515 98.8182 135.837 98.4963C136.159 98.1745 136.481 91.7367 136.588 84.3333C136.802 73.4963 136.481 70.8139 135.3 70.8139C134.227 70.8139 134.013 72.1015 134.335 76.1787ZM131.545 81.9727C137.339 86.9084 134.442 96.565 127.146 96.565C118.777 96.565 116.738 84.6551 124.463 80.7925C128.004 78.9684 128.219 78.9684 131.545 81.9727Z" fill="white"/>
<path d="M146.995 71.5656C141.094 73.8188 139.699 80.9003 144.313 84.6557C145.815 85.8359 148.498 87.0162 150.214 87.4454C154.506 88.4111 156.223 90.6643 154.399 92.9175C153.219 94.3123 151.824 94.5269 147.317 93.9905C142.274 93.3467 141.631 93.5613 141.631 95.3853C141.631 98.6042 151.502 99.8917 156.652 97.3166C162.017 94.6342 161.159 85.9432 155.257 83.69C147.639 80.9003 146.995 80.4711 146.995 78.3252C146.995 75.6428 151.18 74.4626 155.472 75.9647C158.154 76.9304 158.691 76.8231 159.12 74.999C159.442 73.9261 159.334 72.7458 159.013 72.5312C157.51 71.6729 148.605 70.9218 146.995 71.5656Z" fill="white"/>
<path d="M164.162 84.2276V97.6396H166.845C169.42 97.6396 169.527 97.4251 169.527 90.7727C169.527 83.5839 170.922 80.9014 174.248 82.189C176.501 83.0474 177.36 86.5881 176.823 92.8113C176.501 97.2105 176.716 97.6396 178.862 97.6396C181.222 97.6396 181.33 97.2105 181.33 90.3435C181.33 80.365 179.506 77.7899 173.175 78.7555L168.454 79.3993L169.098 75.1075C169.742 71.0302 169.634 70.8156 166.952 70.8156H164.162V84.2276Z" fill="white"/>
<path d="M213.52 75.6445C213.52 77.1467 212.769 78.6488 211.911 78.9707C209.765 79.8291 209.872 82.6188 211.911 82.6188C213.305 82.6188 213.52 83.9063 213.413 89.0566C213.198 96.6746 214.593 98.9278 219.314 98.4986C223.606 98.0694 224.786 94.4214 220.602 94.4214C217.919 94.4214 217.812 94.0995 217.812 88.5201C217.812 82.9407 217.919 82.6188 220.494 82.6188C222.533 82.6188 223.177 82.0823 223.177 80.3656C223.177 78.4342 222.747 78.2197 220.494 78.7561C218.026 79.3999 217.812 79.078 217.812 76.181C217.812 73.7132 217.383 72.9621 215.666 72.9621C214.056 72.9621 213.52 73.7132 213.52 75.6445Z" fill="white"/>
<path d="M65.4504 79.292C65.4504 79.9358 65.9869 80.4723 66.5234 80.4723C67.1672 80.4723 67.5964 84.013 67.5964 89.056C67.5964 94.3135 68.0255 97.6396 68.6693 97.6396C69.4204 97.6396 69.7423 94.2062 69.5277 88.3049C69.2058 80.365 68.8839 78.8628 67.3818 78.5409C66.3088 78.3263 65.4504 78.6482 65.4504 79.292Z" fill="white"/>
<path d="M99.9992 79.0759C99.2481 79.3978 97.9606 81.0073 97.1022 82.6167C92.4885 91.6296 98.6044 99.7841 108.583 98.1746C114.377 97.209 113.626 95.5995 107.832 96.3506C103.755 96.7798 102.467 96.4579 100.321 94.4193C95.7074 90.1274 96.7803 89.0545 105.686 89.0545C113.411 89.0545 113.733 88.9472 113.733 86.4794C113.733 85.0845 112.767 82.724 111.48 81.1146C109.763 78.9686 108.368 78.3249 105.364 78.4322C103.218 78.4322 100.75 78.754 99.9992 79.0759ZM110.3 82.4021C113.089 85.9429 111.909 86.9086 104.613 86.9086C97.2095 86.9086 95.8147 85.621 99.57 82.4021C103.325 79.0759 107.617 79.0759 110.3 82.4021Z" fill="white"/>
<path d="M184.978 79.6139C184.549 80.2577 184.978 81.3306 185.944 82.0817C187.338 83.0474 187.768 85.086 187.768 90.5581C187.768 96.8886 187.982 97.6396 189.914 97.6396C191.952 97.6396 192.059 96.8886 192.059 87.983V78.3263H188.948C187.124 78.3263 185.407 78.8628 184.978 79.6139Z" fill="white"/>
</svg>
