<svg width="133" height="108" viewBox="0 0 133 108" fill="none" xmlns="http://www.w3.org/2000/svg">
<path d="M66.7359 1.96853C66.4211 2.28332 62.7223 2.83421 58.4726 3.149C49.8158 3.77859 46.117 5.27386 40.1359 10.2318C38.1685 11.8058 35.4927 13.6946 34.2336 14.4029C30.1412 16.449 24.7898 22.9023 22.901 28.0176C21.9566 30.536 20.0679 34.7857 18.6513 37.3827C16.3691 41.6324 16.133 42.7342 16.2117 48.794C16.2904 59.2608 17.6282 70.0425 19.4383 74.0561C20.304 76.1023 22.2714 79.0928 23.7667 80.7455C25.1833 82.4768 27.7803 85.8608 29.3543 88.3792C32.3448 93.0224 40.2933 99.1609 43.2838 99.1609C43.9921 99.1609 47.0614 100.499 50.0519 102.073C55.7969 105.221 57.056 105.378 74.6057 104.748C82.4756 104.512 89.7945 101.758 94.5164 97.3508C96.0904 95.9342 99.0022 93.8094 100.891 92.6289C102.858 91.5271 105.613 89.2449 107.029 87.6709C109.626 84.6804 113.325 77.6762 113.325 75.7088C113.325 75.0792 114.034 73.5839 114.899 72.4035C118.913 66.7372 119.7 60.6774 118.283 46.2756C117.339 36.6745 115.135 30.9295 110.335 25.578C108.761 23.7679 106.479 20.62 105.298 18.6526C103.016 14.6389 97.1134 9.91705 92.8637 8.65788C91.3685 8.18569 87.5123 6.53303 84.443 4.95906C79.9572 2.67682 77.5176 2.04723 73.0318 1.73244C69.8838 1.57504 67.0507 1.65374 66.7359 1.96853ZM80.1146 4.40818C82.3182 5.03776 84.2069 5.82474 84.2069 6.21824C84.2069 7.39871 74.527 7.7922 72.7957 6.69043C71.93 6.21824 69.8052 5.27386 68.0738 4.72297L64.9259 3.62119L67.2868 3.07031C70.1199 2.36202 74.527 2.83421 80.1146 4.40818ZM54.8525 7.08392C52.2554 8.97267 49.5797 10.2318 48.2418 10.2318C47.0614 10.2318 44.8578 10.5466 43.4412 10.9401C40.6081 11.8058 40.2146 11.3336 42.3395 9.68096C46.117 6.69043 52.6489 4.17208 57.3708 4.01469C58.9448 3.93599 58.4726 4.48687 54.8525 7.08392ZM70.2773 6.76912C71.4578 7.39871 72.4022 8.0283 72.4022 8.26439C72.4022 8.42179 70.6708 9.52356 68.4673 10.704C66.3424 11.8845 64.5324 13.1437 64.5324 13.5372C64.5324 14.5602 62.6436 14.2455 59.1809 12.5928C57.4495 11.7271 55.246 11.0188 54.3016 11.0188C53.4359 11.0188 52.7276 10.7827 52.7276 10.3892C52.7276 9.75966 59.6531 5.03776 61.3844 4.56557C62.801 4.09338 67.2081 5.27386 70.2773 6.76912ZM88.3779 9.05137C89.2436 9.60226 90.3454 9.91705 90.975 9.68096C92.5489 9.13007 99.7892 13.7733 103.016 17.4721C104.511 19.1247 105.534 20.6987 105.298 20.8561C105.141 21.0922 103.567 20.5413 101.914 19.6756C100.183 18.81 98.3726 18.1017 97.9004 18.1017C97.3495 18.1017 96.1691 16.9212 95.3034 15.5046C93.6507 12.7502 90.5028 9.60226 90.5028 10.5466C90.5028 10.8614 91.3685 12.278 92.4702 13.6946C93.572 15.1111 94.4377 16.5277 94.4377 16.7638C94.4377 16.9999 93.1785 17.1573 91.6046 16.9999C90.0306 16.8425 87.591 16.9999 86.0957 17.3147C83.656 17.8656 83.3412 17.7082 81.9247 15.4259C81.059 14.0881 79.485 12.1206 78.3833 11.0188C76.8093 9.68096 76.5732 8.97267 77.2815 8.50048C78.9341 7.47741 86.804 7.7922 88.3779 9.05137ZM77.2815 11.5697C78.3833 12.8289 79.8785 14.7176 80.6655 15.8981L82.0034 18.023L79.0915 19.2034C77.5176 19.9117 75.314 21.1709 74.2123 22.0366L72.1661 23.6105L70.1199 20.8561C69.0182 19.3608 67.2868 17.5508 66.2637 16.8425C64.1389 15.3472 64.5324 14.6389 69.0969 11.7271C73.5827 8.89398 74.7631 8.89398 77.2815 11.5697ZM47.691 14.7176C46.6679 16.3703 45.4874 18.6526 45.2513 19.833C44.7791 21.7218 44.3069 22.0366 41.7099 22.0366C40.1359 22.0366 37.6963 22.4301 36.2797 22.9023C34.8631 23.3745 33.604 23.6105 33.3679 23.3745C32.7383 22.8236 36.5945 15.5833 38.2472 14.0094C39.5063 12.9863 48.5566 10.8614 49.4223 11.491C49.5797 11.5697 48.7927 12.9863 47.691 14.7176ZM59.417 13.9307C60.6762 14.6389 61.8566 15.2685 62.014 15.3472C62.1714 15.5046 61.227 17.0786 59.8892 18.9673C58.5513 20.7774 57.4495 22.7449 57.4495 23.2958C57.4495 24.9484 56.1904 25.2632 53.8294 24.0827C52.6489 23.4531 50.3667 22.6662 48.6353 22.4301C46.9827 22.1153 45.6448 21.7218 45.6448 21.5644C45.6448 20.6987 49.1075 14.4816 50.2093 13.1437C51.6259 11.491 55.246 11.8058 59.417 13.9307ZM34.3909 17.4721C33.7614 18.4165 32.817 20.5413 32.3448 22.0366C31.6365 24.004 30.2199 25.4993 27.4655 27.3094C25.262 28.7259 23.6093 29.3555 23.6093 28.8046C23.6093 26.9946 28.0951 20.7774 31.4791 17.8656C35.1779 14.7176 36.201 14.5602 34.3909 17.4721ZM67.6016 19.9904C72.1661 24.6336 71.6939 25.6567 64.375 26.2076C61.227 26.365 58.3939 26.4437 58.0791 26.2076C57.056 25.6567 62.3288 16.5277 63.6667 16.5277C63.9815 16.5277 65.7128 18.1017 67.6016 19.9904ZM96.0117 19.7543C96.5626 20.62 97.1134 23.2958 97.3495 25.578L97.8217 29.749H92.3128L86.804 29.6703L85.6235 24.4762C84.9152 21.6431 84.5217 19.046 84.7578 18.6526C84.9152 18.3378 87.3549 18.1017 90.1093 18.1017C94.4377 18.1017 95.3034 18.3378 96.0117 19.7543ZM84.5217 25.0271C85.8596 30.9295 85.23 31.6378 80.5868 29.1981C78.8554 28.3324 76.5732 27.2307 75.3927 26.8372C74.1336 26.365 73.1892 25.4993 73.1892 24.9484C73.1892 23.6892 82.0034 18.7313 82.7904 19.5182C83.1052 19.833 83.8921 22.2727 84.5217 25.0271ZM107.895 25.7354C108.21 26.6798 108.761 29.2768 109.076 31.4804C109.626 35.494 108.918 36.5171 107.029 34.3135C106.557 33.6839 104.59 32.5821 102.701 31.8739C99.6318 30.6934 99.317 30.2999 98.9235 27.3094C98.6087 25.4993 98.2152 22.8236 97.9004 21.3283L97.3495 18.6526L102.229 21.3283C105.141 22.8236 107.502 24.6336 107.895 25.7354ZM43.756 28.5685L43.6773 34.3922L39.7424 35.1792C37.6176 35.6514 35.0205 36.281 34.0762 36.5958C32.3448 37.1466 32.2661 37.0679 32.2661 31.2443V25.2632L35.2566 24.4762C37.9324 23.7679 40.7655 23.2171 42.9691 22.9023C43.4412 22.9023 43.756 24.9484 43.756 28.5685ZM53.5933 25.1845C56.3478 26.365 56.5052 27.9389 54.1442 29.1981C53.1211 29.749 51.075 31.1656 49.501 32.346C47.927 33.6052 46.1957 34.6283 45.7235 34.6283C44.8578 34.6283 44.4643 24.3188 45.33 23.4531C45.8022 22.9023 50.4454 23.9253 53.5933 25.1845ZM31.0856 31.7952V37.5401L26.9933 41.3176C22.1927 45.5674 21.7992 45.3313 22.1927 37.6975C22.4288 32.7395 22.4288 32.7395 26.5998 29.3555C28.8821 27.4668 30.8495 25.9715 30.9282 25.9715C31.0069 25.9715 31.0856 28.5685 31.0856 31.7952ZM68.4673 27.152C68.4673 27.3881 67.6803 28.6472 66.7359 29.9064L65.0046 32.2674L62.7223 30.1425L60.5188 27.9389L62.3288 27.4668C64.6111 26.7585 68.4673 26.6011 68.4673 27.152ZM73.1105 28.175C73.504 28.8833 74.0549 30.7721 74.3696 32.2674C74.7631 34.707 74.527 35.3366 72.2448 37.5401L69.6478 40.0585L67.759 36.6745L65.9489 33.2117L68.0738 29.9851C70.4347 26.5224 71.93 25.9715 73.1105 28.175ZM113.64 32.5821C115.686 36.7532 117.496 44.1508 116.709 44.8591C116.473 45.0952 116.08 44.7804 115.922 44.2295C115.686 43.6786 114.348 41.7111 112.932 39.8224C110.886 37.0679 110.335 35.5727 110.02 31.6378C109.626 25.8928 110.492 26.1289 113.64 32.5821ZM81.059 31.0869C81.059 31.5591 76.2584 33.9987 75.9436 33.6839C75.7862 33.5265 75.4714 32.11 75.1566 30.4573L74.527 27.3881L77.8324 29.0407C79.5637 29.9851 81.059 30.8508 81.059 31.0869ZM62.1714 31.0869C64.5324 33.5265 64.6898 33.9987 63.9028 35.8088C63.3519 36.9105 62.9584 38.5632 62.9584 39.4289C62.9584 41.2389 62.9584 41.2389 58.8661 38.6419C55.6395 36.6745 55.0886 34.4709 56.6625 30.3786C57.6856 27.6242 59.0235 27.7816 62.1714 31.0869ZM55.0886 33.133C55.0886 36.3597 55.0886 36.3597 52.5702 35.8088C48.6353 34.9431 48.4779 34.3135 51.7046 32.0313C53.3572 30.9295 54.7738 29.9851 54.9312 29.9851C55.0099 29.9064 55.0886 31.323 55.0886 33.133ZM96.7199 31.4017C97.4282 31.8739 97.6643 32.8969 97.3495 34.4709C96.6413 38.0123 94.5951 42.4981 93.7294 42.4981C93.3359 42.4981 92.0768 41.0029 91.0537 39.1141C89.9519 37.2253 88.4566 35.2579 87.827 34.6283C87.1188 34.0774 86.5679 32.9756 86.5679 32.1887C86.5679 30.9295 87.1975 30.6934 91.1324 30.6934C93.572 30.6934 96.0904 31.0082 96.7199 31.4017ZM84.7578 33.6052C84.9939 34.3135 84.7578 36.281 84.1282 38.091C83.2625 40.6094 82.5543 41.3963 80.6655 41.7898C79.4063 42.0259 77.9111 42.4194 77.4389 42.5768C76.3371 42.9703 76.3371 42.8129 76.3371 38.5632C76.3371 35.8088 76.7306 35.1792 78.9341 33.8413C82.0034 31.9526 84.1282 31.8739 84.7578 33.6052ZM103.724 33.8413C109.312 36.8318 109.626 37.2253 108.603 40.9242C107.423 45.2526 106.164 48.007 105.298 48.007C104.983 48.007 103.173 46.9052 101.363 45.6461C99.6318 44.3082 97.6643 43.2851 97.0347 43.2851C95.6969 43.2851 95.7756 42.5768 97.1921 39.1141C97.8217 37.5401 98.3726 35.3366 98.3726 34.2348C98.3726 31.7952 99.7105 31.7165 103.724 33.8413ZM44.4643 36.2023C44.7004 36.5958 43.9921 38.6419 42.8904 40.6881C41.7886 42.7342 40.9229 45.0952 40.9229 45.8821C40.9229 47.9283 38.7194 48.4792 37.3815 46.7478C36.0436 45.0165 32.817 38.4845 33.2105 38.2484C33.8401 37.7762 40.8442 35.9662 43.4412 35.494C43.756 35.494 44.2282 35.7301 44.4643 36.2023ZM67.6803 38.5632C68.4673 40.452 68.4673 41.475 67.759 43.049C66.8933 45.0165 66.8146 45.0165 65.2407 43.5999C63.9815 42.4194 63.7454 41.6324 64.1389 39.3502C65.0833 34.6283 65.9489 34.3922 67.6803 38.5632ZM88.7714 37.7762C91.1324 41.0029 90.975 41.7898 87.9844 41.1603C84.6791 40.5307 84.9152 40.8455 85.4661 37.9336C86.0957 34.7857 86.5679 34.7857 88.7714 37.7762ZM52.5702 37.0679C54.1442 37.6188 55.0886 38.5632 55.4821 39.9798C55.7182 41.1603 56.1117 42.7342 56.3478 43.4425C56.7412 44.623 56.1904 44.8591 52.9637 44.8591C49.1862 44.8591 49.1075 44.7804 47.4549 41.3963C45.0939 36.5958 46.8253 35.0218 52.5702 37.0679ZM20.7762 38.0123C20.5401 38.6419 20.7762 40.6881 21.1696 42.5768C21.8779 45.6461 21.7205 46.5117 19.6744 50.7614C17.5495 55.1685 17.3921 55.3259 16.9199 53.2798C16.2904 50.9975 17.6282 42.0259 19.0448 38.9567C19.9105 36.9105 21.5631 36.1236 20.7762 38.0123ZM74.9992 40.2946C74.291 45.1739 71.3004 47.2987 70.356 43.5999C69.9625 42.1046 70.356 41.0816 72.0874 39.2715C75.0779 36.2023 75.6288 36.3597 74.9992 40.2946ZM62.014 44.0721C62.4075 47.8496 59.0235 47.0626 57.5282 43.049C55.9543 38.9567 56.3478 38.2484 59.2596 40.0585C61.0696 41.1603 61.8566 42.3407 62.014 44.0721ZM113.64 43.049C116.945 48.3218 117.024 48.8727 114.821 54.6963C113.089 59.4182 112.145 60.0478 111.437 57.0573C111.2 56.0342 109.863 53.9094 108.525 52.4141L106.164 49.6597L107.659 46.6691C108.525 45.0165 109.469 42.4981 109.784 41.0816C110.02 39.7437 110.413 38.5632 110.571 38.5632C110.728 38.5632 112.145 40.6094 113.64 43.049ZM34.4696 44.0721L36.9093 48.8727L32.8957 52.7289C30.6921 54.9324 28.7247 56.5851 28.646 56.4277C27.2294 54.775 23.6093 48.1644 23.6093 47.1413C23.6093 45.8821 30.2199 39.3502 31.4791 39.3502C31.7939 39.3502 33.1318 41.475 34.4696 44.0721ZM47.3762 44.9378C47.0614 45.2526 45.6448 45.7247 44.2282 46.0395C41.7886 46.5117 41.7099 46.5117 42.4969 44.4656C42.8904 43.3638 43.6773 41.6324 44.1495 40.7668C45.0152 39.1141 45.0939 39.1928 46.5105 41.7898C47.2188 43.2851 47.6123 44.7017 47.3762 44.9378ZM82.1608 43.4425C79.9572 47.2987 78.3833 48.794 76.6519 48.794C74.7631 48.794 74.1336 47.0626 75.3927 45.1739C76.5732 43.3638 83.1839 41.7111 82.1608 43.4425ZM92.3915 43.836C92.7063 44.7017 92.0768 46.0395 90.3454 47.7709C87.591 50.6827 87.3549 50.6827 83.2625 49.581L80.4294 48.794L82.0821 45.6461C83.7347 42.6555 83.9708 42.4981 87.827 42.4981C90.8963 42.4981 91.9981 42.8129 92.3915 43.836ZM69.7265 46.8265C69.8838 48.3218 69.6478 49.581 69.1756 49.581C68.7034 49.581 68.6247 49.1875 68.8608 48.794C69.0969 48.3218 68.9395 48.007 68.546 48.007C68.0738 48.007 67.6803 48.4005 67.6803 48.8727C67.6803 49.2662 67.2868 49.4236 66.7359 49.1088C66.0276 48.6366 66.0276 48.4005 66.7359 48.1644C67.2868 48.007 67.6803 47.0626 67.6803 46.1182C67.6803 44.2295 68.4673 42.9703 69.1756 43.6786C69.333 43.9147 69.6478 45.3313 69.7265 46.8265ZM66.1063 46.9052C66.1063 47.5348 65.5554 48.007 64.9259 48.007C64.1389 48.007 63.7454 47.22 63.7454 45.9608C63.7454 44.2295 63.9028 43.9934 64.9259 44.8591C65.5554 45.41 66.1063 46.3543 66.1063 46.9052ZM100.497 46.5904C102.78 48.007 104.668 49.3449 104.668 49.581C104.668 50.7614 96.8773 57.6082 96.0904 57.136C95.6182 56.8212 95.2247 54.9324 95.146 52.8863C95.146 50.8401 94.8312 48.4792 94.5164 47.6135C93.7294 45.8034 94.2016 44.0721 95.4608 44.0721C95.933 44.0721 98.2152 45.1739 100.497 46.5904ZM58.3152 48.1644C59.7318 49.8958 59.6531 49.9745 57.6856 50.6827C55.9543 51.2336 55.3247 50.9188 52.8063 48.4005L49.9732 45.4887L53.4359 45.8821C55.8756 46.1969 57.3708 46.9052 58.3152 48.1644ZM73.6614 46.9052C73.4253 47.6135 73.1892 48.3218 73.1892 48.4792C73.1892 48.6366 72.6383 48.794 72.0087 48.794C70.5921 48.794 70.5134 47.8496 71.7726 46.5904C73.1105 45.2526 74.2123 45.41 73.6614 46.9052ZM51.2324 48.8727C52.4915 50.2105 53.5146 51.391 53.5146 51.5484C53.5146 51.7058 52.0981 52.4928 50.3667 53.4372L47.2188 55.0898L44.0708 53.1224C39.8998 50.4466 40.0572 48.0857 44.4643 46.9839C47.8483 46.1969 49.0288 46.5117 51.2324 48.8727ZM62.801 48.9514C63.1945 50.9188 61.227 50.6827 59.9679 48.7153C59.0235 47.22 59.1022 47.1413 60.7549 47.3774C61.6992 47.5348 62.6436 48.2431 62.801 48.9514ZM93.8868 50.5253C94.4377 54.4603 94.2803 54.6963 92.3128 53.5946C88.7714 51.5484 88.7714 51.4697 90.6602 49.3449C91.6833 48.1644 92.7063 47.22 92.9424 47.22C93.2572 47.22 93.6507 48.7153 93.8868 50.5253ZM23.5306 50.604C23.9241 51.6271 25.1833 53.5946 26.3637 54.9324L28.4886 57.5295L26.8359 61.3857C25.9702 63.5105 25.1833 65.9502 25.1833 66.8159C25.1833 69.5703 23.8454 68.7046 20.8549 63.904C17.8643 59.1034 17.7856 58.5526 20.2253 52.0993C21.6418 48.4005 22.5075 47.9283 23.5306 50.604ZM39.8998 55.2472C40.0572 57.5295 40.2933 60.2839 40.372 61.3857C40.5294 62.9597 40.2146 63.2745 38.9554 63.1171C36.988 62.8023 31.3217 58.9461 30.9282 57.6869C30.3773 56.1916 37.8537 49.3449 38.798 50.2892C39.2702 50.7614 39.7424 52.965 39.8998 55.2472ZM76.3371 50.7614C75.314 52.0206 73.1892 52.3354 73.1892 51.3123C73.1892 50.2105 74.1336 49.581 75.7862 49.581C77.0454 49.581 77.1241 49.8171 76.3371 50.7614ZM84.6004 51.1549C85.9383 51.6271 85.7022 51.9419 82.7904 53.4372C79.9572 54.8537 79.1702 55.0111 78.0685 54.1455C77.3602 53.5946 76.5732 53.0437 76.4158 52.965C76.2584 52.8076 76.7306 52.0206 77.5176 51.1549C78.9341 49.581 80.272 49.581 84.6004 51.1549ZM61.6205 52.8076C62.4075 53.6733 62.801 54.6963 62.4862 54.9324C62.1714 55.2472 61.7779 55.0111 61.6205 54.4603C61.3844 53.9881 60.5975 53.5159 59.8105 53.5159C58.2365 53.5159 57.2134 52.4928 58.0004 51.6271C58.9448 50.7614 60.204 51.1549 61.6205 52.8076ZM69.5691 52.965C70.2773 54.1455 70.1199 54.6176 68.9395 55.562C67.6016 56.5064 67.2081 56.5064 66.0276 55.4046C64.9259 54.3816 64.7685 53.752 65.3981 52.5715C66.3424 50.7614 68.3099 50.9975 69.5691 52.965ZM107.187 52.4928C107.895 53.2798 109.233 55.4833 110.177 57.4508L111.987 60.9135L108.21 64.2975C106.164 66.1863 104.039 67.6816 103.488 67.6816C102.937 67.6816 101.914 66.3437 101.284 64.691C100.576 63.1171 99.5531 61.0709 98.9235 60.2839C97.9004 58.8674 98.0578 58.3952 101.442 55.0111C103.409 52.965 105.298 51.3123 105.534 51.2336C105.77 51.1549 106.557 51.7845 107.187 52.4928ZM93.4933 57.7656C93.3359 58.8674 92.2341 59.6543 89.7945 60.3626C86.3318 61.3857 86.3318 61.3857 83.5773 58.5526C82.0821 57.0573 80.9803 55.7194 81.1377 55.6407C81.2951 55.562 82.8691 54.6963 84.6004 53.8307L87.6697 52.178L90.7389 54.1455C92.8637 55.562 93.6507 56.5851 93.4933 57.7656ZM117.89 58.0017C117.654 61.7005 116.867 65.5567 115.922 67.6816L114.348 71.223L113.797 65.9502C113.404 61.4644 113.561 60.1265 114.899 57.5295C115.765 55.7981 116.473 53.8307 116.473 53.1224C116.473 52.4928 116.867 51.9419 117.339 51.9419C117.968 51.9419 118.126 53.8307 117.89 58.0017ZM45.6448 55.8768C45.6448 56.8212 41.946 59.8117 41.4738 59.2608C41.159 59.0248 40.9229 57.3721 40.9229 55.7194V52.6502L43.2838 54.0668C44.6217 54.775 45.6448 55.6407 45.6448 55.8768ZM57.7643 53.752C59.0235 54.6963 59.0235 54.8537 57.6069 56.1129C56.4265 57.2147 55.3247 57.4508 53.1998 57.0573C49.501 56.349 49.0288 55.4046 51.7046 53.9881C54.459 52.4928 55.9543 52.4141 57.7643 53.752ZM76.8093 54.775C78.2259 55.8768 78.1472 55.9555 75.7862 55.6407C74.3696 55.4833 73.1105 55.7194 72.9531 56.1916C72.717 56.6638 72.3235 56.8212 72.0087 56.4277C71.6152 56.1129 72.0087 55.3259 72.8744 54.6963C74.7631 53.2798 74.9205 53.2798 76.8093 54.775ZM61.4631 56.2703C61.4631 57.2934 58.2365 57.7656 58.2365 56.8212C58.2365 55.9555 59.8105 55.0898 60.8336 55.4046C61.227 55.4833 61.4631 55.8768 61.4631 56.2703ZM81.2951 61.2283C79.0128 61.4644 77.9898 61.1496 76.9667 59.8117C75.0779 57.5295 75.1566 56.8212 77.3602 56.5064C78.462 56.2703 79.9572 56.9786 81.6886 58.5526L84.2856 60.9922L81.2951 61.2283ZM51.1537 57.6082C52.885 58.1591 54.2229 58.7887 54.0655 59.0248C53.9868 59.2608 53.1998 60.7561 52.3341 62.3301C51.1537 64.8484 50.4454 65.3206 48.4779 65.3206C42.1821 65.3206 40.9229 63.2745 44.6217 59.1034C47.0614 56.349 46.9827 56.349 51.1537 57.6082ZM74.7631 57.7656C74.7631 57.923 74.9992 58.6313 75.2353 59.2608C75.5501 60.2052 75.2353 60.3626 74.0549 60.0478C71.93 59.4969 71.2217 57.4508 73.1892 57.4508C74.0549 57.4508 74.7631 57.6082 74.7631 57.7656ZM59.8892 60.9135C59.1809 62.7236 56.3478 64.5336 54.1442 64.5336C52.2554 64.5336 52.3341 63.9827 54.6951 60.9922C56.1117 59.0248 57.056 58.5526 58.5513 58.7887C60.1253 59.1034 60.3614 59.4969 59.8892 60.9135ZM63.588 59.5756C63.4306 60.3626 62.7223 61.0709 61.9353 61.2283C60.6762 61.4644 60.5975 61.307 61.3844 59.8904C62.4075 57.923 63.9815 57.6869 63.588 59.5756ZM31.7939 60.52C32.5022 61.307 34.4696 62.5662 36.1223 63.3532L39.1128 64.691L37.6963 68.5472C36.8306 70.6721 36.201 73.1117 36.201 73.9774C36.201 76.0236 36.0436 76.0236 30.5347 73.033C25.8915 70.5934 25.8128 70.436 26.2063 67.7603C26.6785 64.2188 28.8034 59.0248 29.7478 59.0248C30.1412 59.0248 31.0069 59.6543 31.7939 60.52ZM71.6152 61.5431C71.6152 63.5892 69.7265 62.9597 69.4117 60.7561C69.1756 59.4969 69.4904 59.1821 70.356 59.4969C71.0643 59.733 71.6152 60.6774 71.6152 61.5431ZM99.1596 63.1171C100.419 65.3993 101.521 67.6816 101.521 68.2324C101.521 69.1768 94.6738 71.6165 91.9194 71.6165C90.1093 71.6165 90.1093 70.436 91.9981 66.5011C92.8637 64.7697 93.8868 62.4088 94.359 61.1496C94.8312 59.9691 95.5395 59.0248 96.0117 59.0248C96.4052 59.0248 97.8217 60.9135 99.1596 63.1171ZM67.3655 60.6774C67.6016 61.1496 67.2868 62.094 66.5785 62.8023C65.3981 63.9827 65.3194 63.904 65.3194 61.9366C65.3194 59.8117 66.3424 59.1034 67.3655 60.6774ZM76.4158 62.094C77.2028 62.881 78.7767 67.9177 78.3833 68.3111C78.1472 68.4685 76.7306 67.839 75.2353 66.8946C73.0318 65.5567 72.4022 64.691 72.4022 62.881C72.4022 60.7561 72.6383 60.52 74.2123 60.9922C75.1566 61.307 76.1797 61.7792 76.4158 62.094ZM91.4472 65.0058L89.9519 67.9964L88.614 65.478C86.9614 62.2514 86.9614 62.3301 89.9519 61.5431C93.0998 60.6774 93.3359 61.307 91.4472 65.0058ZM64.5324 64.4549C64.5324 65.7928 63.6667 67.4455 62.1714 68.862L59.8105 71.1443V67.5242C59.8105 64.691 60.204 63.6679 61.6205 62.7236C63.8241 61.2283 64.5324 61.7005 64.5324 64.4549ZM22.8223 68.862C23.688 69.8851 24.3963 72.3248 24.6324 75.5514C25.1046 80.352 25.0259 80.5881 23.9241 79.0928C21.5631 76.181 18.8874 69.5703 18.4152 65.6354L17.943 61.7792L19.6744 64.5336C20.6188 66.0289 22.0353 67.9964 22.8223 68.862ZM86.5679 64.6123C90.2667 69.7277 88.7714 72.4822 83.3412 70.7508C80.4294 69.8064 79.8785 69.2555 79.0128 66.1076C78.3833 64.1401 77.9111 62.4875 77.9111 62.4088C77.9111 62.3301 79.5637 62.3301 81.5312 62.4875C84.3643 62.6449 85.5448 63.1171 86.5679 64.6123ZM70.1199 64.1401C71.2217 65.1632 71.3004 65.8715 70.6708 68.4685C70.1986 70.1999 69.5691 71.6165 69.333 71.6165C69.0182 71.6165 68.1525 70.3573 67.4442 68.7833C66.4211 66.7372 66.2637 65.6354 66.8933 64.4549C67.9164 62.6449 68.3099 62.5662 70.1199 64.1401ZM112.932 66.4224C113.797 72.0887 112.853 74.4496 108.367 78.0697L104.275 81.2964L103.803 75.4727C103.409 70.7508 103.567 69.4916 104.511 68.9407C105.219 68.5472 107.029 67.052 108.525 65.6354C110.099 64.2188 111.594 62.9597 111.909 62.9597C112.224 62.9597 112.696 64.5336 112.932 66.4224ZM58.7087 68.2324C58.63 71.7739 58.4726 72.0887 55.246 73.8987C52.1767 75.5514 51.6259 75.6301 50.6815 74.607C49.6584 73.6626 49.6584 72.7969 50.3667 69.8064C51.2324 66.6585 51.6259 66.1076 54.1442 65.478C58.7874 64.2188 58.8661 64.2188 58.7087 68.2324ZM43.5986 67.9964C44.3856 69.4916 45.8809 71.5378 46.904 72.4822C50.288 75.6301 49.4223 76.4171 43.1265 76.181L37.3815 75.9449L37.6176 73.3478C38.0111 69.8064 39.9785 65.3206 41.159 65.3206C41.7099 65.3206 42.8117 66.5798 43.5986 67.9964ZM50.288 66.6585C50.288 67.052 49.8158 68.4685 49.2649 69.9638L48.3205 72.5608L46.1957 69.8064C45.0152 68.2324 44.0708 66.8159 44.0708 66.5798C44.0708 66.3437 45.4874 66.1076 47.2188 66.1076C48.9501 66.1076 50.3667 66.3437 50.288 66.6585ZM76.101 68.862C78.462 70.2786 78.6981 70.8295 78.6981 74.1348C78.6981 79.4863 76.888 80.2733 73.0318 76.5745C70.4347 74.0561 70.2773 73.5839 70.9856 71.3017C71.3791 69.9638 71.93 68.3898 72.0874 67.839C72.4022 66.6585 72.4809 66.6585 76.101 68.862ZM67.2081 70.8295C68.4673 73.4265 68.546 74.2922 67.759 75.7875C64.6111 81.4537 62.4075 81.6898 60.8336 76.3384C59.8105 72.9543 59.8892 72.7969 62.3288 70.2786C63.7454 68.862 65.0046 67.6816 65.2407 67.6816C65.5554 67.6816 66.4211 69.0981 67.2081 70.8295ZM102.622 74.2135C103.409 80.2733 102.386 82.2407 98.0578 83.3425C92.8637 84.6017 90.188 84.523 90.8176 82.949C91.0537 82.2407 91.2898 79.6437 91.2898 77.0466V72.4035H93.8868C95.2247 72.3248 97.5069 71.8526 98.7661 71.223C102.15 69.7277 102.071 69.649 102.622 74.2135ZM83.3412 74.9218C81.9247 76.1023 80.4294 77.1253 80.1146 77.1253C79.7211 77.1253 79.7211 71.7739 80.1933 71.0656C80.272 71.0656 81.5312 71.3804 83.1052 71.8526L86.017 72.7182L83.3412 74.9218ZM27.2294 72.4822C27.4655 72.9543 29.6691 74.2135 31.9513 75.2366C36.0436 77.0466 36.201 77.204 36.201 80.1946C36.201 81.9259 36.5945 84.2869 36.988 85.4674C37.4602 86.6478 37.6176 87.7496 37.3815 88.0644C37.0667 88.3005 34.9418 87.4348 32.5022 86.1756C27.7016 83.736 26.5998 81.8472 25.6554 75.3153C25.1046 71.7739 25.8915 70.3573 27.2294 72.4822ZM90.1093 74.7644C90.3454 76.0236 90.3454 78.6993 90.0306 80.6668C89.4797 84.3656 89.4797 84.3656 86.8827 83.8147C83.1839 83.1851 78.6981 81.2177 78.6981 80.2733C78.6981 79.8798 80.0359 78.6993 81.6886 77.5975C83.2625 76.5745 85.3087 75.0005 86.0957 74.0561C88.1418 71.7739 89.4797 72.01 90.1093 74.7644ZM60.3614 79.2502C59.9679 79.565 53.5146 76.9679 53.5146 76.4171C53.5146 76.181 54.6951 75.394 56.1117 74.6857L58.63 73.4265L59.6531 76.181C60.1253 77.6762 60.5188 79.0928 60.3614 79.2502ZM72.2448 77.3614C74.4483 79.6437 73.8188 80.2733 69.4904 80.2733H66.0276L67.8377 77.9123C69.8838 75.0792 70.1199 75.0792 72.2448 77.3614ZM55.4821 78.6206C57.6856 79.6437 59.8892 80.7455 60.5188 81.0603C62.8797 82.162 62.0927 83.2638 57.3708 85.7822C51.862 88.694 51.7046 88.6153 50.3667 82.0833C49.501 78.2271 49.8158 75.9449 50.9963 76.4958C51.3111 76.6532 53.3572 77.5975 55.4821 78.6206ZM48.8714 81.2964C49.1862 83.2638 49.8158 85.5461 50.288 86.333C50.7602 87.1987 50.8389 88.1431 50.6028 88.4579C50.3667 88.694 47.691 88.9301 44.7004 88.9301C38.562 88.9301 38.4046 88.7727 37.4602 81.4537L36.9093 77.4401L42.6543 77.6762L48.3992 77.8336L48.8714 81.2964ZM109.312 82.3194C107.816 84.7591 105.219 87.9857 103.567 89.4023C100.419 92.078 98.1365 93.0224 99.9466 90.9762C100.419 90.3466 101.442 88.2218 102.229 86.2543C103.173 83.6573 104.511 82.0833 107.423 80.1159C109.626 78.6206 111.515 77.5188 111.673 77.6762C111.83 77.7549 110.807 79.8798 109.312 82.3194ZM76.8093 81.2964C77.2028 82.3981 73.8188 89.0088 72.1661 90.4253C71.3791 91.0549 70.1986 90.268 67.2868 87.3561C64.2176 84.2082 63.6667 83.2638 64.4537 82.3981C64.9259 81.7685 65.9489 81.3751 66.7359 81.5324C67.4442 81.7685 69.4904 81.6111 71.2217 81.139C75.7075 80.1159 76.3371 80.1159 76.8093 81.2964ZM85.23 84.4443C87.2762 84.9165 88.9288 85.6248 88.9288 85.9395C88.9288 86.9626 85.7809 93.1011 84.443 94.5964C83.4199 95.7768 82.9478 95.7768 79.2489 94.6751C72.0874 92.5502 72.1661 92.6289 75.2353 88.0644C76.7306 85.8608 77.9111 83.6573 77.9111 83.2638C77.9111 82.7916 78.6194 82.7129 79.7211 83.0277C80.6655 83.3425 83.1052 83.9721 85.23 84.4443ZM100.025 88.4579C99.0809 90.3466 97.6643 92.4715 96.8773 93.1798C95.5395 94.439 86.8827 96.5638 86.1744 95.8555C85.9383 95.6981 86.9614 93.1798 88.3779 90.268L90.8963 85.0739L94.4377 84.9952C96.4052 84.9165 98.6874 84.6017 99.5531 84.2869C101.757 83.3425 101.914 84.523 100.025 88.4579ZM66.2637 88.1431C68.3886 90.3466 69.8838 92.4715 69.6478 92.865C69.333 93.3372 67.3655 94.7537 65.0833 96.0129C60.3614 98.6887 59.5744 98.4526 55.4821 93.1011L52.6489 89.4023L56.5051 87.6709C58.63 86.7265 60.6762 85.5461 60.9123 85.0739C61.7779 83.736 62.0927 83.8934 66.2637 88.1431ZM39.585 91.7632C39.9785 92.5502 41.2377 94.2029 42.3395 95.3833C43.4412 96.5638 44.1495 97.7443 43.9921 97.9804C42.733 99.1609 31.8726 90.8975 29.8265 87.1987C29.2756 86.1756 30.1412 86.333 33.9188 88.0644C36.5945 89.2449 39.1128 90.8975 39.585 91.7632ZM53.0424 91.8419C53.672 93.1011 55.0886 94.9111 56.1904 95.9342C57.2921 97.036 58.2365 98.1378 58.2365 98.5313C58.2365 98.8461 55.8756 99.1609 52.9637 99.1609C47.1401 99.0822 46.0383 98.5313 42.1821 93.4946L39.9785 90.5827L44.6217 90.268C47.1401 90.1106 49.8158 89.9532 50.5241 89.8745C51.3111 89.7958 52.4128 90.6614 53.0424 91.8419ZM74.7631 94.439C76.4945 95.3046 78.5407 96.0129 79.4063 96.0129C82.2395 96.0129 81.9247 97.5082 78.5407 99.9478C74.0549 103.174 72.3235 103.489 67.6803 101.837C62.014 99.7904 61.5418 98.9248 65.3194 97.1934C67.0507 96.4064 69.0182 95.1472 69.7265 94.3603C71.3791 92.5502 71.0643 92.5502 74.7631 94.439ZM92.785 97.2721C90.975 99.3969 84.2069 102.387 80.0359 102.86C75.9436 103.253 75.9436 103.253 77.9111 101.915C79.0128 101.128 80.7442 99.7117 81.846 98.6887C83.1839 97.4295 85.0726 96.7999 87.7483 96.5638C89.9519 96.4064 92.1554 96.249 92.785 96.1703C93.6507 96.0129 93.6507 96.249 92.785 97.2721ZM68.2312 103.096C68.8608 103.096 69.0969 103.489 68.7821 103.961C67.9164 105.378 57.4495 104.276 53.4359 102.466L49.9732 100.892L53.1211 100.735C54.8525 100.656 57.1347 100.341 58.2365 100.027C59.5744 99.633 61.227 100.027 63.6667 101.286C65.5554 102.309 67.6016 103.096 68.2312 103.096Z" fill="white"/>
</svg>
