<svg width="199" height="111" viewBox="0 0 199 111" fill="none" xmlns="http://www.w3.org/2000/svg">
<path d="M53.4667 34.133C51.7334 35.333 49.4667 38.3997 48.5334 40.933C46.8 44.933 46.8 45.9997 49.0667 51.0663C51.3334 56.133 67.8667 73.333 70.5334 73.333C72.4 73.333 87.7334 58.6663 90.5334 54.133C96.9334 43.8663 91.3334 31.9997 80.1334 31.9997C76.2667 31.9997 74.2667 32.7997 72.8 34.7997L70.9334 37.5997L68.1334 34.7997C64.8 31.4663 57.8667 31.0663 53.4667 34.133ZM66.6667 38.2663C70.1334 40.2663 70.6667 40.2663 75.3334 38.133C79.3334 36.2663 81.0667 35.9997 83.4667 37.1997C87.6 39.0663 89.8667 44.133 88.8 48.6663C87.6 53.333 74.1334 66.6663 70.6667 66.6663C67.6 66.6663 54 53.4663 52.6667 49.1997C51.4667 45.5997 53.8667 41.1997 58.4 38.2663C62.8 35.5997 62.1334 35.5997 66.6667 38.2663Z" fill="white"/>
<path d="M9.33337 50.6667C9.33337 64.9334 9.86671 65.8667 16.1334 62.6667C18.4 61.4667 18.6667 59.7334 18.6667 49.3334V37.3334H14H9.33337V50.6667Z" fill="white"/>
<path d="M103.467 39.4665C100.4 42.3998 100.8 46.7998 104.667 51.9998C109.067 57.8665 108.933 59.0665 104 58.3998C98.2667 57.5998 99.2 61.4665 104.933 63.1998C108.267 64.1331 110 63.8665 112.667 62.1331C116.933 59.3331 116.933 55.4665 112.533 49.1998C108.8 43.7331 109.067 41.1998 113.333 42.2665C116.8 43.1998 116.8 40.5331 113.467 38.6665C109.733 36.7998 105.867 37.0665 103.467 39.4665Z" fill="white"/>
<path d="M174.667 48.6667C174.667 55.7334 174.267 57.4667 172.133 58.6667C166.933 61.3334 165.333 60.4 165.333 54.5334C165.333 49.7334 165.6 49.0667 168 49.7334C170 50.2667 170.667 49.7334 170.667 47.6C170.667 44.8 170 44.6667 157.2 44.2667C148.4 44 143.067 44.4 141.867 45.4667C140.8 46.4 140 49.4667 140 52.8C140 57.0667 139.467 58.6667 138 58.6667C136.533 58.6667 136 57.0667 136 52.1334C136 44.6667 135.467 44.2667 124.667 44.1334L118 44V55.2C118 66.4 118 66.4 121.733 66.9334C124.8 67.4667 125.333 67.0667 125.333 64.4C125.333 61.7334 125.6 61.6 128.533 62.8C131.067 64 132.667 63.8667 136.133 62.1334C138.667 60.9334 140.8 60.5334 141.2 61.2C141.733 61.8667 143.6 62.8 145.6 63.3334C150.667 64.6667 155.2 60 154 54.6667C153.333 51.6 153.733 50.5334 155.867 49.3334C158.533 48 158.667 48.2667 158.667 54.5334C158.667 59.7334 159.2 61.6 161.067 62.5334C163.733 63.8667 168.8 63.2 171.6 61.0667C172.667 60.1334 174 60.4 175.333 61.8667C178 64.5334 179.067 64.5334 184 62C188.667 59.6 189.333 56.9334 184.933 58C182.133 58.8 182 58.4 182.4 53.4667C182.667 50.4 183.467 48 184.133 48C184.8 48 185.333 47.0667 185.333 46C185.333 44.9334 184.8 44 184 44C183.333 44 182.667 43.0667 182.667 42C182.667 40.6667 181.333 40 178.667 40H174.667V48.6667ZM129.067 54C128.533 61.4667 125.333 61.7334 125.333 54.2667C125.333 51.0667 125.733 48 126.267 47.6C128 45.7334 129.467 49.0667 129.067 54ZM150.667 49.2C152.533 52.8 152.4 58 150.267 59.8667C147.6 62 146.667 60.2667 146.667 53.0667C146.667 46.4 148.267 44.8 150.667 49.2Z" fill="white"/>
<path d="M24.2667 45.5999C22.5333 47.3332 22.1333 58.3999 23.7333 60.9332C24.2667 61.7332 26.2667 62.7999 28.2667 63.3332C33.2 64.5332 37.8667 59.8665 36.8 54.6665C36.2667 51.7332 36.8 50.3999 39.0667 48.7999C41.6 47.0665 41.7333 46.5332 40 45.4665C37.2 43.4665 26.2667 43.5999 24.2667 45.5999ZM33.3333 49.1999C35.2 52.7999 35.0667 57.9999 32.9333 59.8665C30.2667 61.9999 29.3333 60.2665 29.3333 53.0665C29.3333 46.3999 30.9333 44.7999 33.3333 49.1999Z" fill="white"/>
<path d="M41.3334 57.733C41.3334 64.2663 38.6667 67.0663 31.2001 68.133L24.6667 68.933L30.8001 69.1997C35.6001 69.333 37.4667 68.6663 39.6001 66.2663C42.2667 63.333 44.5334 53.333 42.4001 53.333C41.8667 53.333 41.3334 55.333 41.3334 57.733Z" fill="white"/>
<path d="M193.467 58.1332C193.2 62.2665 187.333 67.0665 180.933 68.1332L175.333 68.9332L180.667 69.1999C187.867 69.3332 195.2 63.5999 194.267 58.6665C193.867 55.9999 193.6 55.8665 193.467 58.1332Z" fill="white"/>
<path d="M90.9334 62.4001C88.6668 65.2001 83.2001 70.1334 78.8001 73.3334C74.4001 76.5334 71.0668 79.4667 71.3334 79.7334C72.8001 81.3334 92.0001 64.9334 94.8001 59.7334C96.9334 55.7334 95.2001 57.0667 90.9334 62.4001Z" fill="white"/>
<path d="M154 66.6665C153.6 67.3331 150.667 68.1331 147.6 68.2665C142.4 68.3998 142.267 68.3998 146.533 68.9331C151.867 69.5998 157.333 68.3998 157.333 66.6665C157.333 64.9331 155.067 64.9331 154 66.6665Z" fill="white"/>
<path d="M135.333 67.6004C133.2 68.0004 130.4 69.067 129.333 70.0004C128.267 71.067 124.667 72.0004 121.333 72.4004L115.333 72.9337L122.133 73.067C126.8 73.2004 129.467 72.667 130.667 71.3337C131.6 70.267 133.6 69.3337 135.2 69.3337C136.667 69.3337 138.933 68.667 140 68.0004C141.067 67.3337 141.467 66.8004 140.667 66.9337C140 66.9337 137.6 67.3337 135.333 67.6004Z" fill="white"/>
</svg>
