<svg width="54" height="54" viewBox="0 0 54 54" fill="none" xmlns="http://www.w3.org/2000/svg">
<path d="M26.7927 6.71191L7.79395 13.398L10.796 38.2898L26.8129 47.0931L42.9124 38.1705L45.9135 13.2795L26.7927 6.71191Z" fill="#B3B3B3"/>
<path d="M44.0193 14.7183L26.749 8.8291V44.99L41.2224 36.9802L44.0193 14.7183Z" fill="#AF2B2D"/>
<path d="M9.9248 14.8254L12.4973 37.0871L26.7472 44.9907V8.8291L9.9248 14.8254Z" fill="#DF2E31"/>
<path d="M30.751 26.8153L26.7793 18.5213L23.2829 26.8153H30.751ZM32.2652 30.3027H21.7373L19.3821 36.1937L15.001 36.2748L26.7479 10.1426L38.9043 36.2746H34.8437L32.2652 30.3026V30.3027Z" fill="#F2F2F2"/>
<path d="M26.749 10.1426L26.7803 18.5213L30.748 26.8216H26.758L26.749 30.2973L32.2662 30.3027L34.8448 36.2758L39.0367 36.3535L26.749 10.1426Z" fill="#B3B3B3"/>
</svg>
