<svg width="35" height="49" viewBox="0 0 35 49" fill="none" xmlns="http://www.w3.org/2000/svg">
<g clipPath="url(#clip0_2041_41165)">
<path d="M30.9537 44.8189L17.1589 48.5333L3.36396 44.8189L0.180664 10.332H34.1374L30.9537 44.8189Z" fill="#2062AF"/>
<path d="M17.1592 13.125V45.5704L17.1904 45.5789L28.3539 42.5728L30.9306 13.125H17.1592Z" fill="#3C9CD7"/>
<path d="M9.3291 5.26554V3.21289H12.3239V0.966797H7.08301V7.31516H12.3239V5.26554H9.3291ZM17.7113 3.21289H19.8051V0.966797H14.5636V3.21289C15.2649 3.91412 15.6306 4.24975 16.6447 5.26392C16.0519 5.26392 14.5636 5.26595 14.5636 5.26595V7.31516H19.8051V5.26554L17.7113 3.21289ZM25.1401 3.21289H27.2337V0.966797H21.9921V3.21289C22.6933 3.91412 23.0592 4.24975 24.0734 5.26392C23.4808 5.26392 21.9921 5.26595 21.9921 5.26595V7.31516H27.2338V5.26554L25.1401 3.21289Z" fill="white"/>
<path d="M17.1458 21.7492L7.27246 25.8612L7.59989 29.9324L17.1458 25.8509L27.3002 21.5094L27.7212 17.3447L17.1458 21.7492Z" fill="white"/>
<path d="M7.27246 25.861L7.59989 29.9322L17.1458 25.8507V21.749L7.27246 25.861Z" fill="url(#paint0_linear_2041_41165)"/>
<path d="M27.7219 17.3447L17.1465 21.7491V25.8508L27.3009 21.5093L27.7219 17.3447Z" fill="url(#paint1_linear_2041_41165)"/>
<path d="M7.28809 25.8604L7.61561 29.9315L22.2626 29.9782L21.935 35.4064L17.1153 36.7633L12.4821 35.5935L12.2014 32.2242H7.89635L8.45792 38.7286L17.1621 41.3023L25.819 38.7753L26.9421 25.8604H7.28809Z" fill="url(#paint2_linear_2041_41165)"/>
<path opacity="0.05" d="M17.1458 25.8604H7.27246L7.59989 29.9315L17.1458 29.962V25.8604ZM17.1458 36.7503L17.099 36.7634L12.4665 35.5936L12.1857 32.2243H7.88082L8.4423 38.7287L17.1458 41.3024V36.7503Z" fill="white"/>
<path d="M6.38477 17.3447H27.7227L27.3017 21.5094H6.89945L6.38477 17.3447Z" fill="url(#paint3_linear_2041_41165)"/>
<path opacity="0.05" d="M17.1473 17.3447H6.38477L6.89945 21.5094H17.1473V17.3447Z" fill="white"/>
</g>
<defs>
<linearGradient id="paint0_linear_2041_41165" x1="12.2091" y1="29.9323" x2="12.2091" y2="21.7491" gradientUnits="userSpaceOnUse">
<stop offset="0.387" stop-color="#D1D3D4" stop-opacity="0"/>
<stop offset="1" stop-color="#D1D3D4"/>
</linearGradient>
<linearGradient id="paint1_linear_2041_41165" x1="22.4341" y1="25.8509" x2="22.4341" y2="17.3448" gradientUnits="userSpaceOnUse">
<stop offset="0.387" stop-color="#D1D3D4" stop-opacity="0"/>
<stop offset="1" stop-color="#D1D3D4"/>
</linearGradient>
<linearGradient id="paint2_linear_2041_41165" x1="7.28809" y1="33.5814" x2="26.942" y2="33.5814" gradientUnits="userSpaceOnUse">
<stop stop-color="#E8E7E5"/>
<stop offset="1" stop-color="white"/>
</linearGradient>
<linearGradient id="paint3_linear_2041_41165" x1="6.38477" y1="19.4271" x2="27.7226" y2="19.4271" gradientUnits="userSpaceOnUse">
<stop stop-color="#E8E7E5"/>
<stop offset="1" stop-color="white"/>
</linearGradient>
<clipPath id="clip0_2041_41165">
<rect x="0.25" y="0.75" width="33.8182" height="48" rx="11.25" fill="white"/>
</clipPath>
</defs>
</svg>
