<?xml version="1.0" encoding="UTF-8"?>
<svg version="1.1" xmlns="http://www.w3.org/2000/svg" width="360" height="360">
<path d="M0 0 C118.8 0 237.6 0 360 0 C360 118.8 360 237.6 360 360 C241.2 360 122.4 360 0 360 C0 241.2 0 122.4 0 0 Z " fill="#FDD851" transform="translate(0,0)"/>
<path d="M0 0 C5.63265306 5.63265306 5.63265306 5.63265306 8.015625 8.3828125 C8.80211426 9.28918457 8.80211426 9.28918457 9.60449219 10.21386719 C10.41901855 11.15987793 10.41901855 11.15987793 11.25 12.125 C11.82137695 12.78661133 12.39275391 13.44822266 12.98144531 14.12988281 C17.75314349 19.67406501 22.40344865 25.30984535 27 31 C31.73122455 36.82435946 36.50419652 42.60474156 41.375 48.3125 C45.1578115 52.74861042 48.80541537 57.26593162 52.375 61.875 C56.84996189 67.64745039 61.5582309 73.17758426 66.37011719 78.67089844 C70.03012145 82.85594814 73.54907013 87.12287526 76.98828125 91.4921875 C79.37093089 94.46240316 81.83857627 97.35600849 84.3125 100.25 C88.11755003 104.70629393 91.7879889 109.24172304 95.375 113.875 C99.84984563 119.64753471 104.55823743 125.17759172 109.37011719 130.67089844 C113.03012145 134.85594814 116.54907013 139.12287526 119.98828125 143.4921875 C122.37093089 146.46240316 124.83857627 149.35600849 127.3125 152.25 C131.11755003 156.70629393 134.7879889 161.24172304 138.375 165.875 C142.84984563 171.64753471 147.55823743 177.17759172 152.37011719 182.67089844 C156.01911102 186.84335821 159.52873365 191.09648242 162.95703125 195.453125 C165.97240259 199.21224951 169.10068885 202.87366974 172.23291016 206.53564453 C174.58500243 209.29294706 176.86837082 212.06812465 179 215 C182.66164353 213.51093163 184.4524916 211.52454864 186.875 208.4375 C187.65875 207.45394531 188.4425 206.47039062 189.25 205.45703125 C189.68441406 204.90869629 190.11882812 204.36036133 190.56640625 203.79541016 C193.29804437 200.37434975 196.09014296 197.00275722 198.875 193.625 C199.47658936 192.89361816 200.07817871 192.16223633 200.69799805 191.40869141 C204.32227928 187.0092072 207.98591657 182.64701056 211.6875 178.3125 C215.96490674 173.30247276 220.0406042 168.15626255 224.08227539 162.95507812 C227.25733888 158.88971931 230.58255217 155.0113827 234.05078125 151.19140625 C237.00471307 147.87045284 239.77856382 144.40821443 242.578125 140.95703125 C245.203256 137.75183098 247.87692826 134.59199576 250.5625 131.4375 C254.43139008 126.88867958 258.19778842 122.27492282 261.90625 117.59375 C264.85083084 113.94598567 267.89451533 110.3854602 270.93359375 106.81640625 C273.67774533 103.58575688 276.36747809 100.32301946 279 97 C282.5275617 92.54906837 286.18022043 88.21680023 289.85888672 83.89111328 C294.30991692 78.65125391 298.66343348 73.33491277 303 68 C308.26021729 61.52879744 313.58156873 55.11861568 318.98388672 48.76611328 C322.37643372 44.76559146 325.66140872 40.6902782 328.91796875 36.578125 C331.33084176 33.59032727 333.8180017 30.66947398 336.3125 27.75 C340.25923834 23.1263041 344.07533217 18.41959098 347.8125 13.625 C351.43267708 8.98146703 355.04801029 4.36798862 359 0 C359.33 0 359.66 0 360 0 C360 76.56 360 153.12 360 232 C241.2 232 122.4 232 0 232 C0 155.44 0 78.88 0 0 Z " fill="#F8F8F6" transform="translate(0,128)"/>
<path d="M0 0 C118.8 0 237.6 0 360 0 C353.90716439 8.12378082 347.5914262 15.97120307 341.00512695 23.6940918 C336.7613057 28.67061596 332.62989106 33.70386143 328.625 38.875 C324.15003811 44.64745039 319.4417691 50.17758426 314.62988281 55.67089844 C310.97298525 59.85239577 307.45741716 64.11616306 304.01953125 68.48046875 C301.58819296 71.51376313 299.0814376 74.47688567 296.5625 77.4375 C291.63418811 83.23232827 286.7983975 89.09693545 282 95 C276.73978271 101.47120256 271.41843127 107.88138432 266.01611328 114.23388672 C262.62356628 118.23440854 259.33859128 122.3097218 256.08203125 126.421875 C253.66915993 129.40967063 251.18207081 132.33058962 248.6875 135.25 C244.77700658 139.82913406 241.00560561 144.49400999 237.3125 149.25 C233.68157725 153.92305547 229.93618115 158.4164226 225.95703125 162.80078125 C222.15438992 167.07400894 218.59896268 171.55531195 215 176 C209.76650772 182.44122127 204.4731345 188.8238091 199.09960938 195.14819336 C195.32958727 199.59228587 191.62918415 204.09035106 187.94921875 208.609375 C185.65397477 211.42438365 183.33260241 214.21592616 181 217 C176.91971842 215.44741026 174.62268726 212.53682347 171.9375 209.25 C171.45780762 208.67362793 170.97811523 208.09725586 170.48388672 207.50341797 C166.65182992 202.87067023 162.95800169 198.13336647 159.27392578 193.3828125 C155.23274139 188.21009648 150.95414743 183.26574027 146.62988281 178.32910156 C142.96987855 174.14405186 139.45092987 169.87712474 136.01171875 165.5078125 C133.62906911 162.53759684 131.16142373 159.64399151 128.6875 156.75 C124.88244997 152.29370607 121.2120111 147.75827696 117.625 143.125 C113.15015437 137.35246529 108.44176257 131.82240828 103.62988281 126.32910156 C99.96987855 122.14405186 96.45092987 117.87712474 93.01171875 113.5078125 C90.62906911 110.53759684 88.16142373 107.64399151 85.6875 104.75 C81.88244997 100.29370607 78.2120111 95.75827696 74.625 91.125 C70.15015437 85.35246529 65.44176257 79.82240828 60.62988281 74.32910156 C56.96987855 70.14405186 53.45092987 65.87712474 50.01171875 61.5078125 C47.62906911 58.53759684 45.16142373 55.64399151 42.6875 52.75 C38.88245198 48.29370843 35.21197043 43.75830579 31.625 39.125 C27.73597995 34.10736047 23.68834104 29.27027792 19.5 24.5 C12.63201416 16.67571233 5.78177755 8.67266632 0 0 Z " fill="#FDB313" transform="translate(0,127)"/>
<path d="M0 0 C118.8 0 237.6 0 360 0 C360 41.91 360 83.82 360 127 C356.55018381 123.55018381 353.86996165 120.66511569 351.0625 116.8125 C347.13792488 111.50124167 343.12574616 106.26841466 339.0625 101.0625 C335.02591499 95.88685473 330.99588072 90.70715264 327 85.5 C318.71725662 74.71885534 310.40879896 63.95905403 301.875 53.375 C294.98349979 44.81963524 288.0966901 36.14503514 282 27 C280.11204421 26.3752004 280.11204421 26.3752004 277.86865234 26.19799805 C276.98593658 26.09397171 276.10322083 25.98994537 275.1937561 25.88276672 C274.20942596 25.78094589 273.22509583 25.67912506 272.2109375 25.57421875 C271.1632016 25.45487473 270.1154657 25.3355307 269.03598022 25.21257019 C266.67028824 24.94493385 264.303864 24.68372058 261.93688965 24.42767334 C257.73769364 23.97150506 253.54117715 23.4947644 249.34472656 23.01416016 C241.41516315 22.10889604 233.48300713 21.22844522 225.54980469 20.35571289 C221.40993065 19.90004987 217.27084017 19.43761951 213.13187599 18.97377491 C209.89616565 18.61236977 206.65993 18.25585159 203.42353439 17.90064049 C201.89649918 17.73221131 200.36965868 17.56200557 198.84303665 17.3898716 C196.71441477 17.15032162 194.58513117 16.91776502 192.45556641 16.68676758 C191.25332428 16.55369705 190.05108215 16.42062653 188.81240845 16.28352356 C180.9904381 15.70181441 173.38888238 16.01388748 165.60644531 16.90209961 C164.72704788 16.99802902 163.84765045 17.09395844 162.94160461 17.1927948 C160.06984039 17.50741162 157.19900188 17.8297387 154.328125 18.15234375 C152.31659582 18.37457785 150.30501861 18.59637756 148.293396 18.81776428 C144.09382357 19.28105035 139.89466385 19.74785831 135.69580078 20.2175293 C130.32088495 20.8187081 124.94530607 21.41367938 119.56944656 22.00635433 C114.42626368 22.57366787 109.28343648 23.14417499 104.140625 23.71484375 C103.16413246 23.82290785 102.18763992 23.93097195 101.1815567 24.04231071 C98.41282976 24.34927744 95.64436777 24.65852773 92.87597656 24.96850586 C91.65552391 25.10337402 91.65552391 25.10337402 90.41041565 25.2409668 C88.27192222 25.48175626 86.13590034 25.73732924 84 26 C82.87760925 26.13430923 81.75521851 26.26861847 80.59881592 26.40699768 C76.79437206 27.27510227 75.30351139 29.76048522 73.1875 32.8125 C72.76009521 33.39781494 72.33269043 33.98312988 71.89233398 34.58618164 C71.00903686 35.79702458 70.13249362 37.01282262 69.26269531 38.23339844 C67.4045665 40.83305429 65.48300096 43.38371557 63.5625 45.9375 C62.82902344 46.91976562 62.09554687 47.90203125 61.33984375 48.9140625 C58.36520904 52.83720343 55.30947207 56.69273838 52.24658203 60.54711914 C48.17371901 65.70431582 44.30958784 71.0042032 40.52783203 76.37817383 C39.3991185 77.95371352 38.20528389 79.4822351 37 81 C36.34 81 35.68 81 35 81 C34.73123047 81.57073242 34.46246094 82.14146484 34.18554688 82.72949219 C32.03979518 86.8389425 29.20495267 90.49475118 26.5 94.25 C25.60861328 95.51070312 25.60861328 95.51070312 24.69921875 96.796875 C24.12816406 97.5909375 23.55710937 98.385 22.96875 99.203125 C22.44732422 99.93176758 21.92589844 100.66041016 21.38867188 101.41113281 C20.93041016 101.93545898 20.47214844 102.45978516 20 103 C19.34 103 18.68 103 18 103 C17.731875 103.7425 17.46375 104.485 17.1875 105.25 C16.04723249 107.89061949 14.90619694 109.85552844 13 112 C12.34 112 11.68 112 11 112 C10.73058594 112.57621094 10.46117187 113.15242188 10.18359375 113.74609375 C8.9793982 116.03923181 7.62488595 117.99919642 6.0625 120.0625 C5.55847656 120.73410156 5.05445313 121.40570313 4.53515625 122.09765625 C3 124 3 124 0 127 C0 85.09 0 43.18 0 0 Z " fill="#F4F5F4" transform="translate(0,0)"/>
<path d="M0 0 C4.28642324 1.66463038 7.08617217 4.79075837 10.25 8 C10.80429688 8.5465625 11.35859375 9.093125 11.9296875 9.65625 C16 13.7466133 16 13.7466133 16 16 C16.66 16 17.32 16 18 16 C19.375 17.3984375 19.375 17.3984375 21 19.375 C24.76222012 23.82921409 28.86058282 27.85683532 33.05859375 31.8984375 C35 34 35 34 35 36 C35.66 36 36.32 36 37 36 C38.375 37.3984375 38.375 37.3984375 40 39.375 C43.76222012 43.82921409 47.86058282 47.85683532 52.05859375 51.8984375 C54 54 54 54 54 56 C54.66 56 55.32 56 56 56 C57.375 57.3984375 57.375 57.3984375 59 59.375 C62.76222012 63.82921409 66.86058282 67.85683532 71.05859375 71.8984375 C73 74 73 74 73 76 C73.66 76 74.32 76 75 76 C76.375 77.3984375 76.375 77.3984375 78 79.375 C81.76222012 83.82921409 85.86058282 87.85683532 90.05859375 91.8984375 C92 94 92 94 92 96 C92.66 96 93.32 96 94 96 C94 96.66 94 97.32 94 98 C94.66 98 95.32 98 96 98 C97.5859375 99.57421875 97.5859375 99.57421875 99.375 101.6875 C99.96023438 102.37199219 100.54546875 103.05648437 101.1484375 103.76171875 C103.12602399 106.15234545 105.06183951 108.57729939 107 111 C37.04 111 -32.92 111 -105 111 C-98.23442136 103.10682493 -98.23442136 103.10682493 -95.703125 100.38671875 C-95.14181885 99.78351807 -94.5805127 99.18031738 -94.00219727 98.55883789 C-93.13485962 97.63252563 -93.13485962 97.63252563 -92.25 96.6875 C-91.64019287 96.03450928 -91.03038574 95.38151855 -90.40209961 94.70874023 C-86.07762184 90.09804621 -81.64728435 85.62029685 -77.1484375 81.1796875 C-75.23729194 79.24074346 -73.45056573 77.26017728 -71.6875 75.1875 C-68.4776108 71.42865112 -65.01209878 67.97257593 -61.5 64.5 C-58.05061558 61.08930207 -54.63880055 57.70378465 -51.5 54 C-47.83610259 49.67660106 -43.78628354 45.76062019 -39.76000977 41.77954102 C-36.29613554 38.33963479 -33.02875066 34.8144615 -29.87109375 31.08984375 C-26.86056104 27.72734897 -23.61874836 24.59888032 -20.40869141 21.42822266 C-17.01871681 18.06382473 -13.82969191 14.59632712 -10.734375 10.95703125 C-7.34112633 7.12816282 -3.65329705 3.57873997 0 0 Z " fill="#FDEFBF" transform="translate(179,16)"/>
<path d="M0 0 C0.70254913 -0.00014603 1.40509827 -0.00029205 2.12893677 -0.0004425 C4.45561795 0.00025525 6.78221949 0.0080412 9.10888672 0.01586914 C10.72028561 0.01773381 12.33168506 0.01915748 13.94308472 0.02015686 C18.18786174 0.02397819 22.43260464 0.03380521 26.67736816 0.04486084 C31.0074009 0.05508321 35.33743915 0.05965625 39.66748047 0.06469727 C48.16619406 0.07542781 56.6648799 0.09249964 65.16357422 0.11352539 C64.2092255 1.39033681 63.25427494 2.66669841 62.29907227 3.94287109 C61.76734909 4.65369339 61.23562592 5.36451569 60.68778992 6.09687805 C56.08473987 12.18704537 51.12110758 18.00058016 46.16870117 23.80761719 C41.92487992 28.78414135 37.79346527 33.81738682 33.78857422 38.98852539 C29.31361232 44.76097578 24.60534332 50.29110965 19.79345703 55.78442383 C16.13655947 59.96592116 12.62099138 64.22968845 9.18310547 68.59399414 C6.75176718 71.62728852 4.24501182 74.59041106 1.72607422 77.55102539 C-3.20223767 83.34585366 -8.03802829 89.21046085 -12.83642578 95.11352539 C-18.09664307 101.58472795 -23.41799451 107.99490971 -28.8203125 114.34741211 C-32.2128595 118.34793393 -35.4978345 122.42324719 -38.75439453 126.53540039 C-41.16726585 129.52319602 -43.65435497 132.44411501 -46.14892578 135.36352539 C-50.05941921 139.94265945 -53.83082018 144.60753538 -57.52392578 149.36352539 C-61.15484853 154.03658086 -64.90024463 158.52994799 -68.87939453 162.91430664 C-72.68203587 167.18753433 -76.2374631 171.66883735 -79.83642578 176.11352539 C-85.06952342 182.55426095 -90.35949464 188.93910598 -95.73681641 195.25952148 C-99.48560017 199.67396481 -103.14309478 204.15758407 -106.76611328 208.67602539 C-108.99541197 211.30070913 -111.37241526 213.70961268 -113.83642578 216.11352539 C-112.15692386 211.74512394 -110.2070305 207.5309248 -108.21142578 203.30102539 C-107.75316406 202.31972656 -107.75316406 202.31972656 -107.28564453 201.31860352 C-103.61186881 193.51364522 -99.7069832 185.82202752 -95.83642578 178.11352539 C-92.41665214 171.29741311 -88.99901349 164.4802331 -85.58325195 157.66210938 C-84.54979983 155.60022111 -83.51562865 153.53869308 -82.48071289 151.47753906 C-76.48062047 139.52596498 -70.57483249 127.53883637 -64.83280945 115.46104431 C-60.69944676 106.78334086 -56.41493368 98.18606471 -52.09008789 89.60253906 C-45.99223888 77.49590408 -39.93634896 65.37810724 -34.15917969 53.11450195 C-28.47158526 41.11844509 -22.44516413 29.28517892 -16.47509766 17.42797852 C-15.8301384 16.1444046 -15.8301384 16.1444046 -15.17214966 14.8348999 C-14.35593561 13.21068317 -13.53803648 11.58731184 -12.7182312 9.96490479 C-12.35295319 9.23761169 -11.98767517 8.5103186 -11.61132812 7.76098633 C-11.29142914 7.12642517 -10.97153015 6.49186401 -10.64193726 5.83807373 C-9.71369913 3.93695491 -9.71369913 3.93695491 -8.83642578 1.11352539 C-5.89395851 -0.35770825 -3.28457556 -0.00572226 0 0 Z " fill="#EB7008" transform="translate(294.83642578125,126.886474609375)"/>
<path d="M0 0 C9.35308865 -0.02313952 18.70616749 -0.04092333 28.05927849 -0.05181217 C32.4019967 -0.05703746 36.74469538 -0.06412873 41.08740234 -0.07543945 C45.27598387 -0.08628085 49.46454656 -0.09227951 53.65314102 -0.09487724 C55.25357485 -0.09672922 56.8540076 -0.10034552 58.45443344 -0.10573006 C60.69083661 -0.1129571 62.92716131 -0.11399023 65.16357422 -0.11352539 C66.43820526 -0.115746 67.7128363 -0.11796661 69.02609253 -0.12025452 C72 0 72 0 74 1 C75.078125 2.89160156 75.078125 2.89160156 76.25 5.390625 C76.68852295 6.31738037 77.1270459 7.24413574 77.57885742 8.19897461 C78.282323 9.70923218 78.282323 9.70923218 79 11.25 C79.73150269 12.79989624 79.73150269 12.79989624 80.4777832 14.38110352 C81.49234353 16.53107934 82.50443442 18.68222206 83.51416016 20.83447266 C85.72399614 25.54244725 87.95480004 30.24033804 90.1875 34.9375 C90.55423828 35.71448242 90.92097656 36.49146484 91.29882812 37.29199219 C94.65463437 44.36963938 98.16501936 51.36848752 101.67904663 58.36837769 C105.93422443 66.84560413 110.18242502 75.32633442 114.42967701 83.80753422 C116.02520002 86.99340688 117.6214801 90.17889552 119.21948242 93.36352539 C125.98433131 106.84640558 132.69298387 120.34904644 139.16523743 133.97572327 C143.10620073 142.26222252 147.19267034 150.47073567 151.32293701 158.66418457 C158.33478072 172.57879483 165.23527299 186.53397808 171.85839844 200.63867188 C173.54279513 204.1227362 175.35125257 207.54246214 177.16650391 210.95996094 C177.44155762 211.63317383 177.71661133 212.30638672 178 213 C177.67 213.66 177.34 214.32 177 215 C171.40073988 208.4801652 165.88531535 201.92255877 160.625 195.125 C156.15028117 189.35236996 151.44175643 183.82240127 146.62988281 178.32910156 C142.96987855 174.14405186 139.45092987 169.87712474 136.01171875 165.5078125 C133.62906911 162.53759684 131.16142373 159.64399151 128.6875 156.75 C124.88244997 152.29370607 121.2120111 147.75827696 117.625 143.125 C113.15015437 137.35246529 108.44176257 131.82240828 103.62988281 126.32910156 C99.96987855 122.14405186 96.45092987 117.87712474 93.01171875 113.5078125 C90.62906911 110.53759684 88.16142373 107.64399151 85.6875 104.75 C81.88244997 100.29370607 78.2120111 95.75827696 74.625 91.125 C70.15015437 85.35246529 65.44176257 79.82240828 60.62988281 74.32910156 C56.96987855 70.14405186 53.45092987 65.87712474 50.01171875 61.5078125 C47.62906911 58.53759684 45.16142373 55.64399151 42.6875 52.75 C38.88245198 48.29370843 35.21197043 43.75830579 31.625 39.125 C27.73597995 34.10736047 23.68834104 29.27027792 19.5 24.5 C12.63201416 16.67571233 5.78177755 8.67266632 0 0 Z " fill="#ED7F21" transform="translate(0,127)"/>
<path d="M0 0 C9.83336909 -0.29335056 19.43245253 0.62615073 29.18359375 1.71484375 C30.81350893 1.89230764 32.44347938 2.06926466 34.07350159 2.2457428 C37.46505302 2.61425189 40.85610913 2.98692924 44.24682617 3.36303711 C48.58586788 3.84426642 52.92570242 4.31782559 57.26588345 4.78865719 C60.62127752 5.15299826 63.97639028 5.51987328 67.33140755 5.8876667 C68.93210147 6.06312095 70.53284338 6.23813797 72.13363457 6.41270256 C74.36596777 6.65682009 76.59794169 6.90398728 78.82983398 7.15209961 C80.09713852 7.29199814 81.36444305 7.43189667 82.67015076 7.57603455 C85.48777151 7.93478168 88.22639009 8.39575892 91 9 C91.0501123 10.14436523 91.10022461 11.28873047 91.15185547 12.46777344 C92.18895869 36.0693572 93.32528504 59.6606036 94.67556763 83.24633789 C95.16484734 91.82848634 95.59010335 100.41374395 96 109 C92.60140297 107.53033642 90.35036291 105.61962486 87.75 103 C86.69039062 101.948125 86.69039062 101.948125 85.609375 100.875 C84 99 84 99 84 97 C83.34 97 82.68 97 82 97 C82 96.34 82 95.68 82 95 C81.34 95 80.68 95 80 95 C78.625 93.6015625 78.625 93.6015625 77 91.625 C73.23777988 87.17078591 69.13941718 83.14316468 64.94140625 79.1015625 C63 77 63 77 63 75 C62.34 75 61.68 75 61 75 C59.625 73.6015625 59.625 73.6015625 58 71.625 C54.23777988 67.17078591 50.13941718 63.14316468 45.94140625 59.1015625 C44 57 44 57 44 55 C43.34 55 42.68 55 42 55 C40.625 53.6015625 40.625 53.6015625 39 51.625 C35.23777988 47.17078591 31.13941718 43.14316468 26.94140625 39.1015625 C25 37 25 37 25 35 C24.34 35 23.68 35 23 35 C21.625 33.6015625 21.625 33.6015625 20 31.625 C16.23777988 27.17078591 12.13941718 23.14316468 7.94140625 19.1015625 C6 17 6 17 6 15 C5.34 15 4.68 15 4 15 C2.34375 13.390625 2.34375 13.390625 0.5 11.25 C-0.1084375 10.55390625 -0.716875 9.8578125 -1.34375 9.140625 C-2.87976963 7.15539208 -3.9723966 5.28127955 -5 3 C-3.35 3 -1.7 3 0 3 C0 2.01 0 1.02 0 0 Z " fill="#FDD542" transform="translate(191,17)"/>
<path d="M0 0 C0.66 0 1.32 0 2 0 C3.40053089 1.67520398 4.71897712 3.41923092 6 5.1875 C6.81564178 6.30004003 7.63207487 7.41200027 8.44921875 8.5234375 C8.87122559 9.10061523 9.29323242 9.67779297 9.72802734 10.27246094 C15.77669276 18.48750058 22.14505543 26.458171 28.53393555 34.40893555 C33.44890618 40.5358816 38.23201828 46.75841875 43 53 C44.58229743 55.06329482 46.16565008 57.12578081 47.75 59.1875 C48.15307373 59.7124707 48.55614746 60.23744141 48.97143555 60.77832031 C51.41877601 63.96094769 53.88124486 67.13118872 56.35546875 70.29296875 C62.11344296 77.65450952 67.83611229 85.03400357 73.375 92.5625 C73.84542725 93.19978027 74.31585449 93.83706055 74.80053711 94.49365234 C78 98.87506306 78 98.87506306 78 100 C69.81081522 101.0518431 61.70843932 101.13028615 53.4609375 101.09765625 C52.08517509 101.09578668 50.709412 101.09436533 49.33364868 101.09336853 C45.74658304 101.08958572 42.15955914 101.07979262 38.57250977 101.06866455 C34.898606 101.05835835 31.22469536 101.05385136 27.55078125 101.04882812 C20.36716866 101.03816571 13.18359022 101.02114146 6 101 C5.28464637 96.85116978 4.79737303 92.81882372 4.5703125 88.61328125 C4.46275635 86.65793457 4.46275635 86.65793457 4.35302734 84.66308594 C4.27690008 83.21289682 4.20089517 81.76270128 4.125 80.3125 C4.04266957 78.78547156 3.96014337 77.25845367 3.87744141 75.73144531 C2.52067957 50.49114316 1.26922212 25.24483181 0 0 Z " fill="#FDB311" transform="translate(281,27)"/>
<path d="M0 0 C0.33 0 0.66 0 1 0 C1.07176772 8.41622673 0.89556871 16.77377167 0.4140625 25.17578125 C0.35221771 26.30227585 0.29037292 27.42877045 0.22665405 28.58940125 C0.0954762 30.96683847 -0.03738979 33.34418311 -0.171875 35.72143555 C-0.37078198 39.23792917 -0.56481163 42.75466219 -0.7578125 46.27148438 C-1.75341433 64.18733924 -2.88066041 82.09056658 -4 100 C-27.43 100 -50.86 100 -75 100 C-75 95.22553393 -74.0687005 94.4148143 -71.0625 90.875 C-68.24132732 87.62816818 -68.24132732 87.62816818 -66 84 C-65.34 84 -64.68 84 -64 84 C-63.731875 83.443125 -63.46375 82.88625 -63.1875 82.3125 C-61.89100504 79.78774666 -60.57523677 77.36285516 -59 75 C-58.34 75 -57.68 75 -57 75 C-56.73123047 74.42926758 -56.46246094 73.85853516 -56.18554688 73.27050781 C-54.03979518 69.1610575 -51.20495267 65.50524882 -48.5 61.75 C-47.60861328 60.48929688 -47.60861328 60.48929688 -46.69921875 59.203125 C-46.12816406 58.4090625 -45.55710937 57.615 -44.96875 56.796875 C-44.44732422 56.06823242 -43.92589844 55.33958984 -43.38867188 54.58886719 C-42.7012793 53.80237793 -42.7012793 53.80237793 -42 53 C-41.34 53 -40.68 53 -40 53 C-39.72236816 52.41299316 -39.44473633 51.82598633 -39.15869141 51.22119141 C-38.06507509 49.12474783 -36.88146361 47.34615561 -35.4609375 45.4609375 C-34.96698486 44.80319336 -34.47303223 44.14544922 -33.96411133 43.46777344 C-33.43970459 42.7771582 -32.91529785 42.08654297 -32.375 41.375 C-31.83447998 40.65860352 -31.29395996 39.94220703 -30.73706055 39.20410156 C-27.21005316 34.5462458 -23.6043906 29.96111139 -19.92578125 25.421875 C-17.72613375 22.65558403 -15.61129867 19.83424762 -13.5 17 C-3.26649746 3.26649746 -3.26649746 3.26649746 0 0 Z " fill="#FDBC2A" transform="translate(77,28)"/>
<path d="M0 0 C17.36109988 -0.10606932 34.70767474 -0.08455229 52.0625 0.4375 C52.75310516 0.45714813 53.44371033 0.47679626 54.15524292 0.49703979 C61.4940263 0.71038609 68.71362681 1.10596648 76 2 C78.34149766 2.07233271 80.65685612 2.04985413 83 2 C82.34 2.33 81.68 2.66 81 3 C84.28976808 4.09658936 85.71303767 3.79953138 89 3 C89 3.66 89 4.32 89 5 C89.66 5 90.32 5 91 5 C90.7215625 5.8353125 90.7215625 5.8353125 90.4375 6.6875 C89.92448835 9.399133 90.3359276 11.34371039 91 14 C90.01 14.66 89.02 15.32 88 16 C87.505 13.03 87.505 13.03 87 10 C84.7522025 12.05233685 83.9977758 13.00667261 83 16 C82.01 15.01 81.02 14.02 80 13 C79.46375 13.825 78.9275 14.65 78.375 15.5 C76 18 76 18 72.875 18.4375 C70 18 70 18 68 16 C68.2784375 17.8253125 68.2784375 17.8253125 68.5625 19.6875 C68.98993182 23.02977939 68.92258883 25.71968417 68 29 C67.67 29 67.34 29 67 29 C66.67 27.35 66.34 25.7 66 24 C65.67 24 65.34 24 65 24 C64.505 26.475 64.505 26.475 64 29 C61.51337854 25.27006781 62.20533887 24.23819267 63 20 C62.505 18.515 62.505 18.515 62 17 C61.34 17 60.68 17 60 17 C60.20625 17.7425 60.4125 18.485 60.625 19.25 C61.05334069 22.39116506 60.51935145 23.31879156 59 26 C59 26.99 59 27.98 59 29 C62.153368 29.70074844 64.72724974 30 68 30 C68.625 31.8125 68.625 31.8125 69 34 C68.34 34.99 67.68 35.98 67 37 C62.82339427 37.26518132 59.95659266 37.31886422 56 36 C59.4019487 38.09350689 62.05272412 38.17942163 66 38 C66.495 41.465 66.495 41.465 67 45 C66.01 45 65.02 45 64 45 C63.67 44.67 63.34 44.34 63 44 C62.34 45.65 61.68 47.3 61 49 C58.625 49.1875 58.625 49.1875 56 49 C55.34 48.01 54.68 47.02 54 46 C53.00612666 44.66209359 52.0073108 43.32781878 51 42 C50.505 42.99 50.505 42.99 50 44 C49.34 43.34 48.68 42.68 48 42 C48 44.95658861 49.64346654 46.55654217 51.48828125 48.734375 C53.09950818 50.31970292 53.09950818 50.31970292 56.3125 50.375 C57.199375 50.25125 58.08625 50.1275 59 50 C59.55808089 51.43120744 60.09596462 52.87030355 60.625 54.3125 C60.92664063 55.11300781 61.22828125 55.91351563 61.5390625 56.73828125 C61.69117188 57.48464844 61.84328125 58.23101562 62 59 C61.34 59.99 60.68 60.98 60 62 C59.67 61.34 59.34 60.68 59 60 C58.01 60 57.02 60 56 60 C56.495 61.98 56.495 61.98 57 64 C56.01 64 55.02 64 54 64 C53.34 64.99 52.68 65.98 52 67 C48.9941875 67.33397917 46.8955722 67.55069165 44 67 C42 65.125 42 65.125 41 63 C41 62.34 41 61.68 41 61 C40.01 61 39.02 61 38 61 C38.495 65.455 38.495 65.455 39 70 C36.1709277 67.1709277 35.62388892 66.61855575 35 63 C35.23413974 68.03478441 35.23413974 68.03478441 38.0625 71.9375 C38.701875 72.288125 39.34125 72.63875 40 73 C41.93798263 70.22739701 41.93798263 70.22739701 43 68 C43.78375 68.165 44.5675 68.33 45.375 68.5 C47.88208039 69.0623707 47.88208039 69.0623707 50 69 C51.33333333 71.66666667 52.66666667 74.33333333 54 77 C53.34 77.66 52.68 78.32 52 79 C51.67 79 51.34 79 51 79 C51.33 79.33 51.66 79.66 52 80 C52.33 80.66 52.66 81.32 53 82 C53.66 82 54.32 82 55 82 C54 84 54 84 52 85 C51.65846063 86.66500443 51.32550502 88.33178677 51 90 C50.34 90.66 49.68 91.32 49 92 C47.875 89.6875 47.875 89.6875 47 87 C47.99 85.515 47.99 85.515 49 84 C48.01 83.01 48.01 83.01 47 82 C45.06201737 84.77260299 45.06201737 84.77260299 44 87 C44.82398738 89.13997228 44.82398738 89.13997228 46.125 91.5 C46.81335938 92.8303125 46.81335938 92.8303125 47.515625 94.1875 C48.00546875 95.115625 48.4953125 96.04375 49 97 C49.9655829 98.8295255 50.92430187 100.66269574 51.875 102.5 C52.30554688 103.3146875 52.73609375 104.129375 53.1796875 104.96875 C53.45039062 105.6390625 53.72109375 106.309375 54 107 C53.67 107.66 53.34 108.32 53 109 C40.28843006 85.40680336 28.31805977 61.35511646 16.88378906 37.11914062 C14.47283308 32.023645 11.99356721 26.96766952 9.44921875 21.9375 C9.14653076 21.33802551 8.84384277 20.73855103 8.53198242 20.12091064 C7.04990561 17.1879555 5.56067298 14.25898295 4.06103516 11.33496094 C3.53171387 10.29114258 3.00239258 9.24732422 2.45703125 8.171875 C1.98241455 7.2447168 1.50779785 6.31755859 1.01879883 5.36230469 C0 3 0 3 0 0 Z " fill="#FDB721" transform="translate(74,128)"/>
<path d="M0 0 C1.75390625 1.92578125 1.75390625 1.92578125 3.5625 4.3125 C6.78071474 8.46561511 10.0876034 12.50721989 13.5 16.5 C17.39588774 21.07343344 21.18776501 25.7116381 24.91796875 30.421875 C27.33084092 33.40967168 29.81796079 36.33056197 32.3125 39.25 C36.11744166 43.7063918 39.78798412 48.24171687 43.375 52.875 C47.84984563 58.64753471 52.55823743 64.17759172 57.37011719 69.67089844 C61.02080256 73.84529241 64.52957184 78.10276941 67.96484375 82.45703125 C70.49262468 85.61554447 73.08093239 88.71888605 75.6875 91.8125 C76.13947754 92.35213379 76.59145508 92.89176758 77.05712891 93.44775391 C78.35362075 94.98040438 79.67653631 96.49057878 81 98 C81.78375 98.93585938 82.5675 99.87171875 83.375 100.8359375 C88.20074204 104.81430222 93.9485219 103.83033239 100 104 C100 108.95 100 113.9 100 119 C95.05 119 90.1 119 85 119 C85 114.05 85 109.1 85 104 C80.05 104 75.1 104 70 104 C70 99.05 70 94.1 70 89 C65.05 89 60.1 89 55 89 C55 84.05 55 79.1 55 74 C50.05 74 45.1 74 40 74 C40 69.05 40 64.1 40 59 C35.05 59 30.1 59 25 59 C25 54.05 25 49.1 25 44 C20.05 44 15.1 44 10 44 C10 39.05 10 34.1 10 29 C5.05 29 0.1 29 -5 29 C-5 24.05 -5 19.1 -5 14 C-9.95 14 -14.9 14 -20 14 C-20 9.05 -20 4.1 -20 -1 C-17.41718164 -1.22224251 -14.83477813 -1.42823488 -12.25 -1.625 C-11.52039063 -1.68945312 -10.79078125 -1.75390625 -10.0390625 -1.8203125 C-3.07219427 -2.32699383 -3.07219427 -2.32699383 0 0 Z " fill="#F1F1EF" transform="translate(95,241)"/>
<path d="M0 0 C4.56304063 4.42451976 8.50723122 9.21286619 12.5 14.16015625 C14.83254098 16.80977702 17.22675927 18.83773141 20 21 C21.3125 23.25 21.3125 23.25 22 25 C22.66 24.34 23.32 23.68 24 23 C24.66 24.32 25.32 25.64 26 27 C26.6814823 25.10820797 26.6814823 25.10820797 27 23 C26.34 22.34 25.68 21.68 25 21 C24.34 21.33 23.68 21.66 23 22 C22.375 19.625 22.375 19.625 22 17 C22.66 16.34 23.32 15.68 24 15 C24 14.21625 24 13.4325 24 12.625 C24 9.79895823 24.57897956 8.397972 26 6 C25.34 5.01 24.68 4.02 24 3 C24.33 2.01 24.66 1.02 25 0 C25 0.66 25 1.32 25 2 C25.598125 2.061875 26.19625 2.12375 26.8125 2.1875 C29.96141032 3.35709526 30.54533466 5.02454817 32 8 C33.22549353 11.22498296 34 13.54522558 34 17 C34.62599617 18.68236471 35.28752268 20.3523962 36 22 C37.65 22 39.3 22 41 22 C40.22462891 20.41058594 40.22462891 20.41058594 39.43359375 18.7890625 C38.76781433 17.4012406 38.10247229 16.01320882 37.4375 14.625 C36.92413086 13.57699219 36.92413086 13.57699219 36.40039062 12.5078125 C35.53969288 10.69947784 34.76347564 8.85148044 34 7 C34.33 6.34 34.66 5.68 35 5 C37.03642779 8.32232559 38.90079209 11.67534396 40.64453125 15.15966797 C41.14936035 16.16617401 41.65418945 17.17268005 42.17431641 18.20968628 C42.71491699 19.29291168 43.25551758 20.37613708 43.8125 21.4921875 C44.38145996 22.6291507 44.95041992 23.76611389 45.53662109 24.93753052 C46.74463972 27.35288722 47.95184227 29.76863176 49.15771484 32.18505859 C50.3697892 34.61369439 51.58359206 37.04145098 52.79931641 39.46826172 C59.4351094 52.71621984 66.01572131 65.98462629 72.36181641 79.37423706 C72.76964355 80.23445465 73.1774707 81.09467224 73.59765625 81.98095703 C73.98711426 82.80549377 74.37657227 83.63003052 74.77783203 84.47955322 C76.49587679 88.02263443 78.32996893 91.50452268 80.17749023 94.98165894 C80.44891846 95.64771149 80.72034668 96.31376404 81 97 C80.67 97.66 80.34 98.32 80 99 C74.40073988 92.4801652 68.88531535 85.92255877 63.625 79.125 C59.15028117 73.35236996 54.44175643 67.82240127 49.62988281 62.32910156 C45.96987855 58.14405186 42.45092987 53.87712474 39.01171875 49.5078125 C36.62906911 46.53759684 34.16142373 43.64399151 31.6875 40.75 C27.40747374 35.73743646 23.31516396 30.6073986 19.28613281 25.3918457 C15.15355644 20.09043751 10.74938615 15.04358752 6.23876953 10.06103516 C3.39056738 6.85867059 1.27368931 4.18497917 0 0 Z " fill="#EC7611" transform="translate(97,243)"/>
<path d="M0 0 C4.95 0 9.9 0 15 0 C15 4.95 15 9.9 15 15 C19.95 15 24.9 15 30 15 C30 19.95 30 24.9 30 30 C34.95 30 39.9 30 45 30 C45 34.95 45 39.9 45 45 C49.95 45 54.9 45 60 45 C60 49.95 60 54.9 60 60 C54.79199232 61.01126363 51.15922302 61.71028791 46 61 C42.54734708 58.21025644 40.54936426 54.75395493 38.26806641 50.98046875 C35.83969904 47.18783955 32.97950706 43.71579028 30.1875 40.1875 C28.97621396 38.63308404 27.76527613 37.07839667 26.5546875 35.5234375 C23.34369761 31.42330384 20.08359328 27.36470177 16.8125 23.3125 C12.66926974 18.17111844 8.66159535 12.94489678 4.75 7.625 C4.27151611 6.97571533 3.79303223 6.32643066 3.30004883 5.6574707 C0 1.1277878 0 1.1277878 0 0 Z " fill="#EEEEED" transform="translate(285,30)"/>
<path d="M0 0 C4.95 0 9.9 0 15 0 C9.28123055 8.87914204 2.84612104 17.14635606 -3.703125 25.41796875 C-4.61461167 26.57029009 -5.5260699 27.72263392 -6.4375 28.875 C-6.88818848 29.44323486 -7.33887695 30.01146973 -7.80322266 30.59692383 C-11.85569532 35.73978333 -15.70427711 41.02407758 -19.47241211 46.37841797 C-20.60101987 47.95389312 -21.79478704 49.48232442 -23 51 C-23.66 51 -24.32 51 -25 51 C-25.2475 51.556875 -25.495 52.11375 -25.75 52.6875 C-27.2981655 55.55160617 -28.68251501 57.68251501 -31 60 C-35.74572738 60.67105874 -40.18388274 60.22296839 -45 60 C-45 55.05 -45 50.1 -45 45 C-40.05 45 -35.1 45 -30 45 C-30 40.05 -30 35.1 -30 30 C-25.05 30 -20.1 30 -15 30 C-15 25.05 -15 20.1 -15 15 C-10.05 15 -5.1 15 0 15 C0 10.05 0 5.1 0 0 Z " fill="#FEFEFD" transform="translate(60,30)"/>
<path d="M0 0 C0 4.95 0 9.9 0 15 C-4.95 15 -9.9 15 -15 15 C-15 19.95 -15 24.9 -15 30 C-19.62 30.33 -24.24 30.66 -29 31 C-29.33 35.62 -29.66 40.24 -30 45 C-36.435 45.495 -36.435 45.495 -43 46 C-41.51124977 43.02249955 -40.55071504 41.27509213 -38.4609375 38.8984375 C-37.9669043 38.33092773 -37.47287109 37.76341797 -36.96386719 37.17871094 C-36.43954102 36.58348633 -35.91521484 35.98826172 -35.375 35.375 C-29.68339488 28.82710563 -24.18441033 22.16056602 -18.91015625 15.26953125 C-18.21792969 14.37621094 -17.52570313 13.48289063 -16.8125 12.5625 C-16.20019531 11.75941406 -15.58789062 10.95632812 -14.95703125 10.12890625 C-12.83201032 7.81725674 -10.71440391 6.54734136 -8 5 C-7.13375 4.113125 -6.2675 3.22625 -5.375 2.3125 C-3 0 -3 0 0 0 Z " fill="#F0EFEC" transform="translate(285,225)"/>
<path d="M0 0 C5.63265306 5.63265306 5.63265306 5.63265306 8.015625 8.3828125 C8.54043457 8.98754395 9.06524414 9.59227539 9.60595703 10.21533203 C10.4197583 11.16061768 10.4197583 11.16061768 11.25 12.125 C11.81702637 12.78226074 12.38405273 13.43952148 12.96826172 14.11669922 C26.43266001 29.77377305 26.43266001 29.77377305 30 36 C29 37 29 37 25.83984375 37.09765625 C20.41992188 37.04882812 20.41992188 37.04882812 15 37 C15 32.05 15 27.1 15 22 C10.05 22 5.1 22 0 22 C0 14.74 0 7.48 0 0 Z " fill="#EFEEEB" transform="translate(0,128)"/>
<path d="M0 0 C4.62 0 9.24 0 14 0 C6.89519231 10.73615385 6.89519231 10.73615385 5 13 C4.34 13 3.68 13 3 13 C2.731875 13.7425 2.46375 14.485 2.1875 15.25 C1.04723249 17.89061949 -0.09380306 19.85552844 -2 22 C-2.66 22 -3.32 22 -4 22 C-4.26941406 22.57621094 -4.53882813 23.15242188 -4.81640625 23.74609375 C-6.0206018 26.03923181 -7.37511405 27.99919642 -8.9375 30.0625 C-9.44152344 30.73410156 -9.94554687 31.40570313 -10.46484375 32.09765625 C-12 34 -12 34 -15 37 C-15 29.74 -15 22.48 -15 15 C-10.05 15 -5.1 15 0 15 C0 10.05 0 5.1 0 0 Z " fill="#EEEEEC" transform="translate(15,90)"/>
<path d="M0 0 C4.29 0 8.58 0 13 0 C13 4.95 13 9.9 13 15 C17.95 15 22.9 15 28 15 C28 22.26 28 29.52 28 37 C24.55018381 33.55018381 21.86996165 30.66511569 19.0625 26.8125 C16.19766861 22.92312722 13.29357895 19.08027186 10.3046875 15.28515625 C9.666521 14.47393311 9.02835449 13.66270996 8.37084961 12.8269043 C7.09147346 11.2043794 5.80848133 9.58469861 4.52172852 7.96801758 C3.93576904 7.22318115 3.34980957 6.47834473 2.74609375 5.7109375 C2.21685303 5.04368652 1.6876123 4.37643555 1.14233398 3.68896484 C0 2 0 2 0 0 Z " fill="#FEFEFD" transform="translate(332,90)"/>
<path d="M0 0 C4.95 0 9.9 0 15 0 C15 4.95 15 9.9 15 15 C11.12554649 15.50457999 7.25053105 16.00382474 3.375 16.5 C2.28058594 16.64308594 1.18617188 16.78617188 0.05859375 16.93359375 C-1.00488281 17.06894531 -2.06835938 17.20429688 -3.1640625 17.34375 C-4.13811035 17.46943359 -5.1121582 17.59511719 -6.11572266 17.72460938 C-9.09489105 18.00906019 -12.00915797 18.04655007 -15 18 C-15 17.01 -15 16.02 -15 15 C-10.05 15 -5.1 15 0 15 C0 10.05 0 5.1 0 0 Z " fill="#EEEFEE" transform="translate(165,0)"/>
<path d="M0 0 C2 1 2 1 2 1 Z M-16 1 C-10.72 1 -5.44 1 0 1 C-0.33 5.95 -0.66 10.9 -1 16 C-5.95 16 -10.9 16 -16 16 C-16 11.05 -16 6.1 -16 1 Z " fill="#EEEFEE" transform="translate(91,239)"/>
<path d="M0 0 C0 5.28 0 10.56 0 16 C-4.95 16 -9.9 16 -15 16 C-15 11.05 -15 6.1 -15 1 C-1.125 0 -1.125 0 0 0 Z " fill="#FFFFFF" transform="translate(30,164)"/>
<path d="M0 0 C4.95 0 9.9 0 15 0 C15.33 4.95 15.66 9.9 16 15 C10.72 15 5.44 15 0 15 C0 10.05 0 5.1 0 0 Z " fill="#EEEFEF" transform="translate(60,15)"/>
<path d="M0 0 C4.95 0 9.9 0 15 0 C15 4.95 15 9.9 15 15 C10.05 15 5.1 15 0 15 C0 10.05 0 5.1 0 0 Z " fill="#FFFFFF" transform="translate(345,345)"/>
<path d="M0 0 C4.95 0 9.9 0 15 0 C15 4.95 15 9.9 15 15 C10.05 15 5.1 15 0 15 C0 10.05 0 5.1 0 0 Z " fill="#EEEFEF" transform="translate(330,345)"/>
<path d="M0 0 C4.95 0 9.9 0 15 0 C15 4.95 15 9.9 15 15 C10.05 15 5.1 15 0 15 C0 10.05 0 5.1 0 0 Z " fill="#FFFFFF" transform="translate(315,345)"/>
<path d="M0 0 C4.95 0 9.9 0 15 0 C15 4.95 15 9.9 15 15 C10.05 15 5.1 15 0 15 C0 10.05 0 5.1 0 0 Z " fill="#EEEFEF" transform="translate(300,345)"/>
<path d="M0 0 C4.95 0 9.9 0 15 0 C15 4.95 15 9.9 15 15 C10.05 15 5.1 15 0 15 C0 10.05 0 5.1 0 0 Z " fill="#FFFFFF" transform="translate(285,345)"/>
<path d="M0 0 C4.95 0 9.9 0 15 0 C15 4.95 15 9.9 15 15 C10.05 15 5.1 15 0 15 C0 10.05 0 5.1 0 0 Z " fill="#EEEFEF" transform="translate(270,345)"/>
<path d="M0 0 C4.95 0 9.9 0 15 0 C15 4.95 15 9.9 15 15 C10.05 15 5.1 15 0 15 C0 10.05 0 5.1 0 0 Z " fill="#FFFFFF" transform="translate(255,345)"/>
<path d="M0 0 C4.95 0 9.9 0 15 0 C15 4.95 15 9.9 15 15 C10.05 15 5.1 15 0 15 C0 10.05 0 5.1 0 0 Z " fill="#EEEFEF" transform="translate(240,345)"/>
<path d="M0 0 C4.95 0 9.9 0 15 0 C15 4.95 15 9.9 15 15 C10.05 15 5.1 15 0 15 C0 10.05 0 5.1 0 0 Z " fill="#FFFFFF" transform="translate(225,345)"/>
<path d="M0 0 C4.95 0 9.9 0 15 0 C15 4.95 15 9.9 15 15 C10.05 15 5.1 15 0 15 C0 10.05 0 5.1 0 0 Z " fill="#EEEFEF" transform="translate(210,345)"/>
<path d="M0 0 C4.95 0 9.9 0 15 0 C15 4.95 15 9.9 15 15 C10.05 15 5.1 15 0 15 C0 10.05 0 5.1 0 0 Z " fill="#FFFFFF" transform="translate(195,345)"/>
<path d="M0 0 C4.95 0 9.9 0 15 0 C15 4.95 15 9.9 15 15 C10.05 15 5.1 15 0 15 C0 10.05 0 5.1 0 0 Z " fill="#FFFFFF" transform="translate(165,345)"/>
<path d="M0 0 C4.95 0 9.9 0 15 0 C15 4.95 15 9.9 15 15 C10.05 15 5.1 15 0 15 C0 10.05 0 5.1 0 0 Z " fill="#EEEFEF" transform="translate(150,345)"/>
<path d="M0 0 C4.95 0 9.9 0 15 0 C15 4.95 15 9.9 15 15 C10.05 15 5.1 15 0 15 C0 10.05 0 5.1 0 0 Z " fill="#FFFFFF" transform="translate(135,345)"/>
<path d="M0 0 C4.95 0 9.9 0 15 0 C15 4.95 15 9.9 15 15 C10.05 15 5.1 15 0 15 C0 10.05 0 5.1 0 0 Z " fill="#EEEFEF" transform="translate(120,345)"/>
<path d="M0 0 C4.95 0 9.9 0 15 0 C15 4.95 15 9.9 15 15 C10.05 15 5.1 15 0 15 C0 10.05 0 5.1 0 0 Z " fill="#FFFFFF" transform="translate(105,345)"/>
<path d="M0 0 C4.95 0 9.9 0 15 0 C15 4.95 15 9.9 15 15 C10.05 15 5.1 15 0 15 C0 10.05 0 5.1 0 0 Z " fill="#EEEFEF" transform="translate(90,345)"/>
<path d="M0 0 C4.95 0 9.9 0 15 0 C15 4.95 15 9.9 15 15 C10.05 15 5.1 15 0 15 C0 10.05 0 5.1 0 0 Z " fill="#FFFFFF" transform="translate(75,345)"/>
<path d="M0 0 C4.95 0 9.9 0 15 0 C15 4.95 15 9.9 15 15 C10.05 15 5.1 15 0 15 C0 10.05 0 5.1 0 0 Z " fill="#EEEFEF" transform="translate(60,345)"/>
<path d="M0 0 C4.95 0 9.9 0 15 0 C15 4.95 15 9.9 15 15 C10.05 15 5.1 15 0 15 C0 10.05 0 5.1 0 0 Z " fill="#FFFFFF" transform="translate(45,345)"/>
<path d="M0 0 C4.95 0 9.9 0 15 0 C15 4.95 15 9.9 15 15 C10.05 15 5.1 15 0 15 C0 10.05 0 5.1 0 0 Z " fill="#EEEFEF" transform="translate(30,345)"/>
<path d="M0 0 C4.95 0 9.9 0 15 0 C15 4.95 15 9.9 15 15 C10.05 15 5.1 15 0 15 C0 10.05 0 5.1 0 0 Z " fill="#FFFFFF" transform="translate(15,345)"/>
<path d="M0 0 C4.95 0 9.9 0 15 0 C15 4.95 15 9.9 15 15 C10.05 15 5.1 15 0 15 C0 10.05 0 5.1 0 0 Z " fill="#EEEFEF" transform="translate(0,345)"/>
<path d="M0 0 C4.95 0 9.9 0 15 0 C15 4.95 15 9.9 15 15 C10.05 15 5.1 15 0 15 C0 10.05 0 5.1 0 0 Z " fill="#EEEFEF" transform="translate(345,330)"/>
<path d="M0 0 C4.95 0 9.9 0 15 0 C15 4.95 15 9.9 15 15 C10.05 15 5.1 15 0 15 C0 10.05 0 5.1 0 0 Z " fill="#FFFFFF" transform="translate(330,330)"/>
<path d="M0 0 C4.95 0 9.9 0 15 0 C15 4.95 15 9.9 15 15 C10.05 15 5.1 15 0 15 C0 10.05 0 5.1 0 0 Z " fill="#EEEFEF" transform="translate(315,330)"/>
<path d="M0 0 C4.95 0 9.9 0 15 0 C15 4.95 15 9.9 15 15 C10.05 15 5.1 15 0 15 C0 10.05 0 5.1 0 0 Z " fill="#FFFFFF" transform="translate(300,330)"/>
<path d="M0 0 C4.95 0 9.9 0 15 0 C15 4.95 15 9.9 15 15 C10.05 15 5.1 15 0 15 C0 10.05 0 5.1 0 0 Z " fill="#EEEFEF" transform="translate(285,330)"/>
<path d="M0 0 C4.95 0 9.9 0 15 0 C15 4.95 15 9.9 15 15 C10.05 15 5.1 15 0 15 C0 10.05 0 5.1 0 0 Z " fill="#FFFFFF" transform="translate(270,330)"/>
<path d="M0 0 C4.95 0 9.9 0 15 0 C15 4.95 15 9.9 15 15 C10.05 15 5.1 15 0 15 C0 10.05 0 5.1 0 0 Z " fill="#EEEFEF" transform="translate(255,330)"/>
<path d="M0 0 C4.95 0 9.9 0 15 0 C15 4.95 15 9.9 15 15 C10.05 15 5.1 15 0 15 C0 10.05 0 5.1 0 0 Z " fill="#FFFFFF" transform="translate(240,330)"/>
<path d="M0 0 C4.95 0 9.9 0 15 0 C15 4.95 15 9.9 15 15 C10.05 15 5.1 15 0 15 C0 10.05 0 5.1 0 0 Z " fill="#EEEFEF" transform="translate(225,330)"/>
<path d="M0 0 C4.95 0 9.9 0 15 0 C15 4.95 15 9.9 15 15 C10.05 15 5.1 15 0 15 C0 10.05 0 5.1 0 0 Z " fill="#FFFFFF" transform="translate(210,330)"/>
<path d="M0 0 C4.95 0 9.9 0 15 0 C15 4.95 15 9.9 15 15 C10.05 15 5.1 15 0 15 C0 10.05 0 5.1 0 0 Z " fill="#EEEFEF" transform="translate(195,330)"/>
<path d="M0 0 C4.95 0 9.9 0 15 0 C15 4.95 15 9.9 15 15 C10.05 15 5.1 15 0 15 C0 10.05 0 5.1 0 0 Z " fill="#FFFFFF" transform="translate(150,330)"/>
<path d="M0 0 C4.95 0 9.9 0 15 0 C15 4.95 15 9.9 15 15 C10.05 15 5.1 15 0 15 C0 10.05 0 5.1 0 0 Z " fill="#EEEFEF" transform="translate(135,330)"/>
<path d="M0 0 C4.95 0 9.9 0 15 0 C15 4.95 15 9.9 15 15 C10.05 15 5.1 15 0 15 C0 10.05 0 5.1 0 0 Z " fill="#FFFFFF" transform="translate(120,330)"/>
<path d="M0 0 C4.95 0 9.9 0 15 0 C15 4.95 15 9.9 15 15 C10.05 15 5.1 15 0 15 C0 10.05 0 5.1 0 0 Z " fill="#EEEFEF" transform="translate(105,330)"/>
<path d="M0 0 C4.95 0 9.9 0 15 0 C15 4.95 15 9.9 15 15 C10.05 15 5.1 15 0 15 C0 10.05 0 5.1 0 0 Z " fill="#FFFFFF" transform="translate(90,330)"/>
<path d="M0 0 C4.95 0 9.9 0 15 0 C15 4.95 15 9.9 15 15 C10.05 15 5.1 15 0 15 C0 10.05 0 5.1 0 0 Z " fill="#EEEFEF" transform="translate(75,330)"/>
<path d="M0 0 C4.95 0 9.9 0 15 0 C15 4.95 15 9.9 15 15 C10.05 15 5.1 15 0 15 C0 10.05 0 5.1 0 0 Z " fill="#FFFFFF" transform="translate(60,330)"/>
<path d="M0 0 C4.95 0 9.9 0 15 0 C15 4.95 15 9.9 15 15 C10.05 15 5.1 15 0 15 C0 10.05 0 5.1 0 0 Z " fill="#EEEFEF" transform="translate(45,330)"/>
<path d="M0 0 C4.95 0 9.9 0 15 0 C15 4.95 15 9.9 15 15 C10.05 15 5.1 15 0 15 C0 10.05 0 5.1 0 0 Z " fill="#FFFFFF" transform="translate(30,330)"/>
<path d="M0 0 C4.95 0 9.9 0 15 0 C15 4.95 15 9.9 15 15 C10.05 15 5.1 15 0 15 C0 10.05 0 5.1 0 0 Z " fill="#EEEFEF" transform="translate(15,330)"/>
<path d="M0 0 C4.95 0 9.9 0 15 0 C15 4.95 15 9.9 15 15 C10.05 15 5.1 15 0 15 C0 10.05 0 5.1 0 0 Z " fill="#FFFFFF" transform="translate(0,330)"/>
<path d="M0 0 C4.95 0 9.9 0 15 0 C15 4.95 15 9.9 15 15 C10.05 15 5.1 15 0 15 C0 10.05 0 5.1 0 0 Z " fill="#FFFFFF" transform="translate(345,315)"/>
<path d="M0 0 C4.95 0 9.9 0 15 0 C15 4.95 15 9.9 15 15 C10.05 15 5.1 15 0 15 C0 10.05 0 5.1 0 0 Z " fill="#EEEFEF" transform="translate(330,315)"/>
<path d="M0 0 C4.95 0 9.9 0 15 0 C15 4.95 15 9.9 15 15 C10.05 15 5.1 15 0 15 C0 10.05 0 5.1 0 0 Z " fill="#FFFFFF" transform="translate(315,315)"/>
<path d="M0 0 C4.95 0 9.9 0 15 0 C15 4.95 15 9.9 15 15 C10.05 15 5.1 15 0 15 C0 10.05 0 5.1 0 0 Z " fill="#EEEFEF" transform="translate(300,315)"/>
<path d="M0 0 C4.95 0 9.9 0 15 0 C15 4.95 15 9.9 15 15 C10.05 15 5.1 15 0 15 C0 10.05 0 5.1 0 0 Z " fill="#FFFFFF" transform="translate(285,315)"/>
<path d="M0 0 C4.95 0 9.9 0 15 0 C15 4.95 15 9.9 15 15 C10.05 15 5.1 15 0 15 C0 10.05 0 5.1 0 0 Z " fill="#EEEFEF" transform="translate(270,315)"/>
<path d="M0 0 C4.95 0 9.9 0 15 0 C15 4.95 15 9.9 15 15 C10.05 15 5.1 15 0 15 C0 10.05 0 5.1 0 0 Z " fill="#FFFFFF" transform="translate(255,315)"/>
<path d="M0 0 C4.95 0 9.9 0 15 0 C15 4.95 15 9.9 15 15 C10.05 15 5.1 15 0 15 C0 10.05 0 5.1 0 0 Z " fill="#EEEFEF" transform="translate(240,315)"/>
<path d="M0 0 C4.95 0 9.9 0 15 0 C15 4.95 15 9.9 15 15 C10.05 15 5.1 15 0 15 C0 10.05 0 5.1 0 0 Z " fill="#FFFFFF" transform="translate(225,315)"/>
<path d="M0 0 C4.95 0 9.9 0 15 0 C15 4.95 15 9.9 15 15 C10.05 15 5.1 15 0 15 C0 10.05 0 5.1 0 0 Z " fill="#EEEFEF" transform="translate(210,315)"/>
<path d="M0 0 C4.95 0 9.9 0 15 0 C15 4.95 15 9.9 15 15 C10.05 15 5.1 15 0 15 C0 10.05 0 5.1 0 0 Z " fill="#FFFFFF" transform="translate(135,315)"/>
<path d="M0 0 C4.95 0 9.9 0 15 0 C15 4.95 15 9.9 15 15 C10.05 15 5.1 15 0 15 C0 10.05 0 5.1 0 0 Z " fill="#EEEFEF" transform="translate(120,315)"/>
<path d="M0 0 C4.95 0 9.9 0 15 0 C15 4.95 15 9.9 15 15 C10.05 15 5.1 15 0 15 C0 10.05 0 5.1 0 0 Z " fill="#FFFFFF" transform="translate(105,315)"/>
<path d="M0 0 C4.95 0 9.9 0 15 0 C15 4.95 15 9.9 15 15 C10.05 15 5.1 15 0 15 C0 10.05 0 5.1 0 0 Z " fill="#EEEFEF" transform="translate(90,315)"/>
<path d="M0 0 C4.95 0 9.9 0 15 0 C15 4.95 15 9.9 15 15 C10.05 15 5.1 15 0 15 C0 10.05 0 5.1 0 0 Z " fill="#FFFFFF" transform="translate(75,315)"/>
<path d="M0 0 C4.95 0 9.9 0 15 0 C15 4.95 15 9.9 15 15 C10.05 15 5.1 15 0 15 C0 10.05 0 5.1 0 0 Z " fill="#EEEFEF" transform="translate(60,315)"/>
<path d="M0 0 C4.95 0 9.9 0 15 0 C15 4.95 15 9.9 15 15 C10.05 15 5.1 15 0 15 C0 10.05 0 5.1 0 0 Z " fill="#FFFFFF" transform="translate(45,315)"/>
<path d="M0 0 C4.95 0 9.9 0 15 0 C15 4.95 15 9.9 15 15 C10.05 15 5.1 15 0 15 C0 10.05 0 5.1 0 0 Z " fill="#EEEFEF" transform="translate(30,315)"/>
<path d="M0 0 C4.95 0 9.9 0 15 0 C15 4.95 15 9.9 15 15 C10.05 15 5.1 15 0 15 C0 10.05 0 5.1 0 0 Z " fill="#FFFFFF" transform="translate(15,315)"/>
<path d="M0 0 C4.95 0 9.9 0 15 0 C15 4.95 15 9.9 15 15 C10.05 15 5.1 15 0 15 C0 10.05 0 5.1 0 0 Z " fill="#EEEFEF" transform="translate(0,315)"/>
<path d="M0 0 C4.95 0 9.9 0 15 0 C15 4.95 15 9.9 15 15 C10.05 15 5.1 15 0 15 C0 10.05 0 5.1 0 0 Z " fill="#EEEFEF" transform="translate(345,300)"/>
<path d="M0 0 C4.95 0 9.9 0 15 0 C15 4.95 15 9.9 15 15 C10.05 15 5.1 15 0 15 C0 10.05 0 5.1 0 0 Z " fill="#FFFFFF" transform="translate(330,300)"/>
<path d="M0 0 C4.95 0 9.9 0 15 0 C15 4.95 15 9.9 15 15 C10.05 15 5.1 15 0 15 C0 10.05 0 5.1 0 0 Z " fill="#EEEFEF" transform="translate(315,300)"/>
<path d="M0 0 C4.95 0 9.9 0 15 0 C15 4.95 15 9.9 15 15 C10.05 15 5.1 15 0 15 C0 10.05 0 5.1 0 0 Z " fill="#FFFFFF" transform="translate(300,300)"/>
<path d="M0 0 C4.95 0 9.9 0 15 0 C15 4.95 15 9.9 15 15 C10.05 15 5.1 15 0 15 C0 10.05 0 5.1 0 0 Z " fill="#EEEFEF" transform="translate(285,300)"/>
<path d="M0 0 C4.95 0 9.9 0 15 0 C15 4.95 15 9.9 15 15 C10.05 15 5.1 15 0 15 C0 10.05 0 5.1 0 0 Z " fill="#FFFFFF" transform="translate(270,300)"/>
<path d="M0 0 C4.95 0 9.9 0 15 0 C15 4.95 15 9.9 15 15 C10.05 15 5.1 15 0 15 C0 10.05 0 5.1 0 0 Z " fill="#EEEFEF" transform="translate(255,300)"/>
<path d="M0 0 C4.95 0 9.9 0 15 0 C15 4.95 15 9.9 15 15 C10.05 15 5.1 15 0 15 C0 10.05 0 5.1 0 0 Z " fill="#FFFFFF" transform="translate(240,300)"/>
<path d="M0 0 C4.95 0 9.9 0 15 0 C15 4.95 15 9.9 15 15 C10.05 15 5.1 15 0 15 C0 10.05 0 5.1 0 0 Z " fill="#EEEFEF" transform="translate(225,300)"/>
<path d="M0 0 C4.95 0 9.9 0 15 0 C15 4.95 15 9.9 15 15 C10.05 15 5.1 15 0 15 C0 10.05 0 5.1 0 0 Z " fill="#FFFFFF" transform="translate(120,300)"/>
<path d="M0 0 C4.95 0 9.9 0 15 0 C15 4.95 15 9.9 15 15 C10.05 15 5.1 15 0 15 C0 10.05 0 5.1 0 0 Z " fill="#EEEFEF" transform="translate(105,300)"/>
<path d="M0 0 C4.95 0 9.9 0 15 0 C15 4.95 15 9.9 15 15 C10.05 15 5.1 15 0 15 C0 10.05 0 5.1 0 0 Z " fill="#FFFFFF" transform="translate(90,300)"/>
<path d="M0 0 C4.95 0 9.9 0 15 0 C15 4.95 15 9.9 15 15 C10.05 15 5.1 15 0 15 C0 10.05 0 5.1 0 0 Z " fill="#EEEFEF" transform="translate(75,300)"/>
<path d="M0 0 C4.95 0 9.9 0 15 0 C15 4.95 15 9.9 15 15 C10.05 15 5.1 15 0 15 C0 10.05 0 5.1 0 0 Z " fill="#FFFFFF" transform="translate(60,300)"/>
<path d="M0 0 C4.95 0 9.9 0 15 0 C15 4.95 15 9.9 15 15 C10.05 15 5.1 15 0 15 C0 10.05 0 5.1 0 0 Z " fill="#EEEFEF" transform="translate(45,300)"/>
<path d="M0 0 C4.95 0 9.9 0 15 0 C15 4.95 15 9.9 15 15 C10.05 15 5.1 15 0 15 C0 10.05 0 5.1 0 0 Z " fill="#FFFFFF" transform="translate(30,300)"/>
<path d="M0 0 C4.95 0 9.9 0 15 0 C15 4.95 15 9.9 15 15 C10.05 15 5.1 15 0 15 C0 10.05 0 5.1 0 0 Z " fill="#EEEFEF" transform="translate(15,300)"/>
<path d="M0 0 C4.95 0 9.9 0 15 0 C15 4.95 15 9.9 15 15 C10.05 15 5.1 15 0 15 C0 10.05 0 5.1 0 0 Z " fill="#FFFFFF" transform="translate(0,300)"/>
<path d="M0 0 C4.95 0 9.9 0 15 0 C15 4.95 15 9.9 15 15 C10.05 15 5.1 15 0 15 C0 10.05 0 5.1 0 0 Z " fill="#FFFFFF" transform="translate(345,285)"/>
<path d="M0 0 C4.95 0 9.9 0 15 0 C15 4.95 15 9.9 15 15 C10.05 15 5.1 15 0 15 C0 10.05 0 5.1 0 0 Z " fill="#EEEFEF" transform="translate(330,285)"/>
<path d="M0 0 C4.95 0 9.9 0 15 0 C15 4.95 15 9.9 15 15 C10.05 15 5.1 15 0 15 C0 10.05 0 5.1 0 0 Z " fill="#FFFFFF" transform="translate(315,285)"/>
<path d="M0 0 C4.95 0 9.9 0 15 0 C15 4.95 15 9.9 15 15 C10.05 15 5.1 15 0 15 C0 10.05 0 5.1 0 0 Z " fill="#EEEFEF" transform="translate(300,285)"/>
<path d="M0 0 C4.95 0 9.9 0 15 0 C15 4.95 15 9.9 15 15 C10.05 15 5.1 15 0 15 C0 10.05 0 5.1 0 0 Z " fill="#FFFFFF" transform="translate(285,285)"/>
<path d="M0 0 C4.95 0 9.9 0 15 0 C15 4.95 15 9.9 15 15 C10.05 15 5.1 15 0 15 C0 10.05 0 5.1 0 0 Z " fill="#EEEFEF" transform="translate(270,285)"/>
<path d="M0 0 C4.95 0 9.9 0 15 0 C15 4.95 15 9.9 15 15 C10.05 15 5.1 15 0 15 C0 10.05 0 5.1 0 0 Z " fill="#FFFFFF" transform="translate(255,285)"/>
<path d="M0 0 C4.95 0 9.9 0 15 0 C15 4.95 15 9.9 15 15 C10.05 15 5.1 15 0 15 C0 10.05 0 5.1 0 0 Z " fill="#EEEFEF" transform="translate(240,285)"/>
<path d="M0 0 C4.95 0 9.9 0 15 0 C15 4.95 15 9.9 15 15 C10.05 15 5.1 15 0 15 C0 10.05 0 5.1 0 0 Z " fill="#FFFFFF" transform="translate(105,285)"/>
<path d="M0 0 C4.95 0 9.9 0 15 0 C15 4.95 15 9.9 15 15 C10.05 15 5.1 15 0 15 C0 10.05 0 5.1 0 0 Z " fill="#EEEFEF" transform="translate(90,285)"/>
<path d="M0 0 C4.95 0 9.9 0 15 0 C15 4.95 15 9.9 15 15 C10.05 15 5.1 15 0 15 C0 10.05 0 5.1 0 0 Z " fill="#FFFFFF" transform="translate(75,285)"/>
<path d="M0 0 C4.95 0 9.9 0 15 0 C15 4.95 15 9.9 15 15 C10.05 15 5.1 15 0 15 C0 10.05 0 5.1 0 0 Z " fill="#EEEFEF" transform="translate(60,285)"/>
<path d="M0 0 C4.95 0 9.9 0 15 0 C15 4.95 15 9.9 15 15 C10.05 15 5.1 15 0 15 C0 10.05 0 5.1 0 0 Z " fill="#FFFFFF" transform="translate(45,285)"/>
<path d="M0 0 C4.95 0 9.9 0 15 0 C15 4.95 15 9.9 15 15 C10.05 15 5.1 15 0 15 C0 10.05 0 5.1 0 0 Z " fill="#EEEFEF" transform="translate(30,285)"/>
<path d="M0 0 C4.95 0 9.9 0 15 0 C15 4.95 15 9.9 15 15 C10.05 15 5.1 15 0 15 C0 10.05 0 5.1 0 0 Z " fill="#FFFFFF" transform="translate(15,285)"/>
<path d="M0 0 C4.95 0 9.9 0 15 0 C15 4.95 15 9.9 15 15 C10.05 15 5.1 15 0 15 C0 10.05 0 5.1 0 0 Z " fill="#EEEFEF" transform="translate(0,285)"/>
<path d="M0 0 C4.95 0 9.9 0 15 0 C15 4.95 15 9.9 15 15 C10.05 15 5.1 15 0 15 C0 10.05 0 5.1 0 0 Z " fill="#EEEFEF" transform="translate(345,270)"/>
<path d="M0 0 C4.95 0 9.9 0 15 0 C15 4.95 15 9.9 15 15 C10.05 15 5.1 15 0 15 C0 10.05 0 5.1 0 0 Z " fill="#FFFFFF" transform="translate(330,270)"/>
<path d="M0 0 C4.95 0 9.9 0 15 0 C15 4.95 15 9.9 15 15 C10.05 15 5.1 15 0 15 C0 10.05 0 5.1 0 0 Z " fill="#EEEFEF" transform="translate(315,270)"/>
<path d="M0 0 C4.95 0 9.9 0 15 0 C15 4.95 15 9.9 15 15 C10.05 15 5.1 15 0 15 C0 10.05 0 5.1 0 0 Z " fill="#FFFFFF" transform="translate(300,270)"/>
<path d="M0 0 C4.95 0 9.9 0 15 0 C15 4.95 15 9.9 15 15 C10.05 15 5.1 15 0 15 C0 10.05 0 5.1 0 0 Z " fill="#EEEFEF" transform="translate(285,270)"/>
<path d="M0 0 C4.95 0 9.9 0 15 0 C15 4.95 15 9.9 15 15 C10.05 15 5.1 15 0 15 C0 10.05 0 5.1 0 0 Z " fill="#FFFFFF" transform="translate(270,270)"/>
<path d="M0 0 C4.95 0 9.9 0 15 0 C15 4.95 15 9.9 15 15 C10.05 15 5.1 15 0 15 C0 10.05 0 5.1 0 0 Z " fill="#EEEFEF" transform="translate(255,270)"/>
<path d="M0 0 C4.95 0 9.9 0 15 0 C15 4.95 15 9.9 15 15 C10.05 15 5.1 15 0 15 C0 10.05 0 5.1 0 0 Z " fill="#FFFFFF" transform="translate(90,270)"/>
<path d="M0 0 C4.95 0 9.9 0 15 0 C15 4.95 15 9.9 15 15 C10.05 15 5.1 15 0 15 C0 10.05 0 5.1 0 0 Z " fill="#EEEFEF" transform="translate(75,270)"/>
<path d="M0 0 C4.95 0 9.9 0 15 0 C15 4.95 15 9.9 15 15 C10.05 15 5.1 15 0 15 C0 10.05 0 5.1 0 0 Z " fill="#FFFFFF" transform="translate(60,270)"/>
<path d="M0 0 C4.95 0 9.9 0 15 0 C15 4.95 15 9.9 15 15 C10.05 15 5.1 15 0 15 C0 10.05 0 5.1 0 0 Z " fill="#EEEFEF" transform="translate(45,270)"/>
<path d="M0 0 C4.95 0 9.9 0 15 0 C15 4.95 15 9.9 15 15 C10.05 15 5.1 15 0 15 C0 10.05 0 5.1 0 0 Z " fill="#FFFFFF" transform="translate(30,270)"/>
<path d="M0 0 C4.95 0 9.9 0 15 0 C15 4.95 15 9.9 15 15 C10.05 15 5.1 15 0 15 C0 10.05 0 5.1 0 0 Z " fill="#EEEFEF" transform="translate(15,270)"/>
<path d="M0 0 C4.95 0 9.9 0 15 0 C15 4.95 15 9.9 15 15 C10.05 15 5.1 15 0 15 C0 10.05 0 5.1 0 0 Z " fill="#FFFFFF" transform="translate(0,270)"/>
<path d="M0 0 C4.95 0 9.9 0 15 0 C15 4.95 15 9.9 15 15 C10.05 15 5.1 15 0 15 C0 10.05 0 5.1 0 0 Z " fill="#FFFFFF" transform="translate(345,255)"/>
<path d="M0 0 C4.95 0 9.9 0 15 0 C15 4.95 15 9.9 15 15 C10.05 15 5.1 15 0 15 C0 10.05 0 5.1 0 0 Z " fill="#EEEFEF" transform="translate(330,255)"/>
<path d="M0 0 C4.95 0 9.9 0 15 0 C15 4.95 15 9.9 15 15 C10.05 15 5.1 15 0 15 C0 10.05 0 5.1 0 0 Z " fill="#FFFFFF" transform="translate(315,255)"/>
<path d="M0 0 C4.95 0 9.9 0 15 0 C15 4.95 15 9.9 15 15 C10.05 15 5.1 15 0 15 C0 10.05 0 5.1 0 0 Z " fill="#EEEFEF" transform="translate(300,255)"/>
<path d="M0 0 C4.95 0 9.9 0 15 0 C15 4.95 15 9.9 15 15 C10.05 15 5.1 15 0 15 C0 10.05 0 5.1 0 0 Z " fill="#FFFFFF" transform="translate(285,255)"/>
<path d="M0 0 C4.95 0 9.9 0 15 0 C15 4.95 15 9.9 15 15 C10.05 15 5.1 15 0 15 C0 10.05 0 5.1 0 0 Z " fill="#FFFFFF" transform="translate(75,255)"/>
<path d="M0 0 C4.95 0 9.9 0 15 0 C15 4.95 15 9.9 15 15 C10.05 15 5.1 15 0 15 C0 10.05 0 5.1 0 0 Z " fill="#EEEFEF" transform="translate(60,255)"/>
<path d="M0 0 C4.95 0 9.9 0 15 0 C15 4.95 15 9.9 15 15 C10.05 15 5.1 15 0 15 C0 10.05 0 5.1 0 0 Z " fill="#FFFFFF" transform="translate(45,255)"/>
<path d="M0 0 C4.95 0 9.9 0 15 0 C15 4.95 15 9.9 15 15 C10.05 15 5.1 15 0 15 C0 10.05 0 5.1 0 0 Z " fill="#EEEFEF" transform="translate(30,255)"/>
<path d="M0 0 C4.95 0 9.9 0 15 0 C15 4.95 15 9.9 15 15 C10.05 15 5.1 15 0 15 C0 10.05 0 5.1 0 0 Z " fill="#FFFFFF" transform="translate(15,255)"/>
<path d="M0 0 C4.95 0 9.9 0 15 0 C15 4.95 15 9.9 15 15 C10.05 15 5.1 15 0 15 C0 10.05 0 5.1 0 0 Z " fill="#EEEFEF" transform="translate(0,255)"/>
<path d="M0 0 C4.95 0 9.9 0 15 0 C15 4.95 15 9.9 15 15 C10.05 15 5.1 15 0 15 C0 10.05 0 5.1 0 0 Z " fill="#EEEFEF" transform="translate(345,240)"/>
<path d="M0 0 C4.95 0 9.9 0 15 0 C15 4.95 15 9.9 15 15 C10.05 15 5.1 15 0 15 C0 10.05 0 5.1 0 0 Z " fill="#FFFFFF" transform="translate(330,240)"/>
<path d="M0 0 C4.95 0 9.9 0 15 0 C15 4.95 15 9.9 15 15 C10.05 15 5.1 15 0 15 C0 10.05 0 5.1 0 0 Z " fill="#EEEFEF" transform="translate(315,240)"/>
<path d="M0 0 C4.95 0 9.9 0 15 0 C15 4.95 15 9.9 15 15 C10.05 15 5.1 15 0 15 C0 10.05 0 5.1 0 0 Z " fill="#FFFFFF" transform="translate(300,240)"/>
<path d="M0 0 C4.95 0 9.9 0 15 0 C15 4.95 15 9.9 15 15 C10.05 15 5.1 15 0 15 C0 10.05 0 5.1 0 0 Z " fill="#EEEFEF" transform="translate(285,240)"/>
<path d="M0 0 C4.95 0 9.9 0 15 0 C15 4.95 15 9.9 15 15 C10.05 15 5.1 15 0 15 C0 10.05 0 5.1 0 0 Z " fill="#FFFFFF" transform="translate(270,240)"/>
<path d="M0 0 C4.95 0 9.9 0 15 0 C15 4.95 15 9.9 15 15 C10.05 15 5.1 15 0 15 C0 10.05 0 5.1 0 0 Z " fill="#FFFFFF" transform="translate(60,240)"/>
<path d="M0 0 C4.95 0 9.9 0 15 0 C15 4.95 15 9.9 15 15 C10.05 15 5.1 15 0 15 C0 10.05 0 5.1 0 0 Z " fill="#EEEFEF" transform="translate(45,240)"/>
<path d="M0 0 C4.95 0 9.9 0 15 0 C15 4.95 15 9.9 15 15 C10.05 15 5.1 15 0 15 C0 10.05 0 5.1 0 0 Z " fill="#FFFFFF" transform="translate(30,240)"/>
<path d="M0 0 C4.95 0 9.9 0 15 0 C15 4.95 15 9.9 15 15 C10.05 15 5.1 15 0 15 C0 10.05 0 5.1 0 0 Z " fill="#EEEFEF" transform="translate(15,240)"/>
<path d="M0 0 C4.95 0 9.9 0 15 0 C15 4.95 15 9.9 15 15 C10.05 15 5.1 15 0 15 C0 10.05 0 5.1 0 0 Z " fill="#FFFFFF" transform="translate(0,240)"/>
<path d="M0 0 C4.95 0 9.9 0 15 0 C15 4.95 15 9.9 15 15 C10.05 15 5.1 15 0 15 C0 10.05 0 5.1 0 0 Z " fill="#FFFFFF" transform="translate(345,225)"/>
<path d="M0 0 C4.95 0 9.9 0 15 0 C15 4.95 15 9.9 15 15 C10.05 15 5.1 15 0 15 C0 10.05 0 5.1 0 0 Z " fill="#EEEFEF" transform="translate(330,225)"/>
<path d="M0 0 C4.95 0 9.9 0 15 0 C15 4.95 15 9.9 15 15 C10.05 15 5.1 15 0 15 C0 10.05 0 5.1 0 0 Z " fill="#FFFFFF" transform="translate(315,225)"/>
<path d="M0 0 C4.95 0 9.9 0 15 0 C15 4.95 15 9.9 15 15 C10.05 15 5.1 15 0 15 C0 10.05 0 5.1 0 0 Z " fill="#EEEFEF" transform="translate(300,225)"/>
<path d="M0 0 C4.95 0 9.9 0 15 0 C15 4.95 15 9.9 15 15 C10.05 15 5.1 15 0 15 C0 10.05 0 5.1 0 0 Z " fill="#FFFFFF" transform="translate(285,225)"/>
<path d="M0 0 C4.95 0 9.9 0 15 0 C15 4.95 15 9.9 15 15 C10.05 15 5.1 15 0 15 C0 10.05 0 5.1 0 0 Z " fill="#EEEFEF" transform="translate(60,225)"/>
<path d="M0 0 C4.95 0 9.9 0 15 0 C15 4.95 15 9.9 15 15 C10.05 15 5.1 15 0 15 C0 10.05 0 5.1 0 0 Z " fill="#FFFFFF" transform="translate(45,225)"/>
<path d="M0 0 C4.95 0 9.9 0 15 0 C15 4.95 15 9.9 15 15 C10.05 15 5.1 15 0 15 C0 10.05 0 5.1 0 0 Z " fill="#EEEFEF" transform="translate(30,225)"/>
<path d="M0 0 C4.95 0 9.9 0 15 0 C15 4.95 15 9.9 15 15 C10.05 15 5.1 15 0 15 C0 10.05 0 5.1 0 0 Z " fill="#FFFFFF" transform="translate(15,225)"/>
<path d="M0 0 C4.95 0 9.9 0 15 0 C15 4.95 15 9.9 15 15 C10.05 15 5.1 15 0 15 C0 10.05 0 5.1 0 0 Z " fill="#EEEFEF" transform="translate(0,225)"/>
<path d="M0 0 C4.95 0 9.9 0 15 0 C15 4.95 15 9.9 15 15 C10.05 15 5.1 15 0 15 C0 10.05 0 5.1 0 0 Z " fill="#EEEFEF" transform="translate(345,210)"/>
<path d="M0 0 C4.95 0 9.9 0 15 0 C15 4.95 15 9.9 15 15 C10.05 15 5.1 15 0 15 C0 10.05 0 5.1 0 0 Z " fill="#FFFFFF" transform="translate(330,210)"/>
<path d="M0 0 C4.95 0 9.9 0 15 0 C15 4.95 15 9.9 15 15 C10.05 15 5.1 15 0 15 C0 10.05 0 5.1 0 0 Z " fill="#EEEFEF" transform="translate(315,210)"/>
<path d="M0 0 C4.95 0 9.9 0 15 0 C15 4.95 15 9.9 15 15 C10.05 15 5.1 15 0 15 C0 10.05 0 5.1 0 0 Z " fill="#FFFFFF" transform="translate(300,210)"/>
<path d="M0 0 C4.95 0 9.9 0 15 0 C15 4.95 15 9.9 15 15 C10.05 15 5.1 15 0 15 C0 10.05 0 5.1 0 0 Z " fill="#EEEFEF" transform="translate(45,210)"/>
<path d="M0 0 C4.95 0 9.9 0 15 0 C15 4.95 15 9.9 15 15 C10.05 15 5.1 15 0 15 C0 10.05 0 5.1 0 0 Z " fill="#FFFFFF" transform="translate(30,210)"/>
<path d="M0 0 C4.95 0 9.9 0 15 0 C15 4.95 15 9.9 15 15 C10.05 15 5.1 15 0 15 C0 10.05 0 5.1 0 0 Z " fill="#EEEFEF" transform="translate(15,210)"/>
<path d="M0 0 C4.95 0 9.9 0 15 0 C15 4.95 15 9.9 15 15 C10.05 15 5.1 15 0 15 C0 10.05 0 5.1 0 0 Z " fill="#FFFFFF" transform="translate(0,210)"/>
<path d="M0 0 C4.95 0 9.9 0 15 0 C15 4.95 15 9.9 15 15 C10.05 15 5.1 15 0 15 C0 10.05 0 5.1 0 0 Z " fill="#FFFFFF" transform="translate(345,195)"/>
<path d="M0 0 C4.95 0 9.9 0 15 0 C15 4.95 15 9.9 15 15 C10.05 15 5.1 15 0 15 C0 10.05 0 5.1 0 0 Z " fill="#EEEFEF" transform="translate(330,195)"/>
<path d="M0 0 C4.95 0 9.9 0 15 0 C15 4.95 15 9.9 15 15 C10.05 15 5.1 15 0 15 C0 10.05 0 5.1 0 0 Z " fill="#FFFFFF" transform="translate(315,195)"/>
<path d="M0 0 C4.95 0 9.9 0 15 0 C15 4.95 15 9.9 15 15 C10.05 15 5.1 15 0 15 C0 10.05 0 5.1 0 0 Z " fill="#EEEFEF" transform="translate(30,195)"/>
<path d="M0 0 C4.95 0 9.9 0 15 0 C15 4.95 15 9.9 15 15 C10.05 15 5.1 15 0 15 C0 10.05 0 5.1 0 0 Z " fill="#FFFFFF" transform="translate(15,195)"/>
<path d="M0 0 C4.95 0 9.9 0 15 0 C15 4.95 15 9.9 15 15 C10.05 15 5.1 15 0 15 C0 10.05 0 5.1 0 0 Z " fill="#EEEFEF" transform="translate(0,195)"/>
<path d="M0 0 C4.95 0 9.9 0 15 0 C15 4.95 15 9.9 15 15 C10.05 15 5.1 15 0 15 C0 10.05 0 5.1 0 0 Z " fill="#EEEFEF" transform="translate(345,180)"/>
<path d="M0 0 C4.95 0 9.9 0 15 0 C15 4.95 15 9.9 15 15 C10.05 15 5.1 15 0 15 C0 10.05 0 5.1 0 0 Z " fill="#FFFFFF" transform="translate(330,180)"/>
<path d="M0 0 C4.95 0 9.9 0 15 0 C15 4.95 15 9.9 15 15 C10.05 15 5.1 15 0 15 C0 10.05 0 5.1 0 0 Z " fill="#EEEFEF" transform="translate(15,180)"/>
<path d="M0 0 C4.95 0 9.9 0 15 0 C15 4.95 15 9.9 15 15 C10.05 15 5.1 15 0 15 C0 10.05 0 5.1 0 0 Z " fill="#FFFFFF" transform="translate(0,180)"/>
<path d="M0 0 C4.95 0 9.9 0 15 0 C15 4.95 15 9.9 15 15 C10.05 15 5.1 15 0 15 C0 10.05 0 5.1 0 0 Z " fill="#FFFFFF" transform="translate(345,165)"/>
<path d="M0 0 C4.95 0 9.9 0 15 0 C15 4.95 15 9.9 15 15 C10.05 15 5.1 15 0 15 C0 10.05 0 5.1 0 0 Z " fill="#EEEFEF" transform="translate(345,150)"/>
<path d="M0 0 C4.95 0 9.9 0 15 0 C15 4.95 15 9.9 15 15 C10.05 15 5.1 15 0 15 C0 10.05 0 5.1 0 0 Z " fill="#FFFFFF" transform="translate(0,150)"/>
<path d="M0 0 C4.95 0 9.9 0 15 0 C15 4.95 15 9.9 15 15 C10.05 15 5.1 15 0 15 C0 10.05 0 5.1 0 0 Z " fill="#EEEFEF" transform="translate(345,90)"/>
<path d="M0 0 C4.95 0 9.9 0 15 0 C15 4.95 15 9.9 15 15 C10.05 15 5.1 15 0 15 C0 10.05 0 5.1 0 0 Z " fill="#FFFFFF" transform="translate(0,90)"/>
<path d="M0 0 C4.95 0 9.9 0 15 0 C15 4.95 15 9.9 15 15 C10.05 15 5.1 15 0 15 C0 10.05 0 5.1 0 0 Z " fill="#FFFFFF" transform="translate(345,75)"/>
<path d="M0 0 C4.95 0 9.9 0 15 0 C15 4.95 15 9.9 15 15 C10.05 15 5.1 15 0 15 C0 10.05 0 5.1 0 0 Z " fill="#EEEFEF" transform="translate(0,75)"/>
<path d="M0 0 C4.95 0 9.9 0 15 0 C15 4.95 15 9.9 15 15 C10.05 15 5.1 15 0 15 C0 10.05 0 5.1 0 0 Z " fill="#EEEFEF" transform="translate(345,60)"/>
<path d="M0 0 C4.95 0 9.9 0 15 0 C15 4.95 15 9.9 15 15 C10.05 15 5.1 15 0 15 C0 10.05 0 5.1 0 0 Z " fill="#FFFFFF" transform="translate(330,60)"/>
<path d="M0 0 C4.95 0 9.9 0 15 0 C15 4.95 15 9.9 15 15 C10.05 15 5.1 15 0 15 C0 10.05 0 5.1 0 0 Z " fill="#EEEFEF" transform="translate(15,60)"/>
<path d="M0 0 C4.95 0 9.9 0 15 0 C15 4.95 15 9.9 15 15 C10.05 15 5.1 15 0 15 C0 10.05 0 5.1 0 0 Z " fill="#FFFFFF" transform="translate(0,60)"/>
<path d="M0 0 C4.95 0 9.9 0 15 0 C15 4.95 15 9.9 15 15 C10.05 15 5.1 15 0 15 C0 10.05 0 5.1 0 0 Z " fill="#FFFFFF" transform="translate(345,45)"/>
<path d="M0 0 C4.95 0 9.9 0 15 0 C15 4.95 15 9.9 15 15 C10.05 15 5.1 15 0 15 C0 10.05 0 5.1 0 0 Z " fill="#EEEFEF" transform="translate(330,45)"/>
<path d="M0 0 C4.95 0 9.9 0 15 0 C15 4.95 15 9.9 15 15 C10.05 15 5.1 15 0 15 C0 10.05 0 5.1 0 0 Z " fill="#FFFFFF" transform="translate(315,45)"/>
<path d="M0 0 C4.95 0 9.9 0 15 0 C15 4.95 15 9.9 15 15 C10.05 15 5.1 15 0 15 C0 10.05 0 5.1 0 0 Z " fill="#EEEFEF" transform="translate(30,45)"/>
<path d="M0 0 C4.95 0 9.9 0 15 0 C15 4.95 15 9.9 15 15 C10.05 15 5.1 15 0 15 C0 10.05 0 5.1 0 0 Z " fill="#FFFFFF" transform="translate(15,45)"/>
<path d="M0 0 C4.95 0 9.9 0 15 0 C15 4.95 15 9.9 15 15 C10.05 15 5.1 15 0 15 C0 10.05 0 5.1 0 0 Z " fill="#EEEFEF" transform="translate(0,45)"/>
<path d="M0 0 C4.95 0 9.9 0 15 0 C15 4.95 15 9.9 15 15 C10.05 15 5.1 15 0 15 C0 10.05 0 5.1 0 0 Z " fill="#EEEFEF" transform="translate(345,30)"/>
<path d="M0 0 C4.95 0 9.9 0 15 0 C15 4.95 15 9.9 15 15 C10.05 15 5.1 15 0 15 C0 10.05 0 5.1 0 0 Z " fill="#FFFFFF" transform="translate(330,30)"/>
<path d="M0 0 C4.95 0 9.9 0 15 0 C15 4.95 15 9.9 15 15 C10.05 15 5.1 15 0 15 C0 10.05 0 5.1 0 0 Z " fill="#EEEFEF" transform="translate(315,30)"/>
<path d="M0 0 C4.95 0 9.9 0 15 0 C15 4.95 15 9.9 15 15 C10.05 15 5.1 15 0 15 C0 10.05 0 5.1 0 0 Z " fill="#FFFFFF" transform="translate(300,30)"/>
<path d="M0 0 C4.95 0 9.9 0 15 0 C15 4.95 15 9.9 15 15 C10.05 15 5.1 15 0 15 C0 10.05 0 5.1 0 0 Z " fill="#EEEFEF" transform="translate(45,30)"/>
<path d="M0 0 C4.95 0 9.9 0 15 0 C15 4.95 15 9.9 15 15 C10.05 15 5.1 15 0 15 C0 10.05 0 5.1 0 0 Z " fill="#FFFFFF" transform="translate(30,30)"/>
<path d="M0 0 C4.95 0 9.9 0 15 0 C15 4.95 15 9.9 15 15 C10.05 15 5.1 15 0 15 C0 10.05 0 5.1 0 0 Z " fill="#EEEFEF" transform="translate(15,30)"/>
<path d="M0 0 C4.95 0 9.9 0 15 0 C15 4.95 15 9.9 15 15 C10.05 15 5.1 15 0 15 C0 10.05 0 5.1 0 0 Z " fill="#FFFFFF" transform="translate(0,30)"/>
<path d="M0 0 C4.95 0 9.9 0 15 0 C15 4.95 15 9.9 15 15 C10.05 15 5.1 15 0 15 C0 10.05 0 5.1 0 0 Z " fill="#FFFFFF" transform="translate(345,15)"/>
<path d="M0 0 C4.95 0 9.9 0 15 0 C15 4.95 15 9.9 15 15 C10.05 15 5.1 15 0 15 C0 10.05 0 5.1 0 0 Z " fill="#EEEFEF" transform="translate(330,15)"/>
<path d="M0 0 C4.95 0 9.9 0 15 0 C15 4.95 15 9.9 15 15 C10.05 15 5.1 15 0 15 C0 10.05 0 5.1 0 0 Z " fill="#FFFFFF" transform="translate(315,15)"/>
<path d="M0 0 C4.95 0 9.9 0 15 0 C15 4.95 15 9.9 15 15 C10.05 15 5.1 15 0 15 C0 10.05 0 5.1 0 0 Z " fill="#EEEFEF" transform="translate(300,15)"/>
<path d="M0 0 C4.95 0 9.9 0 15 0 C15 4.95 15 9.9 15 15 C10.05 15 5.1 15 0 15 C0 10.05 0 5.1 0 0 Z " fill="#FFFFFF" transform="translate(285,15)"/>
<path d="M0 0 C4.95 0 9.9 0 15 0 C15 4.95 15 9.9 15 15 C10.05 15 5.1 15 0 15 C0 10.05 0 5.1 0 0 Z " fill="#FFFFFF" transform="translate(45,15)"/>
<path d="M0 0 C4.95 0 9.9 0 15 0 C15 4.95 15 9.9 15 15 C10.05 15 5.1 15 0 15 C0 10.05 0 5.1 0 0 Z " fill="#EEEFEF" transform="translate(30,15)"/>
<path d="M0 0 C4.95 0 9.9 0 15 0 C15 4.95 15 9.9 15 15 C10.05 15 5.1 15 0 15 C0 10.05 0 5.1 0 0 Z " fill="#FFFFFF" transform="translate(15,15)"/>
<path d="M0 0 C4.95 0 9.9 0 15 0 C15 4.95 15 9.9 15 15 C10.05 15 5.1 15 0 15 C0 10.05 0 5.1 0 0 Z " fill="#EEEFEF" transform="translate(0,15)"/>
<path d="M0 0 C4.95 0 9.9 0 15 0 C15 4.95 15 9.9 15 15 C10.05 15 5.1 15 0 15 C0 10.05 0 5.1 0 0 Z " fill="#EEEFEF" transform="translate(345,0)"/>
<path d="M0 0 C4.95 0 9.9 0 15 0 C15 4.95 15 9.9 15 15 C10.05 15 5.1 15 0 15 C0 10.05 0 5.1 0 0 Z " fill="#FFFFFF" transform="translate(330,0)"/>
<path d="M0 0 C4.95 0 9.9 0 15 0 C15 4.95 15 9.9 15 15 C10.05 15 5.1 15 0 15 C0 10.05 0 5.1 0 0 Z " fill="#EEEFEF" transform="translate(315,0)"/>
<path d="M0 0 C4.95 0 9.9 0 15 0 C15 4.95 15 9.9 15 15 C10.05 15 5.1 15 0 15 C0 10.05 0 5.1 0 0 Z " fill="#FFFFFF" transform="translate(300,0)"/>
<path d="M0 0 C4.95 0 9.9 0 15 0 C15 4.95 15 9.9 15 15 C10.05 15 5.1 15 0 15 C0 10.05 0 5.1 0 0 Z " fill="#EEEFEF" transform="translate(285,0)"/>
<path d="M0 0 C4.95 0 9.9 0 15 0 C15 4.95 15 9.9 15 15 C10.05 15 5.1 15 0 15 C0 10.05 0 5.1 0 0 Z " fill="#FFFFFF" transform="translate(270,0)"/>
<path d="M0 0 C4.95 0 9.9 0 15 0 C15 4.95 15 9.9 15 15 C10.05 15 5.1 15 0 15 C0 10.05 0 5.1 0 0 Z " fill="#EEEFEF" transform="translate(255,0)"/>
<path d="M0 0 C4.95 0 9.9 0 15 0 C15 4.95 15 9.9 15 15 C10.05 15 5.1 15 0 15 C0 10.05 0 5.1 0 0 Z " fill="#FFFFFF" transform="translate(240,0)"/>
<path d="M0 0 C4.95 0 9.9 0 15 0 C15 4.95 15 9.9 15 15 C10.05 15 5.1 15 0 15 C0 10.05 0 5.1 0 0 Z " fill="#EEEFEF" transform="translate(225,0)"/>
<path d="M0 0 C4.95 0 9.9 0 15 0 C15 4.95 15 9.9 15 15 C10.05 15 5.1 15 0 15 C0 10.05 0 5.1 0 0 Z " fill="#FFFFFF" transform="translate(210,0)"/>
<path d="M0 0 C4.95 0 9.9 0 15 0 C15 4.95 15 9.9 15 15 C10.05 15 5.1 15 0 15 C0 10.05 0 5.1 0 0 Z " fill="#EEEFEF" transform="translate(195,0)"/>
<path d="M0 0 C4.95 0 9.9 0 15 0 C15 4.95 15 9.9 15 15 C10.05 15 5.1 15 0 15 C0 10.05 0 5.1 0 0 Z " fill="#FFFFFF" transform="translate(150,0)"/>
<path d="M0 0 C4.95 0 9.9 0 15 0 C15 4.95 15 9.9 15 15 C10.05 15 5.1 15 0 15 C0 10.05 0 5.1 0 0 Z " fill="#FFFFFF" transform="translate(120,0)"/>
<path d="M0 0 C4.95 0 9.9 0 15 0 C15 4.95 15 9.9 15 15 C10.05 15 5.1 15 0 15 C0 10.05 0 5.1 0 0 Z " fill="#EEEFEF" transform="translate(105,0)"/>
<path d="M0 0 C4.95 0 9.9 0 15 0 C15 4.95 15 9.9 15 15 C10.05 15 5.1 15 0 15 C0 10.05 0 5.1 0 0 Z " fill="#FFFFFF" transform="translate(90,0)"/>
<path d="M0 0 C4.95 0 9.9 0 15 0 C15 4.95 15 9.9 15 15 C10.05 15 5.1 15 0 15 C0 10.05 0 5.1 0 0 Z " fill="#EEEFEF" transform="translate(75,0)"/>
<path d="M0 0 C4.95 0 9.9 0 15 0 C15 4.95 15 9.9 15 15 C10.05 15 5.1 15 0 15 C0 10.05 0 5.1 0 0 Z " fill="#FFFFFF" transform="translate(60,0)"/>
<path d="M0 0 C4.95 0 9.9 0 15 0 C15 4.95 15 9.9 15 15 C10.05 15 5.1 15 0 15 C0 10.05 0 5.1 0 0 Z " fill="#EEEFEF" transform="translate(45,0)"/>
<path d="M0 0 C4.95 0 9.9 0 15 0 C15 4.95 15 9.9 15 15 C10.05 15 5.1 15 0 15 C0 10.05 0 5.1 0 0 Z " fill="#FFFFFF" transform="translate(30,0)"/>
<path d="M0 0 C4.95 0 9.9 0 15 0 C15 4.95 15 9.9 15 15 C10.05 15 5.1 15 0 15 C0 10.05 0 5.1 0 0 Z " fill="#FFFFFF" transform="translate(0,0)"/>
<path d="M0 0 C3.61328125 0.03255208 7.2265625 0.06510417 10.83984375 0.09765625 C10.83984375 5.04765625 10.83984375 9.99765625 10.83984375 15.09765625 C5.88984375 15.09765625 0.93984375 15.09765625 -4.16015625 15.09765625 C-4.2578125 4.2578125 -4.2578125 4.2578125 -4.16015625 1.09765625 C-3.16015625 0.09765625 -3.16015625 0.09765625 0 0 Z " fill="#FFFFFF" transform="translate(259.16015625,254.90234375)"/>
<path d="M0 0 C10.83984375 -0.09765625 10.83984375 -0.09765625 14 0 C15 1 15 1 15.09765625 4.16015625 C15.04882812 9.58007812 15.04882812 9.58007812 15 15 C10.05 15 5.1 15 0 15 C0 10.05 0 5.1 0 0 Z " fill="#EEEFEF" transform="translate(90,255)"/>
<path d="M0 0 C4.95 0 9.9 0 15 0 C15 4.95 15 9.9 15 15 C14.01 14.01 13.02 13.02 12 12 C9.38987554 11.46656473 6.94743426 11.08066791 4.3125 10.8125 C3.61060547 10.73064453 2.90871094 10.64878906 2.18554688 10.56445312 C0.45833274 10.36470727 -1.27070003 10.18080012 -3 10 C-2.01 9.67 -1.02 9.34 0 9 C0 6.03 0 3.06 0 0 Z " fill="#EEEEEC" transform="translate(270,15)"/>
<path d="M0 0 C4.95 0 9.9 0 15 0 C15 3.3 15 6.6 15 10 C13.71802734 10.18175781 13.71802734 10.18175781 12.41015625 10.3671875 C11.30542969 10.53476562 10.20070313 10.70234375 9.0625 10.875 C7.96035156 11.03742187 6.85820313 11.19984375 5.72265625 11.3671875 C4.82417969 11.57601563 3.92570312 11.78484375 3 12 C2.67 12.66 2.34 13.32 2 14 C1.34 14 0.68 14 0 14 C0 9.38 0 4.76 0 0 Z " fill="#FEFEFD" transform="translate(75,15)"/>
<path d="M0 0 C4.95 0 9.9 0 15 0 C15 2.31 15 4.62 15 7 C10.05 7.33 5.1 7.66 0 8 C0 5.36 0 2.72 0 0 Z " fill="#FEFEFC" transform="translate(105,15)"/>
<path d="M0 0 C4.95 0 9.9 0 15 0 C15 2.64 15 5.28 15 8 C10.05 7.67 5.1 7.34 0 7 C0 4.69 0 2.38 0 0 Z " fill="#EEEFEC" transform="translate(240,15)"/>
<path d="M0 0 C6.22727273 6.22727273 6.22727273 6.22727273 8.875 9.125 C9.49117187 9.78757813 10.10734375 10.45015625 10.7421875 11.1328125 C11.15726563 11.74898437 11.57234375 12.36515625 12 13 C11.67 13.99 11.34 14.98 11 16 C7.37 16 3.74 16 0 16 C0 10.72 0 5.44 0 0 Z " fill="#EFEEE9" transform="translate(30,164)"/>
<path d="M0 0 C0 4.62 0 9.24 0 14 C-4.62 14.33 -9.24 14.66 -14 15 C-2.81355932 0 -2.81355932 0 0 0 Z " fill="#FEFDFA" transform="translate(330,166)"/>
<path d="M0 0 C3.9252025 3.70090521 6.94580156 7.54959656 10 12 C9 13 9 13 6.93359375 13.09765625 C3.46679688 13.04882812 3.46679688 13.04882812 0 13 C0 8.71 0 4.42 0 0 Z " fill="#F0EDE6" transform="translate(45,182)"/>
<path d="M0 0 C0.33 0 0.66 0 1 0 C1 3.96 1 7.92 1 12 C-2.3 12 -5.6 12 -9 12 C-7.31243615 8.6248723 -5.88864186 6.51329145 -3.4375 3.75 C-2.81746094 3.04359375 -2.19742187 2.3371875 -1.55859375 1.609375 C-1.04425781 1.07828125 -0.52992188 0.5471875 0 0 Z " fill="#FEFCF8" transform="translate(314,183)"/>
<path d="M0 0 C3.3 0 6.6 0 10 0 C10 4.29 10 8.58 10 13 C6.07523398 9.29950632 3.01551157 5.48018862 0 1 C0 0.67 0 0.34 0 0 Z " fill="#FEFEFC" transform="translate(320,75)"/>
<path d="M0 0 C3.3 0 6.6 0 10 0 C9 2 8 4 7 6 C6.34 6 5.68 6 5 6 C4.566875 6.928125 4.566875 6.928125 4.125 7.875 C3 10 3 10 1 12 C0 11 0 11 -0.09765625 8.49609375 C-0.08605469 7.48675781 -0.07445313 6.47742188 -0.0625 5.4375 C-0.05347656 4.42558594 -0.04445313 3.41367188 -0.03515625 2.37109375 C-0.02355469 1.58863281 -0.01195313 0.80617188 0 0 Z " fill="#EFEEEA" transform="translate(30,75)"/>
<path d="M0 0 C0.99 0 1.98 0 3 0 C3 3.3 3 6.6 3 10 C1.5975 10.103125 0.195 10.20625 -1.25 10.3125 C-4.97588819 10.71149275 -7.26728571 11.26728571 -10 14 C-8.44166808 10.5442173 -6.39989555 7.72724126 -4.0625 4.75 C-3.37285156 3.85796875 -2.68320313 2.9659375 -1.97265625 2.046875 C-0.99619141 1.03367187 -0.99619141 1.03367187 0 0 Z " fill="#F2F0EB" transform="translate(237,275)"/>
<path d="M0 0 C3.44620861 1.1487362 4.09169196 2.07581642 6.1875 4.9375 C6.71730469 5.64777344 7.24710937 6.35804688 7.79296875 7.08984375 C9 9 9 9 9 11 C6.03 11 3.06 11 0 11 C0 7.37 0 3.74 0 0 Z " fill="#FEFBF6" transform="translate(120,274)"/>
<path d="M0 0 C4.95 0 9.9 0 15 0 C15 1.65 15 3.3 15 5 C12.87465341 4.85930804 10.74972471 4.71229079 8.625 4.5625 C7.44164062 4.48128906 6.25828125 4.40007813 5.0390625 4.31640625 C2 4 2 4 0 3 C0 2.01 0 1.02 0 0 Z " fill="#EFEFEA" transform="translate(210,15)"/>
<path d="M0 0 C4.95 0 9.9 0 15 0 C15 0.99 15 1.98 15 3 C12.16730334 4.41634833 9.52533562 4.3463005 6.375 4.5625 C5.18648437 4.64628906 3.99796875 4.73007812 2.7734375 4.81640625 C1.85820312 4.87699219 0.94296875 4.93757813 0 5 C0 3.35 0 1.7 0 0 Z " fill="#FEFDF9" transform="translate(135,15)"/>
<path d="M0 0 C8.25 0 16.5 0 25 0 C25 0.99 25 1.98 25 3 C8.29157175 2.03644647 8.29157175 2.03644647 0 1 C0 0.67 0 0.34 0 0 Z " fill="#FBF9F2" transform="translate(185,15)"/>
<path d="M0 0 C0.33 0 0.66 0 1 0 C1 2.97 1 5.94 1 9 C-1.64 9 -4.28 9 -7 9 C-6.02180976 7.68677212 -5.0424189 6.37443848 -4.0625 5.0625 C-3.51722656 4.33160156 -2.97195313 3.60070312 -2.41015625 2.84765625 C-1 1 -1 1 0 0 Z " fill="#FEFCF8" transform="translate(299,201)"/>
<path d="M0 0 C3.34998521 1.11666174 3.79340222 1.74694925 5.6875 4.5625 C6.12449219 5.20316406 6.56148437 5.84382813 7.01171875 6.50390625 C7.33785156 6.99761719 7.66398438 7.49132812 8 8 C7.67 8.66 7.34 9.32 7 10 C4.69 9.34 2.38 8.68 0 8 C0 5.36 0 2.72 0 0 Z " fill="#FEFAF2" transform="translate(135,292)"/>
<path d="M0 0 C0.66 0 1.32 0 2 0 C2.3125 2.3125 2.3125 2.3125 2 5 C-0.1875 6.5 -0.1875 6.5 -3 8 C-4.7041054 9.62836738 -6.38025441 11.28769752 -8 13 C-8.66 12.67 -9.32 12.34 -10 12 C-8.38201759 9.99394062 -6.75623702 7.99523205 -5.125 6 C-4.66480469 5.42765625 -4.20460938 4.8553125 -3.73046875 4.265625 C-2.53150078 2.80601181 -1.26958455 1.3986243 0 0 Z " fill="#F9F5EC" transform="translate(283,220)"/>
<path d="M0 0 C3.82946843 1.45255699 5.12050295 3.42895561 7 7 C6 8 6 8 2.9375 8.0625 C1.968125 8.041875 0.99875 8.02125 0 8 C0 5.36 0 2.72 0 0 Z " fill="#F0EEE9" transform="translate(60,202)"/>
<path d="M0 0 C2.31 0 4.62 0 7 0 C6.02501855 1.5027237 5.04490611 3.00211963 4.0625 4.5 C3.51722656 5.3353125 2.97195312 6.170625 2.41015625 7.03125 C1.71212891 8.00578125 1.71212891 8.00578125 1 9 C0.67 9 0.34 9 0 9 C0 6.03 0 3.06 0 0 Z " fill="#F0EEE8" transform="translate(45,60)"/>
<path d="M0 0 C0 2.31 0 4.62 0 7 C-1.98 7 -3.96 7 -6 7 C-6 6.01 -6 5.02 -6 4 C-1.54285714 0 -1.54285714 0 0 0 Z " fill="#F1EFE9" transform="translate(225,293)"/>
<path d="M0 0 C1.98 0 3.96 0 6 0 C6 2.64 6 5.28 6 8 C1.125 3.375 1.125 3.375 0 0 Z " fill="#FEFEFC" transform="translate(309,60)"/>
<path d="M0 0 C0.33 0 0.66 0 1 0 C1 2.31 1 4.62 1 7 C-0.423125 7.4640625 -0.423125 7.4640625 -1.875 7.9375 C-4.86080408 8.87394742 -4.86080408 8.87394742 -7 10 C-5.32971708 6.05205855 -2.8204435 3.18203882 0 0 Z " fill="#F5EFE2" transform="translate(359,128)"/>
<path d="M0 0 C2.96404505 2.80804268 5.44499019 5.18315774 7 9 C4.69 8.34 2.38 7.68 0 7 C0 4.69 0 2.38 0 0 Z " fill="#FDF8ED" transform="translate(0,128)"/>
<path d="M0 0 C1.65 0 3.3 0 5 0 C5 2.31 5 4.62 5 7 C3.29115995 5.37660195 1.62553283 3.70680947 0 2 C0 1.34 0 0.68 0 0 Z " fill="#F0ECE1" transform="translate(355,120)"/>
<path d="M0 0 C1.65 0 3.3 0 5 0 C3.70700306 2.88437779 2.34058637 4.87219421 0 7 C0 4.69 0 2.38 0 0 Z " fill="#FEFCF8" transform="translate(0,120)"/>
<path d="M0 0 C0 1.32 0 2.64 0 4 C-1.175625 4.4640625 -1.175625 4.4640625 -2.375 4.9375 C-4.92330128 5.92875038 -4.92330128 5.92875038 -7 7 C-3.86206897 0 -3.86206897 0 0 0 Z " fill="#F6F0E6" transform="translate(210,311)"/>
<path d="M0 0 C0.66 0 1.32 0 2 0 C3.38232443 1.62626404 4.71937515 3.2925002 6 5 C5.67 5.66 5.34 6.32 5 7 C2.525 6.01 2.525 6.01 0 5 C0 3.35 0 1.7 0 0 Z " fill="#FDF8EE" transform="translate(150,310)"/>
</svg>
