<svg width="35" height="49" viewBox="0 0 35 49" fill="none" xmlns="http://www.w3.org/2000/svg">
<g clipPath="url(#clip0_2041_41157)">
<path d="M34.1704 10.1592L31.0802 44.7777L17.1895 48.6286L3.33702 44.783L0.25 10.1592H34.1704Z" fill="#E44D26"/>
<path d="M17.21 45.6851L28.4344 42.5734L31.075 12.9902H17.21V45.6851Z" fill="#F16529"/>
<path d="M11.2033 21.4828H17.2107V17.2363H6.5625L6.66408 18.3756L7.70785 30.0777H17.2107V25.8313H11.5915L11.2033 21.4828ZM12.1604 32.201H7.89759L8.49247 38.8686L17.1911 41.2833L17.2107 41.2779V36.8598L17.192 36.8647L12.4628 35.5878L12.1604 32.201Z" fill="#EBEBEB"/>
<path d="M3.40527 0.75H5.56328V2.88208H7.5374V0.75H9.69553V7.20647H7.53753V5.04447H5.56341V7.20647H3.40541L3.40527 0.75ZM12.5333 2.89112H10.6337V0.75H16.5924V2.89112H14.6917V7.20647H12.5336V2.89112H12.5333ZM17.538 0.75H19.7882L21.1723 3.01863L22.5551 0.75H24.8062V7.20647H22.657V4.00629L21.1723 6.30191H21.1351L19.6495 4.00629V7.20647H17.538V0.75ZM25.8802 0.75H28.0388V5.07239H31.0736V7.20647H25.88V0.75H25.8802Z" fill="white"/>
<path d="M17.1954 30.0777H22.4245L21.9315 35.5851L17.1953 36.8634V41.2813L25.9009 38.8686L25.9647 38.1512L26.9627 26.9716L27.0663 25.8313H17.1954V30.0777ZM17.1954 21.4724V21.4828H27.4527L27.5378 20.5284L27.7314 18.3756L27.8328 17.2363H17.1954V21.4724Z" fill="white"/>
</g>
<defs>
<clipPath id="clip0_2041_41157">
<rect width="34.08" height="48" fill="white" transform="translate(0.25 0.75)"/>
</clipPath>
</defs>
</svg>
