<svg width="49" height="49" viewBox="0 0 49 49" fill="none" xmlns="http://www.w3.org/2000/svg">
<g clipPath="url(#clip0_2041_41179)">
<g clipPath="url(#clip1_2041_41179)">
<path d="M48.2925 47.4497H0.743164V0.395508H48.2925V47.4497Z" fill="#F7DF1E"/>
<path d="M48.7313 47.8832H0.305664V-0.0380859H48.7313V47.8832ZM1.21506 46.9776H47.8212V0.86753H1.21506V46.9776Z" fill="#EEEEEE"/>
<path d="M32.737 37.3276C33.697 38.8952 34.9459 40.0472 37.1553 40.0472C39.0112 40.0472 40.1966 39.1196 40.1966 37.8385C40.1966 36.303 38.9789 35.7587 36.9359 34.8654L35.8168 34.3851C32.5847 33.0085 30.4379 31.2833 30.4379 27.6368C30.4379 24.2777 32.9968 21.7207 36.9971 21.7207C39.8445 21.7207 41.892 22.7119 43.3672 25.3068L39.8795 27.546C39.1115 26.1689 38.2834 25.6267 36.9971 25.6267C35.6848 25.6267 34.8537 26.459 34.8537 27.546C34.8537 28.8893 35.686 29.4336 37.6074 30.2659L38.7273 30.7456C42.5327 32.3774 44.6812 34.0411 44.6812 37.7816C44.6812 41.8133 41.5136 44.0227 37.2594 44.0227C33.0997 44.0227 30.4126 42.0408 29.0977 39.4431C29.0977 39.4422 32.737 37.3276 32.737 37.3276ZM16.9159 37.7158C17.6198 38.9643 18.2599 40.0196 19.7982 40.0196C21.2697 40.0196 22.198 39.4441 22.198 37.2053V21.9761H26.6764V37.2654C26.6764 41.9027 23.9572 44.0137 19.9886 44.0137C16.4025 44.0137 14.3258 42.1578 13.2695 39.9229L16.9159 37.7158Z" fill="black"/>
</g>
</g>
<defs>
<clipPath id="clip0_2041_41179">
<rect width="48" height="48" fill="white" transform="translate(0.759766 0.375)"/>
</clipPath>
<clipPath id="clip1_2041_41179">
<rect x="0.250977" width="48.4729" height="48" rx="11.25" fill="white"/>
</clipPath>
</defs>
</svg>
