<svg width="49" height="49" viewBox="0 0 49 49" fill="none" xmlns="http://www.w3.org/2000/svg">
<g clipPath="url(#clip0_2041_41187)">
<path d="M24.2946 48.3757C24.2926 48.3757 24.2906 48.3757 24.2886 48.3757C23.6106 48.3757 22.9767 48.1937 22.4326 47.8737L22.4506 47.8837L16.5766 44.4097C15.7006 43.9177 16.1286 43.7457 16.4166 43.6437C17.4286 43.3257 18.3086 42.9137 19.1206 42.4077L19.0726 42.4357C19.1286 42.4097 19.1926 42.3957 19.2606 42.3957C19.3526 42.3957 19.4386 42.4237 19.5106 42.4717L19.5086 42.4697L24.0206 45.1477C24.0986 45.1897 24.1926 45.2157 24.2926 45.2157C24.3926 45.2157 24.4866 45.1897 24.5686 45.1457L24.5646 45.1477L42.1526 34.9937C42.3146 34.8937 42.4206 34.7177 42.4206 34.5177C42.4206 34.5157 42.4206 34.5157 42.4206 34.5137V14.2197C42.4186 14.0177 42.3106 13.8397 42.1486 13.7417L42.1466 13.7397L24.5646 3.59574C24.4867 3.55174 24.3926 3.52574 24.2946 3.52574C24.1966 3.52574 24.1026 3.55174 24.0206 3.59774L24.0226 3.59574L6.44465 13.7417C6.27865 13.8397 6.16865 14.0177 6.16665 14.2217V34.5197C6.16665 34.7217 6.27665 34.8957 6.44065 34.9877L6.44265 34.9897L11.2626 37.7737C13.8766 39.0817 15.4766 37.5417 15.4766 35.9957V15.9517C15.4766 15.6717 15.7046 15.4437 15.9846 15.4437H15.9906H18.2206C18.5006 15.4437 18.7306 15.6697 18.7306 15.9517V35.9957C18.7306 39.4857 16.8306 41.4877 13.5226 41.4877C13.4826 41.4877 13.4366 41.4897 13.3906 41.4897C11.9406 41.4897 10.5866 41.0797 9.43865 40.3697L4.85865 37.7337C3.74665 37.0777 3.01465 35.8877 3.01465 34.5237V14.2217C3.01665 12.8617 3.75065 11.6757 4.84265 11.0317L4.86065 11.0217L22.4506 0.857742C22.9846 0.559742 23.6206 0.385742 24.2986 0.385742C24.9766 0.385742 25.6146 0.561742 26.1666 0.867742L26.1466 0.857742L43.7346 11.0217C44.8446 11.6757 45.5766 12.8617 45.5806 14.2217V34.5217C45.5786 35.8837 44.8447 37.0737 43.7506 37.7217L43.7326 37.7317L26.1486 47.8877C25.6206 48.1977 24.9846 48.3797 24.3046 48.3797C24.3006 48.3797 24.2946 48.3797 24.2906 48.3797L24.2946 48.3757Z" fill="white"/>
<path d="M29.728 34.3933C22.032 34.3933 20.418 30.8613 20.418 27.8953V27.8933C20.418 27.6133 20.644 27.3873 20.924 27.3873H20.928H23.202C23.456 27.3873 23.668 27.5733 23.708 27.8153C24.05 30.1313 25.074 31.3013 29.728 31.3013C33.434 31.3013 35.008 30.4633 35.008 28.4973C35.008 27.3633 34.562 26.5233 28.804 25.9593C23.992 25.4793 21.016 24.4193 21.016 20.5693C21.016 17.0213 24.008 14.9033 29.016 14.9033C34.652 14.9033 37.44 16.8593 37.792 21.0553C37.794 21.0693 37.794 21.0853 37.794 21.0993C37.794 21.3813 37.566 21.6073 37.286 21.6073H35.02C34.78 21.6073 34.578 21.4373 34.528 21.2113V21.2073C33.98 18.7713 32.648 17.9933 29.036 17.9933C24.99 17.9933 24.52 19.4033 24.52 20.4573C24.52 21.7373 25.076 22.1093 30.538 22.8313C35.942 23.5473 38.51 24.5573 38.51 28.3553C38.502 32.1933 35.308 34.3893 29.734 34.3893L29.728 34.3933Z" fill="white"/>
</g>
<defs>
<clipPath id="clip0_2041_41187">
<rect width="48" height="48" fill="white" transform="translate(0.015625 0.375)"/>
</clipPath>
</defs>
</svg>
