<svg width="48" height="49" viewBox="0 0 48 49" fill="none" xmlns="http://www.w3.org/2000/svg">
<g clipPath="url(#clip0_2041_41208)">
<path d="M0.000976562 48.25H48.001V0.25H0.000976562V48.25Z" fill="#222222"/>
<path d="M23.9641 20.2661C26.181 20.2661 27.9781 22.0632 27.9781 24.28C27.9781 26.4968 26.181 28.2939 23.9641 28.2939C21.7473 28.2939 19.9502 26.4968 19.9502 24.28C19.9502 22.0632 21.7473 20.2661 23.9641 20.2661Z" fill="#00D8FF"/>
<path d="M23.963 32.4395C29.3512 32.4395 34.3573 31.6661 38.1312 30.3675C42.6783 28.8022 45.4746 26.4292 45.4746 24.2803C45.4746 22.0412 42.5112 19.5195 37.6284 17.9026C33.9368 16.6795 29.078 16.0402 23.963 16.0402C18.7181 16.0402 13.7531 16.6398 10.0191 17.9158C5.29549 19.5302 2.4502 22.0836 2.4502 24.2803C2.4502 26.4119 5.1204 28.7664 9.6039 30.329C13.3923 31.6489 18.5218 32.4395 23.963 32.4395Z" stroke="#00D8FF" strokeWidth="1.91915" stroke-miterlimit="10"/>
<path d="M16.8599 28.3353C19.5513 33.0032 22.723 36.9535 25.7341 39.5733C29.362 42.7303 32.8148 43.9666 34.6759 42.8934C36.6152 41.7752 37.3195 37.9483 36.2809 32.909C35.4956 29.0994 33.6226 24.5721 31.0665 20.1403C28.4467 15.5971 25.4462 11.5952 22.4762 8.99791C18.7183 5.71221 15.0838 4.52369 13.1816 5.62069C11.3351 6.68585 10.6294 10.1745 11.5142 14.8397C12.2623 18.7847 14.1406 23.6223 16.8599 28.3353Z" stroke="#00D8FF" strokeWidth="1.91915" stroke-miterlimit="10"/>
<path d="M16.8675 20.1315C14.1681 24.7954 12.3296 29.515 11.5629 33.4321C10.6397 38.1517 11.2923 41.761 13.152 42.8368C15.09 43.959 18.7564 42.6577 22.6032 39.2421C25.5122 36.6594 28.4981 32.7755 31.0608 28.3477C33.6886 23.8085 35.6584 19.2109 36.4238 15.3415C37.3934 10.4442 36.6082 6.70217 34.7073 5.60252C32.8622 4.5347 29.4876 5.66487 25.8876 8.7622C22.8473 11.3793 19.5934 15.4225 16.8675 20.1315Z" stroke="#00D8FF" strokeWidth="1.91915" stroke-miterlimit="10"/>
</g>
<defs>
<clipPath id="clip0_2041_41208">
<rect width="48" height="48" rx="6.75" transform="matrix(1 0 0 -1 0.000976562 48.25)" fill="white"/>
</clipPath>
</defs>
</svg>
