<svg width="49" height="49" viewBox="0 0 49 49" fill="none" xmlns="http://www.w3.org/2000/svg">
<g clipPath="url(#clip0_2041_41201)">
<path d="M12.9323 37.0801C12.7921 37.0799 12.6549 37.121 12.5379 37.1982C12.4187 37.2771 12.3095 37.4132 12.3095 37.5874C12.3095 37.6106 12.2961 37.6621 12.3409 37.7519L12.3293 37.7235L14.7256 45.4981C14.7686 45.6439 14.8714 45.7553 14.9873 45.8196C15.1032 45.8839 15.2295 45.9075 15.3529 45.9075C15.6146 45.9075 15.9024 45.7826 15.9903 45.5007V45.5L18.3843 37.6962V37.6677C18.3843 37.7074 18.3959 37.6846 18.3959 37.5993C18.3959 37.4218 18.2827 37.2913 18.1615 37.2094C18.0404 37.1261 17.897 37.081 17.7499 37.0801C17.5668 37.0801 17.3567 37.1911 17.2864 37.4027L17.2849 37.4049L15.3522 43.8551L13.412 37.4165C13.3832 37.3014 13.3058 37.2053 13.2157 37.1515C13.1256 37.0976 13.0273 37.0801 12.9323 37.0801ZM32.0185 37.4808C31.6372 37.4808 31.3157 37.7732 31.3157 38.1388C31.3157 38.5044 31.632 38.8068 32.0185 38.8068C32.3976 38.8068 32.6989 38.4988 32.6989 38.1388C32.6989 37.7788 32.3924 37.4808 32.0185 37.4808ZM26.4001 39.9698C25.0962 39.9698 24.0222 41.0136 24.0222 42.2678V43.553C24.0222 44.2555 24.3018 44.8577 24.7773 45.2731C25.2521 45.6888 25.9153 45.9187 26.6753 45.9187C27.2368 45.9187 27.6947 45.7927 28.0218 45.6222C28.1856 45.5366 28.3172 45.4409 28.414 45.3366C28.5112 45.2319 28.5822 45.1179 28.5822 44.9751C28.5822 44.8443 28.5321 44.7306 28.4503 44.6286C28.3688 44.5265 28.2402 44.4327 28.0742 44.4327C27.9546 44.4327 27.8626 44.4832 27.783 44.5321C27.7033 44.5807 27.6286 44.6349 27.5385 44.6869C27.3583 44.7904 27.1198 44.8914 26.6981 44.8914C26.2285 44.8914 25.8375 44.7575 25.5676 44.5325C25.2984 44.3082 25.1414 43.996 25.1414 43.5871V43.3493H27.5471C27.8039 43.3493 28.0891 43.3493 28.3359 43.1923C28.5826 43.0345 28.7321 42.7213 28.7321 42.2454C28.7321 40.9257 27.6316 39.9698 26.4001 39.9698ZM35.4417 39.9698C34.7486 39.9698 34.2387 40.1941 33.9113 40.5313C33.5838 40.8685 33.4425 41.3074 33.4425 41.7171C33.4425 42.2398 33.6537 42.6143 33.9557 42.854C34.2582 43.0944 34.6343 43.2151 34.992 43.3228C35.3498 43.4308 35.6922 43.5265 35.9221 43.6682C36.152 43.8102 36.2754 43.9631 36.2754 44.2865C36.2754 44.4604 36.2231 44.5987 36.0821 44.7116C35.9408 44.8248 35.6896 44.9138 35.281 44.9138C34.7976 44.9138 34.5273 44.7946 34.3303 44.6731C34.232 44.6121 34.1528 44.5489 34.0713 44.4925C33.9898 44.436 33.8971 44.3751 33.7673 44.3751C33.6114 44.3751 33.4963 44.4712 33.4264 44.5706C33.3556 44.6682 33.317 44.7854 33.3161 44.906C33.3161 45.0574 33.3901 45.1905 33.4944 45.306C33.5991 45.4215 33.74 45.5243 33.9135 45.614C34.26 45.7934 34.7374 45.9187 35.3042 45.9187C35.9199 45.9187 36.4261 45.7684 36.7846 45.4768C37.1427 45.1852 37.3378 44.7519 37.3378 44.2525C37.3378 43.688 37.1326 43.2824 36.8305 43.014C36.5281 42.7459 36.1464 42.6076 35.7834 42.4962C35.4204 42.3852 35.0709 42.2985 34.8372 42.1766C34.6032 42.0547 34.4933 41.9422 34.4933 41.6831C34.4933 41.5429 34.5494 41.3665 34.6918 41.227C34.8343 41.0883 35.0668 40.9755 35.4533 40.9755C35.7621 40.9755 35.9917 41.0465 36.1756 41.1212C36.2675 41.159 36.3475 41.1983 36.4231 41.2312C36.4989 41.2637 36.5689 41.2958 36.669 41.2958C36.8504 41.2958 36.9748 41.1762 37.0489 41.0652C37.1229 40.9541 37.1655 40.8446 37.1655 40.719C37.1655 40.562 37.0679 40.4506 36.9599 40.3676C36.8518 40.2846 36.7158 40.2173 36.5588 40.1597C36.2447 40.0446 35.844 39.9698 35.4417 39.9698ZM19.0464 40.0394C18.7432 40.0394 18.4812 40.2296 18.4812 40.5126V43.5755C18.4812 44.8181 19.5376 45.9187 20.8476 45.9187C22.1358 45.9187 23.2139 44.8308 23.2139 43.5755V40.5014C23.2139 40.3601 23.1362 40.2371 23.0337 40.159C22.9313 40.0812 22.8012 40.0394 22.6599 40.0394C22.5186 40.0394 22.3878 40.0805 22.2831 40.1571C22.1784 40.2334 22.0947 40.3553 22.0947 40.5014V43.5755C22.0947 44.2267 21.5272 44.857 20.8476 44.857C20.1571 44.857 19.6008 44.2155 19.6008 43.5755V40.5126C19.6008 40.3657 19.5204 40.2528 19.4214 40.1724C19.3223 40.0921 19.1915 40.0394 19.0464 40.0394ZM32.0189 40.0394C31.8768 40.0394 31.746 40.076 31.6413 40.1549C31.5366 40.2334 31.4656 40.3635 31.4656 40.5014V46.1449C31.4656 46.5684 31.4357 46.9236 31.3426 47.1389C31.2499 47.3538 31.14 47.4492 30.8267 47.4492C30.5497 47.4492 30.3183 47.691 30.3183 47.9808C30.3183 48.1008 30.3572 48.2331 30.4555 48.3359C30.5538 48.4387 30.7067 48.4996 30.8836 48.4996C31.4795 48.4996 31.9355 48.2353 32.2069 47.8062C32.4791 47.3766 32.5845 46.8024 32.5845 46.1449V40.5014C32.5845 40.3545 32.5008 40.2267 32.3939 40.1511C32.2835 40.0759 32.1525 40.0368 32.0189 40.0394ZM26.3886 40.9639C27.1329 40.9639 27.6357 41.587 27.6357 42.2218C27.6357 42.291 27.6282 42.3362 27.6207 42.3568C27.614 42.3773 27.6147 42.3747 27.6043 42.3818C27.5837 42.3953 27.4686 42.4248 27.2487 42.4248H25.1414V42.1758C25.1414 41.5115 25.6966 40.9639 26.3886 40.9639ZM29.9445 44.4667C29.5377 44.4667 29.2297 44.8032 29.2297 45.1927C29.2297 45.5665 29.5333 45.9075 29.9445 45.9075C30.334 45.9075 30.6473 45.577 30.6473 45.1927C30.6473 44.7938 30.3288 44.4667 29.9445 44.4667Z" fill="#35495E"/>
<path d="M15.6602 0.611328L21.2063 0.613015L24.8316 6.63091L28.4443 0.613858L33.9857 0.612453L24.8595 16.4428L15.6602 0.611328Z" fill="#35495E"/>
<path d="M4.59473 0.666885L12.6322 0.612305L24.8649 21.6649L37.0018 0.613426L45.0531 0.622024L24.8634 35.2707L4.59473 0.666885Z" fill="#41B883"/>
</g>
<defs>
<clipPath id="clip0_2041_41201">
<rect x="0.75" y="0.5" width="48" height="48" rx="11.25" fill="white"/>
</clipPath>
</defs>
</svg>
